# generated by generate.py
v 0.00000 0.00000 0.00000
v 15.30000 0.00000 3.90000
v 15.27615 0.00000 4.08117
v 15.20622 0.00000 4.25000
v 15.09497 0.00000 4.39497
v 14.95000 0.00000 4.50622
v 14.78117 0.00000 4.57615
v 14.60000 0.00000 4.60000
v -14.60000 0.00000 4.60000
v -14.78117 0.00000 4.57615
v -14.95000 0.00000 4.50622
v -15.09497 0.00000 4.39497
v -15.20622 0.00000 4.25000
v -15.27615 0.00000 4.08117
v -15.30000 0.00000 3.90000
v -15.30000 0.00000 -3.90000
v -15.27615 0.00000 -4.08117
v -15.20622 0.00000 -4.25000
v -15.09497 0.00000 -4.39497
v -14.95000 0.00000 -4.50622
v -14.78117 0.00000 -4.57615
v -14.60000 0.00000 -4.60000
v 14.60000 0.00000 -4.60000
v 14.78117 0.00000 -4.57615
v 14.95000 0.00000 -4.50622
v 15.09497 0.00000 -4.39497
v 15.20622 0.00000 -4.25000
v 15.27615 0.00000 -4.08117
v 15.30000 0.00000 -3.90000
v 15.50000 0.20000 3.90000
v 15.46933 0.20000 4.13294
v 15.37942 0.20000 4.35000
v 15.23640 0.20000 4.53640
v 15.05000 0.20000 4.67942
v 14.83294 0.20000 4.76933
v 14.60000 0.20000 4.80000
v -14.60000 0.20000 4.80000
v -14.83294 0.20000 4.76933
v -15.05000 0.20000 4.67942
v -15.23640 0.20000 4.53640
v -15.37942 0.20000 4.35000
v -15.46933 0.20000 4.13294
v -15.50000 0.20000 3.90000
v -15.50000 0.20000 -3.90000
v -15.46933 0.20000 -4.13294
v -15.37942 0.20000 -4.35000
v -15.23640 0.20000 -4.53640
v -15.05000 0.20000 -4.67942
v -14.83294 0.20000 -4.76933
v -14.60000 0.20000 -4.80000
v 14.60000 0.20000 -4.80000
v 14.83294 0.20000 -4.76933
v 15.05000 0.20000 -4.67942
v 15.23640 0.20000 -4.53640
v 15.37942 0.20000 -4.35000
v 15.46933 0.20000 -4.13294
v 15.50000 0.20000 -3.90000
v 15.50000 1.30000 3.90000
v 15.46933 1.30000 4.13294
v 15.37942 1.30000 4.35000
v 15.23640 1.30000 4.53640
v 15.05000 1.30000 4.67942
v 14.83294 1.30000 4.76933
v 14.60000 1.30000 4.80000
v -14.60000 1.30000 4.80000
v -14.83294 1.30000 4.76933
v -15.05000 1.30000 4.67942
v -15.23640 1.30000 4.53640
v -15.37942 1.30000 4.35000
v -15.46933 1.30000 4.13294
v -15.50000 1.30000 3.90000
v -15.50000 1.30000 -3.90000
v -15.46933 1.30000 -4.13294
v -15.37942 1.30000 -4.35000
v -15.23640 1.30000 -4.53640
v -15.05000 1.30000 -4.67942
v -14.83294 1.30000 -4.76933
v -14.60000 1.30000 -4.80000
v 14.60000 1.30000 -4.80000
v 14.83294 1.30000 -4.76933
v 15.05000 1.30000 -4.67942
v 15.23640 1.30000 -4.53640
v 15.37942 1.30000 -4.35000
v 15.46933 1.30000 -4.13294
v 15.50000 1.30000 -3.90000
v 15.44000 1.41000 3.90000
v 15.41138 1.41000 4.11741
v 15.32746 1.41000 4.32000
v 15.19397 1.41000 4.49397
v 15.02000 1.41000 4.62746
v 14.81741 1.41000 4.71138
v 14.60000 1.41000 4.74000
v -14.60000 1.41000 4.74000
v -14.81741 1.41000 4.71138
v -15.02000 1.41000 4.62746
v -15.19397 1.41000 4.49397
v -15.32746 1.41000 4.32000
v -15.41138 1.41000 4.11741
v -15.44000 1.41000 3.90000
v -15.44000 1.41000 -3.90000
v -15.41138 1.41000 -4.11741
v -15.32746 1.41000 -4.32000
v -15.19397 1.41000 -4.49397
v -15.02000 1.41000 -4.62746
v -14.81741 1.41000 -4.71138
v -14.60000 1.41000 -4.74000
v 14.60000 1.41000 -4.74000
v 14.81741 1.41000 -4.71138
v 15.02000 1.41000 -4.62746
v 15.19397 1.41000 -4.49397
v 15.32746 1.41000 -4.32000
v 15.41138 1.41000 -4.11741
v 15.44000 1.41000 -3.90000
v 15.30000 1.50000 3.90000
v 15.27615 1.50000 4.08117
v 15.20622 1.50000 4.25000
v 15.09497 1.50000 4.39497
v 14.95000 1.50000 4.50622
v 14.78117 1.50000 4.57615
v 14.60000 1.50000 4.60000
v -14.60000 1.50000 4.60000
v -14.78117 1.50000 4.57615
v -14.95000 1.50000 4.50622
v -15.09497 1.50000 4.39497
v -15.20622 1.50000 4.25000
v -15.27615 1.50000 4.08117
v -15.30000 1.50000 3.90000
v -15.30000 1.50000 -3.90000
v -15.27615 1.50000 -4.08117
v -15.20622 1.50000 -4.25000
v -15.09497 1.50000 -4.39497
v -14.95000 1.50000 -4.50622
v -14.78117 1.50000 -4.57615
v -14.60000 1.50000 -4.60000
v 14.60000 1.50000 -4.60000
v 14.78117 1.50000 -4.57615
v 14.95000 1.50000 -4.50622
v 15.09497 1.50000 -4.39497
v 15.20622 1.50000 -4.25000
v 15.27615 1.50000 -4.08117
v 15.30000 1.50000 -3.90000
v 14.90000 1.50000 3.90000
v 14.88978 1.50000 3.97765
v 14.85981 1.50000 4.05000
v 14.81213 1.50000 4.11213
v 14.75000 1.50000 4.15981
v 14.67765 1.50000 4.18978
v 14.60000 1.50000 4.20000
v -14.60000 1.50000 4.20000
v -14.67765 1.50000 4.18978
v -14.75000 1.50000 4.15981
v -14.81213 1.50000 4.11213
v -14.85981 1.50000 4.05000
v -14.88978 1.50000 3.97765
v -14.90000 1.50000 3.90000
v -14.90000 1.50000 -3.90000
v -14.88978 1.50000 -3.97765
v -14.85981 1.50000 -4.05000
v -14.81213 1.50000 -4.11213
v -14.75000 1.50000 -4.15981
v -14.67765 1.50000 -4.18978
v -14.60000 1.50000 -4.20000
v 14.60000 1.50000 -4.20000
v 14.67765 1.50000 -4.18978
v 14.75000 1.50000 -4.15981
v 14.81213 1.50000 -4.11213
v 14.85981 1.50000 -4.05000
v 14.88978 1.50000 -3.97765
v 14.90000 1.50000 -3.90000
v 14.90000 1.10000 3.90000
v 14.88978 1.10000 3.97765
v 14.85981 1.10000 4.05000
v 14.81213 1.10000 4.11213
v 14.75000 1.10000 4.15981
v 14.67765 1.10000 4.18978
v 14.60000 1.10000 4.20000
v -14.60000 1.10000 4.20000
v -14.67765 1.10000 4.18978
v -14.75000 1.10000 4.15981
v -14.81213 1.10000 4.11213
v -14.85981 1.10000 4.05000
v -14.88978 1.10000 3.97765
v -14.90000 1.10000 3.90000
v -14.90000 1.10000 -3.90000
v -14.88978 1.10000 -3.97765
v -14.85981 1.10000 -4.05000
v -14.81213 1.10000 -4.11213
v -14.75000 1.10000 -4.15981
v -14.67765 1.10000 -4.18978
v -14.60000 1.10000 -4.20000
v 14.60000 1.10000 -4.20000
v 14.67765 1.10000 -4.18978
v 14.75000 1.10000 -4.15981
v 14.81213 1.10000 -4.11213
v 14.85981 1.10000 -4.05000
v 14.88978 1.10000 -3.97765
v 14.90000 1.10000 -3.90000
v 0.00000 1.10000 0.00000
vn 0.00000 -1.00000 0.00000
vn 0.01326 -0.99991 0.00009
vn 0.01939 -0.99979 0.00628
vn 0.01767 -0.99978 0.01145
vn 0.01561 -0.99973 0.01731
vn 0.01278 -0.99961 0.02502
vn 0.00801 -0.99926 0.03750
vn 0.00003 -0.99685 0.07933
vn -0.00008 -0.99912 0.04184
vn -0.01182 -0.99926 0.03648
vn -0.01528 -0.99961 0.02358
vn -0.01731 -0.99973 0.01561
vn -0.01875 -0.99978 0.00958
vn -0.01993 -0.99979 0.00425
vn -0.02517 -0.99968 0.00004
vn -0.01326 -0.99991 -0.00009
vn -0.01939 -0.99979 -0.00628
vn -0.01767 -0.99978 -0.01145
vn -0.01561 -0.99973 -0.01731
vn -0.01278 -0.99961 -0.02502
vn -0.00801 -0.99926 -0.03750
vn -0.00003 -0.99685 -0.07933
vn 0.00008 -0.99912 -0.04184
vn 0.01182 -0.99926 -0.03648
vn 0.01528 -0.99961 -0.02358
vn 0.01731 -0.99973 -0.01561
vn 0.01875 -0.99978 -0.00958
vn 0.01993 -0.99979 -0.00425
vn 0.02517 -0.99968 -0.00004
vn 0.96820 -0.25009 0.00581
vn 0.94731 -0.14255 0.28686
vn 0.84078 -0.14255 0.52227
vn 0.67696 -0.14255 0.72208
vn 0.46701 -0.14255 0.87269
vn 0.22523 -0.14255 0.96382
vn 0.00063 -0.08381 0.99648
vn -0.00160 -0.25558 0.96679
vn -0.28686 -0.14255 0.94731
vn -0.52227 -0.14255 0.84078
vn -0.72208 -0.14255 0.67696
vn -0.87269 -0.14255 0.46701
vn -0.96382 -0.14255 0.22523
vn -0.99630 -0.08588 0.00233
vn -0.96820 -0.25009 -0.00581
vn -0.94731 -0.14255 -0.28686
vn -0.84078 -0.14255 -0.52227
vn -0.67696 -0.14255 -0.72208
vn -0.46701 -0.14255 -0.87269
vn -0.22523 -0.14255 -0.96382
vn -0.00063 -0.08381 -0.99648
vn 0.00160 -0.25558 -0.96679
vn 0.28686 -0.14255 -0.94731
vn 0.52227 -0.14255 -0.84078
vn 0.72208 -0.14255 -0.67696
vn 0.87269 -0.14255 -0.46701
vn 0.96382 -0.14255 -0.22523
vn 0.99630 -0.08588 -0.00233
vn 0.99963 0.02701 0.00220
vn 0.97352 0.04849 0.22340
vn 0.88253 0.04849 0.46775
vn 0.73139 0.04849 0.68023
vn 0.53042 0.04849 0.84635
vn 0.29329 0.04849 0.95479
vn 0.00181 0.08965 0.99597
vn -0.00059 0.02625 0.99966
vn -0.22340 0.04849 0.97352
vn -0.46775 0.04849 0.88253
vn -0.68023 0.04849 0.73139
vn -0.84635 0.04849 0.53042
vn -0.95479 0.04849 0.29329
vn -0.99616 0.08735 0.00651
vn -0.99963 0.02701 -0.00220
vn -0.97352 0.04849 -0.22340
vn -0.88253 0.04849 -0.46775
vn -0.73139 0.04849 -0.68023
vn -0.53042 0.04849 -0.84635
vn -0.29329 0.04849 -0.95479
vn -0.00181 0.08965 -0.99597
vn 0.00059 0.02625 -0.99966
vn 0.22340 0.04849 -0.97352
vn 0.46775 0.04849 -0.88253
vn 0.68023 0.04849 -0.73139
vn 0.84635 0.04849 -0.53042
vn 0.95479 0.04849 -0.29329
vn 0.99616 0.08735 -0.00651
vn 0.76335 0.64599 0.00242
vn 0.69165 0.69988 0.17829
vn 0.62194 0.69988 0.35123
vn 0.50984 0.69988 0.50023
vn 0.36300 0.69988 0.61514
vn 0.19142 0.69988 0.68813
vn 0.00069 0.76008 0.64983
vn -0.00066 0.64353 0.76542
vn -0.17829 0.69988 0.69165
vn -0.35123 0.69988 0.62194
vn -0.50023 0.69988 0.50984
vn -0.61514 0.69988 0.36300
vn -0.68813 0.69988 0.19142
vn -0.65219 0.75805 0.00255
vn -0.76335 0.64599 -0.00242
vn -0.69165 0.69988 -0.17829
vn -0.62194 0.69988 -0.35123
vn -0.50984 0.69988 -0.50023
vn -0.36300 0.69988 -0.61514
vn -0.19142 0.69988 -0.68813
vn -0.00069 0.76008 -0.64983
vn 0.00066 0.64353 -0.76542
vn 0.17829 0.69988 -0.69165
vn 0.35123 0.69988 -0.62194
vn 0.50023 0.69988 -0.50984
vn 0.61514 0.69988 -0.36300
vn 0.68813 0.69988 -0.19142
vn 0.65219 0.75805 -0.00255
vn 0.25293 0.96749 0.00038
vn 0.19460 0.97998 0.04198
vn 0.17711 0.97998 0.09092
vn 0.14754 0.97998 0.13366
vn 0.10792 0.97998 0.16729
vn 0.06094 0.97998 0.18952
vn 0.00017 0.99537 0.09615
vn -0.00010 0.96692 0.25509
vn -0.04198 0.97998 0.19460
vn -0.09092 0.97998 0.17711
vn -0.13366 0.97998 0.14754
vn -0.16729 0.97998 0.10792
vn -0.18952 0.97998 0.06094
vn -0.09843 0.99514 0.00063
vn -0.25293 0.96749 -0.00038
vn -0.19460 0.97998 -0.04198
vn -0.17711 0.97998 -0.09092
vn -0.14754 0.97998 -0.13366
vn -0.10792 0.97998 -0.16729
vn -0.06094 0.97998 -0.18952
vn -0.00017 0.99537 -0.09615
vn 0.00010 0.96692 -0.25509
vn 0.04198 0.97998 -0.19460
vn 0.09092 0.97998 -0.17711
vn 0.13366 0.97998 -0.14754
vn 0.16729 0.97998 -0.10792
vn 0.18952 0.97998 -0.06094
vn 0.09843 0.99514 -0.00063
vn -0.45251 0.89176 -0.00116
vn -0.54318 0.82194 -0.17140
vn -0.48031 0.82194 -0.30614
vn -0.38471 0.82194 -0.42002
vn -0.26289 0.82194 -0.50528
vn -0.12316 0.82194 -0.55611
vn -0.00016 0.44990 -0.89308
vn 0.00031 0.89371 -0.44864
vn 0.17140 0.82194 -0.54318
vn 0.30614 0.82194 -0.48031
vn 0.42002 0.82194 -0.38471
vn 0.50528 0.82194 -0.26289
vn 0.55611 0.82194 -0.12316
vn 0.88938 0.45717 -0.00058
vn 0.45251 0.89176 0.00116
vn 0.54318 0.82194 0.17140
vn 0.48031 0.82194 0.30614
vn 0.38471 0.82194 0.42002
vn 0.26289 0.82194 0.50528
vn 0.12316 0.82194 0.55611
vn 0.00016 0.44990 0.89308
vn -0.00031 0.89371 0.44864
vn -0.17140 0.82194 0.54318
vn -0.30614 0.82194 0.48031
vn -0.42002 0.82194 0.38471
vn -0.50528 0.82194 0.26289
vn -0.55611 0.82194 0.12316
vn -0.88938 0.45717 0.00058
vn -0.05333 0.99858 -0.00003
vn -0.03802 0.99924 -0.00842
vn -0.03574 0.99919 -0.01860
vn -0.03306 0.99899 -0.03028
vn -0.02936 0.99851 -0.04607
vn -0.02297 0.99708 -0.07279
vn -0.00007 0.99548 -0.09494
vn 0.00003 0.98243 -0.18665
vn 0.01650 0.99708 -0.07452
vn 0.02521 0.99851 -0.04846
vn 0.03028 0.99899 -0.03306
vn 0.03398 0.99919 -0.02166
vn 0.03713 0.99924 -0.01172
vn 0.02709 0.99963 -0.00007
vn 0.05333 0.99858 0.00003
vn 0.03802 0.99924 0.00842
vn 0.03574 0.99919 0.01860
vn 0.03306 0.99899 0.03028
vn 0.02936 0.99851 0.04607
vn 0.02297 0.99708 0.07279
vn 0.00007 0.99548 0.09494
vn -0.00003 0.98243 0.18665
vn -0.01650 0.99708 0.07452
vn -0.02521 0.99851 0.04846
vn -0.03028 0.99899 0.03306
vn -0.03398 0.99919 0.02166
vn -0.03713 0.99924 0.01172
vn -0.02709 0.99963 0.00007
vn 0.00000 1.00000 0.00000
f 2//2 3//3 1//1
f 3//3 4//4 1//1
f 4//4 5//5 1//1
f 5//5 6//6 1//1
f 6//6 7//7 1//1
f 7//7 8//8 1//1
f 8//8 9//9 1//1
f 9//9 10//10 1//1
f 10//10 11//11 1//1
f 11//11 12//12 1//1
f 12//12 13//13 1//1
f 13//13 14//14 1//1
f 14//14 15//15 1//1
f 15//15 16//16 1//1
f 16//16 17//17 1//1
f 17//17 18//18 1//1
f 18//18 19//19 1//1
f 19//19 20//20 1//1
f 20//20 21//21 1//1
f 21//21 22//22 1//1
f 22//22 23//23 1//1
f 23//23 24//24 1//1
f 24//24 25//25 1//1
f 25//25 26//26 1//1
f 26//26 27//27 1//1
f 27//27 28//28 1//1
f 28//28 29//29 1//1
f 29//29 2//2 1//1
f 31//31 3//3 2//2
f 30//30 31//31 2//2
f 32//32 4//4 3//3
f 31//31 32//32 3//3
f 33//33 5//5 4//4
f 32//32 33//33 4//4
f 34//34 6//6 5//5
f 33//33 34//34 5//5
f 35//35 7//7 6//6
f 34//34 35//35 6//6
f 36//36 8//8 7//7
f 35//35 36//36 7//7
f 37//37 9//9 8//8
f 36//36 37//37 8//8
f 38//38 10//10 9//9
f 37//37 38//38 9//9
f 39//39 11//11 10//10
f 38//38 39//39 10//10
f 40//40 12//12 11//11
f 39//39 40//40 11//11
f 41//41 13//13 12//12
f 40//40 41//41 12//12
f 42//42 14//14 13//13
f 41//41 42//42 13//13
f 43//43 15//15 14//14
f 42//42 43//43 14//14
f 44//44 16//16 15//15
f 43//43 44//44 15//15
f 45//45 17//17 16//16
f 44//44 45//45 16//16
f 46//46 18//18 17//17
f 45//45 46//46 17//17
f 47//47 19//19 18//18
f 46//46 47//47 18//18
f 48//48 20//20 19//19
f 47//47 48//48 19//19
f 49//49 21//21 20//20
f 48//48 49//49 20//20
f 50//50 22//22 21//21
f 49//49 50//50 21//21
f 51//51 23//23 22//22
f 50//50 51//51 22//22
f 52//52 24//24 23//23
f 51//51 52//52 23//23
f 53//53 25//25 24//24
f 52//52 53//53 24//24
f 54//54 26//26 25//25
f 53//53 54//54 25//25
f 55//55 27//27 26//26
f 54//54 55//55 26//26
f 56//56 28//28 27//27
f 55//55 56//56 27//27
f 57//57 29//29 28//28
f 56//56 57//57 28//28
f 30//30 2//2 29//29
f 57//57 30//30 29//29
f 59//59 31//31 30//30
f 58//58 59//59 30//30
f 60//60 32//32 31//31
f 59//59 60//60 31//31
f 61//61 33//33 32//32
f 60//60 61//61 32//32
f 62//62 34//34 33//33
f 61//61 62//62 33//33
f 63//63 35//35 34//34
f 62//62 63//63 34//34
f 64//64 36//36 35//35
f 63//63 64//64 35//35
f 65//65 37//37 36//36
f 64//64 65//65 36//36
f 66//66 38//38 37//37
f 65//65 66//66 37//37
f 67//67 39//39 38//38
f 66//66 67//67 38//38
f 68//68 40//40 39//39
f 67//67 68//68 39//39
f 69//69 41//41 40//40
f 68//68 69//69 40//40
f 70//70 42//42 41//41
f 69//69 70//70 41//41
f 71//71 43//43 42//42
f 70//70 71//71 42//42
f 72//72 44//44 43//43
f 71//71 72//72 43//43
f 73//73 45//45 44//44
f 72//72 73//73 44//44
f 74//74 46//46 45//45
f 73//73 74//74 45//45
f 75//75 47//47 46//46
f 74//74 75//75 46//46
f 76//76 48//48 47//47
f 75//75 76//76 47//47
f 77//77 49//49 48//48
f 76//76 77//77 48//48
f 78//78 50//50 49//49
f 77//77 78//78 49//49
f 79//79 51//51 50//50
f 78//78 79//79 50//50
f 80//80 52//52 51//51
f 79//79 80//80 51//51
f 81//81 53//53 52//52
f 80//80 81//81 52//52
f 82//82 54//54 53//53
f 81//81 82//82 53//53
f 83//83 55//55 54//54
f 82//82 83//83 54//54
f 84//84 56//56 55//55
f 83//83 84//84 55//55
f 85//85 57//57 56//56
f 84//84 85//85 56//56
f 58//58 30//30 57//57
f 85//85 58//58 57//57
f 87//87 59//59 58//58
f 86//86 87//87 58//58
f 88//88 60//60 59//59
f 87//87 88//88 59//59
f 89//89 61//61 60//60
f 88//88 89//89 60//60
f 90//90 62//62 61//61
f 89//89 90//90 61//61
f 91//91 63//63 62//62
f 90//90 91//91 62//62
f 92//92 64//64 63//63
f 91//91 92//92 63//63
f 93//93 65//65 64//64
f 92//92 93//93 64//64
f 94//94 66//66 65//65
f 93//93 94//94 65//65
f 95//95 67//67 66//66
f 94//94 95//95 66//66
f 96//96 68//68 67//67
f 95//95 96//96 67//67
f 97//97 69//69 68//68
f 96//96 97//97 68//68
f 98//98 70//70 69//69
f 97//97 98//98 69//69
f 99//99 71//71 70//70
f 98//98 99//99 70//70
f 100//100 72//72 71//71
f 99//99 100//100 71//71
f 101//101 73//73 72//72
f 100//100 101//101 72//72
f 102//102 74//74 73//73
f 101//101 102//102 73//73
f 103//103 75//75 74//74
f 102//102 103//103 74//74
f 104//104 76//76 75//75
f 103//103 104//104 75//75
f 105//105 77//77 76//76
f 104//104 105//105 76//76
f 106//106 78//78 77//77
f 105//105 106//106 77//77
f 107//107 79//79 78//78
f 106//106 107//107 78//78
f 108//108 80//80 79//79
f 107//107 108//108 79//79
f 109//109 81//81 80//80
f 108//108 109//109 80//80
f 110//110 82//82 81//81
f 109//109 110//110 81//81
f 111//111 83//83 82//82
f 110//110 111//111 82//82
f 112//112 84//84 83//83
f 111//111 112//112 83//83
f 113//113 85//85 84//84
f 112//112 113//113 84//84
f 86//86 58//58 85//85
f 113//113 86//86 85//85
f 115//115 87//87 86//86
f 114//114 115//115 86//86
f 116//116 88//88 87//87
f 115//115 116//116 87//87
f 117//117 89//89 88//88
f 116//116 117//117 88//88
f 118//118 90//90 89//89
f 117//117 118//118 89//89
f 119//119 91//91 90//90
f 118//118 119//119 90//90
f 120//120 92//92 91//91
f 119//119 120//120 91//91
f 121//121 93//93 92//92
f 120//120 121//121 92//92
f 122//122 94//94 93//93
f 121//121 122//122 93//93
f 123//123 95//95 94//94
f 122//122 123//123 94//94
f 124//124 96//96 95//95
f 123//123 124//124 95//95
f 125//125 97//97 96//96
f 124//124 125//125 96//96
f 126//126 98//98 97//97
f 125//125 126//126 97//97
f 127//127 99//99 98//98
f 126//126 127//127 98//98
f 128//128 100//100 99//99
f 127//127 128//128 99//99
f 129//129 101//101 100//100
f 128//128 129//129 100//100
f 130//130 102//102 101//101
f 129//129 130//130 101//101
f 131//131 103//103 102//102
f 130//130 131//131 102//102
f 132//132 104//104 103//103
f 131//131 132//132 103//103
f 133//133 105//105 104//104
f 132//132 133//133 104//104
f 134//134 106//106 105//105
f 133//133 134//134 105//105
f 135//135 107//107 106//106
f 134//134 135//135 106//106
f 136//136 108//108 107//107
f 135//135 136//136 107//107
f 137//137 109//109 108//108
f 136//136 137//137 108//108
f 138//138 110//110 109//109
f 137//137 138//138 109//109
f 139//139 111//111 110//110
f 138//138 139//139 110//110
f 140//140 112//112 111//111
f 139//139 140//140 111//111
f 141//141 113//113 112//112
f 140//140 141//141 112//112
f 114//114 86//86 113//113
f 141//141 114//114 113//113
f 143//143 115//115 114//114
f 142//142 143//143 114//114
f 144//144 116//116 115//115
f 143//143 144//144 115//115
f 145//145 117//117 116//116
f 144//144 145//145 116//116
f 146//146 118//118 117//117
f 145//145 146//146 117//117
f 147//147 119//119 118//118
f 146//146 147//147 118//118
f 148//148 120//120 119//119
f 147//147 148//148 119//119
f 149//149 121//121 120//120
f 148//148 149//149 120//120
f 150//150 122//122 121//121
f 149//149 150//150 121//121
f 151//151 123//123 122//122
f 150//150 151//151 122//122
f 152//152 124//124 123//123
f 151//151 152//152 123//123
f 153//153 125//125 124//124
f 152//152 153//153 124//124
f 154//154 126//126 125//125
f 153//153 154//154 125//125
f 155//155 127//127 126//126
f 154//154 155//155 126//126
f 156//156 128//128 127//127
f 155//155 156//156 127//127
f 157//157 129//129 128//128
f 156//156 157//157 128//128
f 158//158 130//130 129//129
f 157//157 158//158 129//129
f 159//159 131//131 130//130
f 158//158 159//159 130//130
f 160//160 132//132 131//131
f 159//159 160//160 131//131
f 161//161 133//133 132//132
f 160//160 161//161 132//132
f 162//162 134//134 133//133
f 161//161 162//162 133//133
f 163//163 135//135 134//134
f 162//162 163//163 134//134
f 164//164 136//136 135//135
f 163//163 164//164 135//135
f 165//165 137//137 136//136
f 164//164 165//165 136//136
f 166//166 138//138 137//137
f 165//165 166//166 137//137
f 167//167 139//139 138//138
f 166//166 167//167 138//138
f 168//168 140//140 139//139
f 167//167 168//168 139//139
f 169//169 141//141 140//140
f 168//168 169//169 140//140
f 142//142 114//114 141//141
f 169//169 142//142 141//141
f 171//171 143//143 142//142
f 170//170 171//171 142//142
f 172//172 144//144 143//143
f 171//171 172//172 143//143
f 173//173 145//145 144//144
f 172//172 173//173 144//144
f 174//174 146//146 145//145
f 173//173 174//174 145//145
f 175//175 147//147 146//146
f 174//174 175//175 146//146
f 176//176 148//148 147//147
f 175//175 176//176 147//147
f 177//177 149//149 148//148
f 176//176 177//177 148//148
f 178//178 150//150 149//149
f 177//177 178//178 149//149
f 179//179 151//151 150//150
f 178//178 179//179 150//150
f 180//180 152//152 151//151
f 179//179 180//180 151//151
f 181//181 153//153 152//152
f 180//180 181//181 152//152
f 182//182 154//154 153//153
f 181//181 182//182 153//153
f 183//183 155//155 154//154
f 182//182 183//183 154//154
f 184//184 156//156 155//155
f 183//183 184//184 155//155
f 185//185 157//157 156//156
f 184//184 185//185 156//156
f 186//186 158//158 157//157
f 185//185 186//186 157//157
f 187//187 159//159 158//158
f 186//186 187//187 158//158
f 188//188 160//160 159//159
f 187//187 188//188 159//159
f 189//189 161//161 160//160
f 188//188 189//189 160//160
f 190//190 162//162 161//161
f 189//189 190//190 161//161
f 191//191 163//163 162//162
f 190//190 191//191 162//162
f 192//192 164//164 163//163
f 191//191 192//192 163//163
f 193//193 165//165 164//164
f 192//192 193//193 164//164
f 194//194 166//166 165//165
f 193//193 194//194 165//165
f 195//195 167//167 166//166
f 194//194 195//195 166//166
f 196//196 168//168 167//167
f 195//195 196//196 167//167
f 197//197 169//169 168//168
f 196//196 197//197 168//168
f 170//170 142//142 169//169
f 197//197 170//170 169//169
f 198//198 171//171 170//170
f 198//198 172//172 171//171
f 198//198 173//173 172//172
f 198//198 174//174 173//173
f 198//198 175//175 174//174
f 198//198 176//176 175//175
f 198//198 177//177 176//176
f 198//198 178//178 177//177
f 198//198 179//179 178//178
f 198//198 180//180 179//179
f 198//198 181//181 180//180
f 198//198 182//182 181//181
f 198//198 183//183 182//182
f 198//198 184//184 183//183
f 198//198 185//185 184//184
f 198//198 186//186 185//185
f 198//198 187//187 186//186
f 198//198 188//188 187//187
f 198//198 189//189 188//188
f 198//198 190//190 189//189
f 198//198 191//191 190//190
f 198//198 192//192 191//191
f 198//198 193//193 192//192
f 198//198 194//194 193//193
f 198//198 195//195 194//194
f 198//198 196//196 195//195
f 198//198 197//197 196//196
f 198//198 170//170 197//197
