# generated by generate.py
v 0.00000 0.00000 0.00000
v 0.50000 0.00000 0.38000
v 0.49591 0.00000 0.41106
v 0.48392 0.00000 0.44000
v 0.46485 0.00000 0.46485
v 0.44000 0.00000 0.48392
v 0.41106 0.00000 0.49591
v 0.38000 0.00000 0.50000
v -0.38000 0.00000 0.50000
v -0.41106 0.00000 0.49591
v -0.44000 0.00000 0.48392
v -0.46485 0.00000 0.46485
v -0.48392 0.00000 0.44000
v -0.49591 0.00000 0.41106
v -0.50000 0.00000 0.38000
v -0.50000 0.00000 -0.38000
v -0.49591 0.00000 -0.41106
v -0.48392 0.00000 -0.44000
v -0.46485 0.00000 -0.46485
v -0.44000 0.00000 -0.48392
v -0.41106 0.00000 -0.49591
v -0.38000 0.00000 -0.50000
v 0.38000 0.00000 -0.50000
v 0.41106 0.00000 -0.49591
v 0.44000 0.00000 -0.48392
v 0.46485 0.00000 -0.46485
v 0.48392 0.00000 -0.44000
v 0.49591 0.00000 -0.41106
v 0.50000 0.00000 -0.38000
v 0.44500 0.27600 0.30500
v 0.44023 0.27600 0.34123
v 0.42624 0.27600 0.37500
v 0.40399 0.27600 0.40399
v 0.37500 0.27600 0.42624
v 0.34123 0.27600 0.44023
v 0.30500 0.27600 0.44500
v -0.30500 0.27600 0.44500
v -0.34123 0.27600 0.44023
v -0.37500 0.27600 0.42624
v -0.40399 0.27600 0.40399
v -0.42624 0.27600 0.37500
v -0.44023 0.27600 0.34123
v -0.44500 0.27600 0.30500
v -0.44500 0.27600 -0.30500
v -0.44023 0.27600 -0.34123
v -0.42624 0.27600 -0.37500
v -0.40399 0.27600 -0.40399
v -0.37500 0.27600 -0.42624
v -0.34123 0.27600 -0.44023
v -0.30500 0.27600 -0.44500
v 0.30500 0.27600 -0.44500
v 0.34123 0.27600 -0.44023
v 0.37500 0.27600 -0.42624
v 0.40399 0.27600 -0.40399
v 0.42624 0.27600 -0.37500
v 0.44023 0.27600 -0.34123
v 0.44500 0.27600 -0.30500
v 0.39000 0.56000 0.23000
v 0.38455 0.56000 0.27141
v 0.36856 0.56000 0.31000
v 0.34314 0.56000 0.34314
v 0.31000 0.56000 0.36856
v 0.27141 0.56000 0.38455
v 0.23000 0.56000 0.39000
v -0.23000 0.56000 0.39000
v -0.27141 0.56000 0.38455
v -0.31000 0.56000 0.36856
v -0.34314 0.56000 0.34314
v -0.36856 0.56000 0.31000
v -0.38455 0.56000 0.27141
v -0.39000 0.56000 0.23000
v -0.39000 0.56000 -0.23000
v -0.38455 0.56000 -0.27141
v -0.36856 0.56000 -0.31000
v -0.34314 0.56000 -0.34314
v -0.31000 0.56000 -0.36856
v -0.27141 0.56000 -0.38455
v -0.23000 0.56000 -0.39000
v 0.23000 0.56000 -0.39000
v 0.27141 0.56000 -0.38455
v 0.31000 0.56000 -0.36856
v 0.34314 0.56000 -0.34314
v 0.36856 0.56000 -0.31000
v 0.38455 0.56000 -0.27141
v 0.39000 0.56000 -0.23000
v 0.35000 0.60000 0.21000
v 0.34523 0.60000 0.24623
v 0.33124 0.60000 0.28000
v 0.30899 0.60000 0.30899
v 0.28000 0.60000 0.33124
v 0.24623 0.60000 0.34523
v 0.21000 0.60000 0.35000
v -0.21000 0.60000 0.35000
v -0.24623 0.60000 0.34523
v -0.28000 0.60000 0.33124
v -0.30899 0.60000 0.30899
v -0.33124 0.60000 0.28000
v -0.34523 0.60000 0.24623
v -0.35000 0.60000 0.21000
v -0.35000 0.60000 -0.21000
v -0.34523 0.60000 -0.24623
v -0.33124 0.60000 -0.28000
v -0.30899 0.60000 -0.30899
v -0.28000 0.60000 -0.33124
v -0.24623 0.60000 -0.34523
v -0.21000 0.60000 -0.35000
v 0.21000 0.60000 -0.35000
v 0.24623 0.60000 -0.34523
v 0.28000 0.60000 -0.33124
v 0.30899 0.60000 -0.30899
v 0.33124 0.60000 -0.28000
v 0.34523 0.60000 -0.24623
v 0.35000 0.60000 -0.21000
v 0.25200 0.56629 0.13680
v 0.24807 0.56629 0.16662
v 0.23657 0.56629 0.19440
v 0.21826 0.56629 0.21826
v 0.19440 0.56629 0.23657
v 0.16662 0.56629 0.24807
v 0.13680 0.56629 0.25200
v -0.13680 0.56629 0.25200
v -0.16662 0.56629 0.24807
v -0.19440 0.56629 0.23657
v -0.21826 0.56629 0.21826
v -0.23657 0.56629 0.19440
v -0.24807 0.56629 0.16662
v -0.25200 0.56629 0.13680
v -0.25200 0.56629 -0.13680
v -0.24807 0.56629 -0.16662
v -0.23657 0.56629 -0.19440
v -0.21826 0.56629 -0.21826
v -0.19440 0.56629 -0.23657
v -0.16662 0.56629 -0.24807
v -0.13680 0.56629 -0.25200
v 0.13680 0.56629 -0.25200
v 0.16662 0.56629 -0.24807
v 0.19440 0.56629 -0.23657
v 0.21826 0.56629 -0.21826
v 0.23657 0.56629 -0.19440
v 0.24807 0.56629 -0.16662
v 0.25200 0.56629 -0.13680
v 0.14700 0.54235 0.07980
v 0.14471 0.54235 0.09719
v 0.13800 0.54235 0.11340
v 0.12732 0.54235 0.12732
v 0.11340 0.54235 0.13800
v 0.09719 0.54235 0.14471
v 0.07980 0.54235 0.14700
v -0.07980 0.54235 0.14700
v -0.09719 0.54235 0.14471
v -0.11340 0.54235 0.13800
v -0.12732 0.54235 0.12732
v -0.13800 0.54235 0.11340
v -0.14471 0.54235 0.09719
v -0.14700 0.54235 0.07980
v -0.14700 0.54235 -0.07980
v -0.14471 0.54235 -0.09719
v -0.13800 0.54235 -0.11340
v -0.12732 0.54235 -0.12732
v -0.11340 0.54235 -0.13800
v -0.09719 0.54235 -0.14471
v -0.07980 0.54235 -0.14700
v 0.07980 0.54235 -0.14700
v 0.09719 0.54235 -0.14471
v 0.11340 0.54235 -0.13800
v 0.12732 0.54235 -0.12732
v 0.13800 0.54235 -0.11340
v 0.14471 0.54235 -0.09719
v 0.14700 0.54235 -0.07980
v 0.00000 0.53000 0.00000
vn 0.00000 -1.00000 0.00000
vn 0.54538 -0.83817 0.00584
vn 0.65063 -0.73018 0.20861
vn 0.54965 -0.75672 0.35391
vn 0.43210 -0.76588 0.47615
vn 0.29764 -0.75939 0.57856
vn 0.14332 -0.73603 0.66160
vn 0.00225 -0.63721 0.77069
vn -0.00584 -0.83817 0.54538
vn -0.20861 -0.73018 0.65063
vn -0.35391 -0.75672 0.54965
vn -0.47615 -0.76588 0.43210
vn -0.57856 -0.75939 0.29764
vn -0.66160 -0.73603 0.14332
vn -0.77069 -0.63721 0.00225
vn -0.54538 -0.83817 -0.00584
vn -0.65063 -0.73018 -0.20861
vn -0.54965 -0.75672 -0.35391
vn -0.43210 -0.76588 -0.47615
vn -0.29764 -0.75939 -0.57856
vn -0.14332 -0.73603 -0.66160
vn -0.00225 -0.63721 -0.77069
vn 0.00584 -0.83817 -0.54538
vn 0.20861 -0.73018 -0.65063
vn 0.35391 -0.75672 -0.54965
vn 0.47615 -0.76588 -0.43210
vn 0.57856 -0.75939 -0.29764
vn 0.66160 -0.73603 -0.14332
vn 0.77069 -0.63721 -0.00225
vn 0.98068 0.19547 0.00709
vn 0.93363 0.24949 0.25707
vn 0.82734 0.28284 0.48530
vn 0.67126 0.29362 0.68058
vn 0.47401 0.28175 0.83423
vn 0.24432 0.24733 0.93762
vn 0.00744 0.19403 0.98097
vn -0.00709 0.19547 0.98068
vn -0.25707 0.24949 0.93363
vn -0.48530 0.28284 0.82734
vn -0.68058 0.29362 0.67126
vn -0.83423 0.28175 0.47401
vn -0.93762 0.24733 0.24432
vn -0.98097 0.19403 0.00744
vn -0.98068 0.19547 -0.00709
vn -0.93363 0.24949 -0.25707
vn -0.82734 0.28284 -0.48530
vn -0.67126 0.29362 -0.68058
vn -0.47401 0.28175 -0.83423
vn -0.24432 0.24733 -0.93762
vn -0.00744 0.19403 -0.98097
vn 0.00709 0.19547 -0.98068
vn 0.25707 0.24949 -0.93363
vn 0.48530 0.28284 -0.82734
vn 0.68058 0.29362 -0.67126
vn 0.83423 0.28175 -0.47401
vn 0.93762 0.24733 -0.24432
vn 0.98097 0.19403 -0.00744
vn 0.97083 0.23971 0.00564
vn 0.91746 0.33382 0.21640
vn 0.81832 0.36968 0.44010
vn 0.67263 0.38289 0.63322
vn 0.48780 0.37366 0.78894
vn 0.27050 0.34184 0.89999
vn 0.01552 0.33456 0.94225
vn -0.00564 0.23971 0.97083
vn -0.21640 0.33382 0.91746
vn -0.44010 0.36968 0.81832
vn -0.63322 0.38289 0.67263
vn -0.78894 0.37366 0.48780
vn -0.89999 0.34184 0.27050
vn -0.94225 0.33456 0.01552
vn -0.97083 0.23971 -0.00564
vn -0.91746 0.33382 -0.21640
vn -0.81832 0.36968 -0.44010
vn -0.67263 0.38289 -0.63322
vn -0.48780 0.37366 -0.78894
vn -0.27050 0.34184 -0.89999
vn -0.01552 0.33456 -0.94225
vn 0.00564 0.23971 -0.97083
vn 0.21640 0.33382 -0.91746
vn 0.44010 0.36968 -0.81832
vn 0.63322 0.38289 -0.67263
vn 0.78894 0.37366 -0.48780
vn 0.89999 0.34184 -0.27050
vn 0.94225 0.33456 -0.01552
vn 0.23186 0.97275 -0.00117
vn 0.06848 0.99765 -0.00307
vn 0.06211 0.99798 0.01370
vn 0.05523 0.99806 0.02867
vn 0.04728 0.99795 0.04322
vn 0.03745 0.99758 0.05864
vn 0.00269 0.99869 -0.05101
vn 0.00117 0.97275 0.23186
vn 0.00307 0.99765 0.06848
vn -0.01370 0.99798 0.06211
vn -0.02867 0.99806 0.05523
vn -0.04322 0.99795 0.04728
vn -0.05864 0.99758 0.03745
vn 0.05101 0.99869 0.00269
vn -0.23186 0.97275 0.00117
vn -0.06848 0.99765 0.00307
vn -0.06211 0.99798 -0.01370
vn -0.05523 0.99806 -0.02867
vn -0.04728 0.99795 -0.04322
vn -0.03745 0.99758 -0.05864
vn -0.00269 0.99869 0.05101
vn -0.00117 0.97275 -0.23186
vn -0.00307 0.99765 -0.06848
vn 0.01370 0.99798 -0.06211
vn 0.02867 0.99806 -0.05523
vn 0.04322 0.99795 -0.04728
vn 0.05864 0.99758 -0.03745
vn -0.05101 0.99869 -0.00269
vn -0.29153 0.95656 -0.00256
vn -0.24016 0.96894 -0.05900
vn -0.20069 0.97342 -0.11035
vn -0.16084 0.97485 -0.15426
vn -0.11780 0.97379 -0.19454
vn -0.06799 0.96984 -0.23407
vn -0.00451 0.96486 -0.26272
vn 0.00256 0.95656 -0.29153
vn 0.05900 0.96894 -0.24016
vn 0.11035 0.97342 -0.20069
vn 0.15426 0.97485 -0.16084
vn 0.19454 0.97379 -0.11780
vn 0.23407 0.96984 -0.06799
vn 0.26272 0.96486 -0.00451
vn 0.29153 0.95656 0.00256
vn 0.24016 0.96894 0.05900
vn 0.20069 0.97342 0.11035
vn 0.16084 0.97485 0.15426
vn 0.11780 0.97379 0.19454
vn 0.06799 0.96984 0.23407
vn 0.00451 0.96486 0.26272
vn -0.00256 0.95656 0.29153
vn -0.05900 0.96894 0.24016
vn -0.11035 0.97342 0.20069
vn -0.15426 0.97485 0.16084
vn -0.19454 0.97379 0.11780
vn -0.23407 0.96984 0.06799
vn -0.26272 0.96486 0.00451
vn -0.17348 0.98484 -0.00111
vn -0.14494 0.98894 -0.03154
vn -0.12282 0.99041 -0.06333
vn -0.09954 0.99091 -0.09050
vn -0.07386 0.99062 -0.11496
vn -0.04412 0.98944 -0.13805
vn -0.00363 0.98924 -0.14626
vn 0.00111 0.98484 -0.17348
vn 0.03154 0.98894 -0.14494
vn 0.06333 0.99041 -0.12282
vn 0.09050 0.99091 -0.09954
vn 0.11496 0.99062 -0.07386
vn 0.13805 0.98944 -0.04412
vn 0.14626 0.98924 -0.00363
vn 0.17348 0.98484 0.00111
vn 0.14494 0.98894 0.03154
vn 0.12282 0.99041 0.06333
vn 0.09954 0.99091 0.09050
vn 0.07386 0.99062 0.11496
vn 0.04412 0.98944 0.13805
vn 0.00363 0.98924 0.14626
vn -0.00111 0.98484 0.17348
vn -0.03154 0.98894 0.14494
vn -0.06333 0.99041 0.12282
vn -0.09050 0.99091 0.09954
vn -0.11496 0.99062 0.07386
vn -0.13805 0.98944 0.04412
vn -0.14626 0.98924 0.00363
vn -0.00000 1.00000 -0.00000
f 2//2 3//3 1//1
f 3//3 4//4 1//1
f 4//4 5//5 1//1
f 5//5 6//6 1//1
f 6//6 7//7 1//1
f 7//7 8//8 1//1
f 8//8 9//9 1//1
f 9//9 10//10 1//1
f 10//10 11//11 1//1
f 11//11 12//12 1//1
f 12//12 13//13 1//1
f 13//13 14//14 1//1
f 14//14 15//15 1//1
f 15//15 16//16 1//1
f 16//16 17//17 1//1
f 17//17 18//18 1//1
f 18//18 19//19 1//1
f 19//19 20//20 1//1
f 20//20 21//21 1//1
f 21//21 22//22 1//1
f 22//22 23//23 1//1
f 23//23 24//24 1//1
f 24//24 25//25 1//1
f 25//25 26//26 1//1
f 26//26 27//27 1//1
f 27//27 28//28 1//1
f 28//28 29//29 1//1
f 29//29 2//2 1//1
f 31//31 3//3 2//2
f 30//30 31//31 2//2
f 32//32 4//4 3//3
f 31//31 32//32 3//3
f 33//33 5//5 4//4
f 32//32 33//33 4//4
f 34//34 6//6 5//5
f 33//33 34//34 5//5
f 35//35 7//7 6//6
f 34//34 35//35 6//6
f 36//36 8//8 7//7
f 35//35 36//36 7//7
f 37//37 9//9 8//8
f 36//36 37//37 8//8
f 38//38 10//10 9//9
f 37//37 38//38 9//9
f 39//39 11//11 10//10
f 38//38 39//39 10//10
f 40//40 12//12 11//11
f 39//39 40//40 11//11
f 41//41 13//13 12//12
f 40//40 41//41 12//12
f 42//42 14//14 13//13
f 41//41 42//42 13//13
f 43//43 15//15 14//14
f 42//42 43//43 14//14
f 44//44 16//16 15//15
f 43//43 44//44 15//15
f 45//45 17//17 16//16
f 44//44 45//45 16//16
f 46//46 18//18 17//17
f 45//45 46//46 17//17
f 47//47 19//19 18//18
f 46//46 47//47 18//18
f 48//48 20//20 19//19
f 47//47 48//48 19//19
f 49//49 21//21 20//20
f 48//48 49//49 20//20
f 50//50 22//22 21//21
f 49//49 50//50 21//21
f 51//51 23//23 22//22
f 50//50 51//51 22//22
f 52//52 24//24 23//23
f 51//51 52//52 23//23
f 53//53 25//25 24//24
f 52//52 53//53 24//24
f 54//54 26//26 25//25
f 53//53 54//54 25//25
f 55//55 27//27 26//26
f 54//54 55//55 26//26
f 56//56 28//28 27//27
f 55//55 56//56 27//27
f 57//57 29//29 28//28
f 56//56 57//57 28//28
f 30//30 2//2 29//29
f 57//57 30//30 29//29
f 59//59 31//31 30//30
f 58//58 59//59 30//30
f 60//60 32//32 31//31
f 59//59 60//60 31//31
f 61//61 33//33 32//32
f 60//60 61//61 32//32
f 62//62 34//34 33//33
f 61//61 62//62 33//33
f 63//63 35//35 34//34
f 62//62 63//63 34//34
f 64//64 36//36 35//35
f 63//63 64//64 35//35
f 65//65 37//37 36//36
f 64//64 65//65 36//36
f 66//66 38//38 37//37
f 65//65 66//66 37//37
f 67//67 39//39 38//38
f 66//66 67//67 38//38
f 68//68 40//40 39//39
f 67//67 68//68 39//39
f 69//69 41//41 40//40
f 68//68 69//69 40//40
f 70//70 42//42 41//41
f 69//69 70//70 41//41
f 71//71 43//43 42//42
f 70//70 71//71 42//42
f 72//72 44//44 43//43
f 71//71 72//72 43//43
f 73//73 45//45 44//44
f 72//72 73//73 44//44
f 74//74 46//46 45//45
f 73//73 74//74 45//45
f 75//75 47//47 46//46
f 74//74 75//75 46//46
f 76//76 48//48 47//47
f 75//75 76//76 47//47
f 77//77 49//49 48//48
f 76//76 77//77 48//48
f 78//78 50//50 49//49
f 77//77 78//78 49//49
f 79//79 51//51 50//50
f 78//78 79//79 50//50
f 80//80 52//52 51//51
f 79//79 80//80 51//51
f 81//81 53//53 52//52
f 80//80 81//81 52//52
f 82//82 54//54 53//53
f 81//81 82//82 53//53
f 83//83 55//55 54//54
f 82//82 83//83 54//54
f 84//84 56//56 55//55
f 83//83 84//84 55//55
f 85//85 57//57 56//56
f 84//84 85//85 56//56
f 58//58 30//30 57//57
f 85//85 58//58 57//57
f 87//87 59//59 58//58
f 86//86 87//87 58//58
f 88//88 60//60 59//59
f 87//87 88//88 59//59
f 89//89 61//61 60//60
f 88//88 89//89 60//60
f 90//90 62//62 61//61
f 89//89 90//90 61//61
f 91//91 63//63 62//62
f 90//90 91//91 62//62
f 92//92 64//64 63//63
f 91//91 92//92 63//63
f 93//93 65//65 64//64
f 92//92 93//93 64//64
f 94//94 66//66 65//65
f 93//93 94//94 65//65
f 95//95 67//67 66//66
f 94//94 95//95 66//66
f 96//96 68//68 67//67
f 95//95 96//96 67//67
f 97//97 69//69 68//68
f 96//96 97//97 68//68
f 98//98 70//70 69//69
f 97//97 98//98 69//69
f 99//99 71//71 70//70
f 98//98 99//99 70//70
f 100//100 72//72 71//71
f 99//99 100//100 71//71
f 101//101 73//73 72//72
f 100//100 101//101 72//72
f 102//102 74//74 73//73
f 101//101 102//102 73//73
f 103//103 75//75 74//74
f 102//102 103//103 74//74
f 104//104 76//76 75//75
f 103//103 104//104 75//75
f 105//105 77//77 76//76
f 104//104 105//105 76//76
f 106//106 78//78 77//77
f 105//105 106//106 77//77
f 107//107 79//79 78//78
f 106//106 107//107 78//78
f 108//108 80//80 79//79
f 107//107 108//108 79//79
f 109//109 81//81 80//80
f 108//108 109//109 80//80
f 110//110 82//82 81//81
f 109//109 110//110 81//81
f 111//111 83//83 82//82
f 110//110 111//111 82//82
f 112//112 84//84 83//83
f 111//111 112//112 83//83
f 113//113 85//85 84//84
f 112//112 113//113 84//84
f 86//86 58//58 85//85
f 113//113 86//86 85//85
f 115//115 87//87 86//86
f 114//114 115//115 86//86
f 116//116 88//88 87//87
f 115//115 116//116 87//87
f 117//117 89//89 88//88
f 116//116 117//117 88//88
f 118//118 90//90 89//89
f 117//117 118//118 89//89
f 119//119 91//91 90//90
f 118//118 119//119 90//90
f 120//120 92//92 91//91
f 119//119 120//120 91//91
f 121//121 93//93 92//92
f 120//120 121//121 92//92
f 122//122 94//94 93//93
f 121//121 122//122 93//93
f 123//123 95//95 94//94
f 122//122 123//123 94//94
f 124//124 96//96 95//95
f 123//123 124//124 95//95
f 125//125 97//97 96//96
f 124//124 125//125 96//96
f 126//126 98//98 97//97
f 125//125 126//126 97//97
f 127//127 99//99 98//98
f 126//126 127//127 98//98
f 128//128 100//100 99//99
f 127//127 128//128 99//99
f 129//129 101//101 100//100
f 128//128 129//129 100//100
f 130//130 102//102 101//101
f 129//129 130//130 101//101
f 131//131 103//103 102//102
f 130//130 131//131 102//102
f 132//132 104//104 103//103
f 131//131 132//132 103//103
f 133//133 105//105 104//104
f 132//132 133//133 104//104
f 134//134 106//106 105//105
f 133//133 134//134 105//105
f 135//135 107//107 106//106
f 134//134 135//135 106//106
f 136//136 108//108 107//107
f 135//135 136//136 107//107
f 137//137 109//109 108//108
f 136//136 137//137 108//108
f 138//138 110//110 109//109
f 137//137 138//138 109//109
f 139//139 111//111 110//110
f 138//138 139//139 110//110
f 140//140 112//112 111//111
f 139//139 140//140 111//111
f 141//141 113//113 112//112
f 140//140 141//141 112//112
f 114//114 86//86 113//113
f 141//141 114//114 113//113
f 143//143 115//115 114//114
f 142//142 143//143 114//114
f 144//144 116//116 115//115
f 143//143 144//144 115//115
f 145//145 117//117 116//116
f 144//144 145//145 116//116
f 146//146 118//118 117//117
f 145//145 146//146 117//117
f 147//147 119//119 118//118
f 146//146 147//147 118//118
f 148//148 120//120 119//119
f 147//147 148//148 119//119
f 149//149 121//121 120//120
f 148//148 149//149 120//120
f 150//150 122//122 121//121
f 149//149 150//150 121//121
f 151//151 123//123 122//122
f 150//150 151//151 122//122
f 152//152 124//124 123//123
f 151//151 152//152 123//123
f 153//153 125//125 124//124
f 152//152 153//153 124//124
f 154//154 126//126 125//125
f 153//153 154//154 125//125
f 155//155 127//127 126//126
f 154//154 155//155 126//126
f 156//156 128//128 127//127
f 155//155 156//156 127//127
f 157//157 129//129 128//128
f 156//156 157//157 128//128
f 158//158 130//130 129//129
f 157//157 158//158 129//129
f 159//159 131//131 130//130
f 158//158 159//159 130//130
f 160//160 132//132 131//131
f 159//159 160//160 131//131
f 161//161 133//133 132//132
f 160//160 161//161 132//132
f 162//162 134//134 133//133
f 161//161 162//162 133//133
f 163//163 135//135 134//134
f 162//162 163//163 134//134
f 164//164 136//136 135//135
f 163//163 164//164 135//135
f 165//165 137//137 136//136
f 164//164 165//165 136//136
f 166//166 138//138 137//137
f 165//165 166//166 137//137
f 167//167 139//139 138//138
f 166//166 167//167 138//138
f 168//168 140//140 139//139
f 167//167 168//168 139//139
f 169//169 141//141 140//140
f 168//168 169//169 140//140
f 142//142 114//114 141//141
f 169//169 142//142 141//141
f 170//170 143//143 142//142
f 170//170 144//144 143//143
f 170//170 145//145 144//144
f 170//170 146//146 145//145
f 170//170 147//147 146//146
f 170//170 148//148 147//147
f 170//170 149//149 148//148
f 170//170 150//150 149//149
f 170//170 151//151 150//150
f 170//170 152//152 151//151
f 170//170 153//153 152//152
f 170//170 154//154 153//153
f 170//170 155//155 154//154
f 170//170 156//156 155//155
f 170//170 157//157 156//156
f 170//170 158//158 157//157
f 170//170 159//159 158//158
f 170//170 160//160 159//159
f 170//170 161//161 160//160
f 170//170 162//162 161//161
f 170//170 163//163 162//162
f 170//170 164//164 163//163
f 170//170 165//165 164//164
f 170//170 166//166 165//165
f 170//170 167//167 166//166
f 170//170 168//168 167//167
f 170//170 169//169 168//168
f 170//170 142//142 169//169
