# generated by generate.py
v 0.00000 0.00000 0.00000
v 0.20000 0.00000 0.07000
v 0.07000 0.00000 0.07000
v 0.07000 0.00000 0.20000
v -0.07000 0.00000 0.20000
v -0.07000 0.00000 0.07000
v -0.20000 0.00000 0.07000
v -0.20000 0.00000 -0.07000
v -0.07000 0.00000 -0.07000
v -0.07000 0.00000 -0.20000
v 0.07000 0.00000 -0.20000
v 0.07000 0.00000 -0.07000
v 0.20000 0.00000 -0.07000
v 0.20000 0.55000 0.07000
v 0.07000 0.55000 0.07000
v 0.07000 0.55000 0.20000
v -0.07000 0.55000 0.20000
v -0.07000 0.55000 0.07000
v -0.20000 0.55000 0.07000
v -0.20000 0.55000 -0.07000
v -0.07000 0.55000 -0.07000
v -0.07000 0.55000 -0.20000
v 0.07000 0.55000 -0.20000
v 0.07000 0.55000 -0.07000
v 0.20000 0.55000 -0.07000
v 0.50000 0.55000 0.38000
v 0.49591 0.55000 0.41106
v 0.48392 0.55000 0.44000
v 0.46485 0.55000 0.46485
v 0.44000 0.55000 0.48392
v 0.41106 0.55000 0.49591
v 0.38000 0.55000 0.50000
v -0.38000 0.55000 0.50000
v -0.41106 0.55000 0.49591
v -0.44000 0.55000 0.48392
v -0.46485 0.55000 0.46485
v -0.48392 0.55000 0.44000
v -0.49591 0.55000 0.41106
v -0.50000 0.55000 0.38000
v -0.50000 0.55000 -0.38000
v -0.49591 0.55000 -0.41106
v -0.48392 0.55000 -0.44000
v -0.46485 0.55000 -0.46485
v -0.44000 0.55000 -0.48392
v -0.41106 0.55000 -0.49591
v -0.38000 0.55000 -0.50000
v 0.38000 0.55000 -0.50000
v 0.41106 0.55000 -0.49591
v 0.44000 0.55000 -0.48392
v 0.46485 0.55000 -0.46485
v 0.48392 0.55000 -0.44000
v 0.49591 0.55000 -0.41106
v 0.50000 0.55000 -0.38000
v 0.44500 0.75700 0.30500
v 0.44023 0.75700 0.34123
v 0.42624 0.75700 0.37500
v 0.40399 0.75700 0.40399
v 0.37500 0.75700 0.42624
v 0.34123 0.75700 0.44023
v 0.30500 0.75700 0.44500
v -0.30500 0.75700 0.44500
v -0.34123 0.75700 0.44023
v -0.37500 0.75700 0.42624
v -0.40399 0.75700 0.40399
v -0.42624 0.75700 0.37500
v -0.44023 0.75700 0.34123
v -0.44500 0.75700 0.30500
v -0.44500 0.75700 -0.30500
v -0.44023 0.75700 -0.34123
v -0.42624 0.75700 -0.37500
v -0.40399 0.75700 -0.40399
v -0.37500 0.75700 -0.42624
v -0.34123 0.75700 -0.44023
v -0.30500 0.75700 -0.44500
v 0.30500 0.75700 -0.44500
v 0.34123 0.75700 -0.44023
v 0.37500 0.75700 -0.42624
v 0.40399 0.75700 -0.40399
v 0.42624 0.75700 -0.37500
v 0.44023 0.75700 -0.34123
v 0.44500 0.75700 -0.30500
v 0.39000 0.96000 0.23000
v 0.38455 0.96000 0.27141
v 0.36856 0.96000 0.31000
v 0.34314 0.96000 0.34314
v 0.31000 0.96000 0.36856
v 0.27141 0.96000 0.38455
v 0.23000 0.96000 0.39000
v -0.23000 0.96000 0.39000
v -0.27141 0.96000 0.38455
v -0.31000 0.96000 0.36856
v -0.34314 0.96000 0.34314
v -0.36856 0.96000 0.31000
v -0.38455 0.96000 0.27141
v -0.39000 0.96000 0.23000
v -0.39000 0.96000 -0.23000
v -0.38455 0.96000 -0.27141
v -0.36856 0.96000 -0.31000
v -0.34314 0.96000 -0.34314
v -0.31000 0.96000 -0.36856
v -0.27141 0.96000 -0.38455
v -0.23000 0.96000 -0.39000
v 0.23000 0.96000 -0.39000
v 0.27141 0.96000 -0.38455
v 0.31000 0.96000 -0.36856
v 0.34314 0.96000 -0.34314
v 0.36856 0.96000 -0.31000
v 0.38455 0.96000 -0.27141
v 0.39000 0.96000 -0.23000
v 0.35000 1.00000 0.21000
v 0.34523 1.00000 0.24623
v 0.33124 1.00000 0.28000
v 0.30899 1.00000 0.30899
v 0.28000 1.00000 0.33124
v 0.24623 1.00000 0.34523
v 0.21000 1.00000 0.35000
v -0.21000 1.00000 0.35000
v -0.24623 1.00000 0.34523
v -0.28000 1.00000 0.33124
v -0.30899 1.00000 0.30899
v -0.33124 1.00000 0.28000
v -0.34523 1.00000 0.24623
v -0.35000 1.00000 0.21000
v -0.35000 1.00000 -0.21000
v -0.34523 1.00000 -0.24623
v -0.33124 1.00000 -0.28000
v -0.30899 1.00000 -0.30899
v -0.28000 1.00000 -0.33124
v -0.24623 1.00000 -0.34523
v -0.21000 1.00000 -0.35000
v 0.21000 1.00000 -0.35000
v 0.24623 1.00000 -0.34523
v 0.28000 1.00000 -0.33124
v 0.30899 1.00000 -0.30899
v 0.33124 1.00000 -0.28000
v 0.34523 1.00000 -0.24623
v 0.35000 1.00000 -0.21000
v 0.25200 0.97592 0.13680
v 0.24807 0.97592 0.16662
v 0.23657 0.97592 0.19440
v 0.21826 0.97592 0.21826
v 0.19440 0.97592 0.23657
v 0.16662 0.97592 0.24807
v 0.13680 0.97592 0.25200
v -0.13680 0.97592 0.25200
v -0.16662 0.97592 0.24807
v -0.19440 0.97592 0.23657
v -0.21826 0.97592 0.21826
v -0.23657 0.97592 0.19440
v -0.24807 0.97592 0.16662
v -0.25200 0.97592 0.13680
v -0.25200 0.97592 -0.13680
v -0.24807 0.97592 -0.16662
v -0.23657 0.97592 -0.19440
v -0.21826 0.97592 -0.21826
v -0.19440 0.97592 -0.23657
v -0.16662 0.97592 -0.24807
v -0.13680 0.97592 -0.25200
v 0.13680 0.97592 -0.25200
v 0.16662 0.97592 -0.24807
v 0.19440 0.97592 -0.23657
v 0.21826 0.97592 -0.21826
v 0.23657 0.97592 -0.19440
v 0.24807 0.97592 -0.16662
v 0.25200 0.97592 -0.13680
v 0.14700 0.95882 0.07980
v 0.14471 0.95882 0.09719
v 0.13800 0.95882 0.11340
v 0.12732 0.95882 0.12732
v 0.11340 0.95882 0.13800
v 0.09719 0.95882 0.14471
v 0.07980 0.95882 0.14700
v -0.07980 0.95882 0.14700
v -0.09719 0.95882 0.14471
v -0.11340 0.95882 0.13800
v -0.12732 0.95882 0.12732
v -0.13800 0.95882 0.11340
v -0.14471 0.95882 0.09719
v -0.14700 0.95882 0.07980
v -0.14700 0.95882 -0.07980
v -0.14471 0.95882 -0.09719
v -0.13800 0.95882 -0.11340
v -0.12732 0.95882 -0.12732
v -0.11340 0.95882 -0.13800
v -0.09719 0.95882 -0.14471
v -0.07980 0.95882 -0.14700
v 0.07980 0.95882 -0.14700
v 0.09719 0.95882 -0.14471
v 0.11340 0.95882 -0.13800
v 0.12732 0.95882 -0.12732
v 0.13800 0.95882 -0.11340
v 0.14471 0.95882 -0.09719
v 0.14700 0.95882 -0.07980
v 0.00000 0.95000 0.00000
vn 0.00000 -1.00000 0.00000
vn 0.46219 -0.22269 0.85836
vn 0.88869 -0.11311 0.44434
vn 0.41140 -0.21347 0.88610
vn -0.85836 -0.22269 0.46219
vn -0.44434 -0.11311 0.88869
vn -0.88610 -0.21347 0.41140
vn -0.46219 -0.22269 -0.85836
vn -0.88869 -0.11311 -0.44434
vn -0.41140 -0.21347 -0.88610
vn 0.85836 -0.22269 -0.46219
vn 0.44434 -0.11311 -0.88869
vn 0.88610 -0.21347 -0.41140
vn 0.40395 -0.89535 0.18755
vn 0.32197 -0.69403 0.64394
vn 0.78539 -0.45201 0.42290
vn -0.18755 -0.89535 0.40395
vn -0.64394 -0.69403 0.32197
vn -0.42290 -0.45201 0.78539
vn -0.40395 -0.89535 -0.18755
vn -0.32197 -0.69403 -0.64394
vn -0.78539 -0.45201 -0.42290
vn 0.18755 -0.89535 -0.40395
vn 0.64394 -0.69403 -0.32197
vn 0.42290 -0.45201 -0.78539
vn 0.66480 -0.74699 0.00712
vn 0.75051 -0.61550 0.24063
vn 0.23551 -0.95997 0.15164
vn 0.41243 -0.78953 0.45448
vn 0.28372 -0.78444 0.55151
vn 0.13631 -0.76516 0.62924
vn 0.00222 -0.64923 0.76059
vn -0.00712 -0.74699 0.66480
vn -0.24063 -0.61550 0.75051
vn -0.15164 -0.95997 0.23551
vn -0.45448 -0.78953 0.41243
vn -0.55151 -0.78444 0.28372
vn -0.62924 -0.76516 0.13631
vn -0.76059 -0.64923 0.00222
vn -0.66480 -0.74699 -0.00712
vn -0.75051 -0.61550 -0.24063
vn -0.23551 -0.95997 -0.15164
vn -0.41243 -0.78953 -0.45448
vn -0.28372 -0.78444 -0.55151
vn -0.13631 -0.76516 -0.62924
vn -0.00222 -0.64923 -0.76059
vn 0.00712 -0.74699 -0.66480
vn 0.24063 -0.61550 -0.75051
vn 0.15164 -0.95997 -0.23551
vn 0.45448 -0.78953 -0.41243
vn 0.55151 -0.78444 -0.28372
vn 0.62924 -0.76516 -0.13631
vn 0.76059 -0.64923 -0.00222
vn 0.96540 0.26067 0.00686
vn 0.90960 0.33228 0.24943
vn 0.80046 0.37397 0.46841
vn 0.64811 0.38725 0.65573
vn 0.45929 0.37263 0.80635
vn 0.23903 0.32955 0.91338
vn 0.00741 0.26221 0.96498
vn -0.00686 0.26067 0.96540
vn -0.24943 0.33228 0.90960
vn -0.46841 0.37397 0.80046
vn -0.65573 0.38725 0.64811
vn -0.80635 0.37263 0.45929
vn -0.91338 0.32955 0.23903
vn -0.96498 0.26221 0.00741
vn -0.96540 0.26067 -0.00686
vn -0.90960 0.33228 -0.24943
vn -0.80046 0.37397 -0.46841
vn -0.64811 0.38725 -0.65573
vn -0.45929 0.37263 -0.80635
vn -0.23903 0.32955 -0.91338
vn -0.00741 0.26221 -0.96498
vn 0.00686 0.26067 -0.96540
vn 0.24943 0.33228 -0.90960
vn 0.46841 0.37397 -0.80046
vn 0.65573 0.38725 -0.64811
vn 0.80635 0.37263 -0.45929
vn 0.91338 0.32955 -0.23903
vn 0.96498 0.26221 -0.00741
vn 0.94766 0.31923 0.00581
vn 0.87941 0.42701 0.21049
vn 0.77662 0.46866 0.42098
vn 0.63528 0.48372 0.60203
vn 0.46081 0.47322 0.75081
vn 0.25614 0.43642 0.86252
vn 0.01426 0.41860 0.90806
vn -0.00581 0.31923 0.94766
vn -0.21049 0.42701 0.87941
vn -0.42098 0.46866 0.77662
vn -0.60203 0.48372 0.63528
vn -0.75081 0.47322 0.46081
vn -0.86252 0.43642 0.25614
vn -0.90806 0.41860 0.01426
vn -0.94766 0.31923 -0.00581
vn -0.87941 0.42701 -0.21049
vn -0.77662 0.46866 -0.42098
vn -0.63528 0.48372 -0.60203
vn -0.46081 0.47322 -0.75081
vn -0.25614 0.43642 -0.86252
vn -0.01426 0.41860 -0.90806
vn 0.00581 0.31923 -0.94766
vn 0.21049 0.42701 -0.87941
vn 0.42098 0.46866 -0.77662
vn 0.60203 0.48372 -0.63528
vn 0.75081 0.47322 -0.46081
vn 0.86252 0.43642 -0.25614
vn 0.90806 0.41860 -0.01426
vn 0.28155 0.95955 -0.00021
vn 0.12341 0.99226 0.01407
vn 0.10731 0.99333 0.04228
vn 0.09072 0.99361 0.06714
vn 0.07231 0.99323 0.09091
vn 0.05026 0.99202 0.11560
vn 0.00320 0.99967 0.02534
vn 0.00021 0.95955 0.28155
vn -0.01407 0.99226 0.12341
vn -0.04228 0.99333 0.10731
vn -0.06714 0.99361 0.09072
vn -0.09091 0.99323 0.07231
vn -0.11560 0.99202 0.05026
vn -0.02534 0.99967 0.00320
vn -0.28155 0.95955 0.00021
vn -0.12341 0.99226 -0.01407
vn -0.10731 0.99333 -0.04228
vn -0.09072 0.99361 -0.06714
vn -0.07231 0.99323 -0.09091
vn -0.05026 0.99202 -0.11560
vn -0.00320 0.99967 -0.02534
vn -0.00021 0.95955 -0.28155
vn 0.01407 0.99226 -0.12341
vn 0.04228 0.99333 -0.10731
vn 0.06714 0.99361 -0.09072
vn 0.09091 0.99323 -0.07231
vn 0.11560 0.99202 -0.05026
vn 0.02534 0.99967 -0.00320
vn -0.21271 0.97711 -0.00186
vn -0.17417 0.98379 -0.04279
vn -0.14523 0.98617 -0.07985
vn -0.11631 0.98693 -0.11155
vn -0.08523 0.98637 -0.14075
vn -0.04928 0.98427 -0.16968
vn -0.00328 0.98160 -0.19091
vn 0.00186 0.97711 -0.21271
vn 0.04279 0.98379 -0.17417
vn 0.07985 0.98617 -0.14523
vn 0.11155 0.98693 -0.11631
vn 0.14075 0.98637 -0.08523
vn 0.16968 0.98427 -0.04928
vn 0.19091 0.98160 -0.00328
vn 0.21271 0.97711 0.00186
vn 0.17417 0.98379 0.04279
vn 0.14523 0.98617 0.07985
vn 0.11631 0.98693 0.11155
vn 0.08523 0.98637 0.14075
vn 0.04928 0.98427 0.16968
vn 0.00328 0.98160 0.19091
vn -0.00186 0.97711 0.21271
vn -0.04279 0.98379 0.17417
vn -0.07985 0.98617 0.14523
vn -0.11155 0.98693 0.11631
vn -0.14075 0.98637 0.08523
vn -0.16968 0.98427 0.04928
vn -0.19091 0.98160 0.00328
vn -0.12484 0.99218 -0.00080
vn -0.10409 0.99431 -0.02265
vn -0.08814 0.99507 -0.04545
vn -0.07142 0.99533 -0.06493
vn -0.05300 0.99518 -0.08249
vn -0.03168 0.99457 -0.09912
vn -0.00261 0.99447 -0.10502
vn 0.00080 0.99218 -0.12484
vn 0.02265 0.99431 -0.10409
vn 0.04545 0.99507 -0.08814
vn 0.06493 0.99533 -0.07142
vn 0.08249 0.99518 -0.05300
vn 0.09912 0.99457 -0.03168
vn 0.10502 0.99447 -0.00261
vn 0.12484 0.99218 0.00080
vn 0.10409 0.99431 0.02265
vn 0.08814 0.99507 0.04545
vn 0.07142 0.99533 0.06493
vn 0.05300 0.99518 0.08249
vn 0.03168 0.99457 0.09912
vn 0.00261 0.99447 0.10502
vn -0.00080 0.99218 0.12484
vn -0.02265 0.99431 0.10409
vn -0.04545 0.99507 0.08814
vn -0.06493 0.99533 0.07142
vn -0.08249 0.99518 0.05300
vn -0.09912 0.99457 0.03168
vn -0.10502 0.99447 0.00261
vn 0.00000 1.00000 0.00000
f 2//2 3//3 1//1
f 3//3 4//4 1//1
f 4//4 5//5 1//1
f 5//5 6//6 1//1
f 6//6 7//7 1//1
f 7//7 8//8 1//1
f 8//8 9//9 1//1
f 9//9 10//10 1//1
f 10//10 11//11 1//1
f 11//11 12//12 1//1
f 12//12 13//13 1//1
f 13//13 2//2 1//1
f 15//15 3//3 2//2
f 14//14 15//15 2//2
f 16//16 4//4 3//3
f 15//15 16//16 3//3
f 17//17 5//5 4//4
f 16//16 17//17 4//4
f 18//18 6//6 5//5
f 17//17 18//18 5//5
f 19//19 7//7 6//6
f 18//18 19//19 6//6
f 20//20 8//8 7//7
f 19//19 20//20 7//7
f 21//21 9//9 8//8
f 20//20 21//21 8//8
f 22//22 10//10 9//9
f 21//21 22//22 9//9
f 23//23 11//11 10//10
f 22//22 23//23 10//10
f 24//24 12//12 11//11
f 23//23 24//24 11//11
f 25//25 13//13 12//12
f 24//24 25//25 12//12
f 14//14 2//2 13//13
f 25//25 14//14 13//13
f 26//26 27//27 14//14
f 27//27 28//28 14//14
f 28//28 15//15 14//14
f 28//28 29//29 15//15
f 29//29 30//30 15//15
f 30//30 31//31 15//15
f 31//31 32//32 15//15
f 32//32 16//16 15//15
f 32//32 17//17 16//16
f 32//32 33//33 17//17
f 33//33 34//34 17//17
f 34//34 35//35 17//17
f 35//35 18//18 17//17
f 35//35 36//36 18//18
f 36//36 37//37 18//18
f 37//37 38//38 18//18
f 38//38 39//39 18//18
f 39//39 19//19 18//18
f 39//39 20//20 19//19
f 39//39 40//40 20//20
f 40//40 41//41 20//20
f 41//41 42//42 20//20
f 42//42 21//21 20//20
f 42//42 43//43 21//21
f 43//43 44//44 21//21
f 44//44 45//45 21//21
f 45//45 46//46 21//21
f 46//46 22//22 21//21
f 46//46 23//23 22//22
f 46//46 47//47 23//23
f 47//47 48//48 23//23
f 48//48 49//49 23//23
f 49//49 24//24 23//23
f 49//49 50//50 24//24
f 50//50 51//51 24//24
f 51//51 52//52 24//24
f 52//52 53//53 24//24
f 53//53 25//25 24//24
f 53//53 14//14 25//25
f 53//53 26//26 14//14
f 55//55 27//27 26//26
f 54//54 55//55 26//26
f 56//56 28//28 27//27
f 55//55 56//56 27//27
f 57//57 29//29 28//28
f 56//56 57//57 28//28
f 58//58 30//30 29//29
f 57//57 58//58 29//29
f 59//59 31//31 30//30
f 58//58 59//59 30//30
f 60//60 32//32 31//31
f 59//59 60//60 31//31
f 61//61 33//33 32//32
f 60//60 61//61 32//32
f 62//62 34//34 33//33
f 61//61 62//62 33//33
f 63//63 35//35 34//34
f 62//62 63//63 34//34
f 64//64 36//36 35//35
f 63//63 64//64 35//35
f 65//65 37//37 36//36
f 64//64 65//65 36//36
f 66//66 38//38 37//37
f 65//65 66//66 37//37
f 67//67 39//39 38//38
f 66//66 67//67 38//38
f 68//68 40//40 39//39
f 67//67 68//68 39//39
f 69//69 41//41 40//40
f 68//68 69//69 40//40
f 70//70 42//42 41//41
f 69//69 70//70 41//41
f 71//71 43//43 42//42
f 70//70 71//71 42//42
f 72//72 44//44 43//43
f 71//71 72//72 43//43
f 73//73 45//45 44//44
f 72//72 73//73 44//44
f 74//74 46//46 45//45
f 73//73 74//74 45//45
f 75//75 47//47 46//46
f 74//74 75//75 46//46
f 76//76 48//48 47//47
f 75//75 76//76 47//47
f 77//77 49//49 48//48
f 76//76 77//77 48//48
f 78//78 50//50 49//49
f 77//77 78//78 49//49
f 79//79 51//51 50//50
f 78//78 79//79 50//50
f 80//80 52//52 51//51
f 79//79 80//80 51//51
f 81//81 53//53 52//52
f 80//80 81//81 52//52
f 54//54 26//26 53//53
f 81//81 54//54 53//53
f 83//83 55//55 54//54
f 82//82 83//83 54//54
f 84//84 56//56 55//55
f 83//83 84//84 55//55
f 85//85 57//57 56//56
f 84//84 85//85 56//56
f 86//86 58//58 57//57
f 85//85 86//86 57//57
f 87//87 59//59 58//58
f 86//86 87//87 58//58
f 88//88 60//60 59//59
f 87//87 88//88 59//59
f 89//89 61//61 60//60
f 88//88 89//89 60//60
f 90//90 62//62 61//61
f 89//89 90//90 61//61
f 91//91 63//63 62//62
f 90//90 91//91 62//62
f 92//92 64//64 63//63
f 91//91 92//92 63//63
f 93//93 65//65 64//64
f 92//92 93//93 64//64
f 94//94 66//66 65//65
f 93//93 94//94 65//65
f 95//95 67//67 66//66
f 94//94 95//95 66//66
f 96//96 68//68 67//67
f 95//95 96//96 67//67
f 97//97 69//69 68//68
f 96//96 97//97 68//68
f 98//98 70//70 69//69
f 97//97 98//98 69//69
f 99//99 71//71 70//70
f 98//98 99//99 70//70
f 100//100 72//72 71//71
f 99//99 100//100 71//71
f 101//101 73//73 72//72
f 100//100 101//101 72//72
f 102//102 74//74 73//73
f 101//101 102//102 73//73
f 103//103 75//75 74//74
f 102//102 103//103 74//74
f 104//104 76//76 75//75
f 103//103 104//104 75//75
f 105//105 77//77 76//76
f 104//104 105//105 76//76
f 106//106 78//78 77//77
f 105//105 106//106 77//77
f 107//107 79//79 78//78
f 106//106 107//107 78//78
f 108//108 80//80 79//79
f 107//107 108//108 79//79
f 109//109 81//81 80//80
f 108//108 109//109 80//80
f 82//82 54//54 81//81
f 109//109 82//82 81//81
f 111//111 83//83 82//82
f 110//110 111//111 82//82
f 112//112 84//84 83//83
f 111//111 112//112 83//83
f 113//113 85//85 84//84
f 112//112 113//113 84//84
f 114//114 86//86 85//85
f 113//113 114//114 85//85
f 115//115 87//87 86//86
f 114//114 115//115 86//86
f 116//116 88//88 87//87
f 115//115 116//116 87//87
f 117//117 89//89 88//88
f 116//116 117//117 88//88
f 118//118 90//90 89//89
f 117//117 118//118 89//89
f 119//119 91//91 90//90
f 118//118 119//119 90//90
f 120//120 92//92 91//91
f 119//119 120//120 91//91
f 121//121 93//93 92//92
f 120//120 121//121 92//92
f 122//122 94//94 93//93
f 121//121 122//122 93//93
f 123//123 95//95 94//94
f 122//122 123//123 94//94
f 124//124 96//96 95//95
f 123//123 124//124 95//95
f 125//125 97//97 96//96
f 124//124 125//125 96//96
f 126//126 98//98 97//97
f 125//125 126//126 97//97
f 127//127 99//99 98//98
f 126//126 127//127 98//98
f 128//128 100//100 99//99
f 127//127 128//128 99//99
f 129//129 101//101 100//100
f 128//128 129//129 100//100
f 130//130 102//102 101//101
f 129//129 130//130 101//101
f 131//131 103//103 102//102
f 130//130 131//131 102//102
f 132//132 104//104 103//103
f 131//131 132//132 103//103
f 133//133 105//105 104//104
f 132//132 133//133 104//104
f 134//134 106//106 105//105
f 133//133 134//134 105//105
f 135//135 107//107 106//106
f 134//134 135//135 106//106
f 136//136 108//108 107//107
f 135//135 136//136 107//107
f 137//137 109//109 108//108
f 136//136 137//137 108//108
f 110//110 82//82 109//109
f 137//137 110//110 109//109
f 139//139 111//111 110//110
f 138//138 139//139 110//110
f 140//140 112//112 111//111
f 139//139 140//140 111//111
f 141//141 113//113 112//112
f 140//140 141//141 112//112
f 142//142 114//114 113//113
f 141//141 142//142 113//113
f 143//143 115//115 114//114
f 142//142 143//143 114//114
f 144//144 116//116 115//115
f 143//143 144//144 115//115
f 145//145 117//117 116//116
f 144//144 145//145 116//116
f 146//146 118//118 117//117
f 145//145 146//146 117//117
f 147//147 119//119 118//118
f 146//146 147//147 118//118
f 148//148 120//120 119//119
f 147//147 148//148 119//119
f 149//149 121//121 120//120
f 148//148 149//149 120//120
f 150//150 122//122 121//121
f 149//149 150//150 121//121
f 151//151 123//123 122//122
f 150//150 151//151 122//122
f 152//152 124//124 123//123
f 151//151 152//152 123//123
f 153//153 125//125 124//124
f 152//152 153//153 124//124
f 154//154 126//126 125//125
f 153//153 154//154 125//125
f 155//155 127//127 126//126
f 154//154 155//155 126//126
f 156//156 128//128 127//127
f 155//155 156//156 127//127
f 157//157 129//129 128//128
f 156//156 157//157 128//128
f 158//158 130//130 129//129
f 157//157 158//158 129//129
f 159//159 131//131 130//130
f 158//158 159//159 130//130
f 160//160 132//132 131//131
f 159//159 160//160 131//131
f 161//161 133//133 132//132
f 160//160 161//161 132//132
f 162//162 134//134 133//133
f 161//161 162//162 133//133
f 163//163 135//135 134//134
f 162//162 163//163 134//134
f 164//164 136//136 135//135
f 163//163 164//164 135//135
f 165//165 137//137 136//136
f 164//164 165//165 136//136
f 138//138 110//110 137//137
f 165//165 138//138 137//137
f 167//167 139//139 138//138
f 166//166 167//167 138//138
f 168//168 140//140 139//139
f 167//167 168//168 139//139
f 169//169 141//141 140//140
f 168//168 169//169 140//140
f 170//170 142//142 141//141
f 169//169 170//170 141//141
f 171//171 143//143 142//142
f 170//170 171//171 142//142
f 172//172 144//144 143//143
f 171//171 172//172 143//143
f 173//173 145//145 144//144
f 172//172 173//173 144//144
f 174//174 146//146 145//145
f 173//173 174//174 145//145
f 175//175 147//147 146//146
f 174//174 175//175 146//146
f 176//176 148//148 147//147
f 175//175 176//176 147//147
f 177//177 149//149 148//148
f 176//176 177//177 148//148
f 178//178 150//150 149//149
f 177//177 178//178 149//149
f 179//179 151//151 150//150
f 178//178 179//179 150//150
f 180//180 152//152 151//151
f 179//179 180//180 151//151
f 181//181 153//153 152//152
f 180//180 181//181 152//152
f 182//182 154//154 153//153
f 181//181 182//182 153//153
f 183//183 155//155 154//154
f 182//182 183//183 154//154
f 184//184 156//156 155//155
f 183//183 184//184 155//155
f 185//185 157//157 156//156
f 184//184 185//185 156//156
f 186//186 158//158 157//157
f 185//185 186//186 157//157
f 187//187 159//159 158//158
f 186//186 187//187 158//158
f 188//188 160//160 159//159
f 187//187 188//188 159//159
f 189//189 161//161 160//160
f 188//188 189//189 160//160
f 190//190 162//162 161//161
f 189//189 190//190 161//161
f 191//191 163//163 162//162
f 190//190 191//191 162//162
f 192//192 164//164 163//163
f 191//191 192//192 163//163
f 193//193 165//165 164//164
f 192//192 193//193 164//164
f 166//166 138//138 165//165
f 193//193 166//166 165//165
f 194//194 167//167 166//166
f 194//194 168//168 167//167
f 194//194 169//169 168//168
f 194//194 170//170 169//169
f 194//194 171//171 170//170
f 194//194 172//172 171//171
f 194//194 173//173 172//172
f 194//194 174//174 173//173
f 194//194 175//175 174//174
f 194//194 176//176 175//175
f 194//194 177//177 176//176
f 194//194 178//178 177//177
f 194//194 179//179 178//178
f 194//194 180//180 179//179
f 194//194 181//181 180//180
f 194//194 182//182 181//181
f 194//194 183//183 182//182
f 194//194 184//184 183//183
f 194//194 185//185 184//184
f 194//194 186//186 185//185
f 194//194 187//187 186//186
f 194//194 188//188 187//187
f 194//194 189//189 188//188
f 194//194 190//190 189//189
f 194//194 191//191 190//190
f 194//194 192//192 191//191
f 194//194 193//193 192//192
f 194//194 166//166 193//193
