# Blender 5.2.2 LTS
# www.blender.org
o ArcadeClacker
v 0.000000 0.000000 0.000000
v 1.100000 0.000000 0.836000
v 1.091002 0.000000 0.904332
v 1.064624 0.000000 0.968000
v 1.022670 0.000000 1.022670
v 0.968000 0.000000 1.064624
v 0.904332 0.000000 1.091002
v 0.836000 0.000000 1.100000
v -0.836000 0.000000 1.100000
v -0.904332 0.000000 1.091002
v -0.968000 0.000000 1.064624
v -1.022670 0.000000 1.022670
v -1.064624 0.000000 0.968000
v -1.091002 0.000000 0.904332
v -1.100000 0.000000 0.836000
v -1.100000 0.000000 -0.836000
v -1.091002 0.000000 -0.904332
v -1.064624 0.000000 -0.968000
v -1.022670 0.000000 -1.022670
v -0.968000 0.000000 -1.064624
v -0.904332 0.000000 -1.091002
v -0.836000 0.000000 -1.100000
v 0.836000 0.000000 -1.100000
v 0.904332 0.000000 -1.091002
v 0.968000 0.000000 -1.064624
v 1.022670 0.000000 -1.022670
v 1.064624 0.000000 -0.968000
v 1.091002 0.000000 -0.904332
v 1.100000 0.000000 -0.836000
v 0.979000 0.607200 0.671000
v 0.968506 0.607200 0.750706
v 0.937728 0.607200 0.825000
v 0.888778 0.607200 0.888778
v 0.825000 0.607200 0.937728
v 0.750706 0.607200 0.968506
v 0.671000 0.607200 0.979000
v -0.671000 0.607200 0.979000
v -0.750706 0.607200 0.968506
v -0.825000 0.607200 0.937728
v -0.888778 0.607200 0.888778
v -0.937728 0.607200 0.825000
v -0.968506 0.607200 0.750706
v -0.979000 0.607200 0.671000
v -0.979000 0.607200 -0.671000
v -0.968506 0.607200 -0.750706
v -0.937728 0.607200 -0.825000
v -0.888778 0.607200 -0.888778
v -0.825000 0.607200 -0.937728
v -0.750706 0.607200 -0.968506
v -0.671000 0.607200 -0.979000
v 0.671000 0.607200 -0.979000
v 0.750706 0.607200 -0.968506
v 0.825000 0.607200 -0.937728
v 0.888778 0.607200 -0.888778
v 0.937728 0.607200 -0.825000
v 0.968506 0.607200 -0.750706
v 0.979000 0.607200 -0.671000
v 0.858000 1.232000 0.506000
v 0.846010 1.232000 0.597102
v 0.810832 1.232000 0.682000
v 0.754908 1.232000 0.754908
v 0.682000 1.232000 0.810832
v 0.597102 1.232000 0.846010
v 0.506000 1.232000 0.858000
v -0.506000 1.232000 0.858000
v -0.597102 1.232000 0.846010
v -0.682000 1.232000 0.810832
v -0.754908 1.232000 0.754908
v -0.810832 1.232000 0.682000
v -0.846010 1.232000 0.597102
v -0.858000 1.232000 0.506000
v -0.858000 1.232000 -0.506000
v -0.846010 1.232000 -0.597102
v -0.810832 1.232000 -0.682000
v -0.754908 1.232000 -0.754908
v -0.682000 1.232000 -0.810832
v -0.597102 1.232000 -0.846010
v -0.506000 1.232000 -0.858000
v 0.506000 1.232000 -0.858000
v 0.597102 1.232000 -0.846010
v 0.682000 1.232000 -0.810832
v 0.754908 1.232000 -0.754908
v 0.810832 1.232000 -0.682000
v 0.846010 1.232000 -0.597102
v 0.858000 1.232000 -0.506000
v 0.770000 1.320000 0.462000
v 0.759506 1.320000 0.541706
v 0.728728 1.320000 0.616000
v 0.679778 1.320000 0.679778
v 0.616000 1.320000 0.728728
v 0.541706 1.320000 0.759506
v 0.462000 1.320000 0.770000
v -0.462000 1.320000 0.770000
v -0.541706 1.320000 0.759506
v -0.616000 1.320000 0.728728
v -0.679778 1.320000 0.679778
v -0.728728 1.320000 0.616000
v -0.759506 1.320000 0.541706
v -0.770000 1.320000 0.462000
v -0.770000 1.320000 -0.462000
v -0.759506 1.320000 -0.541706
v -0.728728 1.320000 -0.616000
v -0.679778 1.320000 -0.679778
v -0.616000 1.320000 -0.728728
v -0.541706 1.320000 -0.759506
v -0.462000 1.320000 -0.770000
v 0.462000 1.320000 -0.770000
v 0.541706 1.320000 -0.759506
v 0.616000 1.320000 -0.728728
v 0.679778 1.320000 -0.679778
v 0.728728 1.320000 -0.616000
v 0.759506 1.320000 -0.541706
v 0.770000 1.320000 -0.462000
v 0.554400 1.245838 0.300960
v 0.545754 1.245838 0.366564
v 0.520454 1.245838 0.427680
v 0.480172 1.245838 0.480172
v 0.427680 1.245838 0.520454
v 0.366564 1.245838 0.545754
v 0.300960 1.245838 0.554400
v -0.300960 1.245838 0.554400
v -0.366564 1.245838 0.545754
v -0.427680 1.245838 0.520454
v -0.480172 1.245838 0.480172
v -0.520454 1.245838 0.427680
v -0.545754 1.245838 0.366564
v -0.554400 1.245838 0.300960
v -0.554400 1.245838 -0.300960
v -0.545754 1.245838 -0.366564
v -0.520454 1.245838 -0.427680
v -0.480172 1.245838 -0.480172
v -0.427680 1.245838 -0.520454
v -0.366564 1.245838 -0.545754
v -0.300960 1.245838 -0.554400
v 0.300960 1.245838 -0.554400
v 0.366564 1.245838 -0.545754
v 0.427680 1.245838 -0.520454
v 0.480172 1.245838 -0.480172
v 0.520454 1.245838 -0.427680
v 0.545754 1.245838 -0.366564
v 0.554400 1.245838 -0.300960
v 0.323400 1.193170 0.175560
v 0.318362 1.193170 0.213818
v 0.303600 1.193170 0.249480
v 0.280104 1.193170 0.280104
v 0.249480 1.193170 0.303600
v 0.213818 1.193170 0.318362
v 0.175560 1.193170 0.323400
v -0.175560 1.193170 0.323400
v -0.213818 1.193170 0.318362
v -0.249480 1.193170 0.303600
v -0.280104 1.193170 0.280104
v -0.303600 1.193170 0.249480
v -0.318362 1.193170 0.213818
v -0.323400 1.193170 0.175560
v -0.323400 1.193170 -0.175560
v -0.318362 1.193170 -0.213818
v -0.303600 1.193170 -0.249480
v -0.280104 1.193170 -0.280104
v -0.249480 1.193170 -0.303600
v -0.213818 1.193170 -0.318362
v -0.175560 1.193170 -0.323400
v 0.175560 1.193170 -0.323400
v 0.213818 1.193170 -0.318362
v 0.249480 1.193170 -0.303600
v 0.280104 1.193170 -0.280104
v 0.303600 1.193170 -0.249480
v 0.318362 1.193170 -0.213818
v 0.323400 1.193170 -0.175560
v 0.000000 1.166000 -0.000000
v -0.310000 1.300000 0.150000
v -0.310000 1.340000 0.190000
v -0.350000 1.340000 0.150000
v -0.310000 1.311716 0.178284
v -0.333094 1.316906 0.173094
v -0.338284 1.340000 0.178284
v -0.338284 1.311716 0.150000
v -0.310000 1.360000 0.190000
v -0.310000 1.400000 0.150000
v -0.350000 1.360000 0.150000
v -0.310000 1.388284 0.178284
v -0.333094 1.383094 0.173094
v -0.338284 1.388284 0.150000
v -0.338284 1.360000 0.178284
v -0.310000 1.300000 -0.050000
v -0.350000 1.340000 -0.050000
v -0.310000 1.340000 -0.090000
v -0.338284 1.311716 -0.050000
v -0.333094 1.316906 -0.073094
v -0.338284 1.340000 -0.078284
v -0.310000 1.311716 -0.078284
v -0.310000 1.400000 -0.050000
v -0.310000 1.360000 -0.090000
v -0.350000 1.360000 -0.050000
v -0.310000 1.388284 -0.078284
v -0.333094 1.383094 -0.073094
v -0.338284 1.360000 -0.078284
v -0.338284 1.388284 -0.050000
v 0.310000 1.300000 0.150000
v 0.350000 1.340000 0.150000
v 0.310000 1.340000 0.190000
v 0.338284 1.311716 0.150000
v 0.333094 1.316906 0.173094
v 0.338284 1.340000 0.178284
v 0.310000 1.311716 0.178284
v 0.310000 1.400000 0.150000
v 0.310000 1.360000 0.190000
v 0.350000 1.360000 0.150000
v 0.310000 1.388284 0.178284
v 0.333094 1.383094 0.173094
v 0.338284 1.360000 0.178284
v 0.338284 1.388284 0.150000
v 0.310000 1.300000 -0.050000
v 0.310000 1.340000 -0.090000
v 0.350000 1.340000 -0.050000
v 0.310000 1.311716 -0.078284
v 0.333094 1.316906 -0.073094
v 0.338284 1.340000 -0.078284
v 0.338284 1.311716 -0.050000
v 0.310000 1.400000 -0.050000
v 0.350000 1.360000 -0.050000
v 0.310000 1.360000 -0.090000
v 0.338284 1.388284 -0.050000
v 0.333094 1.383094 -0.073094
v 0.338284 1.360000 -0.078284
v 0.310000 1.388284 -0.078284
v -0.340000 1.640000 -0.070000
v -0.340000 1.680000 -0.030000
v -0.380000 1.680000 -0.070000
v -0.340000 1.651716 -0.041716
v -0.363094 1.656906 -0.046906
v -0.368284 1.680000 -0.041716
v -0.368284 1.651716 -0.070000
v -0.340000 1.760000 -0.030000
v -0.340000 1.800000 -0.070000
v -0.380000 1.760000 -0.070000
v -0.340000 1.788284 -0.041716
v -0.363094 1.783094 -0.046906
v -0.368284 1.788284 -0.070000
v -0.368284 1.760000 -0.041716
v -0.340000 1.640000 -0.090000
v -0.380000 1.680000 -0.090000
v -0.340000 1.680000 -0.130000
v -0.368284 1.651716 -0.090000
v -0.363094 1.656906 -0.113094
v -0.368284 1.680000 -0.118284
v -0.340000 1.651716 -0.118284
v -0.340000 1.800000 -0.090000
v -0.340000 1.760000 -0.130000
v -0.380000 1.760000 -0.090000
v -0.340000 1.788284 -0.118284
v -0.363094 1.783094 -0.113094
v -0.368284 1.760000 -0.118284
v -0.368284 1.788284 -0.090000
v -0.100000 1.640000 -0.070000
v -0.060000 1.680000 -0.070000
v -0.100000 1.680000 -0.030000
v -0.071716 1.651716 -0.070000
v -0.076906 1.656906 -0.046906
v -0.071716 1.680000 -0.041716
v -0.100000 1.651716 -0.041716
v -0.100000 1.800000 -0.070000
v -0.100000 1.760000 -0.030000
v -0.060000 1.760000 -0.070000
v -0.100000 1.788284 -0.041716
v -0.076906 1.783094 -0.046906
v -0.071716 1.760000 -0.041716
v -0.071716 1.788284 -0.070000
v -0.100000 1.640000 -0.090000
v -0.100000 1.680000 -0.130000
v -0.060000 1.680000 -0.090000
v -0.100000 1.651716 -0.118284
v -0.076906 1.656906 -0.113094
v -0.071716 1.680000 -0.118284
v -0.071716 1.651716 -0.090000
v -0.100000 1.800000 -0.090000
v -0.060000 1.760000 -0.090000
v -0.100000 1.760000 -0.130000
v -0.071716 1.788284 -0.090000
v -0.076906 1.783094 -0.113094
v -0.071716 1.760000 -0.118284
v -0.100000 1.788284 -0.118284
v 0.060000 1.560000 0.090000
v 0.060000 1.600000 0.130000
v 0.020000 1.600000 0.090000
v 0.060000 1.571716 0.118284
v 0.036906 1.576906 0.113094
v 0.031716 1.600000 0.118284
v 0.031716 1.571716 0.090000
v 0.060000 1.680000 0.130000
v 0.060000 1.720000 0.090000
v 0.020000 1.680000 0.090000
v 0.060000 1.708284 0.118284
v 0.036906 1.703094 0.113094
v 0.031716 1.708284 0.090000
v 0.031716 1.680000 0.118284
v 0.060000 1.560000 0.070000
v 0.020000 1.600000 0.070000
v 0.060000 1.600000 0.030000
v 0.031716 1.571716 0.070000
v 0.036906 1.576906 0.046906
v 0.031716 1.600000 0.041716
v 0.060000 1.571716 0.041716
v 0.060000 1.720000 0.070000
v 0.060000 1.680000 0.030000
v 0.020000 1.680000 0.070000
v 0.060000 1.708284 0.041716
v 0.036906 1.703094 0.046906
v 0.031716 1.680000 0.041716
v 0.031716 1.708284 0.070000
v 0.300000 1.560000 0.090000
v 0.340000 1.600000 0.090000
v 0.300000 1.600000 0.130000
v 0.328284 1.571716 0.090000
v 0.323094 1.576906 0.113094
v 0.328284 1.600000 0.118284
v 0.300000 1.571716 0.118284
v 0.300000 1.720000 0.090000
v 0.300000 1.680000 0.130000
v 0.340000 1.680000 0.090000
v 0.300000 1.708284 0.118284
v 0.323094 1.703094 0.113094
v 0.328284 1.680000 0.118284
v 0.328284 1.708284 0.090000
v 0.300000 1.560000 0.070000
v 0.300000 1.600000 0.030000
v 0.340000 1.600000 0.070000
v 0.300000 1.571716 0.041716
v 0.323094 1.576906 0.046906
v 0.328284 1.600000 0.041716
v 0.328284 1.571716 0.070000
v 0.300000 1.720000 0.070000
v 0.340000 1.680000 0.070000
v 0.300000 1.680000 0.030000
v 0.328284 1.708284 0.070000
v 0.323094 1.703094 0.046906
v 0.328284 1.680000 0.041716
v 0.300000 1.708284 0.041716
v -0.120000 1.440000 -0.170000
v -0.120000 1.480000 -0.130000
v -0.160000 1.480000 -0.170000
v -0.120000 1.451716 -0.141716
v -0.143094 1.456906 -0.146906
v -0.148284 1.480000 -0.141716
v -0.148284 1.451716 -0.170000
v -0.120000 1.560000 -0.130000
v -0.120000 1.600000 -0.170000
v -0.160000 1.560000 -0.170000
v -0.120000 1.588284 -0.141716
v -0.143094 1.583094 -0.146906
v -0.148284 1.588284 -0.170000
v -0.148284 1.560000 -0.141716
v -0.120000 1.440000 -0.190000
v -0.160000 1.480000 -0.190000
v -0.120000 1.480000 -0.230000
v -0.148284 1.451716 -0.190000
v -0.143094 1.456906 -0.213094
v -0.148284 1.480000 -0.218284
v -0.120000 1.451716 -0.218284
v -0.120000 1.600000 -0.190000
v -0.120000 1.560000 -0.230000
v -0.160000 1.560000 -0.190000
v -0.120000 1.588284 -0.218284
v -0.143094 1.583094 -0.213094
v -0.148284 1.560000 -0.218284
v -0.148284 1.588284 -0.190000
v 0.120000 1.440000 -0.170000
v 0.160000 1.480000 -0.170000
v 0.120000 1.480000 -0.130000
v 0.148284 1.451716 -0.170000
v 0.143094 1.456906 -0.146906
v 0.148284 1.480000 -0.141716
v 0.120000 1.451716 -0.141716
v 0.120000 1.600000 -0.170000
v 0.120000 1.560000 -0.130000
v 0.160000 1.560000 -0.170000
v 0.120000 1.588284 -0.141716
v 0.143094 1.583094 -0.146906
v 0.148284 1.560000 -0.141716
v 0.148284 1.588284 -0.170000
v 0.120000 1.440000 -0.190000
v 0.120000 1.480000 -0.230000
v 0.160000 1.480000 -0.190000
v 0.120000 1.451716 -0.218284
v 0.143094 1.456906 -0.213094
v 0.148284 1.480000 -0.218284
v 0.148284 1.451716 -0.190000
v 0.120000 1.600000 -0.190000
v 0.160000 1.560000 -0.190000
v 0.120000 1.560000 -0.230000
v 0.148284 1.588284 -0.190000
v 0.143094 1.583094 -0.213094
v 0.148284 1.560000 -0.218284
v 0.120000 1.588284 -0.218284
v 0.000000 1.740000 -0.110000
v 0.000000 1.780000 -0.070000
v -0.040000 1.780000 -0.110000
v 0.000000 1.751716 -0.081716
v -0.023094 1.756906 -0.086906
v -0.028284 1.780000 -0.081716
v -0.028284 1.751716 -0.110000
v 0.000000 1.860000 -0.070000
v 0.000000 1.900000 -0.110000
v -0.040000 1.860000 -0.110000
v 0.000000 1.888284 -0.081716
v -0.023094 1.883094 -0.086906
v -0.028284 1.888284 -0.110000
v -0.028284 1.860000 -0.081716
v 0.000000 1.740000 -0.130000
v -0.040000 1.780000 -0.130000
v 0.000000 1.780000 -0.170000
v -0.028284 1.751716 -0.130000
v -0.023094 1.756906 -0.153094
v -0.028284 1.780000 -0.158284
v 0.000000 1.751716 -0.158284
v 0.000000 1.900000 -0.130000
v 0.000000 1.860000 -0.170000
v -0.040000 1.860000 -0.130000
v 0.000000 1.888284 -0.158284
v -0.023094 1.883094 -0.153094
v -0.028284 1.860000 -0.158284
v -0.028284 1.888284 -0.130000
v 0.240000 1.740000 -0.110000
v 0.280000 1.780000 -0.110000
v 0.240000 1.780000 -0.070000
v 0.268284 1.751716 -0.110000
v 0.263094 1.756906 -0.086906
v 0.268284 1.780000 -0.081716
v 0.240000 1.751716 -0.081716
v 0.240000 1.900000 -0.110000
v 0.240000 1.860000 -0.070000
v 0.280000 1.860000 -0.110000
v 0.240000 1.888284 -0.081716
v 0.263094 1.883094 -0.086906
v 0.268284 1.860000 -0.081716
v 0.268284 1.888284 -0.110000
v 0.240000 1.740000 -0.130000
v 0.240000 1.780000 -0.170000
v 0.280000 1.780000 -0.130000
v 0.240000 1.751716 -0.158284
v 0.263094 1.756906 -0.153094
v 0.268284 1.780000 -0.158284
v 0.268284 1.751716 -0.130000
v 0.240000 1.900000 -0.130000
v 0.280000 1.860000 -0.130000
v 0.240000 1.860000 -0.170000
v 0.268284 1.888284 -0.130000
v 0.263094 1.883094 -0.153094
v 0.268284 1.860000 -0.158284
v 0.240000 1.888284 -0.158284
vn 0.5454 -0.8382 0.0059
vn 0.6507 -0.7302 0.2086
vn -0.0000 -1.0000 -0.0000
vn 0.5497 -0.7567 0.3539
vn 0.4321 -0.7658 0.4762
vn 0.2977 -0.7593 0.5786
vn 0.1433 -0.7360 0.6616
vn 0.0022 -0.6372 0.7707
vn -0.0059 -0.8382 0.5454
vn -0.2086 -0.7302 0.6507
vn -0.3539 -0.7567 0.5497
vn -0.4762 -0.7658 0.4321
vn -0.5786 -0.7593 0.2977
vn -0.6616 -0.7360 0.1433
vn -0.7707 -0.6372 0.0022
vn -0.5454 -0.8382 -0.0059
vn -0.6507 -0.7302 -0.2086
vn -0.5497 -0.7567 -0.3539
vn -0.4321 -0.7658 -0.4762
vn -0.2977 -0.7593 -0.5786
vn -0.1433 -0.7360 -0.6616
vn -0.0022 -0.6372 -0.7707
vn 0.0059 -0.8382 -0.5454
vn 0.2086 -0.7302 -0.6507
vn 0.3539 -0.7567 -0.5497
vn 0.4762 -0.7658 -0.4321
vn 0.5786 -0.7593 -0.2977
vn 0.6616 -0.7360 -0.1433
vn 0.7707 -0.6372 -0.0022
vn 0.9336 0.2495 0.2571
vn 0.9807 0.1955 0.0071
vn 0.8273 0.2828 0.4853
vn 0.6713 0.2936 0.6806
vn 0.4740 0.2818 0.8342
vn 0.2443 0.2473 0.9376
vn 0.0075 0.1940 0.9810
vn -0.0071 0.1955 0.9807
vn -0.2571 0.2495 0.9336
vn -0.4853 0.2828 0.8273
vn -0.6806 0.2936 0.6713
vn -0.8342 0.2818 0.4740
vn -0.9376 0.2473 0.2443
vn -0.9810 0.1940 0.0075
vn -0.9807 0.1955 -0.0071
vn -0.9336 0.2495 -0.2571
vn -0.8273 0.2828 -0.4853
vn -0.6713 0.2936 -0.6806
vn -0.4740 0.2818 -0.8342
vn -0.2443 0.2473 -0.9376
vn -0.0075 0.1940 -0.9810
vn 0.0071 0.1955 -0.9807
vn 0.2571 0.2495 -0.9336
vn 0.4853 0.2828 -0.8273
vn 0.6806 0.2936 -0.6713
vn 0.8342 0.2818 -0.4740
vn 0.9376 0.2473 -0.2443
vn 0.9810 0.1940 -0.0075
vn 0.9174 0.3339 0.2164
vn 0.9708 0.2397 0.0057
vn 0.8183 0.3697 0.4401
vn 0.6726 0.3829 0.6332
vn 0.4878 0.3737 0.7889
vn 0.2705 0.3419 0.9000
vn 0.0155 0.3346 0.9422
vn -0.0056 0.2398 0.9708
vn -0.2164 0.3339 0.9174
vn -0.4401 0.3697 0.8183
vn -0.6332 0.3829 0.6726
vn -0.7889 0.3737 0.4878
vn -0.9000 0.3419 0.2705
vn -0.9422 0.3346 0.0155
vn -0.9708 0.2398 -0.0056
vn -0.9174 0.3339 -0.2164
vn -0.8183 0.3697 -0.4401
vn -0.6726 0.3829 -0.6332
vn -0.4878 0.3737 -0.7889
vn -0.2705 0.3419 -0.9000
vn -0.0155 0.3346 -0.9422
vn 0.0056 0.2398 -0.9708
vn 0.2164 0.3339 -0.9174
vn 0.4401 0.3697 -0.8183
vn 0.6332 0.3829 -0.6726
vn 0.7889 0.3737 -0.4878
vn 0.9000 0.3419 -0.2705
vn 0.9422 0.3346 -0.0155
vn 0.0685 0.9976 -0.0031
vn 0.2319 0.9727 -0.0012
vn 0.0622 0.9980 0.0137
vn 0.0553 0.9981 0.0287
vn 0.0473 0.9979 0.0432
vn 0.0375 0.9976 0.0587
vn 0.0027 0.9987 -0.0509
vn 0.0012 0.9727 0.2319
vn 0.0031 0.9976 0.0685
vn -0.0137 0.9980 0.0622
vn -0.0287 0.9981 0.0553
vn -0.0432 0.9979 0.0473
vn -0.0587 0.9976 0.0375
vn 0.0509 0.9987 0.0027
vn -0.2319 0.9727 0.0012
vn -0.0685 0.9976 0.0031
vn -0.0622 0.9980 -0.0137
vn -0.0553 0.9981 -0.0287
vn -0.0473 0.9979 -0.0432
vn -0.0375 0.9976 -0.0587
vn -0.0027 0.9987 0.0509
vn -0.0012 0.9727 -0.2319
vn -0.0031 0.9976 -0.0685
vn 0.0137 0.9980 -0.0622
vn 0.0287 0.9981 -0.0553
vn 0.0432 0.9979 -0.0473
vn 0.0587 0.9976 -0.0375
vn -0.0509 0.9987 -0.0027
vn -0.2401 0.9689 -0.0590
vn -0.2915 0.9566 -0.0026
vn -0.2006 0.9734 -0.1104
vn -0.1608 0.9749 -0.1543
vn -0.1178 0.9738 -0.1945
vn -0.0680 0.9698 -0.2341
vn -0.0045 0.9649 -0.2627
vn 0.0026 0.9566 -0.2915
vn 0.0590 0.9689 -0.2401
vn 0.1104 0.9734 -0.2007
vn 0.1543 0.9749 -0.1608
vn 0.1945 0.9738 -0.1178
vn 0.2341 0.9698 -0.0680
vn 0.2627 0.9649 -0.0045
vn 0.2915 0.9566 0.0026
vn 0.2401 0.9689 0.0590
vn 0.2006 0.9734 0.1104
vn 0.1608 0.9749 0.1543
vn 0.1178 0.9738 0.1945
vn 0.0680 0.9698 0.2341
vn 0.0045 0.9649 0.2627
vn -0.0026 0.9566 0.2915
vn -0.0590 0.9689 0.2401
vn -0.1104 0.9734 0.2007
vn -0.1543 0.9749 0.1608
vn -0.1945 0.9738 0.1178
vn -0.2341 0.9698 0.0680
vn -0.2627 0.9649 0.0045
vn -0.1449 0.9889 -0.0316
vn -0.1735 0.9848 -0.0011
vn -0.1228 0.9904 -0.0633
vn -0.0995 0.9909 -0.0905
vn -0.0738 0.9906 -0.1150
vn -0.0441 0.9894 -0.1380
vn -0.0036 0.9892 -0.1463
vn 0.0011 0.9848 -0.1735
vn 0.0316 0.9889 -0.1449
vn 0.0633 0.9904 -0.1228
vn 0.0905 0.9909 -0.0995
vn 0.1150 0.9906 -0.0738
vn 0.1381 0.9894 -0.0441
vn 0.1463 0.9892 -0.0036
vn 0.1735 0.9848 0.0011
vn 0.1449 0.9889 0.0316
vn 0.1228 0.9904 0.0633
vn 0.0995 0.9909 0.0905
vn 0.0738 0.9906 0.1150
vn 0.0441 0.9894 0.1380
vn 0.0036 0.9892 0.1463
vn -0.0011 0.9848 0.1735
vn -0.0316 0.9889 0.1449
vn -0.0633 0.9904 0.1228
vn -0.0905 0.9909 0.0995
vn -0.1150 0.9906 0.0738
vn -0.1381 0.9894 0.0441
vn -0.1463 0.9892 0.0036
vn -0.0000 1.0000 -0.0000
vn -0.1794 -0.9673 0.1794
vn -0.1726 -0.6965 0.6965
vn -0.5773 -0.5774 0.5773
vn -0.6965 -0.6965 0.1726
vn -0.1794 -0.1794 0.9673
vn -0.6965 -0.1726 0.6965
vn -0.9673 -0.1794 0.1794
vn -0.1794 0.1794 0.9673
vn -0.1726 0.6965 0.6965
vn -0.5774 0.5773 0.5774
vn -0.6965 0.1726 0.6965
vn -0.1794 0.9673 0.1794
vn -0.6965 0.6965 0.1726
vn -0.9673 0.1794 0.1794
vn -0.1794 -0.9673 -0.1794
vn -0.6965 -0.6965 -0.1726
vn -0.5773 -0.5774 -0.5773
vn -0.1726 -0.6965 -0.6965
vn -0.9673 -0.1794 -0.1794
vn -0.6965 -0.1726 -0.6965
vn -0.1794 -0.1794 -0.9673
vn -0.1794 0.9673 -0.1794
vn -0.1726 0.6965 -0.6965
vn -0.5774 0.5773 -0.5774
vn -0.6965 0.6965 -0.1726
vn -0.1794 0.1794 -0.9673
vn -0.6965 0.1726 -0.6965
vn -0.9673 0.1794 -0.1794
vn 0.1794 -0.9673 0.1794
vn 0.6965 -0.6965 0.1726
vn 0.5773 -0.5774 0.5773
vn 0.1726 -0.6965 0.6965
vn 0.9673 -0.1794 0.1794
vn 0.6965 -0.1726 0.6965
vn 0.1794 -0.1794 0.9673
vn 0.1794 0.9673 0.1794
vn 0.1726 0.6965 0.6965
vn 0.5774 0.5773 0.5774
vn 0.6965 0.6965 0.1726
vn 0.1794 0.1794 0.9673
vn 0.6965 0.1726 0.6965
vn 0.9673 0.1794 0.1794
vn 0.1794 -0.9673 -0.1794
vn 0.1726 -0.6965 -0.6965
vn 0.5773 -0.5774 -0.5773
vn 0.6965 -0.6965 -0.1726
vn 0.1794 -0.1794 -0.9673
vn 0.6965 -0.1726 -0.6965
vn 0.9673 -0.1794 -0.1794
vn 0.1794 0.9673 -0.1794
vn 0.6965 0.6965 -0.1726
vn 0.5774 0.5773 -0.5774
vn 0.1726 0.6965 -0.6965
vn 0.9673 0.1794 -0.1794
vn 0.6965 0.1726 -0.6965
vn 0.1794 0.1794 -0.9673
vn -0.5774 -0.5774 0.5773
vn 0.5774 -0.5774 0.5773
vn 0.5773 -0.5774 -0.5774
vn -0.5773 0.5774 0.5773
vn -0.5773 0.5774 -0.5773
vn 0.5773 0.5774 0.5773
vn 0.5773 0.5774 -0.5773
vn -0.5774 -0.5773 0.5774
vn -0.5774 -0.5773 -0.5774
vn 0.5774 -0.5773 0.5774
vn 0.5774 -0.5773 -0.5774
s 1
f 2//1 3//2 1//3
f 3//2 4//4 1//3
f 4//4 5//5 1//3
f 5//5 6//6 1//3
f 6//6 7//7 1//3
f 7//7 8//8 1//3
f 8//8 9//9 1//3
f 9//9 10//10 1//3
f 10//10 11//11 1//3
f 11//11 12//12 1//3
f 12//12 13//13 1//3
f 13//13 14//14 1//3
f 14//14 15//15 1//3
f 15//15 16//16 1//3
f 16//16 17//17 1//3
f 17//17 18//18 1//3
f 18//18 19//19 1//3
f 19//19 20//20 1//3
f 20//20 21//21 1//3
f 21//21 22//22 1//3
f 22//22 23//23 1//3
f 23//23 24//24 1//3
f 24//24 25//25 1//3
f 25//25 26//26 1//3
f 26//26 27//27 1//3
f 27//27 28//28 1//3
f 28//28 29//29 1//3
f 29//29 2//1 1//3
f 31//30 3//2 2//1
f 30//31 31//30 2//1
f 32//32 4//4 3//2
f 31//30 32//32 3//2
f 33//33 5//5 4//4
f 32//32 33//33 4//4
f 34//34 6//6 5//5
f 33//33 34//34 5//5
f 35//35 7//7 6//6
f 34//34 35//35 6//6
f 36//36 8//8 7//7
f 35//35 36//36 7//7
f 37//37 9//9 8//8
f 36//36 37//37 8//8
f 38//38 10//10 9//9
f 37//37 38//38 9//9
f 39//39 11//11 10//10
f 38//38 39//39 10//10
f 40//40 12//12 11//11
f 39//39 40//40 11//11
f 41//41 13//13 12//12
f 40//40 41//41 12//12
f 42//42 14//14 13//13
f 41//41 42//42 13//13
f 43//43 15//15 14//14
f 42//42 43//43 14//14
f 44//44 16//16 15//15
f 43//43 44//44 15//15
f 45//45 17//17 16//16
f 44//44 45//45 16//16
f 46//46 18//18 17//17
f 45//45 46//46 17//17
f 47//47 19//19 18//18
f 46//46 47//47 18//18
f 48//48 20//20 19//19
f 47//47 48//48 19//19
f 49//49 21//21 20//20
f 48//48 49//49 20//20
f 50//50 22//22 21//21
f 49//49 50//50 21//21
f 51//51 23//23 22//22
f 50//50 51//51 22//22
f 52//52 24//24 23//23
f 51//51 52//52 23//23
f 53//53 25//25 24//24
f 52//52 53//53 24//24
f 54//54 26//26 25//25
f 53//53 54//54 25//25
f 55//55 27//27 26//26
f 54//54 55//55 26//26
f 56//56 28//28 27//27
f 55//55 56//56 27//27
f 57//57 29//29 28//28
f 56//56 57//57 28//28
f 30//31 2//1 29//29
f 57//57 30//31 29//29
f 59//58 31//30 30//31
f 58//59 59//58 30//31
f 60//60 32//32 31//30
f 59//58 60//60 31//30
f 61//61 33//33 32//32
f 60//60 61//61 32//32
f 62//62 34//34 33//33
f 61//61 62//62 33//33
f 63//63 35//35 34//34
f 62//62 63//63 34//34
f 64//64 36//36 35//35
f 63//63 64//64 35//35
f 65//65 37//37 36//36
f 64//64 65//65 36//36
f 66//66 38//38 37//37
f 65//65 66//66 37//37
f 67//67 39//39 38//38
f 66//66 67//67 38//38
f 68//68 40//40 39//39
f 67//67 68//68 39//39
f 69//69 41//41 40//40
f 68//68 69//69 40//40
f 70//70 42//42 41//41
f 69//69 70//70 41//41
f 71//71 43//43 42//42
f 70//70 71//71 42//42
f 72//72 44//44 43//43
f 71//71 72//72 43//43
f 73//73 45//45 44//44
f 72//72 73//73 44//44
f 74//74 46//46 45//45
f 73//73 74//74 45//45
f 75//75 47//47 46//46
f 74//74 75//75 46//46
f 76//76 48//48 47//47
f 75//75 76//76 47//47
f 77//77 49//49 48//48
f 76//76 77//77 48//48
f 78//78 50//50 49//49
f 77//77 78//78 49//49
f 79//79 51//51 50//50
f 78//78 79//79 50//50
f 80//80 52//52 51//51
f 79//79 80//80 51//51
f 81//81 53//53 52//52
f 80//80 81//81 52//52
f 82//82 54//54 53//53
f 81//81 82//82 53//53
f 83//83 55//55 54//54
f 82//82 83//83 54//54
f 84//84 56//56 55//55
f 83//83 84//84 55//55
f 85//85 57//57 56//56
f 84//84 85//85 56//56
f 58//59 30//31 57//57
f 85//85 58//59 57//57
f 87//86 59//58 58//59
f 86//87 87//86 58//59
f 88//88 60//60 59//58
f 87//86 88//88 59//58
f 89//89 61//61 60//60
f 88//88 89//89 60//60
f 90//90 62//62 61//61
f 89//89 90//90 61//61
f 91//91 63//63 62//62
f 90//90 91//91 62//62
f 92//92 64//64 63//63
f 91//91 92//92 63//63
f 93//93 65//65 64//64
f 92//92 93//93 64//64
f 94//94 66//66 65//65
f 93//93 94//94 65//65
f 95//95 67//67 66//66
f 94//94 95//95 66//66
f 96//96 68//68 67//67
f 95//95 96//96 67//67
f 97//97 69//69 68//68
f 96//96 97//97 68//68
f 98//98 70//70 69//69
f 97//97 98//98 69//69
f 99//99 71//71 70//70
f 98//98 99//99 70//70
f 100//100 72//72 71//71
f 99//99 100//100 71//71
f 101//101 73//73 72//72
f 100//100 101//101 72//72
f 102//102 74//74 73//73
f 101//101 102//102 73//73
f 103//103 75//75 74//74
f 102//102 103//103 74//74
f 104//104 76//76 75//75
f 103//103 104//104 75//75
f 105//105 77//77 76//76
f 104//104 105//105 76//76
f 106//106 78//78 77//77
f 105//105 106//106 77//77
f 107//107 79//79 78//78
f 106//106 107//107 78//78
f 108//108 80//80 79//79
f 107//107 108//108 79//79
f 109//109 81//81 80//80
f 108//108 109//109 80//80
f 110//110 82//82 81//81
f 109//109 110//110 81//81
f 111//111 83//83 82//82
f 110//110 111//111 82//82
f 112//112 84//84 83//83
f 111//111 112//112 83//83
f 113//113 85//85 84//84
f 112//112 113//113 84//84
f 86//87 58//59 85//85
f 113//113 86//87 85//85
f 115//114 87//86 86//87
f 114//115 115//114 86//87
f 116//116 88//88 87//86
f 115//114 116//116 87//86
f 117//117 89//89 88//88
f 116//116 117//117 88//88
f 118//118 90//90 89//89
f 117//117 118//118 89//89
f 119//119 91//91 90//90
f 118//118 119//119 90//90
f 120//120 92//92 91//91
f 119//119 120//120 91//91
f 121//121 93//93 92//92
f 120//120 121//121 92//92
f 122//122 94//94 93//93
f 121//121 122//122 93//93
f 123//123 95//95 94//94
f 122//122 123//123 94//94
f 124//124 96//96 95//95
f 123//123 124//124 95//95
f 125//125 97//97 96//96
f 124//124 125//125 96//96
f 126//126 98//98 97//97
f 125//125 126//126 97//97
f 127//127 99//99 98//98
f 126//126 127//127 98//98
f 128//128 100//100 99//99
f 127//127 128//128 99//99
f 129//129 101//101 100//100
f 128//128 129//129 100//100
f 130//130 102//102 101//101
f 129//129 130//130 101//101
f 131//131 103//103 102//102
f 130//130 131//131 102//102
f 132//132 104//104 103//103
f 131//131 132//132 103//103
f 133//133 105//105 104//104
f 132//132 133//133 104//104
f 134//134 106//106 105//105
f 133//133 134//134 105//105
f 135//135 107//107 106//106
f 134//134 135//135 106//106
f 136//136 108//108 107//107
f 135//135 136//136 107//107
f 137//137 109//109 108//108
f 136//136 137//137 108//108
f 138//138 110//110 109//109
f 137//137 138//138 109//109
f 139//139 111//111 110//110
f 138//138 139//139 110//110
f 140//140 112//112 111//111
f 139//139 140//140 111//111
f 141//141 113//113 112//112
f 140//140 141//141 112//112
f 114//115 86//87 113//113
f 141//141 114//115 113//113
f 143//142 115//114 114//115
f 142//143 143//142 114//115
f 144//144 116//116 115//114
f 143//142 144//144 115//114
f 145//145 117//117 116//116
f 144//144 145//145 116//116
f 146//146 118//118 117//117
f 145//145 146//146 117//117
f 147//147 119//119 118//118
f 146//146 147//147 118//118
f 148//148 120//120 119//119
f 147//147 148//148 119//119
f 149//149 121//121 120//120
f 148//148 149//149 120//120
f 150//150 122//122 121//121
f 149//149 150//150 121//121
f 151//151 123//123 122//122
f 150//150 151//151 122//122
f 152//152 124//124 123//123
f 151//151 152//152 123//123
f 153//153 125//125 124//124
f 152//152 153//153 124//124
f 154//154 126//126 125//125
f 153//153 154//154 125//125
f 155//155 127//127 126//126
f 154//154 155//155 126//126
f 156//156 128//128 127//127
f 155//155 156//156 127//127
f 157//157 129//129 128//128
f 156//156 157//157 128//128
f 158//158 130//130 129//129
f 157//157 158//158 129//129
f 159//159 131//131 130//130
f 158//158 159//159 130//130
f 160//160 132//132 131//131
f 159//159 160//160 131//131
f 161//161 133//133 132//132
f 160//160 161//161 132//132
f 162//162 134//134 133//133
f 161//161 162//162 133//133
f 163//163 135//135 134//134
f 162//162 163//163 134//134
f 164//164 136//136 135//135
f 163//163 164//164 135//135
f 165//165 137//137 136//136
f 164//164 165//165 136//136
f 166//166 138//138 137//137
f 165//165 166//166 137//137
f 167//167 139//139 138//138
f 166//166 167//167 138//138
f 168//168 140//140 139//139
f 167//167 168//168 139//139
f 169//169 141//141 140//140
f 168//168 169//169 140//140
f 142//143 114//115 141//141
f 169//169 142//143 141//141
f 170//170 143//142 142//143
f 170//170 144//144 143//142
f 170//170 145//145 144//144
f 170//170 146//146 145//145
f 170//170 147//147 146//146
f 170//170 148//148 147//147
f 170//170 149//149 148//148
f 170//170 150//150 149//149
f 170//170 151//151 150//150
f 170//170 152//152 151//151
f 170//170 153//153 152//152
f 170//170 154//154 153//153
f 170//170 155//155 154//154
f 170//170 156//156 155//155
f 170//170 157//157 156//156
f 170//170 158//158 157//157
f 170//170 159//159 158//158
f 170//170 160//160 159//159
f 170//170 161//161 160//160
f 170//170 162//162 161//161
f 170//170 163//163 162//162
f 170//170 164//164 163//163
f 170//170 165//165 164//164
f 170//170 166//166 165//165
f 170//170 167//167 166//166
f 170//170 168//168 167//167
f 170//170 169//169 168//168
f 170//170 142//143 169//169
f 171//171 174//172 175//173 177//174
f 172//175 176//176 175//173 174//172
f 173//177 177//174 175//173 176//176
f 178//178 181//179 182//180 184//181
f 179//182 183//183 182//180 181//179
f 180//184 184//181 182//180 183//183
f 185//185 188//186 189//187 191//188
f 186//189 190//190 189//187 188//186
f 187//191 191//188 189//187 190//190
f 192//192 195//193 196//194 198//195
f 193//196 197//197 196//194 195//193
f 194//198 198//195 196//194 197//197
f 199//199 202//200 203//201 205//202
f 200//203 204//204 203//201 202//200
f 201//205 205//202 203//201 204//204
f 206//206 209//207 210//208 212//209
f 207//210 211//211 210//208 209//207
f 208//212 212//209 210//208 211//211
f 213//213 216//214 217//215 219//216
f 214//217 218//218 217//215 216//214
f 215//219 219//216 217//215 218//218
f 220//220 223//221 224//222 226//223
f 221//224 225//225 224//222 223//221
f 222//226 226//223 224//222 225//225
f 185//185 171//171 177//174 188//186
f 188//186 177//174 173//177 186//189
f 172//175 178//178 184//181 176//176
f 176//176 184//181 180//184 173//177
f 179//182 192//192 198//195 183//183
f 183//183 198//195 194//198 180//184
f 193//196 187//191 190//190 197//197
f 197//197 190//190 186//189 194//198
f 213//213 185//185 191//188 216//214
f 216//214 191//188 187//191 214//217
f 192//192 220//220 226//223 195//193
f 195//193 226//223 222//226 193//196
f 221//224 215//219 218//218 225//225
f 225//225 218//218 214//217 222//226
f 199//199 213//213 219//216 202//200
f 202//200 219//216 215//219 200//203
f 220//220 206//206 212//209 223//221
f 223//221 212//209 208//212 221//224
f 207//210 201//205 204//204 211//211
f 211//211 204//204 200//203 208//212
f 171//171 199//199 205//202 174//172
f 174//172 205//202 201//205 172//175
f 206//206 179//182 181//179 209//207
f 209//207 181//179 178//178 207//210
f 185//185 213//213 199//199 171//171
f 173//177 180//184 194//198 186//189
f 201//205 207//210 178//178 172//175
f 220//220 192//192 179//182 206//206
f 187//191 193//196 222//226 214//217
f 215//219 221//224 208//212 200//203
f 227//171 230//172 231//227 233//174
f 228//175 232//176 231//227 230//172
f 229//177 233//174 231//227 232//176
f 234//178 237//179 238//180 240//181
f 235//182 239//183 238//180 237//179
f 236//184 240//181 238//180 239//183
f 241//185 244//186 245//187 247//188
f 242//189 246//190 245//187 244//186
f 243//191 247//188 245//187 246//190
f 248//192 251//193 252//194 254//195
f 249//196 253//197 252//194 251//193
f 250//198 254//195 252//194 253//197
f 255//199 258//200 259//228 261//202
f 256//203 260//204 259//228 258//200
f 257//205 261//202 259//228 260//204
f 262//206 265//207 266//208 268//209
f 263//210 267//211 266//208 265//207
f 264//212 268//209 266//208 267//211
f 269//213 272//214 273//215 275//216
f 270//217 274//218 273//215 272//214
f 271//219 275//216 273//215 274//218
f 276//220 279//221 280//222 282//223
f 277//224 281//225 280//222 279//221
f 278//226 282//223 280//222 281//225
f 241//185 227//171 233//174 244//186
f 244//186 233//174 229//177 242//189
f 228//175 234//178 240//181 232//176
f 232//176 240//181 236//184 229//177
f 235//182 248//192 254//195 239//183
f 239//183 254//195 250//198 236//184
f 249//196 243//191 246//190 253//197
f 253//197 246//190 242//189 250//198
f 269//213 241//185 247//188 272//214
f 272//214 247//188 243//191 270//217
f 248//192 276//220 282//223 251//193
f 251//193 282//223 278//226 249//196
f 277//224 271//219 274//218 281//225
f 281//225 274//218 270//217 278//226
f 255//199 269//213 275//216 258//200
f 258//200 275//216 271//219 256//203
f 276//220 262//206 268//209 279//221
f 279//221 268//209 264//212 277//224
f 263//210 257//205 260//204 267//211
f 267//211 260//204 256//203 264//212
f 227//171 255//199 261//202 230//172
f 230//172 261//202 257//205 228//175
f 262//206 235//182 237//179 265//207
f 265//207 237//179 234//178 263//210
f 241//185 269//213 255//199 227//171
f 229//177 236//184 250//198 242//189
f 257//205 263//210 234//178 228//175
f 276//220 248//192 235//182 262//206
f 243//191 249//196 278//226 270//217
f 271//219 277//224 264//212 256//203
f 283//171 286//172 287//173 289//174
f 284//175 288//176 287//173 286//172
f 285//177 289//174 287//173 288//176
f 290//178 293//179 294//180 296//181
f 291//182 295//183 294//180 293//179
f 292//184 296//181 294//180 295//183
f 297//185 300//186 301//187 303//188
f 298//189 302//190 301//187 300//186
f 299//191 303//188 301//187 302//190
f 304//192 307//193 308//194 310//195
f 305//196 309//197 308//194 307//193
f 306//198 310//195 308//194 309//197
f 311//199 314//200 315//201 317//202
f 312//203 316//204 315//201 314//200
f 313//205 317//202 315//201 316//204
f 318//206 321//207 322//208 324//209
f 319//210 323//211 322//208 321//207
f 320//212 324//209 322//208 323//211
f 325//213 328//214 329//229 331//216
f 326//217 330//218 329//229 328//214
f 327//219 331//216 329//229 330//218
f 332//220 335//221 336//222 338//223
f 333//224 337//225 336//222 335//221
f 334//226 338//223 336//222 337//225
f 297//185 283//171 289//174 300//186
f 300//186 289//174 285//177 298//189
f 284//175 290//178 296//181 288//176
f 288//176 296//181 292//184 285//177
f 291//182 304//192 310//195 295//183
f 295//183 310//195 306//198 292//184
f 305//196 299//191 302//190 309//197
f 309//197 302//190 298//189 306//198
f 325//213 297//185 303//188 328//214
f 328//214 303//188 299//191 326//217
f 304//192 332//220 338//223 307//193
f 307//193 338//223 334//226 305//196
f 333//224 327//219 330//218 337//225
f 337//225 330//218 326//217 334//226
f 311//199 325//213 331//216 314//200
f 314//200 331//216 327//219 312//203
f 332//220 318//206 324//209 335//221
f 335//221 324//209 320//212 333//224
f 319//210 313//205 316//204 323//211
f 323//211 316//204 312//203 320//212
f 283//171 311//199 317//202 286//172
f 286//172 317//202 313//205 284//175
f 318//206 291//182 293//179 321//207
f 321//207 293//179 290//178 319//210
f 297//185 325//213 311//199 283//171
f 285//177 292//184 306//198 298//189
f 313//205 319//210 290//178 284//175
f 332//220 304//192 291//182 318//206
f 299//191 305//196 334//226 326//217
f 327//219 333//224 320//212 312//203
f 339//171 342//172 343//173 345//174
f 340//175 344//176 343//173 342//172
f 341//177 345//174 343//173 344//176
f 346//178 349//179 350//230 352//181
f 347//182 351//183 350//230 349//179
f 348//184 352//181 350//230 351//183
f 353//185 356//186 357//187 359//188
f 354//189 358//190 357//187 356//186
f 355//191 359//188 357//187 358//190
f 360//192 363//193 364//231 366//195
f 361//196 365//197 364//231 363//193
f 362//198 366//195 364//231 365//197
f 367//199 370//200 371//201 373//202
f 368//203 372//204 371//201 370//200
f 369//205 373//202 371//201 372//204
f 374//206 377//207 378//232 380//209
f 375//210 379//211 378//232 377//207
f 376//212 380//209 378//232 379//211
f 381//213 384//214 385//215 387//216
f 382//217 386//218 385//215 384//214
f 383//219 387//216 385//215 386//218
f 388//220 391//221 392//233 394//223
f 389//224 393//225 392//233 391//221
f 390//226 394//223 392//233 393//225
f 353//185 339//171 345//174 356//186
f 356//186 345//174 341//177 354//189
f 340//175 346//178 352//181 344//176
f 344//176 352//181 348//184 341//177
f 347//182 360//192 366//195 351//183
f 351//183 366//195 362//198 348//184
f 361//196 355//191 358//190 365//197
f 365//197 358//190 354//189 362//198
f 381//213 353//185 359//188 384//214
f 384//214 359//188 355//191 382//217
f 360//192 388//220 394//223 363//193
f 363//193 394//223 390//226 361//196
f 389//224 383//219 386//218 393//225
f 393//225 386//218 382//217 390//226
f 367//199 381//213 387//216 370//200
f 370//200 387//216 383//219 368//203
f 388//220 374//206 380//209 391//221
f 391//221 380//209 376//212 389//224
f 375//210 369//205 372//204 379//211
f 379//211 372//204 368//203 376//212
f 339//171 367//199 373//202 342//172
f 342//172 373//202 369//205 340//175
f 374//206 347//182 349//179 377//207
f 377//207 349//179 346//178 375//210
f 353//185 381//213 367//199 339//171
f 341//177 348//184 362//198 354//189
f 369//205 375//210 346//178 340//175
f 388//220 360//192 347//182 374//206
f 355//191 361//196 390//226 382//217
f 383//219 389//224 376//212 368//203
f 395//171 398//172 399//234 401//174
f 396//175 400//176 399//234 398//172
f 397//177 401//174 399//234 400//176
f 402//178 405//179 406//180 408//181
f 403//182 407//183 406//180 405//179
f 404//184 408//181 406//180 407//183
f 409//185 412//186 413//235 415//188
f 410//189 414//190 413//235 412//186
f 411//191 415//188 413//235 414//190
f 416//192 419//193 420//194 422//195
f 417//196 421//197 420//194 419//193
f 418//198 422//195 420//194 421//197
f 423//199 426//200 427//236 429//202
f 424//203 428//204 427//236 426//200
f 425//205 429//202 427//236 428//204
f 430//206 433//207 434//208 436//209
f 431//210 435//211 434//208 433//207
f 432//212 436//209 434//208 435//211
f 437//213 440//214 441//237 443//216
f 438//217 442//218 441//237 440//214
f 439//219 443//216 441//237 442//218
f 444//220 447//221 448//222 450//223
f 445//224 449//225 448//222 447//221
f 446//226 450//223 448//222 449//225
f 409//185 395//171 401//174 412//186
f 412//186 401//174 397//177 410//189
f 396//175 402//178 408//181 400//176
f 400//176 408//181 404//184 397//177
f 403//182 416//192 422//195 407//183
f 407//183 422//195 418//198 404//184
f 417//196 411//191 414//190 421//197
f 421//197 414//190 410//189 418//198
f 437//213 409//185 415//188 440//214
f 440//214 415//188 411//191 438//217
f 416//192 444//220 450//223 419//193
f 419//193 450//223 446//226 417//196
f 445//224 439//219 442//218 449//225
f 449//225 442//218 438//217 446//226
f 423//199 437//213 443//216 426//200
f 426//200 443//216 439//219 424//203
f 444//220 430//206 436//209 447//221
f 447//221 436//209 432//212 445//224
f 431//210 425//205 428//204 435//211
f 435//211 428//204 424//203 432//212
f 395//171 423//199 429//202 398//172
f 398//172 429//202 425//205 396//175
f 430//206 403//182 405//179 433//207
f 433//207 405//179 402//178 431//210
f 409//185 437//213 423//199 395//171
f 397//177 404//184 418//198 410//189
f 425//205 431//210 402//178 396//175
f 444//220 416//192 403//182 430//206
f 411//191 417//196 446//226 438//217
f 439//219 445//224 432//212 424//203
