# Blender 5.2.2 LTS
# www.blender.org
o CloverCap
v 0.000000 0.000000 0.000000
v 1.100000 0.000000 0.836000
v 1.091002 0.000000 0.904332
v 1.064624 0.000000 0.968000
v 1.022670 0.000000 1.022670
v 0.968000 0.000000 1.064624
v 0.904332 0.000000 1.091002
v 0.836000 0.000000 1.100000
v -0.836000 0.000000 1.100000
v -0.904332 0.000000 1.091002
v -0.968000 0.000000 1.064624
v -1.022670 0.000000 1.022670
v -1.064624 0.000000 0.968000
v -1.091002 0.000000 0.904332
v -1.100000 0.000000 0.836000
v -1.100000 0.000000 -0.836000
v -1.091002 0.000000 -0.904332
v -1.064624 0.000000 -0.968000
v -1.022670 0.000000 -1.022670
v -0.968000 0.000000 -1.064624
v -0.904332 0.000000 -1.091002
v -0.836000 0.000000 -1.100000
v 0.836000 0.000000 -1.100000
v 0.904332 0.000000 -1.091002
v 0.968000 0.000000 -1.064624
v 1.022670 0.000000 -1.022670
v 1.064624 0.000000 -0.968000
v 1.091002 0.000000 -0.904332
v 1.100000 0.000000 -0.836000
v 0.979000 0.607200 0.671000
v 0.968506 0.607200 0.750706
v 0.937728 0.607200 0.825000
v 0.888778 0.607200 0.888778
v 0.825000 0.607200 0.937728
v 0.750706 0.607200 0.968506
v 0.671000 0.607200 0.979000
v -0.671000 0.607200 0.979000
v -0.750706 0.607200 0.968506
v -0.825000 0.607200 0.937728
v -0.888778 0.607200 0.888778
v -0.937728 0.607200 0.825000
v -0.968506 0.607200 0.750706
v -0.979000 0.607200 0.671000
v -0.979000 0.607200 -0.671000
v -0.968506 0.607200 -0.750706
v -0.937728 0.607200 -0.825000
v -0.888778 0.607200 -0.888778
v -0.825000 0.607200 -0.937728
v -0.750706 0.607200 -0.968506
v -0.671000 0.607200 -0.979000
v 0.671000 0.607200 -0.979000
v 0.750706 0.607200 -0.968506
v 0.825000 0.607200 -0.937728
v 0.888778 0.607200 -0.888778
v 0.937728 0.607200 -0.825000
v 0.968506 0.607200 -0.750706
v 0.979000 0.607200 -0.671000
v 0.858000 1.232000 0.506000
v 0.846010 1.232000 0.597102
v 0.810832 1.232000 0.682000
v 0.754908 1.232000 0.754908
v 0.682000 1.232000 0.810832
v 0.597102 1.232000 0.846010
v 0.506000 1.232000 0.858000
v -0.506000 1.232000 0.858000
v -0.597102 1.232000 0.846010
v -0.682000 1.232000 0.810832
v -0.754908 1.232000 0.754908
v -0.810832 1.232000 0.682000
v -0.846010 1.232000 0.597102
v -0.858000 1.232000 0.506000
v -0.858000 1.232000 -0.506000
v -0.846010 1.232000 -0.597102
v -0.810832 1.232000 -0.682000
v -0.754908 1.232000 -0.754908
v -0.682000 1.232000 -0.810832
v -0.597102 1.232000 -0.846010
v -0.506000 1.232000 -0.858000
v 0.506000 1.232000 -0.858000
v 0.597102 1.232000 -0.846010
v 0.682000 1.232000 -0.810832
v 0.754908 1.232000 -0.754908
v 0.810832 1.232000 -0.682000
v 0.846010 1.232000 -0.597102
v 0.858000 1.232000 -0.506000
v 0.770000 1.320000 0.462000
v 0.759506 1.320000 0.541706
v 0.728728 1.320000 0.616000
v 0.679778 1.320000 0.679778
v 0.616000 1.320000 0.728728
v 0.541706 1.320000 0.759506
v 0.462000 1.320000 0.770000
v -0.462000 1.320000 0.770000
v -0.541706 1.320000 0.759506
v -0.616000 1.320000 0.728728
v -0.679778 1.320000 0.679778
v -0.728728 1.320000 0.616000
v -0.759506 1.320000 0.541706
v -0.770000 1.320000 0.462000
v -0.770000 1.320000 -0.462000
v -0.759506 1.320000 -0.541706
v -0.728728 1.320000 -0.616000
v -0.679778 1.320000 -0.679778
v -0.616000 1.320000 -0.728728
v -0.541706 1.320000 -0.759506
v -0.462000 1.320000 -0.770000
v 0.462000 1.320000 -0.770000
v 0.541706 1.320000 -0.759506
v 0.616000 1.320000 -0.728728
v 0.679778 1.320000 -0.679778
v 0.728728 1.320000 -0.616000
v 0.759506 1.320000 -0.541706
v 0.770000 1.320000 -0.462000
v 0.554400 1.245838 0.300960
v 0.545754 1.245838 0.366564
v 0.520454 1.245838 0.427680
v 0.480172 1.245838 0.480172
v 0.427680 1.245838 0.520454
v 0.366564 1.245838 0.545754
v 0.300960 1.245838 0.554400
v -0.300960 1.245838 0.554400
v -0.366564 1.245838 0.545754
v -0.427680 1.245838 0.520454
v -0.480172 1.245838 0.480172
v -0.520454 1.245838 0.427680
v -0.545754 1.245838 0.366564
v -0.554400 1.245838 0.300960
v -0.554400 1.245838 -0.300960
v -0.545754 1.245838 -0.366564
v -0.520454 1.245838 -0.427680
v -0.480172 1.245838 -0.480172
v -0.427680 1.245838 -0.520454
v -0.366564 1.245838 -0.545754
v -0.300960 1.245838 -0.554400
v 0.300960 1.245838 -0.554400
v 0.366564 1.245838 -0.545754
v 0.427680 1.245838 -0.520454
v 0.480172 1.245838 -0.480172
v 0.520454 1.245838 -0.427680
v 0.545754 1.245838 -0.366564
v 0.554400 1.245838 -0.300960
v 0.323400 1.193170 0.175560
v 0.318362 1.193170 0.213818
v 0.303600 1.193170 0.249480
v 0.280104 1.193170 0.280104
v 0.249480 1.193170 0.303600
v 0.213818 1.193170 0.318362
v 0.175560 1.193170 0.323400
v -0.175560 1.193170 0.323400
v -0.213818 1.193170 0.318362
v -0.249480 1.193170 0.303600
v -0.280104 1.193170 0.280104
v -0.303600 1.193170 0.249480
v -0.318362 1.193170 0.213818
v -0.323400 1.193170 0.175560
v -0.323400 1.193170 -0.175560
v -0.318362 1.193170 -0.213818
v -0.303600 1.193170 -0.249480
v -0.280104 1.193170 -0.280104
v -0.249480 1.193170 -0.303600
v -0.213818 1.193170 -0.318362
v -0.175560 1.193170 -0.323400
v 0.175560 1.193170 -0.323400
v 0.213818 1.193170 -0.318362
v 0.249480 1.193170 -0.303600
v 0.280104 1.193170 -0.280104
v 0.303600 1.193170 -0.249480
v 0.318362 1.193170 -0.213818
v 0.323400 1.193170 -0.175560
v 0.000000 1.166000 -0.000000
v -0.310000 1.300000 0.150000
v -0.310000 1.340000 0.190000
v -0.350000 1.340000 0.150000
v -0.310000 1.311716 0.178284
v -0.333094 1.316906 0.173094
v -0.338284 1.340000 0.178284
v -0.338284 1.311716 0.150000
v -0.310000 1.360000 0.190000
v -0.310000 1.400000 0.150000
v -0.350000 1.360000 0.150000
v -0.310000 1.388284 0.178284
v -0.333094 1.383094 0.173094
v -0.338284 1.388284 0.150000
v -0.338284 1.360000 0.178284
v -0.310000 1.300000 -0.050000
v -0.350000 1.340000 -0.050000
v -0.310000 1.340000 -0.090000
v -0.338284 1.311716 -0.050000
v -0.333094 1.316906 -0.073094
v -0.338284 1.340000 -0.078284
v -0.310000 1.311716 -0.078284
v -0.310000 1.400000 -0.050000
v -0.310000 1.360000 -0.090000
v -0.350000 1.360000 -0.050000
v -0.310000 1.388284 -0.078284
v -0.333094 1.383094 -0.073094
v -0.338284 1.360000 -0.078284
v -0.338284 1.388284 -0.050000
v 0.310000 1.300000 0.150000
v 0.350000 1.340000 0.150000
v 0.310000 1.340000 0.190000
v 0.338284 1.311716 0.150000
v 0.333094 1.316906 0.173094
v 0.338284 1.340000 0.178284
v 0.310000 1.311716 0.178284
v 0.310000 1.400000 0.150000
v 0.310000 1.360000 0.190000
v 0.350000 1.360000 0.150000
v 0.310000 1.388284 0.178284
v 0.333094 1.383094 0.173094
v 0.338284 1.360000 0.178284
v 0.338284 1.388284 0.150000
v 0.310000 1.300000 -0.050000
v 0.310000 1.340000 -0.090000
v 0.350000 1.340000 -0.050000
v 0.310000 1.311716 -0.078284
v 0.333094 1.316906 -0.073094
v 0.338284 1.340000 -0.078284
v 0.338284 1.311716 -0.050000
v 0.310000 1.400000 -0.050000
v 0.350000 1.360000 -0.050000
v 0.310000 1.360000 -0.090000
v 0.338284 1.388284 -0.050000
v 0.333094 1.383094 -0.073094
v 0.338284 1.360000 -0.078284
v 0.310000 1.388284 -0.078284
v -0.220000 1.820000 -0.120000
v -0.220000 1.767279 -0.247279
v -0.220000 1.640000 -0.300000
v -0.220000 1.571117 -0.286298
v -0.220000 1.512721 -0.247279
v -0.220000 1.460000 -0.120000
v -0.185558 1.806298 -0.179654
v -0.156360 1.767279 -0.230227
v -0.136851 1.708883 -0.264019
v -0.130000 1.640000 -0.275885
v -0.136851 1.571117 -0.264019
v -0.156360 1.512721 -0.230227
v -0.185558 1.473702 -0.179654
v -0.160346 1.806298 -0.154442
v -0.109773 1.767279 -0.183640
v -0.075981 1.708883 -0.203149
v -0.064115 1.640000 -0.210000
v -0.075981 1.571117 -0.203149
v -0.109773 1.512721 -0.183640
v -0.160346 1.473702 -0.154442
v -0.151117 1.806298 -0.120000
v -0.092721 1.767279 -0.120000
v -0.053702 1.708883 -0.120000
v -0.040000 1.640000 -0.120000
v -0.053702 1.571117 -0.120000
v -0.092721 1.512721 -0.120000
v -0.151117 1.473702 -0.120000
v -0.160346 1.806298 -0.085558
v -0.109773 1.767279 -0.056360
v -0.075981 1.708883 -0.036851
v -0.064115 1.640000 -0.030000
v -0.075981 1.571117 -0.036851
v -0.109773 1.512721 -0.056360
v -0.160346 1.473702 -0.085558
v -0.185558 1.806298 -0.060346
v -0.156360 1.767279 -0.009773
v -0.136851 1.708883 0.024019
v -0.130000 1.640000 0.035885
v -0.136851 1.571117 0.024019
v -0.156360 1.512721 -0.009773
v -0.185558 1.473702 -0.060346
v -0.220000 1.806298 -0.051117
v -0.220000 1.767279 0.007279
v -0.220000 1.708883 0.046298
v -0.220000 1.640000 0.060000
v -0.220000 1.571117 0.046298
v -0.220000 1.512721 0.007279
v -0.220000 1.473702 -0.051117
v -0.254441 1.806298 -0.060346
v -0.283640 1.767279 -0.009773
v -0.303149 1.708883 0.024019
v -0.310000 1.640000 0.035885
v -0.303149 1.571117 0.024019
v -0.283640 1.512721 -0.009773
v -0.254441 1.473702 -0.060346
v -0.279654 1.806298 -0.085558
v -0.330227 1.767279 -0.056360
v -0.364019 1.708883 -0.036851
v -0.375885 1.640000 -0.030000
v -0.364019 1.571117 -0.036851
v -0.330227 1.512721 -0.056360
v -0.279654 1.473702 -0.085558
v -0.288883 1.806298 -0.120000
v -0.347279 1.767279 -0.120000
v -0.386298 1.708883 -0.120000
v -0.400000 1.640000 -0.120000
v -0.386298 1.571117 -0.120000
v -0.347279 1.512721 -0.120000
v -0.288883 1.473702 -0.120000
v -0.279654 1.806298 -0.154442
v -0.330227 1.767279 -0.183640
v -0.364019 1.708883 -0.203149
v -0.375885 1.640000 -0.210000
v -0.364019 1.571117 -0.203149
v -0.330227 1.512721 -0.183640
v -0.279654 1.473702 -0.154442
v -0.254441 1.806298 -0.179654
v -0.283640 1.767279 -0.230227
v -0.303149 1.708883 -0.264019
v -0.310000 1.640000 -0.275885
v -0.303149 1.571117 -0.264019
v -0.283640 1.512721 -0.230227
v -0.254441 1.473702 -0.179654
v -0.220000 1.806298 -0.188883
v -0.220000 1.708883 -0.286298
v -0.220000 1.473702 -0.188883
v 0.220000 1.820000 -0.120000
v 0.220000 1.767279 -0.247279
v 0.220000 1.640000 -0.300000
v 0.220000 1.571117 -0.286298
v 0.220000 1.512721 -0.247279
v 0.220000 1.460000 -0.120000
v 0.254441 1.806298 -0.179654
v 0.283640 1.767279 -0.230227
v 0.303149 1.708883 -0.264019
v 0.310000 1.640000 -0.275885
v 0.303149 1.571117 -0.264019
v 0.283640 1.512721 -0.230227
v 0.254441 1.473702 -0.179654
v 0.279654 1.806298 -0.154442
v 0.330227 1.767279 -0.183640
v 0.364019 1.708883 -0.203149
v 0.375885 1.640000 -0.210000
v 0.364019 1.571117 -0.203149
v 0.330227 1.512721 -0.183640
v 0.279654 1.473702 -0.154442
v 0.288883 1.806298 -0.120000
v 0.347279 1.767279 -0.120000
v 0.386298 1.708883 -0.120000
v 0.400000 1.640000 -0.120000
v 0.386298 1.571117 -0.120000
v 0.347279 1.512721 -0.120000
v 0.288883 1.473702 -0.120000
v 0.279654 1.806298 -0.085558
v 0.330227 1.767279 -0.056360
v 0.364019 1.708883 -0.036851
v 0.375885 1.640000 -0.030000
v 0.364019 1.571117 -0.036851
v 0.330227 1.512721 -0.056360
v 0.279654 1.473702 -0.085558
v 0.254441 1.806298 -0.060346
v 0.283640 1.767279 -0.009773
v 0.303149 1.708883 0.024019
v 0.310000 1.640000 0.035885
v 0.303149 1.571117 0.024019
v 0.283640 1.512721 -0.009773
v 0.254441 1.473702 -0.060346
v 0.220000 1.806298 -0.051117
v 0.220000 1.767279 0.007279
v 0.220000 1.708883 0.046298
v 0.220000 1.640000 0.060000
v 0.220000 1.571117 0.046298
v 0.220000 1.512721 0.007279
v 0.220000 1.473702 -0.051117
v 0.185558 1.806298 -0.060346
v 0.156360 1.767279 -0.009773
v 0.136851 1.708883 0.024019
v 0.130000 1.640000 0.035885
v 0.136851 1.571117 0.024019
v 0.156360 1.512721 -0.009773
v 0.185558 1.473702 -0.060346
v 0.160346 1.806298 -0.085558
v 0.109773 1.767279 -0.056360
v 0.075981 1.708883 -0.036851
v 0.064115 1.640000 -0.030000
v 0.075981 1.571117 -0.036851
v 0.109773 1.512721 -0.056360
v 0.160346 1.473702 -0.085558
v 0.151117 1.806298 -0.120000
v 0.092721 1.767279 -0.120000
v 0.053702 1.708883 -0.120000
v 0.040000 1.640000 -0.120000
v 0.053702 1.571117 -0.120000
v 0.092721 1.512721 -0.120000
v 0.151117 1.473702 -0.120000
v 0.160346 1.806298 -0.154442
v 0.109773 1.767279 -0.183640
v 0.075981 1.708883 -0.203149
v 0.064115 1.640000 -0.210000
v 0.075981 1.571117 -0.203149
v 0.109773 1.512721 -0.183640
v 0.160346 1.473702 -0.154442
v 0.185558 1.806298 -0.179654
v 0.156360 1.767279 -0.230227
v 0.136851 1.708883 -0.264019
v 0.130000 1.640000 -0.275885
v 0.136851 1.571117 -0.264019
v 0.156360 1.512721 -0.230227
v 0.185558 1.473702 -0.179654
v 0.220000 1.806298 -0.188883
v 0.220000 1.708883 -0.286298
v 0.220000 1.473702 -0.188883
v 0.000000 1.820000 -0.350000
v 0.000000 1.767279 -0.477279
v 0.000000 1.640000 -0.530000
v 0.000000 1.571117 -0.516298
v 0.000000 1.512721 -0.477279
v 0.000000 1.460000 -0.350000
v 0.034442 1.806298 -0.409654
v 0.063640 1.767279 -0.460227
v 0.083149 1.708883 -0.494019
v 0.090000 1.640000 -0.505885
v 0.083149 1.571117 -0.494019
v 0.063640 1.512721 -0.460227
v 0.034442 1.473702 -0.409654
v 0.059654 1.806298 -0.384441
v 0.110227 1.767279 -0.413640
v 0.144019 1.708883 -0.433149
v 0.155885 1.640000 -0.440000
v 0.144019 1.571117 -0.433149
v 0.110227 1.512721 -0.413640
v 0.059654 1.473702 -0.384441
v 0.068883 1.806298 -0.350000
v 0.127279 1.767279 -0.350000
v 0.166298 1.708883 -0.350000
v 0.180000 1.640000 -0.350000
v 0.166298 1.571117 -0.350000
v 0.127279 1.512721 -0.350000
v 0.068883 1.473702 -0.350000
v 0.059654 1.806298 -0.315558
v 0.110227 1.767279 -0.286360
v 0.144019 1.708883 -0.266851
v 0.155885 1.640000 -0.260000
v 0.144019 1.571117 -0.266851
v 0.110227 1.512721 -0.286360
v 0.059654 1.473702 -0.315558
v 0.034442 1.806298 -0.290346
v 0.063640 1.767279 -0.239773
v 0.083149 1.708883 -0.205981
v 0.090000 1.640000 -0.194115
v 0.083149 1.571117 -0.205981
v 0.063640 1.512721 -0.239773
v 0.034442 1.473702 -0.290346
v -0.000000 1.806298 -0.281117
v 0.000000 1.767279 -0.222721
v -0.000000 1.708883 -0.183702
v 0.000000 1.640000 -0.170000
v -0.000000 1.571117 -0.183702
v 0.000000 1.512721 -0.222721
v -0.000000 1.473702 -0.281117
v -0.034442 1.806298 -0.290346
v -0.063640 1.767279 -0.239773
v -0.083149 1.708883 -0.205981
v -0.090000 1.640000 -0.194115
v -0.083149 1.571117 -0.205981
v -0.063640 1.512721 -0.239773
v -0.034442 1.473702 -0.290346
v -0.059654 1.806298 -0.315558
v -0.110227 1.767279 -0.286360
v -0.144019 1.708883 -0.266851
v -0.155885 1.640000 -0.260000
v -0.144019 1.571117 -0.266851
v -0.110227 1.512721 -0.286360
v -0.059654 1.473702 -0.315558
v -0.068883 1.806298 -0.350000
v -0.127279 1.767279 -0.350000
v -0.166298 1.708883 -0.350000
v -0.180000 1.640000 -0.350000
v -0.166298 1.571117 -0.350000
v -0.127279 1.512721 -0.350000
v -0.068883 1.473702 -0.350000
v -0.059654 1.806298 -0.384441
v -0.110227 1.767279 -0.413640
v -0.144019 1.708883 -0.433149
v -0.155885 1.640000 -0.440000
v -0.144019 1.571117 -0.433149
v -0.110227 1.512721 -0.413640
v -0.059654 1.473702 -0.384441
v -0.034442 1.806298 -0.409654
v -0.063640 1.767279 -0.460227
v -0.083149 1.708883 -0.494019
v -0.090000 1.640000 -0.505885
v -0.083149 1.571117 -0.494019
v -0.063640 1.512721 -0.460227
v -0.034442 1.473702 -0.409654
v 0.000000 1.806298 -0.418883
v 0.000000 1.708883 -0.516298
v 0.000000 1.473702 -0.418883
v 0.000000 1.820000 0.080000
v 0.000000 1.767279 -0.047279
v 0.000000 1.640000 -0.100000
v 0.000000 1.571117 -0.086298
v 0.000000 1.512721 -0.047279
v 0.000000 1.460000 0.080000
v 0.034442 1.806298 0.020346
v 0.063640 1.767279 -0.030227
v 0.083149 1.708883 -0.064019
v 0.090000 1.640000 -0.075885
v 0.083149 1.571117 -0.064019
v 0.063640 1.512721 -0.030227
v 0.034442 1.473702 0.020346
v 0.059654 1.806298 0.045558
v 0.110227 1.767279 0.016360
v 0.144019 1.708883 -0.003149
v 0.155885 1.640000 -0.010000
v 0.144019 1.571117 -0.003149
v 0.110227 1.512721 0.016360
v 0.059654 1.473702 0.045558
v 0.068883 1.806298 0.080000
v 0.127279 1.767279 0.080000
v 0.166298 1.708883 0.080000
v 0.180000 1.640000 0.080000
v 0.166298 1.571117 0.080000
v 0.127279 1.512721 0.080000
v 0.068883 1.473702 0.080000
v 0.059654 1.806298 0.114442
v 0.110227 1.767279 0.143640
v 0.144019 1.708883 0.163149
v 0.155885 1.640000 0.170000
v 0.144019 1.571117 0.163149
v 0.110227 1.512721 0.143640
v 0.059654 1.473702 0.114442
v 0.034442 1.806298 0.139654
v 0.063640 1.767279 0.190227
v 0.083149 1.708883 0.224019
v 0.090000 1.640000 0.235885
v 0.083149 1.571117 0.224019
v 0.063640 1.512721 0.190227
v 0.034442 1.473702 0.139654
v -0.000000 1.806298 0.148883
v 0.000000 1.767279 0.207279
v -0.000000 1.708883 0.246298
v 0.000000 1.640000 0.260000
v -0.000000 1.571117 0.246298
v 0.000000 1.512721 0.207279
v -0.000000 1.473702 0.148883
v -0.034442 1.806298 0.139654
v -0.063640 1.767279 0.190227
v -0.083149 1.708883 0.224019
v -0.090000 1.640000 0.235885
v -0.083149 1.571117 0.224019
v -0.063640 1.512721 0.190227
v -0.034442 1.473702 0.139654
v -0.059654 1.806298 0.114441
v -0.110227 1.767279 0.143640
v -0.144019 1.708883 0.163149
v -0.155885 1.640000 0.170000
v -0.144019 1.571117 0.163149
v -0.110227 1.512721 0.143640
v -0.059654 1.473702 0.114441
v -0.068883 1.806298 0.080000
v -0.127279 1.767279 0.080000
v -0.166298 1.708883 0.080000
v -0.180000 1.640000 0.080000
v -0.166298 1.571117 0.080000
v -0.127279 1.512721 0.080000
v -0.068883 1.473702 0.080000
v -0.059654 1.806298 0.045558
v -0.110227 1.767279 0.016360
v -0.144019 1.708883 -0.003149
v -0.155885 1.640000 -0.010000
v -0.144019 1.571117 -0.003149
v -0.110227 1.512721 0.016360
v -0.059654 1.473702 0.045558
v -0.034442 1.806298 0.020346
v -0.063640 1.767279 -0.030227
v -0.083149 1.708883 -0.064019
v -0.090000 1.640000 -0.075885
v -0.083149 1.571117 -0.064019
v -0.063640 1.512721 -0.030227
v -0.034442 1.473702 0.020346
v 0.000000 1.806298 0.011117
v 0.000000 1.708883 -0.086298
v 0.000000 1.473702 0.011117
vn 0.5454 -0.8382 0.0059
vn 0.6507 -0.7302 0.2086
vn -0.0000 -1.0000 -0.0000
vn 0.5497 -0.7567 0.3539
vn 0.4321 -0.7658 0.4762
vn 0.2977 -0.7593 0.5786
vn 0.1433 -0.7360 0.6616
vn 0.0022 -0.6372 0.7707
vn -0.0059 -0.8382 0.5454
vn -0.2086 -0.7302 0.6507
vn -0.3539 -0.7567 0.5497
vn -0.4762 -0.7658 0.4321
vn -0.5786 -0.7593 0.2977
vn -0.6616 -0.7360 0.1433
vn -0.7707 -0.6372 0.0022
vn -0.5454 -0.8382 -0.0059
vn -0.6507 -0.7302 -0.2086
vn -0.5497 -0.7567 -0.3539
vn -0.4321 -0.7658 -0.4762
vn -0.2977 -0.7593 -0.5786
vn -0.1433 -0.7360 -0.6616
vn -0.0022 -0.6372 -0.7707
vn 0.0059 -0.8382 -0.5454
vn 0.2086 -0.7302 -0.6507
vn 0.3539 -0.7567 -0.5497
vn 0.4762 -0.7658 -0.4321
vn 0.5786 -0.7593 -0.2977
vn 0.6616 -0.7360 -0.1433
vn 0.7707 -0.6372 -0.0022
vn 0.9336 0.2495 0.2571
vn 0.9807 0.1955 0.0071
vn 0.8273 0.2828 0.4853
vn 0.6713 0.2936 0.6806
vn 0.4740 0.2818 0.8342
vn 0.2443 0.2473 0.9376
vn 0.0075 0.1940 0.9810
vn -0.0071 0.1955 0.9807
vn -0.2571 0.2495 0.9336
vn -0.4853 0.2828 0.8273
vn -0.6806 0.2936 0.6713
vn -0.8342 0.2818 0.4740
vn -0.9376 0.2473 0.2443
vn -0.9810 0.1940 0.0075
vn -0.9807 0.1955 -0.0071
vn -0.9336 0.2495 -0.2571
vn -0.8273 0.2828 -0.4853
vn -0.6713 0.2936 -0.6806
vn -0.4740 0.2818 -0.8342
vn -0.2443 0.2473 -0.9376
vn -0.0075 0.1940 -0.9810
vn 0.0071 0.1955 -0.9807
vn 0.2571 0.2495 -0.9336
vn 0.4853 0.2828 -0.8273
vn 0.6806 0.2936 -0.6713
vn 0.8342 0.2818 -0.4740
vn 0.9376 0.2473 -0.2443
vn 0.9810 0.1940 -0.0075
vn 0.9174 0.3339 0.2164
vn 0.9708 0.2397 0.0057
vn 0.8183 0.3697 0.4401
vn 0.6726 0.3829 0.6332
vn 0.4878 0.3737 0.7889
vn 0.2705 0.3419 0.9000
vn 0.0155 0.3346 0.9422
vn -0.0056 0.2398 0.9708
vn -0.2164 0.3339 0.9174
vn -0.4401 0.3697 0.8183
vn -0.6332 0.3829 0.6726
vn -0.7889 0.3737 0.4878
vn -0.9000 0.3419 0.2705
vn -0.9422 0.3346 0.0155
vn -0.9708 0.2398 -0.0056
vn -0.9174 0.3339 -0.2164
vn -0.8183 0.3697 -0.4401
vn -0.6726 0.3829 -0.6332
vn -0.4878 0.3737 -0.7889
vn -0.2705 0.3419 -0.9000
vn -0.0155 0.3346 -0.9422
vn 0.0056 0.2398 -0.9708
vn 0.2164 0.3339 -0.9174
vn 0.4401 0.3697 -0.8183
vn 0.6332 0.3829 -0.6726
vn 0.7889 0.3737 -0.4878
vn 0.9000 0.3419 -0.2705
vn 0.9422 0.3346 -0.0155
vn 0.0685 0.9976 -0.0031
vn 0.2319 0.9727 -0.0012
vn 0.0622 0.9980 0.0137
vn 0.0553 0.9981 0.0287
vn 0.0473 0.9979 0.0432
vn 0.0375 0.9976 0.0587
vn 0.0027 0.9987 -0.0509
vn 0.0012 0.9727 0.2319
vn 0.0031 0.9976 0.0685
vn -0.0137 0.9980 0.0622
vn -0.0287 0.9981 0.0553
vn -0.0432 0.9979 0.0473
vn -0.0587 0.9976 0.0375
vn 0.0509 0.9987 0.0027
vn -0.2319 0.9727 0.0012
vn -0.0685 0.9976 0.0031
vn -0.0622 0.9980 -0.0137
vn -0.0553 0.9981 -0.0287
vn -0.0473 0.9979 -0.0432
vn -0.0375 0.9976 -0.0587
vn -0.0027 0.9987 0.0509
vn -0.0012 0.9727 -0.2319
vn -0.0031 0.9976 -0.0685
vn 0.0137 0.9980 -0.0622
vn 0.0287 0.9981 -0.0553
vn 0.0432 0.9979 -0.0473
vn 0.0587 0.9976 -0.0375
vn -0.0509 0.9987 -0.0027
vn -0.2401 0.9689 -0.0590
vn -0.2915 0.9566 -0.0026
vn -0.2006 0.9734 -0.1104
vn -0.1608 0.9749 -0.1543
vn -0.1178 0.9738 -0.1945
vn -0.0680 0.9698 -0.2341
vn -0.0045 0.9649 -0.2627
vn 0.0026 0.9566 -0.2915
vn 0.0590 0.9689 -0.2401
vn 0.1104 0.9734 -0.2007
vn 0.1543 0.9749 -0.1608
vn 0.1945 0.9738 -0.1178
vn 0.2341 0.9698 -0.0680
vn 0.2627 0.9649 -0.0045
vn 0.2915 0.9566 0.0026
vn 0.2401 0.9689 0.0590
vn 0.2006 0.9734 0.1104
vn 0.1608 0.9749 0.1543
vn 0.1178 0.9738 0.1945
vn 0.0680 0.9698 0.2341
vn 0.0045 0.9649 0.2627
vn -0.0026 0.9566 0.2915
vn -0.0590 0.9689 0.2401
vn -0.1104 0.9734 0.2007
vn -0.1543 0.9749 0.1608
vn -0.1945 0.9738 0.1178
vn -0.2341 0.9698 0.0680
vn -0.2627 0.9649 0.0045
vn -0.1449 0.9889 -0.0316
vn -0.1735 0.9848 -0.0011
vn -0.1228 0.9904 -0.0633
vn -0.0995 0.9909 -0.0905
vn -0.0738 0.9906 -0.1150
vn -0.0441 0.9894 -0.1380
vn -0.0036 0.9892 -0.1463
vn 0.0011 0.9848 -0.1735
vn 0.0316 0.9889 -0.1449
vn 0.0633 0.9904 -0.1228
vn 0.0905 0.9909 -0.0995
vn 0.1150 0.9906 -0.0738
vn 0.1381 0.9894 -0.0441
vn 0.1463 0.9892 -0.0036
vn 0.1735 0.9848 0.0011
vn 0.1449 0.9889 0.0316
vn 0.1228 0.9904 0.0633
vn 0.0995 0.9909 0.0905
vn 0.0738 0.9906 0.1150
vn 0.0441 0.9894 0.1380
vn 0.0036 0.9892 0.1463
vn -0.0011 0.9848 0.1735
vn -0.0316 0.9889 0.1449
vn -0.0633 0.9904 0.1228
vn -0.0905 0.9909 0.0995
vn -0.1150 0.9906 0.0738
vn -0.1381 0.9894 0.0441
vn -0.1463 0.9892 0.0036
vn -0.0000 1.0000 -0.0000
vn -0.1794 -0.9673 0.1794
vn -0.1726 -0.6965 0.6965
vn -0.5773 -0.5774 0.5773
vn -0.6965 -0.6965 0.1726
vn -0.1794 -0.1794 0.9673
vn -0.6965 -0.1726 0.6965
vn -0.9673 -0.1794 0.1794
vn -0.1794 0.1794 0.9673
vn -0.1726 0.6965 0.6965
vn -0.5774 0.5773 0.5774
vn -0.6965 0.1726 0.6965
vn -0.1794 0.9673 0.1794
vn -0.6965 0.6965 0.1726
vn -0.9673 0.1794 0.1794
vn -0.1794 -0.9673 -0.1794
vn -0.6965 -0.6965 -0.1726
vn -0.5773 -0.5774 -0.5773
vn -0.1726 -0.6965 -0.6965
vn -0.9673 -0.1794 -0.1794
vn -0.6965 -0.1726 -0.6965
vn -0.1794 -0.1794 -0.9673
vn -0.1794 0.9673 -0.1794
vn -0.1726 0.6965 -0.6965
vn -0.5774 0.5773 -0.5774
vn -0.6965 0.6965 -0.1726
vn -0.1794 0.1794 -0.9673
vn -0.6965 0.1726 -0.6965
vn -0.9673 0.1794 -0.1794
vn 0.1794 -0.9673 0.1794
vn 0.6965 -0.6965 0.1726
vn 0.5773 -0.5774 0.5773
vn 0.1726 -0.6965 0.6965
vn 0.9673 -0.1794 0.1794
vn 0.6965 -0.1726 0.6965
vn 0.1794 -0.1794 0.9673
vn 0.1794 0.9673 0.1794
vn 0.1726 0.6965 0.6965
vn 0.5774 0.5773 0.5774
vn 0.6965 0.6965 0.1726
vn 0.1794 0.1794 0.9673
vn 0.6965 0.1726 0.6965
vn 0.9673 0.1794 0.1794
vn 0.1794 -0.9673 -0.1794
vn 0.1726 -0.6965 -0.6965
vn 0.5773 -0.5774 -0.5773
vn 0.6965 -0.6965 -0.1726
vn 0.1794 -0.1794 -0.9673
vn 0.6965 -0.1726 -0.6965
vn 0.9673 -0.1794 -0.1794
vn 0.1794 0.9673 -0.1794
vn 0.6965 0.6965 -0.1726
vn 0.5774 0.5773 -0.5774
vn 0.1726 0.6965 -0.6965
vn 0.9673 0.1794 -0.1794
vn 0.6965 0.1726 -0.6965
vn 0.1794 0.1794 -0.9673
vn -0.0000 -0.3718 -0.9283
vn -0.0000 -0.0000 -1.0000
vn 0.5000 -0.0000 -0.8660
vn 0.4642 -0.3718 -0.8040
vn -0.0000 0.3718 -0.9283
vn -0.0000 0.6913 -0.7226
vn 0.3613 0.6913 -0.6258
vn 0.4642 0.3718 -0.8040
vn -0.0000 0.9122 -0.4097
vn 0.2049 0.9122 -0.3548
vn -0.0000 -0.9122 -0.4097
vn 0.2049 -0.9122 -0.3548
vn -0.0000 -0.6913 -0.7226
vn 0.3613 -0.6913 -0.6258
vn 0.3548 -0.9122 -0.2049
vn 0.8040 -0.3718 -0.4642
vn 0.6258 -0.6913 -0.3613
vn 0.8040 0.3718 -0.4642
vn 0.8660 -0.0000 -0.5000
vn 0.3548 0.9122 -0.2049
vn 0.6258 0.6913 -0.3613
vn 0.4097 0.9122 -0.0000
vn 0.7226 0.6913 -0.0000
vn 0.7226 -0.6913 -0.0000
vn 0.4097 -0.9122 -0.0000
vn 1.0000 -0.0000 -0.0000
vn 0.9283 -0.3718 -0.0000
vn 0.9283 0.3718 -0.0000
vn 0.6258 -0.6913 0.3613
vn 0.3548 -0.9122 0.2049
vn 0.8660 -0.0000 0.5000
vn 0.8040 -0.3718 0.4642
vn 0.6258 0.6913 0.3613
vn 0.8040 0.3718 0.4642
vn 0.3548 0.9122 0.2049
vn 0.2049 0.9122 0.3548
vn 0.2049 -0.9122 0.3548
vn 0.4642 -0.3718 0.8040
vn 0.3613 -0.6913 0.6258
vn 0.4642 0.3718 0.8040
vn 0.5000 -0.0000 0.8660
vn 0.3613 0.6913 0.6258
vn -0.0000 -0.3718 0.9283
vn -0.0000 -0.6913 0.7226
vn -0.0000 0.3718 0.9283
vn -0.0000 -0.0000 1.0000
vn -0.0000 0.9122 0.4097
vn -0.0000 0.6913 0.7226
vn -0.0000 -0.9122 0.4097
vn -0.3613 -0.6913 0.6258
vn -0.2049 -0.9122 0.3548
vn -0.5000 -0.0000 0.8660
vn -0.4642 -0.3718 0.8040
vn -0.3613 0.6913 0.6258
vn -0.4642 0.3718 0.8040
vn -0.2048 0.9122 0.3548
vn -0.8660 -0.0000 0.5000
vn -0.8040 -0.3718 0.4642
vn -0.6258 0.6913 0.3613
vn -0.8040 0.3718 0.4642
vn -0.3548 0.9122 0.2049
vn -0.3548 -0.9122 0.2049
vn -0.6258 -0.6913 0.3613
vn -0.4097 -0.9122 -0.0000
vn -0.9283 -0.3718 -0.0000
vn -0.7226 -0.6913 -0.0000
vn -0.9283 0.3718 -0.0000
vn -1.0000 -0.0000 -0.0000
vn -0.4097 0.9122 -0.0000
vn -0.7226 0.6913 -0.0000
vn -0.8040 0.3718 -0.4642
vn -0.8660 -0.0000 -0.5000
vn -0.3548 0.9122 -0.2049
vn -0.6258 0.6913 -0.3613
vn -0.6258 -0.6913 -0.3613
vn -0.3548 -0.9122 -0.2049
vn -0.8040 -0.3718 -0.4642
vn -0.3613 -0.6913 -0.6258
vn -0.2049 -0.9122 -0.3548
vn -0.5000 -0.0000 -0.8660
vn -0.4642 -0.3718 -0.8040
vn -0.3613 0.6913 -0.6258
vn -0.4642 0.3718 -0.8040
vn -0.2049 0.9122 -0.3548
vn -0.2049 0.9122 0.3548
s 1
f 2//1 3//2 1//3
f 3//2 4//4 1//3
f 4//4 5//5 1//3
f 5//5 6//6 1//3
f 6//6 7//7 1//3
f 7//7 8//8 1//3
f 8//8 9//9 1//3
f 9//9 10//10 1//3
f 10//10 11//11 1//3
f 11//11 12//12 1//3
f 12//12 13//13 1//3
f 13//13 14//14 1//3
f 14//14 15//15 1//3
f 15//15 16//16 1//3
f 16//16 17//17 1//3
f 17//17 18//18 1//3
f 18//18 19//19 1//3
f 19//19 20//20 1//3
f 20//20 21//21 1//3
f 21//21 22//22 1//3
f 22//22 23//23 1//3
f 23//23 24//24 1//3
f 24//24 25//25 1//3
f 25//25 26//26 1//3
f 26//26 27//27 1//3
f 27//27 28//28 1//3
f 28//28 29//29 1//3
f 29//29 2//1 1//3
f 31//30 3//2 2//1
f 30//31 31//30 2//1
f 32//32 4//4 3//2
f 31//30 32//32 3//2
f 33//33 5//5 4//4
f 32//32 33//33 4//4
f 34//34 6//6 5//5
f 33//33 34//34 5//5
f 35//35 7//7 6//6
f 34//34 35//35 6//6
f 36//36 8//8 7//7
f 35//35 36//36 7//7
f 37//37 9//9 8//8
f 36//36 37//37 8//8
f 38//38 10//10 9//9
f 37//37 38//38 9//9
f 39//39 11//11 10//10
f 38//38 39//39 10//10
f 40//40 12//12 11//11
f 39//39 40//40 11//11
f 41//41 13//13 12//12
f 40//40 41//41 12//12
f 42//42 14//14 13//13
f 41//41 42//42 13//13
f 43//43 15//15 14//14
f 42//42 43//43 14//14
f 44//44 16//16 15//15
f 43//43 44//44 15//15
f 45//45 17//17 16//16
f 44//44 45//45 16//16
f 46//46 18//18 17//17
f 45//45 46//46 17//17
f 47//47 19//19 18//18
f 46//46 47//47 18//18
f 48//48 20//20 19//19
f 47//47 48//48 19//19
f 49//49 21//21 20//20
f 48//48 49//49 20//20
f 50//50 22//22 21//21
f 49//49 50//50 21//21
f 51//51 23//23 22//22
f 50//50 51//51 22//22
f 52//52 24//24 23//23
f 51//51 52//52 23//23
f 53//53 25//25 24//24
f 52//52 53//53 24//24
f 54//54 26//26 25//25
f 53//53 54//54 25//25
f 55//55 27//27 26//26
f 54//54 55//55 26//26
f 56//56 28//28 27//27
f 55//55 56//56 27//27
f 57//57 29//29 28//28
f 56//56 57//57 28//28
f 30//31 2//1 29//29
f 57//57 30//31 29//29
f 59//58 31//30 30//31
f 58//59 59//58 30//31
f 60//60 32//32 31//30
f 59//58 60//60 31//30
f 61//61 33//33 32//32
f 60//60 61//61 32//32
f 62//62 34//34 33//33
f 61//61 62//62 33//33
f 63//63 35//35 34//34
f 62//62 63//63 34//34
f 64//64 36//36 35//35
f 63//63 64//64 35//35
f 65//65 37//37 36//36
f 64//64 65//65 36//36
f 66//66 38//38 37//37
f 65//65 66//66 37//37
f 67//67 39//39 38//38
f 66//66 67//67 38//38
f 68//68 40//40 39//39
f 67//67 68//68 39//39
f 69//69 41//41 40//40
f 68//68 69//69 40//40
f 70//70 42//42 41//41
f 69//69 70//70 41//41
f 71//71 43//43 42//42
f 70//70 71//71 42//42
f 72//72 44//44 43//43
f 71//71 72//72 43//43
f 73//73 45//45 44//44
f 72//72 73//73 44//44
f 74//74 46//46 45//45
f 73//73 74//74 45//45
f 75//75 47//47 46//46
f 74//74 75//75 46//46
f 76//76 48//48 47//47
f 75//75 76//76 47//47
f 77//77 49//49 48//48
f 76//76 77//77 48//48
f 78//78 50//50 49//49
f 77//77 78//78 49//49
f 79//79 51//51 50//50
f 78//78 79//79 50//50
f 80//80 52//52 51//51
f 79//79 80//80 51//51
f 81//81 53//53 52//52
f 80//80 81//81 52//52
f 82//82 54//54 53//53
f 81//81 82//82 53//53
f 83//83 55//55 54//54
f 82//82 83//83 54//54
f 84//84 56//56 55//55
f 83//83 84//84 55//55
f 85//85 57//57 56//56
f 84//84 85//85 56//56
f 58//59 30//31 57//57
f 85//85 58//59 57//57
f 87//86 59//58 58//59
f 86//87 87//86 58//59
f 88//88 60//60 59//58
f 87//86 88//88 59//58
f 89//89 61//61 60//60
f 88//88 89//89 60//60
f 90//90 62//62 61//61
f 89//89 90//90 61//61
f 91//91 63//63 62//62
f 90//90 91//91 62//62
f 92//92 64//64 63//63
f 91//91 92//92 63//63
f 93//93 65//65 64//64
f 92//92 93//93 64//64
f 94//94 66//66 65//65
f 93//93 94//94 65//65
f 95//95 67//67 66//66
f 94//94 95//95 66//66
f 96//96 68//68 67//67
f 95//95 96//96 67//67
f 97//97 69//69 68//68
f 96//96 97//97 68//68
f 98//98 70//70 69//69
f 97//97 98//98 69//69
f 99//99 71//71 70//70
f 98//98 99//99 70//70
f 100//100 72//72 71//71
f 99//99 100//100 71//71
f 101//101 73//73 72//72
f 100//100 101//101 72//72
f 102//102 74//74 73//73
f 101//101 102//102 73//73
f 103//103 75//75 74//74
f 102//102 103//103 74//74
f 104//104 76//76 75//75
f 103//103 104//104 75//75
f 105//105 77//77 76//76
f 104//104 105//105 76//76
f 106//106 78//78 77//77
f 105//105 106//106 77//77
f 107//107 79//79 78//78
f 106//106 107//107 78//78
f 108//108 80//80 79//79
f 107//107 108//108 79//79
f 109//109 81//81 80//80
f 108//108 109//109 80//80
f 110//110 82//82 81//81
f 109//109 110//110 81//81
f 111//111 83//83 82//82
f 110//110 111//111 82//82
f 112//112 84//84 83//83
f 111//111 112//112 83//83
f 113//113 85//85 84//84
f 112//112 113//113 84//84
f 86//87 58//59 85//85
f 113//113 86//87 85//85
f 115//114 87//86 86//87
f 114//115 115//114 86//87
f 116//116 88//88 87//86
f 115//114 116//116 87//86
f 117//117 89//89 88//88
f 116//116 117//117 88//88
f 118//118 90//90 89//89
f 117//117 118//118 89//89
f 119//119 91//91 90//90
f 118//118 119//119 90//90
f 120//120 92//92 91//91
f 119//119 120//120 91//91
f 121//121 93//93 92//92
f 120//120 121//121 92//92
f 122//122 94//94 93//93
f 121//121 122//122 93//93
f 123//123 95//95 94//94
f 122//122 123//123 94//94
f 124//124 96//96 95//95
f 123//123 124//124 95//95
f 125//125 97//97 96//96
f 124//124 125//125 96//96
f 126//126 98//98 97//97
f 125//125 126//126 97//97
f 127//127 99//99 98//98
f 126//126 127//127 98//98
f 128//128 100//100 99//99
f 127//127 128//128 99//99
f 129//129 101//101 100//100
f 128//128 129//129 100//100
f 130//130 102//102 101//101
f 129//129 130//130 101//101
f 131//131 103//103 102//102
f 130//130 131//131 102//102
f 132//132 104//104 103//103
f 131//131 132//132 103//103
f 133//133 105//105 104//104
f 132//132 133//133 104//104
f 134//134 106//106 105//105
f 133//133 134//134 105//105
f 135//135 107//107 106//106
f 134//134 135//135 106//106
f 136//136 108//108 107//107
f 135//135 136//136 107//107
f 137//137 109//109 108//108
f 136//136 137//137 108//108
f 138//138 110//110 109//109
f 137//137 138//138 109//109
f 139//139 111//111 110//110
f 138//138 139//139 110//110
f 140//140 112//112 111//111
f 139//139 140//140 111//111
f 141//141 113//113 112//112
f 140//140 141//141 112//112
f 114//115 86//87 113//113
f 141//141 114//115 113//113
f 143//142 115//114 114//115
f 142//143 143//142 114//115
f 144//144 116//116 115//114
f 143//142 144//144 115//114
f 145//145 117//117 116//116
f 144//144 145//145 116//116
f 146//146 118//118 117//117
f 145//145 146//146 117//117
f 147//147 119//119 118//118
f 146//146 147//147 118//118
f 148//148 120//120 119//119
f 147//147 148//148 119//119
f 149//149 121//121 120//120
f 148//148 149//149 120//120
f 150//150 122//122 121//121
f 149//149 150//150 121//121
f 151//151 123//123 122//122
f 150//150 151//151 122//122
f 152//152 124//124 123//123
f 151//151 152//152 123//123
f 153//153 125//125 124//124
f 152//152 153//153 124//124
f 154//154 126//126 125//125
f 153//153 154//154 125//125
f 155//155 127//127 126//126
f 154//154 155//155 126//126
f 156//156 128//128 127//127
f 155//155 156//156 127//127
f 157//157 129//129 128//128
f 156//156 157//157 128//128
f 158//158 130//130 129//129
f 157//157 158//158 129//129
f 159//159 131//131 130//130
f 158//158 159//159 130//130
f 160//160 132//132 131//131
f 159//159 160//160 131//131
f 161//161 133//133 132//132
f 160//160 161//161 132//132
f 162//162 134//134 133//133
f 161//161 162//162 133//133
f 163//163 135//135 134//134
f 162//162 163//163 134//134
f 164//164 136//136 135//135
f 163//163 164//164 135//135
f 165//165 137//137 136//136
f 164//164 165//165 136//136
f 166//166 138//138 137//137
f 165//165 166//166 137//137
f 167//167 139//139 138//138
f 166//166 167//167 138//138
f 168//168 140//140 139//139
f 167//167 168//168 139//139
f 169//169 141//141 140//140
f 168//168 169//169 140//140
f 142//143 114//115 141//141
f 169//169 142//143 141//141
f 170//170 143//142 142//143
f 170//170 144//144 143//142
f 170//170 145//145 144//144
f 170//170 146//146 145//145
f 170//170 147//147 146//146
f 170//170 148//148 147//147
f 170//170 149//149 148//148
f 170//170 150//150 149//149
f 170//170 151//151 150//150
f 170//170 152//152 151//151
f 170//170 153//153 152//152
f 170//170 154//154 153//153
f 170//170 155//155 154//154
f 170//170 156//156 155//155
f 170//170 157//157 156//156
f 170//170 158//158 157//157
f 170//170 159//159 158//158
f 170//170 160//160 159//159
f 170//170 161//161 160//160
f 170//170 162//162 161//161
f 170//170 163//163 162//162
f 170//170 164//164 163//163
f 170//170 165//165 164//164
f 170//170 166//166 165//165
f 170//170 167//167 166//166
f 170//170 168//168 167//167
f 170//170 169//169 168//168
f 170//170 142//143 169//169
f 171//171 174//172 175//173 177//174
f 172//175 176//176 175//173 174//172
f 173//177 177//174 175//173 176//176
f 178//178 181//179 182//180 184//181
f 179//182 183//183 182//180 181//179
f 180//184 184//181 182//180 183//183
f 185//185 188//186 189//187 191//188
f 186//189 190//190 189//187 188//186
f 187//191 191//188 189//187 190//190
f 192//192 195//193 196//194 198//195
f 193//196 197//197 196//194 195//193
f 194//198 198//195 196//194 197//197
f 199//199 202//200 203//201 205//202
f 200//203 204//204 203//201 202//200
f 201//205 205//202 203//201 204//204
f 206//206 209//207 210//208 212//209
f 207//210 211//211 210//208 209//207
f 208//212 212//209 210//208 211//211
f 213//213 216//214 217//215 219//216
f 214//217 218//218 217//215 216//214
f 215//219 219//216 217//215 218//218
f 220//220 223//221 224//222 226//223
f 221//224 225//225 224//222 223//221
f 222//226 226//223 224//222 225//225
f 185//185 171//171 177//174 188//186
f 188//186 177//174 173//177 186//189
f 172//175 178//178 184//181 176//176
f 176//176 184//181 180//184 173//177
f 179//182 192//192 198//195 183//183
f 183//183 198//195 194//198 180//184
f 193//196 187//191 190//190 197//197
f 197//197 190//190 186//189 194//198
f 213//213 185//185 191//188 216//214
f 216//214 191//188 187//191 214//217
f 192//192 220//220 226//223 195//193
f 195//193 226//223 222//226 193//196
f 221//224 215//219 218//218 225//225
f 225//225 218//218 214//217 222//226
f 199//199 213//213 219//216 202//200
f 202//200 219//216 215//219 200//203
f 220//220 206//206 212//209 223//221
f 223//221 212//209 208//212 221//224
f 207//210 201//205 204//204 211//211
f 211//211 204//204 200//203 208//212
f 171//171 199//199 205//202 174//172
f 174//172 205//202 201//205 172//175
f 206//206 179//182 181//179 209//207
f 209//207 181//179 178//178 207//210
f 185//185 213//213 199//199 171//171
f 173//177 180//184 194//198 186//189
f 201//205 207//210 178//178 172//175
f 220//220 192//192 179//182 206//206
f 187//191 193//196 222//226 214//217
f 215//219 221//224 208//212 200//203
f 230//227 229//228 236//229 237//230
f 311//231 228//232 234//233 235//234
f 310//235 227//170 233//236
f 232//3 312//237 239//238
f 231//239 230//227 237//230 238//240
f 229//228 311//231 235//234 236//229
f 228//232 310//235 233//236 234//233
f 312//237 231//239 238//240 239//238
f 232//3 239//238 246//241
f 238//240 237//230 244//242 245//243
f 236//229 235//234 242//244 243//245
f 234//233 233//236 240//246 241//247
f 239//238 238//240 245//243 246//241
f 237//230 236//229 243//245 244//242
f 235//234 234//233 241//247 242//244
f 233//236 227//170 240//246
f 241//247 240//246 247//248 248//249
f 246//241 245//243 252//250 253//251
f 244//242 243//245 250//252 251//253
f 242//244 241//247 248//249 249//254
f 240//246 227//170 247//248
f 232//3 246//241 253//251
f 245//243 244//242 251//253 252//250
f 243//245 242//244 249//254 250//252
f 253//251 252//250 259//255 260//256
f 251//253 250//252 257//257 258//258
f 249//254 248//249 255//259 256//260
f 247//248 227//170 254//261
f 232//3 253//251 260//256
f 252//250 251//253 258//258 259//255
f 250//252 249//254 256//260 257//257
f 248//249 247//248 254//261 255//259
f 254//261 227//170 261//262
f 232//3 260//256 267//263
f 259//255 258//258 265//264 266//265
f 257//257 256//260 263//266 264//267
f 255//259 254//261 261//262 262//268
f 260//256 259//255 266//265 267//263
f 258//258 257//257 264//267 265//264
f 256//260 255//259 262//268 263//266
f 266//265 265//264 272//269 273//270
f 264//267 263//266 270//271 271//272
f 262//268 261//262 268//273 269//274
f 267//263 266//265 273//270 274//275
f 265//264 264//267 271//272 272//269
f 263//266 262//268 269//274 270//271
f 261//262 227//170 268//273
f 232//3 267//263 274//275
f 274//275 273//270 280//276 281//277
f 272//269 271//272 278//278 279//279
f 270//271 269//274 276//280 277//281
f 268//273 227//170 275//282
f 232//3 274//275 281//277
f 273//270 272//269 279//279 280//276
f 271//272 270//271 277//281 278//278
f 269//274 268//273 275//282 276//280
f 279//279 278//278 285//283 286//284
f 277//281 276//280 283//285 284//286
f 275//282 227//170 282//287
f 232//3 281//277 288//288
f 280//276 279//279 286//284 287//289
f 278//278 277//281 284//286 285//283
f 276//280 275//282 282//287 283//285
f 281//277 280//276 287//289 288//288
f 232//3 288//288 295//290
f 287//289 286//284 293//291 294//292
f 285//283 284//286 291//293 292//294
f 283//285 282//287 289//295 290//296
f 288//288 287//289 294//292 295//290
f 286//284 285//283 292//294 293//291
f 284//286 283//285 290//296 291//293
f 282//287 227//170 289//295
f 292//294 291//293 298//297 299//298
f 290//296 289//295 296//299 297//300
f 295//290 294//292 301//301 302//302
f 293//291 292//294 299//298 300//303
f 291//293 290//296 297//300 298//297
f 289//295 227//170 296//299
f 232//3 295//290 302//302
f 294//292 293//291 300//303 301//301
f 302//302 301//301 308//304 309//305
f 300//303 299//298 306//306 307//307
f 298//297 297//300 304//308 305//309
f 296//299 227//170 303//310
f 232//3 302//302 309//305
f 301//301 300//303 307//307 308//304
f 299//298 298//297 305//309 306//306
f 297//300 296//299 303//310 304//308
f 305//309 304//308 228//232 311//231
f 303//310 227//170 310//235
f 232//3 309//305 312//237
f 308//304 307//307 230//227 231//239
f 306//306 305//309 311//231 229//228
f 304//308 303//310 310//235 228//232
f 309//305 308//304 231//239 312//237
f 307//307 306//306 229//228 230//227
f 315//228 397//231 321//234 322//229
f 314//232 396//235 319//236 320//233
f 398//237 317//239 324//240 325//238
f 316//227 315//228 322//229 323//230
f 397//231 314//232 320//233 321//234
f 396//235 313//170 319//236
f 318//3 398//237 325//238
f 317//239 316//227 323//230 324//240
f 325//238 324//240 331//243 332//241
f 323//230 322//229 329//245 330//242
f 321//234 320//233 327//247 328//244
f 319//236 313//170 326//246
f 318//3 325//238 332//241
f 324//240 323//230 330//242 331//243
f 322//229 321//234 328//244 329//245
f 320//233 319//236 326//246 327//247
f 326//246 313//170 333//248
f 318//3 332//241 339//251
f 331//243 330//242 337//253 338//250
f 329//245 328//244 335//254 336//252
f 327//247 326//246 333//248 334//249
f 332//241 331//243 338//250 339//251
f 330//242 329//245 336//252 337//253
f 328//244 327//247 334//249 335//254
f 338//250 337//253 344//258 345//255
f 336//252 335//254 342//260 343//257
f 334//249 333//248 340//261 341//259
f 339//251 338//250 345//255 346//256
f 337//253 336//252 343//257 344//258
f 335//254 334//249 341//259 342//260
f 333//248 313//170 340//261
f 318//3 339//251 346//256
f 346//256 345//255 352//265 353//263
f 344//258 343//257 350//267 351//264
f 342//260 341//259 348//268 349//266
f 340//261 313//170 347//262
f 318//3 346//256 353//263
f 345//255 344//258 351//264 352//265
f 343//257 342//260 349//266 350//267
f 341//259 340//261 347//262 348//268
f 351//264 350//267 357//272 358//269
f 349//266 348//268 355//274 356//271
f 347//262 313//170 354//273
f 318//3 353//263 360//275
f 352//265 351//264 358//269 359//270
f 350//267 349//266 356//271 357//272
f 348//268 347//262 354//273 355//274
f 353//263 352//265 359//270 360//275
f 318//3 360//275 367//277
f 359//270 358//269 365//279 366//276
f 357//272 356//271 363//281 364//278
f 355//274 354//273 361//282 362//280
f 360//275 359//270 366//276 367//277
f 358//269 357//272 364//278 365//279
f 356//271 355//274 362//280 363//281
f 354//273 313//170 361//282
f 364//278 363//281 370//286 371//283
f 362//280 361//282 368//287 369//285
f 367//277 366//276 373//289 374//288
f 365//279 364//278 371//283 372//284
f 363//281 362//280 369//285 370//286
f 361//282 313//170 368//287
f 318//3 367//277 374//288
f 366//276 365//279 372//284 373//289
f 374//288 373//289 380//292 381//290
f 372//284 371//283 378//294 379//291
f 370//286 369//285 376//296 377//293
f 368//287 313//170 375//295
f 318//3 374//288 381//290
f 373//289 372//284 379//291 380//292
f 371//283 370//286 377//293 378//294
f 369//285 368//287 375//295 376//296
f 377//293 376//296 383//300 384//297
f 375//295 313//170 382//299
f 318//3 381//290 388//302
f 380//292 379//291 386//303 387//301
f 378//294 377//293 384//297 385//298
f 376//296 375//295 382//299 383//300
f 381//290 380//292 387//301 388//302
f 379//291 378//294 385//298 386//303
f 318//3 388//302 395//305
f 387//301 386//303 393//307 394//304
f 385//298 384//297 391//309 392//306
f 383//300 382//299 389//310 390//308
f 388//302 387//301 394//304 395//305
f 386//303 385//298 392//306 393//307
f 384//297 383//300 390//308 391//309
f 382//299 313//170 389//310
f 390//308 389//310 396//235 314//232
f 395//305 394//304 317//239 398//237
f 393//307 392//306 315//228 316//227
f 391//309 390//308 314//232 397//231
f 389//310 313//170 396//235
f 318//3 395//305 398//237
f 394//304 393//307 316//227 317//239
f 392//306 391//309 397//231 315//228
f 483//231 400//232 406//233 407//234
f 482//235 399//170 405//236
f 404//3 484//237 411//238
f 403//239 402//227 409//230 410//240
f 401//228 483//231 407//234 408//229
f 400//232 482//235 405//236 406//233
f 484//237 403//239 410//240 411//238
f 402//227 401//228 408//229 409//230
f 410//240 409//230 416//242 417//243
f 408//229 407//234 414//244 415//245
f 406//233 405//236 412//246 413//247
f 411//238 410//240 417//243 418//241
f 409//230 408//229 415//245 416//242
f 407//234 406//233 413//247 414//244
f 405//236 399//170 412//246
f 404//3 411//238 418//241
f 418//241 417//243 424//250 425//251
f 416//242 415//245 422//252 423//253
f 414//244 413//247 420//249 421//254
f 412//246 399//170 419//248
f 404//3 418//241 425//251
f 417//243 416//242 423//253 424//250
f 415//245 414//244 421//254 422//252
f 413//247 412//246 419//248 420//249
f 423//253 422//252 429//257 430//258
f 421//254 420//249 427//259 428//260
f 419//248 399//170 426//261
f 404//3 425//251 432//256
f 424//250 423//253 430//258 431//255
f 422//252 421//254 428//260 429//257
f 420//249 419//248 426//261 427//259
f 425//251 424//250 431//255 432//256
f 404//3 432//256 439//263
f 431//255 430//258 437//264 438//265
f 429//257 428//260 435//266 436//267
f 427//259 426//261 433//262 434//268
f 432//256 431//255 438//265 439//263
f 430//258 429//257 436//267 437//264
f 428//260 427//259 434//268 435//266
f 426//261 399//170 433//262
f 436//267 435//266 442//271 443//272
f 434//268 433//262 440//273 441//274
f 439//263 438//265 445//270 446//275
f 437//264 436//267 443//272 444//269
f 435//266 434//268 441//274 442//271
f 433//262 399//170 440//273
f 404//3 439//263 446//275
f 438//265 437//264 444//269 445//270
f 446//275 445//270 452//276 453//277
f 444//269 443//272 450//278 451//279
f 442//271 441//274 448//280 449//281
f 440//273 399//170 447//311
f 404//3 446//275 453//277
f 445//270 444//269 451//279 452//276
f 443//272 442//271 449//281 450//278
f 441//274 440//273 447//311 448//280
f 449//281 448//280 455//285 456//286
f 447//311 399//170 454//287
f 404//3 453//277 460//288
f 452//276 451//279 458//284 459//289
f 450//278 449//281 456//286 457//283
f 448//280 447//311 454//287 455//285
f 453//277 452//276 459//289 460//288
f 451//279 450//278 457//283 458//284
f 404//3 460//288 467//290
f 459//289 458//284 465//291 466//292
f 457//283 456//286 463//293 464//294
f 455//285 454//287 461//295 462//296
f 460//288 459//289 466//292 467//290
f 458//284 457//283 464//294 465//291
f 456//286 455//285 462//296 463//293
f 454//287 399//170 461//295
f 462//296 461//295 468//299 469//300
f 467//290 466//292 473//301 474//302
f 465//291 464//294 471//298 472//303
f 463//293 462//296 469//300 470//297
f 461//295 399//170 468//299
f 404//3 467//290 474//302
f 466//292 465//291 472//303 473//301
f 464//294 463//293 470//297 471//298
f 474//302 473//301 480//304 481//305
f 472//303 471//298 478//306 479//307
f 470//297 469//300 476//308 477//309
f 468//299 399//170 475//310
f 404//3 474//302 481//305
f 473//301 472//303 479//307 480//304
f 471//298 470//297 477//309 478//306
f 469//300 468//299 475//310 476//308
f 475//310 399//170 482//235
f 404//3 481//305 484//237
f 480//304 479//307 402//227 403//239
f 478//306 477//309 483//231 401//228
f 476//308 475//310 482//235 400//232
f 481//305 480//304 403//239 484//237
f 479//307 478//306 401//228 402//227
f 477//309 476//308 400//232 483//231
f 486//232 568//235 491//236 492//233
f 570//237 489//239 496//240 497//238
f 488//227 487//228 494//229 495//230
f 569//231 486//232 492//233 493//234
f 568//235 485//170 491//236
f 490//3 570//237 497//238
f 489//239 488//227 495//230 496//240
f 487//228 569//231 493//234 494//229
f 495//230 494//229 501//245 502//242
f 493//234 492//233 499//247 500//244
f 491//236 485//170 498//246
f 490//3 497//238 504//241
f 496//240 495//230 502//242 503//243
f 494//229 493//234 500//244 501//245
f 492//233 491//236 498//246 499//247
f 497//238 496//240 503//243 504//241
f 490//3 504//241 511//251
f 503//243 502//242 509//253 510//250
f 501//245 500//244 507//254 508//252
f 499//247 498//246 505//248 506//249
f 504//241 503//243 510//250 511//251
f 502//242 501//245 508//252 509//253
f 500//244 499//247 506//249 507//254
f 498//246 485//170 505//248
f 508//252 507//254 514//260 515//257
f 506//249 505//248 512//261 513//259
f 511//251 510//250 517//255 518//256
f 509//253 508//252 515//257 516//258
f 507//254 506//249 513//259 514//260
f 505//248 485//170 512//261
f 490//3 511//251 518//256
f 510//250 509//253 516//258 517//255
f 518//256 517//255 524//265 525//263
f 516//258 515//257 522//267 523//264
f 514//260 513//259 520//268 521//266
f 512//261 485//170 519//262
f 490//3 518//256 525//263
f 517//255 516//258 523//264 524//265
f 515//257 514//260 521//266 522//267
f 513//259 512//261 519//262 520//268
f 521//266 520//268 527//274 528//271
f 519//262 485//170 526//273
f 490//3 525//263 532//275
f 524//265 523//264 530//269 531//270
f 522//267 521//266 528//271 529//272
f 520//268 519//262 526//273 527//274
f 525//263 524//265 531//270 532//275
f 523//264 522//267 529//272 530//269
f 490//3 532//275 539//277
f 531//270 530//269 537//279 538//276
f 529//272 528//271 535//281 536//278
f 527//274 526//273 533//311 534//280
f 532//275 531//270 538//276 539//277
f 530//269 529//272 536//278 537//279
f 528//271 527//274 534//280 535//281
f 526//273 485//170 533//311
f 534//280 533//311 540//287 541//285
f 539//277 538//276 545//289 546//288
f 537//279 536//278 543//283 544//284
f 535//281 534//280 541//285 542//286
f 533//311 485//170 540//287
f 490//3 539//277 546//288
f 538//276 537//279 544//284 545//289
f 536//278 535//281 542//286 543//283
f 546//288 545//289 552//292 553//290
f 544//284 543//283 550//294 551//291
f 542//286 541//285 548//296 549//293
f 540//287 485//170 547//295
f 490//3 546//288 553//290
f 545//289 544//284 551//291 552//292
f 543//283 542//286 549//293 550//294
f 541//285 540//287 547//295 548//296
f 547//295 485//170 554//299
f 490//3 553//290 560//302
f 552//292 551//291 558//303 559//301
f 550//294 549//293 556//297 557//298
f 548//296 547//295 554//299 555//300
f 553//290 552//292 559//301 560//302
f 551//291 550//294 557//298 558//303
f 549//293 548//296 555//300 556//297
f 559//301 558//303 565//307 566//304
f 557//298 556//297 563//309 564//306
f 555//300 554//299 561//310 562//308
f 560//302 559//301 566//304 567//305
f 558//303 557//298 564//306 565//307
f 556//297 555//300 562//308 563//309
f 554//299 485//170 561//310
f 490//3 560//302 567//305
f 567//305 566//304 489//239 570//237
f 565//307 564//306 487//228 488//227
f 563//309 562//308 486//232 569//231
f 561//310 485//170 568//235
f 490//3 567//305 570//237
f 566//304 565//307 488//227 489//239
f 564//306 563//309 569//231 487//228
f 562//308 561//310 568//235 486//232
