# Blender 5.2.2 LTS
# www.blender.org
o CoffeeCap
v 0.000000 0.000000 0.000000
v 1.100000 0.000000 0.836000
v 1.091002 0.000000 0.904332
v 1.064624 0.000000 0.968000
v 1.022670 0.000000 1.022670
v 0.968000 0.000000 1.064624
v 0.904332 0.000000 1.091002
v 0.836000 0.000000 1.100000
v -0.836000 0.000000 1.100000
v -0.904332 0.000000 1.091002
v -0.968000 0.000000 1.064624
v -1.022670 0.000000 1.022670
v -1.064624 0.000000 0.968000
v -1.091002 0.000000 0.904332
v -1.100000 0.000000 0.836000
v -1.100000 0.000000 -0.836000
v -1.091002 0.000000 -0.904332
v -1.064624 0.000000 -0.968000
v -1.022670 0.000000 -1.022670
v -0.968000 0.000000 -1.064624
v -0.904332 0.000000 -1.091002
v -0.836000 0.000000 -1.100000
v 0.836000 0.000000 -1.100000
v 0.904332 0.000000 -1.091002
v 0.968000 0.000000 -1.064624
v 1.022670 0.000000 -1.022670
v 1.064624 0.000000 -0.968000
v 1.091002 0.000000 -0.904332
v 1.100000 0.000000 -0.836000
v 0.979000 0.607200 0.671000
v 0.968506 0.607200 0.750706
v 0.937728 0.607200 0.825000
v 0.888778 0.607200 0.888778
v 0.825000 0.607200 0.937728
v 0.750706 0.607200 0.968506
v 0.671000 0.607200 0.979000
v -0.671000 0.607200 0.979000
v -0.750706 0.607200 0.968506
v -0.825000 0.607200 0.937728
v -0.888778 0.607200 0.888778
v -0.937728 0.607200 0.825000
v -0.968506 0.607200 0.750706
v -0.979000 0.607200 0.671000
v -0.979000 0.607200 -0.671000
v -0.968506 0.607200 -0.750706
v -0.937728 0.607200 -0.825000
v -0.888778 0.607200 -0.888778
v -0.825000 0.607200 -0.937728
v -0.750706 0.607200 -0.968506
v -0.671000 0.607200 -0.979000
v 0.671000 0.607200 -0.979000
v 0.750706 0.607200 -0.968506
v 0.825000 0.607200 -0.937728
v 0.888778 0.607200 -0.888778
v 0.937728 0.607200 -0.825000
v 0.968506 0.607200 -0.750706
v 0.979000 0.607200 -0.671000
v 0.858000 1.232000 0.506000
v 0.846010 1.232000 0.597102
v 0.810832 1.232000 0.682000
v 0.754908 1.232000 0.754908
v 0.682000 1.232000 0.810832
v 0.597102 1.232000 0.846010
v 0.506000 1.232000 0.858000
v -0.506000 1.232000 0.858000
v -0.597102 1.232000 0.846010
v -0.682000 1.232000 0.810832
v -0.754908 1.232000 0.754908
v -0.810832 1.232000 0.682000
v -0.846010 1.232000 0.597102
v -0.858000 1.232000 0.506000
v -0.858000 1.232000 -0.506000
v -0.846010 1.232000 -0.597102
v -0.810832 1.232000 -0.682000
v -0.754908 1.232000 -0.754908
v -0.682000 1.232000 -0.810832
v -0.597102 1.232000 -0.846010
v -0.506000 1.232000 -0.858000
v 0.506000 1.232000 -0.858000
v 0.597102 1.232000 -0.846010
v 0.682000 1.232000 -0.810832
v 0.754908 1.232000 -0.754908
v 0.810832 1.232000 -0.682000
v 0.846010 1.232000 -0.597102
v 0.858000 1.232000 -0.506000
v 0.770000 1.320000 0.462000
v 0.759506 1.320000 0.541706
v 0.728728 1.320000 0.616000
v 0.679778 1.320000 0.679778
v 0.616000 1.320000 0.728728
v 0.541706 1.320000 0.759506
v 0.462000 1.320000 0.770000
v -0.462000 1.320000 0.770000
v -0.541706 1.320000 0.759506
v -0.616000 1.320000 0.728728
v -0.679778 1.320000 0.679778
v -0.728728 1.320000 0.616000
v -0.759506 1.320000 0.541706
v -0.770000 1.320000 0.462000
v -0.770000 1.320000 -0.462000
v -0.759506 1.320000 -0.541706
v -0.728728 1.320000 -0.616000
v -0.679778 1.320000 -0.679778
v -0.616000 1.320000 -0.728728
v -0.541706 1.320000 -0.759506
v -0.462000 1.320000 -0.770000
v 0.462000 1.320000 -0.770000
v 0.541706 1.320000 -0.759506
v 0.616000 1.320000 -0.728728
v 0.679778 1.320000 -0.679778
v 0.728728 1.320000 -0.616000
v 0.759506 1.320000 -0.541706
v 0.770000 1.320000 -0.462000
v 0.554400 1.245838 0.300960
v 0.545754 1.245838 0.366564
v 0.520454 1.245838 0.427680
v 0.480172 1.245838 0.480172
v 0.427680 1.245838 0.520454
v 0.366564 1.245838 0.545754
v 0.300960 1.245838 0.554400
v -0.300960 1.245838 0.554400
v -0.366564 1.245838 0.545754
v -0.427680 1.245838 0.520454
v -0.480172 1.245838 0.480172
v -0.520454 1.245838 0.427680
v -0.545754 1.245838 0.366564
v -0.554400 1.245838 0.300960
v -0.554400 1.245838 -0.300960
v -0.545754 1.245838 -0.366564
v -0.520454 1.245838 -0.427680
v -0.480172 1.245838 -0.480172
v -0.427680 1.245838 -0.520454
v -0.366564 1.245838 -0.545754
v -0.300960 1.245838 -0.554400
v 0.300960 1.245838 -0.554400
v 0.366564 1.245838 -0.545754
v 0.427680 1.245838 -0.520454
v 0.480172 1.245838 -0.480172
v 0.520454 1.245838 -0.427680
v 0.545754 1.245838 -0.366564
v 0.554400 1.245838 -0.300960
v 0.323400 1.193170 0.175560
v 0.318362 1.193170 0.213818
v 0.303600 1.193170 0.249480
v 0.280104 1.193170 0.280104
v 0.249480 1.193170 0.303600
v 0.213818 1.193170 0.318362
v 0.175560 1.193170 0.323400
v -0.175560 1.193170 0.323400
v -0.213818 1.193170 0.318362
v -0.249480 1.193170 0.303600
v -0.280104 1.193170 0.280104
v -0.303600 1.193170 0.249480
v -0.318362 1.193170 0.213818
v -0.323400 1.193170 0.175560
v -0.323400 1.193170 -0.175560
v -0.318362 1.193170 -0.213818
v -0.303600 1.193170 -0.249480
v -0.280104 1.193170 -0.280104
v -0.249480 1.193170 -0.303600
v -0.213818 1.193170 -0.318362
v -0.175560 1.193170 -0.323400
v 0.175560 1.193170 -0.323400
v 0.213818 1.193170 -0.318362
v 0.249480 1.193170 -0.303600
v 0.280104 1.193170 -0.280104
v 0.303600 1.193170 -0.249480
v 0.318362 1.193170 -0.213818
v 0.323400 1.193170 -0.175560
v 0.000000 1.166000 -0.000000
v -0.310000 1.300000 0.150000
v -0.310000 1.340000 0.190000
v -0.350000 1.340000 0.150000
v -0.310000 1.311716 0.178284
v -0.333094 1.316906 0.173094
v -0.338284 1.340000 0.178284
v -0.338284 1.311716 0.150000
v -0.310000 1.360000 0.190000
v -0.310000 1.400000 0.150000
v -0.350000 1.360000 0.150000
v -0.310000 1.388284 0.178284
v -0.333094 1.383094 0.173094
v -0.338284 1.388284 0.150000
v -0.338284 1.360000 0.178284
v -0.310000 1.300000 -0.050000
v -0.350000 1.340000 -0.050000
v -0.310000 1.340000 -0.090000
v -0.338284 1.311716 -0.050000
v -0.333094 1.316906 -0.073094
v -0.338284 1.340000 -0.078284
v -0.310000 1.311716 -0.078284
v -0.310000 1.400000 -0.050000
v -0.310000 1.360000 -0.090000
v -0.350000 1.360000 -0.050000
v -0.310000 1.388284 -0.078284
v -0.333094 1.383094 -0.073094
v -0.338284 1.360000 -0.078284
v -0.338284 1.388284 -0.050000
v 0.310000 1.300000 0.150000
v 0.350000 1.340000 0.150000
v 0.310000 1.340000 0.190000
v 0.338284 1.311716 0.150000
v 0.333094 1.316906 0.173094
v 0.338284 1.340000 0.178284
v 0.310000 1.311716 0.178284
v 0.310000 1.400000 0.150000
v 0.310000 1.360000 0.190000
v 0.350000 1.360000 0.150000
v 0.310000 1.388284 0.178284
v 0.333094 1.383094 0.173094
v 0.338284 1.360000 0.178284
v 0.338284 1.388284 0.150000
v 0.310000 1.300000 -0.050000
v 0.310000 1.340000 -0.090000
v 0.350000 1.340000 -0.050000
v 0.310000 1.311716 -0.078284
v 0.333094 1.316906 -0.073094
v 0.338284 1.340000 -0.078284
v 0.338284 1.311716 -0.050000
v 0.310000 1.400000 -0.050000
v 0.350000 1.360000 -0.050000
v 0.310000 1.360000 -0.090000
v 0.338284 1.388284 -0.050000
v 0.333094 1.383094 -0.073094
v 0.338284 1.360000 -0.078284
v 0.310000 1.388284 -0.078284
v 0.000000 1.550000 -0.229228
v 0.000000 1.580000 -0.260000
v 0.000000 1.558787 -0.250987
v -0.000000 1.730000 -0.229228
v 0.000000 1.700000 -0.260000
v -0.000000 1.721213 -0.250987
v 0.099459 1.550000 -0.206528
v 0.112810 1.580000 -0.234252
v 0.108899 1.558787 -0.226132
v 0.099459 1.730000 -0.206528
v 0.112810 1.700000 -0.234252
v 0.108899 1.721213 -0.226132
v 0.179218 1.550000 -0.142922
v 0.203276 1.580000 -0.162107
v 0.196230 1.558787 -0.156488
v 0.179218 1.730000 -0.142922
v 0.203276 1.700000 -0.162107
v 0.196230 1.721213 -0.156488
v 0.223481 1.550000 -0.051008
v 0.253481 1.580000 -0.057855
v 0.244694 1.558787 -0.055850
v 0.223481 1.730000 -0.051008
v 0.253481 1.700000 -0.057855
v 0.244694 1.721213 -0.055850
v 0.223481 1.550000 0.051008
v 0.253481 1.580000 0.057855
v 0.244694 1.558787 0.055850
v 0.223481 1.730000 0.051008
v 0.253481 1.700000 0.057855
v 0.244694 1.721213 0.055850
v 0.179218 1.550000 0.142922
v 0.203276 1.580000 0.162107
v 0.196230 1.558787 0.156488
v 0.179218 1.730000 0.142922
v 0.203276 1.700000 0.162107
v 0.196230 1.721213 0.156488
v 0.099459 1.550000 0.206528
v 0.112810 1.580000 0.234252
v 0.108899 1.558787 0.226132
v 0.099459 1.730000 0.206528
v 0.112810 1.700000 0.234252
v 0.108899 1.721213 0.226132
v -0.000000 1.550000 0.229228
v 0.000000 1.580000 0.260000
v -0.000000 1.558787 0.250987
v 0.000000 1.730000 0.229228
v 0.000000 1.700000 0.260000
v 0.000000 1.721213 0.250987
v -0.099459 1.550000 0.206528
v -0.112810 1.580000 0.234252
v -0.108899 1.558787 0.226132
v -0.099459 1.730000 0.206528
v -0.112810 1.700000 0.234252
v -0.108899 1.721213 0.226132
v -0.179218 1.550000 0.142922
v -0.203276 1.580000 0.162107
v -0.196230 1.558787 0.156488
v -0.179218 1.730000 0.142922
v -0.203276 1.700000 0.162107
v -0.196230 1.721213 0.156488
v -0.223481 1.550000 0.051008
v -0.253481 1.580000 0.057855
v -0.244694 1.558787 0.055850
v -0.223481 1.730000 0.051008
v -0.253481 1.700000 0.057855
v -0.244694 1.721213 0.055850
v -0.223481 1.550000 -0.051008
v -0.253481 1.580000 -0.057855
v -0.244694 1.558787 -0.055850
v -0.223481 1.730000 -0.051008
v -0.253481 1.700000 -0.057855
v -0.244694 1.721213 -0.055850
v -0.179218 1.550000 -0.142922
v -0.203276 1.580000 -0.162107
v -0.196230 1.558787 -0.156488
v -0.179218 1.730000 -0.142922
v -0.203276 1.700000 -0.162107
v -0.196230 1.721213 -0.156488
v -0.099459 1.550000 -0.206528
v -0.112810 1.580000 -0.234252
v -0.108899 1.558787 -0.226132
v -0.099459 1.730000 -0.206528
v -0.112810 1.700000 -0.234252
v -0.108899 1.721213 -0.226132
v 0.000000 1.880000 0.000000
v 0.000000 1.600000 0.000000
v 0.031491 1.869343 -0.043344
v 0.058188 1.838995 -0.080089
v 0.076026 1.793576 -0.104641
v 0.082290 1.740000 -0.113262
v 0.076026 1.686424 -0.104641
v 0.058188 1.641005 -0.080089
v 0.031491 1.610657 -0.043344
v 0.050953 1.869343 -0.016556
v 0.094150 1.838995 -0.030591
v 0.123013 1.793576 -0.039969
v 0.133148 1.740000 -0.043262
v 0.123013 1.686424 -0.039969
v 0.094150 1.641005 -0.030591
v 0.050953 1.610657 -0.016556
v 0.050953 1.869343 0.016556
v 0.094150 1.838995 0.030591
v 0.123013 1.793576 0.039969
v 0.133148 1.740000 0.043262
v 0.123013 1.686424 0.039969
v 0.094150 1.641005 0.030591
v 0.050953 1.610657 0.016556
v 0.031491 1.869343 0.043344
v 0.058188 1.838995 0.080089
v 0.076026 1.793576 0.104641
v 0.082290 1.740000 0.113262
v 0.076026 1.686424 0.104641
v 0.058188 1.641005 0.080089
v 0.031491 1.610657 0.043344
v 0.000000 1.869343 0.053576
v 0.000000 1.838995 0.098995
v 0.000000 1.793576 0.129343
v 0.000000 1.740000 0.140000
v 0.000000 1.686424 0.129343
v 0.000000 1.641005 0.098995
v 0.000000 1.610657 0.053576
v -0.031491 1.869343 0.043344
v -0.058188 1.838995 0.080089
v -0.076026 1.793576 0.104641
v -0.082290 1.740000 0.113262
v -0.076026 1.686424 0.104641
v -0.058188 1.641005 0.080089
v -0.031491 1.610657 0.043344
v -0.050953 1.869343 0.016556
v -0.094150 1.838995 0.030591
v -0.123013 1.793576 0.039969
v -0.133148 1.740000 0.043262
v -0.123013 1.686424 0.039969
v -0.094150 1.641005 0.030591
v -0.050953 1.610657 0.016556
v -0.050954 1.869343 -0.016556
v -0.094150 1.838995 -0.030591
v -0.123013 1.793576 -0.039969
v -0.133148 1.740000 -0.043262
v -0.123013 1.686424 -0.039969
v -0.094150 1.641005 -0.030591
v -0.050954 1.610657 -0.016556
v -0.031491 1.869343 -0.043344
v -0.058188 1.838995 -0.080089
v -0.076026 1.793576 -0.104641
v -0.082290 1.740000 -0.113262
v -0.076026 1.686424 -0.104641
v -0.058188 1.641005 -0.080089
v -0.031491 1.610657 -0.043344
v -0.000000 1.869343 -0.053576
v -0.000000 1.838995 -0.098995
v -0.000000 1.793576 -0.129343
v -0.000000 1.740000 -0.140000
v -0.000000 1.686424 -0.129343
v -0.000000 1.641005 -0.098995
v -0.000000 1.610657 -0.053576
vn 0.5454 -0.8382 0.0059
vn 0.6507 -0.7302 0.2086
vn -0.0000 -1.0000 -0.0000
vn 0.5497 -0.7567 0.3539
vn 0.4321 -0.7658 0.4762
vn 0.2977 -0.7593 0.5786
vn 0.1433 -0.7360 0.6616
vn 0.0022 -0.6372 0.7707
vn -0.0059 -0.8382 0.5454
vn -0.2086 -0.7302 0.6507
vn -0.3539 -0.7567 0.5497
vn -0.4762 -0.7658 0.4321
vn -0.5786 -0.7593 0.2977
vn -0.6616 -0.7360 0.1433
vn -0.7707 -0.6372 0.0022
vn -0.5454 -0.8382 -0.0059
vn -0.6507 -0.7302 -0.2086
vn -0.5497 -0.7567 -0.3539
vn -0.4321 -0.7658 -0.4762
vn -0.2977 -0.7593 -0.5786
vn -0.1433 -0.7360 -0.6616
vn -0.0022 -0.6372 -0.7707
vn 0.0059 -0.8382 -0.5454
vn 0.2086 -0.7302 -0.6507
vn 0.3539 -0.7567 -0.5497
vn 0.4762 -0.7658 -0.4321
vn 0.5786 -0.7593 -0.2977
vn 0.6616 -0.7360 -0.1433
vn 0.7707 -0.6372 -0.0022
vn 0.9336 0.2495 0.2571
vn 0.9807 0.1955 0.0071
vn 0.8273 0.2828 0.4853
vn 0.6713 0.2936 0.6806
vn 0.4740 0.2818 0.8342
vn 0.2443 0.2473 0.9376
vn 0.0075 0.1940 0.9810
vn -0.0071 0.1955 0.9807
vn -0.2571 0.2495 0.9336
vn -0.4853 0.2828 0.8273
vn -0.6806 0.2936 0.6713
vn -0.8342 0.2818 0.4740
vn -0.9376 0.2473 0.2443
vn -0.9810 0.1940 0.0075
vn -0.9807 0.1955 -0.0071
vn -0.9336 0.2495 -0.2571
vn -0.8273 0.2828 -0.4853
vn -0.6713 0.2936 -0.6806
vn -0.4740 0.2818 -0.8342
vn -0.2443 0.2473 -0.9376
vn -0.0075 0.1940 -0.9810
vn 0.0071 0.1955 -0.9807
vn 0.2571 0.2495 -0.9336
vn 0.4853 0.2828 -0.8273
vn 0.6806 0.2936 -0.6713
vn 0.8342 0.2818 -0.4740
vn 0.9376 0.2473 -0.2443
vn 0.9810 0.1940 -0.0075
vn 0.9174 0.3339 0.2164
vn 0.9708 0.2397 0.0057
vn 0.8183 0.3697 0.4401
vn 0.6726 0.3829 0.6332
vn 0.4878 0.3737 0.7889
vn 0.2705 0.3419 0.9000
vn 0.0155 0.3346 0.9422
vn -0.0056 0.2398 0.9708
vn -0.2164 0.3339 0.9174
vn -0.4401 0.3697 0.8183
vn -0.6332 0.3829 0.6726
vn -0.7889 0.3737 0.4878
vn -0.9000 0.3419 0.2705
vn -0.9422 0.3346 0.0155
vn -0.9708 0.2398 -0.0056
vn -0.9174 0.3339 -0.2164
vn -0.8183 0.3697 -0.4401
vn -0.6726 0.3829 -0.6332
vn -0.4878 0.3737 -0.7889
vn -0.2705 0.3419 -0.9000
vn -0.0155 0.3346 -0.9422
vn 0.0056 0.2398 -0.9708
vn 0.2164 0.3339 -0.9174
vn 0.4401 0.3697 -0.8183
vn 0.6332 0.3829 -0.6726
vn 0.7889 0.3737 -0.4878
vn 0.9000 0.3419 -0.2705
vn 0.9422 0.3346 -0.0155
vn 0.0685 0.9976 -0.0031
vn 0.2319 0.9727 -0.0012
vn 0.0622 0.9980 0.0137
vn 0.0553 0.9981 0.0287
vn 0.0473 0.9979 0.0432
vn 0.0375 0.9976 0.0587
vn 0.0027 0.9987 -0.0509
vn 0.0012 0.9727 0.2319
vn 0.0031 0.9976 0.0685
vn -0.0137 0.9980 0.0622
vn -0.0287 0.9981 0.0553
vn -0.0432 0.9979 0.0473
vn -0.0587 0.9976 0.0375
vn 0.0509 0.9987 0.0027
vn -0.2319 0.9727 0.0012
vn -0.0685 0.9976 0.0031
vn -0.0622 0.9980 -0.0137
vn -0.0553 0.9981 -0.0287
vn -0.0473 0.9979 -0.0432
vn -0.0375 0.9976 -0.0587
vn -0.0027 0.9987 0.0509
vn -0.0012 0.9727 -0.2319
vn -0.0031 0.9976 -0.0685
vn 0.0137 0.9980 -0.0622
vn 0.0287 0.9981 -0.0553
vn 0.0432 0.9979 -0.0473
vn 0.0587 0.9976 -0.0375
vn -0.0509 0.9987 -0.0027
vn -0.2401 0.9689 -0.0590
vn -0.2915 0.9566 -0.0026
vn -0.2006 0.9734 -0.1104
vn -0.1608 0.9749 -0.1543
vn -0.1178 0.9738 -0.1945
vn -0.0680 0.9698 -0.2341
vn -0.0045 0.9649 -0.2627
vn 0.0026 0.9566 -0.2915
vn 0.0590 0.9689 -0.2401
vn 0.1104 0.9734 -0.2007
vn 0.1543 0.9749 -0.1608
vn 0.1945 0.9738 -0.1178
vn 0.2341 0.9698 -0.0680
vn 0.2627 0.9649 -0.0045
vn 0.2915 0.9566 0.0026
vn 0.2401 0.9689 0.0590
vn 0.2006 0.9734 0.1104
vn 0.1608 0.9749 0.1543
vn 0.1178 0.9738 0.1945
vn 0.0680 0.9698 0.2341
vn 0.0045 0.9649 0.2627
vn -0.0026 0.9566 0.2915
vn -0.0590 0.9689 0.2401
vn -0.1104 0.9734 0.2007
vn -0.1543 0.9749 0.1608
vn -0.1945 0.9738 0.1178
vn -0.2341 0.9698 0.0680
vn -0.2627 0.9649 0.0045
vn -0.1449 0.9889 -0.0316
vn -0.1735 0.9848 -0.0011
vn -0.1228 0.9904 -0.0633
vn -0.0995 0.9909 -0.0905
vn -0.0738 0.9906 -0.1150
vn -0.0441 0.9894 -0.1380
vn -0.0036 0.9892 -0.1463
vn 0.0011 0.9848 -0.1735
vn 0.0316 0.9889 -0.1449
vn 0.0633 0.9904 -0.1228
vn 0.0905 0.9909 -0.0995
vn 0.1150 0.9906 -0.0738
vn 0.1381 0.9894 -0.0441
vn 0.1463 0.9892 -0.0036
vn 0.1735 0.9848 0.0011
vn 0.1449 0.9889 0.0316
vn 0.1228 0.9904 0.0633
vn 0.0995 0.9909 0.0905
vn 0.0738 0.9906 0.1150
vn 0.0441 0.9894 0.1380
vn 0.0036 0.9892 0.1463
vn -0.0011 0.9848 0.1735
vn -0.0316 0.9889 0.1449
vn -0.0633 0.9904 0.1228
vn -0.0905 0.9909 0.0995
vn -0.1150 0.9906 0.0738
vn -0.1381 0.9894 0.0441
vn -0.1463 0.9892 0.0036
vn -0.0000 1.0000 -0.0000
vn -0.1794 -0.9673 0.1794
vn -0.1726 -0.6965 0.6965
vn -0.5773 -0.5774 0.5773
vn -0.6965 -0.6965 0.1726
vn -0.1794 -0.1794 0.9673
vn -0.6965 -0.1726 0.6965
vn -0.9673 -0.1794 0.1794
vn -0.1794 0.1794 0.9673
vn -0.1726 0.6965 0.6965
vn -0.5774 0.5773 0.5774
vn -0.6965 0.1726 0.6965
vn -0.1794 0.9673 0.1794
vn -0.6965 0.6965 0.1726
vn -0.9673 0.1794 0.1794
vn -0.1794 -0.9673 -0.1794
vn -0.6965 -0.6965 -0.1726
vn -0.5773 -0.5774 -0.5773
vn -0.1726 -0.6965 -0.6965
vn -0.9673 -0.1794 -0.1794
vn -0.6965 -0.1726 -0.6965
vn -0.1794 -0.1794 -0.9673
vn -0.1794 0.9673 -0.1794
vn -0.1726 0.6965 -0.6965
vn -0.5774 0.5773 -0.5774
vn -0.6965 0.6965 -0.1726
vn -0.1794 0.1794 -0.9673
vn -0.6965 0.1726 -0.6965
vn -0.9673 0.1794 -0.1794
vn 0.1794 -0.9673 0.1794
vn 0.6965 -0.6965 0.1726
vn 0.5773 -0.5774 0.5773
vn 0.1726 -0.6965 0.6965
vn 0.9673 -0.1794 0.1794
vn 0.6965 -0.1726 0.6965
vn 0.1794 -0.1794 0.9673
vn 0.1794 0.9673 0.1794
vn 0.1726 0.6965 0.6965
vn 0.5774 0.5773 0.5774
vn 0.6965 0.6965 0.1726
vn 0.1794 0.1794 0.9673
vn 0.6965 0.1726 0.6965
vn 0.9673 0.1794 0.1794
vn 0.1794 -0.9673 -0.1794
vn 0.1726 -0.6965 -0.6965
vn 0.5773 -0.5774 -0.5773
vn 0.6965 -0.6965 -0.1726
vn 0.1794 -0.1794 -0.9673
vn 0.6965 -0.1726 -0.6965
vn 0.9673 -0.1794 -0.1794
vn 0.1794 0.9673 -0.1794
vn 0.6965 0.6965 -0.1726
vn 0.5774 0.5773 -0.5774
vn 0.1726 0.6965 -0.6965
vn 0.9673 0.1794 -0.1794
vn 0.6965 0.1726 -0.6965
vn 0.1794 0.1794 -0.9673
vn -0.0000 -0.1942 -0.9810
vn 0.4256 -0.1942 -0.8838
vn 0.3152 -0.6872 -0.6545
vn -0.0000 -0.6872 -0.7265
vn 0.0940 -0.9762 -0.1952
vn -0.0000 -0.9762 -0.2167
vn 0.4256 0.1942 -0.8838
vn -0.0000 0.1942 -0.9810
vn -0.0000 0.6872 -0.7265
vn 0.3152 0.6872 -0.6545
vn -0.0000 0.9762 -0.2167
vn 0.0940 0.9762 -0.1952
vn 0.7669 -0.1942 -0.6116
vn 0.5680 -0.6872 -0.4529
vn 0.1694 -0.9762 -0.1351
vn 0.7669 0.1942 -0.6116
vn 0.5680 0.6872 -0.4529
vn 0.1694 0.9762 -0.1351
vn 0.9564 -0.1942 -0.2183
vn 0.7082 -0.6872 -0.1617
vn 0.2113 -0.9762 -0.0482
vn 0.9564 0.1942 -0.2183
vn 0.7082 0.6872 -0.1617
vn 0.2113 0.9762 -0.0482
vn 0.9564 -0.1942 0.2183
vn 0.7082 -0.6872 0.1617
vn 0.2113 -0.9762 0.0482
vn 0.9564 0.1942 0.2183
vn 0.7082 0.6872 0.1617
vn 0.2113 0.9762 0.0482
vn 0.7669 -0.1942 0.6116
vn 0.5680 -0.6872 0.4529
vn 0.1694 -0.9762 0.1351
vn 0.7669 0.1942 0.6116
vn 0.5680 0.6872 0.4529
vn 0.1694 0.9762 0.1351
vn 0.4256 -0.1942 0.8838
vn 0.3152 -0.6872 0.6545
vn 0.0940 -0.9762 0.1952
vn 0.4256 0.1942 0.8838
vn 0.3152 0.6872 0.6545
vn 0.0940 0.9762 0.1952
vn -0.0000 -0.1942 0.9810
vn -0.0000 -0.6872 0.7265
vn -0.0000 -0.9762 0.2167
vn -0.0000 0.1942 0.9810
vn -0.0000 0.6872 0.7265
vn -0.0000 0.9762 0.2167
vn -0.4256 -0.1942 0.8838
vn -0.3152 -0.6872 0.6545
vn -0.0940 -0.9762 0.1952
vn -0.4256 0.1942 0.8838
vn -0.3152 0.6872 0.6545
vn -0.0940 0.9762 0.1952
vn -0.7669 -0.1942 0.6116
vn -0.5680 -0.6872 0.4529
vn -0.1694 -0.9762 0.1351
vn -0.7669 0.1942 0.6116
vn -0.5680 0.6872 0.4529
vn -0.1694 0.9762 0.1351
vn -0.9564 -0.1942 0.2183
vn -0.7082 -0.6872 0.1617
vn -0.2113 -0.9762 0.0482
vn -0.9564 0.1942 0.2183
vn -0.7082 0.6872 0.1617
vn -0.2113 0.9762 0.0482
vn -0.9564 -0.1942 -0.2183
vn -0.7082 -0.6872 -0.1617
vn -0.2113 -0.9762 -0.0482
vn -0.9564 0.1942 -0.2183
vn -0.7082 0.6872 -0.1617
vn -0.2113 0.9762 -0.0482
vn -0.7669 -0.1942 -0.6116
vn -0.5680 -0.6872 -0.4529
vn -0.1694 -0.9762 -0.1351
vn -0.7669 0.1942 -0.6116
vn -0.5680 0.6872 -0.4529
vn -0.1694 0.9762 -0.1351
vn -0.4256 -0.1942 -0.8838
vn -0.3152 -0.6872 -0.6545
vn -0.0940 -0.9762 -0.1952
vn -0.4256 0.1942 -0.8838
vn -0.3152 0.6872 -0.6545
vn -0.0940 0.9762 -0.1952
vn -0.0000 -0.9099 -0.4149
vn 0.2439 -0.9099 -0.3357
vn -0.0000 -0.6883 -0.7254
vn -0.0000 -0.3697 -0.9291
vn 0.5461 -0.3697 -0.7517
vn 0.4264 -0.6883 -0.5869
vn -0.0000 -0.0000 -1.0000
vn -0.0000 0.3697 -0.9291
vn 0.5461 0.3697 -0.7517
vn 0.5878 -0.0000 -0.8090
vn -0.0000 0.6883 -0.7254
vn -0.0000 0.9099 -0.4149
vn 0.2439 0.9099 -0.3357
vn 0.4264 0.6883 -0.5869
vn 0.3946 0.9099 -0.1282
vn 0.6899 0.6883 -0.2242
vn 0.6899 -0.6883 -0.2242
vn 0.3946 -0.9099 -0.1282
vn 0.9511 -0.0000 -0.3090
vn 0.8837 -0.3697 -0.2871
vn 0.8837 0.3697 -0.2871
vn 0.6899 -0.6883 0.2242
vn 0.3946 -0.9099 0.1282
vn 0.9511 -0.0000 0.3090
vn 0.8837 -0.3697 0.2871
vn 0.6899 0.6883 0.2242
vn 0.8837 0.3697 0.2871
vn 0.3946 0.9099 0.1282
vn 0.2439 0.9099 0.3357
vn 0.2439 -0.9099 0.3357
vn 0.5461 -0.3697 0.7517
vn 0.4264 -0.6883 0.5869
vn 0.5461 0.3697 0.7517
vn 0.5878 -0.0000 0.8090
vn 0.4264 0.6883 0.5869
vn -0.0000 -0.3697 0.9291
vn -0.0000 -0.6883 0.7254
vn -0.0000 0.3697 0.9291
vn -0.0000 -0.0000 1.0000
vn -0.0000 0.9099 0.4149
vn -0.0000 0.6883 0.7254
vn -0.0000 -0.9099 0.4149
vn -0.4264 -0.6883 0.5869
vn -0.2439 -0.9099 0.3357
vn -0.5878 -0.0000 0.8090
vn -0.5461 -0.3697 0.7517
vn -0.4264 0.6883 0.5869
vn -0.5461 0.3697 0.7517
vn -0.2439 0.9099 0.3357
vn -0.9511 -0.0000 0.3090
vn -0.8837 -0.3697 0.2871
vn -0.6899 0.6883 0.2242
vn -0.8837 0.3697 0.2871
vn -0.3946 0.9099 0.1282
vn -0.3946 -0.9099 0.1282
vn -0.6899 -0.6883 0.2242
vn -0.3946 -0.9099 -0.1282
vn -0.8837 -0.3697 -0.2871
vn -0.6899 -0.6883 -0.2242
vn -0.8837 0.3697 -0.2871
vn -0.9511 -0.0000 -0.3090
vn -0.3946 0.9099 -0.1282
vn -0.6899 0.6883 -0.2242
vn -0.5461 0.3697 -0.7517
vn -0.5878 -0.0000 -0.8090
vn -0.2439 0.9099 -0.3357
vn -0.4264 0.6883 -0.5869
vn -0.4264 -0.6883 -0.5869
vn -0.2439 -0.9099 -0.3357
vn -0.5461 -0.3697 -0.7517
s 1
f 2//1 3//2 1//3
f 3//2 4//4 1//3
f 4//4 5//5 1//3
f 5//5 6//6 1//3
f 6//6 7//7 1//3
f 7//7 8//8 1//3
f 8//8 9//9 1//3
f 9//9 10//10 1//3
f 10//10 11//11 1//3
f 11//11 12//12 1//3
f 12//12 13//13 1//3
f 13//13 14//14 1//3
f 14//14 15//15 1//3
f 15//15 16//16 1//3
f 16//16 17//17 1//3
f 17//17 18//18 1//3
f 18//18 19//19 1//3
f 19//19 20//20 1//3
f 20//20 21//21 1//3
f 21//21 22//22 1//3
f 22//22 23//23 1//3
f 23//23 24//24 1//3
f 24//24 25//25 1//3
f 25//25 26//26 1//3
f 26//26 27//27 1//3
f 27//27 28//28 1//3
f 28//28 29//29 1//3
f 29//29 2//1 1//3
f 31//30 3//2 2//1
f 30//31 31//30 2//1
f 32//32 4//4 3//2
f 31//30 32//32 3//2
f 33//33 5//5 4//4
f 32//32 33//33 4//4
f 34//34 6//6 5//5
f 33//33 34//34 5//5
f 35//35 7//7 6//6
f 34//34 35//35 6//6
f 36//36 8//8 7//7
f 35//35 36//36 7//7
f 37//37 9//9 8//8
f 36//36 37//37 8//8
f 38//38 10//10 9//9
f 37//37 38//38 9//9
f 39//39 11//11 10//10
f 38//38 39//39 10//10
f 40//40 12//12 11//11
f 39//39 40//40 11//11
f 41//41 13//13 12//12
f 40//40 41//41 12//12
f 42//42 14//14 13//13
f 41//41 42//42 13//13
f 43//43 15//15 14//14
f 42//42 43//43 14//14
f 44//44 16//16 15//15
f 43//43 44//44 15//15
f 45//45 17//17 16//16
f 44//44 45//45 16//16
f 46//46 18//18 17//17
f 45//45 46//46 17//17
f 47//47 19//19 18//18
f 46//46 47//47 18//18
f 48//48 20//20 19//19
f 47//47 48//48 19//19
f 49//49 21//21 20//20
f 48//48 49//49 20//20
f 50//50 22//22 21//21
f 49//49 50//50 21//21
f 51//51 23//23 22//22
f 50//50 51//51 22//22
f 52//52 24//24 23//23
f 51//51 52//52 23//23
f 53//53 25//25 24//24
f 52//52 53//53 24//24
f 54//54 26//26 25//25
f 53//53 54//54 25//25
f 55//55 27//27 26//26
f 54//54 55//55 26//26
f 56//56 28//28 27//27
f 55//55 56//56 27//27
f 57//57 29//29 28//28
f 56//56 57//57 28//28
f 30//31 2//1 29//29
f 57//57 30//31 29//29
f 59//58 31//30 30//31
f 58//59 59//58 30//31
f 60//60 32//32 31//30
f 59//58 60//60 31//30
f 61//61 33//33 32//32
f 60//60 61//61 32//32
f 62//62 34//34 33//33
f 61//61 62//62 33//33
f 63//63 35//35 34//34
f 62//62 63//63 34//34
f 64//64 36//36 35//35
f 63//63 64//64 35//35
f 65//65 37//37 36//36
f 64//64 65//65 36//36
f 66//66 38//38 37//37
f 65//65 66//66 37//37
f 67//67 39//39 38//38
f 66//66 67//67 38//38
f 68//68 40//40 39//39
f 67//67 68//68 39//39
f 69//69 41//41 40//40
f 68//68 69//69 40//40
f 70//70 42//42 41//41
f 69//69 70//70 41//41
f 71//71 43//43 42//42
f 70//70 71//71 42//42
f 72//72 44//44 43//43
f 71//71 72//72 43//43
f 73//73 45//45 44//44
f 72//72 73//73 44//44
f 74//74 46//46 45//45
f 73//73 74//74 45//45
f 75//75 47//47 46//46
f 74//74 75//75 46//46
f 76//76 48//48 47//47
f 75//75 76//76 47//47
f 77//77 49//49 48//48
f 76//76 77//77 48//48
f 78//78 50//50 49//49
f 77//77 78//78 49//49
f 79//79 51//51 50//50
f 78//78 79//79 50//50
f 80//80 52//52 51//51
f 79//79 80//80 51//51
f 81//81 53//53 52//52
f 80//80 81//81 52//52
f 82//82 54//54 53//53
f 81//81 82//82 53//53
f 83//83 55//55 54//54
f 82//82 83//83 54//54
f 84//84 56//56 55//55
f 83//83 84//84 55//55
f 85//85 57//57 56//56
f 84//84 85//85 56//56
f 58//59 30//31 57//57
f 85//85 58//59 57//57
f 87//86 59//58 58//59
f 86//87 87//86 58//59
f 88//88 60//60 59//58
f 87//86 88//88 59//58
f 89//89 61//61 60//60
f 88//88 89//89 60//60
f 90//90 62//62 61//61
f 89//89 90//90 61//61
f 91//91 63//63 62//62
f 90//90 91//91 62//62
f 92//92 64//64 63//63
f 91//91 92//92 63//63
f 93//93 65//65 64//64
f 92//92 93//93 64//64
f 94//94 66//66 65//65
f 93//93 94//94 65//65
f 95//95 67//67 66//66
f 94//94 95//95 66//66
f 96//96 68//68 67//67
f 95//95 96//96 67//67
f 97//97 69//69 68//68
f 96//96 97//97 68//68
f 98//98 70//70 69//69
f 97//97 98//98 69//69
f 99//99 71//71 70//70
f 98//98 99//99 70//70
f 100//100 72//72 71//71
f 99//99 100//100 71//71
f 101//101 73//73 72//72
f 100//100 101//101 72//72
f 102//102 74//74 73//73
f 101//101 102//102 73//73
f 103//103 75//75 74//74
f 102//102 103//103 74//74
f 104//104 76//76 75//75
f 103//103 104//104 75//75
f 105//105 77//77 76//76
f 104//104 105//105 76//76
f 106//106 78//78 77//77
f 105//105 106//106 77//77
f 107//107 79//79 78//78
f 106//106 107//107 78//78
f 108//108 80//80 79//79
f 107//107 108//108 79//79
f 109//109 81//81 80//80
f 108//108 109//109 80//80
f 110//110 82//82 81//81
f 109//109 110//110 81//81
f 111//111 83//83 82//82
f 110//110 111//111 82//82
f 112//112 84//84 83//83
f 111//111 112//112 83//83
f 113//113 85//85 84//84
f 112//112 113//113 84//84
f 86//87 58//59 85//85
f 113//113 86//87 85//85
f 115//114 87//86 86//87
f 114//115 115//114 86//87
f 116//116 88//88 87//86
f 115//114 116//116 87//86
f 117//117 89//89 88//88
f 116//116 117//117 88//88
f 118//118 90//90 89//89
f 117//117 118//118 89//89
f 119//119 91//91 90//90
f 118//118 119//119 90//90
f 120//120 92//92 91//91
f 119//119 120//120 91//91
f 121//121 93//93 92//92
f 120//120 121//121 92//92
f 122//122 94//94 93//93
f 121//121 122//122 93//93
f 123//123 95//95 94//94
f 122//122 123//123 94//94
f 124//124 96//96 95//95
f 123//123 124//124 95//95
f 125//125 97//97 96//96
f 124//124 125//125 96//96
f 126//126 98//98 97//97
f 125//125 126//126 97//97
f 127//127 99//99 98//98
f 126//126 127//127 98//98
f 128//128 100//100 99//99
f 127//127 128//128 99//99
f 129//129 101//101 100//100
f 128//128 129//129 100//100
f 130//130 102//102 101//101
f 129//129 130//130 101//101
f 131//131 103//103 102//102
f 130//130 131//131 102//102
f 132//132 104//104 103//103
f 131//131 132//132 103//103
f 133//133 105//105 104//104
f 132//132 133//133 104//104
f 134//134 106//106 105//105
f 133//133 134//134 105//105
f 135//135 107//107 106//106
f 134//134 135//135 106//106
f 136//136 108//108 107//107
f 135//135 136//136 107//107
f 137//137 109//109 108//108
f 136//136 137//137 108//108
f 138//138 110//110 109//109
f 137//137 138//138 109//109
f 139//139 111//111 110//110
f 138//138 139//139 110//110
f 140//140 112//112 111//111
f 139//139 140//140 111//111
f 141//141 113//113 112//112
f 140//140 141//141 112//112
f 114//115 86//87 113//113
f 141//141 114//115 113//113
f 143//142 115//114 114//115
f 142//143 143//142 114//115
f 144//144 116//116 115//114
f 143//142 144//144 115//114
f 145//145 117//117 116//116
f 144//144 145//145 116//116
f 146//146 118//118 117//117
f 145//145 146//146 117//117
f 147//147 119//119 118//118
f 146//146 147//147 118//118
f 148//148 120//120 119//119
f 147//147 148//148 119//119
f 149//149 121//121 120//120
f 148//148 149//149 120//120
f 150//150 122//122 121//121
f 149//149 150//150 121//121
f 151//151 123//123 122//122
f 150//150 151//151 122//122
f 152//152 124//124 123//123
f 151//151 152//152 123//123
f 153//153 125//125 124//124
f 152//152 153//153 124//124
f 154//154 126//126 125//125
f 153//153 154//154 125//125
f 155//155 127//127 126//126
f 154//154 155//155 126//126
f 156//156 128//128 127//127
f 155//155 156//156 127//127
f 157//157 129//129 128//128
f 156//156 157//157 128//128
f 158//158 130//130 129//129
f 157//157 158//158 129//129
f 159//159 131//131 130//130
f 158//158 159//159 130//130
f 160//160 132//132 131//131
f 159//159 160//160 131//131
f 161//161 133//133 132//132
f 160//160 161//161 132//132
f 162//162 134//134 133//133
f 161//161 162//162 133//133
f 163//163 135//135 134//134
f 162//162 163//163 134//134
f 164//164 136//136 135//135
f 163//163 164//164 135//135
f 165//165 137//137 136//136
f 164//164 165//165 136//136
f 166//166 138//138 137//137
f 165//165 166//166 137//137
f 167//167 139//139 138//138
f 166//166 167//167 138//138
f 168//168 140//140 139//139
f 167//167 168//168 139//139
f 169//169 141//141 140//140
f 168//168 169//169 140//140
f 142//143 114//115 141//141
f 169//169 142//143 141//141
f 170//170 143//142 142//143
f 170//170 144//144 143//142
f 170//170 145//145 144//144
f 170//170 146//146 145//145
f 170//170 147//147 146//146
f 170//170 148//148 147//147
f 170//170 149//149 148//148
f 170//170 150//150 149//149
f 170//170 151//151 150//150
f 170//170 152//152 151//151
f 170//170 153//153 152//152
f 170//170 154//154 153//153
f 170//170 155//155 154//154
f 170//170 156//156 155//155
f 170//170 157//157 156//156
f 170//170 158//158 157//157
f 170//170 159//159 158//158
f 170//170 160//160 159//159
f 170//170 161//161 160//160
f 170//170 162//162 161//161
f 170//170 163//163 162//162
f 170//170 164//164 163//163
f 170//170 165//165 164//164
f 170//170 166//166 165//165
f 170//170 167//167 166//166
f 170//170 168//168 167//167
f 170//170 169//169 168//168
f 170//170 142//143 169//169
f 171//171 174//172 175//173 177//174
f 172//175 176//176 175//173 174//172
f 173//177 177//174 175//173 176//176
f 178//178 181//179 182//180 184//181
f 179//182 183//183 182//180 181//179
f 180//184 184//181 182//180 183//183
f 185//185 188//186 189//187 191//188
f 186//189 190//190 189//187 188//186
f 187//191 191//188 189//187 190//190
f 192//192 195//193 196//194 198//195
f 193//196 197//197 196//194 195//193
f 194//198 198//195 196//194 197//197
f 199//199 202//200 203//201 205//202
f 200//203 204//204 203//201 202//200
f 201//205 205//202 203//201 204//204
f 206//206 209//207 210//208 212//209
f 207//210 211//211 210//208 209//207
f 208//212 212//209 210//208 211//211
f 213//213 216//214 217//215 219//216
f 214//217 218//218 217//215 216//214
f 215//219 219//216 217//215 218//218
f 220//220 223//221 224//222 226//223
f 221//224 225//225 224//222 223//221
f 222//226 226//223 224//222 225//225
f 185//185 171//171 177//174 188//186
f 188//186 177//174 173//177 186//189
f 172//175 178//178 184//181 176//176
f 176//176 184//181 180//184 173//177
f 179//182 192//192 198//195 183//183
f 183//183 198//195 194//198 180//184
f 193//196 187//191 190//190 197//197
f 197//197 190//190 186//189 194//198
f 213//213 185//185 191//188 216//214
f 216//214 191//188 187//191 214//217
f 192//192 220//220 226//223 195//193
f 195//193 226//223 222//226 193//196
f 221//224 215//219 218//218 225//225
f 225//225 218//218 214//217 222//226
f 199//199 213//213 219//216 202//200
f 202//200 219//216 215//219 200//203
f 220//220 206//206 212//209 223//221
f 223//221 212//209 208//212 221//224
f 207//210 201//205 204//204 211//211
f 211//211 204//204 200//203 208//212
f 171//171 199//199 205//202 174//172
f 174//172 205//202 201//205 172//175
f 206//206 179//182 181//179 209//207
f 209//207 181//179 178//178 207//210
f 185//185 213//213 199//199 171//171
f 173//177 180//184 194//198 186//189
f 201//205 207//210 178//178 172//175
f 220//220 192//192 179//182 206//206
f 187//191 193//196 222//226 214//217
f 215//219 221//224 208//212 200//203
f 228//227 234//228 235//229 229//230
f 229//230 235//229 233//231 227//232
f 237//233 231//234 232//235 238//236
f 238//236 232//235 230//237 236//238
f 234//228 240//239 241//240 235//229
f 235//229 241//240 239//241 233//231
f 243//242 237//233 238//236 244//243
f 244//243 238//236 236//238 242//244
f 240//239 246//245 247//246 241//240
f 241//240 247//246 245//247 239//241
f 249//248 243//242 244//243 250//249
f 250//249 244//243 242//244 248//250
f 246//245 252//251 253//252 247//246
f 247//246 253//252 251//253 245//247
f 255//254 249//248 250//249 256//255
f 256//255 250//249 248//250 254//256
f 252//251 258//257 259//258 253//252
f 253//252 259//258 257//259 251//253
f 261//260 255//254 256//255 262//261
f 262//261 256//255 254//256 260//262
f 258//257 264//263 265//264 259//258
f 259//258 265//264 263//265 257//259
f 267//266 261//260 262//261 268//267
f 268//267 262//261 260//262 266//268
f 264//263 270//269 271//270 265//264
f 265//264 271//270 269//271 263//265
f 273//272 267//266 268//267 274//273
f 274//273 268//267 266//268 272//274
f 270//269 276//275 277//276 271//270
f 271//270 277//276 275//277 269//271
f 279//278 273//272 274//273 280//279
f 280//279 274//273 272//274 278//280
f 276//275 282//281 283//282 277//276
f 277//276 283//282 281//283 275//277
f 285//284 279//278 280//279 286//285
f 286//285 280//279 278//280 284//286
f 282//281 288//287 289//288 283//282
f 283//282 289//288 287//289 281//283
f 291//290 285//284 286//285 292//291
f 292//291 286//285 284//286 290//292
f 288//287 294//293 295//294 289//288
f 289//288 295//294 293//295 287//289
f 297//296 291//290 292//291 298//297
f 298//297 292//291 290//292 296//298
f 294//293 300//299 301//300 295//294
f 295//294 301//300 299//301 293//295
f 303//302 297//296 298//297 304//303
f 304//303 298//297 296//298 302//304
f 300//299 306//305 307//306 301//300
f 301//300 307//306 305//307 299//301
f 309//308 303//302 304//303 310//309
f 310//309 304//303 302//304 308//310
f 306//305 228//227 229//230 307//306
f 307//306 229//230 227//232 305//307
f 231//234 309//308 310//309 232//235
f 232//235 310//309 308//310 230//237
f 227//232 233//231 239//241 245//247 251//253 257//259 263//265 269//271 275//277 281//283 287//289 293//295 299//301 305//307
f 228//227 231//234 237//233 234//228
f 306//305 309//308 231//234 228//227
f 236//238 230//237 308//310 302//304 296//298 290//292 284//286 278//280 272//274 266//268 260//262 254//256 248//250 242//244
f 234//228 237//233 243//242 240//239
f 240//239 243//242 249//248 246//245
f 246//245 249//248 255//254 252//251
f 252//251 255//254 261//260 258//257
f 258//257 261//260 267//266 264//263
f 264//263 267//266 273//272 270//269
f 270//269 273//272 279//278 276//275
f 276//275 279//278 285//284 282//281
f 282//281 285//284 291//290 288//287
f 288//287 291//290 297//296 294//293
f 294//293 297//296 303//302 300//299
f 300//299 303//302 309//308 306//305
f 312//3 382//311 319//312
f 381//313 380//314 317//315 318//316
f 379//317 378//318 315//319 316//320
f 377//321 376//322 313//323 314//324
f 382//311 381//313 318//316 319//312
f 380//314 379//317 316//320 317//315
f 378//318 377//321 314//324 315//319
f 376//322 311//170 313//323
f 314//324 313//323 320//325 321//326
f 319//312 318//316 325//327 326//328
f 317//315 316//320 323//329 324//330
f 315//319 314//324 321//326 322//331
f 313//323 311//170 320//325
f 312//3 319//312 326//328
f 318//316 317//315 324//330 325//327
f 316//320 315//319 322//331 323//329
f 326//328 325//327 332//332 333//333
f 324//330 323//329 330//334 331//335
f 322//331 321//326 328//336 329//337
f 320//325 311//170 327//338
f 312//3 326//328 333//333
f 325//327 324//330 331//335 332//332
f 323//329 322//331 329//337 330//334
f 321//326 320//325 327//338 328//336
f 327//338 311//170 334//339
f 312//3 333//333 340//340
f 332//332 331//335 338//341 339//342
f 330//334 329//337 336//343 337//344
f 328//336 327//338 334//339 335//345
f 333//333 332//332 339//342 340//340
f 331//335 330//334 337//344 338//341
f 329//337 328//336 335//345 336//343
f 339//342 338//341 345//346 346//347
f 337//344 336//343 343//348 344//349
f 335//345 334//339 341//350 342//351
f 340//340 339//342 346//347 347//352
f 338//341 337//344 344//349 345//346
f 336//343 335//345 342//351 343//348
f 334//339 311//170 341//350
f 312//3 340//340 347//352
f 347//352 346//347 353//353 354//354
f 345//346 344//349 351//355 352//356
f 343//348 342//351 349//357 350//358
f 341//350 311//170 348//359
f 312//3 347//352 354//354
f 346//347 345//346 352//356 353//353
f 344//349 343//348 350//358 351//355
f 342//351 341//350 348//359 349//357
f 352//356 351//355 358//360 359//361
f 350//358 349//357 356//362 357//363
f 348//359 311//170 355//364
f 312//3 354//354 361//365
f 353//353 352//356 359//361 360//366
f 351//355 350//358 357//363 358//360
f 349//357 348//359 355//364 356//362
f 354//354 353//353 360//366 361//365
f 312//3 361//365 368//367
f 360//366 359//361 366//368 367//369
f 358//360 357//363 364//370 365//371
f 356//362 355//364 362//372 363//373
f 361//365 360//366 367//369 368//367
f 359//361 358//360 365//371 366//368
f 357//363 356//362 363//373 364//370
f 355//364 311//170 362//372
f 365//371 364//370 371//374 372//375
f 363//373 362//372 369//376 370//377
f 368//367 367//369 374//378 375//379
f 366//368 365//371 372//375 373//380
f 364//370 363//373 370//377 371//374
f 362//372 311//170 369//376
f 312//3 368//367 375//379
f 367//369 366//368 373//380 374//378
f 375//379 374//378 381//313 382//311
f 373//380 372//375 379//317 380//314
f 371//374 370//377 377//321 378//318
f 369//376 311//170 376//322
f 312//3 375//379 382//311
f 374//378 373//380 380//314 381//313
f 372//375 371//374 378//318 379//317
f 370//377 369//376 376//322 377//321
