# Blender 5.2.2 LTS
# www.blender.org
o DragonSpacebar
v 0.000000 0.000000 0.000000
v 1.100000 0.000000 0.836000
v 1.091002 0.000000 0.904332
v 1.064624 0.000000 0.968000
v 1.022670 0.000000 1.022670
v 0.968000 0.000000 1.064624
v 0.904332 0.000000 1.091002
v 0.836000 0.000000 1.100000
v -0.836000 0.000000 1.100000
v -0.904332 0.000000 1.091002
v -0.968000 0.000000 1.064624
v -1.022670 0.000000 1.022670
v -1.064624 0.000000 0.968000
v -1.091002 0.000000 0.904332
v -1.100000 0.000000 0.836000
v -1.100000 0.000000 -0.836000
v -1.091002 0.000000 -0.904332
v -1.064624 0.000000 -0.968000
v -1.022670 0.000000 -1.022670
v -0.968000 0.000000 -1.064624
v -0.904332 0.000000 -1.091002
v -0.836000 0.000000 -1.100000
v 0.836000 0.000000 -1.100000
v 0.904332 0.000000 -1.091002
v 0.968000 0.000000 -1.064624
v 1.022670 0.000000 -1.022670
v 1.064624 0.000000 -0.968000
v 1.091002 0.000000 -0.904332
v 1.100000 0.000000 -0.836000
v 0.979000 0.607200 0.671000
v 0.968506 0.607200 0.750706
v 0.937728 0.607200 0.825000
v 0.888778 0.607200 0.888778
v 0.825000 0.607200 0.937728
v 0.750706 0.607200 0.968506
v 0.671000 0.607200 0.979000
v -0.671000 0.607200 0.979000
v -0.750706 0.607200 0.968506
v -0.825000 0.607200 0.937728
v -0.888778 0.607200 0.888778
v -0.937728 0.607200 0.825000
v -0.968506 0.607200 0.750706
v -0.979000 0.607200 0.671000
v -0.979000 0.607200 -0.671000
v -0.968506 0.607200 -0.750706
v -0.937728 0.607200 -0.825000
v -0.888778 0.607200 -0.888778
v -0.825000 0.607200 -0.937728
v -0.750706 0.607200 -0.968506
v -0.671000 0.607200 -0.979000
v 0.671000 0.607200 -0.979000
v 0.750706 0.607200 -0.968506
v 0.825000 0.607200 -0.937728
v 0.888778 0.607200 -0.888778
v 0.937728 0.607200 -0.825000
v 0.968506 0.607200 -0.750706
v 0.979000 0.607200 -0.671000
v 0.858000 1.232000 0.506000
v 0.846010 1.232000 0.597102
v 0.810832 1.232000 0.682000
v 0.754908 1.232000 0.754908
v 0.682000 1.232000 0.810832
v 0.597102 1.232000 0.846010
v 0.506000 1.232000 0.858000
v -0.506000 1.232000 0.858000
v -0.597102 1.232000 0.846010
v -0.682000 1.232000 0.810832
v -0.754908 1.232000 0.754908
v -0.810832 1.232000 0.682000
v -0.846010 1.232000 0.597102
v -0.858000 1.232000 0.506000
v -0.858000 1.232000 -0.506000
v -0.846010 1.232000 -0.597102
v -0.810832 1.232000 -0.682000
v -0.754908 1.232000 -0.754908
v -0.682000 1.232000 -0.810832
v -0.597102 1.232000 -0.846010
v -0.506000 1.232000 -0.858000
v 0.506000 1.232000 -0.858000
v 0.597102 1.232000 -0.846010
v 0.682000 1.232000 -0.810832
v 0.754908 1.232000 -0.754908
v 0.810832 1.232000 -0.682000
v 0.846010 1.232000 -0.597102
v 0.858000 1.232000 -0.506000
v 0.770000 1.320000 0.462000
v 0.759506 1.320000 0.541706
v 0.728728 1.320000 0.616000
v 0.679778 1.320000 0.679778
v 0.616000 1.320000 0.728728
v 0.541706 1.320000 0.759506
v 0.462000 1.320000 0.770000
v -0.462000 1.320000 0.770000
v -0.541706 1.320000 0.759506
v -0.616000 1.320000 0.728728
v -0.679778 1.320000 0.679778
v -0.728728 1.320000 0.616000
v -0.759506 1.320000 0.541706
v -0.770000 1.320000 0.462000
v -0.770000 1.320000 -0.462000
v -0.759506 1.320000 -0.541706
v -0.728728 1.320000 -0.616000
v -0.679778 1.320000 -0.679778
v -0.616000 1.320000 -0.728728
v -0.541706 1.320000 -0.759506
v -0.462000 1.320000 -0.770000
v 0.462000 1.320000 -0.770000
v 0.541706 1.320000 -0.759506
v 0.616000 1.320000 -0.728728
v 0.679778 1.320000 -0.679778
v 0.728728 1.320000 -0.616000
v 0.759506 1.320000 -0.541706
v 0.770000 1.320000 -0.462000
v 0.554400 1.245838 0.300960
v 0.545754 1.245838 0.366564
v 0.520454 1.245838 0.427680
v 0.480172 1.245838 0.480172
v 0.427680 1.245838 0.520454
v 0.366564 1.245838 0.545754
v 0.300960 1.245838 0.554400
v -0.300960 1.245838 0.554400
v -0.366564 1.245838 0.545754
v -0.427680 1.245838 0.520454
v -0.480172 1.245838 0.480172
v -0.520454 1.245838 0.427680
v -0.545754 1.245838 0.366564
v -0.554400 1.245838 0.300960
v -0.554400 1.245838 -0.300960
v -0.545754 1.245838 -0.366564
v -0.520454 1.245838 -0.427680
v -0.480172 1.245838 -0.480172
v -0.427680 1.245838 -0.520454
v -0.366564 1.245838 -0.545754
v -0.300960 1.245838 -0.554400
v 0.300960 1.245838 -0.554400
v 0.366564 1.245838 -0.545754
v 0.427680 1.245838 -0.520454
v 0.480172 1.245838 -0.480172
v 0.520454 1.245838 -0.427680
v 0.545754 1.245838 -0.366564
v 0.554400 1.245838 -0.300960
v 0.323400 1.193170 0.175560
v 0.318362 1.193170 0.213818
v 0.303600 1.193170 0.249480
v 0.280104 1.193170 0.280104
v 0.249480 1.193170 0.303600
v 0.213818 1.193170 0.318362
v 0.175560 1.193170 0.323400
v -0.175560 1.193170 0.323400
v -0.213818 1.193170 0.318362
v -0.249480 1.193170 0.303600
v -0.280104 1.193170 0.280104
v -0.303600 1.193170 0.249480
v -0.318362 1.193170 0.213818
v -0.323400 1.193170 0.175560
v -0.323400 1.193170 -0.175560
v -0.318362 1.193170 -0.213818
v -0.303600 1.193170 -0.249480
v -0.280104 1.193170 -0.280104
v -0.249480 1.193170 -0.303600
v -0.213818 1.193170 -0.318362
v -0.175560 1.193170 -0.323400
v 0.175560 1.193170 -0.323400
v 0.213818 1.193170 -0.318362
v 0.249480 1.193170 -0.303600
v 0.280104 1.193170 -0.280104
v 0.303600 1.193170 -0.249480
v 0.318362 1.193170 -0.213818
v 0.323400 1.193170 -0.175560
v 0.000000 1.166000 -0.000000
v -0.310000 1.300000 0.150000
v -0.310000 1.340000 0.190000
v -0.350000 1.340000 0.150000
v -0.310000 1.311716 0.178284
v -0.333094 1.316906 0.173094
v -0.338284 1.340000 0.178284
v -0.338284 1.311716 0.150000
v -0.310000 1.360000 0.190000
v -0.310000 1.400000 0.150000
v -0.350000 1.360000 0.150000
v -0.310000 1.388284 0.178284
v -0.333094 1.383094 0.173094
v -0.338284 1.388284 0.150000
v -0.338284 1.360000 0.178284
v -0.310000 1.300000 -0.050000
v -0.350000 1.340000 -0.050000
v -0.310000 1.340000 -0.090000
v -0.338284 1.311716 -0.050000
v -0.333094 1.316906 -0.073094
v -0.338284 1.340000 -0.078284
v -0.310000 1.311716 -0.078284
v -0.310000 1.400000 -0.050000
v -0.310000 1.360000 -0.090000
v -0.350000 1.360000 -0.050000
v -0.310000 1.388284 -0.078284
v -0.333094 1.383094 -0.073094
v -0.338284 1.360000 -0.078284
v -0.338284 1.388284 -0.050000
v 0.310000 1.300000 0.150000
v 0.350000 1.340000 0.150000
v 0.310000 1.340000 0.190000
v 0.338284 1.311716 0.150000
v 0.333094 1.316906 0.173094
v 0.338284 1.340000 0.178284
v 0.310000 1.311716 0.178284
v 0.310000 1.400000 0.150000
v 0.310000 1.360000 0.190000
v 0.350000 1.360000 0.150000
v 0.310000 1.388284 0.178284
v 0.333094 1.383094 0.173094
v 0.338284 1.360000 0.178284
v 0.338284 1.388284 0.150000
v 0.310000 1.300000 -0.050000
v 0.310000 1.340000 -0.090000
v 0.350000 1.340000 -0.050000
v 0.310000 1.311716 -0.078284
v 0.333094 1.316906 -0.073094
v 0.338284 1.340000 -0.078284
v 0.338284 1.311716 -0.050000
v 0.310000 1.400000 -0.050000
v 0.350000 1.360000 -0.050000
v 0.310000 1.360000 -0.090000
v 0.338284 1.388284 -0.050000
v 0.333094 1.383094 -0.073094
v 0.338284 1.360000 -0.078284
v 0.310000 1.388284 -0.078284
v 0.000000 1.940000 -0.120000
v 0.000000 1.816336 -0.362705
v 0.000000 1.732705 -0.405317
v 0.000000 1.640000 -0.420000
v 0.000000 1.547295 -0.405317
v 0.000000 1.397295 -0.296336
v 0.000000 1.354683 -0.212705
v 0.000000 1.340000 -0.120000
v 0.040223 1.925317 -0.203524
v 0.076509 1.882705 -0.278873
v 0.105306 1.816336 -0.338670
v 0.123794 1.732705 -0.377062
v 0.130165 1.640000 -0.390291
v 0.123794 1.547295 -0.377062
v 0.105306 1.463665 -0.338670
v 0.076509 1.397295 -0.278873
v 0.040223 1.354683 -0.203524
v 0.072480 1.925317 -0.177801
v 0.137865 1.882705 -0.229943
v 0.189755 1.816336 -0.271324
v 0.223070 1.732705 -0.297892
v 0.234549 1.640000 -0.307047
v 0.223070 1.547295 -0.297892
v 0.189755 1.463665 -0.271324
v 0.137865 1.397295 -0.229943
v 0.072480 1.354683 -0.177801
v 0.090381 1.925317 -0.140629
v 0.171914 1.882705 -0.159238
v 0.236620 1.816336 -0.174007
v 0.278163 1.732705 -0.183489
v 0.292478 1.640000 -0.186756
v 0.278163 1.547295 -0.183489
v 0.236620 1.463665 -0.174007
v 0.171914 1.397295 -0.159238
v 0.090381 1.354683 -0.140629
v 0.090381 1.925317 -0.099371
v 0.171914 1.882705 -0.080762
v 0.236620 1.816336 -0.065993
v 0.278163 1.732705 -0.056511
v 0.292478 1.640000 -0.053244
v 0.278163 1.547295 -0.056511
v 0.236620 1.463665 -0.065993
v 0.171914 1.397295 -0.080762
v 0.090381 1.354683 -0.099371
v 0.072480 1.925317 -0.062199
v 0.137865 1.882705 -0.010057
v 0.189754 1.816336 0.031324
v 0.223070 1.732705 0.057892
v 0.234549 1.640000 0.067047
v 0.223070 1.547295 0.057892
v 0.189754 1.463665 0.031324
v 0.137865 1.397295 -0.010057
v 0.072480 1.354683 -0.062199
v 0.040223 1.925317 -0.036476
v 0.076509 1.882705 0.038873
v 0.105306 1.816336 0.098670
v 0.123794 1.732705 0.137062
v 0.130165 1.640000 0.150291
v 0.123794 1.547295 0.137062
v 0.105306 1.463665 0.098670
v 0.076509 1.397295 0.038873
v 0.040223 1.354683 -0.036476
v -0.000000 1.925317 -0.027295
v -0.000000 1.882705 0.056336
v -0.000000 1.816336 0.122705
v -0.000000 1.732705 0.165317
v -0.000000 1.640000 0.180000
v -0.000000 1.547295 0.165317
v -0.000000 1.463665 0.122705
v -0.000000 1.397295 0.056336
v -0.000000 1.354683 -0.027295
v -0.040223 1.925317 -0.036476
v -0.076509 1.882705 0.038873
v -0.105306 1.816336 0.098670
v -0.123794 1.732705 0.137062
v -0.130165 1.640000 0.150291
v -0.123794 1.547295 0.137062
v -0.105306 1.463665 0.098670
v -0.076509 1.397295 0.038873
v -0.040223 1.354683 -0.036476
v -0.072480 1.925317 -0.062199
v -0.137865 1.882705 -0.010057
v -0.189755 1.816336 0.031324
v -0.223070 1.732705 0.057892
v -0.234549 1.640000 0.067047
v -0.223070 1.547295 0.057892
v -0.189755 1.463665 0.031324
v -0.137865 1.397295 -0.010057
v -0.072480 1.354683 -0.062199
v -0.090381 1.925317 -0.099371
v -0.171914 1.882705 -0.080762
v -0.236620 1.816336 -0.065993
v -0.278163 1.732705 -0.056511
v -0.292478 1.640000 -0.053244
v -0.278163 1.547295 -0.056511
v -0.236620 1.463665 -0.065993
v -0.171914 1.397295 -0.080762
v -0.090381 1.354683 -0.099371
v -0.090381 1.925317 -0.140629
v -0.171914 1.882705 -0.159238
v -0.236620 1.816336 -0.174007
v -0.278163 1.732705 -0.183489
v -0.292478 1.640000 -0.186756
v -0.278163 1.547295 -0.183489
v -0.236620 1.463665 -0.174007
v -0.171914 1.397295 -0.159238
v -0.090381 1.354683 -0.140629
v -0.072480 1.925317 -0.177801
v -0.137865 1.882705 -0.229943
v -0.189754 1.816336 -0.271324
v -0.223070 1.732705 -0.297892
v -0.234549 1.640000 -0.307047
v -0.223070 1.547295 -0.297892
v -0.189754 1.463665 -0.271324
v -0.137865 1.397295 -0.229943
v -0.072480 1.354683 -0.177801
v -0.040223 1.925317 -0.203524
v -0.076509 1.882705 -0.278873
v -0.105306 1.816336 -0.338670
v -0.123794 1.732705 -0.377062
v -0.130165 1.640000 -0.390291
v -0.123794 1.547295 -0.377062
v -0.105306 1.463665 -0.338670
v -0.076509 1.397295 -0.278873
v -0.040223 1.354683 -0.203524
v 0.000000 1.925317 -0.212705
v 0.000000 1.882705 -0.296336
v 0.000000 1.463665 -0.362705
v -0.165000 1.800000 -0.035000
v -0.165000 1.840000 0.005000
v -0.205000 1.840000 -0.035000
v -0.165000 1.811716 -0.006716
v -0.188094 1.816906 -0.011906
v -0.193284 1.840000 -0.006716
v -0.193284 1.811716 -0.035000
v -0.165000 2.080000 0.005000
v -0.165000 2.120000 -0.035000
v -0.205000 2.080000 -0.035000
v -0.165000 2.108285 -0.006716
v -0.188094 2.103095 -0.011906
v -0.193284 2.108285 -0.035000
v -0.193284 2.080000 -0.006716
v -0.165000 1.800000 -0.045000
v -0.205000 1.840000 -0.045000
v -0.165000 1.840000 -0.085000
v -0.193284 1.811716 -0.045000
v -0.188094 1.816906 -0.068094
v -0.193284 1.840000 -0.073284
v -0.165000 1.811716 -0.073284
v -0.165000 2.120000 -0.045000
v -0.165000 2.080000 -0.085000
v -0.205000 2.080000 -0.045000
v -0.165000 2.108285 -0.073284
v -0.188094 2.103095 -0.068094
v -0.193284 2.080000 -0.073284
v -0.193284 2.108285 -0.045000
v -0.155000 1.800000 -0.035000
v -0.115000 1.840000 -0.035000
v -0.155000 1.840000 0.005000
v -0.126716 1.811716 -0.035000
v -0.131906 1.816906 -0.011906
v -0.126716 1.840000 -0.006716
v -0.155000 1.811716 -0.006716
v -0.155000 2.120000 -0.035000
v -0.155000 2.080000 0.005000
v -0.115000 2.080000 -0.035000
v -0.155000 2.108285 -0.006716
v -0.131906 2.103095 -0.011906
v -0.126716 2.080000 -0.006716
v -0.126716 2.108285 -0.035000
v -0.155000 1.800000 -0.045000
v -0.155000 1.840000 -0.085000
v -0.115000 1.840000 -0.045000
v -0.155000 1.811716 -0.073284
v -0.131906 1.816906 -0.068094
v -0.126716 1.840000 -0.073284
v -0.126716 1.811716 -0.045000
v -0.155000 2.120000 -0.045000
v -0.115000 2.080000 -0.045000
v -0.155000 2.080000 -0.085000
v -0.126716 2.108285 -0.045000
v -0.131906 2.103095 -0.068094
v -0.126716 2.080000 -0.073284
v -0.155000 2.108285 -0.073284
v 0.155000 1.800000 -0.035000
v 0.155000 1.840000 0.005000
v 0.115000 1.840000 -0.035000
v 0.155000 1.811716 -0.006716
v 0.131906 1.816906 -0.011906
v 0.126716 1.840000 -0.006716
v 0.126716 1.811716 -0.035000
v 0.155000 2.080000 0.005000
v 0.155000 2.120000 -0.035000
v 0.115000 2.080000 -0.035000
v 0.155000 2.108285 -0.006716
v 0.131906 2.103095 -0.011906
v 0.126716 2.108285 -0.035000
v 0.126716 2.080000 -0.006716
v 0.155000 1.800000 -0.045000
v 0.115000 1.840000 -0.045000
v 0.155000 1.840000 -0.085000
v 0.126716 1.811716 -0.045000
v 0.131906 1.816906 -0.068094
v 0.126716 1.840000 -0.073284
v 0.155000 1.811716 -0.073284
v 0.155000 2.120000 -0.045000
v 0.155000 2.080000 -0.085000
v 0.115000 2.080000 -0.045000
v 0.155000 2.108285 -0.073284
v 0.131906 2.103095 -0.068094
v 0.126716 2.080000 -0.073284
v 0.126716 2.108285 -0.045000
v 0.165000 1.800000 -0.035000
v 0.205000 1.840000 -0.035000
v 0.165000 1.840000 0.005000
v 0.193284 1.811716 -0.035000
v 0.188094 1.816906 -0.011906
v 0.193284 1.840000 -0.006716
v 0.165000 1.811716 -0.006716
v 0.165000 2.120000 -0.035000
v 0.165000 2.080000 0.005000
v 0.205000 2.080000 -0.035000
v 0.165000 2.108285 -0.006716
v 0.188094 2.103095 -0.011906
v 0.193284 2.080000 -0.006716
v 0.193284 2.108285 -0.035000
v 0.165000 1.800000 -0.045000
v 0.165000 1.840000 -0.085000
v 0.205000 1.840000 -0.045000
v 0.165000 1.811716 -0.073284
v 0.188094 1.816906 -0.068094
v 0.193284 1.840000 -0.073284
v 0.193284 1.811716 -0.045000
v 0.165000 2.120000 -0.045000
v 0.205000 2.080000 -0.045000
v 0.165000 2.080000 -0.085000
v 0.193284 2.108285 -0.045000
v 0.188094 2.103095 -0.068094
v 0.193284 2.080000 -0.073284
v 0.165000 2.108285 -0.073284
v -0.100000 1.740000 -0.350000
v -0.100000 1.710000 -0.401962
v -0.100000 1.650000 -0.401962
v -0.100000 1.620000 -0.350000
v -0.078787 1.731962 -0.371213
v -0.063258 1.710000 -0.386742
v -0.057574 1.680000 -0.392426
v -0.063258 1.650000 -0.386742
v -0.078787 1.628039 -0.371213
v -0.070000 1.731962 -0.350000
v -0.048038 1.710000 -0.350000
v -0.040000 1.680000 -0.350000
v -0.048038 1.650000 -0.350000
v -0.070000 1.628039 -0.350000
v -0.078787 1.731962 -0.328787
v -0.063258 1.710000 -0.313258
v -0.057574 1.680000 -0.307574
v -0.063258 1.650000 -0.313258
v -0.078787 1.628039 -0.328787
v -0.100000 1.731962 -0.320000
v -0.100000 1.710000 -0.298038
v -0.100000 1.680000 -0.290000
v -0.100000 1.650000 -0.298038
v -0.100000 1.628039 -0.320000
v -0.121213 1.731962 -0.328787
v -0.136742 1.710000 -0.313258
v -0.142426 1.680000 -0.307574
v -0.136742 1.650000 -0.313258
v -0.121213 1.628039 -0.328787
v -0.130000 1.731962 -0.350000
v -0.151962 1.710000 -0.350000
v -0.160000 1.680000 -0.350000
v -0.151962 1.650000 -0.350000
v -0.130000 1.628039 -0.350000
v -0.121213 1.731962 -0.371213
v -0.136742 1.710000 -0.386742
v -0.142426 1.680000 -0.392426
v -0.136742 1.650000 -0.386742
v -0.121213 1.628039 -0.371213
v -0.100000 1.731962 -0.380000
v -0.100000 1.680000 -0.410000
v -0.100000 1.628039 -0.380000
v 0.100000 1.740000 -0.350000
v 0.100000 1.710000 -0.401962
v 0.100000 1.650000 -0.401962
v 0.100000 1.620000 -0.350000
v 0.121213 1.731962 -0.371213
v 0.136742 1.710000 -0.386742
v 0.142426 1.680000 -0.392426
v 0.136742 1.650000 -0.386742
v 0.121213 1.628039 -0.371213
v 0.130000 1.731962 -0.350000
v 0.151962 1.710000 -0.350000
v 0.160000 1.680000 -0.350000
v 0.151962 1.650000 -0.350000
v 0.130000 1.628039 -0.350000
v 0.121213 1.731962 -0.328787
v 0.136742 1.710000 -0.313258
v 0.142426 1.680000 -0.307574
v 0.136742 1.650000 -0.313258
v 0.121213 1.628039 -0.328787
v 0.100000 1.731962 -0.320000
v 0.100000 1.710000 -0.298038
v 0.100000 1.680000 -0.290000
v 0.100000 1.650000 -0.298038
v 0.100000 1.628039 -0.320000
v 0.078787 1.731962 -0.328787
v 0.063258 1.710000 -0.313258
v 0.057574 1.680000 -0.307574
v 0.063258 1.650000 -0.313258
v 0.078787 1.628039 -0.328787
v 0.070000 1.731962 -0.350000
v 0.048038 1.710000 -0.350000
v 0.040000 1.680000 -0.350000
v 0.048038 1.650000 -0.350000
v 0.070000 1.628039 -0.350000
v 0.078787 1.731962 -0.371213
v 0.063258 1.710000 -0.386742
v 0.057574 1.680000 -0.392426
v 0.063258 1.650000 -0.386742
v 0.078787 1.628039 -0.371213
v 0.100000 1.731962 -0.380000
v 0.100000 1.680000 -0.410000
v 0.100000 1.628039 -0.380000
v -0.100000 1.460000 -0.210000
v -0.100000 1.500000 -0.170000
v -0.140000 1.500000 -0.210000
v -0.100000 1.471716 -0.181716
v -0.123094 1.476906 -0.186906
v -0.128284 1.500000 -0.181716
v -0.128284 1.471716 -0.210000
v -0.100000 1.540000 -0.170000
v -0.100000 1.580000 -0.210000
v -0.140000 1.540000 -0.210000
v -0.100000 1.568285 -0.181716
v -0.123094 1.563094 -0.186906
v -0.128284 1.568285 -0.210000
v -0.128284 1.540000 -0.181716
v -0.100000 1.460000 -0.350000
v -0.140000 1.500000 -0.350000
v -0.100000 1.500000 -0.390000
v -0.128284 1.471716 -0.350000
v -0.123094 1.476906 -0.373094
v -0.128284 1.500000 -0.378284
v -0.100000 1.471716 -0.378284
v -0.100000 1.580000 -0.350000
v -0.100000 1.540000 -0.390000
v -0.140000 1.540000 -0.350000
v -0.100000 1.568285 -0.378284
v -0.123094 1.563094 -0.373094
v -0.128284 1.540000 -0.378284
v -0.128284 1.568285 -0.350000
v 0.100000 1.460000 -0.210000
v 0.140000 1.500000 -0.210000
v 0.100000 1.500000 -0.170000
v 0.128284 1.471716 -0.210000
v 0.123094 1.476906 -0.186906
v 0.128284 1.500000 -0.181716
v 0.100000 1.471716 -0.181716
v 0.100000 1.580000 -0.210000
v 0.100000 1.540000 -0.170000
v 0.140000 1.540000 -0.210000
v 0.100000 1.568285 -0.181716
v 0.123094 1.563094 -0.186906
v 0.128284 1.540000 -0.181716
v 0.128284 1.568285 -0.210000
v 0.100000 1.460000 -0.350000
v 0.100000 1.500000 -0.390000
v 0.140000 1.500000 -0.350000
v 0.100000 1.471716 -0.378284
v 0.123094 1.476906 -0.373094
v 0.128284 1.500000 -0.378284
v 0.128284 1.471716 -0.350000
v 0.100000 1.580000 -0.350000
v 0.140000 1.540000 -0.350000
v 0.100000 1.540000 -0.390000
v 0.128284 1.568285 -0.350000
v 0.123094 1.563094 -0.373094
v 0.128284 1.540000 -0.378284
v 0.100000 1.568285 -0.378284
v -0.385000 1.230000 0.050000
v -0.385000 1.270000 0.090000
v -0.425000 1.270000 0.050000
v -0.385000 1.241716 0.078284
v -0.408094 1.246906 0.073094
v -0.413284 1.270000 0.078284
v -0.413284 1.241716 0.050000
v -0.385000 1.310000 0.090000
v -0.385000 1.350000 0.050000
v -0.425000 1.310000 0.050000
v -0.385000 1.338284 0.078284
v -0.408094 1.333094 0.073094
v -0.413284 1.338284 0.050000
v -0.413284 1.310000 0.078284
v -0.385000 1.230000 -0.050000
v -0.425000 1.270000 -0.050000
v -0.385000 1.270000 -0.090000
v -0.413284 1.241716 -0.050000
v -0.408094 1.246906 -0.073094
v -0.413284 1.270000 -0.078284
v -0.385000 1.241716 -0.078284
v -0.385000 1.350000 -0.050000
v -0.385000 1.310000 -0.090000
v -0.425000 1.310000 -0.050000
v -0.385000 1.338284 -0.078284
v -0.408094 1.333094 -0.073094
v -0.413284 1.310000 -0.078284
v -0.413284 1.338284 -0.050000
v 0.385000 1.230000 0.050000
v 0.425000 1.270000 0.050000
v 0.385000 1.270000 0.090000
v 0.413284 1.241716 0.050000
v 0.408094 1.246906 0.073094
v 0.413284 1.270000 0.078284
v 0.385000 1.241716 0.078284
v 0.385000 1.350000 0.050000
v 0.385000 1.310000 0.090000
v 0.425000 1.310000 0.050000
v 0.385000 1.338284 0.078284
v 0.408094 1.333094 0.073094
v 0.413284 1.310000 0.078284
v 0.413284 1.338284 0.050000
v 0.385000 1.230000 -0.050000
v 0.385000 1.270000 -0.090000
v 0.425000 1.270000 -0.050000
v 0.385000 1.241716 -0.078284
v 0.408094 1.246906 -0.073094
v 0.413284 1.270000 -0.078284
v 0.413284 1.241716 -0.050000
v 0.385000 1.350000 -0.050000
v 0.425000 1.310000 -0.050000
v 0.385000 1.310000 -0.090000
v 0.413284 1.338284 -0.050000
v 0.408094 1.333094 -0.073094
v 0.413284 1.310000 -0.078284
v 0.385000 1.338284 -0.078284
v -0.060000 1.330000 -0.180000
v -0.060000 1.370000 -0.140000
v -0.100000 1.370000 -0.180000
v -0.060000 1.341716 -0.151716
v -0.083094 1.346906 -0.156906
v -0.088284 1.370000 -0.151716
v -0.088284 1.341716 -0.180000
v -0.060000 1.370000 -0.140000
v -0.060000 1.410000 -0.180000
v -0.100000 1.370000 -0.180000
v -0.060000 1.398284 -0.151716
v -0.083094 1.393094 -0.156906
v -0.088284 1.398284 -0.180000
v -0.088284 1.370000 -0.151716
v -0.060000 1.330000 -0.220000
v -0.100000 1.370000 -0.220000
v -0.060000 1.370000 -0.260000
v -0.088284 1.341716 -0.220000
v -0.083094 1.346906 -0.243094
v -0.088284 1.370000 -0.248284
v -0.060000 1.341716 -0.248284
v -0.060000 1.410000 -0.220000
v -0.060000 1.370000 -0.260000
v -0.100000 1.370000 -0.220000
v -0.060000 1.398284 -0.248284
v -0.083094 1.393094 -0.243094
v -0.088284 1.370000 -0.248284
v -0.088284 1.398284 -0.220000
v 0.060000 1.330000 -0.180000
v 0.100000 1.370000 -0.180000
v 0.060000 1.370000 -0.140000
v 0.088284 1.341716 -0.180000
v 0.083094 1.346906 -0.156906
v 0.088284 1.370000 -0.151716
v 0.060000 1.341716 -0.151716
v 0.060000 1.410000 -0.180000
v 0.060000 1.370000 -0.140000
v 0.100000 1.370000 -0.180000
v 0.060000 1.398284 -0.151716
v 0.083094 1.393094 -0.156906
v 0.088284 1.370000 -0.151716
v 0.088284 1.398284 -0.180000
v 0.060000 1.330000 -0.220000
v 0.060000 1.370000 -0.260000
v 0.100000 1.370000 -0.220000
v 0.060000 1.341716 -0.248284
v 0.083094 1.346906 -0.243094
v 0.088284 1.370000 -0.248284
v 0.088284 1.341716 -0.220000
v 0.060000 1.410000 -0.220000
v 0.100000 1.370000 -0.220000
v 0.060000 1.370000 -0.260000
v 0.088284 1.398284 -0.220000
v 0.083094 1.393094 -0.243094
v 0.088284 1.370000 -0.248284
v 0.060000 1.398284 -0.248284
vn 0.5454 -0.8382 0.0059
vn 0.6507 -0.7302 0.2086
vn -0.0000 -1.0000 -0.0000
vn 0.5497 -0.7567 0.3539
vn 0.4321 -0.7658 0.4762
vn 0.2977 -0.7593 0.5786
vn 0.1433 -0.7360 0.6616
vn 0.0022 -0.6372 0.7707
vn -0.0059 -0.8382 0.5454
vn -0.2086 -0.7302 0.6507
vn -0.3539 -0.7567 0.5497
vn -0.4762 -0.7658 0.4321
vn -0.5786 -0.7593 0.2977
vn -0.6616 -0.7360 0.1433
vn -0.7707 -0.6372 0.0022
vn -0.5454 -0.8382 -0.0059
vn -0.6507 -0.7302 -0.2086
vn -0.5497 -0.7567 -0.3539
vn -0.4321 -0.7658 -0.4762
vn -0.2977 -0.7593 -0.5786
vn -0.1433 -0.7360 -0.6616
vn -0.0022 -0.6372 -0.7707
vn 0.0059 -0.8382 -0.5454
vn 0.2086 -0.7302 -0.6507
vn 0.3539 -0.7567 -0.5497
vn 0.4762 -0.7658 -0.4321
vn 0.5786 -0.7593 -0.2977
vn 0.6616 -0.7360 -0.1433
vn 0.7707 -0.6372 -0.0022
vn 0.9336 0.2495 0.2571
vn 0.9807 0.1955 0.0071
vn 0.8273 0.2828 0.4853
vn 0.6713 0.2936 0.6806
vn 0.4740 0.2818 0.8342
vn 0.2443 0.2473 0.9376
vn 0.0075 0.1940 0.9810
vn -0.0071 0.1955 0.9807
vn -0.2571 0.2495 0.9336
vn -0.4853 0.2828 0.8273
vn -0.6806 0.2936 0.6713
vn -0.8342 0.2818 0.4740
vn -0.9376 0.2473 0.2443
vn -0.9810 0.1940 0.0075
vn -0.9807 0.1955 -0.0071
vn -0.9336 0.2495 -0.2571
vn -0.8273 0.2828 -0.4853
vn -0.6713 0.2936 -0.6806
vn -0.4740 0.2818 -0.8342
vn -0.2443 0.2473 -0.9376
vn -0.0075 0.1940 -0.9810
vn 0.0071 0.1955 -0.9807
vn 0.2571 0.2495 -0.9336
vn 0.4853 0.2828 -0.8273
vn 0.6806 0.2936 -0.6713
vn 0.8342 0.2818 -0.4740
vn 0.9376 0.2473 -0.2443
vn 0.9810 0.1940 -0.0075
vn 0.9174 0.3339 0.2164
vn 0.9708 0.2397 0.0057
vn 0.8183 0.3697 0.4401
vn 0.6726 0.3829 0.6332
vn 0.4878 0.3737 0.7889
vn 0.2705 0.3419 0.9000
vn 0.0155 0.3346 0.9422
vn -0.0056 0.2398 0.9708
vn -0.2164 0.3339 0.9174
vn -0.4401 0.3697 0.8183
vn -0.6332 0.3829 0.6726
vn -0.7889 0.3737 0.4878
vn -0.9000 0.3419 0.2705
vn -0.9422 0.3346 0.0155
vn -0.9708 0.2398 -0.0056
vn -0.9174 0.3339 -0.2164
vn -0.8183 0.3697 -0.4401
vn -0.6726 0.3829 -0.6332
vn -0.4878 0.3737 -0.7889
vn -0.2705 0.3419 -0.9000
vn -0.0155 0.3346 -0.9422
vn 0.0056 0.2398 -0.9708
vn 0.2164 0.3339 -0.9174
vn 0.4401 0.3697 -0.8183
vn 0.6332 0.3829 -0.6726
vn 0.7889 0.3737 -0.4878
vn 0.9000 0.3419 -0.2705
vn 0.9422 0.3346 -0.0155
vn 0.0685 0.9976 -0.0031
vn 0.2319 0.9727 -0.0012
vn 0.0622 0.9980 0.0137
vn 0.0553 0.9981 0.0287
vn 0.0473 0.9979 0.0432
vn 0.0375 0.9976 0.0587
vn 0.0027 0.9987 -0.0510
vn 0.0012 0.9727 0.2319
vn 0.0031 0.9976 0.0685
vn -0.0137 0.9980 0.0622
vn -0.0287 0.9981 0.0553
vn -0.0432 0.9979 0.0473
vn -0.0587 0.9976 0.0375
vn 0.0509 0.9987 0.0027
vn -0.2319 0.9727 0.0012
vn -0.0685 0.9976 0.0031
vn -0.0622 0.9980 -0.0137
vn -0.0553 0.9981 -0.0287
vn -0.0473 0.9979 -0.0432
vn -0.0375 0.9976 -0.0587
vn -0.0027 0.9987 0.0509
vn -0.0012 0.9727 -0.2319
vn -0.0031 0.9976 -0.0685
vn 0.0137 0.9980 -0.0622
vn 0.0287 0.9981 -0.0553
vn 0.0432 0.9979 -0.0473
vn 0.0587 0.9976 -0.0375
vn -0.0509 0.9987 -0.0027
vn -0.2401 0.9689 -0.0590
vn -0.2915 0.9566 -0.0026
vn -0.2006 0.9734 -0.1104
vn -0.1608 0.9749 -0.1543
vn -0.1178 0.9738 -0.1945
vn -0.0680 0.9698 -0.2341
vn -0.0045 0.9649 -0.2627
vn 0.0026 0.9566 -0.2915
vn 0.0590 0.9689 -0.2401
vn 0.1104 0.9734 -0.2007
vn 0.1543 0.9749 -0.1608
vn 0.1945 0.9738 -0.1178
vn 0.2341 0.9698 -0.0680
vn 0.2627 0.9649 -0.0045
vn 0.2915 0.9566 0.0026
vn 0.2401 0.9689 0.0590
vn 0.2006 0.9734 0.1104
vn 0.1608 0.9749 0.1543
vn 0.1178 0.9738 0.1945
vn 0.0680 0.9698 0.2341
vn 0.0045 0.9649 0.2627
vn -0.0026 0.9566 0.2915
vn -0.0590 0.9689 0.2401
vn -0.1104 0.9734 0.2007
vn -0.1543 0.9749 0.1608
vn -0.1945 0.9738 0.1178
vn -0.2341 0.9698 0.0680
vn -0.2627 0.9649 0.0045
vn -0.1449 0.9889 -0.0316
vn -0.1735 0.9848 -0.0011
vn -0.1228 0.9904 -0.0633
vn -0.0995 0.9909 -0.0905
vn -0.0738 0.9906 -0.1150
vn -0.0441 0.9894 -0.1380
vn -0.0036 0.9892 -0.1463
vn 0.0011 0.9848 -0.1735
vn 0.0316 0.9889 -0.1449
vn 0.0633 0.9904 -0.1228
vn 0.0905 0.9909 -0.0995
vn 0.1150 0.9906 -0.0738
vn 0.1381 0.9894 -0.0441
vn 0.1463 0.9892 -0.0036
vn 0.1735 0.9848 0.0011
vn 0.1449 0.9889 0.0316
vn 0.1228 0.9904 0.0633
vn 0.0995 0.9909 0.0905
vn 0.0738 0.9906 0.1150
vn 0.0441 0.9894 0.1380
vn 0.0036 0.9892 0.1463
vn -0.0011 0.9848 0.1735
vn -0.0315 0.9889 0.1449
vn -0.0633 0.9904 0.1228
vn -0.0905 0.9909 0.0995
vn -0.1150 0.9906 0.0738
vn -0.1381 0.9894 0.0441
vn -0.1463 0.9892 0.0036
vn -0.0000 1.0000 -0.0000
vn -0.1794 -0.9673 0.1794
vn -0.1726 -0.6965 0.6965
vn -0.5774 -0.5774 0.5773
vn -0.6965 -0.6965 0.1726
vn -0.1794 -0.1794 0.9673
vn -0.6965 -0.1726 0.6965
vn -0.9673 -0.1794 0.1794
vn -0.1794 0.1794 0.9673
vn -0.1726 0.6965 0.6965
vn -0.5773 0.5774 0.5774
vn -0.6965 0.1726 0.6965
vn -0.1794 0.9673 0.1794
vn -0.6965 0.6965 0.1726
vn -0.9673 0.1794 0.1794
vn -0.1794 -0.9673 -0.1794
vn -0.6965 -0.6965 -0.1726
vn -0.5774 -0.5774 -0.5773
vn -0.1726 -0.6965 -0.6965
vn -0.9673 -0.1794 -0.1794
vn -0.6965 -0.1726 -0.6965
vn -0.1794 -0.1794 -0.9673
vn -0.1794 0.9673 -0.1794
vn -0.1726 0.6965 -0.6965
vn -0.5774 0.5773 -0.5774
vn -0.6965 0.6965 -0.1726
vn -0.1794 0.1794 -0.9673
vn -0.6965 0.1726 -0.6965
vn -0.9673 0.1794 -0.1794
vn 0.1794 -0.9673 0.1794
vn 0.6965 -0.6965 0.1726
vn 0.5774 -0.5774 0.5773
vn 0.1726 -0.6965 0.6965
vn 0.9673 -0.1794 0.1794
vn 0.6965 -0.1726 0.6965
vn 0.1794 -0.1794 0.9673
vn 0.1794 0.9673 0.1794
vn 0.1726 0.6965 0.6965
vn 0.5774 0.5773 0.5774
vn 0.6965 0.6965 0.1726
vn 0.1794 0.1794 0.9673
vn 0.6965 0.1726 0.6965
vn 0.9673 0.1794 0.1794
vn 0.1794 -0.9673 -0.1794
vn 0.1726 -0.6965 -0.6965
vn 0.5774 -0.5773 -0.5773
vn 0.6965 -0.6965 -0.1726
vn 0.1794 -0.1794 -0.9673
vn 0.6965 -0.1726 -0.6965
vn 0.9673 -0.1794 -0.1794
vn 0.1794 0.9673 -0.1794
vn 0.6965 0.6965 -0.1726
vn 0.5774 0.5773 -0.5774
vn 0.1726 0.6965 -0.6965
vn 0.9673 0.1794 -0.1794
vn 0.6965 0.1726 -0.6965
vn 0.1794 0.1794 -0.9673
vn -0.0000 -0.5774 -0.8164
vn -0.0000 -0.3027 -0.9531
vn 0.4135 -0.3027 -0.8587
vn 0.3542 -0.5774 -0.7356
vn -0.0000 0.3027 -0.9531
vn -0.0000 0.5774 -0.8164
vn 0.3542 0.5774 -0.7356
vn 0.4135 0.3027 -0.8587
vn -0.0000 0.9444 -0.3289
vn 0.1427 0.9444 -0.2964
vn -0.0000 -0.7985 -0.6020
vn 0.2612 -0.7985 -0.5424
vn -0.0000 -0.0000 -1.0000
vn 0.4339 -0.0000 -0.9010
vn -0.0000 0.7985 -0.6020
vn 0.2612 0.7985 -0.5424
vn -0.0000 -0.9444 -0.3289
vn 0.1427 -0.9444 -0.2964
vn 0.7452 -0.3027 -0.5942
vn 0.6383 -0.5774 -0.5090
vn 0.6383 0.5774 -0.5090
vn 0.7452 0.3027 -0.5942
vn 0.2572 0.9444 -0.2051
vn 0.4707 -0.7985 -0.3753
vn 0.7818 -0.0000 -0.6235
vn 0.4707 0.7985 -0.3753
vn 0.2572 -0.9444 -0.2051
vn 0.5869 0.7985 -0.1340
vn 0.7960 0.5774 -0.1817
vn 0.3207 -0.9444 -0.0732
vn 0.9292 -0.3027 -0.2121
vn 0.7960 -0.5774 -0.1817
vn 0.9292 0.3027 -0.2121
vn 0.3207 0.9444 -0.0732
vn 0.5869 -0.7985 -0.1340
vn 0.9749 -0.0000 -0.2225
vn 0.9749 -0.0000 0.2225
vn 0.9292 -0.3027 0.2121
vn 0.5869 0.7985 0.1340
vn 0.7960 0.5774 0.1817
vn 0.3207 -0.9444 0.0732
vn 0.7960 -0.5774 0.1817
vn 0.9292 0.3027 0.2121
vn 0.3207 0.9444 0.0732
vn 0.5869 -0.7985 0.1340
vn 0.2572 0.9444 0.2051
vn 0.4707 0.7985 0.3753
vn 0.4707 -0.7985 0.3753
vn 0.2572 -0.9444 0.2051
vn 0.7818 -0.0000 0.6235
vn 0.7452 -0.3027 0.5942
vn 0.6383 0.5774 0.5090
vn 0.6383 -0.5774 0.5090
vn 0.7452 0.3027 0.5942
vn 0.3542 -0.5774 0.7356
vn 0.2612 -0.7985 0.5424
vn 0.4135 0.3027 0.8587
vn 0.4339 -0.0000 0.9010
vn 0.1427 0.9444 0.2964
vn 0.2612 0.7985 0.5424
vn 0.1427 -0.9444 0.2964
vn 0.4135 -0.3027 0.8587
vn 0.3542 0.5774 0.7356
vn -0.0000 0.5774 0.8164
vn -0.0000 0.3027 0.9531
vn -0.0000 0.9444 0.3289
vn -0.0000 -0.5774 0.8164
vn -0.0000 -0.7985 0.6020
vn -0.0000 -0.0000 1.0000
vn -0.0000 0.7985 0.6020
vn -0.0000 -0.9444 0.3289
vn -0.0000 -0.3027 0.9531
vn -0.4135 -0.3027 0.8587
vn -0.3542 -0.5774 0.7356
vn -0.3542 0.5774 0.7356
vn -0.4135 0.3027 0.8587
vn -0.1427 0.9444 0.2964
vn -0.2612 -0.7985 0.5424
vn -0.4339 -0.0000 0.9010
vn -0.2612 0.7985 0.5424
vn -0.1427 -0.9444 0.2964
vn -0.4707 0.7985 0.3753
vn -0.6383 0.5774 0.5090
vn -0.2572 -0.9444 0.2051
vn -0.7452 -0.3027 0.5942
vn -0.6383 -0.5774 0.5090
vn -0.7452 0.3027 0.5942
vn -0.2572 0.9444 0.2051
vn -0.4707 -0.7985 0.3753
vn -0.7818 -0.0000 0.6235
vn -0.5869 -0.7985 0.1340
vn -0.3207 -0.9444 0.0732
vn -0.9749 -0.0000 0.2225
vn -0.9292 -0.3027 0.2121
vn -0.5869 0.7985 0.1340
vn -0.7960 0.5774 0.1817
vn -0.7960 -0.5774 0.1817
vn -0.9292 0.3027 0.2121
vn -0.3207 0.9444 0.0732
vn -0.9292 0.3027 -0.2121
vn -0.9749 -0.0000 -0.2225
vn -0.3207 0.9444 -0.0732
vn -0.5869 0.7985 -0.1340
vn -0.5869 -0.7985 -0.1340
vn -0.3207 -0.9444 -0.0732
vn -0.9292 -0.3027 -0.2121
vn -0.7960 0.5774 -0.1817
vn -0.7960 -0.5774 -0.1817
vn -0.2572 0.9444 -0.2051
vn -0.6383 -0.5774 -0.5090
vn -0.4707 -0.7985 -0.3753
vn -0.7452 0.3027 -0.5942
vn -0.7818 -0.0000 -0.6235
vn -0.4707 0.7985 -0.3753
vn -0.2572 -0.9444 -0.2051
vn -0.7452 -0.3027 -0.5942
vn -0.6383 0.5774 -0.5090
vn -0.3542 0.5774 -0.7356
vn -0.4135 0.3027 -0.8587
vn -0.1427 0.9444 -0.2964
vn -0.3542 -0.5774 -0.7356
vn -0.2612 -0.7985 -0.5424
vn -0.4339 -0.0000 -0.9010
vn -0.2612 0.7985 -0.5424
vn -0.1427 -0.9444 -0.2964
vn -0.4135 -0.3027 -0.8587
vn -0.5774 0.5773 0.5774
vn -0.5773 -0.5774 -0.5773
vn 0.5774 -0.5774 -0.5773
vn -0.0000 -0.8383 -0.5452
vn 0.3855 -0.8383 -0.3855
vn -0.0000 -0.4744 -0.8803
vn 0.7071 -0.0000 -0.7071
vn 0.6225 -0.4744 -0.6225
vn -0.0000 0.4744 -0.8803
vn -0.0000 0.8383 -0.5452
vn 0.3855 0.8383 -0.3855
vn 0.6225 0.4744 -0.6225
vn 1.0000 -0.0000 -0.0000
vn 0.8803 -0.4744 -0.0000
vn 0.5452 0.8383 -0.0000
vn 0.8803 0.4744 -0.0000
vn 0.5452 -0.8383 -0.0000
vn 0.3855 0.8383 0.3855
vn 0.6225 0.4744 0.6225
vn 0.6225 -0.4744 0.6225
vn 0.3855 -0.8383 0.3855
vn 0.7071 -0.0000 0.7071
vn -0.0000 -0.4744 0.8803
vn -0.0000 -0.8383 0.5452
vn -0.0000 0.4744 0.8803
vn -0.0000 0.8383 0.5452
vn -0.6225 -0.4744 0.6225
vn -0.3855 -0.8383 0.3855
vn -0.6225 0.4744 0.6225
vn -0.7071 -0.0000 0.7071
vn -0.3855 0.8383 0.3855
vn -0.8803 -0.4744 -0.0000
vn -0.5452 -0.8383 -0.0000
vn -0.8803 0.4744 -0.0000
vn -1.0000 -0.0000 -0.0000
vn -0.5452 0.8383 -0.0000
vn -0.6225 -0.4744 -0.6225
vn -0.3855 -0.8383 -0.3855
vn -0.6225 0.4744 -0.6225
vn -0.7071 -0.0000 -0.7071
vn -0.3855 0.8383 -0.3855
vn -0.5773 -0.5774 0.5774
vn -0.5774 0.5774 0.5773
vn -0.5773 -0.5774 -0.5774
vn -0.5774 0.5774 -0.5773
vn 0.5773 -0.5774 0.5774
vn 0.5774 0.5774 0.5773
vn 0.5774 -0.5773 -0.5774
vn 0.5774 0.5773 -0.5773
vn -0.5774 -0.5774 0.5774
vn 0.5773 -0.5774 -0.5774
vn 0.5774 0.5774 -0.5773
vn -0.5774 -0.5773 0.5774
vn -0.1341 0.6021 0.7871
vn -0.5309 0.6606 0.5309
vn -0.7871 0.6021 0.1341
vn -0.0921 0.8365 0.5402
vn -0.3685 0.8535 0.3685
vn -0.5402 0.8365 0.0921
vn -0.5774 -0.5773 -0.5774
vn -0.7871 0.6021 -0.1341
vn -0.5309 0.6606 -0.5309
vn -0.1341 0.6021 -0.7871
vn -0.0921 0.8365 -0.5402
vn -0.3685 0.8535 -0.3685
vn -0.5402 0.8365 -0.0921
vn 0.5774 -0.5773 0.5774
vn 0.7871 0.6021 0.1341
vn 0.5309 0.6606 0.5309
vn 0.1341 0.6021 0.7871
vn 0.5774 0.5773 0.5773
vn 0.0921 0.8365 0.5402
vn 0.3685 0.8535 0.3685
vn 0.5402 0.8365 0.0921
vn 0.1341 0.6021 -0.7871
vn 0.5309 0.6606 -0.5309
vn 0.7871 0.6021 -0.1341
vn 0.5773 0.5774 -0.5774
vn 0.5402 0.8365 -0.0921
vn 0.3685 0.8535 -0.3685
vn 0.0921 0.8365 -0.5402
s 1
f 2//1 3//2 1//3
f 3//2 4//4 1//3
f 4//4 5//5 1//3
f 5//5 6//6 1//3
f 6//6 7//7 1//3
f 7//7 8//8 1//3
f 8//8 9//9 1//3
f 9//9 10//10 1//3
f 10//10 11//11 1//3
f 11//11 12//12 1//3
f 12//12 13//13 1//3
f 13//13 14//14 1//3
f 14//14 15//15 1//3
f 15//15 16//16 1//3
f 16//16 17//17 1//3
f 17//17 18//18 1//3
f 18//18 19//19 1//3
f 19//19 20//20 1//3
f 20//20 21//21 1//3
f 21//21 22//22 1//3
f 22//22 23//23 1//3
f 23//23 24//24 1//3
f 24//24 25//25 1//3
f 25//25 26//26 1//3
f 26//26 27//27 1//3
f 27//27 28//28 1//3
f 28//28 29//29 1//3
f 29//29 2//1 1//3
f 31//30 3//2 2//1
f 30//31 31//30 2//1
f 32//32 4//4 3//2
f 31//30 32//32 3//2
f 33//33 5//5 4//4
f 32//32 33//33 4//4
f 34//34 6//6 5//5
f 33//33 34//34 5//5
f 35//35 7//7 6//6
f 34//34 35//35 6//6
f 36//36 8//8 7//7
f 35//35 36//36 7//7
f 37//37 9//9 8//8
f 36//36 37//37 8//8
f 38//38 10//10 9//9
f 37//37 38//38 9//9
f 39//39 11//11 10//10
f 38//38 39//39 10//10
f 40//40 12//12 11//11
f 39//39 40//40 11//11
f 41//41 13//13 12//12
f 40//40 41//41 12//12
f 42//42 14//14 13//13
f 41//41 42//42 13//13
f 43//43 15//15 14//14
f 42//42 43//43 14//14
f 44//44 16//16 15//15
f 43//43 44//44 15//15
f 45//45 17//17 16//16
f 44//44 45//45 16//16
f 46//46 18//18 17//17
f 45//45 46//46 17//17
f 47//47 19//19 18//18
f 46//46 47//47 18//18
f 48//48 20//20 19//19
f 47//47 48//48 19//19
f 49//49 21//21 20//20
f 48//48 49//49 20//20
f 50//50 22//22 21//21
f 49//49 50//50 21//21
f 51//51 23//23 22//22
f 50//50 51//51 22//22
f 52//52 24//24 23//23
f 51//51 52//52 23//23
f 53//53 25//25 24//24
f 52//52 53//53 24//24
f 54//54 26//26 25//25
f 53//53 54//54 25//25
f 55//55 27//27 26//26
f 54//54 55//55 26//26
f 56//56 28//28 27//27
f 55//55 56//56 27//27
f 57//57 29//29 28//28
f 56//56 57//57 28//28
f 30//31 2//1 29//29
f 57//57 30//31 29//29
f 59//58 31//30 30//31
f 58//59 59//58 30//31
f 60//60 32//32 31//30
f 59//58 60//60 31//30
f 61//61 33//33 32//32
f 60//60 61//61 32//32
f 62//62 34//34 33//33
f 61//61 62//62 33//33
f 63//63 35//35 34//34
f 62//62 63//63 34//34
f 64//64 36//36 35//35
f 63//63 64//64 35//35
f 65//65 37//37 36//36
f 64//64 65//65 36//36
f 66//66 38//38 37//37
f 65//65 66//66 37//37
f 67//67 39//39 38//38
f 66//66 67//67 38//38
f 68//68 40//40 39//39
f 67//67 68//68 39//39
f 69//69 41//41 40//40
f 68//68 69//69 40//40
f 70//70 42//42 41//41
f 69//69 70//70 41//41
f 71//71 43//43 42//42
f 70//70 71//71 42//42
f 72//72 44//44 43//43
f 71//71 72//72 43//43
f 73//73 45//45 44//44
f 72//72 73//73 44//44
f 74//74 46//46 45//45
f 73//73 74//74 45//45
f 75//75 47//47 46//46
f 74//74 75//75 46//46
f 76//76 48//48 47//47
f 75//75 76//76 47//47
f 77//77 49//49 48//48
f 76//76 77//77 48//48
f 78//78 50//50 49//49
f 77//77 78//78 49//49
f 79//79 51//51 50//50
f 78//78 79//79 50//50
f 80//80 52//52 51//51
f 79//79 80//80 51//51
f 81//81 53//53 52//52
f 80//80 81//81 52//52
f 82//82 54//54 53//53
f 81//81 82//82 53//53
f 83//83 55//55 54//54
f 82//82 83//83 54//54
f 84//84 56//56 55//55
f 83//83 84//84 55//55
f 85//85 57//57 56//56
f 84//84 85//85 56//56
f 58//59 30//31 57//57
f 85//85 58//59 57//57
f 87//86 59//58 58//59
f 86//87 87//86 58//59
f 88//88 60//60 59//58
f 87//86 88//88 59//58
f 89//89 61//61 60//60
f 88//88 89//89 60//60
f 90//90 62//62 61//61
f 89//89 90//90 61//61
f 91//91 63//63 62//62
f 90//90 91//91 62//62
f 92//92 64//64 63//63
f 91//91 92//92 63//63
f 93//93 65//65 64//64
f 92//92 93//93 64//64
f 94//94 66//66 65//65
f 93//93 94//94 65//65
f 95//95 67//67 66//66
f 94//94 95//95 66//66
f 96//96 68//68 67//67
f 95//95 96//96 67//67
f 97//97 69//69 68//68
f 96//96 97//97 68//68
f 98//98 70//70 69//69
f 97//97 98//98 69//69
f 99//99 71//71 70//70
f 98//98 99//99 70//70
f 100//100 72//72 71//71
f 99//99 100//100 71//71
f 101//101 73//73 72//72
f 100//100 101//101 72//72
f 102//102 74//74 73//73
f 101//101 102//102 73//73
f 103//103 75//75 74//74
f 102//102 103//103 74//74
f 104//104 76//76 75//75
f 103//103 104//104 75//75
f 105//105 77//77 76//76
f 104//104 105//105 76//76
f 106//106 78//78 77//77
f 105//105 106//106 77//77
f 107//107 79//79 78//78
f 106//106 107//107 78//78
f 108//108 80//80 79//79
f 107//107 108//108 79//79
f 109//109 81//81 80//80
f 108//108 109//109 80//80
f 110//110 82//82 81//81
f 109//109 110//110 81//81
f 111//111 83//83 82//82
f 110//110 111//111 82//82
f 112//112 84//84 83//83
f 111//111 112//112 83//83
f 113//113 85//85 84//84
f 112//112 113//113 84//84
f 86//87 58//59 85//85
f 113//113 86//87 85//85
f 115//114 87//86 86//87
f 114//115 115//114 86//87
f 116//116 88//88 87//86
f 115//114 116//116 87//86
f 117//117 89//89 88//88
f 116//116 117//117 88//88
f 118//118 90//90 89//89
f 117//117 118//118 89//89
f 119//119 91//91 90//90
f 118//118 119//119 90//90
f 120//120 92//92 91//91
f 119//119 120//120 91//91
f 121//121 93//93 92//92
f 120//120 121//121 92//92
f 122//122 94//94 93//93
f 121//121 122//122 93//93
f 123//123 95//95 94//94
f 122//122 123//123 94//94
f 124//124 96//96 95//95
f 123//123 124//124 95//95
f 125//125 97//97 96//96
f 124//124 125//125 96//96
f 126//126 98//98 97//97
f 125//125 126//126 97//97
f 127//127 99//99 98//98
f 126//126 127//127 98//98
f 128//128 100//100 99//99
f 127//127 128//128 99//99
f 129//129 101//101 100//100
f 128//128 129//129 100//100
f 130//130 102//102 101//101
f 129//129 130//130 101//101
f 131//131 103//103 102//102
f 130//130 131//131 102//102
f 132//132 104//104 103//103
f 131//131 132//132 103//103
f 133//133 105//105 104//104
f 132//132 133//133 104//104
f 134//134 106//106 105//105
f 133//133 134//134 105//105
f 135//135 107//107 106//106
f 134//134 135//135 106//106
f 136//136 108//108 107//107
f 135//135 136//136 107//107
f 137//137 109//109 108//108
f 136//136 137//137 108//108
f 138//138 110//110 109//109
f 137//137 138//138 109//109
f 139//139 111//111 110//110
f 138//138 139//139 110//110
f 140//140 112//112 111//111
f 139//139 140//140 111//111
f 141//141 113//113 112//112
f 140//140 141//141 112//112
f 114//115 86//87 113//113
f 141//141 114//115 113//113
f 143//142 115//114 114//115
f 142//143 143//142 114//115
f 144//144 116//116 115//114
f 143//142 144//144 115//114
f 145//145 117//117 116//116
f 144//144 145//145 116//116
f 146//146 118//118 117//117
f 145//145 146//146 117//117
f 147//147 119//119 118//118
f 146//146 147//147 118//118
f 148//148 120//120 119//119
f 147//147 148//148 119//119
f 149//149 121//121 120//120
f 148//148 149//149 120//120
f 150//150 122//122 121//121
f 149//149 150//150 121//121
f 151//151 123//123 122//122
f 150//150 151//151 122//122
f 152//152 124//124 123//123
f 151//151 152//152 123//123
f 153//153 125//125 124//124
f 152//152 153//153 124//124
f 154//154 126//126 125//125
f 153//153 154//154 125//125
f 155//155 127//127 126//126
f 154//154 155//155 126//126
f 156//156 128//128 127//127
f 155//155 156//156 127//127
f 157//157 129//129 128//128
f 156//156 157//157 128//128
f 158//158 130//130 129//129
f 157//157 158//158 129//129
f 159//159 131//131 130//130
f 158//158 159//159 130//130
f 160//160 132//132 131//131
f 159//159 160//160 131//131
f 161//161 133//133 132//132
f 160//160 161//161 132//132
f 162//162 134//134 133//133
f 161//161 162//162 133//133
f 163//163 135//135 134//134
f 162//162 163//163 134//134
f 164//164 136//136 135//135
f 163//163 164//164 135//135
f 165//165 137//137 136//136
f 164//164 165//165 136//136
f 166//166 138//138 137//137
f 165//165 166//166 137//137
f 167//167 139//139 138//138
f 166//166 167//167 138//138
f 168//168 140//140 139//139
f 167//167 168//168 139//139
f 169//169 141//141 140//140
f 168//168 169//169 140//140
f 142//143 114//115 141//141
f 169//169 142//143 141//141
f 170//170 143//142 142//143
f 170//170 144//144 143//142
f 170//170 145//145 144//144
f 170//170 146//146 145//145
f 170//170 147//147 146//146
f 170//170 148//148 147//147
f 170//170 149//149 148//148
f 170//170 150//150 149//149
f 170//170 151//151 150//150
f 170//170 152//152 151//151
f 170//170 153//153 152//152
f 170//170 154//154 153//153
f 170//170 155//155 154//154
f 170//170 156//156 155//155
f 170//170 157//157 156//156
f 170//170 158//158 157//157
f 170//170 159//159 158//158
f 170//170 160//160 159//159
f 170//170 161//161 160//160
f 170//170 162//162 161//161
f 170//170 163//163 162//162
f 170//170 164//164 163//163
f 170//170 165//165 164//164
f 170//170 166//166 165//165
f 170//170 167//167 166//166
f 170//170 168//168 167//167
f 170//170 169//169 168//168
f 170//170 142//143 169//169
f 171//171 174//172 175//173 177//174
f 172//175 176//176 175//173 174//172
f 173//177 177//174 175//173 176//176
f 178//178 181//179 182//180 184//181
f 179//182 183//183 182//180 181//179
f 180//184 184//181 182//180 183//183
f 185//185 188//186 189//187 191//188
f 186//189 190//190 189//187 188//186
f 187//191 191//188 189//187 190//190
f 192//192 195//193 196//194 198//195
f 193//196 197//197 196//194 195//193
f 194//198 198//195 196//194 197//197
f 199//199 202//200 203//201 205//202
f 200//203 204//204 203//201 202//200
f 201//205 205//202 203//201 204//204
f 206//206 209//207 210//208 212//209
f 207//210 211//211 210//208 209//207
f 208//212 212//209 210//208 211//211
f 213//213 216//214 217//215 219//216
f 214//217 218//218 217//215 216//214
f 215//219 219//216 217//215 218//218
f 220//220 223//221 224//222 226//223
f 221//224 225//225 224//222 223//221
f 222//226 226//223 224//222 225//225
f 185//185 171//171 177//174 188//186
f 188//186 177//174 173//177 186//189
f 172//175 178//178 184//181 176//176
f 176//176 184//181 180//184 173//177
f 179//182 192//192 198//195 183//183
f 183//183 198//195 194//198 180//184
f 193//196 187//191 190//190 197//197
f 197//197 190//190 186//189 194//198
f 213//213 185//185 191//188 216//214
f 216//214 191//188 187//191 214//217
f 192//192 220//220 226//223 195//193
f 195//193 226//223 222//226 193//196
f 221//224 215//219 218//218 225//225
f 225//225 218//218 214//217 222//226
f 199//199 213//213 219//216 202//200
f 202//200 219//216 215//219 200//203
f 220//220 206//206 212//209 223//221
f 223//221 212//209 208//212 221//224
f 207//210 201//205 204//204 211//211
f 211//211 204//204 200//203 208//212
f 171//171 199//199 205//202 174//172
f 174//172 205//202 201//205 172//175
f 206//206 179//182 181//179 209//207
f 209//207 181//179 178//178 207//210
f 185//185 213//213 199//199 171//171
f 173//177 180//184 194//198 186//189
f 201//205 207//210 178//178 172//175
f 220//220 192//192 179//182 206//206
f 187//191 193//196 222//226 214//217
f 215//219 221//224 208//212 200//203
f 354//227 231//228 240//229 241//230
f 229//231 228//232 237//233 238//234
f 352//235 227//170 235//236
f 232//237 354//227 241//230 242//238
f 230//239 229//231 238//234 239//240
f 353//241 352//235 235//236 236//242
f 233//243 232//237 242//238 243//244
f 231//228 230//239 239//240 240//229
f 228//232 353//241 236//242 237//233
f 234//3 233//243 243//244
f 241//230 240//229 249//245 250//246
f 238//234 237//233 246//247 247//248
f 235//236 227//170 244//249
f 242//238 241//230 250//246 251//250
f 239//240 238//234 247//248 248//251
f 236//242 235//236 244//249 245//252
f 243//244 242//238 251//250 252//253
f 240//229 239//240 248//251 249//245
f 237//233 236//242 245//252 246//247
f 234//3 243//244 252//253
f 246//247 245//252 254//254 255//255
f 234//3 252//253 261//256
f 250//246 249//245 258//257 259//258
f 247//248 246//247 255//255 256//259
f 244//249 227//170 253//260
f 251//250 250//246 259//258 260//261
f 248//251 247//248 256//259 257//262
f 245//252 244//249 253//260 254//254
f 252//253 251//250 260//261 261//256
f 249//245 248//251 257//262 258//257
f 258//257 257//262 266//263 267//264
f 255//255 254//254 263//265 264//266
f 234//3 261//256 270//267
f 259//258 258//257 267//264 268//268
f 256//259 255//255 264//266 265//269
f 253//260 227//170 262//270
f 260//261 259//258 268//268 269//271
f 257//262 256//259 265//269 266//263
f 254//254 253//260 262//270 263//265
f 261//256 260//261 269//271 270//267
f 263//265 262//270 271//272 272//273
f 270//267 269//271 278//274 279//275
f 267//264 266//263 275//276 276//277
f 264//266 263//265 272//273 273//278
f 234//3 270//267 279//275
f 268//268 267//264 276//277 277//279
f 265//269 264//266 273//278 274//280
f 262//270 227//170 271//272
f 269//271 268//268 277//279 278//274
f 266//263 265//269 274//280 275//276
f 278//274 277//279 286//281 287//282
f 275//276 274//280 283//283 284//284
f 272//273 271//272 280//285 281//286
f 279//275 278//274 287//282 288//287
f 276//277 275//276 284//284 285//288
f 273//278 272//273 281//286 282//289
f 234//3 279//275 288//287
f 277//279 276//277 285//288 286//281
f 274//280 273//278 282//289 283//283
f 271//272 227//170 280//285
f 283//283 282//289 291//290 292//291
f 280//285 227//170 289//292
f 287//282 286//281 295//293 296//294
f 284//284 283//283 292//291 293//295
f 281//286 280//285 289//292 290//296
f 288//287 287//282 296//294 297//297
f 285//288 284//284 293//295 294//298
f 282//289 281//286 290//296 291//290
f 234//3 288//287 297//297
f 286//281 285//288 294//298 295//293
f 295//293 294//298 303//299 304//300
f 292//291 291//290 300//301 301//302
f 289//292 227//170 298//303
f 296//294 295//293 304//300 305//304
f 293//295 292//291 301//302 302//305
f 290//296 289//292 298//303 299//306
f 297//297 296//294 305//304 306//307
f 294//298 293//295 302//305 303//299
f 291//290 290//296 299//306 300//301
f 234//3 297//297 306//307
f 300//301 299//306 308//308 309//309
f 234//3 306//307 315//310
f 304//300 303//299 312//311 313//312
f 301//302 300//301 309//309 310//313
f 298//303 227//170 307//314
f 305//304 304//300 313//312 314//315
f 302//305 301//302 310//313 311//316
f 299//306 298//303 307//314 308//308
f 306//307 305//304 314//315 315//310
f 303//299 302//305 311//316 312//311
f 315//310 314//315 323//317 324//318
f 312//311 311//316 320//319 321//320
f 309//309 308//308 317//321 318//322
f 234//3 315//310 324//318
f 313//312 312//311 321//320 322//323
f 310//313 309//309 318//322 319//324
f 307//314 227//170 316//325
f 314//315 313//312 322//323 323//317
f 311//316 310//313 319//324 320//319
f 308//308 307//314 316//325 317//321
f 320//319 319//324 328//326 329//327
f 317//321 316//325 325//328 326//329
f 324//318 323//317 332//330 333//331
f 321//320 320//319 329//327 330//332
f 318//322 317//321 326//329 327//333
f 234//3 324//318 333//331
f 322//323 321//320 330//332 331//334
f 319//324 318//322 327//333 328//326
f 316//325 227//170 325//328
f 323//317 322//323 331//334 332//330
f 325//328 227//170 334//335
f 332//330 331//334 340//336 341//337
f 329//327 328//326 337//338 338//339
f 326//329 325//328 334//335 335//340
f 333//331 332//330 341//337 342//341
f 330//332 329//327 338//339 339//342
f 327//333 326//329 335//340 336//343
f 234//3 333//331 342//341
f 331//334 330//332 339//342 340//336
f 328//326 327//333 336//343 337//338
f 337//338 336//343 345//344 346//345
f 334//335 227//170 343//346
f 341//337 340//336 349//347 350//348
f 338//339 337//338 346//345 347//349
f 335//340 334//335 343//346 344//350
f 342//341 341//337 350//348 351//351
f 339//342 338//339 347//349 348//352
f 336//343 335//340 344//350 345//344
f 234//3 342//341 351//351
f 340//336 339//342 348//352 349//347
f 234//3 351//351 233//243
f 349//347 348//352 231//228 354//227
f 346//345 345//344 228//232 229//231
f 343//346 227//170 352//235
f 350//348 349//347 354//227 232//237
f 347//349 346//345 229//231 230//239
f 344//350 343//346 352//235 353//241
f 351//351 350//348 232//237 233//243
f 348//352 347//349 230//239 231//228
f 345//344 344//350 353//241 228//232
f 355//171 358//172 359//173 361//174
f 356//175 360//176 359//173 358//172
f 357//177 361//174 359//173 360//176
f 362//178 365//179 366//353 368//181
f 363//182 367//183 366//353 365//179
f 364//184 368//181 366//353 367//183
f 369//185 372//186 373//354 375//188
f 370//189 374//190 373//354 372//186
f 371//191 375//188 373//354 374//190
f 376//192 379//193 380//194 382//195
f 377//196 381//197 380//194 379//193
f 378//198 382//195 380//194 381//197
f 383//199 386//200 387//201 389//202
f 384//203 388//204 387//201 386//200
f 385//205 389//202 387//201 388//204
f 390//206 393//207 394//208 396//209
f 391//210 395//211 394//208 393//207
f 392//212 396//209 394//208 395//211
f 397//213 400//214 401//355 403//216
f 398//217 402//218 401//355 400//214
f 399//219 403//216 401//355 402//218
f 404//220 407//221 408//222 410//223
f 405//224 409//225 408//222 407//221
f 406//226 410//223 408//222 409//225
f 369//185 355//171 361//174 372//186
f 372//186 361//174 357//177 370//189
f 356//175 362//178 368//181 360//176
f 360//176 368//181 364//184 357//177
f 363//182 376//192 382//195 367//183
f 367//183 382//195 378//198 364//184
f 377//196 371//191 374//190 381//197
f 381//197 374//190 370//189 378//198
f 397//213 369//185 375//188 400//214
f 400//214 375//188 371//191 398//217
f 376//192 404//220 410//223 379//193
f 379//193 410//223 406//226 377//196
f 405//224 399//219 402//218 409//225
f 409//225 402//218 398//217 406//226
f 383//199 397//213 403//216 386//200
f 386//200 403//216 399//219 384//203
f 404//220 390//206 396//209 407//221
f 407//221 396//209 392//212 405//224
f 391//210 385//205 388//204 395//211
f 395//211 388//204 384//203 392//212
f 355//171 383//199 389//202 358//172
f 358//172 389//202 385//205 356//175
f 390//206 363//182 365//179 393//207
f 393//207 365//179 362//178 391//210
f 369//185 397//213 383//199 355//171
f 357//177 364//184 378//198 370//189
f 385//205 391//210 362//178 356//175
f 404//220 376//192 363//182 390//206
f 371//191 377//196 406//226 398//217
f 399//219 405//224 392//212 384//203
f 411//171 414//172 415//173 417//174
f 412//175 416//176 415//173 414//172
f 413//177 417//174 415//173 416//176
f 418//178 421//179 422//353 424//181
f 419//182 423//183 422//353 421//179
f 420//184 424//181 422//353 423//183
f 425//185 428//186 429//354 431//188
f 426//189 430//190 429//354 428//186
f 427//191 431//188 429//354 430//190
f 432//192 435//193 436//194 438//195
f 433//196 437//197 436//194 435//193
f 434//198 438//195 436//194 437//197
f 439//199 442//200 443//201 445//202
f 440//203 444//204 443//201 442//200
f 441//205 445//202 443//201 444//204
f 446//206 449//207 450//208 452//209
f 447//210 451//211 450//208 449//207
f 448//212 452//209 450//208 451//211
f 453//213 456//214 457//355 459//216
f 454//217 458//218 457//355 456//214
f 455//219 459//216 457//355 458//218
f 460//220 463//221 464//222 466//223
f 461//224 465//225 464//222 463//221
f 462//226 466//223 464//222 465//225
f 425//185 411//171 417//174 428//186
f 428//186 417//174 413//177 426//189
f 412//175 418//178 424//181 416//176
f 416//176 424//181 420//184 413//177
f 419//182 432//192 438//195 423//183
f 423//183 438//195 434//198 420//184
f 433//196 427//191 430//190 437//197
f 437//197 430//190 426//189 434//198
f 453//213 425//185 431//188 456//214
f 456//214 431//188 427//191 454//217
f 432//192 460//220 466//223 435//193
f 435//193 466//223 462//226 433//196
f 461//224 455//219 458//218 465//225
f 465//225 458//218 454//217 462//226
f 439//199 453//213 459//216 442//200
f 442//200 459//216 455//219 440//203
f 460//220 446//206 452//209 463//221
f 463//221 452//209 448//212 461//224
f 447//210 441//205 444//204 451//211
f 451//211 444//204 440//203 448//212
f 411//171 439//199 445//202 414//172
f 414//172 445//202 441//205 412//175
f 446//206 419//182 421//179 449//207
f 449//207 421//179 418//178 447//210
f 425//185 453//213 439//199 411//171
f 413//177 420//184 434//198 426//189
f 441//205 447//210 418//178 412//175
f 460//220 432//192 419//182 446//206
f 427//191 433//196 462//226 454//217
f 455//219 461//224 448//212 440//203
f 470//3 508//356 475//357
f 469//358 507//239 473//359 474//360
f 468//361 506//362 471//363 472//364
f 508//356 469//358 474//360 475//357
f 507//239 468//361 472//364 473//359
f 506//362 467//170 471//363
f 474//360 473//359 478//365 479//366
f 472//364 471//363 476//367 477//368
f 475//357 474//360 479//366 480//369
f 473//359 472//364 477//368 478//365
f 471//363 467//170 476//367
f 470//3 475//357 480//369
f 477//368 476//367 481//370 482//371
f 480//369 479//366 484//372 485//373
f 478//365 477//368 482//371 483//374
f 476//367 467//170 481//370
f 470//3 480//369 485//373
f 479//366 478//365 483//374 484//372
f 485//373 484//372 489//375 490//376
f 483//374 482//371 487//377 488//295
f 481//370 467//170 486//378
f 470//3 485//373 490//376
f 484//372 483//374 488//295 489//375
f 482//371 481//370 486//378 487//377
f 490//376 489//375 494//379 495//380
f 488//295 487//377 492//381 493//382
f 486//378 467//170 491//383
f 470//3 490//376 495//380
f 489//375 488//295 493//382 494//379
f 487//377 486//378 491//383 492//381
f 495//380 494//379 499//384 500//385
f 493//382 492//381 497//386 498//387
f 491//383 467//170 496//388
f 470//3 495//380 500//385
f 494//379 493//382 498//387 499//384
f 492//381 491//383 496//388 497//386
f 500//385 499//384 504//389 505//390
f 498//387 497//386 502//391 503//392
f 496//388 467//170 501//393
f 470//3 500//385 505//390
f 499//384 498//387 503//392 504//389
f 497//386 496//388 501//393 502//391
f 503//392 502//391 468//361 507//239
f 501//393 467//170 506//362
f 470//3 505//390 508//356
f 504//389 503//392 507//239 469//358
f 502//391 501//393 506//362 468//361
f 505//390 504//389 469//358 508//356
f 550//356 511//358 516//360 517//357
f 549//239 510//361 514//364 515//359
f 548//362 509//170 513//363
f 512//3 550//356 517//357
f 511//358 549//239 515//359 516//360
f 510//361 548//362 513//363 514//364
f 515//359 514//364 519//368 520//365
f 513//363 509//170 518//367
f 512//3 517//357 522//369
f 516//360 515//359 520//365 521//366
f 514//364 513//363 518//367 519//368
f 517//357 516//360 521//366 522//369
f 518//367 509//170 523//370
f 512//3 522//369 527//373
f 521//366 520//365 525//374 526//372
f 519//368 518//367 523//370 524//371
f 522//369 521//366 526//372 527//373
f 520//365 519//368 524//371 525//374
f 512//3 527//373 532//376
f 526//372 525//374 530//295 531//375
f 524//371 523//370 528//378 529//377
f 527//373 526//372 531//375 532//376
f 525//374 524//371 529//377 530//295
f 523//370 509//170 528//378
f 512//3 532//376 537//380
f 531//375 530//295 535//382 536//379
f 529//377 528//378 533//383 534//381
f 532//376 531//375 536//379 537//380
f 530//295 529//377 534//381 535//382
f 528//378 509//170 533//383
f 512//3 537//380 542//385
f 536//379 535//382 540//387 541//384
f 534//381 533//383 538//388 539//386
f 537//380 536//379 541//384 542//385
f 535//382 534//381 539//386 540//387
f 533//383 509//170 538//388
f 541//384 540//387 545//392 546//389
f 539//386 538//388 543//393 544//391
f 542//385 541//384 546//389 547//390
f 540//387 539//386 544//391 545//392
f 538//388 509//170 543//393
f 512//3 542//385 547//390
f 544//391 543//393 548//362 510//361
f 547//390 546//389 511//358 550//356
f 545//392 544//391 510//361 549//239
f 543//393 509//170 548//362
f 512//3 547//390 550//356
f 546//389 545//392 549//239 511//358
f 551//171 554//172 555//394 557//174
f 552//175 556//176 555//394 554//172
f 553//177 557//174 555//394 556//176
f 558//178 561//179 562//395 564//181
f 559//182 563//183 562//395 561//179
f 560//184 564//181 562//395 563//183
f 565//185 568//186 569//396 571//188
f 566//189 570//190 569//396 568//186
f 567//191 571//188 569//396 570//190
f 572//192 575//193 576//397 578//195
f 573//196 577//197 576//397 575//193
f 574//198 578//195 576//397 577//197
f 579//199 582//200 583//398 585//202
f 580//203 584//204 583//398 582//200
f 581//205 585//202 583//398 584//204
f 586//206 589//207 590//399 592//209
f 587//210 591//211 590//399 589//207
f 588//212 592//209 590//399 591//211
f 593//213 596//214 597//400 599//216
f 594//217 598//218 597//400 596//214
f 595//219 599//216 597//400 598//218
f 600//220 603//221 604//401 606//223
f 601//224 605//225 604//401 603//221
f 602//226 606//223 604//401 605//225
f 565//185 551//171 557//174 568//186
f 568//186 557//174 553//177 566//189
f 552//175 558//178 564//181 556//176
f 556//176 564//181 560//184 553//177
f 559//182 572//192 578//195 563//183
f 563//183 578//195 574//198 560//184
f 573//196 567//191 570//190 577//197
f 577//197 570//190 566//189 574//198
f 593//213 565//185 571//188 596//214
f 596//214 571//188 567//191 594//217
f 572//192 600//220 606//223 575//193
f 575//193 606//223 602//226 573//196
f 601//224 595//219 598//218 605//225
f 605//225 598//218 594//217 602//226
f 579//199 593//213 599//216 582//200
f 582//200 599//216 595//219 580//203
f 600//220 586//206 592//209 603//221
f 603//221 592//209 588//212 601//224
f 587//210 581//205 584//204 591//211
f 591//211 584//204 580//203 588//212
f 551//171 579//199 585//202 554//172
f 554//172 585//202 581//205 552//175
f 586//206 559//182 561//179 589//207
f 589//207 561//179 558//178 587//210
f 565//185 593//213 579//199 551//171
f 553//177 560//184 574//198 566//189
f 581//205 587//210 558//178 552//175
f 600//220 572//192 559//182 586//206
f 567//191 573//196 602//226 594//217
f 595//219 601//224 588//212 580//203
f 607//171 610//172 611//402 613//174
f 608//175 612//176 611//402 610//172
f 609//177 613//174 611//402 612//176
f 614//178 617//179 618//395 620//181
f 615//182 619//183 618//395 617//179
f 616//184 620//181 618//395 619//183
f 621//185 624//186 625//396 627//188
f 622//189 626//190 625//396 624//186
f 623//191 627//188 625//396 626//190
f 628//192 631//193 632//397 634//195
f 629//196 633//197 632//397 631//193
f 630//198 634//195 632//397 633//197
f 635//199 638//200 639//398 641//202
f 636//203 640//204 639//398 638//200
f 637//205 641//202 639//398 640//204
f 642//206 645//207 646//399 648//209
f 643//210 647//211 646//399 645//207
f 644//212 648//209 646//399 647//211
f 649//213 652//214 653//403 655//216
f 650//217 654//218 653//403 652//214
f 651//219 655//216 653//403 654//218
f 656//220 659//221 660//404 662//223
f 657//224 661//225 660//404 659//221
f 658//226 662//223 660//404 661//225
f 621//185 607//171 613//174 624//186
f 624//186 613//174 609//177 622//189
f 608//175 614//178 620//181 612//176
f 612//176 620//181 616//184 609//177
f 615//182 628//192 634//195 619//183
f 619//183 634//195 630//198 616//184
f 629//196 623//191 626//190 633//197
f 633//197 626//190 622//189 630//198
f 649//213 621//185 627//188 652//214
f 652//214 627//188 623//191 650//217
f 628//192 656//220 662//223 631//193
f 631//193 662//223 658//226 629//196
f 657//224 651//219 654//218 661//225
f 661//225 654//218 650//217 658//226
f 635//199 649//213 655//216 638//200
f 638//200 655//216 651//219 636//203
f 656//220 642//206 648//209 659//221
f 659//221 648//209 644//212 657//224
f 643//210 637//205 640//204 647//211
f 647//211 640//204 636//203 644//212
f 607//171 635//199 641//202 610//172
f 610//172 641//202 637//205 608//175
f 642//206 615//182 617//179 645//207
f 645//207 617//179 614//178 643//210
f 621//185 649//213 635//199 607//171
f 609//177 616//184 630//198 622//189
f 637//205 643//210 614//178 608//175
f 656//220 628//192 615//182 642//206
f 623//191 629//196 658//226 650//217
f 651//219 657//224 644//212 636//203
f 663//171 666//172 667//405 669//174
f 664//406 668//407 667//405 666//172
f 665//408 669//174 667//405 668//407
f 670//409 673//179 674//395 676//410
f 671//182 675//183 674//395 673//179
f 672//411 676//410 674//395 675//183
f 677//185 680//186 681//412 683//188
f 678//413 682//414 681//412 680//186
f 679//415 683//188 681//412 682//414
f 684//192 687//193 688//397 690//195
f 685//416 689//417 688//397 687//193
f 686//418 690//195 688//397 689//417
f 691//199 694//200 695//419 697//202
f 692//420 696//421 695//419 694//200
f 693//422 697//202 695//419 696//421
f 698//206 701//207 702//423 704//209
f 699//424 703//425 702//423 701//207
f 700//426 704//209 702//423 703//425
f 705//213 708//214 709//400 711//216
f 706//427 710//428 709//400 708//214
f 707//429 711//216 709//400 710//428
f 712//220 715//221 716//430 718//223
f 713//431 717//432 716//430 715//221
f 714//433 718//223 716//430 717//432
f 677//185 663//171 669//174 680//186
f 680//186 669//174 665//408 678//413
f 664//406 670//409 676//410 668//407
f 668//407 676//410 672//411 665//408
f 671//182 684//192 690//195 675//183
f 675//183 690//195 686//418 672//411
f 685//416 679//415 682//414 689//417
f 689//417 682//414 678//413 686//418
f 705//213 677//185 683//188 708//214
f 708//214 683//188 679//415 706//427
f 684//192 712//220 718//223 687//193
f 687//193 718//223 714//433 685//416
f 713//431 707//429 710//428 717//432
f 717//432 710//428 706//427 714//433
f 691//199 705//213 711//216 694//200
f 694//200 711//216 707//429 692//420
f 712//220 698//206 704//209 715//221
f 715//221 704//209 700//426 713//431
f 699//424 693//422 696//421 703//425
f 703//425 696//421 692//420 700//426
f 663//171 691//199 697//202 666//172
f 666//172 697//202 693//422 664//406
f 698//206 671//182 673//179 701//207
f 701//207 673//179 670//409 699//424
f 677//185 705//213 691//199 663//171
f 665//408 672//411 686//418 678//413
f 693//422 699//424 670//409 664//406
f 712//220 684//192 671//182 698//206
f 679//415 685//416 714//433 706//427
f 707//429 713//431 700//426 692//420
