# Blender 5.2.2 LTS
# www.blender.org
o EclipseShift
v 0.000000 0.000000 0.000000
v 1.100000 0.000000 0.836000
v 1.091002 0.000000 0.904332
v 1.064624 0.000000 0.968000
v 1.022670 0.000000 1.022670
v 0.968000 0.000000 1.064624
v 0.904332 0.000000 1.091002
v 0.836000 0.000000 1.100000
v -0.836000 0.000000 1.100000
v -0.904332 0.000000 1.091002
v -0.968000 0.000000 1.064624
v -1.022670 0.000000 1.022670
v -1.064624 0.000000 0.968000
v -1.091002 0.000000 0.904332
v -1.100000 0.000000 0.836000
v -1.100000 0.000000 -0.836000
v -1.091002 0.000000 -0.904332
v -1.064624 0.000000 -0.968000
v -1.022670 0.000000 -1.022670
v -0.968000 0.000000 -1.064624
v -0.904332 0.000000 -1.091002
v -0.836000 0.000000 -1.100000
v 0.836000 0.000000 -1.100000
v 0.904332 0.000000 -1.091002
v 0.968000 0.000000 -1.064624
v 1.022670 0.000000 -1.022670
v 1.064624 0.000000 -0.968000
v 1.091002 0.000000 -0.904332
v 1.100000 0.000000 -0.836000
v 0.979000 0.607200 0.671000
v 0.968506 0.607200 0.750706
v 0.937728 0.607200 0.825000
v 0.888778 0.607200 0.888778
v 0.825000 0.607200 0.937728
v 0.750706 0.607200 0.968506
v 0.671000 0.607200 0.979000
v -0.671000 0.607200 0.979000
v -0.750706 0.607200 0.968506
v -0.825000 0.607200 0.937728
v -0.888778 0.607200 0.888778
v -0.937728 0.607200 0.825000
v -0.968506 0.607200 0.750706
v -0.979000 0.607200 0.671000
v -0.979000 0.607200 -0.671000
v -0.968506 0.607200 -0.750706
v -0.937728 0.607200 -0.825000
v -0.888778 0.607200 -0.888778
v -0.825000 0.607200 -0.937728
v -0.750706 0.607200 -0.968506
v -0.671000 0.607200 -0.979000
v 0.671000 0.607200 -0.979000
v 0.750706 0.607200 -0.968506
v 0.825000 0.607200 -0.937728
v 0.888778 0.607200 -0.888778
v 0.937728 0.607200 -0.825000
v 0.968506 0.607200 -0.750706
v 0.979000 0.607200 -0.671000
v 0.858000 1.232000 0.506000
v 0.846010 1.232000 0.597102
v 0.810832 1.232000 0.682000
v 0.754908 1.232000 0.754908
v 0.682000 1.232000 0.810832
v 0.597102 1.232000 0.846010
v 0.506000 1.232000 0.858000
v -0.506000 1.232000 0.858000
v -0.597102 1.232000 0.846010
v -0.682000 1.232000 0.810832
v -0.754908 1.232000 0.754908
v -0.810832 1.232000 0.682000
v -0.846010 1.232000 0.597102
v -0.858000 1.232000 0.506000
v -0.858000 1.232000 -0.506000
v -0.846010 1.232000 -0.597102
v -0.810832 1.232000 -0.682000
v -0.754908 1.232000 -0.754908
v -0.682000 1.232000 -0.810832
v -0.597102 1.232000 -0.846010
v -0.506000 1.232000 -0.858000
v 0.506000 1.232000 -0.858000
v 0.597102 1.232000 -0.846010
v 0.682000 1.232000 -0.810832
v 0.754908 1.232000 -0.754908
v 0.810832 1.232000 -0.682000
v 0.846010 1.232000 -0.597102
v 0.858000 1.232000 -0.506000
v 0.770000 1.320000 0.462000
v 0.759506 1.320000 0.541706
v 0.728728 1.320000 0.616000
v 0.679778 1.320000 0.679778
v 0.616000 1.320000 0.728728
v 0.541706 1.320000 0.759506
v 0.462000 1.320000 0.770000
v -0.462000 1.320000 0.770000
v -0.541706 1.320000 0.759506
v -0.616000 1.320000 0.728728
v -0.679778 1.320000 0.679778
v -0.728728 1.320000 0.616000
v -0.759506 1.320000 0.541706
v -0.770000 1.320000 0.462000
v -0.770000 1.320000 -0.462000
v -0.759506 1.320000 -0.541706
v -0.728728 1.320000 -0.616000
v -0.679778 1.320000 -0.679778
v -0.616000 1.320000 -0.728728
v -0.541706 1.320000 -0.759506
v -0.462000 1.320000 -0.770000
v 0.462000 1.320000 -0.770000
v 0.541706 1.320000 -0.759506
v 0.616000 1.320000 -0.728728
v 0.679778 1.320000 -0.679778
v 0.728728 1.320000 -0.616000
v 0.759506 1.320000 -0.541706
v 0.770000 1.320000 -0.462000
v 0.554400 1.245838 0.300960
v 0.545754 1.245838 0.366564
v 0.520454 1.245838 0.427680
v 0.480172 1.245838 0.480172
v 0.427680 1.245838 0.520454
v 0.366564 1.245838 0.545754
v 0.300960 1.245838 0.554400
v -0.300960 1.245838 0.554400
v -0.366564 1.245838 0.545754
v -0.427680 1.245838 0.520454
v -0.480172 1.245838 0.480172
v -0.520454 1.245838 0.427680
v -0.545754 1.245838 0.366564
v -0.554400 1.245838 0.300960
v -0.554400 1.245838 -0.300960
v -0.545754 1.245838 -0.366564
v -0.520454 1.245838 -0.427680
v -0.480172 1.245838 -0.480172
v -0.427680 1.245838 -0.520454
v -0.366564 1.245838 -0.545754
v -0.300960 1.245838 -0.554400
v 0.300960 1.245838 -0.554400
v 0.366564 1.245838 -0.545754
v 0.427680 1.245838 -0.520454
v 0.480172 1.245838 -0.480172
v 0.520454 1.245838 -0.427680
v 0.545754 1.245838 -0.366564
v 0.554400 1.245838 -0.300960
v 0.323400 1.193170 0.175560
v 0.318362 1.193170 0.213818
v 0.303600 1.193170 0.249480
v 0.280104 1.193170 0.280104
v 0.249480 1.193170 0.303600
v 0.213818 1.193170 0.318362
v 0.175560 1.193170 0.323400
v -0.175560 1.193170 0.323400
v -0.213818 1.193170 0.318362
v -0.249480 1.193170 0.303600
v -0.280104 1.193170 0.280104
v -0.303600 1.193170 0.249480
v -0.318362 1.193170 0.213818
v -0.323400 1.193170 0.175560
v -0.323400 1.193170 -0.175560
v -0.318362 1.193170 -0.213818
v -0.303600 1.193170 -0.249480
v -0.280104 1.193170 -0.280104
v -0.249480 1.193170 -0.303600
v -0.213818 1.193170 -0.318362
v -0.175560 1.193170 -0.323400
v 0.175560 1.193170 -0.323400
v 0.213818 1.193170 -0.318362
v 0.249480 1.193170 -0.303600
v 0.280104 1.193170 -0.280104
v 0.303600 1.193170 -0.249480
v 0.318362 1.193170 -0.213818
v 0.323400 1.193170 -0.175560
v 0.000000 1.166000 -0.000000
v -0.310000 1.300000 0.150000
v -0.310000 1.340000 0.190000
v -0.350000 1.340000 0.150000
v -0.310000 1.311716 0.178284
v -0.333094 1.316906 0.173094
v -0.338284 1.340000 0.178284
v -0.338284 1.311716 0.150000
v -0.310000 1.360000 0.190000
v -0.310000 1.400000 0.150000
v -0.350000 1.360000 0.150000
v -0.310000 1.388284 0.178284
v -0.333094 1.383094 0.173094
v -0.338284 1.388284 0.150000
v -0.338284 1.360000 0.178284
v -0.310000 1.300000 -0.050000
v -0.350000 1.340000 -0.050000
v -0.310000 1.340000 -0.090000
v -0.338284 1.311716 -0.050000
v -0.333094 1.316906 -0.073094
v -0.338284 1.340000 -0.078284
v -0.310000 1.311716 -0.078284
v -0.310000 1.400000 -0.050000
v -0.310000 1.360000 -0.090000
v -0.350000 1.360000 -0.050000
v -0.310000 1.388284 -0.078284
v -0.333094 1.383094 -0.073094
v -0.338284 1.360000 -0.078284
v -0.338284 1.388284 -0.050000
v 0.310000 1.300000 0.150000
v 0.350000 1.340000 0.150000
v 0.310000 1.340000 0.190000
v 0.338284 1.311716 0.150000
v 0.333094 1.316906 0.173094
v 0.338284 1.340000 0.178284
v 0.310000 1.311716 0.178284
v 0.310000 1.400000 0.150000
v 0.310000 1.360000 0.190000
v 0.350000 1.360000 0.150000
v 0.310000 1.388284 0.178284
v 0.333094 1.383094 0.173094
v 0.338284 1.360000 0.178284
v 0.338284 1.388284 0.150000
v 0.310000 1.300000 -0.050000
v 0.310000 1.340000 -0.090000
v 0.350000 1.340000 -0.050000
v 0.310000 1.311716 -0.078284
v 0.333094 1.316906 -0.073094
v 0.338284 1.340000 -0.078284
v 0.338284 1.311716 -0.050000
v 0.310000 1.400000 -0.050000
v 0.350000 1.360000 -0.050000
v 0.310000 1.360000 -0.090000
v 0.338284 1.388284 -0.050000
v 0.333094 1.383094 -0.073094
v 0.338284 1.360000 -0.078284
v 0.310000 1.388284 -0.078284
v 0.000000 1.940000 0.000000
v 0.000000 1.816336 -0.242705
v 0.000000 1.732705 -0.285317
v 0.000000 1.640000 -0.300000
v 0.000000 1.547295 -0.285317
v 0.000000 1.397295 -0.176336
v 0.000000 1.354683 -0.092705
v 0.000000 1.340000 0.000000
v 0.040223 1.925317 -0.083524
v 0.076509 1.882705 -0.158873
v 0.105306 1.816336 -0.218670
v 0.123794 1.732705 -0.257062
v 0.130165 1.640000 -0.270291
v 0.123794 1.547295 -0.257062
v 0.105306 1.463665 -0.218670
v 0.076509 1.397295 -0.158873
v 0.040223 1.354683 -0.083524
v 0.072480 1.925317 -0.057801
v 0.137865 1.882705 -0.109943
v 0.189755 1.816336 -0.151324
v 0.223070 1.732705 -0.177892
v 0.234549 1.640000 -0.187047
v 0.223070 1.547295 -0.177892
v 0.189755 1.463665 -0.151324
v 0.137865 1.397295 -0.109943
v 0.072480 1.354683 -0.057801
v 0.090381 1.925317 -0.020629
v 0.171914 1.882705 -0.039238
v 0.236620 1.816336 -0.054007
v 0.278163 1.732705 -0.063489
v 0.292478 1.640000 -0.066756
v 0.278163 1.547295 -0.063489
v 0.236620 1.463665 -0.054007
v 0.171914 1.397295 -0.039238
v 0.090381 1.354683 -0.020629
v 0.090381 1.925317 0.020629
v 0.171914 1.882705 0.039238
v 0.236620 1.816336 0.054007
v 0.278163 1.732705 0.063489
v 0.292478 1.640000 0.066756
v 0.278163 1.547295 0.063489
v 0.236620 1.463665 0.054007
v 0.171914 1.397295 0.039238
v 0.090381 1.354683 0.020629
v 0.072480 1.925317 0.057801
v 0.137865 1.882705 0.109943
v 0.189754 1.816336 0.151324
v 0.223070 1.732705 0.177892
v 0.234549 1.640000 0.187047
v 0.223070 1.547295 0.177892
v 0.189754 1.463665 0.151324
v 0.137865 1.397295 0.109943
v 0.072480 1.354683 0.057801
v 0.040223 1.925317 0.083524
v 0.076509 1.882705 0.158873
v 0.105306 1.816336 0.218670
v 0.123794 1.732705 0.257062
v 0.130165 1.640000 0.270291
v 0.123794 1.547295 0.257062
v 0.105306 1.463665 0.218670
v 0.076509 1.397295 0.158873
v 0.040223 1.354683 0.083524
v -0.000000 1.925317 0.092705
v -0.000000 1.882705 0.176336
v -0.000000 1.816336 0.242705
v -0.000000 1.732705 0.285317
v -0.000000 1.640000 0.300000
v -0.000000 1.547295 0.285317
v -0.000000 1.463665 0.242705
v -0.000000 1.397295 0.176336
v -0.000000 1.354683 0.092705
v -0.040223 1.925317 0.083524
v -0.076509 1.882705 0.158873
v -0.105306 1.816336 0.218670
v -0.123794 1.732705 0.257062
v -0.130165 1.640000 0.270291
v -0.123794 1.547295 0.257062
v -0.105306 1.463665 0.218670
v -0.076509 1.397295 0.158873
v -0.040223 1.354683 0.083524
v -0.072480 1.925317 0.057801
v -0.137865 1.882705 0.109943
v -0.189755 1.816336 0.151324
v -0.223070 1.732705 0.177892
v -0.234549 1.640000 0.187047
v -0.223070 1.547295 0.177892
v -0.189755 1.463665 0.151324
v -0.137865 1.397295 0.109943
v -0.072480 1.354683 0.057801
v -0.090381 1.925317 0.020629
v -0.171914 1.882705 0.039238
v -0.236620 1.816336 0.054007
v -0.278163 1.732705 0.063489
v -0.292478 1.640000 0.066756
v -0.278163 1.547295 0.063489
v -0.236620 1.463665 0.054007
v -0.171914 1.397295 0.039238
v -0.090381 1.354683 0.020629
v -0.090381 1.925317 -0.020629
v -0.171914 1.882705 -0.039238
v -0.236620 1.816336 -0.054007
v -0.278163 1.732705 -0.063489
v -0.292478 1.640000 -0.066756
v -0.278163 1.547295 -0.063489
v -0.236620 1.463665 -0.054007
v -0.171914 1.397295 -0.039238
v -0.090381 1.354683 -0.020629
v -0.072480 1.925317 -0.057801
v -0.137865 1.882705 -0.109943
v -0.189754 1.816336 -0.151324
v -0.223070 1.732705 -0.177892
v -0.234549 1.640000 -0.187047
v -0.223070 1.547295 -0.177892
v -0.189754 1.463665 -0.151324
v -0.137865 1.397295 -0.109943
v -0.072480 1.354683 -0.057801
v -0.040223 1.925317 -0.083524
v -0.076509 1.882705 -0.158873
v -0.105306 1.816336 -0.218670
v -0.123794 1.732705 -0.257062
v -0.130165 1.640000 -0.270291
v -0.123794 1.547295 -0.257062
v -0.105306 1.463665 -0.218670
v -0.076509 1.397295 -0.158873
v -0.040223 1.354683 -0.083524
v 0.000000 1.925317 -0.092705
v 0.000000 1.882705 -0.176336
v 0.000000 1.463665 -0.242705
v 0.160000 1.840000 -0.040000
v 0.160000 1.827821 -0.101229
v 0.160000 1.741230 -0.187821
v 0.160000 1.680000 -0.200000
v 0.160000 1.532179 -0.101229
v 0.160000 1.520000 -0.040000
v 0.190615 1.827821 -0.093026
v 0.216569 1.793137 -0.137980
v 0.233910 1.741230 -0.168016
v 0.240000 1.680000 -0.178564
v 0.233910 1.618771 -0.168016
v 0.216569 1.566863 -0.137980
v 0.190615 1.532179 -0.093026
v 0.213026 1.827821 -0.070615
v 0.257980 1.793137 -0.096569
v 0.288016 1.741230 -0.113910
v 0.298564 1.680000 -0.120000
v 0.288016 1.618771 -0.113910
v 0.257980 1.566863 -0.096569
v 0.213026 1.532179 -0.070615
v 0.221229 1.827821 -0.040000
v 0.273137 1.793137 -0.040000
v 0.307821 1.741230 -0.040000
v 0.320000 1.680000 -0.040000
v 0.307821 1.618771 -0.040000
v 0.273137 1.566863 -0.040000
v 0.221229 1.532179 -0.040000
v 0.213026 1.827821 -0.009385
v 0.257980 1.793137 0.016569
v 0.288016 1.741230 0.033910
v 0.298564 1.680000 0.040000
v 0.288016 1.618771 0.033910
v 0.257980 1.566863 0.016569
v 0.213026 1.532179 -0.009385
v 0.190615 1.827821 0.013026
v 0.216569 1.793137 0.057980
v 0.233910 1.741230 0.088016
v 0.240000 1.680000 0.098564
v 0.233910 1.618771 0.088016
v 0.216569 1.566863 0.057980
v 0.190615 1.532179 0.013026
v 0.160000 1.827821 0.021229
v 0.160000 1.793137 0.073137
v 0.160000 1.741230 0.107821
v 0.160000 1.680000 0.120000
v 0.160000 1.618771 0.107821
v 0.160000 1.566863 0.073137
v 0.160000 1.532179 0.021229
v 0.129385 1.827821 0.013026
v 0.103431 1.793137 0.057980
v 0.086090 1.741230 0.088016
v 0.080000 1.680000 0.098564
v 0.086090 1.618771 0.088016
v 0.103431 1.566863 0.057980
v 0.129385 1.532179 0.013026
v 0.106974 1.827821 -0.009385
v 0.062020 1.793137 0.016569
v 0.031984 1.741230 0.033910
v 0.021436 1.680000 0.040000
v 0.031984 1.618771 0.033910
v 0.062020 1.566863 0.016569
v 0.106974 1.532179 -0.009385
v 0.098771 1.827821 -0.040000
v 0.046863 1.793137 -0.040000
v 0.012179 1.741230 -0.040000
v 0.000000 1.680000 -0.040000
v 0.012179 1.618771 -0.040000
v 0.046863 1.566863 -0.040000
v 0.098771 1.532179 -0.040000
v 0.106974 1.827821 -0.070615
v 0.062020 1.793137 -0.096569
v 0.031984 1.741230 -0.113910
v 0.021436 1.680000 -0.120000
v 0.031984 1.618771 -0.113910
v 0.062020 1.566863 -0.096569
v 0.106974 1.532179 -0.070615
v 0.129385 1.827821 -0.093026
v 0.103431 1.793137 -0.137980
v 0.086090 1.741230 -0.168016
v 0.080000 1.680000 -0.178564
v 0.086090 1.618771 -0.168016
v 0.103431 1.566863 -0.137980
v 0.129385 1.532179 -0.093026
v 0.160000 1.793137 -0.153137
v 0.160000 1.618771 -0.187821
v 0.160000 1.566863 -0.153137
v 0.000000 1.115000 -0.280000
v 0.000000 1.465000 -0.020000
v 0.140000 1.115000 -0.242487
v 0.010000 1.465000 -0.017321
v 0.242487 1.115000 -0.140000
v 0.017321 1.465000 -0.010000
v 0.280000 1.115000 0.000000
v 0.020000 1.465000 0.000000
v 0.242487 1.115000 0.140000
v 0.017321 1.465000 0.010000
v 0.140000 1.115000 0.242487
v 0.010000 1.465000 0.017321
v 0.000000 1.115000 0.280000
v 0.000000 1.465000 0.020000
v -0.140000 1.115000 0.242487
v -0.010000 1.465000 0.017321
v -0.242487 1.115000 0.140000
v -0.017321 1.465000 0.010000
v -0.280000 1.115000 0.000000
v -0.020000 1.465000 0.000000
v -0.242487 1.115000 -0.140000
v -0.017321 1.465000 -0.010000
v -0.140000 1.115000 -0.242487
v -0.010000 1.465000 -0.017321
v -0.030000 0.950000 0.030000
v -0.030000 0.990000 0.070000
v -0.070000 0.990000 0.030000
v -0.030000 0.961716 0.058284
v -0.053094 0.966906 0.053094
v -0.058284 0.990000 0.058284
v -0.058284 0.961716 0.030000
v -0.030000 1.130000 0.070000
v -0.030000 1.170000 0.030000
v -0.070000 1.130000 0.030000
v -0.030000 1.158284 0.058284
v -0.053094 1.153094 0.053094
v -0.058284 1.158284 0.030000
v -0.058284 1.130000 0.058284
v -0.030000 0.950000 -0.030000
v -0.070000 0.990000 -0.030000
v -0.030000 0.990000 -0.070000
v -0.058284 0.961716 -0.030000
v -0.053094 0.966906 -0.053094
v -0.058284 0.990000 -0.058284
v -0.030000 0.961716 -0.058284
v -0.030000 1.170000 -0.030000
v -0.030000 1.130000 -0.070000
v -0.070000 1.130000 -0.030000
v -0.030000 1.158284 -0.058284
v -0.053094 1.153094 -0.053094
v -0.058284 1.130000 -0.058284
v -0.058284 1.158284 -0.030000
v 0.030000 0.950000 0.030000
v 0.070000 0.990000 0.030000
v 0.030000 0.990000 0.070000
v 0.058284 0.961716 0.030000
v 0.053094 0.966906 0.053094
v 0.058284 0.990000 0.058284
v 0.030000 0.961716 0.058284
v 0.030000 1.170000 0.030000
v 0.030000 1.130000 0.070000
v 0.070000 1.130000 0.030000
v 0.030000 1.158284 0.058284
v 0.053094 1.153094 0.053094
v 0.058284 1.130000 0.058284
v 0.058284 1.158284 0.030000
v 0.030000 0.950000 -0.030000
v 0.030000 0.990000 -0.070000
v 0.070000 0.990000 -0.030000
v 0.030000 0.961716 -0.058284
v 0.053094 0.966906 -0.053094
v 0.058284 0.990000 -0.058284
v 0.058284 0.961716 -0.030000
v 0.030000 1.170000 -0.030000
v 0.070000 1.130000 -0.030000
v 0.030000 1.130000 -0.070000
v 0.058284 1.158284 -0.030000
v 0.053094 1.153094 -0.053094
v 0.058284 1.130000 -0.058284
v 0.030000 1.158284 -0.058284
vn 0.5454 -0.8382 0.0059
vn 0.6507 -0.7302 0.2086
vn -0.0000 -1.0000 -0.0000
vn 0.5497 -0.7567 0.3539
vn 0.4321 -0.7658 0.4762
vn 0.2977 -0.7593 0.5786
vn 0.1433 -0.7360 0.6616
vn 0.0022 -0.6372 0.7707
vn -0.0059 -0.8382 0.5454
vn -0.2086 -0.7302 0.6507
vn -0.3539 -0.7567 0.5497
vn -0.4762 -0.7658 0.4321
vn -0.5786 -0.7593 0.2977
vn -0.6616 -0.7360 0.1433
vn -0.7707 -0.6372 0.0022
vn -0.5454 -0.8382 -0.0059
vn -0.6507 -0.7302 -0.2086
vn -0.5497 -0.7567 -0.3539
vn -0.4321 -0.7658 -0.4762
vn -0.2977 -0.7593 -0.5786
vn -0.1433 -0.7360 -0.6616
vn -0.0022 -0.6372 -0.7707
vn 0.0059 -0.8382 -0.5454
vn 0.2086 -0.7302 -0.6507
vn 0.3539 -0.7567 -0.5497
vn 0.4762 -0.7658 -0.4321
vn 0.5786 -0.7593 -0.2977
vn 0.6616 -0.7360 -0.1433
vn 0.7707 -0.6372 -0.0022
vn 0.9336 0.2495 0.2571
vn 0.9807 0.1955 0.0071
vn 0.8273 0.2828 0.4853
vn 0.6713 0.2936 0.6806
vn 0.4740 0.2818 0.8342
vn 0.2443 0.2473 0.9376
vn 0.0075 0.1940 0.9810
vn -0.0071 0.1955 0.9807
vn -0.2571 0.2495 0.9336
vn -0.4853 0.2828 0.8273
vn -0.6806 0.2936 0.6713
vn -0.8342 0.2818 0.4740
vn -0.9376 0.2473 0.2443
vn -0.9810 0.1940 0.0075
vn -0.9807 0.1955 -0.0071
vn -0.9336 0.2495 -0.2571
vn -0.8273 0.2828 -0.4853
vn -0.6713 0.2936 -0.6806
vn -0.4740 0.2818 -0.8342
vn -0.2443 0.2473 -0.9376
vn -0.0075 0.1940 -0.9810
vn 0.0071 0.1955 -0.9807
vn 0.2571 0.2495 -0.9336
vn 0.4853 0.2828 -0.8273
vn 0.6806 0.2936 -0.6713
vn 0.8342 0.2818 -0.4740
vn 0.9376 0.2473 -0.2443
vn 0.9810 0.1940 -0.0075
vn 0.9174 0.3339 0.2164
vn 0.9708 0.2397 0.0057
vn 0.8183 0.3697 0.4401
vn 0.6726 0.3829 0.6332
vn 0.4878 0.3737 0.7889
vn 0.2705 0.3419 0.9000
vn 0.0155 0.3346 0.9422
vn -0.0056 0.2398 0.9708
vn -0.2164 0.3339 0.9174
vn -0.4401 0.3697 0.8183
vn -0.6332 0.3829 0.6726
vn -0.7889 0.3737 0.4878
vn -0.9000 0.3419 0.2705
vn -0.9422 0.3346 0.0155
vn -0.9708 0.2398 -0.0056
vn -0.9174 0.3339 -0.2164
vn -0.8183 0.3697 -0.4401
vn -0.6726 0.3829 -0.6332
vn -0.4878 0.3737 -0.7889
vn -0.2705 0.3419 -0.9000
vn -0.0155 0.3346 -0.9422
vn 0.0056 0.2398 -0.9708
vn 0.2164 0.3339 -0.9174
vn 0.4401 0.3697 -0.8183
vn 0.6332 0.3829 -0.6726
vn 0.7889 0.3737 -0.4878
vn 0.9000 0.3419 -0.2705
vn 0.9422 0.3346 -0.0155
vn 0.0685 0.9976 -0.0031
vn 0.2319 0.9727 -0.0012
vn 0.0622 0.9980 0.0137
vn 0.0553 0.9981 0.0287
vn 0.0473 0.9979 0.0432
vn 0.0375 0.9976 0.0587
vn 0.0027 0.9987 -0.0509
vn 0.0012 0.9727 0.2319
vn 0.0031 0.9976 0.0685
vn -0.0137 0.9980 0.0622
vn -0.0287 0.9981 0.0553
vn -0.0432 0.9979 0.0473
vn -0.0587 0.9976 0.0375
vn 0.0509 0.9987 0.0027
vn -0.2319 0.9727 0.0012
vn -0.0685 0.9976 0.0031
vn -0.0622 0.9980 -0.0137
vn -0.0553 0.9981 -0.0287
vn -0.0473 0.9979 -0.0432
vn -0.0375 0.9976 -0.0587
vn -0.0027 0.9987 0.0509
vn -0.0012 0.9727 -0.2319
vn -0.0031 0.9976 -0.0685
vn 0.0137 0.9980 -0.0622
vn 0.0287 0.9981 -0.0553
vn 0.0432 0.9979 -0.0473
vn 0.0587 0.9976 -0.0375
vn -0.0509 0.9987 -0.0027
vn -0.2401 0.9689 -0.0590
vn -0.2915 0.9566 -0.0026
vn -0.2006 0.9734 -0.1104
vn -0.1608 0.9749 -0.1543
vn -0.1178 0.9738 -0.1945
vn -0.0680 0.9698 -0.2341
vn -0.0045 0.9649 -0.2627
vn 0.0026 0.9566 -0.2915
vn 0.0590 0.9689 -0.2401
vn 0.1104 0.9734 -0.2007
vn 0.1543 0.9749 -0.1608
vn 0.1945 0.9738 -0.1178
vn 0.2341 0.9698 -0.0680
vn 0.2627 0.9649 -0.0045
vn 0.2915 0.9566 0.0026
vn 0.2401 0.9689 0.0590
vn 0.2006 0.9734 0.1104
vn 0.1608 0.9749 0.1543
vn 0.1178 0.9738 0.1945
vn 0.0680 0.9698 0.2341
vn 0.0045 0.9649 0.2627
vn -0.0026 0.9566 0.2915
vn -0.0590 0.9689 0.2401
vn -0.1104 0.9734 0.2007
vn -0.1543 0.9749 0.1608
vn -0.1945 0.9738 0.1178
vn -0.2341 0.9698 0.0680
vn -0.2627 0.9649 0.0045
vn -0.1449 0.9889 -0.0316
vn -0.1735 0.9848 -0.0011
vn -0.1228 0.9904 -0.0633
vn -0.0995 0.9909 -0.0905
vn -0.0738 0.9906 -0.1150
vn -0.0441 0.9894 -0.1380
vn -0.0036 0.9892 -0.1463
vn 0.0011 0.9848 -0.1735
vn 0.0316 0.9889 -0.1449
vn 0.0633 0.9904 -0.1228
vn 0.0905 0.9909 -0.0995
vn 0.1150 0.9906 -0.0738
vn 0.1381 0.9894 -0.0441
vn 0.1463 0.9892 -0.0036
vn 0.1735 0.9848 0.0011
vn 0.1449 0.9889 0.0316
vn 0.1228 0.9904 0.0633
vn 0.0995 0.9909 0.0905
vn 0.0738 0.9906 0.1150
vn 0.0441 0.9894 0.1380
vn 0.0036 0.9892 0.1463
vn -0.0011 0.9848 0.1735
vn -0.0316 0.9889 0.1449
vn -0.0633 0.9904 0.1228
vn -0.0905 0.9909 0.0995
vn -0.1150 0.9906 0.0738
vn -0.1381 0.9894 0.0441
vn -0.1463 0.9892 0.0036
vn -0.0000 1.0000 -0.0000
vn -0.1794 -0.9673 0.1794
vn -0.1726 -0.6965 0.6965
vn -0.5773 -0.5774 0.5773
vn -0.6965 -0.6965 0.1726
vn -0.1794 -0.1794 0.9673
vn -0.6965 -0.1726 0.6965
vn -0.9673 -0.1794 0.1794
vn -0.1794 0.1794 0.9673
vn -0.1726 0.6965 0.6965
vn -0.5774 0.5773 0.5774
vn -0.6965 0.1726 0.6965
vn -0.1794 0.9673 0.1794
vn -0.6965 0.6965 0.1726
vn -0.9673 0.1794 0.1794
vn -0.1794 -0.9673 -0.1794
vn -0.6965 -0.6965 -0.1726
vn -0.5773 -0.5774 -0.5773
vn -0.1726 -0.6965 -0.6965
vn -0.9673 -0.1794 -0.1794
vn -0.6965 -0.1726 -0.6965
vn -0.1794 -0.1794 -0.9673
vn -0.1794 0.9673 -0.1794
vn -0.1726 0.6965 -0.6965
vn -0.5774 0.5773 -0.5774
vn -0.6965 0.6965 -0.1726
vn -0.1794 0.1794 -0.9673
vn -0.6965 0.1726 -0.6965
vn -0.9673 0.1794 -0.1794
vn 0.1794 -0.9673 0.1794
vn 0.6965 -0.6965 0.1726
vn 0.5773 -0.5774 0.5773
vn 0.1726 -0.6965 0.6965
vn 0.9673 -0.1794 0.1794
vn 0.6965 -0.1726 0.6965
vn 0.1794 -0.1794 0.9673
vn 0.1794 0.9673 0.1794
vn 0.1726 0.6965 0.6965
vn 0.5774 0.5773 0.5774
vn 0.6965 0.6965 0.1726
vn 0.1794 0.1794 0.9673
vn 0.6965 0.1726 0.6965
vn 0.9673 0.1794 0.1794
vn 0.1794 -0.9673 -0.1794
vn 0.1726 -0.6965 -0.6965
vn 0.5773 -0.5774 -0.5773
vn 0.6965 -0.6965 -0.1726
vn 0.1794 -0.1794 -0.9673
vn 0.6965 -0.1726 -0.6965
vn 0.9673 -0.1794 -0.1794
vn 0.1794 0.9673 -0.1794
vn 0.6965 0.6965 -0.1726
vn 0.5774 0.5773 -0.5774
vn 0.1726 0.6965 -0.6965
vn 0.9673 0.1794 -0.1794
vn 0.6965 0.1726 -0.6965
vn 0.1794 0.1794 -0.9673
vn -0.0000 0.9444 -0.3289
vn 0.1427 0.9444 -0.2964
vn -0.0000 -0.7985 -0.6020
vn -0.0000 -0.5774 -0.8164
vn 0.3542 -0.5774 -0.7356
vn 0.2612 -0.7985 -0.5424
vn -0.0000 -0.0000 -1.0000
vn -0.0000 0.3027 -0.9531
vn 0.4135 0.3027 -0.8587
vn 0.4339 -0.0000 -0.9010
vn -0.0000 0.7985 -0.6020
vn 0.2612 0.7985 -0.5424
vn -0.0000 -0.9444 -0.3289
vn 0.1427 -0.9444 -0.2964
vn -0.0000 -0.3027 -0.9531
vn 0.4135 -0.3027 -0.8587
vn -0.0000 0.5774 -0.8164
vn 0.3542 0.5774 -0.7356
vn 0.6383 -0.5774 -0.5090
vn 0.4707 -0.7985 -0.3753
vn 0.7452 0.3027 -0.5942
vn 0.7818 -0.0000 -0.6235
vn 0.2572 0.9444 -0.2051
vn 0.4707 0.7985 -0.3753
vn 0.2572 -0.9444 -0.2051
vn 0.7452 -0.3027 -0.5942
vn 0.6383 0.5774 -0.5090
vn 0.7960 0.5774 -0.1817
vn 0.9292 0.3027 -0.2121
vn 0.3207 0.9444 -0.0732
vn 0.7960 -0.5774 -0.1817
vn 0.5869 -0.7985 -0.1340
vn 0.9749 -0.0000 -0.2225
vn 0.5869 0.7985 -0.1340
vn 0.3207 -0.9444 -0.0732
vn 0.9292 -0.3027 -0.2121
vn 0.9292 -0.3027 0.2121
vn 0.7960 -0.5774 0.1817
vn 0.7960 0.5774 0.1817
vn 0.9292 0.3027 0.2121
vn 0.3207 0.9444 0.0732
vn 0.5869 -0.7985 0.1340
vn 0.9749 -0.0000 0.2225
vn 0.5869 0.7985 0.1340
vn 0.3207 -0.9444 0.0732
vn 0.4707 0.7985 0.3753
vn 0.6383 0.5774 0.5090
vn 0.2572 -0.9444 0.2051
vn 0.7452 -0.3027 0.5942
vn 0.6383 -0.5774 0.5090
vn 0.7452 0.3027 0.5942
vn 0.2572 0.9444 0.2051
vn 0.4707 -0.7985 0.3753
vn 0.7818 -0.0000 0.6235
vn 0.2612 -0.7985 0.5424
vn 0.1427 -0.9444 0.2964
vn 0.4339 -0.0000 0.9010
vn 0.4135 -0.3027 0.8587
vn 0.2612 0.7985 0.5424
vn 0.3542 0.5774 0.7356
vn 0.3542 -0.5774 0.7356
vn 0.4135 0.3027 0.8587
vn 0.1427 0.9444 0.2964
vn -0.0000 0.3027 0.9531
vn -0.0000 -0.0000 1.0000
vn -0.0000 0.9444 0.3289
vn -0.0000 0.7985 0.6020
vn -0.0000 -0.7985 0.6020
vn -0.0000 -0.9444 0.3289
vn -0.0000 -0.3027 0.9531
vn -0.0000 0.5774 0.8164
vn -0.0000 -0.5774 0.8164
vn -0.1427 0.9444 0.2964
vn -0.3542 -0.5774 0.7356
vn -0.2612 -0.7985 0.5424
vn -0.4135 0.3027 0.8587
vn -0.4339 -0.0000 0.9010
vn -0.2612 0.7985 0.5424
vn -0.1427 -0.9444 0.2964
vn -0.4135 -0.3027 0.8587
vn -0.3542 0.5774 0.7356
vn -0.6383 0.5774 0.5090
vn -0.7452 0.3027 0.5942
vn -0.2572 0.9444 0.2051
vn -0.6383 -0.5774 0.5090
vn -0.4707 -0.7985 0.3753
vn -0.7818 -0.0000 0.6235
vn -0.4707 0.7985 0.3753
vn -0.2572 -0.9444 0.2051
vn -0.7452 -0.3027 0.5942
vn -0.3207 -0.9444 0.0732
vn -0.9292 -0.3027 0.2121
vn -0.7960 -0.5774 0.1817
vn -0.7960 0.5774 0.1817
vn -0.9292 0.3027 0.2121
vn -0.3207 0.9444 0.0732
vn -0.5869 -0.7985 0.1340
vn -0.9749 -0.0000 0.2225
vn -0.5869 0.7985 0.1340
vn -0.9749 -0.0000 -0.2225
vn -0.9292 -0.3027 -0.2121
vn -0.5869 0.7985 -0.1340
vn -0.7960 0.5774 -0.1817
vn -0.3207 -0.9444 -0.0732
vn -0.7960 -0.5774 -0.1817
vn -0.9292 0.3027 -0.2121
vn -0.3207 0.9444 -0.0732
vn -0.5869 -0.7985 -0.1340
vn -0.2572 0.9444 -0.2051
vn -0.4707 0.7985 -0.3753
vn -0.4707 -0.7985 -0.3753
vn -0.2572 -0.9444 -0.2051
vn -0.7818 -0.0000 -0.6235
vn -0.7452 -0.3027 -0.5942
vn -0.6383 0.5774 -0.5090
vn -0.6383 -0.5774 -0.5090
vn -0.7452 0.3027 -0.5942
vn -0.4135 0.3027 -0.8587
vn -0.4339 -0.0000 -0.9010
vn -0.1427 0.9444 -0.2964
vn -0.2612 0.7985 -0.5424
vn -0.2612 -0.7985 -0.5424
vn -0.1427 -0.9444 -0.2964
vn -0.4135 -0.3027 -0.8587
vn -0.3542 0.5774 -0.7356
vn -0.3542 -0.5774 -0.7356
vn -0.0000 -0.9122 -0.4097
vn 0.2049 -0.9122 -0.3548
vn -0.0000 -0.6913 -0.7226
vn -0.0000 -0.3718 -0.9283
vn 0.4642 -0.3718 -0.8040
vn 0.3613 -0.6913 -0.6258
vn -0.0000 0.3718 -0.9283
vn 0.4642 0.3718 -0.8040
vn 0.5000 -0.0000 -0.8660
vn -0.0000 0.6913 -0.7226
vn -0.0000 0.9122 -0.4097
vn 0.2048 0.9122 -0.3548
vn 0.3613 0.6913 -0.6258
vn 0.3548 0.9122 -0.2049
vn 0.6258 0.6913 -0.3613
vn 0.6258 -0.6913 -0.3613
vn 0.3548 -0.9122 -0.2049
vn 0.8660 -0.0000 -0.5000
vn 0.8040 -0.3718 -0.4642
vn 0.8040 0.3718 -0.4642
vn 0.7226 -0.6913 -0.0000
vn 0.4097 -0.9122 -0.0000
vn 1.0000 -0.0000 -0.0000
vn 0.9283 -0.3718 -0.0000
vn 0.7226 0.6913 -0.0000
vn 0.9283 0.3718 -0.0000
vn 0.4097 0.9122 -0.0000
vn 0.3548 0.9122 0.2049
vn 0.3548 -0.9122 0.2049
vn 0.8040 -0.3718 0.4642
vn 0.6258 -0.6913 0.3613
vn 0.8040 0.3718 0.4642
vn 0.8660 -0.0000 0.5000
vn 0.6258 0.6913 0.3613
vn 0.4642 -0.3718 0.8040
vn 0.3613 -0.6913 0.6258
vn 0.4642 0.3718 0.8040
vn 0.5000 -0.0000 0.8660
vn 0.2049 0.9122 0.3548
vn 0.3613 0.6913 0.6258
vn 0.2049 -0.9122 0.3548
vn -0.0000 -0.6913 0.7226
vn -0.0000 -0.9122 0.4097
vn -0.0000 -0.3718 0.9283
vn -0.0000 0.6913 0.7226
vn -0.0000 0.3718 0.9283
vn -0.0000 0.9122 0.4097
vn -0.5000 -0.0000 0.8660
vn -0.4642 -0.3718 0.8040
vn -0.3613 0.6913 0.6258
vn -0.4642 0.3718 0.8040
vn -0.2049 0.9122 0.3548
vn -0.2049 -0.9122 0.3548
vn -0.3613 -0.6913 0.6258
vn -0.3548 -0.9122 0.2049
vn -0.8040 -0.3718 0.4642
vn -0.6258 -0.6913 0.3613
vn -0.8040 0.3718 0.4642
vn -0.8660 -0.0000 0.5000
vn -0.3548 0.9122 0.2049
vn -0.6258 0.6913 0.3613
vn -0.9283 0.3718 -0.0000
vn -1.0000 -0.0000 -0.0000
vn -0.4097 0.9122 -0.0000
vn -0.7226 0.6913 -0.0000
vn -0.7226 -0.6913 -0.0000
vn -0.4097 -0.9122 -0.0000
vn -0.9283 -0.3718 -0.0000
vn -0.6258 -0.6913 -0.3613
vn -0.3548 -0.9122 -0.2049
vn -0.8660 -0.0000 -0.5000
vn -0.8040 -0.3718 -0.4642
vn -0.6258 0.6913 -0.3613
vn -0.8040 0.3718 -0.4642
vn -0.3548 0.9122 -0.2049
vn -0.3613 0.6913 -0.6258
vn -0.4642 0.3718 -0.8040
vn -0.2049 0.9122 -0.3548
vn -0.2049 -0.9122 -0.3548
vn -0.4642 -0.3718 -0.8040
vn -0.3613 -0.6913 -0.6258
vn -0.5000 -0.0000 -0.8660
vn -0.0000 -0.3990 -0.9169
vn -0.0000 0.8631 -0.5050
vn 0.2525 0.8631 -0.4373
vn 0.4585 -0.3990 -0.7941
vn 0.4373 0.8631 -0.2525
vn 0.7941 -0.3990 -0.4585
vn 0.5050 0.8631 -0.0000
vn 0.9169 -0.3990 -0.0000
vn 0.4373 0.8631 0.2525
vn 0.7941 -0.3990 0.4585
vn 0.2525 0.8631 0.4373
vn 0.4585 -0.3990 0.7941
vn -0.0000 0.8631 0.5050
vn -0.0000 -0.3990 0.9169
vn -0.2525 0.8631 0.4373
vn -0.4585 -0.3990 0.7941
vn -0.4373 0.8631 0.2525
vn -0.7941 -0.3990 0.4585
vn -0.5049 0.8631 -0.0000
vn -0.9169 -0.3990 -0.0000
vn -0.4373 0.8631 -0.2525
vn -0.7941 -0.3990 -0.4585
vn -0.2525 0.8631 -0.4373
vn -0.4585 -0.3990 -0.7941
vn -0.5774 -0.5774 0.5774
vn -0.5774 -0.5774 -0.5774
vn 0.5773 -0.5774 0.5774
vn 0.5773 -0.5774 -0.5774
s 1
f 2//1 3//2 1//3
f 3//2 4//4 1//3
f 4//4 5//5 1//3
f 5//5 6//6 1//3
f 6//6 7//7 1//3
f 7//7 8//8 1//3
f 8//8 9//9 1//3
f 9//9 10//10 1//3
f 10//10 11//11 1//3
f 11//11 12//12 1//3
f 12//12 13//13 1//3
f 13//13 14//14 1//3
f 14//14 15//15 1//3
f 15//15 16//16 1//3
f 16//16 17//17 1//3
f 17//17 18//18 1//3
f 18//18 19//19 1//3
f 19//19 20//20 1//3
f 20//20 21//21 1//3
f 21//21 22//22 1//3
f 22//22 23//23 1//3
f 23//23 24//24 1//3
f 24//24 25//25 1//3
f 25//25 26//26 1//3
f 26//26 27//27 1//3
f 27//27 28//28 1//3
f 28//28 29//29 1//3
f 29//29 2//1 1//3
f 31//30 3//2 2//1
f 30//31 31//30 2//1
f 32//32 4//4 3//2
f 31//30 32//32 3//2
f 33//33 5//5 4//4
f 32//32 33//33 4//4
f 34//34 6//6 5//5
f 33//33 34//34 5//5
f 35//35 7//7 6//6
f 34//34 35//35 6//6
f 36//36 8//8 7//7
f 35//35 36//36 7//7
f 37//37 9//9 8//8
f 36//36 37//37 8//8
f 38//38 10//10 9//9
f 37//37 38//38 9//9
f 39//39 11//11 10//10
f 38//38 39//39 10//10
f 40//40 12//12 11//11
f 39//39 40//40 11//11
f 41//41 13//13 12//12
f 40//40 41//41 12//12
f 42//42 14//14 13//13
f 41//41 42//42 13//13
f 43//43 15//15 14//14
f 42//42 43//43 14//14
f 44//44 16//16 15//15
f 43//43 44//44 15//15
f 45//45 17//17 16//16
f 44//44 45//45 16//16
f 46//46 18//18 17//17
f 45//45 46//46 17//17
f 47//47 19//19 18//18
f 46//46 47//47 18//18
f 48//48 20//20 19//19
f 47//47 48//48 19//19
f 49//49 21//21 20//20
f 48//48 49//49 20//20
f 50//50 22//22 21//21
f 49//49 50//50 21//21
f 51//51 23//23 22//22
f 50//50 51//51 22//22
f 52//52 24//24 23//23
f 51//51 52//52 23//23
f 53//53 25//25 24//24
f 52//52 53//53 24//24
f 54//54 26//26 25//25
f 53//53 54//54 25//25
f 55//55 27//27 26//26
f 54//54 55//55 26//26
f 56//56 28//28 27//27
f 55//55 56//56 27//27
f 57//57 29//29 28//28
f 56//56 57//57 28//28
f 30//31 2//1 29//29
f 57//57 30//31 29//29
f 59//58 31//30 30//31
f 58//59 59//58 30//31
f 60//60 32//32 31//30
f 59//58 60//60 31//30
f 61//61 33//33 32//32
f 60//60 61//61 32//32
f 62//62 34//34 33//33
f 61//61 62//62 33//33
f 63//63 35//35 34//34
f 62//62 63//63 34//34
f 64//64 36//36 35//35
f 63//63 64//64 35//35
f 65//65 37//37 36//36
f 64//64 65//65 36//36
f 66//66 38//38 37//37
f 65//65 66//66 37//37
f 67//67 39//39 38//38
f 66//66 67//67 38//38
f 68//68 40//40 39//39
f 67//67 68//68 39//39
f 69//69 41//41 40//40
f 68//68 69//69 40//40
f 70//70 42//42 41//41
f 69//69 70//70 41//41
f 71//71 43//43 42//42
f 70//70 71//71 42//42
f 72//72 44//44 43//43
f 71//71 72//72 43//43
f 73//73 45//45 44//44
f 72//72 73//73 44//44
f 74//74 46//46 45//45
f 73//73 74//74 45//45
f 75//75 47//47 46//46
f 74//74 75//75 46//46
f 76//76 48//48 47//47
f 75//75 76//76 47//47
f 77//77 49//49 48//48
f 76//76 77//77 48//48
f 78//78 50//50 49//49
f 77//77 78//78 49//49
f 79//79 51//51 50//50
f 78//78 79//79 50//50
f 80//80 52//52 51//51
f 79//79 80//80 51//51
f 81//81 53//53 52//52
f 80//80 81//81 52//52
f 82//82 54//54 53//53
f 81//81 82//82 53//53
f 83//83 55//55 54//54
f 82//82 83//83 54//54
f 84//84 56//56 55//55
f 83//83 84//84 55//55
f 85//85 57//57 56//56
f 84//84 85//85 56//56
f 58//59 30//31 57//57
f 85//85 58//59 57//57
f 87//86 59//58 58//59
f 86//87 87//86 58//59
f 88//88 60//60 59//58
f 87//86 88//88 59//58
f 89//89 61//61 60//60
f 88//88 89//89 60//60
f 90//90 62//62 61//61
f 89//89 90//90 61//61
f 91//91 63//63 62//62
f 90//90 91//91 62//62
f 92//92 64//64 63//63
f 91//91 92//92 63//63
f 93//93 65//65 64//64
f 92//92 93//93 64//64
f 94//94 66//66 65//65
f 93//93 94//94 65//65
f 95//95 67//67 66//66
f 94//94 95//95 66//66
f 96//96 68//68 67//67
f 95//95 96//96 67//67
f 97//97 69//69 68//68
f 96//96 97//97 68//68
f 98//98 70//70 69//69
f 97//97 98//98 69//69
f 99//99 71//71 70//70
f 98//98 99//99 70//70
f 100//100 72//72 71//71
f 99//99 100//100 71//71
f 101//101 73//73 72//72
f 100//100 101//101 72//72
f 102//102 74//74 73//73
f 101//101 102//102 73//73
f 103//103 75//75 74//74
f 102//102 103//103 74//74
f 104//104 76//76 75//75
f 103//103 104//104 75//75
f 105//105 77//77 76//76
f 104//104 105//105 76//76
f 106//106 78//78 77//77
f 105//105 106//106 77//77
f 107//107 79//79 78//78
f 106//106 107//107 78//78
f 108//108 80//80 79//79
f 107//107 108//108 79//79
f 109//109 81//81 80//80
f 108//108 109//109 80//80
f 110//110 82//82 81//81
f 109//109 110//110 81//81
f 111//111 83//83 82//82
f 110//110 111//111 82//82
f 112//112 84//84 83//83
f 111//111 112//112 83//83
f 113//113 85//85 84//84
f 112//112 113//113 84//84
f 86//87 58//59 85//85
f 113//113 86//87 85//85
f 115//114 87//86 86//87
f 114//115 115//114 86//87
f 116//116 88//88 87//86
f 115//114 116//116 87//86
f 117//117 89//89 88//88
f 116//116 117//117 88//88
f 118//118 90//90 89//89
f 117//117 118//118 89//89
f 119//119 91//91 90//90
f 118//118 119//119 90//90
f 120//120 92//92 91//91
f 119//119 120//120 91//91
f 121//121 93//93 92//92
f 120//120 121//121 92//92
f 122//122 94//94 93//93
f 121//121 122//122 93//93
f 123//123 95//95 94//94
f 122//122 123//123 94//94
f 124//124 96//96 95//95
f 123//123 124//124 95//95
f 125//125 97//97 96//96
f 124//124 125//125 96//96
f 126//126 98//98 97//97
f 125//125 126//126 97//97
f 127//127 99//99 98//98
f 126//126 127//127 98//98
f 128//128 100//100 99//99
f 127//127 128//128 99//99
f 129//129 101//101 100//100
f 128//128 129//129 100//100
f 130//130 102//102 101//101
f 129//129 130//130 101//101
f 131//131 103//103 102//102
f 130//130 131//131 102//102
f 132//132 104//104 103//103
f 131//131 132//132 103//103
f 133//133 105//105 104//104
f 132//132 133//133 104//104
f 134//134 106//106 105//105
f 133//133 134//134 105//105
f 135//135 107//107 106//106
f 134//134 135//135 106//106
f 136//136 108//108 107//107
f 135//135 136//136 107//107
f 137//137 109//109 108//108
f 136//136 137//137 108//108
f 138//138 110//110 109//109
f 137//137 138//138 109//109
f 139//139 111//111 110//110
f 138//138 139//139 110//110
f 140//140 112//112 111//111
f 139//139 140//140 111//111
f 141//141 113//113 112//112
f 140//140 141//141 112//112
f 114//115 86//87 113//113
f 141//141 114//115 113//113
f 143//142 115//114 114//115
f 142//143 143//142 114//115
f 144//144 116//116 115//114
f 143//142 144//144 115//114
f 145//145 117//117 116//116
f 144//144 145//145 116//116
f 146//146 118//118 117//117
f 145//145 146//146 117//117
f 147//147 119//119 118//118
f 146//146 147//147 118//118
f 148//148 120//120 119//119
f 147//147 148//148 119//119
f 149//149 121//121 120//120
f 148//148 149//149 120//120
f 150//150 122//122 121//121
f 149//149 150//150 121//121
f 151//151 123//123 122//122
f 150//150 151//151 122//122
f 152//152 124//124 123//123
f 151//151 152//152 123//123
f 153//153 125//125 124//124
f 152//152 153//153 124//124
f 154//154 126//126 125//125
f 153//153 154//154 125//125
f 155//155 127//127 126//126
f 154//154 155//155 126//126
f 156//156 128//128 127//127
f 155//155 156//156 127//127
f 157//157 129//129 128//128
f 156//156 157//157 128//128
f 158//158 130//130 129//129
f 157//157 158//158 129//129
f 159//159 131//131 130//130
f 158//158 159//159 130//130
f 160//160 132//132 131//131
f 159//159 160//160 131//131
f 161//161 133//133 132//132
f 160//160 161//161 132//132
f 162//162 134//134 133//133
f 161//161 162//162 133//133
f 163//163 135//135 134//134
f 162//162 163//163 134//134
f 164//164 136//136 135//135
f 163//163 164//164 135//135
f 165//165 137//137 136//136
f 164//164 165//165 136//136
f 166//166 138//138 137//137
f 165//165 166//166 137//137
f 167//167 139//139 138//138
f 166//166 167//167 138//138
f 168//168 140//140 139//139
f 167//167 168//168 139//139
f 169//169 141//141 140//140
f 168//168 169//169 140//140
f 142//143 114//115 141//141
f 169//169 142//143 141//141
f 170//170 143//142 142//143
f 170//170 144//144 143//142
f 170//170 145//145 144//144
f 170//170 146//146 145//145
f 170//170 147//147 146//146
f 170//170 148//148 147//147
f 170//170 149//149 148//148
f 170//170 150//150 149//149
f 170//170 151//151 150//150
f 170//170 152//152 151//151
f 170//170 153//153 152//152
f 170//170 154//154 153//153
f 170//170 155//155 154//154
f 170//170 156//156 155//155
f 170//170 157//157 156//156
f 170//170 158//158 157//157
f 170//170 159//159 158//158
f 170//170 160//160 159//159
f 170//170 161//161 160//160
f 170//170 162//162 161//161
f 170//170 163//163 162//162
f 170//170 164//164 163//163
f 170//170 165//165 164//164
f 170//170 166//166 165//165
f 170//170 167//167 166//166
f 170//170 168//168 167//167
f 170//170 169//169 168//168
f 170//170 142//143 169//169
f 171//171 174//172 175//173 177//174
f 172//175 176//176 175//173 174//172
f 173//177 177//174 175//173 176//176
f 178//178 181//179 182//180 184//181
f 179//182 183//183 182//180 181//179
f 180//184 184//181 182//180 183//183
f 185//185 188//186 189//187 191//188
f 186//189 190//190 189//187 188//186
f 187//191 191//188 189//187 190//190
f 192//192 195//193 196//194 198//195
f 193//196 197//197 196//194 195//193
f 194//198 198//195 196//194 197//197
f 199//199 202//200 203//201 205//202
f 200//203 204//204 203//201 202//200
f 201//205 205//202 203//201 204//204
f 206//206 209//207 210//208 212//209
f 207//210 211//211 210//208 209//207
f 208//212 212//209 210//208 211//211
f 213//213 216//214 217//215 219//216
f 214//217 218//218 217//215 216//214
f 215//219 219//216 217//215 218//218
f 220//220 223//221 224//222 226//223
f 221//224 225//225 224//222 223//221
f 222//226 226//223 224//222 225//225
f 185//185 171//171 177//174 188//186
f 188//186 177//174 173//177 186//189
f 172//175 178//178 184//181 176//176
f 176//176 184//181 180//184 173//177
f 179//182 192//192 198//195 183//183
f 183//183 198//195 194//198 180//184
f 193//196 187//191 190//190 197//197
f 197//197 190//190 186//189 194//198
f 213//213 185//185 191//188 216//214
f 216//214 191//188 187//191 214//217
f 192//192 220//220 226//223 195//193
f 195//193 226//223 222//226 193//196
f 221//224 215//219 218//218 225//225
f 225//225 218//218 214//217 222//226
f 199//199 213//213 219//216 202//200
f 202//200 219//216 215//219 200//203
f 220//220 206//206 212//209 223//221
f 223//221 212//209 208//212 221//224
f 207//210 201//205 204//204 211//211
f 211//211 204//204 200//203 208//212
f 171//171 199//199 205//202 174//172
f 174//172 205//202 201//205 172//175
f 206//206 179//182 181//179 209//207
f 209//207 181//179 178//178 207//210
f 185//185 213//213 199//199 171//171
f 173//177 180//184 194//198 186//189
f 201//205 207//210 178//178 172//175
f 220//220 192//192 179//182 206//206
f 187//191 193//196 222//226 214//217
f 215//219 221//224 208//212 200//203
f 352//227 227//170 235//228
f 232//229 354//230 241//231 242//232
f 230//233 229//234 238//235 239//236
f 353//237 352//227 235//228 236//238
f 233//239 232//229 242//232 243//240
f 231//241 230//233 239//236 240//242
f 228//243 353//237 236//238 237//244
f 234//3 233//239 243//240
f 354//230 231//241 240//242 241//231
f 229//234 228//243 237//244 238//235
f 242//232 241//231 250//245 251//246
f 239//236 238//235 247//247 248//248
f 236//238 235//228 244//249 245//250
f 243//240 242//232 251//246 252//251
f 240//242 239//236 248//248 249//252
f 237//244 236//238 245//250 246//253
f 234//3 243//240 252//251
f 241//231 240//242 249//252 250//245
f 238//235 237//244 246//253 247//247
f 235//228 227//170 244//249
f 247//247 246//253 255//254 256//255
f 244//249 227//170 253//256
f 251//246 250//245 259//257 260//258
f 248//248 247//247 256//255 257//259
f 245//250 244//249 253//256 254//260
f 252//251 251//246 260//258 261//261
f 249//252 248//248 257//259 258//262
f 246//253 245//250 254//260 255//254
f 234//3 252//251 261//261
f 250//245 249//252 258//262 259//257
f 259//257 258//262 267//263 268//264
f 256//255 255//254 264//265 265//266
f 253//256 227//170 262//267
f 260//258 259//257 268//264 269//268
f 257//259 256//255 265//266 266//269
f 254//260 253//256 262//267 263//270
f 261//261 260//258 269//268 270//271
f 258//262 257//259 266//269 267//263
f 255//254 254//260 263//270 264//265
f 234//3 261//261 270//271
f 264//265 263//270 272//272 273//273
f 234//3 270//271 279//274
f 268//264 267//263 276//275 277//276
f 265//266 264//265 273//273 274//277
f 262//267 227//170 271//278
f 269//268 268//264 277//276 278//279
f 266//269 265//266 274//277 275//280
f 263//270 262//267 271//278 272//272
f 270//271 269//268 278//279 279//274
f 267//263 266//269 275//280 276//275
f 279//274 278//279 287//281 288//282
f 276//275 275//280 284//283 285//284
f 273//273 272//272 281//285 282//286
f 234//3 279//274 288//282
f 277//276 276//275 285//284 286//287
f 274//277 273//273 282//286 283//288
f 271//278 227//170 280//289
f 278//279 277//276 286//287 287//281
f 275//280 274//277 283//288 284//283
f 272//272 271//278 280//289 281//285
f 284//283 283//288 292//290 293//291
f 281//285 280//289 289//292 290//293
f 288//282 287//281 296//294 297//295
f 285//284 284//283 293//291 294//296
f 282//286 281//285 290//293 291//297
f 234//3 288//282 297//295
f 286//287 285//284 294//296 295//298
f 283//288 282//286 291//297 292//290
f 280//289 227//170 289//292
f 287//281 286//287 295//298 296//294
f 289//292 227//170 298//299
f 296//294 295//298 304//300 305//301
f 293//291 292//290 301//302 302//303
f 290//293 289//292 298//299 299//304
f 297//295 296//294 305//301 306//305
f 294//296 293//291 302//303 303//306
f 291//297 290//293 299//304 300//307
f 234//3 297//295 306//305
f 295//298 294//296 303//306 304//300
f 292//290 291//297 300//307 301//302
f 301//302 300//307 309//308 310//309
f 298//299 227//170 307//310
f 305//301 304//300 313//311 314//312
f 302//303 301//302 310//309 311//313
f 299//304 298//299 307//310 308//314
f 306//305 305//301 314//312 315//315
f 303//306 302//303 311//313 312//316
f 300//307 299//304 308//314 309//308
f 234//3 306//305 315//315
f 304//300 303//306 312//316 313//311
f 234//3 315//315 324//317
f 313//311 312//316 321//318 322//319
f 310//309 309//308 318//320 319//321
f 307//310 227//170 316//322
f 314//312 313//311 322//319 323//323
f 311//313 310//309 319//321 320//324
f 308//314 307//310 316//322 317//325
f 315//315 314//312 323//323 324//317
f 312//316 311//313 320//324 321//318
f 309//308 308//314 317//325 318//320
f 321//318 320//324 329//326 330//327
f 318//320 317//325 326//328 327//329
f 234//3 324//317 333//330
f 322//319 321//318 330//327 331//331
f 319//321 318//320 327//329 328//332
f 316//322 227//170 325//333
f 323//323 322//319 331//331 332//334
f 320//324 319//321 328//332 329//326
f 317//325 316//322 325//333 326//328
f 324//317 323//323 332//334 333//330
f 326//328 325//333 334//335 335//336
f 333//330 332//334 341//337 342//338
f 330//327 329//326 338//339 339//340
f 327//329 326//328 335//336 336//341
f 234//3 333//330 342//338
f 331//331 330//327 339//340 340//342
f 328//332 327//329 336//341 337//343
f 325//333 227//170 334//335
f 332//334 331//331 340//342 341//337
f 329//326 328//332 337//343 338//339
f 338//339 337//343 346//344 347//345
f 335//336 334//335 343//346 344//347
f 342//338 341//337 350//348 351//349
f 339//340 338//339 347//345 348//350
f 336//341 335//336 344//347 345//351
f 234//3 342//338 351//349
f 340//342 339//340 348//350 349//352
f 337//343 336//341 345//351 346//344
f 334//335 227//170 343//346
f 341//337 340//342 349//352 350//348
f 343//346 227//170 352//227
f 350//348 349//352 354//230 232//229
f 347//345 346//344 229//234 230//233
f 344//347 343//346 352//227 353//237
f 351//349 350//348 232//229 233//239
f 348//350 347//345 230//233 231//241
f 345//351 344//347 353//237 228//243
f 234//3 351//349 233//239
f 349//352 348//350 231//241 354//230
f 346//344 345//351 228//243 229//234
f 360//3 359//353 367//354
f 440//355 439//356 365//357 366//358
f 358//233 357//359 363//360 364//361
f 438//362 356//363 361//364 362//365
f 359//353 440//355 366//358 367//354
f 439//356 358//233 364//361 365//357
f 357//359 438//362 362//365 363//360
f 356//363 355//170 361//364
f 362//365 361//364 368//366 369//367
f 367//354 366//358 373//368 374//369
f 365//357 364//361 371//370 372//371
f 363//360 362//365 369//367 370//372
f 361//364 355//170 368//366
f 360//3 367//354 374//369
f 366//358 365//357 372//371 373//368
f 364//361 363//360 370//372 371//370
f 374//369 373//368 380//373 381//374
f 372//371 371//370 378//375 379//376
f 370//372 369//367 376//377 377//378
f 368//366 355//170 375//379
f 360//3 374//369 381//374
f 373//368 372//371 379//376 380//373
f 371//370 370//372 377//378 378//375
f 369//367 368//366 375//379 376//377
f 375//379 355//170 382//380
f 360//3 381//374 388//381
f 380//373 379//376 386//382 387//383
f 378//375 377//378 384//384 385//385
f 376//377 375//379 382//380 383//386
f 381//374 380//373 387//383 388//381
f 379//376 378//375 385//385 386//382
f 377//378 376//377 383//386 384//384
f 387//383 386//382 393//387 394//388
f 385//385 384//384 391//389 392//390
f 383//386 382//380 389//391 390//392
f 388//381 387//383 394//388 395//393
f 386//382 385//385 392//390 393//387
f 384//384 383//386 390//392 391//389
f 382//380 355//170 389//391
f 360//3 388//381 395//393
f 395//393 394//388 401//394 402//395
f 393//387 392//390 399//291 400//396
f 391//389 390//392 397//397 398//398
f 389//391 355//170 396//399
f 360//3 395//393 402//395
f 394//388 393//387 400//396 401//394
f 392//390 391//389 398//398 399//291
f 390//392 389//391 396//399 397//397
f 400//396 399//291 406//400 407//401
f 398//398 397//397 404//402 405//403
f 396//399 355//170 403//404
f 360//3 402//395 409//405
f 401//394 400//396 407//401 408//406
f 399//291 398//398 405//403 406//400
f 397//397 396//399 403//404 404//402
f 402//395 401//394 408//406 409//405
f 360//3 409//405 416//407
f 408//406 407//401 414//408 415//409
f 406//400 405//403 412//410 413//411
f 404//402 403//404 410//412 411//413
f 409//405 408//406 415//409 416//407
f 407//401 406//400 413//411 414//408
f 405//403 404//402 411//413 412//410
f 403//404 355//170 410//412
f 413//411 412//410 419//414 420//415
f 411//413 410//412 417//416 418//417
f 416//407 415//409 422//418 423//419
f 414//408 413//411 420//415 421//420
f 412//410 411//413 418//417 419//414
f 410//412 355//170 417//416
f 360//3 416//407 423//419
f 415//409 414//408 421//420 422//418
f 423//419 422//418 429//421 430//422
f 421//420 420//415 427//423 428//424
f 419//414 418//417 425//425 426//426
f 417//416 355//170 424//427
f 360//3 423//419 430//422
f 422//418 421//420 428//424 429//421
f 420//415 419//414 426//426 427//423
f 418//417 417//416 424//427 425//425
f 426//426 425//425 432//428 433//429
f 424//427 355//170 431//430
f 360//3 430//422 437//431
f 429//421 428//424 435//432 436//433
f 427//423 426//426 433//429 434//434
f 425//425 424//427 431//430 432//428
f 430//422 429//421 436//433 437//431
f 428//424 427//423 434//434 435//432
f 360//3 437//431 359//353
f 436//433 435//432 439//356 440//355
f 434//434 433//429 357//359 358//233
f 432//428 431//430 356//363 438//362
f 437//431 436//433 440//355 359//353
f 435//432 434//434 358//233 439//356
f 433//429 432//428 438//362 357//359
f 431//430 355//170 356//363
f 441//435 442//436 444//437 443//438
f 443//438 444//437 446//439 445//440
f 445//440 446//439 448//441 447//442
f 447//442 448//441 450//443 449//444
f 449//444 450//443 452//445 451//446
f 451//446 452//445 454//447 453//448
f 453//448 454//447 456//449 455//450
f 455//450 456//449 458//451 457//452
f 457//452 458//451 460//453 459//454
f 459//454 460//453 462//455 461//456
f 444//437 442//436 464//457 462//455 460//453 458//451 456//449 454//447 452//445 450//443 448//441 446//439
f 461//456 462//455 464//457 463//458
f 463//458 464//457 442//436 441//435
f 441//435 443//438 445//440 447//442 449//444 451//446 453//448 455//450 457//452 459//454 461//456 463//458
f 465//171 468//172 469//459 471//174
f 466//175 470//176 469//459 468//172
f 467//177 471//174 469//459 470//176
f 472//178 475//179 476//180 478//181
f 473//182 477//183 476//180 475//179
f 474//184 478//181 476//180 477//183
f 479//185 482//186 483//460 485//188
f 480//189 484//190 483//460 482//186
f 481//191 485//188 483//460 484//190
f 486//192 489//193 490//194 492//195
f 487//196 491//197 490//194 489//193
f 488//198 492//195 490//194 491//197
f 493//199 496//200 497//461 499//202
f 494//203 498//204 497//461 496//200
f 495//205 499//202 497//461 498//204
f 500//206 503//207 504//208 506//209
f 501//210 505//211 504//208 503//207
f 502//212 506//209 504//208 505//211
f 507//213 510//214 511//462 513//216
f 508//217 512//218 511//462 510//214
f 509//219 513//216 511//462 512//218
f 514//220 517//221 518//222 520//223
f 515//224 519//225 518//222 517//221
f 516//226 520//223 518//222 519//225
f 479//185 465//171 471//174 482//186
f 482//186 471//174 467//177 480//189
f 466//175 472//178 478//181 470//176
f 470//176 478//181 474//184 467//177
f 473//182 486//192 492//195 477//183
f 477//183 492//195 488//198 474//184
f 487//196 481//191 484//190 491//197
f 491//197 484//190 480//189 488//198
f 507//213 479//185 485//188 510//214
f 510//214 485//188 481//191 508//217
f 486//192 514//220 520//223 489//193
f 489//193 520//223 516//226 487//196
f 515//224 509//219 512//218 519//225
f 519//225 512//218 508//217 516//226
f 493//199 507//213 513//216 496//200
f 496//200 513//216 509//219 494//203
f 514//220 500//206 506//209 517//221
f 517//221 506//209 502//212 515//224
f 501//210 495//205 498//204 505//211
f 505//211 498//204 494//203 502//212
f 465//171 493//199 499//202 468//172
f 468//172 499//202 495//205 466//175
f 500//206 473//182 475//179 503//207
f 503//207 475//179 472//178 501//210
f 479//185 507//213 493//199 465//171
f 467//177 474//184 488//198 480//189
f 495//205 501//210 472//178 466//175
f 514//220 486//192 473//182 500//206
f 481//191 487//196 516//226 508//217
f 509//219 515//224 502//212 494//203
