# Blender 5.2.2 LTS
# www.blender.org
o FrostbiteClick
v 0.000000 0.000000 0.000000
v 1.100000 0.000000 0.836000
v 1.091002 0.000000 0.904332
v 1.064624 0.000000 0.968000
v 1.022670 0.000000 1.022670
v 0.968000 0.000000 1.064624
v 0.904332 0.000000 1.091002
v 0.836000 0.000000 1.100000
v -0.836000 0.000000 1.100000
v -0.904332 0.000000 1.091002
v -0.968000 0.000000 1.064624
v -1.022670 0.000000 1.022670
v -1.064624 0.000000 0.968000
v -1.091002 0.000000 0.904332
v -1.100000 0.000000 0.836000
v -1.100000 0.000000 -0.836000
v -1.091002 0.000000 -0.904332
v -1.064624 0.000000 -0.968000
v -1.022670 0.000000 -1.022670
v -0.968000 0.000000 -1.064624
v -0.904332 0.000000 -1.091002
v -0.836000 0.000000 -1.100000
v 0.836000 0.000000 -1.100000
v 0.904332 0.000000 -1.091002
v 0.968000 0.000000 -1.064624
v 1.022670 0.000000 -1.022670
v 1.064624 0.000000 -0.968000
v 1.091002 0.000000 -0.904332
v 1.100000 0.000000 -0.836000
v 0.979000 0.607200 0.671000
v 0.968506 0.607200 0.750706
v 0.937728 0.607200 0.825000
v 0.888778 0.607200 0.888778
v 0.825000 0.607200 0.937728
v 0.750706 0.607200 0.968506
v 0.671000 0.607200 0.979000
v -0.671000 0.607200 0.979000
v -0.750706 0.607200 0.968506
v -0.825000 0.607200 0.937728
v -0.888778 0.607200 0.888778
v -0.937728 0.607200 0.825000
v -0.968506 0.607200 0.750706
v -0.979000 0.607200 0.671000
v -0.979000 0.607200 -0.671000
v -0.968506 0.607200 -0.750706
v -0.937728 0.607200 -0.825000
v -0.888778 0.607200 -0.888778
v -0.825000 0.607200 -0.937728
v -0.750706 0.607200 -0.968506
v -0.671000 0.607200 -0.979000
v 0.671000 0.607200 -0.979000
v 0.750706 0.607200 -0.968506
v 0.825000 0.607200 -0.937728
v 0.888778 0.607200 -0.888778
v 0.937728 0.607200 -0.825000
v 0.968506 0.607200 -0.750706
v 0.979000 0.607200 -0.671000
v 0.858000 1.232000 0.506000
v 0.846010 1.232000 0.597102
v 0.810832 1.232000 0.682000
v 0.754908 1.232000 0.754908
v 0.682000 1.232000 0.810832
v 0.597102 1.232000 0.846010
v 0.506000 1.232000 0.858000
v -0.506000 1.232000 0.858000
v -0.597102 1.232000 0.846010
v -0.682000 1.232000 0.810832
v -0.754908 1.232000 0.754908
v -0.810832 1.232000 0.682000
v -0.846010 1.232000 0.597102
v -0.858000 1.232000 0.506000
v -0.858000 1.232000 -0.506000
v -0.846010 1.232000 -0.597102
v -0.810832 1.232000 -0.682000
v -0.754908 1.232000 -0.754908
v -0.682000 1.232000 -0.810832
v -0.597102 1.232000 -0.846010
v -0.506000 1.232000 -0.858000
v 0.506000 1.232000 -0.858000
v 0.597102 1.232000 -0.846010
v 0.682000 1.232000 -0.810832
v 0.754908 1.232000 -0.754908
v 0.810832 1.232000 -0.682000
v 0.846010 1.232000 -0.597102
v 0.858000 1.232000 -0.506000
v 0.770000 1.320000 0.462000
v 0.759506 1.320000 0.541706
v 0.728728 1.320000 0.616000
v 0.679778 1.320000 0.679778
v 0.616000 1.320000 0.728728
v 0.541706 1.320000 0.759506
v 0.462000 1.320000 0.770000
v -0.462000 1.320000 0.770000
v -0.541706 1.320000 0.759506
v -0.616000 1.320000 0.728728
v -0.679778 1.320000 0.679778
v -0.728728 1.320000 0.616000
v -0.759506 1.320000 0.541706
v -0.770000 1.320000 0.462000
v -0.770000 1.320000 -0.462000
v -0.759506 1.320000 -0.541706
v -0.728728 1.320000 -0.616000
v -0.679778 1.320000 -0.679778
v -0.616000 1.320000 -0.728728
v -0.541706 1.320000 -0.759506
v -0.462000 1.320000 -0.770000
v 0.462000 1.320000 -0.770000
v 0.541706 1.320000 -0.759506
v 0.616000 1.320000 -0.728728
v 0.679778 1.320000 -0.679778
v 0.728728 1.320000 -0.616000
v 0.759506 1.320000 -0.541706
v 0.770000 1.320000 -0.462000
v 0.554400 1.245838 0.300960
v 0.545754 1.245838 0.366564
v 0.520454 1.245838 0.427680
v 0.480172 1.245838 0.480172
v 0.427680 1.245838 0.520454
v 0.366564 1.245838 0.545754
v 0.300960 1.245838 0.554400
v -0.300960 1.245838 0.554400
v -0.366564 1.245838 0.545754
v -0.427680 1.245838 0.520454
v -0.480172 1.245838 0.480172
v -0.520454 1.245838 0.427680
v -0.545754 1.245838 0.366564
v -0.554400 1.245838 0.300960
v -0.554400 1.245838 -0.300960
v -0.545754 1.245838 -0.366564
v -0.520454 1.245838 -0.427680
v -0.480172 1.245838 -0.480172
v -0.427680 1.245838 -0.520454
v -0.366564 1.245838 -0.545754
v -0.300960 1.245838 -0.554400
v 0.300960 1.245838 -0.554400
v 0.366564 1.245838 -0.545754
v 0.427680 1.245838 -0.520454
v 0.480172 1.245838 -0.480172
v 0.520454 1.245838 -0.427680
v 0.545754 1.245838 -0.366564
v 0.554400 1.245838 -0.300960
v 0.323400 1.193170 0.175560
v 0.318362 1.193170 0.213818
v 0.303600 1.193170 0.249480
v 0.280104 1.193170 0.280104
v 0.249480 1.193170 0.303600
v 0.213818 1.193170 0.318362
v 0.175560 1.193170 0.323400
v -0.175560 1.193170 0.323400
v -0.213818 1.193170 0.318362
v -0.249480 1.193170 0.303600
v -0.280104 1.193170 0.280104
v -0.303600 1.193170 0.249480
v -0.318362 1.193170 0.213818
v -0.323400 1.193170 0.175560
v -0.323400 1.193170 -0.175560
v -0.318362 1.193170 -0.213818
v -0.303600 1.193170 -0.249480
v -0.280104 1.193170 -0.280104
v -0.249480 1.193170 -0.303600
v -0.213818 1.193170 -0.318362
v -0.175560 1.193170 -0.323400
v 0.175560 1.193170 -0.323400
v 0.213818 1.193170 -0.318362
v 0.249480 1.193170 -0.303600
v 0.280104 1.193170 -0.280104
v 0.303600 1.193170 -0.249480
v 0.318362 1.193170 -0.213818
v 0.323400 1.193170 -0.175560
v 0.000000 1.166000 -0.000000
v -0.310000 1.300000 0.150000
v -0.310000 1.340000 0.190000
v -0.350000 1.340000 0.150000
v -0.310000 1.311716 0.178284
v -0.333094 1.316906 0.173094
v -0.338284 1.340000 0.178284
v -0.338284 1.311716 0.150000
v -0.310000 1.360000 0.190000
v -0.310000 1.400000 0.150000
v -0.350000 1.360000 0.150000
v -0.310000 1.388284 0.178284
v -0.333094 1.383094 0.173094
v -0.338284 1.388284 0.150000
v -0.338284 1.360000 0.178284
v -0.310000 1.300000 -0.050000
v -0.350000 1.340000 -0.050000
v -0.310000 1.340000 -0.090000
v -0.338284 1.311716 -0.050000
v -0.333094 1.316906 -0.073094
v -0.338284 1.340000 -0.078284
v -0.310000 1.311716 -0.078284
v -0.310000 1.400000 -0.050000
v -0.310000 1.360000 -0.090000
v -0.350000 1.360000 -0.050000
v -0.310000 1.388284 -0.078284
v -0.333094 1.383094 -0.073094
v -0.338284 1.360000 -0.078284
v -0.338284 1.388284 -0.050000
v 0.310000 1.300000 0.150000
v 0.350000 1.340000 0.150000
v 0.310000 1.340000 0.190000
v 0.338284 1.311716 0.150000
v 0.333094 1.316906 0.173094
v 0.338284 1.340000 0.178284
v 0.310000 1.311716 0.178284
v 0.310000 1.400000 0.150000
v 0.310000 1.360000 0.190000
v 0.350000 1.360000 0.150000
v 0.310000 1.388284 0.178284
v 0.333094 1.383094 0.173094
v 0.338284 1.360000 0.178284
v 0.338284 1.388284 0.150000
v 0.310000 1.300000 -0.050000
v 0.310000 1.340000 -0.090000
v 0.350000 1.340000 -0.050000
v 0.310000 1.311716 -0.078284
v 0.333094 1.316906 -0.073094
v 0.338284 1.340000 -0.078284
v 0.338284 1.311716 -0.050000
v 0.310000 1.400000 -0.050000
v 0.350000 1.360000 -0.050000
v 0.310000 1.360000 -0.090000
v 0.338284 1.388284 -0.050000
v 0.333094 1.383094 -0.073094
v 0.338284 1.360000 -0.078284
v 0.310000 1.388284 -0.078284
v 0.000000 1.900000 0.000000
v 0.000000 1.887275 -0.080344
v 0.000000 1.792824 -0.210344
v 0.000000 1.720345 -0.247275
v 0.000000 1.640000 -0.260000
v 0.000000 1.559656 -0.247275
v 0.000000 1.429656 -0.152824
v 0.000000 1.392725 -0.080344
v 0.000000 1.380000 0.000000
v 0.034860 1.887275 -0.072388
v 0.066308 1.850345 -0.137690
v 0.091265 1.792824 -0.189514
v 0.107288 1.720345 -0.222787
v 0.112810 1.640000 -0.234252
v 0.107288 1.559656 -0.222787
v 0.091265 1.487176 -0.189514
v 0.066308 1.429656 -0.137690
v 0.034860 1.392725 -0.072388
v 0.062816 1.887275 -0.050094
v 0.119483 1.850345 -0.095284
v 0.164454 1.792824 -0.131148
v 0.193327 1.720345 -0.154173
v 0.203276 1.640000 -0.162107
v 0.193327 1.559656 -0.154173
v 0.164454 1.487176 -0.131148
v 0.119483 1.429656 -0.095284
v 0.062816 1.392725 -0.050094
v 0.078330 1.887275 -0.017878
v 0.148993 1.850345 -0.034007
v 0.205071 1.792824 -0.046806
v 0.241075 1.720345 -0.055024
v 0.253481 1.640000 -0.057855
v 0.241075 1.559656 -0.055024
v 0.205071 1.487176 -0.046806
v 0.148993 1.429656 -0.034007
v 0.078330 1.392725 -0.017878
v 0.078330 1.887275 0.017878
v 0.148993 1.850345 0.034007
v 0.205071 1.792824 0.046806
v 0.241075 1.720345 0.055024
v 0.253481 1.640000 0.057855
v 0.241075 1.559656 0.055024
v 0.205071 1.487176 0.046806
v 0.148993 1.429656 0.034007
v 0.078330 1.392725 0.017878
v 0.062816 1.887275 0.050094
v 0.119483 1.850345 0.095284
v 0.164454 1.792824 0.131148
v 0.193327 1.720345 0.154173
v 0.203276 1.640000 0.162107
v 0.193327 1.559656 0.154173
v 0.164454 1.487176 0.131148
v 0.119483 1.429656 0.095284
v 0.062816 1.392725 0.050094
v 0.034860 1.887275 0.072388
v 0.066308 1.850345 0.137690
v 0.091265 1.792824 0.189514
v 0.107288 1.720345 0.222787
v 0.112810 1.640000 0.234252
v 0.107288 1.559656 0.222787
v 0.091265 1.487176 0.189514
v 0.066308 1.429656 0.137690
v 0.034860 1.392725 0.072388
v -0.000000 1.887275 0.080344
v -0.000000 1.850345 0.152824
v -0.000000 1.792824 0.210344
v -0.000000 1.720345 0.247275
v -0.000000 1.640000 0.260000
v -0.000000 1.559656 0.247275
v -0.000000 1.487176 0.210344
v -0.000000 1.429656 0.152824
v -0.000000 1.392725 0.080344
v -0.034860 1.887275 0.072388
v -0.066308 1.850345 0.137690
v -0.091265 1.792824 0.189514
v -0.107288 1.720345 0.222787
v -0.112810 1.640000 0.234252
v -0.107288 1.559656 0.222787
v -0.091265 1.487176 0.189514
v -0.066308 1.429656 0.137690
v -0.034860 1.392725 0.072388
v -0.062816 1.887275 0.050094
v -0.119483 1.850345 0.095284
v -0.164454 1.792824 0.131148
v -0.193327 1.720345 0.154173
v -0.203276 1.640000 0.162107
v -0.193327 1.559656 0.154173
v -0.164454 1.487176 0.131148
v -0.119483 1.429656 0.095284
v -0.062816 1.392725 0.050094
v -0.078330 1.887275 0.017878
v -0.148993 1.850345 0.034007
v -0.205071 1.792824 0.046806
v -0.241075 1.720345 0.055024
v -0.253481 1.640000 0.057855
v -0.241075 1.559656 0.055024
v -0.205071 1.487176 0.046806
v -0.148993 1.429656 0.034007
v -0.078330 1.392725 0.017878
v -0.078330 1.887275 -0.017878
v -0.148992 1.850345 -0.034007
v -0.205071 1.792824 -0.046806
v -0.241075 1.720345 -0.055024
v -0.253481 1.640000 -0.057855
v -0.241075 1.559656 -0.055024
v -0.205071 1.487176 -0.046806
v -0.148992 1.429656 -0.034007
v -0.078330 1.392725 -0.017878
v -0.062816 1.887275 -0.050094
v -0.119483 1.850345 -0.095284
v -0.164454 1.792824 -0.131148
v -0.193327 1.720345 -0.154173
v -0.203276 1.640000 -0.162107
v -0.193327 1.559656 -0.154173
v -0.164454 1.487176 -0.131148
v -0.119483 1.429656 -0.095284
v -0.062816 1.392725 -0.050094
v -0.034860 1.887275 -0.072388
v -0.066308 1.850345 -0.137690
v -0.091265 1.792824 -0.189514
v -0.107288 1.720345 -0.222787
v -0.112810 1.640000 -0.234252
v -0.107288 1.559656 -0.222787
v -0.091265 1.487176 -0.189514
v -0.066308 1.429656 -0.137690
v -0.034860 1.392725 -0.072388
v 0.000000 1.850345 -0.152824
v 0.000000 1.487176 -0.210344
vn 0.5454 -0.8382 0.0059
vn 0.6507 -0.7302 0.2086
vn -0.0000 -1.0000 -0.0000
vn 0.5497 -0.7567 0.3539
vn 0.4321 -0.7658 0.4762
vn 0.2977 -0.7593 0.5786
vn 0.1433 -0.7360 0.6616
vn 0.0022 -0.6372 0.7707
vn -0.0059 -0.8382 0.5454
vn -0.2086 -0.7302 0.6507
vn -0.3539 -0.7567 0.5497
vn -0.4762 -0.7658 0.4321
vn -0.5786 -0.7593 0.2977
vn -0.6616 -0.7360 0.1433
vn -0.7707 -0.6372 0.0022
vn -0.5454 -0.8382 -0.0059
vn -0.6507 -0.7302 -0.2086
vn -0.5497 -0.7567 -0.3539
vn -0.4321 -0.7658 -0.4762
vn -0.2977 -0.7593 -0.5786
vn -0.1433 -0.7360 -0.6616
vn -0.0022 -0.6372 -0.7707
vn 0.0059 -0.8382 -0.5454
vn 0.2086 -0.7302 -0.6507
vn 0.3539 -0.7567 -0.5497
vn 0.4762 -0.7658 -0.4321
vn 0.5786 -0.7593 -0.2977
vn 0.6616 -0.7360 -0.1433
vn 0.7707 -0.6372 -0.0022
vn 0.9336 0.2495 0.2571
vn 0.9807 0.1955 0.0071
vn 0.8273 0.2828 0.4853
vn 0.6713 0.2936 0.6806
vn 0.4740 0.2818 0.8342
vn 0.2443 0.2473 0.9376
vn 0.0075 0.1940 0.9810
vn -0.0071 0.1955 0.9807
vn -0.2571 0.2495 0.9336
vn -0.4853 0.2828 0.8273
vn -0.6806 0.2936 0.6713
vn -0.8342 0.2818 0.4740
vn -0.9376 0.2473 0.2443
vn -0.9810 0.1940 0.0075
vn -0.9807 0.1955 -0.0071
vn -0.9336 0.2495 -0.2571
vn -0.8273 0.2828 -0.4853
vn -0.6713 0.2936 -0.6806
vn -0.4740 0.2818 -0.8342
vn -0.2443 0.2473 -0.9376
vn -0.0075 0.1940 -0.9810
vn 0.0071 0.1955 -0.9807
vn 0.2571 0.2495 -0.9336
vn 0.4853 0.2828 -0.8273
vn 0.6806 0.2936 -0.6713
vn 0.8342 0.2818 -0.4740
vn 0.9376 0.2473 -0.2443
vn 0.9810 0.1940 -0.0075
vn 0.9174 0.3339 0.2164
vn 0.9708 0.2397 0.0057
vn 0.8183 0.3697 0.4401
vn 0.6726 0.3829 0.6332
vn 0.4878 0.3737 0.7889
vn 0.2705 0.3419 0.9000
vn 0.0155 0.3346 0.9422
vn -0.0056 0.2398 0.9708
vn -0.2164 0.3339 0.9174
vn -0.4401 0.3697 0.8183
vn -0.6332 0.3829 0.6726
vn -0.7889 0.3737 0.4878
vn -0.9000 0.3419 0.2705
vn -0.9422 0.3346 0.0155
vn -0.9708 0.2398 -0.0056
vn -0.9174 0.3339 -0.2164
vn -0.8183 0.3697 -0.4401
vn -0.6726 0.3829 -0.6332
vn -0.4878 0.3737 -0.7889
vn -0.2705 0.3419 -0.9000
vn -0.0155 0.3346 -0.9422
vn 0.0056 0.2398 -0.9708
vn 0.2164 0.3339 -0.9174
vn 0.4401 0.3697 -0.8183
vn 0.6332 0.3829 -0.6726
vn 0.7889 0.3737 -0.4878
vn 0.9000 0.3419 -0.2705
vn 0.9422 0.3346 -0.0155
vn 0.0685 0.9976 -0.0031
vn 0.2319 0.9727 -0.0012
vn 0.0622 0.9980 0.0137
vn 0.0553 0.9981 0.0287
vn 0.0473 0.9979 0.0432
vn 0.0375 0.9976 0.0587
vn 0.0027 0.9987 -0.0509
vn 0.0012 0.9727 0.2319
vn 0.0031 0.9976 0.0685
vn -0.0137 0.9980 0.0622
vn -0.0287 0.9981 0.0553
vn -0.0432 0.9979 0.0473
vn -0.0587 0.9976 0.0375
vn 0.0509 0.9987 0.0027
vn -0.2319 0.9727 0.0012
vn -0.0685 0.9976 0.0031
vn -0.0622 0.9980 -0.0137
vn -0.0553 0.9981 -0.0287
vn -0.0473 0.9979 -0.0432
vn -0.0375 0.9976 -0.0587
vn -0.0027 0.9987 0.0509
vn -0.0012 0.9727 -0.2319
vn -0.0031 0.9976 -0.0685
vn 0.0137 0.9980 -0.0622
vn 0.0287 0.9981 -0.0553
vn 0.0432 0.9979 -0.0473
vn 0.0587 0.9976 -0.0375
vn -0.0509 0.9987 -0.0027
vn -0.2401 0.9689 -0.0590
vn -0.2915 0.9566 -0.0026
vn -0.2006 0.9734 -0.1104
vn -0.1608 0.9749 -0.1543
vn -0.1178 0.9738 -0.1945
vn -0.0680 0.9698 -0.2341
vn -0.0045 0.9649 -0.2627
vn 0.0026 0.9566 -0.2915
vn 0.0590 0.9689 -0.2401
vn 0.1104 0.9734 -0.2007
vn 0.1543 0.9749 -0.1608
vn 0.1945 0.9738 -0.1178
vn 0.2341 0.9698 -0.0680
vn 0.2627 0.9649 -0.0045
vn 0.2915 0.9566 0.0026
vn 0.2401 0.9689 0.0590
vn 0.2006 0.9734 0.1104
vn 0.1608 0.9749 0.1543
vn 0.1178 0.9738 0.1945
vn 0.0680 0.9698 0.2341
vn 0.0045 0.9649 0.2627
vn -0.0026 0.9566 0.2915
vn -0.0590 0.9689 0.2401
vn -0.1104 0.9734 0.2007
vn -0.1543 0.9749 0.1608
vn -0.1945 0.9738 0.1178
vn -0.2341 0.9698 0.0680
vn -0.2627 0.9649 0.0045
vn -0.1449 0.9889 -0.0316
vn -0.1735 0.9848 -0.0011
vn -0.1228 0.9904 -0.0633
vn -0.0995 0.9909 -0.0905
vn -0.0738 0.9906 -0.1150
vn -0.0441 0.9894 -0.1380
vn -0.0036 0.9892 -0.1463
vn 0.0011 0.9848 -0.1735
vn 0.0316 0.9889 -0.1449
vn 0.0633 0.9904 -0.1228
vn 0.0905 0.9909 -0.0995
vn 0.1150 0.9906 -0.0738
vn 0.1381 0.9894 -0.0441
vn 0.1463 0.9892 -0.0036
vn 0.1735 0.9848 0.0011
vn 0.1449 0.9889 0.0316
vn 0.1228 0.9904 0.0633
vn 0.0995 0.9909 0.0905
vn 0.0738 0.9906 0.1150
vn 0.0441 0.9894 0.1380
vn 0.0036 0.9892 0.1463
vn -0.0011 0.9848 0.1735
vn -0.0316 0.9889 0.1449
vn -0.0633 0.9904 0.1228
vn -0.0905 0.9909 0.0995
vn -0.1150 0.9906 0.0738
vn -0.1381 0.9894 0.0441
vn -0.1463 0.9892 0.0036
vn -0.0000 1.0000 -0.0000
vn -0.1794 -0.9673 0.1794
vn -0.1726 -0.6965 0.6965
vn -0.5773 -0.5774 0.5773
vn -0.6965 -0.6965 0.1726
vn -0.1794 -0.1794 0.9673
vn -0.6965 -0.1726 0.6965
vn -0.9673 -0.1794 0.1794
vn -0.1794 0.1794 0.9673
vn -0.1726 0.6965 0.6965
vn -0.5774 0.5773 0.5774
vn -0.6965 0.1726 0.6965
vn -0.1794 0.9673 0.1794
vn -0.6965 0.6965 0.1726
vn -0.9673 0.1794 0.1794
vn -0.1794 -0.9673 -0.1794
vn -0.6965 -0.6965 -0.1726
vn -0.5773 -0.5774 -0.5773
vn -0.1726 -0.6965 -0.6965
vn -0.9673 -0.1794 -0.1794
vn -0.6965 -0.1726 -0.6965
vn -0.1794 -0.1794 -0.9673
vn -0.1794 0.9673 -0.1794
vn -0.1726 0.6965 -0.6965
vn -0.5774 0.5773 -0.5774
vn -0.6965 0.6965 -0.1726
vn -0.1794 0.1794 -0.9673
vn -0.6965 0.1726 -0.6965
vn -0.9673 0.1794 -0.1794
vn 0.1794 -0.9673 0.1794
vn 0.6965 -0.6965 0.1726
vn 0.5773 -0.5774 0.5773
vn 0.1726 -0.6965 0.6965
vn 0.9673 -0.1794 0.1794
vn 0.6965 -0.1726 0.6965
vn 0.1794 -0.1794 0.9673
vn 0.1794 0.9673 0.1794
vn 0.1726 0.6965 0.6965
vn 0.5774 0.5773 0.5774
vn 0.6965 0.6965 0.1726
vn 0.1794 0.1794 0.9673
vn 0.6965 0.1726 0.6965
vn 0.9673 0.1794 0.1794
vn 0.1794 -0.9673 -0.1794
vn 0.1726 -0.6965 -0.6965
vn 0.5773 -0.5774 -0.5773
vn 0.6965 -0.6965 -0.1726
vn 0.1794 -0.1794 -0.9673
vn 0.6965 -0.1726 -0.6965
vn 0.9673 -0.1794 -0.1794
vn 0.1794 0.9673 -0.1794
vn 0.6965 0.6965 -0.1726
vn 0.5774 0.5773 -0.5774
vn 0.1726 0.6965 -0.6965
vn 0.9673 0.1794 -0.1794
vn 0.6965 0.1726 -0.6965
vn 0.1794 0.1794 -0.9673
vn -0.0000 0.7985 -0.6020
vn -0.0000 0.9444 -0.3289
vn 0.1427 0.9444 -0.2964
vn 0.2612 0.7985 -0.5424
vn -0.0000 -0.9444 -0.3289
vn -0.0000 -0.7985 -0.6020
vn 0.2612 -0.7985 -0.5424
vn 0.1427 -0.9444 -0.2964
vn -0.0000 -0.3027 -0.9531
vn -0.0000 -0.0000 -1.0000
vn 0.4339 -0.0000 -0.9010
vn 0.4135 -0.3027 -0.8587
vn -0.0000 0.5774 -0.8164
vn 0.3542 0.5774 -0.7356
vn -0.0000 -0.5774 -0.8164
vn 0.3542 -0.5774 -0.7356
vn -0.0000 0.3027 -0.9531
vn 0.4135 0.3027 -0.8587
vn 0.2572 0.9444 -0.2051
vn 0.4707 0.7985 -0.3753
vn 0.4707 -0.7985 -0.3753
vn 0.2572 -0.9444 -0.2051
vn 0.7818 -0.0000 -0.6235
vn 0.7452 -0.3027 -0.5942
vn 0.6383 0.5774 -0.5090
vn 0.6383 -0.5774 -0.5090
vn 0.7452 0.3027 -0.5942
vn 0.9292 0.3027 -0.2121
vn 0.9749 -0.0000 -0.2225
vn 0.3207 0.9444 -0.0732
vn 0.5869 0.7985 -0.1340
vn 0.5869 -0.7985 -0.1340
vn 0.3207 -0.9444 -0.0732
vn 0.9292 -0.3027 -0.2121
vn 0.7960 0.5774 -0.1817
vn 0.7960 -0.5774 -0.1817
vn 0.3207 0.9444 0.0732
vn 0.7960 -0.5774 0.1817
vn 0.5869 -0.7985 0.1340
vn 0.9292 0.3027 0.2121
vn 0.9749 -0.0000 0.2225
vn 0.5869 0.7985 0.1340
vn 0.3207 -0.9444 0.0732
vn 0.9292 -0.3027 0.2121
vn 0.7960 0.5774 0.1817
vn 0.7452 -0.3027 0.5942
vn 0.6383 -0.5774 0.5090
vn 0.6383 0.5774 0.5090
vn 0.7452 0.3027 0.5942
vn 0.2572 0.9444 0.2051
vn 0.4707 -0.7985 0.3753
vn 0.7818 -0.0000 0.6235
vn 0.4707 0.7985 0.3753
vn 0.2572 -0.9444 0.2051
vn 0.2612 0.7985 0.5424
vn 0.3542 0.5774 0.7356
vn 0.1427 -0.9444 0.2964
vn 0.4135 -0.3027 0.8587
vn 0.3542 -0.5774 0.7356
vn 0.4135 0.3027 0.8587
vn 0.1427 0.9444 0.2964
vn 0.2612 -0.7985 0.5424
vn 0.4339 -0.0000 0.9010
vn -0.0000 -0.0000 1.0000
vn -0.0000 -0.3027 0.9531
vn -0.0000 0.7985 0.6020
vn -0.0000 0.5774 0.8164
vn -0.0000 -0.9444 0.3289
vn -0.0000 -0.5774 0.8164
vn -0.0000 0.3027 0.9531
vn -0.0000 0.9444 0.3289
vn -0.0000 -0.7985 0.6020
vn -0.1427 0.9444 0.2964
vn -0.2612 0.7985 0.5424
vn -0.2612 -0.7985 0.5424
vn -0.1427 -0.9444 0.2964
vn -0.4339 -0.0000 0.9010
vn -0.4135 -0.3027 0.8587
vn -0.3542 0.5774 0.7356
vn -0.3542 -0.5774 0.7356
vn -0.4135 0.3027 0.8587
vn -0.6383 -0.5774 0.5090
vn -0.4707 -0.7985 0.3753
vn -0.7452 0.3027 0.5942
vn -0.7818 -0.0000 0.6235
vn -0.2572 0.9444 0.2051
vn -0.4707 0.7985 0.3753
vn -0.2572 -0.9444 0.2051
vn -0.7452 -0.3027 0.5942
vn -0.6383 0.5774 0.5090
vn -0.7960 0.5774 0.1817
vn -0.9292 0.3027 0.2121
vn -0.3207 0.9444 0.0732
vn -0.7960 -0.5774 0.1817
vn -0.5869 -0.7985 0.1340
vn -0.9749 -0.0000 0.2225
vn -0.5869 0.7985 0.1340
vn -0.3207 -0.9444 0.0732
vn -0.9292 -0.3027 0.2121
vn -0.9292 -0.3027 -0.2121
vn -0.7960 -0.5774 -0.1817
vn -0.7960 0.5774 -0.1817
vn -0.9292 0.3027 -0.2121
vn -0.3207 0.9444 -0.0732
vn -0.5869 -0.7985 -0.1340
vn -0.9749 -0.0000 -0.2225
vn -0.5869 0.7985 -0.1340
vn -0.3207 -0.9444 -0.0732
vn -0.4707 0.7985 -0.3753
vn -0.6383 0.5774 -0.5090
vn -0.2572 -0.9444 -0.2051
vn -0.7452 -0.3027 -0.5942
vn -0.6383 -0.5774 -0.5090
vn -0.7452 0.3027 -0.5942
vn -0.2572 0.9444 -0.2051
vn -0.4707 -0.7985 -0.3753
vn -0.7818 -0.0000 -0.6235
vn -0.2612 -0.7985 -0.5424
vn -0.1427 -0.9444 -0.2964
vn -0.4339 -0.0000 -0.9010
vn -0.4135 -0.3027 -0.8587
vn -0.2612 0.7985 -0.5424
vn -0.3542 0.5774 -0.7356
vn -0.3542 -0.5774 -0.7356
vn -0.4135 0.3027 -0.8587
vn -0.1427 0.9444 -0.2964
s 1
f 2//1 3//2 1//3
f 3//2 4//4 1//3
f 4//4 5//5 1//3
f 5//5 6//6 1//3
f 6//6 7//7 1//3
f 7//7 8//8 1//3
f 8//8 9//9 1//3
f 9//9 10//10 1//3
f 10//10 11//11 1//3
f 11//11 12//12 1//3
f 12//12 13//13 1//3
f 13//13 14//14 1//3
f 14//14 15//15 1//3
f 15//15 16//16 1//3
f 16//16 17//17 1//3
f 17//17 18//18 1//3
f 18//18 19//19 1//3
f 19//19 20//20 1//3
f 20//20 21//21 1//3
f 21//21 22//22 1//3
f 22//22 23//23 1//3
f 23//23 24//24 1//3
f 24//24 25//25 1//3
f 25//25 26//26 1//3
f 26//26 27//27 1//3
f 27//27 28//28 1//3
f 28//28 29//29 1//3
f 29//29 2//1 1//3
f 31//30 3//2 2//1
f 30//31 31//30 2//1
f 32//32 4//4 3//2
f 31//30 32//32 3//2
f 33//33 5//5 4//4
f 32//32 33//33 4//4
f 34//34 6//6 5//5
f 33//33 34//34 5//5
f 35//35 7//7 6//6
f 34//34 35//35 6//6
f 36//36 8//8 7//7
f 35//35 36//36 7//7
f 37//37 9//9 8//8
f 36//36 37//37 8//8
f 38//38 10//10 9//9
f 37//37 38//38 9//9
f 39//39 11//11 10//10
f 38//38 39//39 10//10
f 40//40 12//12 11//11
f 39//39 40//40 11//11
f 41//41 13//13 12//12
f 40//40 41//41 12//12
f 42//42 14//14 13//13
f 41//41 42//42 13//13
f 43//43 15//15 14//14
f 42//42 43//43 14//14
f 44//44 16//16 15//15
f 43//43 44//44 15//15
f 45//45 17//17 16//16
f 44//44 45//45 16//16
f 46//46 18//18 17//17
f 45//45 46//46 17//17
f 47//47 19//19 18//18
f 46//46 47//47 18//18
f 48//48 20//20 19//19
f 47//47 48//48 19//19
f 49//49 21//21 20//20
f 48//48 49//49 20//20
f 50//50 22//22 21//21
f 49//49 50//50 21//21
f 51//51 23//23 22//22
f 50//50 51//51 22//22
f 52//52 24//24 23//23
f 51//51 52//52 23//23
f 53//53 25//25 24//24
f 52//52 53//53 24//24
f 54//54 26//26 25//25
f 53//53 54//54 25//25
f 55//55 27//27 26//26
f 54//54 55//55 26//26
f 56//56 28//28 27//27
f 55//55 56//56 27//27
f 57//57 29//29 28//28
f 56//56 57//57 28//28
f 30//31 2//1 29//29
f 57//57 30//31 29//29
f 59//58 31//30 30//31
f 58//59 59//58 30//31
f 60//60 32//32 31//30
f 59//58 60//60 31//30
f 61//61 33//33 32//32
f 60//60 61//61 32//32
f 62//62 34//34 33//33
f 61//61 62//62 33//33
f 63//63 35//35 34//34
f 62//62 63//63 34//34
f 64//64 36//36 35//35
f 63//63 64//64 35//35
f 65//65 37//37 36//36
f 64//64 65//65 36//36
f 66//66 38//38 37//37
f 65//65 66//66 37//37
f 67//67 39//39 38//38
f 66//66 67//67 38//38
f 68//68 40//40 39//39
f 67//67 68//68 39//39
f 69//69 41//41 40//40
f 68//68 69//69 40//40
f 70//70 42//42 41//41
f 69//69 70//70 41//41
f 71//71 43//43 42//42
f 70//70 71//71 42//42
f 72//72 44//44 43//43
f 71//71 72//72 43//43
f 73//73 45//45 44//44
f 72//72 73//73 44//44
f 74//74 46//46 45//45
f 73//73 74//74 45//45
f 75//75 47//47 46//46
f 74//74 75//75 46//46
f 76//76 48//48 47//47
f 75//75 76//76 47//47
f 77//77 49//49 48//48
f 76//76 77//77 48//48
f 78//78 50//50 49//49
f 77//77 78//78 49//49
f 79//79 51//51 50//50
f 78//78 79//79 50//50
f 80//80 52//52 51//51
f 79//79 80//80 51//51
f 81//81 53//53 52//52
f 80//80 81//81 52//52
f 82//82 54//54 53//53
f 81//81 82//82 53//53
f 83//83 55//55 54//54
f 82//82 83//83 54//54
f 84//84 56//56 55//55
f 83//83 84//84 55//55
f 85//85 57//57 56//56
f 84//84 85//85 56//56
f 58//59 30//31 57//57
f 85//85 58//59 57//57
f 87//86 59//58 58//59
f 86//87 87//86 58//59
f 88//88 60//60 59//58
f 87//86 88//88 59//58
f 89//89 61//61 60//60
f 88//88 89//89 60//60
f 90//90 62//62 61//61
f 89//89 90//90 61//61
f 91//91 63//63 62//62
f 90//90 91//91 62//62
f 92//92 64//64 63//63
f 91//91 92//92 63//63
f 93//93 65//65 64//64
f 92//92 93//93 64//64
f 94//94 66//66 65//65
f 93//93 94//94 65//65
f 95//95 67//67 66//66
f 94//94 95//95 66//66
f 96//96 68//68 67//67
f 95//95 96//96 67//67
f 97//97 69//69 68//68
f 96//96 97//97 68//68
f 98//98 70//70 69//69
f 97//97 98//98 69//69
f 99//99 71//71 70//70
f 98//98 99//99 70//70
f 100//100 72//72 71//71
f 99//99 100//100 71//71
f 101//101 73//73 72//72
f 100//100 101//101 72//72
f 102//102 74//74 73//73
f 101//101 102//102 73//73
f 103//103 75//75 74//74
f 102//102 103//103 74//74
f 104//104 76//76 75//75
f 103//103 104//104 75//75
f 105//105 77//77 76//76
f 104//104 105//105 76//76
f 106//106 78//78 77//77
f 105//105 106//106 77//77
f 107//107 79//79 78//78
f 106//106 107//107 78//78
f 108//108 80//80 79//79
f 107//107 108//108 79//79
f 109//109 81//81 80//80
f 108//108 109//109 80//80
f 110//110 82//82 81//81
f 109//109 110//110 81//81
f 111//111 83//83 82//82
f 110//110 111//111 82//82
f 112//112 84//84 83//83
f 111//111 112//112 83//83
f 113//113 85//85 84//84
f 112//112 113//113 84//84
f 86//87 58//59 85//85
f 113//113 86//87 85//85
f 115//114 87//86 86//87
f 114//115 115//114 86//87
f 116//116 88//88 87//86
f 115//114 116//116 87//86
f 117//117 89//89 88//88
f 116//116 117//117 88//88
f 118//118 90//90 89//89
f 117//117 118//118 89//89
f 119//119 91//91 90//90
f 118//118 119//119 90//90
f 120//120 92//92 91//91
f 119//119 120//120 91//91
f 121//121 93//93 92//92
f 120//120 121//121 92//92
f 122//122 94//94 93//93
f 121//121 122//122 93//93
f 123//123 95//95 94//94
f 122//122 123//123 94//94
f 124//124 96//96 95//95
f 123//123 124//124 95//95
f 125//125 97//97 96//96
f 124//124 125//125 96//96
f 126//126 98//98 97//97
f 125//125 126//126 97//97
f 127//127 99//99 98//98
f 126//126 127//127 98//98
f 128//128 100//100 99//99
f 127//127 128//128 99//99
f 129//129 101//101 100//100
f 128//128 129//129 100//100
f 130//130 102//102 101//101
f 129//129 130//130 101//101
f 131//131 103//103 102//102
f 130//130 131//131 102//102
f 132//132 104//104 103//103
f 131//131 132//132 103//103
f 133//133 105//105 104//104
f 132//132 133//133 104//104
f 134//134 106//106 105//105
f 133//133 134//134 105//105
f 135//135 107//107 106//106
f 134//134 135//135 106//106
f 136//136 108//108 107//107
f 135//135 136//136 107//107
f 137//137 109//109 108//108
f 136//136 137//137 108//108
f 138//138 110//110 109//109
f 137//137 138//138 109//109
f 139//139 111//111 110//110
f 138//138 139//139 110//110
f 140//140 112//112 111//111
f 139//139 140//140 111//111
f 141//141 113//113 112//112
f 140//140 141//141 112//112
f 114//115 86//87 113//113
f 141//141 114//115 113//113
f 143//142 115//114 114//115
f 142//143 143//142 114//115
f 144//144 116//116 115//114
f 143//142 144//144 115//114
f 145//145 117//117 116//116
f 144//144 145//145 116//116
f 146//146 118//118 117//117
f 145//145 146//146 117//117
f 147//147 119//119 118//118
f 146//146 147//147 118//118
f 148//148 120//120 119//119
f 147//147 148//148 119//119
f 149//149 121//121 120//120
f 148//148 149//149 120//120
f 150//150 122//122 121//121
f 149//149 150//150 121//121
f 151//151 123//123 122//122
f 150//150 151//151 122//122
f 152//152 124//124 123//123
f 151//151 152//152 123//123
f 153//153 125//125 124//124
f 152//152 153//153 124//124
f 154//154 126//126 125//125
f 153//153 154//154 125//125
f 155//155 127//127 126//126
f 154//154 155//155 126//126
f 156//156 128//128 127//127
f 155//155 156//156 127//127
f 157//157 129//129 128//128
f 156//156 157//157 128//128
f 158//158 130//130 129//129
f 157//157 158//158 129//129
f 159//159 131//131 130//130
f 158//158 159//159 130//130
f 160//160 132//132 131//131
f 159//159 160//160 131//131
f 161//161 133//133 132//132
f 160//160 161//161 132//132
f 162//162 134//134 133//133
f 161//161 162//162 133//133
f 163//163 135//135 134//134
f 162//162 163//163 134//134
f 164//164 136//136 135//135
f 163//163 164//164 135//135
f 165//165 137//137 136//136
f 164//164 165//165 136//136
f 166//166 138//138 137//137
f 165//165 166//166 137//137
f 167//167 139//139 138//138
f 166//166 167//167 138//138
f 168//168 140//140 139//139
f 167//167 168//168 139//139
f 169//169 141//141 140//140
f 168//168 169//169 140//140
f 142//143 114//115 141//141
f 169//169 142//143 141//141
f 170//170 143//142 142//143
f 170//170 144//144 143//142
f 170//170 145//145 144//144
f 170//170 146//146 145//145
f 170//170 147//147 146//146
f 170//170 148//148 147//147
f 170//170 149//149 148//148
f 170//170 150//150 149//149
f 170//170 151//151 150//150
f 170//170 152//152 151//151
f 170//170 153//153 152//152
f 170//170 154//154 153//153
f 170//170 155//155 154//154
f 170//170 156//156 155//155
f 170//170 157//157 156//156
f 170//170 158//158 157//157
f 170//170 159//159 158//158
f 170//170 160//160 159//159
f 170//170 161//161 160//160
f 170//170 162//162 161//161
f 170//170 163//163 162//162
f 170//170 164//164 163//163
f 170//170 165//165 164//164
f 170//170 166//166 165//165
f 170//170 167//167 166//166
f 170//170 168//168 167//167
f 170//170 169//169 168//168
f 170//170 142//143 169//169
f 171//171 174//172 175//173 177//174
f 172//175 176//176 175//173 174//172
f 173//177 177//174 175//173 176//176
f 178//178 181//179 182//180 184//181
f 179//182 183//183 182//180 181//179
f 180//184 184//181 182//180 183//183
f 185//185 188//186 189//187 191//188
f 186//189 190//190 189//187 188//186
f 187//191 191//188 189//187 190//190
f 192//192 195//193 196//194 198//195
f 193//196 197//197 196//194 195//193
f 194//198 198//195 196//194 197//197
f 199//199 202//200 203//201 205//202
f 200//203 204//204 203//201 202//200
f 201//205 205//202 203//201 204//204
f 206//206 209//207 210//208 212//209
f 207//210 211//211 210//208 209//207
f 208//212 212//209 210//208 211//211
f 213//213 216//214 217//215 219//216
f 214//217 218//218 217//215 216//214
f 215//219 219//216 217//215 218//218
f 220//220 223//221 224//222 226//223
f 221//224 225//225 224//222 223//221
f 222//226 226//223 224//222 225//225
f 185//185 171//171 177//174 188//186
f 188//186 177//174 173//177 186//189
f 172//175 178//178 184//181 176//176
f 176//176 184//181 180//184 173//177
f 179//182 192//192 198//195 183//183
f 183//183 198//195 194//198 180//184
f 193//196 187//191 190//190 197//197
f 197//197 190//190 186//189 194//198
f 213//213 185//185 191//188 216//214
f 216//214 191//188 187//191 214//217
f 192//192 220//220 226//223 195//193
f 195//193 226//223 222//226 193//196
f 221//224 215//219 218//218 225//225
f 225//225 218//218 214//217 222//226
f 199//199 213//213 219//216 202//200
f 202//200 219//216 215//219 200//203
f 220//220 206//206 212//209 223//221
f 223//221 212//209 208//212 221//224
f 207//210 201//205 204//204 211//211
f 211//211 204//204 200//203 208//212
f 171//171 199//199 205//202 174//172
f 174//172 205//202 201//205 172//175
f 206//206 179//182 181//179 209//207
f 209//207 181//179 178//178 207//210
f 185//185 213//213 199//199 171//171
f 173//177 180//184 194//198 186//189
f 201//205 207//210 178//178 172//175
f 220//220 192//192 179//182 206//206
f 187//191 193//196 222//226 214//217
f 215//219 221//224 208//212 200//203
f 353//227 228//228 236//229 237//230
f 234//231 233//232 243//233 244//234
f 232//235 231//236 240//237 241//238
f 229//239 353//227 237//230 238//240
f 235//3 234//231 244//234
f 354//241 232//235 241//238 242//242
f 230//243 229//239 238//240 239//244
f 228//228 227//170 236//229
f 233//232 354//241 242//242 243//233
f 231//236 230//243 239//244 240//237
f 237//230 236//229 245//245 246//246
f 244//234 243//233 252//247 253//248
f 241//238 240//237 249//249 250//250
f 238//240 237//230 246//246 247//251
f 235//3 244//234 253//248
f 242//242 241//238 250//250 251//252
f 239//244 238//240 247//251 248//253
f 236//229 227//170 245//245
f 243//233 242//242 251//252 252//247
f 240//237 239//244 248//253 249//249
f 249//249 248//253 257//254 258//255
f 246//246 245//245 254//256 255//257
f 253//248 252//247 261//258 262//259
f 250//250 249//249 258//255 259//260
f 247//251 246//246 255//257 256//261
f 235//3 253//248 262//259
f 251//252 250//250 259//260 260//262
f 248//253 247//251 256//261 257//254
f 245//245 227//170 254//256
f 252//247 251//252 260//262 261//258
f 254//256 227//170 263//263
f 261//258 260//262 269//264 270//265
f 258//255 257//254 266//266 267//267
f 255//257 254//256 263//263 264//268
f 262//259 261//258 270//265 271//269
f 259//260 258//255 267//267 268//270
f 256//261 255//257 264//268 265//271
f 235//3 262//259 271//269
f 260//262 259//260 268//270 269//264
f 257//254 256//261 265//271 266//266
f 269//264 268//270 277//272 278//273
f 266//266 265//271 274//274 275//275
f 263//263 227//170 272//276
f 270//265 269//264 278//273 279//277
f 267//267 266//266 275//275 276//278
f 264//268 263//263 272//276 273//279
f 271//269 270//265 279//277 280//280
f 268//270 267//267 276//278 277//272
f 265//271 264//268 273//279 274//274
f 235//3 271//269 280//280
f 274//274 273//279 282//281 283//282
f 235//3 280//280 289//283
f 278//273 277//272 286//284 287//285
f 275//275 274//274 283//282 284//286
f 272//276 227//170 281//287
f 279//277 278//273 287//285 288//288
f 276//278 275//275 284//286 285//289
f 273//279 272//276 281//287 282//281
f 280//280 279//277 288//288 289//283
f 277//272 276//278 285//289 286//284
f 286//284 285//289 294//290 295//291
f 283//282 282//281 291//292 292//293
f 235//3 289//283 298//294
f 287//285 286//284 295//291 296//295
f 284//286 283//282 292//293 293//296
f 281//287 227//170 290//297
f 288//288 287//285 296//295 297//298
f 285//289 284//286 293//296 294//290
f 282//281 281//287 290//297 291//292
f 289//283 288//288 297//298 298//294
f 291//292 290//297 299//299 300//300
f 298//294 297//298 306//301 307//302
f 295//291 294//290 303//303 304//304
f 292//293 291//292 300//300 301//305
f 235//3 298//294 307//302
f 296//295 295//291 304//304 305//306
f 293//296 292//293 301//305 302//307
f 290//297 227//170 299//299
f 297//298 296//295 305//306 306//301
f 294//290 293//296 302//307 303//303
f 306//301 305//306 314//308 315//309
f 303//303 302//307 311//310 312//311
f 300//300 299//299 308//312 309//313
f 307//302 306//301 315//309 316//314
f 304//304 303//303 312//311 313//315
f 301//305 300//300 309//313 310//316
f 235//3 307//302 316//314
f 305//306 304//304 313//315 314//308
f 302//307 301//305 310//316 311//310
f 299//299 227//170 308//312
f 311//310 310//316 319//317 320//318
f 308//312 227//170 317//319
f 315//309 314//308 323//320 324//321
f 312//311 311//310 320//318 321//322
f 309//313 308//312 317//319 318//323
f 316//314 315//309 324//321 325//324
f 313//315 312//311 321//322 322//325
f 310//316 309//313 318//323 319//317
f 235//3 316//314 325//324
f 314//308 313//315 322//325 323//320
f 323//320 322//325 331//326 332//327
f 320//318 319//317 328//328 329//329
f 317//319 227//170 326//330
f 324//321 323//320 332//327 333//331
f 321//322 320//318 329//329 330//332
f 318//323 317//319 326//330 327//333
f 325//324 324//321 333//331 334//334
f 322//325 321//322 330//332 331//326
f 319//317 318//323 327//333 328//328
f 235//3 325//324 334//334
f 328//328 327//333 336//335 337//336
f 235//3 334//334 343//337
f 332//327 331//326 340//338 341//339
f 329//329 328//328 337//336 338//340
f 326//330 227//170 335//341
f 333//331 332//327 341//339 342//342
f 330//332 329//329 338//340 339//343
f 327//333 326//330 335//341 336//335
f 334//334 333//331 342//342 343//337
f 331//326 330//332 339//343 340//338
f 343//337 342//342 351//344 352//345
f 340//338 339//343 348//346 349//347
f 337//336 336//335 345//348 346//349
f 235//3 343//337 352//345
f 341//339 340//338 349//347 350//350
f 338//340 337//336 346//349 347//351
f 335//341 227//170 344//352
f 342//342 341//339 350//350 351//344
f 339//343 338//340 347//351 348//346
f 336//335 335//341 344//352 345//348
f 348//346 347//351 230//243 231//236
f 345//348 344//352 228//228 353//227
f 352//345 351//344 233//232 234//231
f 349//347 348//346 231//236 232//235
f 346//349 345//348 353//227 229//239
f 235//3 352//345 234//231
f 350//350 349//347 232//235 354//241
f 347//351 346//349 229//239 230//243
f 344//352 227//170 228//228
f 351//344 350//350 354//241 233//232
