# Blender 5.2.2 LTS
# www.blender.org
o GalaxyEnter
v 0.000000 0.000000 0.000000
v 1.100000 0.000000 0.836000
v 1.091002 0.000000 0.904332
v 1.064624 0.000000 0.968000
v 1.022670 0.000000 1.022670
v 0.968000 0.000000 1.064624
v 0.904332 0.000000 1.091002
v 0.836000 0.000000 1.100000
v -0.836000 0.000000 1.100000
v -0.904332 0.000000 1.091002
v -0.968000 0.000000 1.064624
v -1.022670 0.000000 1.022670
v -1.064624 0.000000 0.968000
v -1.091002 0.000000 0.904332
v -1.100000 0.000000 0.836000
v -1.100000 0.000000 -0.836000
v -1.091002 0.000000 -0.904332
v -1.064624 0.000000 -0.968000
v -1.022670 0.000000 -1.022670
v -0.968000 0.000000 -1.064624
v -0.904332 0.000000 -1.091002
v -0.836000 0.000000 -1.100000
v 0.836000 0.000000 -1.100000
v 0.904332 0.000000 -1.091002
v 0.968000 0.000000 -1.064624
v 1.022670 0.000000 -1.022670
v 1.064624 0.000000 -0.968000
v 1.091002 0.000000 -0.904332
v 1.100000 0.000000 -0.836000
v 0.979000 0.607200 0.671000
v 0.968506 0.607200 0.750706
v 0.937728 0.607200 0.825000
v 0.888778 0.607200 0.888778
v 0.825000 0.607200 0.937728
v 0.750706 0.607200 0.968506
v 0.671000 0.607200 0.979000
v -0.671000 0.607200 0.979000
v -0.750706 0.607200 0.968506
v -0.825000 0.607200 0.937728
v -0.888778 0.607200 0.888778
v -0.937728 0.607200 0.825000
v -0.968506 0.607200 0.750706
v -0.979000 0.607200 0.671000
v -0.979000 0.607200 -0.671000
v -0.968506 0.607200 -0.750706
v -0.937728 0.607200 -0.825000
v -0.888778 0.607200 -0.888778
v -0.825000 0.607200 -0.937728
v -0.750706 0.607200 -0.968506
v -0.671000 0.607200 -0.979000
v 0.671000 0.607200 -0.979000
v 0.750706 0.607200 -0.968506
v 0.825000 0.607200 -0.937728
v 0.888778 0.607200 -0.888778
v 0.937728 0.607200 -0.825000
v 0.968506 0.607200 -0.750706
v 0.979000 0.607200 -0.671000
v 0.858000 1.232000 0.506000
v 0.846010 1.232000 0.597102
v 0.810832 1.232000 0.682000
v 0.754908 1.232000 0.754908
v 0.682000 1.232000 0.810832
v 0.597102 1.232000 0.846010
v 0.506000 1.232000 0.858000
v -0.506000 1.232000 0.858000
v -0.597102 1.232000 0.846010
v -0.682000 1.232000 0.810832
v -0.754908 1.232000 0.754908
v -0.810832 1.232000 0.682000
v -0.846010 1.232000 0.597102
v -0.858000 1.232000 0.506000
v -0.858000 1.232000 -0.506000
v -0.846010 1.232000 -0.597102
v -0.810832 1.232000 -0.682000
v -0.754908 1.232000 -0.754908
v -0.682000 1.232000 -0.810832
v -0.597102 1.232000 -0.846010
v -0.506000 1.232000 -0.858000
v 0.506000 1.232000 -0.858000
v 0.597102 1.232000 -0.846010
v 0.682000 1.232000 -0.810832
v 0.754908 1.232000 -0.754908
v 0.810832 1.232000 -0.682000
v 0.846010 1.232000 -0.597102
v 0.858000 1.232000 -0.506000
v 0.770000 1.320000 0.462000
v 0.759506 1.320000 0.541706
v 0.728728 1.320000 0.616000
v 0.679778 1.320000 0.679778
v 0.616000 1.320000 0.728728
v 0.541706 1.320000 0.759506
v 0.462000 1.320000 0.770000
v -0.462000 1.320000 0.770000
v -0.541706 1.320000 0.759506
v -0.616000 1.320000 0.728728
v -0.679778 1.320000 0.679778
v -0.728728 1.320000 0.616000
v -0.759506 1.320000 0.541706
v -0.770000 1.320000 0.462000
v -0.770000 1.320000 -0.462000
v -0.759506 1.320000 -0.541706
v -0.728728 1.320000 -0.616000
v -0.679778 1.320000 -0.679778
v -0.616000 1.320000 -0.728728
v -0.541706 1.320000 -0.759506
v -0.462000 1.320000 -0.770000
v 0.462000 1.320000 -0.770000
v 0.541706 1.320000 -0.759506
v 0.616000 1.320000 -0.728728
v 0.679778 1.320000 -0.679778
v 0.728728 1.320000 -0.616000
v 0.759506 1.320000 -0.541706
v 0.770000 1.320000 -0.462000
v 0.554400 1.245838 0.300960
v 0.545754 1.245838 0.366564
v 0.520454 1.245838 0.427680
v 0.480172 1.245838 0.480172
v 0.427680 1.245838 0.520454
v 0.366564 1.245838 0.545754
v 0.300960 1.245838 0.554400
v -0.300960 1.245838 0.554400
v -0.366564 1.245838 0.545754
v -0.427680 1.245838 0.520454
v -0.480172 1.245838 0.480172
v -0.520454 1.245838 0.427680
v -0.545754 1.245838 0.366564
v -0.554400 1.245838 0.300960
v -0.554400 1.245838 -0.300960
v -0.545754 1.245838 -0.366564
v -0.520454 1.245838 -0.427680
v -0.480172 1.245838 -0.480172
v -0.427680 1.245838 -0.520454
v -0.366564 1.245838 -0.545754
v -0.300960 1.245838 -0.554400
v 0.300960 1.245838 -0.554400
v 0.366564 1.245838 -0.545754
v 0.427680 1.245838 -0.520454
v 0.480172 1.245838 -0.480172
v 0.520454 1.245838 -0.427680
v 0.545754 1.245838 -0.366564
v 0.554400 1.245838 -0.300960
v 0.323400 1.193170 0.175560
v 0.318362 1.193170 0.213818
v 0.303600 1.193170 0.249480
v 0.280104 1.193170 0.280104
v 0.249480 1.193170 0.303600
v 0.213818 1.193170 0.318362
v 0.175560 1.193170 0.323400
v -0.175560 1.193170 0.323400
v -0.213818 1.193170 0.318362
v -0.249480 1.193170 0.303600
v -0.280104 1.193170 0.280104
v -0.303600 1.193170 0.249480
v -0.318362 1.193170 0.213818
v -0.323400 1.193170 0.175560
v -0.323400 1.193170 -0.175560
v -0.318362 1.193170 -0.213818
v -0.303600 1.193170 -0.249480
v -0.280104 1.193170 -0.280104
v -0.249480 1.193170 -0.303600
v -0.213818 1.193170 -0.318362
v -0.175560 1.193170 -0.323400
v 0.175560 1.193170 -0.323400
v 0.213818 1.193170 -0.318362
v 0.249480 1.193170 -0.303600
v 0.280104 1.193170 -0.280104
v 0.303600 1.193170 -0.249480
v 0.318362 1.193170 -0.213818
v 0.323400 1.193170 -0.175560
v 0.000000 1.166000 -0.000000
v -0.310000 1.300000 0.150000
v -0.310000 1.340000 0.190000
v -0.350000 1.340000 0.150000
v -0.310000 1.311716 0.178284
v -0.333094 1.316906 0.173094
v -0.338284 1.340000 0.178284
v -0.338284 1.311716 0.150000
v -0.310000 1.360000 0.190000
v -0.310000 1.400000 0.150000
v -0.350000 1.360000 0.150000
v -0.310000 1.388284 0.178284
v -0.333094 1.383094 0.173094
v -0.338284 1.388284 0.150000
v -0.338284 1.360000 0.178284
v -0.310000 1.300000 -0.050000
v -0.350000 1.340000 -0.050000
v -0.310000 1.340000 -0.090000
v -0.338284 1.311716 -0.050000
v -0.333094 1.316906 -0.073094
v -0.338284 1.340000 -0.078284
v -0.310000 1.311716 -0.078284
v -0.310000 1.400000 -0.050000
v -0.310000 1.360000 -0.090000
v -0.350000 1.360000 -0.050000
v -0.310000 1.388284 -0.078284
v -0.333094 1.383094 -0.073094
v -0.338284 1.360000 -0.078284
v -0.338284 1.388284 -0.050000
v 0.310000 1.300000 0.150000
v 0.350000 1.340000 0.150000
v 0.310000 1.340000 0.190000
v 0.338284 1.311716 0.150000
v 0.333094 1.316906 0.173094
v 0.338284 1.340000 0.178284
v 0.310000 1.311716 0.178284
v 0.310000 1.400000 0.150000
v 0.310000 1.360000 0.190000
v 0.350000 1.360000 0.150000
v 0.310000 1.388284 0.178284
v 0.333094 1.383094 0.173094
v 0.338284 1.360000 0.178284
v 0.338284 1.388284 0.150000
v 0.310000 1.300000 -0.050000
v 0.310000 1.340000 -0.090000
v 0.350000 1.340000 -0.050000
v 0.310000 1.311716 -0.078284
v 0.333094 1.316906 -0.073094
v 0.338284 1.340000 -0.078284
v 0.338284 1.311716 -0.050000
v 0.310000 1.400000 -0.050000
v 0.350000 1.360000 -0.050000
v 0.310000 1.360000 -0.090000
v 0.338284 1.388284 -0.050000
v 0.333094 1.383094 -0.073094
v 0.338284 1.360000 -0.078284
v 0.310000 1.388284 -0.078284
v 0.000000 1.840000 0.000000
v 0.000000 1.716537 -0.184776
v 0.000000 1.455224 -0.076537
v 0.000000 1.440000 0.000000
v 0.038268 1.824776 -0.066283
v 0.070711 1.781421 -0.122474
v 0.092388 1.716537 -0.160021
v 0.100000 1.640000 -0.173205
v 0.092388 1.563463 -0.160021
v 0.070711 1.498579 -0.122474
v 0.038268 1.455224 -0.066283
v 0.066283 1.824776 -0.038268
v 0.122474 1.781421 -0.070711
v 0.160021 1.716537 -0.092388
v 0.173205 1.640000 -0.100000
v 0.160021 1.563463 -0.092388
v 0.122474 1.498579 -0.070711
v 0.066283 1.455224 -0.038268
v 0.076537 1.824776 0.000000
v 0.141421 1.781421 0.000000
v 0.184776 1.716537 0.000000
v 0.200000 1.640000 0.000000
v 0.184776 1.563463 0.000000
v 0.141421 1.498579 0.000000
v 0.076537 1.455224 0.000000
v 0.066283 1.824776 0.038268
v 0.122474 1.781421 0.070711
v 0.160021 1.716537 0.092388
v 0.173205 1.640000 0.100000
v 0.160021 1.563463 0.092388
v 0.122474 1.498579 0.070711
v 0.066283 1.455224 0.038268
v 0.038268 1.824776 0.066283
v 0.070711 1.781421 0.122474
v 0.092388 1.716537 0.160021
v 0.100000 1.640000 0.173205
v 0.092388 1.563463 0.160021
v 0.070711 1.498579 0.122474
v 0.038268 1.455224 0.066283
v -0.000000 1.824776 0.076537
v -0.000000 1.781421 0.141421
v -0.000000 1.716537 0.184776
v -0.000000 1.640000 0.200000
v -0.000000 1.563463 0.184776
v -0.000000 1.498579 0.141421
v -0.000000 1.455224 0.076537
v -0.038268 1.824776 0.066283
v -0.070711 1.781421 0.122474
v -0.092388 1.716537 0.160021
v -0.100000 1.640000 0.173205
v -0.092388 1.563463 0.160021
v -0.070711 1.498579 0.122474
v -0.038268 1.455224 0.066283
v -0.066283 1.824776 0.038268
v -0.122474 1.781421 0.070711
v -0.160021 1.716537 0.092388
v -0.173205 1.640000 0.100000
v -0.160021 1.563463 0.092388
v -0.122474 1.498579 0.070711
v -0.066283 1.455224 0.038268
v -0.076537 1.824776 -0.000000
v -0.141421 1.781421 -0.000000
v -0.184776 1.716537 -0.000000
v -0.200000 1.640000 -0.000000
v -0.184776 1.563463 -0.000000
v -0.141421 1.498579 -0.000000
v -0.076537 1.455224 -0.000000
v -0.066283 1.824776 -0.038268
v -0.122474 1.781421 -0.070711
v -0.160021 1.716537 -0.092388
v -0.173205 1.640000 -0.100000
v -0.160021 1.563463 -0.092388
v -0.122474 1.498579 -0.070711
v -0.066283 1.455224 -0.038268
v -0.038268 1.824776 -0.066283
v -0.070711 1.781421 -0.122474
v -0.092388 1.716537 -0.160021
v -0.100000 1.640000 -0.173205
v -0.092388 1.563463 -0.160021
v -0.070711 1.498579 -0.122474
v -0.038268 1.455224 -0.066283
v 0.000000 1.824776 -0.076537
v 0.000000 1.781421 -0.141421
v 0.000000 1.640000 -0.200000
v 0.000000 1.563463 -0.184776
v 0.000000 1.498579 -0.141421
v 0.368424 1.760000 -0.155767
v 0.368424 1.724853 -0.240620
v 0.368424 1.685922 -0.266633
v 0.368424 1.594078 -0.266633
v 0.368424 1.555147 -0.240620
v 0.368424 1.520000 -0.155767
v 0.395417 1.750866 -0.192919
v 0.418300 1.724853 -0.224415
v 0.433590 1.685922 -0.245459
v 0.438959 1.640000 -0.252849
v 0.433590 1.594078 -0.245459
v 0.418300 1.555147 -0.224415
v 0.395417 1.529135 -0.192919
v 0.412099 1.750866 -0.169958
v 0.449124 1.724853 -0.181988
v 0.473864 1.685922 -0.190027
v 0.482551 1.640000 -0.192849
v 0.473864 1.594078 -0.190027
v 0.449124 1.555147 -0.181988
v 0.412099 1.529135 -0.169958
v 0.412099 1.750866 -0.141577
v 0.449124 1.724853 -0.129546
v 0.473864 1.685922 -0.121508
v 0.482551 1.640000 -0.118685
v 0.473864 1.594078 -0.121508
v 0.449124 1.555147 -0.129546
v 0.412099 1.529135 -0.141577
v 0.395417 1.750866 -0.118616
v 0.418300 1.724853 -0.087120
v 0.433590 1.685922 -0.066075
v 0.438959 1.640000 -0.058685
v 0.433590 1.594078 -0.066075
v 0.418300 1.555147 -0.087120
v 0.395417 1.529135 -0.118616
v 0.368424 1.750866 -0.109845
v 0.368424 1.724853 -0.070915
v 0.368424 1.685922 -0.044902
v 0.368424 1.640000 -0.035767
v 0.368424 1.594078 -0.044902
v 0.368424 1.555147 -0.070915
v 0.368424 1.529135 -0.109845
v 0.341432 1.750866 -0.118616
v 0.318549 1.724853 -0.087120
v 0.303259 1.685922 -0.066075
v 0.297890 1.640000 -0.058685
v 0.303259 1.594078 -0.066075
v 0.318549 1.555147 -0.087120
v 0.341432 1.529135 -0.118616
v 0.324750 1.750866 -0.141577
v 0.287725 1.724853 -0.129546
v 0.262985 1.685922 -0.121508
v 0.254298 1.640000 -0.118685
v 0.262985 1.594078 -0.121508
v 0.287725 1.555147 -0.129546
v 0.324750 1.529135 -0.141577
v 0.324750 1.750866 -0.169958
v 0.287725 1.724853 -0.181988
v 0.262985 1.685922 -0.190027
v 0.254298 1.640000 -0.192849
v 0.262985 1.594078 -0.190027
v 0.287725 1.555147 -0.181988
v 0.324750 1.529135 -0.169958
v 0.341432 1.750866 -0.192919
v 0.318549 1.724853 -0.224415
v 0.303259 1.685922 -0.245459
v 0.297890 1.640000 -0.252849
v 0.303259 1.594078 -0.245459
v 0.318549 1.555147 -0.224415
v 0.341432 1.529135 -0.192919
v 0.368424 1.750866 -0.201689
v 0.368424 1.640000 -0.275767
v 0.368424 1.529135 -0.201689
v -0.294957 1.780000 -0.270185
v -0.294957 1.500000 -0.270185
v -0.263466 1.769343 -0.313529
v -0.236770 1.738995 -0.350274
v -0.218931 1.693576 -0.374826
v -0.212668 1.640000 -0.383448
v -0.218931 1.586425 -0.374826
v -0.236770 1.541005 -0.350274
v -0.263466 1.510657 -0.313529
v -0.244004 1.769343 -0.286741
v -0.200808 1.738995 -0.300776
v -0.171945 1.693576 -0.310154
v -0.161810 1.640000 -0.313448
v -0.171945 1.586425 -0.310154
v -0.200808 1.541005 -0.300776
v -0.244004 1.510657 -0.286741
v -0.244004 1.769343 -0.253629
v -0.200808 1.738995 -0.239594
v -0.171945 1.693576 -0.230216
v -0.161810 1.640000 -0.226923
v -0.171945 1.586425 -0.230216
v -0.200808 1.541005 -0.239594
v -0.244004 1.510657 -0.253629
v -0.263466 1.769343 -0.226842
v -0.236770 1.738995 -0.190097
v -0.218931 1.693576 -0.165544
v -0.212668 1.640000 -0.156923
v -0.218931 1.586425 -0.165544
v -0.236770 1.541005 -0.190097
v -0.263466 1.510657 -0.226842
v -0.294957 1.769343 -0.216610
v -0.294957 1.738995 -0.171190
v -0.294957 1.693576 -0.140842
v -0.294957 1.640000 -0.130185
v -0.294957 1.586425 -0.140842
v -0.294957 1.541005 -0.171190
v -0.294957 1.510657 -0.216610
v -0.326448 1.769343 -0.226842
v -0.353145 1.738995 -0.190097
v -0.370983 1.693576 -0.165544
v -0.377247 1.640000 -0.156923
v -0.370983 1.586425 -0.165544
v -0.353145 1.541005 -0.190097
v -0.326448 1.510657 -0.226842
v -0.345911 1.769343 -0.253629
v -0.389107 1.738995 -0.239594
v -0.417970 1.693576 -0.230216
v -0.428105 1.640000 -0.226923
v -0.417970 1.586425 -0.230216
v -0.389107 1.541005 -0.239594
v -0.345911 1.510657 -0.253629
v -0.345911 1.769343 -0.286741
v -0.389107 1.738995 -0.300776
v -0.417970 1.693576 -0.310154
v -0.428105 1.640000 -0.313448
v -0.417970 1.586425 -0.310154
v -0.389107 1.541005 -0.300776
v -0.345911 1.510657 -0.286741
v -0.326449 1.769343 -0.313529
v -0.353145 1.738995 -0.350274
v -0.370984 1.693576 -0.374826
v -0.377247 1.640000 -0.383448
v -0.370984 1.586425 -0.374826
v -0.353145 1.541005 -0.350274
v -0.326449 1.510657 -0.313529
v -0.294957 1.769343 -0.323761
v -0.294958 1.738995 -0.369180
v -0.294958 1.693576 -0.399528
v -0.294958 1.640000 -0.410185
v -0.294958 1.586425 -0.399528
v -0.294958 1.541005 -0.369180
v -0.294957 1.510657 -0.323761
v -0.160320 1.730000 0.366466
v -0.160320 1.703640 0.302827
v -0.160320 1.576360 0.302827
v -0.160320 1.550000 0.366466
v -0.140075 1.723149 0.338603
v -0.122913 1.703640 0.314981
v -0.111446 1.674442 0.299197
v -0.107419 1.640000 0.293655
v -0.111446 1.605559 0.299197
v -0.122913 1.576360 0.314981
v -0.140075 1.556851 0.338603
v -0.127564 1.723149 0.355823
v -0.099795 1.703640 0.346801
v -0.081240 1.674442 0.340772
v -0.074725 1.640000 0.338655
v -0.081240 1.605559 0.340772
v -0.099795 1.576360 0.346801
v -0.127564 1.556851 0.355823
v -0.127564 1.723149 0.377109
v -0.099795 1.703640 0.386132
v -0.081240 1.674442 0.392161
v -0.074725 1.640000 0.394278
v -0.081240 1.605559 0.392161
v -0.099795 1.576360 0.386132
v -0.127564 1.556851 0.377109
v -0.140075 1.723149 0.394330
v -0.122913 1.703640 0.417952
v -0.111446 1.674442 0.433735
v -0.107419 1.640000 0.439278
v -0.111446 1.605559 0.433735
v -0.122913 1.576360 0.417952
v -0.140075 1.556851 0.394330
v -0.160320 1.723149 0.400908
v -0.160320 1.703640 0.430106
v -0.160320 1.674442 0.449616
v -0.160320 1.640000 0.456466
v -0.160320 1.605559 0.449616
v -0.160320 1.576360 0.430106
v -0.160320 1.556851 0.400908
v -0.180564 1.723149 0.394330
v -0.197726 1.703640 0.417952
v -0.209194 1.674442 0.433735
v -0.213220 1.640000 0.439278
v -0.209194 1.605559 0.433735
v -0.197726 1.576360 0.417952
v -0.180564 1.556851 0.394330
v -0.193076 1.723149 0.377109
v -0.220845 1.703640 0.386132
v -0.239399 1.674442 0.392161
v -0.245915 1.640000 0.394278
v -0.239399 1.605559 0.392161
v -0.220845 1.576360 0.386132
v -0.193076 1.556851 0.377109
v -0.193076 1.723149 0.355823
v -0.220845 1.703640 0.346801
v -0.239399 1.674442 0.340772
v -0.245915 1.640000 0.338655
v -0.239399 1.605559 0.340772
v -0.220845 1.576360 0.346801
v -0.193076 1.556851 0.355823
v -0.180564 1.723149 0.338603
v -0.197726 1.703640 0.314981
v -0.209194 1.674442 0.299197
v -0.213220 1.640000 0.293655
v -0.209194 1.605559 0.299197
v -0.197726 1.576360 0.314981
v -0.180564 1.556851 0.338603
v -0.160320 1.723149 0.332025
v -0.160320 1.674442 0.283317
v -0.160320 1.640000 0.276466
v -0.160320 1.605559 0.283317
v -0.160320 1.556851 0.332025
v -0.135000 1.180000 -0.080000
v -0.135000 1.220000 -0.040000
v -0.175000 1.220000 -0.080000
v -0.135000 1.191716 -0.051716
v -0.158094 1.196906 -0.056906
v -0.163284 1.220000 -0.051716
v -0.163284 1.191716 -0.080000
v -0.135000 1.260000 -0.040000
v -0.135000 1.300000 -0.080000
v -0.175000 1.260000 -0.080000
v -0.135000 1.288284 -0.051716
v -0.158094 1.283094 -0.056906
v -0.163284 1.288284 -0.080000
v -0.163284 1.260000 -0.051716
v -0.135000 1.180000 -0.120000
v -0.175000 1.220000 -0.120000
v -0.135000 1.220000 -0.160000
v -0.163284 1.191716 -0.120000
v -0.158094 1.196906 -0.143094
v -0.163284 1.220000 -0.148284
v -0.135000 1.191716 -0.148284
v -0.135000 1.300000 -0.120000
v -0.135000 1.260000 -0.160000
v -0.175000 1.260000 -0.120000
v -0.135000 1.288284 -0.148284
v -0.158094 1.283094 -0.143094
v -0.163284 1.260000 -0.148284
v -0.163284 1.288284 -0.120000
v 0.235000 1.180000 -0.080000
v 0.275000 1.220000 -0.080000
v 0.235000 1.220000 -0.040000
v 0.263284 1.191716 -0.080000
v 0.258094 1.196906 -0.056906
v 0.263284 1.220000 -0.051716
v 0.235000 1.191716 -0.051716
v 0.235000 1.300000 -0.080000
v 0.235000 1.260000 -0.040000
v 0.275000 1.260000 -0.080000
v 0.235000 1.288284 -0.051716
v 0.258094 1.283094 -0.056906
v 0.263284 1.260000 -0.051716
v 0.263284 1.288284 -0.080000
v 0.235000 1.180000 -0.120000
v 0.235000 1.220000 -0.160000
v 0.275000 1.220000 -0.120000
v 0.235000 1.191716 -0.148284
v 0.258094 1.196906 -0.143094
v 0.263284 1.220000 -0.148284
v 0.263284 1.191716 -0.120000
v 0.235000 1.300000 -0.120000
v 0.275000 1.260000 -0.120000
v 0.235000 1.260000 -0.160000
v 0.263284 1.288284 -0.120000
v 0.258094 1.283094 -0.143094
v 0.263284 1.260000 -0.148284
v 0.235000 1.288284 -0.148284
v -0.140000 0.940000 -0.080000
v -0.140000 0.980000 -0.040000
v -0.180000 0.980000 -0.080000
v -0.140000 0.951716 -0.051716
v -0.163094 0.956906 -0.056906
v -0.168284 0.980000 -0.051716
v -0.168284 0.951716 -0.080000
v -0.140000 1.300000 -0.040000
v -0.140000 1.340000 -0.080000
v -0.180000 1.300000 -0.080000
v -0.140000 1.328285 -0.051716
v -0.163094 1.323094 -0.056906
v -0.168284 1.328285 -0.080000
v -0.168284 1.300000 -0.051716
v -0.140000 0.940000 -0.120000
v -0.180000 0.980000 -0.120000
v -0.140000 0.980000 -0.160000
v -0.168284 0.951716 -0.120000
v -0.163094 0.956906 -0.143094
v -0.168284 0.980000 -0.148284
v -0.140000 0.951716 -0.148284
v -0.140000 1.340000 -0.120000
v -0.140000 1.300000 -0.160000
v -0.180000 1.300000 -0.120000
v -0.140000 1.328285 -0.148284
v -0.163094 1.323094 -0.143094
v -0.168284 1.300000 -0.148284
v -0.168284 1.328285 -0.120000
v -0.100000 0.940000 -0.080000
v -0.060000 0.980000 -0.080000
v -0.100000 0.980000 -0.040000
v -0.071716 0.951716 -0.080000
v -0.076906 0.956906 -0.056906
v -0.071716 0.980000 -0.051716
v -0.100000 0.951716 -0.051716
v -0.100000 1.340000 -0.080000
v -0.100000 1.300000 -0.040000
v -0.060000 1.300000 -0.080000
v -0.100000 1.328285 -0.051716
v -0.076906 1.323094 -0.056906
v -0.071716 1.300000 -0.051716
v -0.071716 1.328285 -0.080000
v -0.100000 0.940000 -0.120000
v -0.100000 0.980000 -0.160000
v -0.060000 0.980000 -0.120000
v -0.100000 0.951716 -0.148284
v -0.076906 0.956906 -0.143094
v -0.071716 0.980000 -0.148284
v -0.071716 0.951716 -0.120000
v -0.100000 1.340000 -0.120000
v -0.060000 1.300000 -0.120000
v -0.100000 1.300000 -0.160000
v -0.071716 1.328285 -0.120000
v -0.076906 1.323094 -0.143094
v -0.071716 1.300000 -0.148284
v -0.100000 1.328285 -0.148284
v -0.290000 0.900000 -0.080000
v -0.290000 0.940000 -0.040000
v -0.330000 0.940000 -0.080000
v -0.290000 0.911716 -0.051716
v -0.313094 0.916906 -0.056906
v -0.318284 0.940000 -0.051716
v -0.318284 0.911716 -0.080000
v -0.290000 0.980000 -0.040000
v -0.290000 1.020000 -0.080000
v -0.330000 0.980000 -0.080000
v -0.290000 1.008284 -0.051716
v -0.313094 1.003094 -0.056906
v -0.318284 1.008284 -0.080000
v -0.318284 0.980000 -0.051716
v -0.290000 0.900000 -0.120000
v -0.330000 0.940000 -0.120000
v -0.290000 0.940000 -0.160000
v -0.318284 0.911716 -0.120000
v -0.313094 0.916906 -0.143094
v -0.318284 0.940000 -0.148284
v -0.290000 0.911716 -0.148284
v -0.290000 1.020000 -0.120000
v -0.290000 0.980000 -0.160000
v -0.330000 0.980000 -0.120000
v -0.290000 1.008284 -0.148284
v -0.313094 1.003094 -0.143094
v -0.318284 0.980000 -0.148284
v -0.318284 1.008284 -0.120000
v -0.150000 0.900000 -0.080000
v -0.110000 0.940000 -0.080000
v -0.150000 0.940000 -0.040000
v -0.121716 0.911716 -0.080000
v -0.126906 0.916906 -0.056906
v -0.121716 0.940000 -0.051716
v -0.150000 0.911716 -0.051716
v -0.150000 1.020000 -0.080000
v -0.150000 0.980000 -0.040000
v -0.110000 0.980000 -0.080000
v -0.150000 1.008284 -0.051716
v -0.126906 1.003094 -0.056906
v -0.121716 0.980000 -0.051716
v -0.121716 1.008284 -0.080000
v -0.150000 0.900000 -0.120000
v -0.150000 0.940000 -0.160000
v -0.110000 0.940000 -0.120000
v -0.150000 0.911716 -0.148284
v -0.126906 0.916906 -0.143094
v -0.121716 0.940000 -0.148284
v -0.121716 0.911716 -0.120000
v -0.150000 1.020000 -0.120000
v -0.110000 0.980000 -0.120000
v -0.150000 0.980000 -0.160000
v -0.121716 1.008284 -0.120000
v -0.126906 1.003094 -0.143094
v -0.121716 0.980000 -0.148284
v -0.150000 1.008284 -0.148284
vn 0.5454 -0.8382 0.0059
vn 0.6507 -0.7302 0.2086
vn -0.0000 -1.0000 -0.0000
vn 0.5497 -0.7567 0.3539
vn 0.4321 -0.7658 0.4762
vn 0.2977 -0.7593 0.5786
vn 0.1433 -0.7360 0.6616
vn 0.0022 -0.6372 0.7707
vn -0.0059 -0.8382 0.5454
vn -0.2086 -0.7302 0.6507
vn -0.3539 -0.7567 0.5497
vn -0.4762 -0.7658 0.4321
vn -0.5786 -0.7593 0.2977
vn -0.6616 -0.7360 0.1433
vn -0.7707 -0.6372 0.0022
vn -0.5454 -0.8382 -0.0059
vn -0.6507 -0.7302 -0.2086
vn -0.5497 -0.7567 -0.3539
vn -0.4321 -0.7658 -0.4762
vn -0.2977 -0.7593 -0.5786
vn -0.1433 -0.7360 -0.6616
vn -0.0022 -0.6372 -0.7707
vn 0.0059 -0.8382 -0.5454
vn 0.2086 -0.7302 -0.6507
vn 0.3539 -0.7567 -0.5497
vn 0.4762 -0.7658 -0.4321
vn 0.5786 -0.7593 -0.2977
vn 0.6616 -0.7360 -0.1433
vn 0.7707 -0.6372 -0.0022
vn 0.9336 0.2495 0.2571
vn 0.9807 0.1955 0.0071
vn 0.8273 0.2828 0.4853
vn 0.6713 0.2936 0.6806
vn 0.4740 0.2818 0.8342
vn 0.2443 0.2473 0.9376
vn 0.0075 0.1940 0.9810
vn -0.0071 0.1955 0.9807
vn -0.2571 0.2495 0.9336
vn -0.4853 0.2828 0.8273
vn -0.6806 0.2936 0.6713
vn -0.8342 0.2818 0.4740
vn -0.9376 0.2473 0.2443
vn -0.9810 0.1940 0.0075
vn -0.9807 0.1955 -0.0071
vn -0.9336 0.2495 -0.2571
vn -0.8273 0.2828 -0.4853
vn -0.6713 0.2936 -0.6806
vn -0.4740 0.2818 -0.8342
vn -0.2443 0.2473 -0.9376
vn -0.0075 0.1940 -0.9810
vn 0.0071 0.1955 -0.9807
vn 0.2571 0.2495 -0.9336
vn 0.4853 0.2828 -0.8273
vn 0.6806 0.2936 -0.6713
vn 0.8342 0.2818 -0.4740
vn 0.9376 0.2473 -0.2443
vn 0.9810 0.1940 -0.0075
vn 0.9174 0.3339 0.2164
vn 0.9708 0.2397 0.0057
vn 0.8183 0.3697 0.4401
vn 0.6726 0.3829 0.6332
vn 0.4878 0.3737 0.7889
vn 0.2705 0.3419 0.9000
vn 0.0155 0.3346 0.9422
vn -0.0056 0.2398 0.9708
vn -0.2164 0.3339 0.9174
vn -0.4401 0.3697 0.8183
vn -0.6332 0.3829 0.6726
vn -0.7889 0.3737 0.4878
vn -0.9000 0.3419 0.2705
vn -0.9422 0.3346 0.0155
vn -0.9708 0.2398 -0.0056
vn -0.9174 0.3339 -0.2164
vn -0.8183 0.3697 -0.4401
vn -0.6726 0.3829 -0.6332
vn -0.4878 0.3737 -0.7889
vn -0.2705 0.3419 -0.9000
vn -0.0155 0.3346 -0.9422
vn 0.0056 0.2398 -0.9708
vn 0.2164 0.3339 -0.9174
vn 0.4401 0.3697 -0.8183
vn 0.6332 0.3829 -0.6726
vn 0.7889 0.3737 -0.4878
vn 0.9000 0.3419 -0.2705
vn 0.9422 0.3346 -0.0155
vn 0.0685 0.9976 -0.0031
vn 0.2319 0.9727 -0.0012
vn 0.0622 0.9980 0.0137
vn 0.0553 0.9981 0.0287
vn 0.0473 0.9979 0.0432
vn 0.0375 0.9976 0.0587
vn 0.0027 0.9987 -0.0509
vn 0.0012 0.9727 0.2319
vn 0.0031 0.9976 0.0685
vn -0.0137 0.9980 0.0622
vn -0.0287 0.9981 0.0553
vn -0.0432 0.9979 0.0473
vn -0.0587 0.9976 0.0375
vn 0.0509 0.9987 0.0027
vn -0.2319 0.9727 0.0012
vn -0.0685 0.9976 0.0031
vn -0.0622 0.9980 -0.0137
vn -0.0553 0.9981 -0.0287
vn -0.0473 0.9979 -0.0432
vn -0.0375 0.9976 -0.0587
vn -0.0027 0.9987 0.0509
vn -0.0012 0.9727 -0.2319
vn -0.0031 0.9976 -0.0685
vn 0.0137 0.9980 -0.0622
vn 0.0287 0.9981 -0.0553
vn 0.0432 0.9979 -0.0473
vn 0.0587 0.9976 -0.0375
vn -0.0509 0.9987 -0.0027
vn -0.2401 0.9689 -0.0590
vn -0.2915 0.9566 -0.0026
vn -0.2006 0.9734 -0.1104
vn -0.1608 0.9749 -0.1543
vn -0.1178 0.9738 -0.1945
vn -0.0680 0.9698 -0.2341
vn -0.0045 0.9649 -0.2627
vn 0.0026 0.9566 -0.2915
vn 0.0590 0.9689 -0.2401
vn 0.1104 0.9734 -0.2007
vn 0.1543 0.9749 -0.1608
vn 0.1945 0.9738 -0.1178
vn 0.2341 0.9698 -0.0680
vn 0.2627 0.9649 -0.0045
vn 0.2915 0.9566 0.0026
vn 0.2401 0.9689 0.0590
vn 0.2006 0.9734 0.1104
vn 0.1608 0.9749 0.1543
vn 0.1178 0.9738 0.1945
vn 0.0680 0.9698 0.2341
vn 0.0045 0.9649 0.2627
vn -0.0026 0.9566 0.2915
vn -0.0590 0.9689 0.2401
vn -0.1104 0.9734 0.2007
vn -0.1543 0.9749 0.1608
vn -0.1945 0.9738 0.1178
vn -0.2341 0.9698 0.0680
vn -0.2627 0.9649 0.0045
vn -0.1449 0.9889 -0.0316
vn -0.1735 0.9848 -0.0011
vn -0.1228 0.9904 -0.0633
vn -0.0995 0.9909 -0.0905
vn -0.0738 0.9906 -0.1150
vn -0.0441 0.9894 -0.1380
vn -0.0036 0.9892 -0.1463
vn 0.0011 0.9848 -0.1735
vn 0.0316 0.9889 -0.1449
vn 0.0633 0.9904 -0.1228
vn 0.0905 0.9909 -0.0995
vn 0.1150 0.9906 -0.0738
vn 0.1381 0.9894 -0.0441
vn 0.1463 0.9892 -0.0036
vn 0.1735 0.9848 0.0011
vn 0.1449 0.9889 0.0316
vn 0.1228 0.9904 0.0633
vn 0.0995 0.9909 0.0905
vn 0.0738 0.9906 0.1150
vn 0.0441 0.9894 0.1380
vn 0.0036 0.9892 0.1463
vn -0.0011 0.9848 0.1735
vn -0.0316 0.9889 0.1449
vn -0.0633 0.9904 0.1228
vn -0.0905 0.9909 0.0995
vn -0.1150 0.9906 0.0738
vn -0.1381 0.9894 0.0441
vn -0.1463 0.9892 0.0036
vn -0.0000 1.0000 -0.0000
vn -0.1794 -0.9673 0.1794
vn -0.1726 -0.6965 0.6965
vn -0.5773 -0.5774 0.5773
vn -0.6965 -0.6965 0.1726
vn -0.1794 -0.1794 0.9673
vn -0.6965 -0.1726 0.6965
vn -0.9673 -0.1794 0.1794
vn -0.1794 0.1794 0.9673
vn -0.1726 0.6965 0.6965
vn -0.5774 0.5773 0.5774
vn -0.6965 0.1726 0.6965
vn -0.1794 0.9673 0.1794
vn -0.6965 0.6965 0.1726
vn -0.9673 0.1794 0.1794
vn -0.1794 -0.9673 -0.1794
vn -0.6965 -0.6965 -0.1726
vn -0.5773 -0.5774 -0.5773
vn -0.1726 -0.6965 -0.6965
vn -0.9673 -0.1794 -0.1794
vn -0.6965 -0.1726 -0.6965
vn -0.1794 -0.1794 -0.9673
vn -0.1794 0.9673 -0.1794
vn -0.1726 0.6965 -0.6965
vn -0.5774 0.5773 -0.5774
vn -0.6965 0.6965 -0.1726
vn -0.1794 0.1794 -0.9673
vn -0.6965 0.1726 -0.6965
vn -0.9673 0.1794 -0.1794
vn 0.1794 -0.9673 0.1794
vn 0.6965 -0.6965 0.1726
vn 0.5773 -0.5774 0.5773
vn 0.1726 -0.6965 0.6965
vn 0.9673 -0.1794 0.1794
vn 0.6965 -0.1726 0.6965
vn 0.1794 -0.1794 0.9673
vn 0.1794 0.9673 0.1794
vn 0.1726 0.6965 0.6965
vn 0.5774 0.5773 0.5774
vn 0.6965 0.6965 0.1726
vn 0.1794 0.1794 0.9673
vn 0.6965 0.1726 0.6965
vn 0.9673 0.1794 0.1794
vn 0.1794 -0.9673 -0.1794
vn 0.1726 -0.6965 -0.6965
vn 0.5773 -0.5774 -0.5773
vn 0.6965 -0.6965 -0.1726
vn 0.1794 -0.1794 -0.9673
vn 0.6965 -0.1726 -0.6965
vn 0.9673 -0.1794 -0.1794
vn 0.1794 0.9673 -0.1794
vn 0.6965 0.6965 -0.1726
vn 0.5774 0.5773 -0.5774
vn 0.1726 0.6965 -0.6965
vn 0.9673 0.1794 -0.1794
vn 0.6965 0.1726 -0.6965
vn 0.1794 0.1794 -0.9673
vn -0.0000 -0.3718 -0.9283
vn -0.0000 -0.0000 -1.0000
vn 0.5000 -0.0000 -0.8660
vn 0.4642 -0.3718 -0.8040
vn -0.0000 0.3718 -0.9283
vn -0.0000 0.6913 -0.7226
vn 0.3613 0.6913 -0.6258
vn 0.4642 0.3718 -0.8040
vn -0.0000 0.9122 -0.4097
vn 0.2049 0.9122 -0.3548
vn -0.0000 -0.9122 -0.4097
vn 0.2049 -0.9122 -0.3548
vn -0.0000 -0.6913 -0.7226
vn 0.3613 -0.6913 -0.6258
vn 0.3548 -0.9122 -0.2049
vn 0.8040 -0.3718 -0.4642
vn 0.6258 -0.6913 -0.3613
vn 0.8040 0.3718 -0.4642
vn 0.8660 -0.0000 -0.5000
vn 0.3548 0.9122 -0.2049
vn 0.6258 0.6913 -0.3613
vn 0.4097 0.9122 -0.0000
vn 0.7226 0.6913 -0.0000
vn 0.7226 -0.6913 -0.0000
vn 0.4097 -0.9122 -0.0000
vn 1.0000 -0.0000 -0.0000
vn 0.9283 -0.3718 -0.0000
vn 0.9283 0.3718 -0.0000
vn 0.6258 -0.6913 0.3613
vn 0.3548 -0.9122 0.2049
vn 0.8660 -0.0000 0.5000
vn 0.8040 -0.3718 0.4642
vn 0.6258 0.6913 0.3613
vn 0.8040 0.3718 0.4642
vn 0.3548 0.9122 0.2049
vn 0.2049 0.9122 0.3548
vn 0.2049 -0.9122 0.3548
vn 0.4642 -0.3718 0.8040
vn 0.3613 -0.6913 0.6258
vn 0.4642 0.3718 0.8040
vn 0.5000 -0.0000 0.8660
vn 0.3613 0.6913 0.6258
vn -0.0000 -0.3718 0.9283
vn -0.0000 -0.6913 0.7226
vn -0.0000 0.3718 0.9283
vn -0.0000 -0.0000 1.0000
vn -0.0000 0.9122 0.4097
vn -0.0000 0.6913 0.7226
vn -0.0000 -0.9122 0.4097
vn -0.3613 -0.6913 0.6258
vn -0.2049 -0.9122 0.3548
vn -0.5000 -0.0000 0.8660
vn -0.4642 -0.3718 0.8040
vn -0.3613 0.6913 0.6258
vn -0.4642 0.3718 0.8040
vn -0.2049 0.9122 0.3548
vn -0.8660 -0.0000 0.5000
vn -0.8040 -0.3718 0.4642
vn -0.6258 0.6913 0.3613
vn -0.8040 0.3718 0.4642
vn -0.3548 0.9122 0.2049
vn -0.3548 -0.9122 0.2049
vn -0.6258 -0.6913 0.3613
vn -0.4097 -0.9122 -0.0000
vn -0.9283 -0.3718 -0.0000
vn -0.7226 -0.6913 -0.0000
vn -0.9283 0.3718 -0.0000
vn -1.0000 -0.0000 -0.0000
vn -0.4097 0.9122 -0.0000
vn -0.7226 0.6913 -0.0000
vn -0.8040 0.3718 -0.4642
vn -0.8660 -0.0000 -0.5000
vn -0.3548 0.9122 -0.2049
vn -0.6258 0.6913 -0.3613
vn -0.6258 -0.6913 -0.3613
vn -0.3548 -0.9122 -0.2049
vn -0.8040 -0.3718 -0.4642
vn -0.3613 -0.6913 -0.6258
vn -0.2049 -0.9122 -0.3548
vn -0.5000 -0.0000 -0.8660
vn -0.4642 -0.3718 -0.8040
vn -0.3613 0.6913 -0.6258
vn -0.4642 0.3718 -0.8040
vn -0.2049 0.9122 -0.3548
vn -0.0000 0.6883 -0.7254
vn -0.0000 0.9099 -0.4149
vn 0.2439 0.9099 -0.3357
vn 0.4264 0.6883 -0.5869
vn -0.0000 -0.9099 -0.4149
vn -0.0000 -0.6883 -0.7254
vn 0.4264 -0.6883 -0.5869
vn 0.2439 -0.9099 -0.3357
vn -0.0000 -0.3697 -0.9291
vn 0.5878 -0.0000 -0.8090
vn 0.5461 -0.3697 -0.7517
vn -0.0000 0.3697 -0.9291
vn 0.5461 0.3697 -0.7517
vn 0.9511 -0.0000 -0.3090
vn 0.8837 -0.3697 -0.2871
vn 0.6899 0.6883 -0.2242
vn 0.8837 0.3697 -0.2871
vn 0.3946 0.9099 -0.1282
vn 0.3946 -0.9099 -0.1282
vn 0.6899 -0.6883 -0.2242
vn 0.3946 -0.9099 0.1282
vn 0.8837 -0.3697 0.2871
vn 0.6899 -0.6883 0.2242
vn 0.8837 0.3697 0.2871
vn 0.9511 -0.0000 0.3090
vn 0.3946 0.9099 0.1282
vn 0.6899 0.6883 0.2242
vn 0.5461 0.3697 0.7517
vn 0.5878 -0.0000 0.8090
vn 0.2439 0.9099 0.3357
vn 0.4264 0.6883 0.5869
vn 0.4264 -0.6883 0.5869
vn 0.2439 -0.9099 0.3357
vn 0.5461 -0.3697 0.7517
vn -0.0000 -0.6883 0.7254
vn -0.0000 -0.9099 0.4149
vn -0.0000 -0.3697 0.9291
vn -0.0000 0.6883 0.7254
vn -0.0000 0.3697 0.9291
vn -0.0000 0.9099 0.4149
vn -0.4264 0.6883 0.5869
vn -0.5461 0.3697 0.7517
vn -0.2439 0.9099 0.3357
vn -0.2439 -0.9099 0.3357
vn -0.5461 -0.3697 0.7517
vn -0.4264 -0.6883 0.5869
vn -0.5878 -0.0000 0.8090
vn -0.3946 -0.9099 0.1282
vn -0.8837 -0.3697 0.2871
vn -0.6899 -0.6883 0.2242
vn -0.8837 0.3697 0.2871
vn -0.9511 -0.0000 0.3090
vn -0.3946 0.9099 0.1282
vn -0.6899 0.6883 0.2242
vn -0.3946 0.9099 -0.1282
vn -0.6899 0.6883 -0.2242
vn -0.6899 -0.6883 -0.2242
vn -0.3946 -0.9099 -0.1282
vn -0.9511 -0.0000 -0.3090
vn -0.8837 -0.3697 -0.2871
vn -0.8837 0.3697 -0.2871
vn -0.4264 -0.6883 -0.5869
vn -0.2439 -0.9099 -0.3357
vn -0.5878 -0.0000 -0.8090
vn -0.5461 -0.3697 -0.7517
vn -0.4264 0.6883 -0.5869
vn -0.5461 0.3697 -0.7517
vn -0.2439 0.9099 -0.3357
vn -0.5774 -0.5773 0.5774
vn -0.5774 -0.5773 -0.5774
vn 0.5774 -0.5773 0.5774
vn 0.5773 -0.5774 -0.5774
vn 0.5773 0.5773 -0.5774
vn -0.5773 -0.5774 0.5774
vn -0.5774 0.5774 0.5773
vn -0.5774 0.5774 -0.5773
vn 0.5774 0.5774 0.5773
vn 0.5774 -0.5773 -0.5774
vn 0.5774 0.5774 -0.5773
s 1
f 2//1 3//2 1//3
f 3//2 4//4 1//3
f 4//4 5//5 1//3
f 5//5 6//6 1//3
f 6//6 7//7 1//3
f 7//7 8//8 1//3
f 8//8 9//9 1//3
f 9//9 10//10 1//3
f 10//10 11//11 1//3
f 11//11 12//12 1//3
f 12//12 13//13 1//3
f 13//13 14//14 1//3
f 14//14 15//15 1//3
f 15//15 16//16 1//3
f 16//16 17//17 1//3
f 17//17 18//18 1//3
f 18//18 19//19 1//3
f 19//19 20//20 1//3
f 20//20 21//21 1//3
f 21//21 22//22 1//3
f 22//22 23//23 1//3
f 23//23 24//24 1//3
f 24//24 25//25 1//3
f 25//25 26//26 1//3
f 26//26 27//27 1//3
f 27//27 28//28 1//3
f 28//28 29//29 1//3
f 29//29 2//1 1//3
f 31//30 3//2 2//1
f 30//31 31//30 2//1
f 32//32 4//4 3//2
f 31//30 32//32 3//2
f 33//33 5//5 4//4
f 32//32 33//33 4//4
f 34//34 6//6 5//5
f 33//33 34//34 5//5
f 35//35 7//7 6//6
f 34//34 35//35 6//6
f 36//36 8//8 7//7
f 35//35 36//36 7//7
f 37//37 9//9 8//8
f 36//36 37//37 8//8
f 38//38 10//10 9//9
f 37//37 38//38 9//9
f 39//39 11//11 10//10
f 38//38 39//39 10//10
f 40//40 12//12 11//11
f 39//39 40//40 11//11
f 41//41 13//13 12//12
f 40//40 41//41 12//12
f 42//42 14//14 13//13
f 41//41 42//42 13//13
f 43//43 15//15 14//14
f 42//42 43//43 14//14
f 44//44 16//16 15//15
f 43//43 44//44 15//15
f 45//45 17//17 16//16
f 44//44 45//45 16//16
f 46//46 18//18 17//17
f 45//45 46//46 17//17
f 47//47 19//19 18//18
f 46//46 47//47 18//18
f 48//48 20//20 19//19
f 47//47 48//48 19//19
f 49//49 21//21 20//20
f 48//48 49//49 20//20
f 50//50 22//22 21//21
f 49//49 50//50 21//21
f 51//51 23//23 22//22
f 50//50 51//51 22//22
f 52//52 24//24 23//23
f 51//51 52//52 23//23
f 53//53 25//25 24//24
f 52//52 53//53 24//24
f 54//54 26//26 25//25
f 53//53 54//54 25//25
f 55//55 27//27 26//26
f 54//54 55//55 26//26
f 56//56 28//28 27//27
f 55//55 56//56 27//27
f 57//57 29//29 28//28
f 56//56 57//57 28//28
f 30//31 2//1 29//29
f 57//57 30//31 29//29
f 59//58 31//30 30//31
f 58//59 59//58 30//31
f 60//60 32//32 31//30
f 59//58 60//60 31//30
f 61//61 33//33 32//32
f 60//60 61//61 32//32
f 62//62 34//34 33//33
f 61//61 62//62 33//33
f 63//63 35//35 34//34
f 62//62 63//63 34//34
f 64//64 36//36 35//35
f 63//63 64//64 35//35
f 65//65 37//37 36//36
f 64//64 65//65 36//36
f 66//66 38//38 37//37
f 65//65 66//66 37//37
f 67//67 39//39 38//38
f 66//66 67//67 38//38
f 68//68 40//40 39//39
f 67//67 68//68 39//39
f 69//69 41//41 40//40
f 68//68 69//69 40//40
f 70//70 42//42 41//41
f 69//69 70//70 41//41
f 71//71 43//43 42//42
f 70//70 71//71 42//42
f 72//72 44//44 43//43
f 71//71 72//72 43//43
f 73//73 45//45 44//44
f 72//72 73//73 44//44
f 74//74 46//46 45//45
f 73//73 74//74 45//45
f 75//75 47//47 46//46
f 74//74 75//75 46//46
f 76//76 48//48 47//47
f 75//75 76//76 47//47
f 77//77 49//49 48//48
f 76//76 77//77 48//48
f 78//78 50//50 49//49
f 77//77 78//78 49//49
f 79//79 51//51 50//50
f 78//78 79//79 50//50
f 80//80 52//52 51//51
f 79//79 80//80 51//51
f 81//81 53//53 52//52
f 80//80 81//81 52//52
f 82//82 54//54 53//53
f 81//81 82//82 53//53
f 83//83 55//55 54//54
f 82//82 83//83 54//54
f 84//84 56//56 55//55
f 83//83 84//84 55//55
f 85//85 57//57 56//56
f 84//84 85//85 56//56
f 58//59 30//31 57//57
f 85//85 58//59 57//57
f 87//86 59//58 58//59
f 86//87 87//86 58//59
f 88//88 60//60 59//58
f 87//86 88//88 59//58
f 89//89 61//61 60//60
f 88//88 89//89 60//60
f 90//90 62//62 61//61
f 89//89 90//90 61//61
f 91//91 63//63 62//62
f 90//90 91//91 62//62
f 92//92 64//64 63//63
f 91//91 92//92 63//63
f 93//93 65//65 64//64
f 92//92 93//93 64//64
f 94//94 66//66 65//65
f 93//93 94//94 65//65
f 95//95 67//67 66//66
f 94//94 95//95 66//66
f 96//96 68//68 67//67
f 95//95 96//96 67//67
f 97//97 69//69 68//68
f 96//96 97//97 68//68
f 98//98 70//70 69//69
f 97//97 98//98 69//69
f 99//99 71//71 70//70
f 98//98 99//99 70//70
f 100//100 72//72 71//71
f 99//99 100//100 71//71
f 101//101 73//73 72//72
f 100//100 101//101 72//72
f 102//102 74//74 73//73
f 101//101 102//102 73//73
f 103//103 75//75 74//74
f 102//102 103//103 74//74
f 104//104 76//76 75//75
f 103//103 104//104 75//75
f 105//105 77//77 76//76
f 104//104 105//105 76//76
f 106//106 78//78 77//77
f 105//105 106//106 77//77
f 107//107 79//79 78//78
f 106//106 107//107 78//78
f 108//108 80//80 79//79
f 107//107 108//108 79//79
f 109//109 81//81 80//80
f 108//108 109//109 80//80
f 110//110 82//82 81//81
f 109//109 110//110 81//81
f 111//111 83//83 82//82
f 110//110 111//111 82//82
f 112//112 84//84 83//83
f 111//111 112//112 83//83
f 113//113 85//85 84//84
f 112//112 113//113 84//84
f 86//87 58//59 85//85
f 113//113 86//87 85//85
f 115//114 87//86 86//87
f 114//115 115//114 86//87
f 116//116 88//88 87//86
f 115//114 116//116 87//86
f 117//117 89//89 88//88
f 116//116 117//117 88//88
f 118//118 90//90 89//89
f 117//117 118//118 89//89
f 119//119 91//91 90//90
f 118//118 119//119 90//90
f 120//120 92//92 91//91
f 119//119 120//120 91//91
f 121//121 93//93 92//92
f 120//120 121//121 92//92
f 122//122 94//94 93//93
f 121//121 122//122 93//93
f 123//123 95//95 94//94
f 122//122 123//123 94//94
f 124//124 96//96 95//95
f 123//123 124//124 95//95
f 125//125 97//97 96//96
f 124//124 125//125 96//96
f 126//126 98//98 97//97
f 125//125 126//126 97//97
f 127//127 99//99 98//98
f 126//126 127//127 98//98
f 128//128 100//100 99//99
f 127//127 128//128 99//99
f 129//129 101//101 100//100
f 128//128 129//129 100//100
f 130//130 102//102 101//101
f 129//129 130//130 101//101
f 131//131 103//103 102//102
f 130//130 131//131 102//102
f 132//132 104//104 103//103
f 131//131 132//132 103//103
f 133//133 105//105 104//104
f 132//132 133//133 104//104
f 134//134 106//106 105//105
f 133//133 134//134 105//105
f 135//135 107//107 106//106
f 134//134 135//135 106//106
f 136//136 108//108 107//107
f 135//135 136//136 107//107
f 137//137 109//109 108//108
f 136//136 137//137 108//108
f 138//138 110//110 109//109
f 137//137 138//138 109//109
f 139//139 111//111 110//110
f 138//138 139//139 110//110
f 140//140 112//112 111//111
f 139//139 140//140 111//111
f 141//141 113//113 112//112
f 140//140 141//141 112//112
f 114//115 86//87 113//113
f 141//141 114//115 113//113
f 143//142 115//114 114//115
f 142//143 143//142 114//115
f 144//144 116//116 115//114
f 143//142 144//144 115//114
f 145//145 117//117 116//116
f 144//144 145//145 116//116
f 146//146 118//118 117//117
f 145//145 146//146 117//117
f 147//147 119//119 118//118
f 146//146 147//147 118//118
f 148//148 120//120 119//119
f 147//147 148//148 119//119
f 149//149 121//121 120//120
f 148//148 149//149 120//120
f 150//150 122//122 121//121
f 149//149 150//150 121//121
f 151//151 123//123 122//122
f 150//150 151//151 122//122
f 152//152 124//124 123//123
f 151//151 152//152 123//123
f 153//153 125//125 124//124
f 152//152 153//153 124//124
f 154//154 126//126 125//125
f 153//153 154//154 125//125
f 155//155 127//127 126//126
f 154//154 155//155 126//126
f 156//156 128//128 127//127
f 155//155 156//156 127//127
f 157//157 129//129 128//128
f 156//156 157//157 128//128
f 158//158 130//130 129//129
f 157//157 158//158 129//129
f 159//159 131//131 130//130
f 158//158 159//159 130//130
f 160//160 132//132 131//131
f 159//159 160//160 131//131
f 161//161 133//133 132//132
f 160//160 161//161 132//132
f 162//162 134//134 133//133
f 161//161 162//162 133//133
f 163//163 135//135 134//134
f 162//162 163//163 134//134
f 164//164 136//136 135//135
f 163//163 164//164 135//135
f 165//165 137//137 136//136
f 164//164 165//165 136//136
f 166//166 138//138 137//137
f 165//165 166//166 137//137
f 167//167 139//139 138//138
f 166//166 167//167 138//138
f 168//168 140//140 139//139
f 167//167 168//168 139//139
f 169//169 141//141 140//140
f 168//168 169//169 140//140
f 142//143 114//115 141//141
f 169//169 142//143 141//141
f 170//170 143//142 142//143
f 170//170 144//144 143//142
f 170//170 145//145 144//144
f 170//170 146//146 145//145
f 170//170 147//147 146//146
f 170//170 148//148 147//147
f 170//170 149//149 148//148
f 170//170 150//150 149//149
f 170//170 151//151 150//150
f 170//170 152//152 151//151
f 170//170 153//153 152//152
f 170//170 154//154 153//153
f 170//170 155//155 154//154
f 170//170 156//156 155//155
f 170//170 157//157 156//156
f 170//170 158//158 157//157
f 170//170 159//159 158//158
f 170//170 160//160 159//159
f 170//170 161//161 160//160
f 170//170 162//162 161//161
f 170//170 163//163 162//162
f 170//170 164//164 163//163
f 170//170 165//165 164//164
f 170//170 166//166 165//165
f 170//170 167//167 166//166
f 170//170 168//168 167//167
f 170//170 169//169 168//168
f 170//170 142//143 169//169
f 171//171 174//172 175//173 177//174
f 172//175 176//176 175//173 174//172
f 173//177 177//174 175//173 176//176
f 178//178 181//179 182//180 184//181
f 179//182 183//183 182//180 181//179
f 180//184 184//181 182//180 183//183
f 185//185 188//186 189//187 191//188
f 186//189 190//190 189//187 188//186
f 187//191 191//188 189//187 190//190
f 192//192 195//193 196//194 198//195
f 193//196 197//197 196//194 195//193
f 194//198 198//195 196//194 197//197
f 199//199 202//200 203//201 205//202
f 200//203 204//204 203//201 202//200
f 201//205 205//202 203//201 204//204
f 206//206 209//207 210//208 212//209
f 207//210 211//211 210//208 209//207
f 208//212 212//209 210//208 211//211
f 213//213 216//214 217//215 219//216
f 214//217 218//218 217//215 216//214
f 215//219 219//216 217//215 218//218
f 220//220 223//221 224//222 226//223
f 221//224 225//225 224//222 223//221
f 222//226 226//223 224//222 225//225
f 185//185 171//171 177//174 188//186
f 188//186 177//174 173//177 186//189
f 172//175 178//178 184//181 176//176
f 176//176 184//181 180//184 173//177
f 179//182 192//192 198//195 183//183
f 183//183 198//195 194//198 180//184
f 193//196 187//191 190//190 197//197
f 197//197 190//190 186//189 194//198
f 213//213 185//185 191//188 216//214
f 216//214 191//188 187//191 214//217
f 192//192 220//220 226//223 195//193
f 195//193 226//223 222//226 193//196
f 221//224 215//219 218//218 225//225
f 225//225 218//218 214//217 222//226
f 199//199 213//213 219//216 202//200
f 202//200 219//216 215//219 200//203
f 220//220 206//206 212//209 223//221
f 223//221 212//209 208//212 221//224
f 207//210 201//205 204//204 211//211
f 211//211 204//204 200//203 208//212
f 171//171 199//199 205//202 174//172
f 174//172 205//202 201//205 172//175
f 206//206 179//182 181//179 209//207
f 209//207 181//179 178//178 207//210
f 185//185 213//213 199//199 171//171
f 173//177 180//184 194//198 186//189
f 201//205 207//210 178//178 172//175
f 220//220 192//192 179//182 206//206
f 187//191 193//196 222//226 214//217
f 215//219 221//224 208//212 200//203
f 311//227 310//228 234//229 235//230
f 228//231 309//232 232//233 233//234
f 308//235 227//170 231//236
f 230//3 229//237 237//238
f 312//239 311//227 235//230 236//240
f 310//228 228//231 233//234 234//229
f 309//232 308//235 231//236 232//233
f 229//237 312//239 236//240 237//238
f 230//3 237//238 244//241
f 236//240 235//230 242//242 243//243
f 234//229 233//234 240//244 241//245
f 232//233 231//236 238//246 239//247
f 237//238 236//240 243//243 244//241
f 235//230 234//229 241//245 242//242
f 233//234 232//233 239//247 240//244
f 231//236 227//170 238//246
f 239//247 238//246 245//248 246//249
f 244//241 243//243 250//250 251//251
f 242//242 241//245 248//252 249//253
f 240//244 239//247 246//249 247//254
f 238//246 227//170 245//248
f 230//3 244//241 251//251
f 243//243 242//242 249//253 250//250
f 241//245 240//244 247//254 248//252
f 251//251 250//250 257//255 258//256
f 249//253 248//252 255//257 256//258
f 247//254 246//249 253//259 254//260
f 245//248 227//170 252//261
f 230//3 251//251 258//256
f 250//250 249//253 256//258 257//255
f 248//252 247//254 254//260 255//257
f 246//249 245//248 252//261 253//259
f 252//261 227//170 259//262
f 230//3 258//256 265//263
f 257//255 256//258 263//264 264//265
f 255//257 254//260 261//266 262//267
f 253//259 252//261 259//262 260//268
f 258//256 257//255 264//265 265//263
f 256//258 255//257 262//267 263//264
f 254//260 253//259 260//268 261//266
f 264//265 263//264 270//269 271//270
f 262//267 261//266 268//271 269//272
f 260//268 259//262 266//273 267//274
f 265//263 264//265 271//270 272//275
f 263//264 262//267 269//272 270//269
f 261//266 260//268 267//274 268//271
f 259//262 227//170 266//273
f 230//3 265//263 272//275
f 272//275 271//270 278//276 279//277
f 270//269 269//272 276//278 277//279
f 268//271 267//274 274//280 275//281
f 266//273 227//170 273//282
f 230//3 272//275 279//277
f 271//270 270//269 277//279 278//276
f 269//272 268//271 275//281 276//278
f 267//274 266//273 273//282 274//280
f 277//279 276//278 283//283 284//284
f 275//281 274//280 281//285 282//286
f 273//282 227//170 280//287
f 230//3 279//277 286//288
f 278//276 277//279 284//284 285//289
f 276//278 275//281 282//286 283//283
f 274//280 273//282 280//287 281//285
f 279//277 278//276 285//289 286//288
f 230//3 286//288 293//290
f 285//289 284//284 291//291 292//292
f 283//283 282//286 289//293 290//294
f 281//285 280//287 287//295 288//296
f 286//288 285//289 292//292 293//290
f 284//284 283//283 290//294 291//291
f 282//286 281//285 288//296 289//293
f 280//287 227//170 287//295
f 290//294 289//293 296//297 297//298
f 288//296 287//295 294//299 295//300
f 293//290 292//292 299//301 300//302
f 291//291 290//294 297//298 298//303
f 289//293 288//296 295//300 296//297
f 287//295 227//170 294//299
f 230//3 293//290 300//302
f 292//292 291//291 298//303 299//301
f 300//302 299//301 306//304 307//305
f 298//303 297//298 304//306 305//307
f 296//297 295//300 302//308 303//309
f 294//299 227//170 301//310
f 230//3 300//302 307//305
f 299//301 298//303 305//307 306//304
f 297//298 296//297 303//309 304//306
f 295//300 294//299 301//310 302//308
f 303//309 302//308 309//232 228//231
f 301//310 227//170 308//235
f 230//3 307//305 229//237
f 306//304 305//307 311//227 312//239
f 304//306 303//309 228//231 310//228
f 302//308 301//310 308//235 309//232
f 307//305 306//304 312//239 229//237
f 305//307 304//306 310//228 311//227
f 314//311 382//312 319//313 320//314
f 384//315 317//316 324//317 325//318
f 316//319 383//228 322//320 323//321
f 315//322 314//311 320//314 321//323
f 382//312 313//170 319//313
f 318//3 384//315 325//318
f 317//316 316//319 323//321 324//317
f 383//228 315//322 321//323 322//320
f 323//321 322//320 329//324 330//325
f 321//323 320//314 327//326 328//327
f 319//313 313//170 326//328
f 318//3 325//318 332//329
f 324//317 323//321 330//325 331//330
f 322//320 321//323 328//327 329//324
f 320//314 319//313 326//328 327//326
f 325//318 324//317 331//330 332//329
f 318//3 332//329 339//331
f 331//330 330//325 337//332 338//333
f 329//324 328//327 335//334 336//335
f 327//326 326//328 333//336 334//337
f 332//329 331//330 338//333 339//331
f 330//325 329//324 336//335 337//332
f 328//327 327//326 334//337 335//334
f 326//328 313//170 333//336
f 336//335 335//334 342//338 343//339
f 334//337 333//336 340//340 341//341
f 339//331 338//333 345//342 346//343
f 337//332 336//335 343//339 344//344
f 335//334 334//337 341//341 342//338
f 333//336 313//170 340//340
f 318//3 339//331 346//343
f 338//333 337//332 344//344 345//342
f 346//343 345//342 352//345 353//346
f 344//344 343//339 350//272 351//347
f 342//338 341//341 348//348 349//349
f 340//340 313//170 347//350
f 318//3 346//343 353//346
f 345//342 344//344 351//347 352//345
f 343//339 342//338 349//349 350//272
f 341//341 340//340 347//350 348//348
f 349//349 348//348 355//351 356//352
f 347//350 313//170 354//353
f 318//3 353//346 360//354
f 352//345 351//347 358//355 359//356
f 350//272 349//349 356//352 357//357
f 348//348 347//350 354//353 355//351
f 353//346 352//345 359//356 360//354
f 351//347 350//272 357//357 358//355
f 318//3 360//354 367//358
f 359//356 358//355 365//359 366//360
f 357//357 356//352 363//361 364//362
f 355//351 354//353 361//363 362//364
f 360//354 359//356 366//360 367//358
f 358//355 357//357 364//362 365//359
f 356//352 355//351 362//364 363//361
f 354//353 313//170 361//363
f 362//364 361//363 368//365 369//366
f 367//358 366//360 373//367 374//368
f 365//359 364//362 371//369 372//370
f 363//361 362//364 369//366 370//371
f 361//363 313//170 368//365
f 318//3 367//358 374//368
f 366//360 365//359 372//370 373//367
f 364//362 363//361 370//371 371//369
f 374//368 373//367 380//372 381//373
f 372//370 371//369 378//374 379//375
f 370//371 369//366 376//376 377//377
f 368//365 313//170 375//378
f 318//3 374//368 381//373
f 373//367 372//370 379//375 380//372
f 371//369 370//371 377//377 378//374
f 369//366 368//365 375//378 376//376
f 375//378 313//170 382//312
f 318//3 381//373 384//315
f 380//372 379//375 316//319 317//316
f 378//374 377//377 315//322 383//228
f 376//376 375//378 382//312 314//311
f 381//373 380//372 317//316 384//315
f 379//375 378//374 383//228 316//319
f 377//377 376//376 314//311 315//322
f 451//311 450//312 387//313 388//314
f 456//315 455//316 392//317 393//318
f 454//319 453//228 390//320 391//321
f 452//322 451//311 388//314 389//323
f 450//312 385//170 387//313
f 386//3 456//315 393//318
f 455//316 454//319 391//321 392//317
f 453//228 452//322 389//323 390//320
f 391//321 390//320 397//324 398//325
f 389//323 388//314 395//326 396//327
f 387//313 385//170 394//328
f 386//3 393//318 400//329
f 392//317 391//321 398//325 399//330
f 390//320 389//323 396//327 397//324
f 388//314 387//313 394//328 395//326
f 393//318 392//317 399//330 400//329
f 386//3 400//329 407//331
f 399//330 398//325 405//332 406//333
f 397//324 396//327 403//334 404//335
f 395//326 394//328 401//336 402//337
f 400//329 399//330 406//333 407//331
f 398//325 397//324 404//335 405//332
f 396//327 395//326 402//337 403//334
f 394//328 385//170 401//336
f 404//335 403//334 410//338 411//339
f 402//337 401//336 408//340 409//341
f 407//331 406//333 413//342 414//343
f 405//332 404//335 411//339 412//344
f 403//334 402//337 409//341 410//338
f 401//336 385//170 408//340
f 386//3 407//331 414//343
f 406//333 405//332 412//344 413//342
f 414//343 413//342 420//345 421//346
f 412//344 411//339 418//272 419//347
f 410//338 409//341 416//348 417//349
f 408//340 385//170 415//350
f 386//3 414//343 421//346
f 413//342 412//344 419//347 420//345
f 411//339 410//338 417//349 418//272
f 409//341 408//340 415//350 416//348
f 417//349 416//348 423//351 424//352
f 415//350 385//170 422//353
f 386//3 421//346 428//354
f 420//345 419//347 426//355 427//356
f 418//272 417//349 424//352 425//357
f 416//348 415//350 422//353 423//351
f 421//346 420//345 427//356 428//354
f 419//347 418//272 425//357 426//355
f 386//3 428//354 435//358
f 427//356 426//355 433//359 434//360
f 425//357 424//352 431//361 432//362
f 423//351 422//353 429//363 430//364
f 428//354 427//356 434//360 435//358
f 426//355 425//357 432//362 433//359
f 424//352 423//351 430//364 431//361
f 422//353 385//170 429//363
f 430//364 429//363 436//365 437//366
f 435//358 434//360 441//367 442//368
f 433//359 432//362 439//369 440//370
f 431//361 430//364 437//366 438//371
f 429//363 385//170 436//365
f 386//3 435//358 442//368
f 434//360 433//359 440//370 441//367
f 432//362 431//361 438//371 439//369
f 442//368 441//367 448//372 449//373
f 440//370 439//369 446//374 447//375
f 438//371 437//366 444//376 445//377
f 436//365 385//170 443//378
f 386//3 442//368 449//373
f 441//367 440//370 447//375 448//372
f 439//369 438//371 445//377 446//374
f 437//366 436//365 443//378 444//376
f 443//378 385//170 450//312
f 386//3 449//373 456//315
f 448//372 447//375 454//319 455//316
f 446//374 445//377 452//322 453//228
f 444//376 443//378 450//312 451//311
f 449//373 448//372 455//316 456//315
f 447//375 446//374 453//228 454//319
f 445//377 444//376 451//311 452//322
f 528//315 459//316 466//317 467//318
f 527//319 526//228 464//320 465//321
f 525//322 458//311 462//314 463//323
f 524//312 457//170 461//313
f 460//3 528//315 467//318
f 459//316 527//319 465//321 466//317
f 526//228 525//322 463//323 464//320
f 458//311 524//312 461//313 462//314
f 461//313 457//170 468//328
f 460//3 467//318 474//329
f 466//317 465//321 472//325 473//330
f 464//320 463//323 470//327 471//324
f 462//314 461//313 468//328 469//326
f 467//318 466//317 473//330 474//329
f 465//321 464//320 471//324 472//325
f 463//323 462//314 469//326 470//327
f 473//330 472//325 479//332 480//333
f 471//324 470//327 477//334 478//335
f 469//326 468//328 475//336 476//337
f 474//329 473//330 480//333 481//331
f 472//325 471//324 478//335 479//332
f 470//327 469//326 476//337 477//334
f 468//328 457//170 475//336
f 460//3 474//329 481//331
f 481//331 480//333 487//342 488//343
f 479//332 478//335 485//339 486//344
f 477//334 476//337 483//341 484//338
f 475//336 457//170 482//340
f 460//3 481//331 488//343
f 480//333 479//332 486//344 487//342
f 478//335 477//334 484//338 485//339
f 476//337 475//336 482//340 483//341
f 486//344 485//339 492//272 493//347
f 484//338 483//341 490//348 491//349
f 482//340 457//170 489//350
f 460//3 488//343 495//346
f 487//342 486//344 493//347 494//345
f 485//339 484//338 491//349 492//272
f 483//341 482//340 489//350 490//348
f 488//343 487//342 494//345 495//346
f 460//3 495//346 502//354
f 494//345 493//347 500//355 501//356
f 492//272 491//349 498//352 499//357
f 490//348 489//350 496//353 497//351
f 495//346 494//345 501//356 502//354
f 493//347 492//272 499//357 500//355
f 491//349 490//348 497//351 498//352
f 489//350 457//170 496//353
f 499//357 498//352 505//361 506//362
f 497//351 496//353 503//363 504//364
f 502//354 501//356 508//360 509//358
f 500//355 499//357 506//362 507//359
f 498//352 497//351 504//364 505//361
f 496//353 457//170 503//363
f 460//3 502//354 509//358
f 501//356 500//355 507//359 508//360
f 509//358 508//360 515//367 516//368
f 507//359 506//362 513//369 514//370
f 505//361 504//364 511//366 512//371
f 503//363 457//170 510//365
f 460//3 509//358 516//368
f 508//360 507//359 514//370 515//367
f 506//362 505//361 512//371 513//369
f 504//364 503//363 510//365 511//366
f 512//371 511//366 518//376 519//377
f 510//365 457//170 517//378
f 460//3 516//368 523//373
f 515//367 514//370 521//375 522//372
f 513//369 512//371 519//377 520//374
f 511//366 510//365 517//378 518//376
f 516//368 515//367 522//372 523//373
f 514//370 513//369 520//374 521//375
f 460//3 523//373 528//315
f 522//372 521//375 527//319 459//316
f 520//374 519//377 525//322 526//228
f 518//376 517//378 524//312 458//311
f 523//373 522//372 459//316 528//315
f 521//375 520//374 526//228 527//319
f 519//377 518//376 458//311 525//322
f 517//378 457//170 524//312
f 529//171 532//172 533//173 535//174
f 530//175 534//176 533//173 532//172
f 531//177 535//174 533//173 534//176
f 536//178 539//179 540//180 542//181
f 537//182 541//183 540//180 539//179
f 538//184 542//181 540//180 541//183
f 543//185 546//186 547//187 549//188
f 544//189 548//190 547//187 546//186
f 545//191 549//188 547//187 548//190
f 550//192 553//193 554//194 556//195
f 551//196 555//197 554//194 553//193
f 552//198 556//195 554//194 555//197
f 557//199 560//200 561//201 563//202
f 558//203 562//204 561//201 560//200
f 559//205 563//202 561//201 562//204
f 564//206 567//207 568//208 570//209
f 565//210 569//211 568//208 567//207
f 566//212 570//209 568//208 569//211
f 571//213 574//214 575//215 577//216
f 572//217 576//218 575//215 574//214
f 573//219 577//216 575//215 576//218
f 578//220 581//221 582//222 584//223
f 579//224 583//225 582//222 581//221
f 580//226 584//223 582//222 583//225
f 543//185 529//171 535//174 546//186
f 546//186 535//174 531//177 544//189
f 530//175 536//178 542//181 534//176
f 534//176 542//181 538//184 531//177
f 537//182 550//192 556//195 541//183
f 541//183 556//195 552//198 538//184
f 551//196 545//191 548//190 555//197
f 555//197 548//190 544//189 552//198
f 571//213 543//185 549//188 574//214
f 574//214 549//188 545//191 572//217
f 550//192 578//220 584//223 553//193
f 553//193 584//223 580//226 551//196
f 579//224 573//219 576//218 583//225
f 583//225 576//218 572//217 580//226
f 557//199 571//213 577//216 560//200
f 560//200 577//216 573//219 558//203
f 578//220 564//206 570//209 581//221
f 581//221 570//209 566//212 579//224
f 565//210 559//205 562//204 569//211
f 569//211 562//204 558//203 566//212
f 529//171 557//199 563//202 532//172
f 532//172 563//202 559//205 530//175
f 564//206 537//182 539//179 567//207
f 567//207 539//179 536//178 565//210
f 543//185 571//213 557//199 529//171
f 531//177 538//184 552//198 544//189
f 559//205 565//210 536//178 530//175
f 578//220 550//192 537//182 564//206
f 545//191 551//196 580//226 572//217
f 573//219 579//224 566//212 558//203
f 585//171 588//172 589//379 591//174
f 586//175 590//176 589//379 588//172
f 587//177 591//174 589//379 590//176
f 592//178 595//179 596//180 598//181
f 593//182 597//183 596//180 595//179
f 594//184 598//181 596//180 597//183
f 599//185 602//186 603//380 605//188
f 600//189 604//190 603//380 602//186
f 601//191 605//188 603//380 604//190
f 606//192 609//193 610//194 612//195
f 607//196 611//197 610//194 609//193
f 608//198 612//195 610//194 611//197
f 613//199 616//200 617//381 619//202
f 614//203 618//204 617//381 616//200
f 615//205 619//202 617//381 618//204
f 620//206 623//207 624//208 626//209
f 621//210 625//211 624//208 623//207
f 622//212 626//209 624//208 625//211
f 627//213 630//214 631//382 633//216
f 628//217 632//218 631//382 630//214
f 629//219 633//216 631//382 632//218
f 634//220 637//221 638//383 640//223
f 635//224 639//225 638//383 637//221
f 636//226 640//223 638//383 639//225
f 599//185 585//171 591//174 602//186
f 602//186 591//174 587//177 600//189
f 586//175 592//178 598//181 590//176
f 590//176 598//181 594//184 587//177
f 593//182 606//192 612//195 597//183
f 597//183 612//195 608//198 594//184
f 607//196 601//191 604//190 611//197
f 611//197 604//190 600//189 608//198
f 627//213 599//185 605//188 630//214
f 630//214 605//188 601//191 628//217
f 606//192 634//220 640//223 609//193
f 609//193 640//223 636//226 607//196
f 635//224 629//219 632//218 639//225
f 639//225 632//218 628//217 636//226
f 613//199 627//213 633//216 616//200
f 616//200 633//216 629//219 614//203
f 634//220 620//206 626//209 637//221
f 637//221 626//209 622//212 635//224
f 621//210 615//205 618//204 625//211
f 625//211 618//204 614//203 622//212
f 585//171 613//199 619//202 588//172
f 588//172 619//202 615//205 586//175
f 620//206 593//182 595//179 623//207
f 623//207 595//179 592//178 621//210
f 599//185 627//213 613//199 585//171
f 587//177 594//184 608//198 600//189
f 615//205 621//210 592//178 586//175
f 634//220 606//192 593//182 620//206
f 601//191 607//196 636//226 628//217
f 629//219 635//224 622//212 614//203
f 641//171 644//172 645//384 647//174
f 642//175 646//176 645//384 644//172
f 643//177 647//174 645//384 646//176
f 648//178 651//179 652//385 654//181
f 649//182 653//183 652//385 651//179
f 650//184 654//181 652//385 653//183
f 655//185 658//186 659//380 661//188
f 656//189 660//190 659//380 658//186
f 657//191 661//188 659//380 660//190
f 662//192 665//193 666//386 668//195
f 663//196 667//197 666//386 665//193
f 664//198 668//195 666//386 667//197
f 669//199 672//200 673//381 675//202
f 670//203 674//204 673//381 672//200
f 671//205 675//202 673//381 674//204
f 676//206 679//207 680//387 682//209
f 677//210 681//211 680//387 679//207
f 678//212 682//209 680//387 681//211
f 683//213 686//214 687//388 689//216
f 684//217 688//218 687//388 686//214
f 685//219 689//216 687//388 688//218
f 690//220 693//221 694//389 696//223
f 691//224 695//225 694//389 693//221
f 692//226 696//223 694//389 695//225
f 655//185 641//171 647//174 658//186
f 658//186 647//174 643//177 656//189
f 642//175 648//178 654//181 646//176
f 646//176 654//181 650//184 643//177
f 649//182 662//192 668//195 653//183
f 653//183 668//195 664//198 650//184
f 663//196 657//191 660//190 667//197
f 667//197 660//190 656//189 664//198
f 683//213 655//185 661//188 686//214
f 686//214 661//188 657//191 684//217
f 662//192 690//220 696//223 665//193
f 665//193 696//223 692//226 663//196
f 691//224 685//219 688//218 695//225
f 695//225 688//218 684//217 692//226
f 669//199 683//213 689//216 672//200
f 672//200 689//216 685//219 670//203
f 690//220 676//206 682//209 693//221
f 693//221 682//209 678//212 691//224
f 677//210 671//205 674//204 681//211
f 681//211 674//204 670//203 678//212
f 641//171 669//199 675//202 644//172
f 644//172 675//202 671//205 642//175
f 676//206 649//182 651//179 679//207
f 679//207 651//179 648//178 677//210
f 655//185 683//213 669//199 641//171
f 643//177 650//184 664//198 656//189
f 671//205 677//210 648//178 642//175
f 690//220 662//192 649//182 676//206
f 657//191 663//196 692//226 684//217
f 685//219 691//224 678//212 670//203
