# Blender 5.2.2 LTS
# www.blender.org
o GoldenSpacebar
v 0.000000 0.000000 0.000000
v 1.100000 0.000000 0.836000
v 1.091002 0.000000 0.904332
v 1.064624 0.000000 0.968000
v 1.022670 0.000000 1.022670
v 0.968000 0.000000 1.064624
v 0.904332 0.000000 1.091002
v 0.836000 0.000000 1.100000
v -0.836000 0.000000 1.100000
v -0.904332 0.000000 1.091002
v -0.968000 0.000000 1.064624
v -1.022670 0.000000 1.022670
v -1.064624 0.000000 0.968000
v -1.091002 0.000000 0.904332
v -1.100000 0.000000 0.836000
v -1.100000 0.000000 -0.836000
v -1.091002 0.000000 -0.904332
v -1.064624 0.000000 -0.968000
v -1.022670 0.000000 -1.022670
v -0.968000 0.000000 -1.064624
v -0.904332 0.000000 -1.091002
v -0.836000 0.000000 -1.100000
v 0.836000 0.000000 -1.100000
v 0.904332 0.000000 -1.091002
v 0.968000 0.000000 -1.064624
v 1.022670 0.000000 -1.022670
v 1.064624 0.000000 -0.968000
v 1.091002 0.000000 -0.904332
v 1.100000 0.000000 -0.836000
v 0.979000 0.607200 0.671000
v 0.968506 0.607200 0.750706
v 0.937728 0.607200 0.825000
v 0.888778 0.607200 0.888778
v 0.825000 0.607200 0.937728
v 0.750706 0.607200 0.968506
v 0.671000 0.607200 0.979000
v -0.671000 0.607200 0.979000
v -0.750706 0.607200 0.968506
v -0.825000 0.607200 0.937728
v -0.888778 0.607200 0.888778
v -0.937728 0.607200 0.825000
v -0.968506 0.607200 0.750706
v -0.979000 0.607200 0.671000
v -0.979000 0.607200 -0.671000
v -0.968506 0.607200 -0.750706
v -0.937728 0.607200 -0.825000
v -0.888778 0.607200 -0.888778
v -0.825000 0.607200 -0.937728
v -0.750706 0.607200 -0.968506
v -0.671000 0.607200 -0.979000
v 0.671000 0.607200 -0.979000
v 0.750706 0.607200 -0.968506
v 0.825000 0.607200 -0.937728
v 0.888778 0.607200 -0.888778
v 0.937728 0.607200 -0.825000
v 0.968506 0.607200 -0.750706
v 0.979000 0.607200 -0.671000
v 0.858000 1.232000 0.506000
v 0.846010 1.232000 0.597102
v 0.810832 1.232000 0.682000
v 0.754908 1.232000 0.754908
v 0.682000 1.232000 0.810832
v 0.597102 1.232000 0.846010
v 0.506000 1.232000 0.858000
v -0.506000 1.232000 0.858000
v -0.597102 1.232000 0.846010
v -0.682000 1.232000 0.810832
v -0.754908 1.232000 0.754908
v -0.810832 1.232000 0.682000
v -0.846010 1.232000 0.597102
v -0.858000 1.232000 0.506000
v -0.858000 1.232000 -0.506000
v -0.846010 1.232000 -0.597102
v -0.810832 1.232000 -0.682000
v -0.754908 1.232000 -0.754908
v -0.682000 1.232000 -0.810832
v -0.597102 1.232000 -0.846010
v -0.506000 1.232000 -0.858000
v 0.506000 1.232000 -0.858000
v 0.597102 1.232000 -0.846010
v 0.682000 1.232000 -0.810832
v 0.754908 1.232000 -0.754908
v 0.810832 1.232000 -0.682000
v 0.846010 1.232000 -0.597102
v 0.858000 1.232000 -0.506000
v 0.770000 1.320000 0.462000
v 0.759506 1.320000 0.541706
v 0.728728 1.320000 0.616000
v 0.679778 1.320000 0.679778
v 0.616000 1.320000 0.728728
v 0.541706 1.320000 0.759506
v 0.462000 1.320000 0.770000
v -0.462000 1.320000 0.770000
v -0.541706 1.320000 0.759506
v -0.616000 1.320000 0.728728
v -0.679778 1.320000 0.679778
v -0.728728 1.320000 0.616000
v -0.759506 1.320000 0.541706
v -0.770000 1.320000 0.462000
v -0.770000 1.320000 -0.462000
v -0.759506 1.320000 -0.541706
v -0.728728 1.320000 -0.616000
v -0.679778 1.320000 -0.679778
v -0.616000 1.320000 -0.728728
v -0.541706 1.320000 -0.759506
v -0.462000 1.320000 -0.770000
v 0.462000 1.320000 -0.770000
v 0.541706 1.320000 -0.759506
v 0.616000 1.320000 -0.728728
v 0.679778 1.320000 -0.679778
v 0.728728 1.320000 -0.616000
v 0.759506 1.320000 -0.541706
v 0.770000 1.320000 -0.462000
v 0.554400 1.245838 0.300960
v 0.545754 1.245838 0.366564
v 0.520454 1.245838 0.427680
v 0.480172 1.245838 0.480172
v 0.427680 1.245838 0.520454
v 0.366564 1.245838 0.545754
v 0.300960 1.245838 0.554400
v -0.300960 1.245838 0.554400
v -0.366564 1.245838 0.545754
v -0.427680 1.245838 0.520454
v -0.480172 1.245838 0.480172
v -0.520454 1.245838 0.427680
v -0.545754 1.245838 0.366564
v -0.554400 1.245838 0.300960
v -0.554400 1.245838 -0.300960
v -0.545754 1.245838 -0.366564
v -0.520454 1.245838 -0.427680
v -0.480172 1.245838 -0.480172
v -0.427680 1.245838 -0.520454
v -0.366564 1.245838 -0.545754
v -0.300960 1.245838 -0.554400
v 0.300960 1.245838 -0.554400
v 0.366564 1.245838 -0.545754
v 0.427680 1.245838 -0.520454
v 0.480172 1.245838 -0.480172
v 0.520454 1.245838 -0.427680
v 0.545754 1.245838 -0.366564
v 0.554400 1.245838 -0.300960
v 0.323400 1.193170 0.175560
v 0.318362 1.193170 0.213818
v 0.303600 1.193170 0.249480
v 0.280104 1.193170 0.280104
v 0.249480 1.193170 0.303600
v 0.213818 1.193170 0.318362
v 0.175560 1.193170 0.323400
v -0.175560 1.193170 0.323400
v -0.213818 1.193170 0.318362
v -0.249480 1.193170 0.303600
v -0.280104 1.193170 0.280104
v -0.303600 1.193170 0.249480
v -0.318362 1.193170 0.213818
v -0.323400 1.193170 0.175560
v -0.323400 1.193170 -0.175560
v -0.318362 1.193170 -0.213818
v -0.303600 1.193170 -0.249480
v -0.280104 1.193170 -0.280104
v -0.249480 1.193170 -0.303600
v -0.213818 1.193170 -0.318362
v -0.175560 1.193170 -0.323400
v 0.175560 1.193170 -0.323400
v 0.213818 1.193170 -0.318362
v 0.249480 1.193170 -0.303600
v 0.280104 1.193170 -0.280104
v 0.303600 1.193170 -0.249480
v 0.318362 1.193170 -0.213818
v 0.323400 1.193170 -0.175560
v 0.000000 1.166000 -0.000000
v -0.310000 1.300000 0.150000
v -0.310000 1.340000 0.190000
v -0.350000 1.340000 0.150000
v -0.310000 1.311716 0.178284
v -0.333094 1.316906 0.173094
v -0.338284 1.340000 0.178284
v -0.338284 1.311716 0.150000
v -0.310000 1.360000 0.190000
v -0.310000 1.400000 0.150000
v -0.350000 1.360000 0.150000
v -0.310000 1.388284 0.178284
v -0.333094 1.383094 0.173094
v -0.338284 1.388284 0.150000
v -0.338284 1.360000 0.178284
v -0.310000 1.300000 -0.050000
v -0.350000 1.340000 -0.050000
v -0.310000 1.340000 -0.090000
v -0.338284 1.311716 -0.050000
v -0.333094 1.316906 -0.073094
v -0.338284 1.340000 -0.078284
v -0.310000 1.311716 -0.078284
v -0.310000 1.400000 -0.050000
v -0.310000 1.360000 -0.090000
v -0.350000 1.360000 -0.050000
v -0.310000 1.388284 -0.078284
v -0.333094 1.383094 -0.073094
v -0.338284 1.360000 -0.078284
v -0.338284 1.388284 -0.050000
v 0.310000 1.300000 0.150000
v 0.350000 1.340000 0.150000
v 0.310000 1.340000 0.190000
v 0.338284 1.311716 0.150000
v 0.333094 1.316906 0.173094
v 0.338284 1.340000 0.178284
v 0.310000 1.311716 0.178284
v 0.310000 1.400000 0.150000
v 0.310000 1.360000 0.190000
v 0.350000 1.360000 0.150000
v 0.310000 1.388284 0.178284
v 0.333094 1.383094 0.173094
v 0.338284 1.360000 0.178284
v 0.338284 1.388284 0.150000
v 0.310000 1.300000 -0.050000
v 0.310000 1.340000 -0.090000
v 0.350000 1.340000 -0.050000
v 0.310000 1.311716 -0.078284
v 0.333094 1.316906 -0.073094
v 0.338284 1.340000 -0.078284
v 0.338284 1.311716 -0.050000
v 0.310000 1.400000 -0.050000
v 0.350000 1.360000 -0.050000
v 0.310000 1.360000 -0.090000
v 0.338284 1.388284 -0.050000
v 0.333094 1.383094 -0.073094
v 0.338284 1.360000 -0.078284
v 0.310000 1.388284 -0.078284
v 0.000000 1.900000 0.000000
v 0.000000 1.887275 -0.080344
v 0.000000 1.792824 -0.210344
v 0.000000 1.720345 -0.247275
v 0.000000 1.640000 -0.260000
v 0.000000 1.559656 -0.247275
v 0.000000 1.429656 -0.152824
v 0.000000 1.392725 -0.080344
v 0.000000 1.380000 0.000000
v 0.034860 1.887275 -0.072388
v 0.066308 1.850345 -0.137690
v 0.091265 1.792824 -0.189514
v 0.107288 1.720345 -0.222787
v 0.112810 1.640000 -0.234252
v 0.107288 1.559656 -0.222787
v 0.091265 1.487176 -0.189514
v 0.066308 1.429656 -0.137690
v 0.034860 1.392725 -0.072388
v 0.062816 1.887275 -0.050094
v 0.119483 1.850345 -0.095284
v 0.164454 1.792824 -0.131148
v 0.193327 1.720345 -0.154173
v 0.203276 1.640000 -0.162107
v 0.193327 1.559656 -0.154173
v 0.164454 1.487176 -0.131148
v 0.119483 1.429656 -0.095284
v 0.062816 1.392725 -0.050094
v 0.078330 1.887275 -0.017878
v 0.148993 1.850345 -0.034007
v 0.205071 1.792824 -0.046806
v 0.241075 1.720345 -0.055024
v 0.253481 1.640000 -0.057855
v 0.241075 1.559656 -0.055024
v 0.205071 1.487176 -0.046806
v 0.148993 1.429656 -0.034007
v 0.078330 1.392725 -0.017878
v 0.078330 1.887275 0.017878
v 0.148993 1.850345 0.034007
v 0.205071 1.792824 0.046806
v 0.241075 1.720345 0.055024
v 0.253481 1.640000 0.057855
v 0.241075 1.559656 0.055024
v 0.205071 1.487176 0.046806
v 0.148993 1.429656 0.034007
v 0.078330 1.392725 0.017878
v 0.062816 1.887275 0.050094
v 0.119483 1.850345 0.095284
v 0.164454 1.792824 0.131148
v 0.193327 1.720345 0.154173
v 0.203276 1.640000 0.162107
v 0.193327 1.559656 0.154173
v 0.164454 1.487176 0.131148
v 0.119483 1.429656 0.095284
v 0.062816 1.392725 0.050094
v 0.034860 1.887275 0.072388
v 0.066308 1.850345 0.137690
v 0.091265 1.792824 0.189514
v 0.107288 1.720345 0.222787
v 0.112810 1.640000 0.234252
v 0.107288 1.559656 0.222787
v 0.091265 1.487176 0.189514
v 0.066308 1.429656 0.137690
v 0.034860 1.392725 0.072388
v -0.000000 1.887275 0.080344
v -0.000000 1.850345 0.152824
v -0.000000 1.792824 0.210344
v -0.000000 1.720345 0.247275
v -0.000000 1.640000 0.260000
v -0.000000 1.559656 0.247275
v -0.000000 1.487176 0.210344
v -0.000000 1.429656 0.152824
v -0.000000 1.392725 0.080344
v -0.034860 1.887275 0.072388
v -0.066308 1.850345 0.137690
v -0.091265 1.792824 0.189514
v -0.107288 1.720345 0.222787
v -0.112810 1.640000 0.234252
v -0.107288 1.559656 0.222787
v -0.091265 1.487176 0.189514
v -0.066308 1.429656 0.137690
v -0.034860 1.392725 0.072388
v -0.062816 1.887275 0.050094
v -0.119483 1.850345 0.095284
v -0.164454 1.792824 0.131148
v -0.193327 1.720345 0.154173
v -0.203276 1.640000 0.162107
v -0.193327 1.559656 0.154173
v -0.164454 1.487176 0.131148
v -0.119483 1.429656 0.095284
v -0.062816 1.392725 0.050094
v -0.078330 1.887275 0.017878
v -0.148993 1.850345 0.034007
v -0.205071 1.792824 0.046806
v -0.241075 1.720345 0.055024
v -0.253481 1.640000 0.057855
v -0.241075 1.559656 0.055024
v -0.205071 1.487176 0.046806
v -0.148993 1.429656 0.034007
v -0.078330 1.392725 0.017878
v -0.078330 1.887275 -0.017878
v -0.148992 1.850345 -0.034007
v -0.205071 1.792824 -0.046806
v -0.241075 1.720345 -0.055024
v -0.253481 1.640000 -0.057855
v -0.241075 1.559656 -0.055024
v -0.205071 1.487176 -0.046806
v -0.148992 1.429656 -0.034007
v -0.078330 1.392725 -0.017878
v -0.062816 1.887275 -0.050094
v -0.119483 1.850345 -0.095284
v -0.164454 1.792824 -0.131148
v -0.193327 1.720345 -0.154173
v -0.203276 1.640000 -0.162107
v -0.193327 1.559656 -0.154173
v -0.164454 1.487176 -0.131148
v -0.119483 1.429656 -0.095284
v -0.062816 1.392725 -0.050094
v -0.034860 1.887275 -0.072388
v -0.066308 1.850345 -0.137690
v -0.091265 1.792824 -0.189514
v -0.107288 1.720345 -0.222787
v -0.112810 1.640000 -0.234252
v -0.107288 1.559656 -0.222787
v -0.091265 1.487176 -0.189514
v -0.066308 1.429656 -0.137690
v -0.034860 1.392725 -0.072388
v 0.000000 1.850345 -0.152824
v 0.000000 1.487176 -0.210344
v -0.385000 1.230000 0.050000
v -0.385000 1.270000 0.090000
v -0.425000 1.270000 0.050000
v -0.385000 1.241716 0.078284
v -0.408094 1.246906 0.073094
v -0.413284 1.270000 0.078284
v -0.413284 1.241716 0.050000
v -0.385000 1.310000 0.090000
v -0.385000 1.350000 0.050000
v -0.425000 1.310000 0.050000
v -0.385000 1.338284 0.078284
v -0.408094 1.333094 0.073094
v -0.413284 1.338284 0.050000
v -0.413284 1.310000 0.078284
v -0.385000 1.230000 -0.050000
v -0.425000 1.270000 -0.050000
v -0.385000 1.270000 -0.090000
v -0.413284 1.241716 -0.050000
v -0.408094 1.246906 -0.073094
v -0.413284 1.270000 -0.078284
v -0.385000 1.241716 -0.078284
v -0.385000 1.350000 -0.050000
v -0.385000 1.310000 -0.090000
v -0.425000 1.310000 -0.050000
v -0.385000 1.338284 -0.078284
v -0.408094 1.333094 -0.073094
v -0.413284 1.310000 -0.078284
v -0.413284 1.338284 -0.050000
v 0.385000 1.230000 0.050000
v 0.425000 1.270000 0.050000
v 0.385000 1.270000 0.090000
v 0.413284 1.241716 0.050000
v 0.408094 1.246906 0.073094
v 0.413284 1.270000 0.078284
v 0.385000 1.241716 0.078284
v 0.385000 1.350000 0.050000
v 0.385000 1.310000 0.090000
v 0.425000 1.310000 0.050000
v 0.385000 1.338284 0.078284
v 0.408094 1.333094 0.073094
v 0.413284 1.310000 0.078284
v 0.413284 1.338284 0.050000
v 0.385000 1.230000 -0.050000
v 0.385000 1.270000 -0.090000
v 0.425000 1.270000 -0.050000
v 0.385000 1.241716 -0.078284
v 0.408094 1.246906 -0.073094
v 0.413284 1.270000 -0.078284
v 0.413284 1.241716 -0.050000
v 0.385000 1.350000 -0.050000
v 0.425000 1.310000 -0.050000
v 0.385000 1.310000 -0.090000
v 0.413284 1.338284 -0.050000
v 0.408094 1.333094 -0.073094
v 0.413284 1.310000 -0.078284
v 0.385000 1.338284 -0.078284
v -0.060000 1.330000 -0.180000
v -0.060000 1.370000 -0.140000
v -0.100000 1.370000 -0.180000
v -0.060000 1.341716 -0.151716
v -0.083094 1.346906 -0.156906
v -0.088284 1.370000 -0.151716
v -0.088284 1.341716 -0.180000
v -0.060000 1.370000 -0.140000
v -0.060000 1.410000 -0.180000
v -0.100000 1.370000 -0.180000
v -0.060000 1.398284 -0.151716
v -0.083094 1.393094 -0.156906
v -0.088284 1.398284 -0.180000
v -0.088284 1.370000 -0.151716
v -0.060000 1.330000 -0.220000
v -0.100000 1.370000 -0.220000
v -0.060000 1.370000 -0.260000
v -0.088284 1.341716 -0.220000
v -0.083094 1.346906 -0.243094
v -0.088284 1.370000 -0.248284
v -0.060000 1.341716 -0.248284
v -0.060000 1.410000 -0.220000
v -0.060000 1.370000 -0.260000
v -0.100000 1.370000 -0.220000
v -0.060000 1.398284 -0.248284
v -0.083094 1.393094 -0.243094
v -0.088284 1.370000 -0.248284
v -0.088284 1.398284 -0.220000
v 0.060000 1.330000 -0.180000
v 0.100000 1.370000 -0.180000
v 0.060000 1.370000 -0.140000
v 0.088284 1.341716 -0.180000
v 0.083094 1.346906 -0.156906
v 0.088284 1.370000 -0.151716
v 0.060000 1.341716 -0.151716
v 0.060000 1.410000 -0.180000
v 0.060000 1.370000 -0.140000
v 0.100000 1.370000 -0.180000
v 0.060000 1.398284 -0.151716
v 0.083094 1.393094 -0.156906
v 0.088284 1.370000 -0.151716
v 0.088284 1.398284 -0.180000
v 0.060000 1.330000 -0.220000
v 0.060000 1.370000 -0.260000
v 0.100000 1.370000 -0.220000
v 0.060000 1.341716 -0.248284
v 0.083094 1.346906 -0.243094
v 0.088284 1.370000 -0.248284
v 0.088284 1.341716 -0.220000
v 0.060000 1.410000 -0.220000
v 0.100000 1.370000 -0.220000
v 0.060000 1.370000 -0.260000
v 0.088284 1.398284 -0.220000
v 0.083094 1.393094 -0.243094
v 0.088284 1.370000 -0.248284
v 0.060000 1.398284 -0.248284
vn 0.5454 -0.8382 0.0059
vn 0.6507 -0.7302 0.2086
vn -0.0000 -1.0000 -0.0000
vn 0.5497 -0.7567 0.3539
vn 0.4321 -0.7658 0.4762
vn 0.2977 -0.7593 0.5786
vn 0.1433 -0.7360 0.6616
vn 0.0022 -0.6372 0.7707
vn -0.0059 -0.8382 0.5454
vn -0.2086 -0.7302 0.6507
vn -0.3539 -0.7567 0.5497
vn -0.4762 -0.7658 0.4321
vn -0.5786 -0.7593 0.2977
vn -0.6616 -0.7360 0.1433
vn -0.7707 -0.6372 0.0022
vn -0.5454 -0.8382 -0.0059
vn -0.6507 -0.7302 -0.2086
vn -0.5497 -0.7567 -0.3539
vn -0.4321 -0.7658 -0.4762
vn -0.2977 -0.7593 -0.5786
vn -0.1433 -0.7360 -0.6616
vn -0.0022 -0.6372 -0.7707
vn 0.0059 -0.8382 -0.5454
vn 0.2086 -0.7302 -0.6507
vn 0.3539 -0.7567 -0.5497
vn 0.4762 -0.7658 -0.4321
vn 0.5786 -0.7593 -0.2977
vn 0.6616 -0.7360 -0.1433
vn 0.7707 -0.6372 -0.0022
vn 0.9336 0.2495 0.2571
vn 0.9807 0.1955 0.0071
vn 0.8273 0.2828 0.4853
vn 0.6713 0.2936 0.6806
vn 0.4740 0.2818 0.8342
vn 0.2443 0.2473 0.9376
vn 0.0075 0.1940 0.9810
vn -0.0071 0.1955 0.9807
vn -0.2571 0.2495 0.9336
vn -0.4853 0.2828 0.8273
vn -0.6806 0.2936 0.6713
vn -0.8342 0.2818 0.4740
vn -0.9376 0.2473 0.2443
vn -0.9810 0.1940 0.0075
vn -0.9807 0.1955 -0.0071
vn -0.9336 0.2495 -0.2571
vn -0.8273 0.2828 -0.4853
vn -0.6713 0.2936 -0.6806
vn -0.4740 0.2818 -0.8342
vn -0.2443 0.2473 -0.9376
vn -0.0075 0.1940 -0.9810
vn 0.0071 0.1955 -0.9807
vn 0.2571 0.2495 -0.9336
vn 0.4853 0.2828 -0.8273
vn 0.6806 0.2936 -0.6713
vn 0.8342 0.2818 -0.4740
vn 0.9376 0.2473 -0.2443
vn 0.9810 0.1940 -0.0075
vn 0.9174 0.3339 0.2164
vn 0.9708 0.2397 0.0057
vn 0.8183 0.3697 0.4401
vn 0.6726 0.3829 0.6332
vn 0.4878 0.3737 0.7889
vn 0.2705 0.3419 0.9000
vn 0.0155 0.3346 0.9422
vn -0.0056 0.2398 0.9708
vn -0.2164 0.3339 0.9174
vn -0.4401 0.3697 0.8183
vn -0.6332 0.3829 0.6726
vn -0.7889 0.3737 0.4878
vn -0.9000 0.3419 0.2705
vn -0.9422 0.3346 0.0155
vn -0.9708 0.2398 -0.0056
vn -0.9174 0.3339 -0.2164
vn -0.8183 0.3697 -0.4401
vn -0.6726 0.3829 -0.6332
vn -0.4878 0.3737 -0.7889
vn -0.2705 0.3419 -0.9000
vn -0.0155 0.3346 -0.9422
vn 0.0056 0.2398 -0.9708
vn 0.2164 0.3339 -0.9174
vn 0.4401 0.3697 -0.8183
vn 0.6332 0.3829 -0.6726
vn 0.7889 0.3737 -0.4878
vn 0.9000 0.3419 -0.2705
vn 0.9422 0.3346 -0.0155
vn 0.0685 0.9976 -0.0031
vn 0.2319 0.9727 -0.0012
vn 0.0622 0.9980 0.0137
vn 0.0553 0.9981 0.0287
vn 0.0473 0.9979 0.0432
vn 0.0375 0.9976 0.0587
vn 0.0027 0.9987 -0.0509
vn 0.0012 0.9727 0.2319
vn 0.0031 0.9976 0.0685
vn -0.0137 0.9980 0.0622
vn -0.0287 0.9981 0.0553
vn -0.0432 0.9979 0.0473
vn -0.0587 0.9976 0.0375
vn 0.0509 0.9987 0.0027
vn -0.2319 0.9727 0.0012
vn -0.0685 0.9976 0.0031
vn -0.0622 0.9980 -0.0137
vn -0.0553 0.9981 -0.0287
vn -0.0473 0.9979 -0.0432
vn -0.0375 0.9976 -0.0587
vn -0.0027 0.9987 0.0509
vn -0.0012 0.9727 -0.2319
vn -0.0031 0.9976 -0.0685
vn 0.0137 0.9980 -0.0622
vn 0.0287 0.9981 -0.0553
vn 0.0432 0.9979 -0.0473
vn 0.0587 0.9976 -0.0375
vn -0.0509 0.9987 -0.0027
vn -0.2401 0.9689 -0.0590
vn -0.2915 0.9566 -0.0026
vn -0.2006 0.9734 -0.1104
vn -0.1608 0.9749 -0.1543
vn -0.1178 0.9738 -0.1945
vn -0.0680 0.9698 -0.2341
vn -0.0045 0.9649 -0.2627
vn 0.0026 0.9566 -0.2915
vn 0.0590 0.9689 -0.2401
vn 0.1104 0.9734 -0.2007
vn 0.1543 0.9749 -0.1608
vn 0.1945 0.9738 -0.1178
vn 0.2341 0.9698 -0.0680
vn 0.2627 0.9649 -0.0045
vn 0.2915 0.9566 0.0026
vn 0.2401 0.9689 0.0590
vn 0.2006 0.9734 0.1104
vn 0.1608 0.9749 0.1543
vn 0.1178 0.9738 0.1945
vn 0.0680 0.9698 0.2341
vn 0.0045 0.9649 0.2627
vn -0.0026 0.9566 0.2915
vn -0.0590 0.9689 0.2401
vn -0.1104 0.9734 0.2007
vn -0.1543 0.9749 0.1608
vn -0.1945 0.9738 0.1178
vn -0.2341 0.9698 0.0680
vn -0.2627 0.9649 0.0045
vn -0.1449 0.9889 -0.0316
vn -0.1735 0.9848 -0.0011
vn -0.1228 0.9904 -0.0633
vn -0.0995 0.9909 -0.0905
vn -0.0738 0.9906 -0.1150
vn -0.0441 0.9894 -0.1380
vn -0.0036 0.9892 -0.1463
vn 0.0011 0.9848 -0.1735
vn 0.0316 0.9889 -0.1449
vn 0.0633 0.9904 -0.1228
vn 0.0905 0.9909 -0.0995
vn 0.1150 0.9906 -0.0738
vn 0.1381 0.9894 -0.0441
vn 0.1463 0.9892 -0.0036
vn 0.1735 0.9848 0.0011
vn 0.1449 0.9889 0.0316
vn 0.1228 0.9904 0.0633
vn 0.0995 0.9909 0.0905
vn 0.0738 0.9906 0.1150
vn 0.0441 0.9894 0.1380
vn 0.0036 0.9892 0.1463
vn -0.0011 0.9848 0.1735
vn -0.0316 0.9889 0.1449
vn -0.0633 0.9904 0.1228
vn -0.0905 0.9909 0.0995
vn -0.1150 0.9906 0.0738
vn -0.1381 0.9894 0.0441
vn -0.1463 0.9892 0.0036
vn -0.0000 1.0000 -0.0000
vn -0.1794 -0.9673 0.1794
vn -0.1726 -0.6965 0.6965
vn -0.5773 -0.5774 0.5773
vn -0.6965 -0.6965 0.1726
vn -0.1794 -0.1794 0.9673
vn -0.6965 -0.1726 0.6965
vn -0.9673 -0.1794 0.1794
vn -0.1794 0.1794 0.9673
vn -0.1726 0.6965 0.6965
vn -0.5774 0.5773 0.5774
vn -0.6965 0.1726 0.6965
vn -0.1794 0.9673 0.1794
vn -0.6965 0.6965 0.1726
vn -0.9673 0.1794 0.1794
vn -0.1794 -0.9673 -0.1794
vn -0.6965 -0.6965 -0.1726
vn -0.5773 -0.5774 -0.5773
vn -0.1726 -0.6965 -0.6965
vn -0.9673 -0.1794 -0.1794
vn -0.6965 -0.1726 -0.6965
vn -0.1794 -0.1794 -0.9673
vn -0.1794 0.9673 -0.1794
vn -0.1726 0.6965 -0.6965
vn -0.5774 0.5773 -0.5774
vn -0.6965 0.6965 -0.1726
vn -0.1794 0.1794 -0.9673
vn -0.6965 0.1726 -0.6965
vn -0.9673 0.1794 -0.1794
vn 0.1794 -0.9673 0.1794
vn 0.6965 -0.6965 0.1726
vn 0.5773 -0.5774 0.5773
vn 0.1726 -0.6965 0.6965
vn 0.9673 -0.1794 0.1794
vn 0.6965 -0.1726 0.6965
vn 0.1794 -0.1794 0.9673
vn 0.1794 0.9673 0.1794
vn 0.1726 0.6965 0.6965
vn 0.5774 0.5773 0.5774
vn 0.6965 0.6965 0.1726
vn 0.1794 0.1794 0.9673
vn 0.6965 0.1726 0.6965
vn 0.9673 0.1794 0.1794
vn 0.1794 -0.9673 -0.1794
vn 0.1726 -0.6965 -0.6965
vn 0.5773 -0.5774 -0.5773
vn 0.6965 -0.6965 -0.1726
vn 0.1794 -0.1794 -0.9673
vn 0.6965 -0.1726 -0.6965
vn 0.9673 -0.1794 -0.1794
vn 0.1794 0.9673 -0.1794
vn 0.6965 0.6965 -0.1726
vn 0.5774 0.5773 -0.5774
vn 0.1726 0.6965 -0.6965
vn 0.9673 0.1794 -0.1794
vn 0.6965 0.1726 -0.6965
vn 0.1794 0.1794 -0.9673
vn -0.0000 -0.7985 -0.6020
vn -0.0000 -0.5774 -0.8164
vn 0.3542 -0.5774 -0.7356
vn 0.2612 -0.7985 -0.5424
vn -0.0000 -0.0000 -1.0000
vn -0.0000 0.3027 -0.9531
vn 0.4135 0.3027 -0.8587
vn 0.4339 -0.0000 -0.9010
vn -0.0000 0.7985 -0.6020
vn -0.0000 0.9444 -0.3289
vn 0.1427 0.9444 -0.2964
vn 0.2612 0.7985 -0.5424
vn -0.0000 -0.9444 -0.3289
vn 0.1427 -0.9444 -0.2964
vn -0.0000 -0.3027 -0.9531
vn 0.4135 -0.3027 -0.8587
vn -0.0000 0.5774 -0.8164
vn 0.3542 0.5774 -0.7356
vn 0.7452 0.3027 -0.5942
vn 0.7818 -0.0000 -0.6235
vn 0.2572 0.9444 -0.2051
vn 0.4707 0.7985 -0.3753
vn 0.4707 -0.7985 -0.3753
vn 0.2572 -0.9444 -0.2051
vn 0.7452 -0.3027 -0.5942
vn 0.6383 0.5774 -0.5090
vn 0.6383 -0.5774 -0.5090
vn 0.3207 0.9444 -0.0732
vn 0.7960 -0.5774 -0.1817
vn 0.5869 -0.7985 -0.1340
vn 0.9292 0.3027 -0.2121
vn 0.9749 -0.0000 -0.2225
vn 0.5869 0.7985 -0.1340
vn 0.3207 -0.9444 -0.0732
vn 0.9292 -0.3027 -0.2121
vn 0.7960 0.5774 -0.1817
vn 0.9292 -0.3027 0.2121
vn 0.7960 -0.5774 0.1817
vn 0.7960 0.5774 0.1817
vn 0.9292 0.3027 0.2121
vn 0.3207 0.9444 0.0732
vn 0.5869 -0.7985 0.1340
vn 0.9749 -0.0000 0.2225
vn 0.5869 0.7985 0.1340
vn 0.3207 -0.9444 0.0732
vn 0.4707 0.7985 0.3753
vn 0.6383 0.5774 0.5090
vn 0.2572 -0.9444 0.2051
vn 0.7452 -0.3027 0.5942
vn 0.6383 -0.5774 0.5090
vn 0.7452 0.3027 0.5942
vn 0.2572 0.9444 0.2051
vn 0.4707 -0.7985 0.3753
vn 0.7818 -0.0000 0.6235
vn 0.4339 -0.0000 0.9010
vn 0.4135 -0.3027 0.8587
vn 0.2612 0.7985 0.5424
vn 0.3542 0.5774 0.7356
vn 0.1427 -0.9444 0.2964
vn 0.3542 -0.5774 0.7356
vn 0.4135 0.3027 0.8587
vn 0.1427 0.9444 0.2964
vn 0.2612 -0.7985 0.5424
vn -0.0000 0.9444 0.3289
vn -0.0000 0.7985 0.6020
vn -0.0000 -0.7985 0.6020
vn -0.0000 -0.9444 0.3289
vn -0.0000 -0.0000 1.0000
vn -0.0000 -0.3027 0.9531
vn -0.0000 0.5774 0.8164
vn -0.0000 -0.5774 0.8164
vn -0.0000 0.3027 0.9531
vn -0.3542 -0.5774 0.7356
vn -0.2612 -0.7985 0.5424
vn -0.4135 0.3027 0.8587
vn -0.4339 -0.0000 0.9010
vn -0.1427 0.9444 0.2964
vn -0.2612 0.7985 0.5424
vn -0.1427 -0.9444 0.2964
vn -0.4135 -0.3027 0.8587
vn -0.3542 0.5774 0.7356
vn -0.6383 0.5774 0.5090
vn -0.7452 0.3027 0.5942
vn -0.2572 0.9444 0.2051
vn -0.6383 -0.5774 0.5090
vn -0.4707 -0.7985 0.3753
vn -0.7818 -0.0000 0.6235
vn -0.4707 0.7985 0.3753
vn -0.2572 -0.9444 0.2051
vn -0.7452 -0.3027 0.5942
vn -0.9292 -0.3027 0.2121
vn -0.7960 -0.5774 0.1817
vn -0.7960 0.5774 0.1817
vn -0.9292 0.3027 0.2121
vn -0.3207 0.9444 0.0732
vn -0.5869 -0.7985 0.1340
vn -0.9749 -0.0000 0.2225
vn -0.5869 0.7985 0.1340
vn -0.3207 -0.9444 0.0732
vn -0.5869 0.7985 -0.1340
vn -0.7960 0.5774 -0.1817
vn -0.3207 -0.9444 -0.0732
vn -0.9292 -0.3027 -0.2121
vn -0.7960 -0.5774 -0.1817
vn -0.9292 0.3027 -0.2121
vn -0.3207 0.9444 -0.0732
vn -0.5869 -0.7985 -0.1340
vn -0.9749 -0.0000 -0.2225
vn -0.4707 -0.7985 -0.3753
vn -0.2572 -0.9444 -0.2051
vn -0.7818 -0.0000 -0.6235
vn -0.7452 -0.3027 -0.5942
vn -0.4707 0.7985 -0.3753
vn -0.6383 0.5774 -0.5090
vn -0.6383 -0.5774 -0.5090
vn -0.7452 0.3027 -0.5942
vn -0.2572 0.9444 -0.2051
vn -0.4135 0.3027 -0.8587
vn -0.4339 -0.0000 -0.9010
vn -0.1427 0.9444 -0.2964
vn -0.2612 0.7985 -0.5424
vn -0.2612 -0.7985 -0.5424
vn -0.1427 -0.9444 -0.2964
vn -0.4135 -0.3027 -0.8587
vn -0.3542 0.5774 -0.7356
vn -0.3542 -0.5774 -0.7356
vn 0.5774 0.5773 0.5773
vn -0.5774 -0.5774 0.5773
vn -0.1341 0.6021 0.7871
vn -0.5309 0.6606 0.5309
vn -0.7871 0.6021 0.1341
vn -0.0921 0.8365 0.5402
vn -0.3685 0.8535 0.3685
vn -0.5402 0.8365 0.0921
vn -0.5774 -0.5774 -0.5773
vn -0.7871 0.6021 -0.1341
vn -0.5309 0.6606 -0.5309
vn -0.1341 0.6021 -0.7871
vn -0.0921 0.8365 -0.5402
vn -0.3685 0.8535 -0.3685
vn -0.5402 0.8365 -0.0921
vn 0.5774 -0.5774 0.5773
vn 0.7871 0.6021 0.1341
vn 0.5309 0.6606 0.5309
vn 0.1341 0.6021 0.7871
vn 0.0921 0.8365 0.5402
vn 0.3685 0.8535 0.3685
vn 0.5402 0.8365 0.0921
vn 0.5774 -0.5774 -0.5773
vn 0.1341 0.6021 -0.7871
vn 0.5309 0.6606 -0.5309
vn 0.7871 0.6021 -0.1341
vn 0.5773 0.5773 -0.5774
vn 0.5402 0.8365 -0.0921
vn 0.3685 0.8535 -0.3685
vn 0.0921 0.8365 -0.5402
s 1
f 2//1 3//2 1//3
f 3//2 4//4 1//3
f 4//4 5//5 1//3
f 5//5 6//6 1//3
f 6//6 7//7 1//3
f 7//7 8//8 1//3
f 8//8 9//9 1//3
f 9//9 10//10 1//3
f 10//10 11//11 1//3
f 11//11 12//12 1//3
f 12//12 13//13 1//3
f 13//13 14//14 1//3
f 14//14 15//15 1//3
f 15//15 16//16 1//3
f 16//16 17//17 1//3
f 17//17 18//18 1//3
f 18//18 19//19 1//3
f 19//19 20//20 1//3
f 20//20 21//21 1//3
f 21//21 22//22 1//3
f 22//22 23//23 1//3
f 23//23 24//24 1//3
f 24//24 25//25 1//3
f 25//25 26//26 1//3
f 26//26 27//27 1//3
f 27//27 28//28 1//3
f 28//28 29//29 1//3
f 29//29 2//1 1//3
f 31//30 3//2 2//1
f 30//31 31//30 2//1
f 32//32 4//4 3//2
f 31//30 32//32 3//2
f 33//33 5//5 4//4
f 32//32 33//33 4//4
f 34//34 6//6 5//5
f 33//33 34//34 5//5
f 35//35 7//7 6//6
f 34//34 35//35 6//6
f 36//36 8//8 7//7
f 35//35 36//36 7//7
f 37//37 9//9 8//8
f 36//36 37//37 8//8
f 38//38 10//10 9//9
f 37//37 38//38 9//9
f 39//39 11//11 10//10
f 38//38 39//39 10//10
f 40//40 12//12 11//11
f 39//39 40//40 11//11
f 41//41 13//13 12//12
f 40//40 41//41 12//12
f 42//42 14//14 13//13
f 41//41 42//42 13//13
f 43//43 15//15 14//14
f 42//42 43//43 14//14
f 44//44 16//16 15//15
f 43//43 44//44 15//15
f 45//45 17//17 16//16
f 44//44 45//45 16//16
f 46//46 18//18 17//17
f 45//45 46//46 17//17
f 47//47 19//19 18//18
f 46//46 47//47 18//18
f 48//48 20//20 19//19
f 47//47 48//48 19//19
f 49//49 21//21 20//20
f 48//48 49//49 20//20
f 50//50 22//22 21//21
f 49//49 50//50 21//21
f 51//51 23//23 22//22
f 50//50 51//51 22//22
f 52//52 24//24 23//23
f 51//51 52//52 23//23
f 53//53 25//25 24//24
f 52//52 53//53 24//24
f 54//54 26//26 25//25
f 53//53 54//54 25//25
f 55//55 27//27 26//26
f 54//54 55//55 26//26
f 56//56 28//28 27//27
f 55//55 56//56 27//27
f 57//57 29//29 28//28
f 56//56 57//57 28//28
f 30//31 2//1 29//29
f 57//57 30//31 29//29
f 59//58 31//30 30//31
f 58//59 59//58 30//31
f 60//60 32//32 31//30
f 59//58 60//60 31//30
f 61//61 33//33 32//32
f 60//60 61//61 32//32
f 62//62 34//34 33//33
f 61//61 62//62 33//33
f 63//63 35//35 34//34
f 62//62 63//63 34//34
f 64//64 36//36 35//35
f 63//63 64//64 35//35
f 65//65 37//37 36//36
f 64//64 65//65 36//36
f 66//66 38//38 37//37
f 65//65 66//66 37//37
f 67//67 39//39 38//38
f 66//66 67//67 38//38
f 68//68 40//40 39//39
f 67//67 68//68 39//39
f 69//69 41//41 40//40
f 68//68 69//69 40//40
f 70//70 42//42 41//41
f 69//69 70//70 41//41
f 71//71 43//43 42//42
f 70//70 71//71 42//42
f 72//72 44//44 43//43
f 71//71 72//72 43//43
f 73//73 45//45 44//44
f 72//72 73//73 44//44
f 74//74 46//46 45//45
f 73//73 74//74 45//45
f 75//75 47//47 46//46
f 74//74 75//75 46//46
f 76//76 48//48 47//47
f 75//75 76//76 47//47
f 77//77 49//49 48//48
f 76//76 77//77 48//48
f 78//78 50//50 49//49
f 77//77 78//78 49//49
f 79//79 51//51 50//50
f 78//78 79//79 50//50
f 80//80 52//52 51//51
f 79//79 80//80 51//51
f 81//81 53//53 52//52
f 80//80 81//81 52//52
f 82//82 54//54 53//53
f 81//81 82//82 53//53
f 83//83 55//55 54//54
f 82//82 83//83 54//54
f 84//84 56//56 55//55
f 83//83 84//84 55//55
f 85//85 57//57 56//56
f 84//84 85//85 56//56
f 58//59 30//31 57//57
f 85//85 58//59 57//57
f 87//86 59//58 58//59
f 86//87 87//86 58//59
f 88//88 60//60 59//58
f 87//86 88//88 59//58
f 89//89 61//61 60//60
f 88//88 89//89 60//60
f 90//90 62//62 61//61
f 89//89 90//90 61//61
f 91//91 63//63 62//62
f 90//90 91//91 62//62
f 92//92 64//64 63//63
f 91//91 92//92 63//63
f 93//93 65//65 64//64
f 92//92 93//93 64//64
f 94//94 66//66 65//65
f 93//93 94//94 65//65
f 95//95 67//67 66//66
f 94//94 95//95 66//66
f 96//96 68//68 67//67
f 95//95 96//96 67//67
f 97//97 69//69 68//68
f 96//96 97//97 68//68
f 98//98 70//70 69//69
f 97//97 98//98 69//69
f 99//99 71//71 70//70
f 98//98 99//99 70//70
f 100//100 72//72 71//71
f 99//99 100//100 71//71
f 101//101 73//73 72//72
f 100//100 101//101 72//72
f 102//102 74//74 73//73
f 101//101 102//102 73//73
f 103//103 75//75 74//74
f 102//102 103//103 74//74
f 104//104 76//76 75//75
f 103//103 104//104 75//75
f 105//105 77//77 76//76
f 104//104 105//105 76//76
f 106//106 78//78 77//77
f 105//105 106//106 77//77
f 107//107 79//79 78//78
f 106//106 107//107 78//78
f 108//108 80//80 79//79
f 107//107 108//108 79//79
f 109//109 81//81 80//80
f 108//108 109//109 80//80
f 110//110 82//82 81//81
f 109//109 110//110 81//81
f 111//111 83//83 82//82
f 110//110 111//111 82//82
f 112//112 84//84 83//83
f 111//111 112//112 83//83
f 113//113 85//85 84//84
f 112//112 113//113 84//84
f 86//87 58//59 85//85
f 113//113 86//87 85//85
f 115//114 87//86 86//87
f 114//115 115//114 86//87
f 116//116 88//88 87//86
f 115//114 116//116 87//86
f 117//117 89//89 88//88
f 116//116 117//117 88//88
f 118//118 90//90 89//89
f 117//117 118//118 89//89
f 119//119 91//91 90//90
f 118//118 119//119 90//90
f 120//120 92//92 91//91
f 119//119 120//120 91//91
f 121//121 93//93 92//92
f 120//120 121//121 92//92
f 122//122 94//94 93//93
f 121//121 122//122 93//93
f 123//123 95//95 94//94
f 122//122 123//123 94//94
f 124//124 96//96 95//95
f 123//123 124//124 95//95
f 125//125 97//97 96//96
f 124//124 125//125 96//96
f 126//126 98//98 97//97
f 125//125 126//126 97//97
f 127//127 99//99 98//98
f 126//126 127//127 98//98
f 128//128 100//100 99//99
f 127//127 128//128 99//99
f 129//129 101//101 100//100
f 128//128 129//129 100//100
f 130//130 102//102 101//101
f 129//129 130//130 101//101
f 131//131 103//103 102//102
f 130//130 131//131 102//102
f 132//132 104//104 103//103
f 131//131 132//132 103//103
f 133//133 105//105 104//104
f 132//132 133//133 104//104
f 134//134 106//106 105//105
f 133//133 134//134 105//105
f 135//135 107//107 106//106
f 134//134 135//135 106//106
f 136//136 108//108 107//107
f 135//135 136//136 107//107
f 137//137 109//109 108//108
f 136//136 137//137 108//108
f 138//138 110//110 109//109
f 137//137 138//138 109//109
f 139//139 111//111 110//110
f 138//138 139//139 110//110
f 140//140 112//112 111//111
f 139//139 140//140 111//111
f 141//141 113//113 112//112
f 140//140 141//141 112//112
f 114//115 86//87 113//113
f 141//141 114//115 113//113
f 143//142 115//114 114//115
f 142//143 143//142 114//115
f 144//144 116//116 115//114
f 143//142 144//144 115//114
f 145//145 117//117 116//116
f 144//144 145//145 116//116
f 146//146 118//118 117//117
f 145//145 146//146 117//117
f 147//147 119//119 118//118
f 146//146 147//147 118//118
f 148//148 120//120 119//119
f 147//147 148//148 119//119
f 149//149 121//121 120//120
f 148//148 149//149 120//120
f 150//150 122//122 121//121
f 149//149 150//150 121//121
f 151//151 123//123 122//122
f 150//150 151//151 122//122
f 152//152 124//124 123//123
f 151//151 152//152 123//123
f 153//153 125//125 124//124
f 152//152 153//153 124//124
f 154//154 126//126 125//125
f 153//153 154//154 125//125
f 155//155 127//127 126//126
f 154//154 155//155 126//126
f 156//156 128//128 127//127
f 155//155 156//156 127//127
f 157//157 129//129 128//128
f 156//156 157//157 128//128
f 158//158 130//130 129//129
f 157//157 158//158 129//129
f 159//159 131//131 130//130
f 158//158 159//159 130//130
f 160//160 132//132 131//131
f 159//159 160//160 131//131
f 161//161 133//133 132//132
f 160//160 161//161 132//132
f 162//162 134//134 133//133
f 161//161 162//162 133//133
f 163//163 135//135 134//134
f 162//162 163//163 134//134
f 164//164 136//136 135//135
f 163//163 164//164 135//135
f 165//165 137//137 136//136
f 164//164 165//165 136//136
f 166//166 138//138 137//137
f 165//165 166//166 137//137
f 167//167 139//139 138//138
f 166//166 167//167 138//138
f 168//168 140//140 139//139
f 167//167 168//168 139//139
f 169//169 141//141 140//140
f 168//168 169//169 140//140
f 142//143 114//115 141//141
f 169//169 142//143 141//141
f 170//170 143//142 142//143
f 170//170 144//144 143//142
f 170//170 145//145 144//144
f 170//170 146//146 145//145
f 170//170 147//147 146//146
f 170//170 148//148 147//147
f 170//170 149//149 148//148
f 170//170 150//150 149//149
f 170//170 151//151 150//150
f 170//170 152//152 151//151
f 170//170 153//153 152//152
f 170//170 154//154 153//153
f 170//170 155//155 154//154
f 170//170 156//156 155//155
f 170//170 157//157 156//156
f 170//170 158//158 157//157
f 170//170 159//159 158//158
f 170//170 160//160 159//159
f 170//170 161//161 160//160
f 170//170 162//162 161//161
f 170//170 163//163 162//162
f 170//170 164//164 163//163
f 170//170 165//165 164//164
f 170//170 166//166 165//165
f 170//170 167//167 166//166
f 170//170 168//168 167//167
f 170//170 169//169 168//168
f 170//170 142//143 169//169
f 171//171 174//172 175//173 177//174
f 172//175 176//176 175//173 174//172
f 173//177 177//174 175//173 176//176
f 178//178 181//179 182//180 184//181
f 179//182 183//183 182//180 181//179
f 180//184 184//181 182//180 183//183
f 185//185 188//186 189//187 191//188
f 186//189 190//190 189//187 188//186
f 187//191 191//188 189//187 190//190
f 192//192 195//193 196//194 198//195
f 193//196 197//197 196//194 195//193
f 194//198 198//195 196//194 197//197
f 199//199 202//200 203//201 205//202
f 200//203 204//204 203//201 202//200
f 201//205 205//202 203//201 204//204
f 206//206 209//207 210//208 212//209
f 207//210 211//211 210//208 209//207
f 208//212 212//209 210//208 211//211
f 213//213 216//214 217//215 219//216
f 214//217 218//218 217//215 216//214
f 215//219 219//216 217//215 218//218
f 220//220 223//221 224//222 226//223
f 221//224 225//225 224//222 223//221
f 222//226 226//223 224//222 225//225
f 185//185 171//171 177//174 188//186
f 188//186 177//174 173//177 186//189
f 172//175 178//178 184//181 176//176
f 176//176 184//181 180//184 173//177
f 179//182 192//192 198//195 183//183
f 183//183 198//195 194//198 180//184
f 193//196 187//191 190//190 197//197
f 197//197 190//190 186//189 194//198
f 213//213 185//185 191//188 216//214
f 216//214 191//188 187//191 214//217
f 192//192 220//220 226//223 195//193
f 195//193 226//223 222//226 193//196
f 221//224 215//219 218//218 225//225
f 225//225 218//218 214//217 222//226
f 199//199 213//213 219//216 202//200
f 202//200 219//216 215//219 200//203
f 220//220 206//206 212//209 223//221
f 223//221 212//209 208//212 221//224
f 207//210 201//205 204//204 211//211
f 211//211 204//204 200//203 208//212
f 171//171 199//199 205//202 174//172
f 174//172 205//202 201//205 172//175
f 206//206 179//182 181//179 209//207
f 209//207 181//179 178//178 207//210
f 185//185 213//213 199//199 171//171
f 173//177 180//184 194//198 186//189
f 201//205 207//210 178//178 172//175
f 220//220 192//192 179//182 206//206
f 187//191 193//196 222//226 214//217
f 215//219 221//224 208//212 200//203
f 233//227 354//228 242//229 243//230
f 231//231 230//232 239//233 240//234
f 353//235 228//236 236//237 237//238
f 234//239 233//227 243//230 244//240
f 232//241 231//231 240//234 241//242
f 229//243 353//235 237//238 238//244
f 235//3 234//239 244//240
f 354//228 232//241 241//242 242//229
f 230//232 229//243 238//244 239//233
f 228//236 227//170 236//237
f 240//234 239//233 248//245 249//246
f 237//238 236//237 245//247 246//248
f 244//240 243//230 252//249 253//250
f 241//242 240//234 249//246 250//251
f 238//244 237//238 246//248 247//252
f 235//3 244//240 253//250
f 242//229 241//242 250//251 251//253
f 239//233 238//244 247//252 248//245
f 236//237 227//170 245//247
f 243//230 242//229 251//253 252//249
f 245//247 227//170 254//254
f 252//249 251//253 260//255 261//256
f 249//246 248//245 257//257 258//258
f 246//248 245//247 254//254 255//259
f 253//250 252//249 261//256 262//260
f 250//251 249//246 258//258 259//261
f 247//252 246//248 255//259 256//262
f 235//3 253//250 262//260
f 251//253 250//251 259//261 260//255
f 248//245 247//252 256//262 257//257
f 260//255 259//261 268//263 269//264
f 257//257 256//262 265//265 266//266
f 254//254 227//170 263//267
f 261//256 260//255 269//264 270//268
f 258//258 257//257 266//266 267//269
f 255//259 254//254 263//267 264//270
f 262//260 261//256 270//268 271//271
f 259//261 258//258 267//269 268//263
f 256//262 255//259 264//270 265//265
f 235//3 262//260 271//271
f 265//265 264//270 273//272 274//273
f 235//3 271//271 280//274
f 269//264 268//263 277//275 278//276
f 266//266 265//265 274//273 275//277
f 263//267 227//170 272//278
f 270//268 269//264 278//276 279//279
f 267//269 266//266 275//277 276//280
f 264//270 263//267 272//278 273//272
f 271//271 270//268 279//279 280//274
f 268//263 267//269 276//280 277//275
f 277//275 276//280 285//281 286//282
f 274//273 273//272 282//283 283//284
f 235//3 280//274 289//285
f 278//276 277//275 286//282 287//286
f 275//277 274//273 283//284 284//287
f 272//278 227//170 281//288
f 279//279 278//276 287//286 288//289
f 276//280 275//277 284//287 285//281
f 273//272 272//278 281//288 282//283
f 280//274 279//279 288//289 289//285
f 282//283 281//288 290//290 291//291
f 289//285 288//289 297//292 298//293
f 286//282 285//281 294//294 295//295
f 283//284 282//283 291//291 292//296
f 235//3 289//285 298//293
f 287//286 286//282 295//295 296//297
f 284//287 283//284 292//296 293//298
f 281//288 227//170 290//290
f 288//289 287//286 296//297 297//292
f 285//281 284//287 293//298 294//294
f 297//292 296//297 305//299 306//300
f 294//294 293//298 302//301 303//302
f 291//291 290//290 299//303 300//304
f 298//293 297//292 306//300 307//305
f 295//295 294//294 303//302 304//306
f 292//296 291//291 300//304 301//307
f 235//3 298//293 307//305
f 296//297 295//295 304//306 305//299
f 293//298 292//296 301//307 302//301
f 290//290 227//170 299//303
f 302//301 301//307 310//308 311//309
f 299//303 227//170 308//310
f 306//300 305//299 314//311 315//312
f 303//302 302//301 311//309 312//313
f 300//304 299//303 308//310 309//314
f 307//305 306//300 315//312 316//315
f 304//306 303//302 312//313 313//316
f 301//307 300//304 309//314 310//308
f 235//3 307//305 316//315
f 305//299 304//306 313//316 314//311
f 314//311 313//316 322//317 323//318
f 311//309 310//308 319//319 320//320
f 308//310 227//170 317//321
f 315//312 314//311 323//318 324//322
f 312//313 311//309 320//320 321//323
f 309//314 308//310 317//321 318//324
f 316//315 315//312 324//322 325//325
f 313//316 312//313 321//323 322//317
f 310//308 309//314 318//324 319//319
f 235//3 316//315 325//325
f 319//319 318//324 327//326 328//327
f 235//3 325//325 334//328
f 323//318 322//317 331//329 332//330
f 320//320 319//319 328//327 329//331
f 317//321 227//170 326//332
f 324//322 323//318 332//330 333//333
f 321//323 320//320 329//331 330//334
f 318//324 317//321 326//332 327//326
f 325//325 324//322 333//333 334//328
f 322//317 321//323 330//334 331//329
f 334//328 333//333 342//335 343//336
f 331//329 330//334 339//337 340//338
f 328//327 327//326 336//339 337//340
f 235//3 334//328 343//336
f 332//330 331//329 340//338 341//341
f 329//331 328//327 337//340 338//342
f 326//332 227//170 335//343
f 333//333 332//330 341//341 342//335
f 330//334 329//331 338//342 339//337
f 327//326 326//332 335//343 336//339
f 339//337 338//342 347//344 348//345
f 336//339 335//343 344//346 345//347
f 343//336 342//335 351//348 352//349
f 340//338 339//337 348//345 349//350
f 337//340 336//339 345//347 346//351
f 235//3 343//336 352//349
f 341//341 340//338 349//350 350//352
f 338//342 337//340 346//351 347//344
f 335//343 227//170 344//346
f 342//335 341//341 350//352 351//348
f 344//346 227//170 228//236
f 351//348 350//352 354//228 233//227
f 348//345 347//344 230//232 231//231
f 345//347 344//346 228//236 353//235
f 352//349 351//348 233//227 234//239
f 349//350 348//345 231//231 232//241
f 346//351 345//347 353//235 229//243
f 235//3 352//349 234//239
f 350//352 349//350 232//241 354//228
f 347//344 346//351 229//243 230//232
f 355//171 358//172 359//173 361//174
f 356//175 360//176 359//173 358//172
f 357//177 361//174 359//173 360//176
f 362//178 365//179 366//180 368//181
f 363//182 367//183 366//180 365//179
f 364//184 368//181 366//180 367//183
f 369//185 372//186 373//187 375//188
f 370//189 374//190 373//187 372//186
f 371//191 375//188 373//187 374//190
f 376//192 379//193 380//194 382//195
f 377//196 381//197 380//194 379//193
f 378//198 382//195 380//194 381//197
f 383//199 386//200 387//201 389//202
f 384//203 388//204 387//201 386//200
f 385//205 389//202 387//201 388//204
f 390//206 393//207 394//353 396//209
f 391//210 395//211 394//353 393//207
f 392//212 396//209 394//353 395//211
f 397//213 400//214 401//215 403//216
f 398//217 402//218 401//215 400//214
f 399//219 403//216 401//215 402//218
f 404//220 407//221 408//222 410//223
f 405//224 409//225 408//222 407//221
f 406//226 410//223 408//222 409//225
f 369//185 355//171 361//174 372//186
f 372//186 361//174 357//177 370//189
f 356//175 362//178 368//181 360//176
f 360//176 368//181 364//184 357//177
f 363//182 376//192 382//195 367//183
f 367//183 382//195 378//198 364//184
f 377//196 371//191 374//190 381//197
f 381//197 374//190 370//189 378//198
f 397//213 369//185 375//188 400//214
f 400//214 375//188 371//191 398//217
f 376//192 404//220 410//223 379//193
f 379//193 410//223 406//226 377//196
f 405//224 399//219 402//218 409//225
f 409//225 402//218 398//217 406//226
f 383//199 397//213 403//216 386//200
f 386//200 403//216 399//219 384//203
f 404//220 390//206 396//209 407//221
f 407//221 396//209 392//212 405//224
f 391//210 385//205 388//204 395//211
f 395//211 388//204 384//203 392//212
f 355//171 383//199 389//202 358//172
f 358//172 389//202 385//205 356//175
f 390//206 363//182 365//179 393//207
f 393//207 365//179 362//178 391//210
f 369//185 397//213 383//199 355//171
f 357//177 364//184 378//198 370//189
f 385//205 391//210 362//178 356//175
f 404//220 376//192 363//182 390//206
f 371//191 377//196 406//226 398//217
f 399//219 405//224 392//212 384//203
f 411//171 414//172 415//354 417//174
f 412//355 416//356 415//354 414//172
f 413//357 417//174 415//354 416//356
f 418//358 421//179 422//180 424//359
f 419//182 423//183 422//180 421//179
f 420//360 424//359 422//180 423//183
f 425//185 428//186 429//361 431//188
f 426//362 430//363 429//361 428//186
f 427//364 431//188 429//361 430//363
f 432//192 435//193 436//194 438//195
f 433//365 437//366 436//194 435//193
f 434//367 438//195 436//194 437//366
f 439//199 442//200 443//368 445//202
f 440//369 444//370 443//368 442//200
f 441//371 445//202 443//368 444//370
f 446//206 449//207 450//208 452//209
f 447//372 451//373 450//208 449//207
f 448//374 452//209 450//208 451//373
f 453//213 456//214 457//375 459//216
f 454//376 458//377 457//375 456//214
f 455//378 459//216 457//375 458//377
f 460//220 463//221 464//379 466//223
f 461//380 465//381 464//379 463//221
f 462//382 466//223 464//379 465//381
f 425//185 411//171 417//174 428//186
f 428//186 417//174 413//357 426//362
f 412//355 418//358 424//359 416//356
f 416//356 424//359 420//360 413//357
f 419//182 432//192 438//195 423//183
f 423//183 438//195 434//367 420//360
f 433//365 427//364 430//363 437//366
f 437//366 430//363 426//362 434//367
f 453//213 425//185 431//188 456//214
f 456//214 431//188 427//364 454//376
f 432//192 460//220 466//223 435//193
f 435//193 466//223 462//382 433//365
f 461//380 455//378 458//377 465//381
f 465//381 458//377 454//376 462//382
f 439//199 453//213 459//216 442//200
f 442//200 459//216 455//378 440//369
f 460//220 446//206 452//209 463//221
f 463//221 452//209 448//374 461//380
f 447//372 441//371 444//370 451//373
f 451//373 444//370 440//369 448//374
f 411//171 439//199 445//202 414//172
f 414//172 445//202 441//371 412//355
f 446//206 419//182 421//179 449//207
f 449//207 421//179 418//358 447//372
f 425//185 453//213 439//199 411//171
f 413//357 420//360 434//367 426//362
f 441//371 447//372 418//358 412//355
f 460//220 432//192 419//182 446//206
f 427//364 433//365 462//382 454//376
f 455//378 461//380 448//374 440//369
