# Blender 5.2.2 LTS
# www.blender.org
o LavaKey
v 0.000000 0.000000 0.000000
v 1.100000 0.000000 0.836000
v 1.091002 0.000000 0.904332
v 1.064624 0.000000 0.968000
v 1.022670 0.000000 1.022670
v 0.968000 0.000000 1.064624
v 0.904332 0.000000 1.091002
v 0.836000 0.000000 1.100000
v -0.836000 0.000000 1.100000
v -0.904332 0.000000 1.091002
v -0.968000 0.000000 1.064624
v -1.022670 0.000000 1.022670
v -1.064624 0.000000 0.968000
v -1.091002 0.000000 0.904332
v -1.100000 0.000000 0.836000
v -1.100000 0.000000 -0.836000
v -1.091002 0.000000 -0.904332
v -1.064624 0.000000 -0.968000
v -1.022670 0.000000 -1.022670
v -0.968000 0.000000 -1.064624
v -0.904332 0.000000 -1.091002
v -0.836000 0.000000 -1.100000
v 0.836000 0.000000 -1.100000
v 0.904332 0.000000 -1.091002
v 0.968000 0.000000 -1.064624
v 1.022670 0.000000 -1.022670
v 1.064624 0.000000 -0.968000
v 1.091002 0.000000 -0.904332
v 1.100000 0.000000 -0.836000
v 0.979000 0.607200 0.671000
v 0.968506 0.607200 0.750706
v 0.937728 0.607200 0.825000
v 0.888778 0.607200 0.888778
v 0.825000 0.607200 0.937728
v 0.750706 0.607200 0.968506
v 0.671000 0.607200 0.979000
v -0.671000 0.607200 0.979000
v -0.750706 0.607200 0.968506
v -0.825000 0.607200 0.937728
v -0.888778 0.607200 0.888778
v -0.937728 0.607200 0.825000
v -0.968506 0.607200 0.750706
v -0.979000 0.607200 0.671000
v -0.979000 0.607200 -0.671000
v -0.968506 0.607200 -0.750706
v -0.937728 0.607200 -0.825000
v -0.888778 0.607200 -0.888778
v -0.825000 0.607200 -0.937728
v -0.750706 0.607200 -0.968506
v -0.671000 0.607200 -0.979000
v 0.671000 0.607200 -0.979000
v 0.750706 0.607200 -0.968506
v 0.825000 0.607200 -0.937728
v 0.888778 0.607200 -0.888778
v 0.937728 0.607200 -0.825000
v 0.968506 0.607200 -0.750706
v 0.979000 0.607200 -0.671000
v 0.858000 1.232000 0.506000
v 0.846010 1.232000 0.597102
v 0.810832 1.232000 0.682000
v 0.754908 1.232000 0.754908
v 0.682000 1.232000 0.810832
v 0.597102 1.232000 0.846010
v 0.506000 1.232000 0.858000
v -0.506000 1.232000 0.858000
v -0.597102 1.232000 0.846010
v -0.682000 1.232000 0.810832
v -0.754908 1.232000 0.754908
v -0.810832 1.232000 0.682000
v -0.846010 1.232000 0.597102
v -0.858000 1.232000 0.506000
v -0.858000 1.232000 -0.506000
v -0.846010 1.232000 -0.597102
v -0.810832 1.232000 -0.682000
v -0.754908 1.232000 -0.754908
v -0.682000 1.232000 -0.810832
v -0.597102 1.232000 -0.846010
v -0.506000 1.232000 -0.858000
v 0.506000 1.232000 -0.858000
v 0.597102 1.232000 -0.846010
v 0.682000 1.232000 -0.810832
v 0.754908 1.232000 -0.754908
v 0.810832 1.232000 -0.682000
v 0.846010 1.232000 -0.597102
v 0.858000 1.232000 -0.506000
v 0.770000 1.320000 0.462000
v 0.759506 1.320000 0.541706
v 0.728728 1.320000 0.616000
v 0.679778 1.320000 0.679778
v 0.616000 1.320000 0.728728
v 0.541706 1.320000 0.759506
v 0.462000 1.320000 0.770000
v -0.462000 1.320000 0.770000
v -0.541706 1.320000 0.759506
v -0.616000 1.320000 0.728728
v -0.679778 1.320000 0.679778
v -0.728728 1.320000 0.616000
v -0.759506 1.320000 0.541706
v -0.770000 1.320000 0.462000
v -0.770000 1.320000 -0.462000
v -0.759506 1.320000 -0.541706
v -0.728728 1.320000 -0.616000
v -0.679778 1.320000 -0.679778
v -0.616000 1.320000 -0.728728
v -0.541706 1.320000 -0.759506
v -0.462000 1.320000 -0.770000
v 0.462000 1.320000 -0.770000
v 0.541706 1.320000 -0.759506
v 0.616000 1.320000 -0.728728
v 0.679778 1.320000 -0.679778
v 0.728728 1.320000 -0.616000
v 0.759506 1.320000 -0.541706
v 0.770000 1.320000 -0.462000
v 0.554400 1.245838 0.300960
v 0.545754 1.245838 0.366564
v 0.520454 1.245838 0.427680
v 0.480172 1.245838 0.480172
v 0.427680 1.245838 0.520454
v 0.366564 1.245838 0.545754
v 0.300960 1.245838 0.554400
v -0.300960 1.245838 0.554400
v -0.366564 1.245838 0.545754
v -0.427680 1.245838 0.520454
v -0.480172 1.245838 0.480172
v -0.520454 1.245838 0.427680
v -0.545754 1.245838 0.366564
v -0.554400 1.245838 0.300960
v -0.554400 1.245838 -0.300960
v -0.545754 1.245838 -0.366564
v -0.520454 1.245838 -0.427680
v -0.480172 1.245838 -0.480172
v -0.427680 1.245838 -0.520454
v -0.366564 1.245838 -0.545754
v -0.300960 1.245838 -0.554400
v 0.300960 1.245838 -0.554400
v 0.366564 1.245838 -0.545754
v 0.427680 1.245838 -0.520454
v 0.480172 1.245838 -0.480172
v 0.520454 1.245838 -0.427680
v 0.545754 1.245838 -0.366564
v 0.554400 1.245838 -0.300960
v 0.323400 1.193170 0.175560
v 0.318362 1.193170 0.213818
v 0.303600 1.193170 0.249480
v 0.280104 1.193170 0.280104
v 0.249480 1.193170 0.303600
v 0.213818 1.193170 0.318362
v 0.175560 1.193170 0.323400
v -0.175560 1.193170 0.323400
v -0.213818 1.193170 0.318362
v -0.249480 1.193170 0.303600
v -0.280104 1.193170 0.280104
v -0.303600 1.193170 0.249480
v -0.318362 1.193170 0.213818
v -0.323400 1.193170 0.175560
v -0.323400 1.193170 -0.175560
v -0.318362 1.193170 -0.213818
v -0.303600 1.193170 -0.249480
v -0.280104 1.193170 -0.280104
v -0.249480 1.193170 -0.303600
v -0.213818 1.193170 -0.318362
v -0.175560 1.193170 -0.323400
v 0.175560 1.193170 -0.323400
v 0.213818 1.193170 -0.318362
v 0.249480 1.193170 -0.303600
v 0.280104 1.193170 -0.280104
v 0.303600 1.193170 -0.249480
v 0.318362 1.193170 -0.213818
v 0.323400 1.193170 -0.175560
v 0.000000 1.166000 -0.000000
v -0.310000 1.300000 0.150000
v -0.310000 1.340000 0.190000
v -0.350000 1.340000 0.150000
v -0.310000 1.311716 0.178284
v -0.333094 1.316906 0.173094
v -0.338284 1.340000 0.178284
v -0.338284 1.311716 0.150000
v -0.310000 1.360000 0.190000
v -0.310000 1.400000 0.150000
v -0.350000 1.360000 0.150000
v -0.310000 1.388284 0.178284
v -0.333094 1.383094 0.173094
v -0.338284 1.388284 0.150000
v -0.338284 1.360000 0.178284
v -0.310000 1.300000 -0.050000
v -0.350000 1.340000 -0.050000
v -0.310000 1.340000 -0.090000
v -0.338284 1.311716 -0.050000
v -0.333094 1.316906 -0.073094
v -0.338284 1.340000 -0.078284
v -0.310000 1.311716 -0.078284
v -0.310000 1.400000 -0.050000
v -0.310000 1.360000 -0.090000
v -0.350000 1.360000 -0.050000
v -0.310000 1.388284 -0.078284
v -0.333094 1.383094 -0.073094
v -0.338284 1.360000 -0.078284
v -0.338284 1.388284 -0.050000
v 0.310000 1.300000 0.150000
v 0.350000 1.340000 0.150000
v 0.310000 1.340000 0.190000
v 0.338284 1.311716 0.150000
v 0.333094 1.316906 0.173094
v 0.338284 1.340000 0.178284
v 0.310000 1.311716 0.178284
v 0.310000 1.400000 0.150000
v 0.310000 1.360000 0.190000
v 0.350000 1.360000 0.150000
v 0.310000 1.388284 0.178284
v 0.333094 1.383094 0.173094
v 0.338284 1.360000 0.178284
v 0.338284 1.388284 0.150000
v 0.310000 1.300000 -0.050000
v 0.310000 1.340000 -0.090000
v 0.350000 1.340000 -0.050000
v 0.310000 1.311716 -0.078284
v 0.333094 1.316906 -0.073094
v 0.338284 1.340000 -0.078284
v 0.338284 1.311716 -0.050000
v 0.310000 1.400000 -0.050000
v 0.350000 1.360000 -0.050000
v 0.310000 1.360000 -0.090000
v 0.338284 1.388284 -0.050000
v 0.333094 1.383094 -0.073094
v 0.338284 1.360000 -0.078284
v 0.310000 1.388284 -0.078284
v 0.000000 1.840000 0.000000
v 0.000000 1.716537 -0.184776
v 0.000000 1.455224 -0.076537
v 0.000000 1.440000 0.000000
v 0.038268 1.824776 -0.066283
v 0.070711 1.781421 -0.122474
v 0.092388 1.716537 -0.160021
v 0.100000 1.640000 -0.173205
v 0.092388 1.563463 -0.160021
v 0.070711 1.498579 -0.122474
v 0.038268 1.455224 -0.066283
v 0.066283 1.824776 -0.038268
v 0.122474 1.781421 -0.070711
v 0.160021 1.716537 -0.092388
v 0.173205 1.640000 -0.100000
v 0.160021 1.563463 -0.092388
v 0.122474 1.498579 -0.070711
v 0.066283 1.455224 -0.038268
v 0.076537 1.824776 0.000000
v 0.141421 1.781421 0.000000
v 0.184776 1.716537 0.000000
v 0.200000 1.640000 0.000000
v 0.184776 1.563463 0.000000
v 0.141421 1.498579 0.000000
v 0.076537 1.455224 0.000000
v 0.066283 1.824776 0.038268
v 0.122474 1.781421 0.070711
v 0.160021 1.716537 0.092388
v 0.173205 1.640000 0.100000
v 0.160021 1.563463 0.092388
v 0.122474 1.498579 0.070711
v 0.066283 1.455224 0.038268
v 0.038268 1.824776 0.066283
v 0.070711 1.781421 0.122474
v 0.092388 1.716537 0.160021
v 0.100000 1.640000 0.173205
v 0.092388 1.563463 0.160021
v 0.070711 1.498579 0.122474
v 0.038268 1.455224 0.066283
v -0.000000 1.824776 0.076537
v -0.000000 1.781421 0.141421
v -0.000000 1.716537 0.184776
v -0.000000 1.640000 0.200000
v -0.000000 1.563463 0.184776
v -0.000000 1.498579 0.141421
v -0.000000 1.455224 0.076537
v -0.038268 1.824776 0.066283
v -0.070711 1.781421 0.122474
v -0.092388 1.716537 0.160021
v -0.100000 1.640000 0.173205
v -0.092388 1.563463 0.160021
v -0.070711 1.498579 0.122474
v -0.038268 1.455224 0.066283
v -0.066283 1.824776 0.038268
v -0.122474 1.781421 0.070711
v -0.160021 1.716537 0.092388
v -0.173205 1.640000 0.100000
v -0.160021 1.563463 0.092388
v -0.122474 1.498579 0.070711
v -0.066283 1.455224 0.038268
v -0.076537 1.824776 -0.000000
v -0.141421 1.781421 -0.000000
v -0.184776 1.716537 -0.000000
v -0.200000 1.640000 -0.000000
v -0.184776 1.563463 -0.000000
v -0.141421 1.498579 -0.000000
v -0.076537 1.455224 -0.000000
v -0.066283 1.824776 -0.038268
v -0.122474 1.781421 -0.070711
v -0.160021 1.716537 -0.092388
v -0.173205 1.640000 -0.100000
v -0.160021 1.563463 -0.092388
v -0.122474 1.498579 -0.070711
v -0.066283 1.455224 -0.038268
v -0.038268 1.824776 -0.066283
v -0.070711 1.781421 -0.122474
v -0.092388 1.716537 -0.160021
v -0.100000 1.640000 -0.173205
v -0.092388 1.563463 -0.160021
v -0.070711 1.498579 -0.122474
v -0.038268 1.455224 -0.066283
v 0.000000 1.824776 -0.076537
v 0.000000 1.781421 -0.141421
v 0.000000 1.640000 -0.200000
v 0.000000 1.563463 -0.184776
v 0.000000 1.498579 -0.141421
v -0.280000 1.670000 -0.100000
v -0.280000 1.450000 -0.100000
v -0.255257 1.661627 -0.134056
v -0.234281 1.637782 -0.162927
v -0.220265 1.602095 -0.182218
v -0.215344 1.560000 -0.188992
v -0.220265 1.517905 -0.182218
v -0.234281 1.482218 -0.162927
v -0.255257 1.458373 -0.134056
v -0.239965 1.661627 -0.113008
v -0.206025 1.637782 -0.124036
v -0.183347 1.602095 -0.131404
v -0.175384 1.560000 -0.133992
v -0.183347 1.517905 -0.131404
v -0.206025 1.482218 -0.124036
v -0.239965 1.458373 -0.113008
v -0.239965 1.661627 -0.086992
v -0.206025 1.637782 -0.075964
v -0.183347 1.602095 -0.068596
v -0.175384 1.560000 -0.066008
v -0.183347 1.517905 -0.068596
v -0.206025 1.482218 -0.075964
v -0.239965 1.458373 -0.086992
v -0.255257 1.661627 -0.065944
v -0.234281 1.637782 -0.037073
v -0.220265 1.602095 -0.017782
v -0.215344 1.560000 -0.011008
v -0.220265 1.517905 -0.017782
v -0.234281 1.482218 -0.037073
v -0.255257 1.458373 -0.065944
v -0.280000 1.661627 -0.057905
v -0.280000 1.637782 -0.022218
v -0.280000 1.602095 0.001627
v -0.280000 1.560000 0.010000
v -0.280000 1.517905 0.001627
v -0.280000 1.482218 -0.022218
v -0.280000 1.458373 -0.057905
v -0.304743 1.661627 -0.065944
v -0.325719 1.637782 -0.037073
v -0.339735 1.602095 -0.017782
v -0.344656 1.560000 -0.011008
v -0.339735 1.517905 -0.017782
v -0.325719 1.482218 -0.037073
v -0.304743 1.458373 -0.065944
v -0.320035 1.661627 -0.086992
v -0.353975 1.637782 -0.075964
v -0.376653 1.602095 -0.068596
v -0.384616 1.560000 -0.066008
v -0.376653 1.517905 -0.068596
v -0.353975 1.482218 -0.075964
v -0.320035 1.458373 -0.086992
v -0.320035 1.661627 -0.113008
v -0.353975 1.637782 -0.124036
v -0.376653 1.602095 -0.131404
v -0.384616 1.560000 -0.133992
v -0.376653 1.517905 -0.131404
v -0.353975 1.482218 -0.124036
v -0.320035 1.458373 -0.113008
v -0.304743 1.661627 -0.134056
v -0.325719 1.637782 -0.162927
v -0.339735 1.602095 -0.182218
v -0.344656 1.560000 -0.188992
v -0.339735 1.517905 -0.182218
v -0.325719 1.482218 -0.162927
v -0.304743 1.458373 -0.134056
v -0.280000 1.661627 -0.142095
v -0.280000 1.637782 -0.177782
v -0.280000 1.602095 -0.201627
v -0.280000 1.560000 -0.210000
v -0.280000 1.517905 -0.201627
v -0.280000 1.482218 -0.177782
v -0.280000 1.458373 -0.142095
v 0.240000 1.790000 0.100000
v 0.240000 1.570000 0.100000
v 0.264743 1.781627 0.065944
v 0.285719 1.757782 0.037073
v 0.299735 1.722095 0.017782
v 0.304656 1.680000 0.011008
v 0.299735 1.637905 0.017782
v 0.285719 1.602218 0.037073
v 0.264743 1.578373 0.065944
v 0.280035 1.781627 0.086992
v 0.313975 1.757782 0.075964
v 0.336653 1.722095 0.068596
v 0.344616 1.680000 0.066008
v 0.336653 1.637905 0.068596
v 0.313975 1.602218 0.075964
v 0.280035 1.578373 0.086992
v 0.280035 1.781627 0.113008
v 0.313975 1.757782 0.124036
v 0.336653 1.722095 0.131404
v 0.344616 1.680000 0.133992
v 0.336653 1.637905 0.131404
v 0.313975 1.602218 0.124036
v 0.280035 1.578373 0.113008
v 0.264743 1.781627 0.134056
v 0.285719 1.757782 0.162927
v 0.299735 1.722095 0.182218
v 0.304656 1.680000 0.188992
v 0.299735 1.637905 0.182218
v 0.285719 1.602218 0.162927
v 0.264743 1.578373 0.134056
v 0.240000 1.781627 0.142095
v 0.240000 1.757782 0.177782
v 0.240000 1.722095 0.201627
v 0.240000 1.680000 0.210000
v 0.240000 1.637905 0.201627
v 0.240000 1.602218 0.177782
v 0.240000 1.578373 0.142095
v 0.215257 1.781627 0.134056
v 0.194281 1.757782 0.162927
v 0.180265 1.722095 0.182218
v 0.175344 1.680000 0.188992
v 0.180265 1.637905 0.182218
v 0.194281 1.602218 0.162927
v 0.215257 1.578373 0.134056
v 0.199965 1.781627 0.113008
v 0.166025 1.757782 0.124036
v 0.143347 1.722095 0.131404
v 0.135384 1.680000 0.133992
v 0.143347 1.637905 0.131404
v 0.166025 1.602218 0.124036
v 0.199965 1.578373 0.113008
v 0.199965 1.781627 0.086992
v 0.166025 1.757782 0.075964
v 0.143347 1.722095 0.068596
v 0.135384 1.680000 0.066008
v 0.143347 1.637905 0.068596
v 0.166025 1.602218 0.075964
v 0.199965 1.578373 0.086992
v 0.215257 1.781627 0.065944
v 0.194281 1.757782 0.037073
v 0.180265 1.722095 0.017782
v 0.175344 1.680000 0.011008
v 0.180265 1.637905 0.017782
v 0.194281 1.602218 0.037073
v 0.215257 1.578373 0.065944
v 0.240000 1.781627 0.057905
v 0.240000 1.757782 0.022218
v 0.240000 1.722095 -0.001627
v 0.240000 1.680000 -0.010000
v 0.240000 1.637905 -0.001627
v 0.240000 1.602218 0.022218
v 0.240000 1.578373 0.057905
v 0.080000 1.630000 -0.280000
v 0.080000 1.410000 -0.280000
v 0.104743 1.621627 -0.314056
v 0.125719 1.597782 -0.342927
v 0.139735 1.562095 -0.362218
v 0.144656 1.520000 -0.368992
v 0.139735 1.477905 -0.362218
v 0.125719 1.442218 -0.342927
v 0.104743 1.418373 -0.314056
v 0.120035 1.621627 -0.293008
v 0.153975 1.597782 -0.304036
v 0.176653 1.562095 -0.311404
v 0.184616 1.520000 -0.313992
v 0.176653 1.477905 -0.311404
v 0.153975 1.442218 -0.304036
v 0.120035 1.418373 -0.293008
v 0.120035 1.621627 -0.266992
v 0.153975 1.597782 -0.255964
v 0.176653 1.562095 -0.248596
v 0.184616 1.520000 -0.246008
v 0.176653 1.477905 -0.248596
v 0.153975 1.442218 -0.255964
v 0.120035 1.418373 -0.266992
v 0.104743 1.621627 -0.245944
v 0.125719 1.597782 -0.217073
v 0.139735 1.562095 -0.197782
v 0.144656 1.520000 -0.191008
v 0.139735 1.477905 -0.197782
v 0.125719 1.442218 -0.217073
v 0.104743 1.418373 -0.245944
v 0.080000 1.621627 -0.237905
v 0.080000 1.597782 -0.202218
v 0.080000 1.562095 -0.178373
v 0.080000 1.520000 -0.170000
v 0.080000 1.477905 -0.178373
v 0.080000 1.442218 -0.202218
v 0.080000 1.418373 -0.237905
v 0.055257 1.621627 -0.245944
v 0.034281 1.597782 -0.217073
v 0.020265 1.562095 -0.197782
v 0.015344 1.520000 -0.191008
v 0.020265 1.477905 -0.197782
v 0.034281 1.442218 -0.217073
v 0.055257 1.418373 -0.245944
v 0.039965 1.621627 -0.266992
v 0.006025 1.597782 -0.255964
v -0.016653 1.562095 -0.248596
v -0.024616 1.520000 -0.246008
v -0.016653 1.477905 -0.248596
v 0.006025 1.442218 -0.255964
v 0.039965 1.418373 -0.266992
v 0.039965 1.621627 -0.293008
v 0.006025 1.597782 -0.304036
v -0.016653 1.562095 -0.311404
v -0.024616 1.520000 -0.313992
v -0.016653 1.477905 -0.311404
v 0.006025 1.442218 -0.304036
v 0.039965 1.418373 -0.293008
v 0.055257 1.621627 -0.314056
v 0.034281 1.597782 -0.342927
v 0.020265 1.562095 -0.362218
v 0.015344 1.520000 -0.368992
v 0.020265 1.477905 -0.362218
v 0.034281 1.442218 -0.342927
v 0.055257 1.418373 -0.314056
v 0.080000 1.621627 -0.322095
v 0.080000 1.597782 -0.357782
v 0.080000 1.562095 -0.381627
v 0.080000 1.520000 -0.390000
v 0.080000 1.477905 -0.381627
v 0.080000 1.442218 -0.357782
v 0.080000 1.418373 -0.322095
v -0.080000 1.830000 0.220000
v -0.080000 1.610000 0.220000
v -0.055257 1.821627 0.185944
v -0.034281 1.797782 0.157073
v -0.020265 1.762095 0.137782
v -0.015344 1.720000 0.131008
v -0.020265 1.677905 0.137782
v -0.034281 1.642218 0.157073
v -0.055257 1.618373 0.185944
v -0.039965 1.821627 0.206992
v -0.006025 1.797782 0.195964
v 0.016653 1.762095 0.188596
v 0.024616 1.720000 0.186008
v 0.016653 1.677905 0.188596
v -0.006025 1.642218 0.195964
v -0.039965 1.618373 0.206992
v -0.039965 1.821627 0.233008
v -0.006025 1.797782 0.244036
v 0.016653 1.762095 0.251404
v 0.024616 1.720000 0.253992
v 0.016653 1.677905 0.251404
v -0.006025 1.642218 0.244036
v -0.039965 1.618373 0.233008
v -0.055257 1.821627 0.254056
v -0.034281 1.797782 0.282927
v -0.020265 1.762095 0.302218
v -0.015344 1.720000 0.308992
v -0.020265 1.677905 0.302218
v -0.034281 1.642218 0.282927
v -0.055257 1.618373 0.254056
v -0.080000 1.821627 0.262095
v -0.080000 1.797782 0.297782
v -0.080000 1.762095 0.321627
v -0.080000 1.720000 0.330000
v -0.080000 1.677905 0.321627
v -0.080000 1.642218 0.297782
v -0.080000 1.618373 0.262095
v -0.104743 1.821627 0.254056
v -0.125719 1.797782 0.282927
v -0.139735 1.762095 0.302218
v -0.144656 1.720000 0.308992
v -0.139735 1.677905 0.302218
v -0.125719 1.642218 0.282927
v -0.104743 1.618373 0.254056
v -0.120035 1.821627 0.233008
v -0.153975 1.797782 0.244036
v -0.176653 1.762095 0.251404
v -0.184616 1.720000 0.253992
v -0.176653 1.677905 0.251404
v -0.153975 1.642218 0.244036
v -0.120035 1.618373 0.233008
v -0.120035 1.821627 0.206992
v -0.153975 1.797782 0.195964
v -0.176653 1.762095 0.188596
v -0.184616 1.720000 0.186008
v -0.176653 1.677905 0.188596
v -0.153975 1.642218 0.195964
v -0.120035 1.618373 0.206992
v -0.104743 1.821627 0.185944
v -0.125719 1.797782 0.157073
v -0.139735 1.762095 0.137782
v -0.144656 1.720000 0.131008
v -0.139735 1.677905 0.137782
v -0.125719 1.642218 0.157073
v -0.104743 1.618373 0.185944
v -0.080000 1.821627 0.177905
v -0.080000 1.797782 0.142218
v -0.080000 1.762095 0.118373
v -0.080000 1.720000 0.110000
v -0.080000 1.677905 0.118373
v -0.080000 1.642218 0.142218
v -0.080000 1.618373 0.177905
vn 0.5454 -0.8382 0.0059
vn 0.6507 -0.7302 0.2086
vn -0.0000 -1.0000 -0.0000
vn 0.5497 -0.7567 0.3539
vn 0.4321 -0.7658 0.4762
vn 0.2977 -0.7593 0.5786
vn 0.1433 -0.7360 0.6616
vn 0.0022 -0.6372 0.7707
vn -0.0059 -0.8382 0.5454
vn -0.2086 -0.7302 0.6507
vn -0.3539 -0.7567 0.5497
vn -0.4762 -0.7658 0.4321
vn -0.5786 -0.7593 0.2977
vn -0.6616 -0.7360 0.1433
vn -0.7707 -0.6372 0.0022
vn -0.5454 -0.8382 -0.0059
vn -0.6507 -0.7302 -0.2086
vn -0.5497 -0.7567 -0.3539
vn -0.4321 -0.7658 -0.4762
vn -0.2977 -0.7593 -0.5786
vn -0.1433 -0.7360 -0.6616
vn -0.0022 -0.6372 -0.7707
vn 0.0059 -0.8382 -0.5454
vn 0.2086 -0.7302 -0.6507
vn 0.3539 -0.7567 -0.5497
vn 0.4762 -0.7658 -0.4321
vn 0.5786 -0.7593 -0.2977
vn 0.6616 -0.7360 -0.1433
vn 0.7707 -0.6372 -0.0022
vn 0.9336 0.2495 0.2571
vn 0.9807 0.1955 0.0071
vn 0.8273 0.2828 0.4853
vn 0.6713 0.2936 0.6806
vn 0.4740 0.2818 0.8342
vn 0.2443 0.2473 0.9376
vn 0.0075 0.1940 0.9810
vn -0.0071 0.1955 0.9807
vn -0.2571 0.2495 0.9336
vn -0.4853 0.2828 0.8273
vn -0.6806 0.2936 0.6713
vn -0.8342 0.2818 0.4740
vn -0.9376 0.2473 0.2443
vn -0.9810 0.1940 0.0075
vn -0.9807 0.1955 -0.0071
vn -0.9336 0.2495 -0.2571
vn -0.8273 0.2828 -0.4853
vn -0.6713 0.2936 -0.6806
vn -0.4740 0.2818 -0.8342
vn -0.2443 0.2473 -0.9376
vn -0.0075 0.1940 -0.9810
vn 0.0071 0.1955 -0.9807
vn 0.2571 0.2495 -0.9336
vn 0.4853 0.2828 -0.8273
vn 0.6806 0.2936 -0.6713
vn 0.8342 0.2818 -0.4740
vn 0.9376 0.2473 -0.2443
vn 0.9810 0.1940 -0.0075
vn 0.9174 0.3339 0.2164
vn 0.9708 0.2397 0.0057
vn 0.8183 0.3697 0.4401
vn 0.6726 0.3829 0.6332
vn 0.4878 0.3737 0.7889
vn 0.2705 0.3419 0.9000
vn 0.0155 0.3346 0.9422
vn -0.0056 0.2398 0.9708
vn -0.2164 0.3339 0.9174
vn -0.4401 0.3697 0.8183
vn -0.6332 0.3829 0.6726
vn -0.7889 0.3737 0.4878
vn -0.9000 0.3419 0.2705
vn -0.9422 0.3346 0.0155
vn -0.9708 0.2398 -0.0056
vn -0.9174 0.3339 -0.2164
vn -0.8183 0.3697 -0.4401
vn -0.6726 0.3829 -0.6332
vn -0.4878 0.3737 -0.7889
vn -0.2705 0.3419 -0.9000
vn -0.0155 0.3346 -0.9422
vn 0.0056 0.2398 -0.9708
vn 0.2164 0.3339 -0.9174
vn 0.4401 0.3697 -0.8183
vn 0.6332 0.3829 -0.6726
vn 0.7889 0.3737 -0.4878
vn 0.9000 0.3419 -0.2705
vn 0.9422 0.3346 -0.0155
vn 0.0685 0.9976 -0.0031
vn 0.2319 0.9727 -0.0012
vn 0.0622 0.9980 0.0137
vn 0.0553 0.9981 0.0287
vn 0.0473 0.9979 0.0432
vn 0.0375 0.9976 0.0587
vn 0.0027 0.9987 -0.0509
vn 0.0012 0.9727 0.2319
vn 0.0031 0.9976 0.0685
vn -0.0137 0.9980 0.0622
vn -0.0287 0.9981 0.0553
vn -0.0432 0.9979 0.0473
vn -0.0587 0.9976 0.0375
vn 0.0509 0.9987 0.0027
vn -0.2319 0.9727 0.0012
vn -0.0685 0.9976 0.0031
vn -0.0622 0.9980 -0.0137
vn -0.0553 0.9981 -0.0287
vn -0.0473 0.9979 -0.0432
vn -0.0375 0.9976 -0.0587
vn -0.0027 0.9987 0.0509
vn -0.0012 0.9727 -0.2319
vn -0.0031 0.9976 -0.0685
vn 0.0137 0.9980 -0.0622
vn 0.0287 0.9981 -0.0553
vn 0.0432 0.9979 -0.0473
vn 0.0587 0.9976 -0.0375
vn -0.0509 0.9987 -0.0027
vn -0.2401 0.9689 -0.0590
vn -0.2915 0.9566 -0.0026
vn -0.2006 0.9734 -0.1104
vn -0.1608 0.9749 -0.1543
vn -0.1178 0.9738 -0.1945
vn -0.0680 0.9698 -0.2341
vn -0.0045 0.9649 -0.2627
vn 0.0026 0.9566 -0.2915
vn 0.0590 0.9689 -0.2401
vn 0.1104 0.9734 -0.2007
vn 0.1543 0.9749 -0.1608
vn 0.1945 0.9738 -0.1178
vn 0.2341 0.9698 -0.0680
vn 0.2627 0.9649 -0.0045
vn 0.2915 0.9566 0.0026
vn 0.2401 0.9689 0.0590
vn 0.2006 0.9734 0.1104
vn 0.1608 0.9749 0.1543
vn 0.1178 0.9738 0.1945
vn 0.0680 0.9698 0.2341
vn 0.0045 0.9649 0.2627
vn -0.0026 0.9566 0.2915
vn -0.0590 0.9689 0.2401
vn -0.1104 0.9734 0.2007
vn -0.1543 0.9749 0.1608
vn -0.1945 0.9738 0.1178
vn -0.2341 0.9698 0.0680
vn -0.2627 0.9649 0.0045
vn -0.1449 0.9889 -0.0316
vn -0.1735 0.9848 -0.0011
vn -0.1228 0.9904 -0.0633
vn -0.0995 0.9909 -0.0905
vn -0.0738 0.9906 -0.1150
vn -0.0441 0.9894 -0.1380
vn -0.0036 0.9892 -0.1463
vn 0.0011 0.9848 -0.1735
vn 0.0316 0.9889 -0.1449
vn 0.0633 0.9904 -0.1228
vn 0.0905 0.9909 -0.0995
vn 0.1150 0.9906 -0.0738
vn 0.1381 0.9894 -0.0441
vn 0.1463 0.9892 -0.0036
vn 0.1735 0.9848 0.0011
vn 0.1449 0.9889 0.0316
vn 0.1228 0.9904 0.0633
vn 0.0995 0.9909 0.0905
vn 0.0738 0.9906 0.1150
vn 0.0441 0.9894 0.1380
vn 0.0036 0.9892 0.1463
vn -0.0011 0.9848 0.1735
vn -0.0316 0.9889 0.1449
vn -0.0633 0.9904 0.1228
vn -0.0905 0.9909 0.0995
vn -0.1150 0.9906 0.0738
vn -0.1381 0.9894 0.0441
vn -0.1463 0.9892 0.0036
vn -0.0000 1.0000 -0.0000
vn -0.1794 -0.9673 0.1794
vn -0.1726 -0.6965 0.6965
vn -0.5773 -0.5774 0.5773
vn -0.6965 -0.6965 0.1726
vn -0.1794 -0.1794 0.9673
vn -0.6965 -0.1726 0.6965
vn -0.9673 -0.1794 0.1794
vn -0.1794 0.1794 0.9673
vn -0.1726 0.6965 0.6965
vn -0.5774 0.5773 0.5774
vn -0.6965 0.1726 0.6965
vn -0.1794 0.9673 0.1794
vn -0.6965 0.6965 0.1726
vn -0.9673 0.1794 0.1794
vn -0.1794 -0.9673 -0.1794
vn -0.6965 -0.6965 -0.1726
vn -0.5773 -0.5774 -0.5773
vn -0.1726 -0.6965 -0.6965
vn -0.9673 -0.1794 -0.1794
vn -0.6965 -0.1726 -0.6965
vn -0.1794 -0.1794 -0.9673
vn -0.1794 0.9673 -0.1794
vn -0.1726 0.6965 -0.6965
vn -0.5774 0.5773 -0.5774
vn -0.6965 0.6965 -0.1726
vn -0.1794 0.1794 -0.9673
vn -0.6965 0.1726 -0.6965
vn -0.9673 0.1794 -0.1794
vn 0.1794 -0.9673 0.1794
vn 0.6965 -0.6965 0.1726
vn 0.5773 -0.5774 0.5773
vn 0.1726 -0.6965 0.6965
vn 0.9673 -0.1794 0.1794
vn 0.6965 -0.1726 0.6965
vn 0.1794 -0.1794 0.9673
vn 0.1794 0.9673 0.1794
vn 0.1726 0.6965 0.6965
vn 0.5774 0.5773 0.5774
vn 0.6965 0.6965 0.1726
vn 0.1794 0.1794 0.9673
vn 0.6965 0.1726 0.6965
vn 0.9673 0.1794 0.1794
vn 0.1794 -0.9673 -0.1794
vn 0.1726 -0.6965 -0.6965
vn 0.5773 -0.5774 -0.5773
vn 0.6965 -0.6965 -0.1726
vn 0.1794 -0.1794 -0.9673
vn 0.6965 -0.1726 -0.6965
vn 0.9673 -0.1794 -0.1794
vn 0.1794 0.9673 -0.1794
vn 0.6965 0.6965 -0.1726
vn 0.5774 0.5773 -0.5774
vn 0.1726 0.6965 -0.6965
vn 0.9673 0.1794 -0.1794
vn 0.6965 0.1726 -0.6965
vn 0.1794 0.1794 -0.9673
vn -0.0000 0.6913 -0.7226
vn -0.0000 0.9122 -0.4097
vn 0.2049 0.9122 -0.3548
vn 0.3613 0.6913 -0.6258
vn -0.0000 -0.9122 -0.4097
vn -0.0000 -0.6913 -0.7226
vn 0.3613 -0.6913 -0.6258
vn 0.2049 -0.9122 -0.3548
vn -0.0000 -0.3718 -0.9283
vn -0.0000 -0.0000 -1.0000
vn 0.5000 -0.0000 -0.8660
vn 0.4642 -0.3718 -0.8040
vn -0.0000 0.3718 -0.9283
vn 0.4642 0.3718 -0.8040
vn 0.8660 -0.0000 -0.5000
vn 0.8040 -0.3718 -0.4642
vn 0.6258 0.6913 -0.3613
vn 0.8040 0.3718 -0.4642
vn 0.3548 0.9122 -0.2049
vn 0.3548 -0.9122 -0.2049
vn 0.6258 -0.6913 -0.3613
vn 0.4097 -0.9122 -0.0000
vn 0.9283 -0.3718 -0.0000
vn 0.7226 -0.6913 -0.0000
vn 0.9283 0.3718 -0.0000
vn 1.0000 -0.0000 -0.0000
vn 0.4097 0.9122 -0.0000
vn 0.7226 0.6913 -0.0000
vn 0.8040 0.3718 0.4642
vn 0.8660 -0.0000 0.5000
vn 0.3548 0.9122 0.2049
vn 0.6258 0.6913 0.3613
vn 0.6258 -0.6913 0.3613
vn 0.3548 -0.9122 0.2049
vn 0.8040 -0.3718 0.4642
vn 0.3613 -0.6913 0.6258
vn 0.2049 -0.9122 0.3548
vn 0.5000 -0.0000 0.8660
vn 0.4642 -0.3718 0.8040
vn 0.3613 0.6913 0.6258
vn 0.4642 0.3718 0.8040
vn 0.2049 0.9122 0.3548
vn -0.0000 0.6913 0.7226
vn -0.0000 0.3718 0.9283
vn -0.0000 0.9122 0.4097
vn -0.0000 -0.9122 0.4097
vn -0.0000 -0.3718 0.9283
vn -0.0000 -0.6913 0.7226
vn -0.0000 -0.0000 1.0000
vn -0.2049 -0.9122 0.3548
vn -0.4642 -0.3718 0.8040
vn -0.3613 -0.6913 0.6258
vn -0.4642 0.3718 0.8040
vn -0.5000 -0.0000 0.8660
vn -0.2049 0.9122 0.3548
vn -0.3613 0.6913 0.6258
vn -0.3548 0.9122 0.2049
vn -0.6258 0.6913 0.3613
vn -0.6258 -0.6913 0.3613
vn -0.3548 -0.9122 0.2049
vn -0.8660 -0.0000 0.5000
vn -0.8040 -0.3718 0.4642
vn -0.8040 0.3718 0.4642
vn -0.7226 -0.6913 -0.0000
vn -0.4097 -0.9122 -0.0000
vn -1.0000 -0.0000 -0.0000
vn -0.9283 -0.3718 -0.0000
vn -0.7226 0.6913 -0.0000
vn -0.9283 0.3718 -0.0000
vn -0.4097 0.9122 -0.0000
vn -0.3548 0.9122 -0.2049
vn -0.3548 -0.9122 -0.2049
vn -0.8040 -0.3718 -0.4642
vn -0.6258 -0.6913 -0.3613
vn -0.8040 0.3718 -0.4642
vn -0.8660 -0.0000 -0.5000
vn -0.6258 0.6913 -0.3613
vn -0.4642 -0.3718 -0.8040
vn -0.3613 -0.6913 -0.6258
vn -0.4642 0.3718 -0.8040
vn -0.5000 -0.0000 -0.8660
vn -0.2049 0.9122 -0.3548
vn -0.3613 0.6913 -0.6258
vn -0.2049 -0.9122 -0.3548
vn -0.0000 -0.9099 -0.4149
vn 0.2439 -0.9099 -0.3357
vn -0.0000 -0.6883 -0.7254
vn -0.0000 -0.3697 -0.9291
vn 0.5461 -0.3697 -0.7517
vn 0.4264 -0.6883 -0.5869
vn -0.0000 0.3697 -0.9291
vn 0.5461 0.3697 -0.7517
vn 0.5878 -0.0000 -0.8090
vn -0.0000 0.6883 -0.7254
vn -0.0000 0.9099 -0.4149
vn 0.2439 0.9099 -0.3357
vn 0.4264 0.6883 -0.5869
vn 0.3946 0.9099 -0.1282
vn 0.6899 0.6883 -0.2242
vn 0.6899 -0.6883 -0.2242
vn 0.3946 -0.9099 -0.1282
vn 0.9511 -0.0000 -0.3090
vn 0.8837 -0.3697 -0.2871
vn 0.8837 0.3697 -0.2871
vn 0.6899 -0.6883 0.2242
vn 0.3946 -0.9099 0.1282
vn 0.9511 -0.0000 0.3090
vn 0.8837 -0.3697 0.2871
vn 0.6899 0.6883 0.2242
vn 0.8837 0.3697 0.2871
vn 0.3946 0.9099 0.1282
vn 0.2439 0.9099 0.3357
vn 0.2439 -0.9099 0.3357
vn 0.5461 -0.3697 0.7517
vn 0.4264 -0.6883 0.5869
vn 0.5461 0.3697 0.7517
vn 0.5878 -0.0000 0.8090
vn 0.4264 0.6883 0.5869
vn -0.0000 -0.3697 0.9291
vn -0.0000 -0.6883 0.7254
vn -0.0000 0.3697 0.9291
vn -0.0000 0.9099 0.4149
vn -0.0000 0.6883 0.7254
vn -0.0000 -0.9099 0.4149
vn -0.4264 -0.6883 0.5869
vn -0.2439 -0.9099 0.3357
vn -0.5878 -0.0000 0.8090
vn -0.5461 -0.3697 0.7517
vn -0.4264 0.6883 0.5869
vn -0.5461 0.3697 0.7517
vn -0.2439 0.9099 0.3357
vn -0.9511 -0.0000 0.3090
vn -0.8837 -0.3697 0.2871
vn -0.6899 0.6883 0.2242
vn -0.8837 0.3697 0.2871
vn -0.3946 0.9099 0.1282
vn -0.3946 -0.9099 0.1282
vn -0.6899 -0.6883 0.2242
vn -0.3946 -0.9099 -0.1282
vn -0.8837 -0.3697 -0.2871
vn -0.6899 -0.6883 -0.2242
vn -0.8837 0.3697 -0.2871
vn -0.9511 -0.0000 -0.3090
vn -0.3946 0.9099 -0.1282
vn -0.6899 0.6883 -0.2242
vn -0.5461 0.3697 -0.7517
vn -0.5878 -0.0000 -0.8090
vn -0.2439 0.9099 -0.3357
vn -0.4264 0.6883 -0.5869
vn -0.4264 -0.6883 -0.5869
vn -0.2439 -0.9099 -0.3357
vn -0.5461 -0.3697 -0.7517
s 1
f 2//1 3//2 1//3
f 3//2 4//4 1//3
f 4//4 5//5 1//3
f 5//5 6//6 1//3
f 6//6 7//7 1//3
f 7//7 8//8 1//3
f 8//8 9//9 1//3
f 9//9 10//10 1//3
f 10//10 11//11 1//3
f 11//11 12//12 1//3
f 12//12 13//13 1//3
f 13//13 14//14 1//3
f 14//14 15//15 1//3
f 15//15 16//16 1//3
f 16//16 17//17 1//3
f 17//17 18//18 1//3
f 18//18 19//19 1//3
f 19//19 20//20 1//3
f 20//20 21//21 1//3
f 21//21 22//22 1//3
f 22//22 23//23 1//3
f 23//23 24//24 1//3
f 24//24 25//25 1//3
f 25//25 26//26 1//3
f 26//26 27//27 1//3
f 27//27 28//28 1//3
f 28//28 29//29 1//3
f 29//29 2//1 1//3
f 31//30 3//2 2//1
f 30//31 31//30 2//1
f 32//32 4//4 3//2
f 31//30 32//32 3//2
f 33//33 5//5 4//4
f 32//32 33//33 4//4
f 34//34 6//6 5//5
f 33//33 34//34 5//5
f 35//35 7//7 6//6
f 34//34 35//35 6//6
f 36//36 8//8 7//7
f 35//35 36//36 7//7
f 37//37 9//9 8//8
f 36//36 37//37 8//8
f 38//38 10//10 9//9
f 37//37 38//38 9//9
f 39//39 11//11 10//10
f 38//38 39//39 10//10
f 40//40 12//12 11//11
f 39//39 40//40 11//11
f 41//41 13//13 12//12
f 40//40 41//41 12//12
f 42//42 14//14 13//13
f 41//41 42//42 13//13
f 43//43 15//15 14//14
f 42//42 43//43 14//14
f 44//44 16//16 15//15
f 43//43 44//44 15//15
f 45//45 17//17 16//16
f 44//44 45//45 16//16
f 46//46 18//18 17//17
f 45//45 46//46 17//17
f 47//47 19//19 18//18
f 46//46 47//47 18//18
f 48//48 20//20 19//19
f 47//47 48//48 19//19
f 49//49 21//21 20//20
f 48//48 49//49 20//20
f 50//50 22//22 21//21
f 49//49 50//50 21//21
f 51//51 23//23 22//22
f 50//50 51//51 22//22
f 52//52 24//24 23//23
f 51//51 52//52 23//23
f 53//53 25//25 24//24
f 52//52 53//53 24//24
f 54//54 26//26 25//25
f 53//53 54//54 25//25
f 55//55 27//27 26//26
f 54//54 55//55 26//26
f 56//56 28//28 27//27
f 55//55 56//56 27//27
f 57//57 29//29 28//28
f 56//56 57//57 28//28
f 30//31 2//1 29//29
f 57//57 30//31 29//29
f 59//58 31//30 30//31
f 58//59 59//58 30//31
f 60//60 32//32 31//30
f 59//58 60//60 31//30
f 61//61 33//33 32//32
f 60//60 61//61 32//32
f 62//62 34//34 33//33
f 61//61 62//62 33//33
f 63//63 35//35 34//34
f 62//62 63//63 34//34
f 64//64 36//36 35//35
f 63//63 64//64 35//35
f 65//65 37//37 36//36
f 64//64 65//65 36//36
f 66//66 38//38 37//37
f 65//65 66//66 37//37
f 67//67 39//39 38//38
f 66//66 67//67 38//38
f 68//68 40//40 39//39
f 67//67 68//68 39//39
f 69//69 41//41 40//40
f 68//68 69//69 40//40
f 70//70 42//42 41//41
f 69//69 70//70 41//41
f 71//71 43//43 42//42
f 70//70 71//71 42//42
f 72//72 44//44 43//43
f 71//71 72//72 43//43
f 73//73 45//45 44//44
f 72//72 73//73 44//44
f 74//74 46//46 45//45
f 73//73 74//74 45//45
f 75//75 47//47 46//46
f 74//74 75//75 46//46
f 76//76 48//48 47//47
f 75//75 76//76 47//47
f 77//77 49//49 48//48
f 76//76 77//77 48//48
f 78//78 50//50 49//49
f 77//77 78//78 49//49
f 79//79 51//51 50//50
f 78//78 79//79 50//50
f 80//80 52//52 51//51
f 79//79 80//80 51//51
f 81//81 53//53 52//52
f 80//80 81//81 52//52
f 82//82 54//54 53//53
f 81//81 82//82 53//53
f 83//83 55//55 54//54
f 82//82 83//83 54//54
f 84//84 56//56 55//55
f 83//83 84//84 55//55
f 85//85 57//57 56//56
f 84//84 85//85 56//56
f 58//59 30//31 57//57
f 85//85 58//59 57//57
f 87//86 59//58 58//59
f 86//87 87//86 58//59
f 88//88 60//60 59//58
f 87//86 88//88 59//58
f 89//89 61//61 60//60
f 88//88 89//89 60//60
f 90//90 62//62 61//61
f 89//89 90//90 61//61
f 91//91 63//63 62//62
f 90//90 91//91 62//62
f 92//92 64//64 63//63
f 91//91 92//92 63//63
f 93//93 65//65 64//64
f 92//92 93//93 64//64
f 94//94 66//66 65//65
f 93//93 94//94 65//65
f 95//95 67//67 66//66
f 94//94 95//95 66//66
f 96//96 68//68 67//67
f 95//95 96//96 67//67
f 97//97 69//69 68//68
f 96//96 97//97 68//68
f 98//98 70//70 69//69
f 97//97 98//98 69//69
f 99//99 71//71 70//70
f 98//98 99//99 70//70
f 100//100 72//72 71//71
f 99//99 100//100 71//71
f 101//101 73//73 72//72
f 100//100 101//101 72//72
f 102//102 74//74 73//73
f 101//101 102//102 73//73
f 103//103 75//75 74//74
f 102//102 103//103 74//74
f 104//104 76//76 75//75
f 103//103 104//104 75//75
f 105//105 77//77 76//76
f 104//104 105//105 76//76
f 106//106 78//78 77//77
f 105//105 106//106 77//77
f 107//107 79//79 78//78
f 106//106 107//107 78//78
f 108//108 80//80 79//79
f 107//107 108//108 79//79
f 109//109 81//81 80//80
f 108//108 109//109 80//80
f 110//110 82//82 81//81
f 109//109 110//110 81//81
f 111//111 83//83 82//82
f 110//110 111//111 82//82
f 112//112 84//84 83//83
f 111//111 112//112 83//83
f 113//113 85//85 84//84
f 112//112 113//113 84//84
f 86//87 58//59 85//85
f 113//113 86//87 85//85
f 115//114 87//86 86//87
f 114//115 115//114 86//87
f 116//116 88//88 87//86
f 115//114 116//116 87//86
f 117//117 89//89 88//88
f 116//116 117//117 88//88
f 118//118 90//90 89//89
f 117//117 118//118 89//89
f 119//119 91//91 90//90
f 118//118 119//119 90//90
f 120//120 92//92 91//91
f 119//119 120//120 91//91
f 121//121 93//93 92//92
f 120//120 121//121 92//92
f 122//122 94//94 93//93
f 121//121 122//122 93//93
f 123//123 95//95 94//94
f 122//122 123//123 94//94
f 124//124 96//96 95//95
f 123//123 124//124 95//95
f 125//125 97//97 96//96
f 124//124 125//125 96//96
f 126//126 98//98 97//97
f 125//125 126//126 97//97
f 127//127 99//99 98//98
f 126//126 127//127 98//98
f 128//128 100//100 99//99
f 127//127 128//128 99//99
f 129//129 101//101 100//100
f 128//128 129//129 100//100
f 130//130 102//102 101//101
f 129//129 130//130 101//101
f 131//131 103//103 102//102
f 130//130 131//131 102//102
f 132//132 104//104 103//103
f 131//131 132//132 103//103
f 133//133 105//105 104//104
f 132//132 133//133 104//104
f 134//134 106//106 105//105
f 133//133 134//134 105//105
f 135//135 107//107 106//106
f 134//134 135//135 106//106
f 136//136 108//108 107//107
f 135//135 136//136 107//107
f 137//137 109//109 108//108
f 136//136 137//137 108//108
f 138//138 110//110 109//109
f 137//137 138//138 109//109
f 139//139 111//111 110//110
f 138//138 139//139 110//110
f 140//140 112//112 111//111
f 139//139 140//140 111//111
f 141//141 113//113 112//112
f 140//140 141//141 112//112
f 114//115 86//87 113//113
f 141//141 114//115 113//113
f 143//142 115//114 114//115
f 142//143 143//142 114//115
f 144//144 116//116 115//114
f 143//142 144//144 115//114
f 145//145 117//117 116//116
f 144//144 145//145 116//116
f 146//146 118//118 117//117
f 145//145 146//146 117//117
f 147//147 119//119 118//118
f 146//146 147//147 118//118
f 148//148 120//120 119//119
f 147//147 148//148 119//119
f 149//149 121//121 120//120
f 148//148 149//149 120//120
f 150//150 122//122 121//121
f 149//149 150//150 121//121
f 151//151 123//123 122//122
f 150//150 151//151 122//122
f 152//152 124//124 123//123
f 151//151 152//152 123//123
f 153//153 125//125 124//124
f 152//152 153//153 124//124
f 154//154 126//126 125//125
f 153//153 154//154 125//125
f 155//155 127//127 126//126
f 154//154 155//155 126//126
f 156//156 128//128 127//127
f 155//155 156//156 127//127
f 157//157 129//129 128//128
f 156//156 157//157 128//128
f 158//158 130//130 129//129
f 157//157 158//158 129//129
f 159//159 131//131 130//130
f 158//158 159//159 130//130
f 160//160 132//132 131//131
f 159//159 160//160 131//131
f 161//161 133//133 132//132
f 160//160 161//161 132//132
f 162//162 134//134 133//133
f 161//161 162//162 133//133
f 163//163 135//135 134//134
f 162//162 163//163 134//134
f 164//164 136//136 135//135
f 163//163 164//164 135//135
f 165//165 137//137 136//136
f 164//164 165//165 136//136
f 166//166 138//138 137//137
f 165//165 166//166 137//137
f 167//167 139//139 138//138
f 166//166 167//167 138//138
f 168//168 140//140 139//139
f 167//167 168//168 139//139
f 169//169 141//141 140//140
f 168//168 169//169 140//140
f 142//143 114//115 141//141
f 169//169 142//143 141//141
f 170//170 143//142 142//143
f 170//170 144//144 143//142
f 170//170 145//145 144//144
f 170//170 146//146 145//145
f 170//170 147//147 146//146
f 170//170 148//148 147//147
f 170//170 149//149 148//148
f 170//170 150//150 149//149
f 170//170 151//151 150//150
f 170//170 152//152 151//151
f 170//170 153//153 152//152
f 170//170 154//154 153//153
f 170//170 155//155 154//154
f 170//170 156//156 155//155
f 170//170 157//157 156//156
f 170//170 158//158 157//157
f 170//170 159//159 158//158
f 170//170 160//160 159//159
f 170//170 161//161 160//160
f 170//170 162//162 161//161
f 170//170 163//163 162//162
f 170//170 164//164 163//163
f 170//170 165//165 164//164
f 170//170 166//166 165//165
f 170//170 167//167 166//166
f 170//170 168//168 167//167
f 170//170 169//169 168//168
f 170//170 142//143 169//169
f 171//171 174//172 175//173 177//174
f 172//175 176//176 175//173 174//172
f 173//177 177//174 175//173 176//176
f 178//178 181//179 182//180 184//181
f 179//182 183//183 182//180 181//179
f 180//184 184//181 182//180 183//183
f 185//185 188//186 189//187 191//188
f 186//189 190//190 189//187 188//186
f 187//191 191//188 189//187 190//190
f 192//192 195//193 196//194 198//195
f 193//196 197//197 196//194 195//193
f 194//198 198//195 196//194 197//197
f 199//199 202//200 203//201 205//202
f 200//203 204//204 203//201 202//200
f 201//205 205//202 203//201 204//204
f 206//206 209//207 210//208 212//209
f 207//210 211//211 210//208 209//207
f 208//212 212//209 210//208 211//211
f 213//213 216//214 217//215 219//216
f 214//217 218//218 217//215 216//214
f 215//219 219//216 217//215 218//218
f 220//220 223//221 224//222 226//223
f 221//224 225//225 224//222 223//221
f 222//226 226//223 224//222 225//225
f 185//185 171//171 177//174 188//186
f 188//186 177//174 173//177 186//189
f 172//175 178//178 184//181 176//176
f 176//176 184//181 180//184 173//177
f 179//182 192//192 198//195 183//183
f 183//183 198//195 194//198 180//184
f 193//196 187//191 190//190 197//197
f 197//197 190//190 186//189 194//198
f 213//213 185//185 191//188 216//214
f 216//214 191//188 187//191 214//217
f 192//192 220//220 226//223 195//193
f 195//193 226//223 222//226 193//196
f 221//224 215//219 218//218 225//225
f 225//225 218//218 214//217 222//226
f 199//199 213//213 219//216 202//200
f 202//200 219//216 215//219 200//203
f 220//220 206//206 212//209 223//221
f 223//221 212//209 208//212 221//224
f 207//210 201//205 204//204 211//211
f 211//211 204//204 200//203 208//212
f 171//171 199//199 205//202 174//172
f 174//172 205//202 201//205 172//175
f 206//206 179//182 181//179 209//207
f 209//207 181//179 178//178 207//210
f 185//185 213//213 199//199 171//171
f 173//177 180//184 194//198 186//189
f 201//205 207//210 178//178 172//175
f 220//220 192//192 179//182 206//206
f 187//191 193//196 222//226 214//217
f 215//219 221//224 208//212 200//203
f 309//227 308//228 231//229 232//230
f 229//231 312//232 236//233 237//234
f 311//235 310//236 234//237 235//238
f 228//239 309//227 232//230 233//240
f 308//228 227//170 231//229
f 230//3 229//231 237//234
f 312//232 311//235 235//238 236//233
f 310//236 228//239 233//240 234//237
f 235//238 234//237 241//241 242//242
f 233//240 232//230 239//243 240//244
f 231//229 227//170 238//245
f 230//3 237//234 244//246
f 236//233 235//238 242//242 243//247
f 234//237 233//240 240//244 241//241
f 232//230 231//229 238//245 239//243
f 237//234 236//233 243//247 244//246
f 230//3 244//246 251//248
f 243//247 242//242 249//249 250//250
f 241//241 240//244 247//251 248//252
f 239//243 238//245 245//253 246//254
f 244//246 243//247 250//250 251//248
f 242//242 241//241 248//252 249//249
f 240//244 239//243 246//254 247//251
f 238//245 227//170 245//253
f 248//252 247//251 254//255 255//256
f 246//254 245//253 252//257 253//258
f 251//248 250//250 257//259 258//260
f 249//249 248//252 255//256 256//261
f 247//251 246//254 253//258 254//255
f 245//253 227//170 252//257
f 230//3 251//248 258//260
f 250//250 249//249 256//261 257//259
f 258//260 257//259 264//262 265//263
f 256//261 255//256 262//264 263//265
f 254//255 253//258 260//266 261//267
f 252//257 227//170 259//268
f 230//3 258//260 265//263
f 257//259 256//261 263//265 264//262
f 255//256 254//255 261//267 262//264
f 253//258 252//257 259//268 260//266
f 261//267 260//266 267//269 268//270
f 259//268 227//170 266//271
f 230//3 265//263 272//272
f 264//262 263//265 270//273 271//274
f 262//264 261//267 268//270 269//275
f 260//266 259//268 266//271 267//269
f 265//263 264//262 271//274 272//272
f 263//265 262//264 269//275 270//273
f 230//3 272//272 279//276
f 271//274 270//273 277//277 278//278
f 269//275 268//270 275//279 276//280
f 267//269 266//271 273//281 274//282
f 272//272 271//274 278//278 279//276
f 270//273 269//275 276//280 277//277
f 268//270 267//269 274//282 275//279
f 266//271 227//170 273//281
f 274//282 273//281 280//283 281//284
f 279//276 278//278 285//285 286//286
f 277//277 276//280 283//287 284//288
f 275//279 274//282 281//284 282//289
f 273//281 227//170 280//283
f 230//3 279//276 286//286
f 278//278 277//277 284//288 285//285
f 276//280 275//279 282//289 283//287
f 286//286 285//285 292//290 293//291
f 284//288 283//287 290//292 291//293
f 282//289 281//284 288//294 289//295
f 280//283 227//170 287//296
f 230//3 286//286 293//291
f 285//285 284//288 291//293 292//290
f 283//287 282//289 289//295 290//292
f 281//284 280//283 287//296 288//294
f 287//296 227//170 294//297
f 230//3 293//291 300//298
f 292//290 291//293 298//299 299//300
f 290//292 289//295 296//301 297//302
f 288//294 287//296 294//297 295//303
f 293//291 292//290 299//300 300//298
f 291//293 290//292 297//302 298//299
f 289//295 288//294 295//303 296//301
f 299//300 298//299 305//304 306//305
f 297//302 296//301 303//306 304//307
f 295//303 294//297 301//308 302//309
f 300//298 299//300 306//305 307//310
f 298//299 297//302 304//307 305//304
f 296//301 295//303 302//309 303//306
f 294//297 227//170 301//308
f 230//3 300//298 307//310
f 307//310 306//305 312//232 229//231
f 305//304 304//307 310//236 311//235
f 303//306 302//309 309//227 228//239
f 301//308 227//170 308//228
f 230//3 307//310 229//231
f 306//305 305//304 311//235 312//232
f 304//307 303//306 228//239 310//236
f 302//309 301//308 308//228 309//227
f 314//3 384//311 321//312
f 383//313 382//314 319//315 320//316
f 381//236 380//317 317//318 318//319
f 379//320 378//321 315//322 316//323
f 384//311 383//313 320//316 321//312
f 382//314 381//236 318//319 319//315
f 380//317 379//320 316//323 317//318
f 378//321 313//170 315//322
f 316//323 315//322 322//324 323//325
f 321//312 320//316 327//326 328//327
f 319//315 318//319 325//328 326//329
f 317//318 316//323 323//325 324//330
f 315//322 313//170 322//324
f 314//3 321//312 328//327
f 320//316 319//315 326//329 327//326
f 318//319 317//318 324//330 325//328
f 328//327 327//326 334//331 335//332
f 326//329 325//328 332//333 333//334
f 324//330 323//325 330//335 331//336
f 322//324 313//170 329//337
f 314//3 328//327 335//332
f 327//326 326//329 333//334 334//331
f 325//328 324//330 331//336 332//333
f 323//325 322//324 329//337 330//335
f 329//337 313//170 336//338
f 314//3 335//332 342//339
f 334//331 333//334 340//340 341//341
f 332//333 331//336 338//342 339//343
f 330//335 329//337 336//338 337//344
f 335//332 334//331 341//341 342//339
f 333//334 332//333 339//343 340//340
f 331//336 330//335 337//344 338//342
f 341//341 340//340 347//345 348//346
f 339//343 338//342 345//347 346//275
f 337//344 336//338 343//348 344//349
f 342//339 341//341 348//346 349//350
f 340//340 339//343 346//275 347//345
f 338//342 337//344 344//349 345//347
f 336//338 313//170 343//348
f 314//3 342//339 349//350
f 349//350 348//346 355//351 356//352
f 347//345 346//275 353//353 354//354
f 345//347 344//349 351//355 352//356
f 343//348 313//170 350//357
f 314//3 349//350 356//352
f 348//346 347//345 354//354 355//351
f 346//275 345//347 352//356 353//353
f 344//349 343//348 350//357 351//355
f 354//354 353//353 360//358 361//359
f 352//356 351//355 358//360 359//361
f 350//357 313//170 357//362
f 314//3 356//352 363//363
f 355//351 354//354 361//359 362//364
f 353//353 352//356 359//361 360//358
f 351//355 350//357 357//362 358//360
f 356//352 355//351 362//364 363//363
f 314//3 363//363 370//365
f 362//364 361//359 368//366 369//367
f 360//358 359//361 366//368 367//369
f 358//360 357//362 364//370 365//371
f 363//363 362//364 369//367 370//365
f 361//359 360//358 367//369 368//366
f 359//361 358//360 365//371 366//368
f 357//362 313//170 364//370
f 367//369 366//368 373//372 374//373
f 365//371 364//370 371//374 372//375
f 370//365 369//367 376//376 377//377
f 368//366 367//369 374//373 375//378
f 366//368 365//371 372//375 373//372
f 364//370 313//170 371//374
f 314//3 370//365 377//377
f 369//367 368//366 375//378 376//376
f 377//377 376//376 383//313 384//311
f 375//378 374//373 381//236 382//314
f 373//372 372//375 379//320 380//317
f 371//374 313//170 378//321
f 314//3 377//377 384//311
f 376//376 375//378 382//314 383//313
f 374//373 373//372 380//317 381//236
f 372//375 371//374 378//321 379//320
f 455//313 454//314 391//315 392//316
f 453//236 452//317 389//318 390//319
f 451//320 450//321 387//322 388//323
f 456//311 455//313 392//316 393//312
f 454//314 453//236 390//319 391//315
f 452//317 451//320 388//323 389//318
f 450//321 385//170 387//322
f 386//3 456//311 393//312
f 393//312 392//316 399//326 400//327
f 391//315 390//319 397//328 398//329
f 389//318 388//323 395//325 396//330
f 387//322 385//170 394//324
f 386//3 393//312 400//327
f 392//316 391//315 398//329 399//326
f 390//319 389//318 396//330 397//328
f 388//323 387//322 394//324 395//325
f 396//330 395//325 402//335 403//336
f 394//324 385//170 401//337
f 386//3 400//327 407//332
f 399//326 398//329 405//334 406//331
f 397//328 396//330 403//336 404//333
f 395//325 394//324 401//337 402//335
f 400//327 399//326 406//331 407//332
f 398//329 397//328 404//333 405//334
f 386//3 407//332 414//339
f 406//331 405//334 412//340 413//341
f 404//333 403//336 410//342 411//343
f 402//335 401//337 408//338 409//344
f 407//332 406//331 413//341 414//339
f 405//334 404//333 411//343 412//340
f 403//336 402//335 409//344 410//342
f 401//337 385//170 408//338
f 409//344 408//338 415//348 416//349
f 414//339 413//341 420//346 421//350
f 412//340 411//343 418//275 419//345
f 410//342 409//344 416//349 417//347
f 408//338 385//170 415//348
f 386//3 414//339 421//350
f 413//341 412//340 419//345 420//346
f 411//343 410//342 417//347 418//275
f 421//350 420//346 427//351 428//352
f 419//345 418//275 425//353 426//354
f 417//347 416//349 423//355 424//356
f 415//348 385//170 422//357
f 386//3 421//350 428//352
f 420//346 419//345 426//354 427//351
f 418//275 417//347 424//356 425//353
f 416//349 415//348 422//357 423//355
f 422//357 385//170 429//362
f 386//3 428//352 435//363
f 427//351 426//354 433//359 434//364
f 425//353 424//356 431//361 432//358
f 423//355 422//357 429//362 430//360
f 428//352 427//351 434//364 435//363
f 426//354 425//353 432//358 433//359
f 424//356 423//355 430//360 431//361
f 434//364 433//359 440//366 441//367
f 432//358 431//361 438//368 439//369
f 430//360 429//362 436//370 437//371
f 435//363 434//364 441//367 442//365
f 433//359 432//358 439//369 440//366
f 431//361 430//360 437//371 438//368
f 429//362 385//170 436//370
f 386//3 435//363 442//365
f 442//365 441//367 448//376 449//377
f 440//366 439//369 446//373 447//378
f 438//368 437//371 444//375 445//372
f 436//370 385//170 443//374
f 386//3 442//365 449//377
f 441//367 440//366 447//378 448//376
f 439//369 438//368 445//372 446//373
f 437//371 436//370 443//374 444//375
f 447//378 446//373 453//236 454//314
f 445//372 444//375 451//320 452//317
f 443//374 385//170 450//321
f 386//3 449//377 456//311
f 448//376 447//378 454//314 455//313
f 446//373 445//372 452//317 453//236
f 444//375 443//374 450//321 451//320
f 449//377 448//376 455//313 456//311
f 527//313 526//314 463//315 464//316
f 525//236 524//317 461//318 462//319
f 523//320 522//321 459//322 460//323
f 528//311 527//313 464//316 465//312
f 526//314 525//236 462//319 463//315
f 524//317 523//320 460//323 461//318
f 522//321 457//170 459//322
f 458//3 528//311 465//312
f 465//312 464//316 471//326 472//327
f 463//315 462//319 469//328 470//329
f 461//318 460//323 467//325 468//330
f 459//322 457//170 466//324
f 458//3 465//312 472//327
f 464//316 463//315 470//329 471//326
f 462//319 461//318 468//330 469//328
f 460//323 459//322 466//324 467//325
f 468//330 467//325 474//335 475//336
f 466//324 457//170 473//337
f 458//3 472//327 479//332
f 471//326 470//329 477//334 478//331
f 469//328 468//330 475//336 476//333
f 467//325 466//324 473//337 474//335
f 472//327 471//326 478//331 479//332
f 470//329 469//328 476//333 477//334
f 458//3 479//332 486//339
f 478//331 477//334 484//340 485//341
f 476//333 475//336 482//342 483//343
f 474//335 473//337 480//338 481//344
f 479//332 478//331 485//341 486//339
f 477//334 476//333 483//343 484//340
f 475//336 474//335 481//344 482//342
f 473//337 457//170 480//338
f 481//344 480//338 487//348 488//349
f 486//339 485//341 492//346 493//350
f 484//340 483//343 490//275 491//345
f 482//342 481//344 488//349 489//347
f 480//338 457//170 487//348
f 458//3 486//339 493//350
f 485//341 484//340 491//345 492//346
f 483//343 482//342 489//347 490//275
f 493//350 492//346 499//351 500//352
f 491//345 490//275 497//353 498//354
f 489//347 488//349 495//355 496//356
f 487//348 457//170 494//357
f 458//3 493//350 500//352
f 492//346 491//345 498//354 499//351
f 490//275 489//347 496//356 497//353
f 488//349 487//348 494//357 495//355
f 494//357 457//170 501//362
f 458//3 500//352 507//363
f 499//351 498//354 505//359 506//364
f 497//353 496//356 503//361 504//358
f 495//355 494//357 501//362 502//360
f 500//352 499//351 506//364 507//363
f 498//354 497//353 504//358 505//359
f 496//356 495//355 502//360 503//361
f 506//364 505//359 512//366 513//367
f 504//358 503//361 510//368 511//369
f 502//360 501//362 508//370 509//371
f 507//363 506//364 513//367 514//365
f 505//359 504//358 511//369 512//366
f 503//361 502//360 509//371 510//368
f 501//362 457//170 508//370
f 458//3 507//363 514//365
f 514//365 513//367 520//376 521//377
f 512//366 511//369 518//373 519//378
f 510//368 509//371 516//375 517//372
f 508//370 457//170 515//374
f 458//3 514//365 521//377
f 513//367 512//366 519//378 520//376
f 511//369 510//368 517//372 518//373
f 509//371 508//370 515//374 516//375
f 519//378 518//373 525//236 526//314
f 517//372 516//375 523//320 524//317
f 515//374 457//170 522//321
f 458//3 521//377 528//311
f 520//376 519//378 526//314 527//313
f 518//373 517//372 524//317 525//236
f 516//375 515//374 522//321 523//320
f 521//377 520//376 527//313 528//311
f 595//320 594//321 531//322 532//323
f 600//311 599//313 536//316 537//312
f 598//314 597//236 534//319 535//315
f 596//317 595//320 532//323 533//318
f 594//321 529//170 531//322
f 530//3 600//311 537//312
f 599//313 598//314 535//315 536//316
f 597//236 596//317 533//318 534//319
f 535//315 534//319 541//328 542//329
f 533//318 532//323 539//325 540//330
f 531//322 529//170 538//324
f 530//3 537//312 544//327
f 536//316 535//315 542//329 543//326
f 534//319 533//318 540//330 541//328
f 532//323 531//322 538//324 539//325
f 537//312 536//316 543//326 544//327
f 530//3 544//327 551//332
f 543//326 542//329 549//334 550//331
f 541//328 540//330 547//336 548//333
f 539//325 538//324 545//337 546//335
f 544//327 543//326 550//331 551//332
f 542//329 541//328 548//333 549//334
f 540//330 539//325 546//335 547//336
f 538//324 529//170 545//337
f 548//333 547//336 554//342 555//343
f 546//335 545//337 552//338 553//344
f 551//332 550//331 557//341 558//339
f 549//334 548//333 555//343 556//340
f 547//336 546//335 553//344 554//342
f 545//337 529//170 552//338
f 530//3 551//332 558//339
f 550//331 549//334 556//340 557//341
f 558//339 557//341 564//346 565//350
f 556//340 555//343 562//275 563//345
f 554//342 553//344 560//349 561//347
f 552//338 529//170 559//348
f 530//3 558//339 565//350
f 557//341 556//340 563//345 564//346
f 555//343 554//342 561//347 562//275
f 553//344 552//338 559//348 560//349
f 561//347 560//349 567//355 568//356
f 559//348 529//170 566//357
f 530//3 565//350 572//352
f 564//346 563//345 570//354 571//351
f 562//275 561//347 568//356 569//353
f 560//349 559//348 566//357 567//355
f 565//350 564//346 571//351 572//352
f 563//345 562//275 569//353 570//354
f 530//3 572//352 579//363
f 571//351 570//354 577//359 578//364
f 569//353 568//356 575//361 576//358
f 567//355 566//357 573//362 574//360
f 572//352 571//351 578//364 579//363
f 570//354 569//353 576//358 577//359
f 568//356 567//355 574//360 575//361
f 566//357 529//170 573//362
f 574//360 573//362 580//370 581//371
f 579//363 578//364 585//367 586//365
f 577//359 576//358 583//369 584//366
f 575//361 574//360 581//371 582//368
f 573//362 529//170 580//370
f 530//3 579//363 586//365
f 578//364 577//359 584//366 585//367
f 576//358 575//361 582//368 583//369
f 586//365 585//367 592//376 593//377
f 584//366 583//369 590//373 591//378
f 582//368 581//371 588//375 589//372
f 580//370 529//170 587//374
f 530//3 586//365 593//377
f 585//367 584//366 591//378 592//376
f 583//369 582//368 589//372 590//373
f 581//371 580//370 587//374 588//375
f 587//374 529//170 594//321
f 530//3 593//377 600//311
f 592//376 591//378 598//314 599//313
f 590//373 589//372 596//317 597//236
f 588//375 587//374 594//321 595//320
f 593//377 592//376 599//313 600//311
f 591//378 590//373 597//236 598//314
f 589//372 588//375 595//320 596//317
