# Blender 5.2.2 LTS
# www.blender.org
o MintTactile
v 0.000000 0.000000 0.000000
v 1.100000 0.000000 0.836000
v 1.091002 0.000000 0.904332
v 1.064624 0.000000 0.968000
v 1.022670 0.000000 1.022670
v 0.968000 0.000000 1.064624
v 0.904332 0.000000 1.091002
v 0.836000 0.000000 1.100000
v -0.836000 0.000000 1.100000
v -0.904332 0.000000 1.091002
v -0.968000 0.000000 1.064624
v -1.022670 0.000000 1.022670
v -1.064624 0.000000 0.968000
v -1.091002 0.000000 0.904332
v -1.100000 0.000000 0.836000
v -1.100000 0.000000 -0.836000
v -1.091002 0.000000 -0.904332
v -1.064624 0.000000 -0.968000
v -1.022670 0.000000 -1.022670
v -0.968000 0.000000 -1.064624
v -0.904332 0.000000 -1.091002
v -0.836000 0.000000 -1.100000
v 0.836000 0.000000 -1.100000
v 0.904332 0.000000 -1.091002
v 0.968000 0.000000 -1.064624
v 1.022670 0.000000 -1.022670
v 1.064624 0.000000 -0.968000
v 1.091002 0.000000 -0.904332
v 1.100000 0.000000 -0.836000
v 0.979000 0.607200 0.671000
v 0.968506 0.607200 0.750706
v 0.937728 0.607200 0.825000
v 0.888778 0.607200 0.888778
v 0.825000 0.607200 0.937728
v 0.750706 0.607200 0.968506
v 0.671000 0.607200 0.979000
v -0.671000 0.607200 0.979000
v -0.750706 0.607200 0.968506
v -0.825000 0.607200 0.937728
v -0.888778 0.607200 0.888778
v -0.937728 0.607200 0.825000
v -0.968506 0.607200 0.750706
v -0.979000 0.607200 0.671000
v -0.979000 0.607200 -0.671000
v -0.968506 0.607200 -0.750706
v -0.937728 0.607200 -0.825000
v -0.888778 0.607200 -0.888778
v -0.825000 0.607200 -0.937728
v -0.750706 0.607200 -0.968506
v -0.671000 0.607200 -0.979000
v 0.671000 0.607200 -0.979000
v 0.750706 0.607200 -0.968506
v 0.825000 0.607200 -0.937728
v 0.888778 0.607200 -0.888778
v 0.937728 0.607200 -0.825000
v 0.968506 0.607200 -0.750706
v 0.979000 0.607200 -0.671000
v 0.858000 1.232000 0.506000
v 0.846010 1.232000 0.597102
v 0.810832 1.232000 0.682000
v 0.754908 1.232000 0.754908
v 0.682000 1.232000 0.810832
v 0.597102 1.232000 0.846010
v 0.506000 1.232000 0.858000
v -0.506000 1.232000 0.858000
v -0.597102 1.232000 0.846010
v -0.682000 1.232000 0.810832
v -0.754908 1.232000 0.754908
v -0.810832 1.232000 0.682000
v -0.846010 1.232000 0.597102
v -0.858000 1.232000 0.506000
v -0.858000 1.232000 -0.506000
v -0.846010 1.232000 -0.597102
v -0.810832 1.232000 -0.682000
v -0.754908 1.232000 -0.754908
v -0.682000 1.232000 -0.810832
v -0.597102 1.232000 -0.846010
v -0.506000 1.232000 -0.858000
v 0.506000 1.232000 -0.858000
v 0.597102 1.232000 -0.846010
v 0.682000 1.232000 -0.810832
v 0.754908 1.232000 -0.754908
v 0.810832 1.232000 -0.682000
v 0.846010 1.232000 -0.597102
v 0.858000 1.232000 -0.506000
v 0.770000 1.320000 0.462000
v 0.759506 1.320000 0.541706
v 0.728728 1.320000 0.616000
v 0.679778 1.320000 0.679778
v 0.616000 1.320000 0.728728
v 0.541706 1.320000 0.759506
v 0.462000 1.320000 0.770000
v -0.462000 1.320000 0.770000
v -0.541706 1.320000 0.759506
v -0.616000 1.320000 0.728728
v -0.679778 1.320000 0.679778
v -0.728728 1.320000 0.616000
v -0.759506 1.320000 0.541706
v -0.770000 1.320000 0.462000
v -0.770000 1.320000 -0.462000
v -0.759506 1.320000 -0.541706
v -0.728728 1.320000 -0.616000
v -0.679778 1.320000 -0.679778
v -0.616000 1.320000 -0.728728
v -0.541706 1.320000 -0.759506
v -0.462000 1.320000 -0.770000
v 0.462000 1.320000 -0.770000
v 0.541706 1.320000 -0.759506
v 0.616000 1.320000 -0.728728
v 0.679778 1.320000 -0.679778
v 0.728728 1.320000 -0.616000
v 0.759506 1.320000 -0.541706
v 0.770000 1.320000 -0.462000
v 0.554400 1.245838 0.300960
v 0.545754 1.245838 0.366564
v 0.520454 1.245838 0.427680
v 0.480172 1.245838 0.480172
v 0.427680 1.245838 0.520454
v 0.366564 1.245838 0.545754
v 0.300960 1.245838 0.554400
v -0.300960 1.245838 0.554400
v -0.366564 1.245838 0.545754
v -0.427680 1.245838 0.520454
v -0.480172 1.245838 0.480172
v -0.520454 1.245838 0.427680
v -0.545754 1.245838 0.366564
v -0.554400 1.245838 0.300960
v -0.554400 1.245838 -0.300960
v -0.545754 1.245838 -0.366564
v -0.520454 1.245838 -0.427680
v -0.480172 1.245838 -0.480172
v -0.427680 1.245838 -0.520454
v -0.366564 1.245838 -0.545754
v -0.300960 1.245838 -0.554400
v 0.300960 1.245838 -0.554400
v 0.366564 1.245838 -0.545754
v 0.427680 1.245838 -0.520454
v 0.480172 1.245838 -0.480172
v 0.520454 1.245838 -0.427680
v 0.545754 1.245838 -0.366564
v 0.554400 1.245838 -0.300960
v 0.323400 1.193170 0.175560
v 0.318362 1.193170 0.213818
v 0.303600 1.193170 0.249480
v 0.280104 1.193170 0.280104
v 0.249480 1.193170 0.303600
v 0.213818 1.193170 0.318362
v 0.175560 1.193170 0.323400
v -0.175560 1.193170 0.323400
v -0.213818 1.193170 0.318362
v -0.249480 1.193170 0.303600
v -0.280104 1.193170 0.280104
v -0.303600 1.193170 0.249480
v -0.318362 1.193170 0.213818
v -0.323400 1.193170 0.175560
v -0.323400 1.193170 -0.175560
v -0.318362 1.193170 -0.213818
v -0.303600 1.193170 -0.249480
v -0.280104 1.193170 -0.280104
v -0.249480 1.193170 -0.303600
v -0.213818 1.193170 -0.318362
v -0.175560 1.193170 -0.323400
v 0.175560 1.193170 -0.323400
v 0.213818 1.193170 -0.318362
v 0.249480 1.193170 -0.303600
v 0.280104 1.193170 -0.280104
v 0.303600 1.193170 -0.249480
v 0.318362 1.193170 -0.213818
v 0.323400 1.193170 -0.175560
v 0.000000 1.166000 -0.000000
v -0.310000 1.300000 0.150000
v -0.310000 1.340000 0.190000
v -0.350000 1.340000 0.150000
v -0.310000 1.311716 0.178284
v -0.333094 1.316906 0.173094
v -0.338284 1.340000 0.178284
v -0.338284 1.311716 0.150000
v -0.310000 1.360000 0.190000
v -0.310000 1.400000 0.150000
v -0.350000 1.360000 0.150000
v -0.310000 1.388284 0.178284
v -0.333094 1.383094 0.173094
v -0.338284 1.388284 0.150000
v -0.338284 1.360000 0.178284
v -0.310000 1.300000 -0.050000
v -0.350000 1.340000 -0.050000
v -0.310000 1.340000 -0.090000
v -0.338284 1.311716 -0.050000
v -0.333094 1.316906 -0.073094
v -0.338284 1.340000 -0.078284
v -0.310000 1.311716 -0.078284
v -0.310000 1.400000 -0.050000
v -0.310000 1.360000 -0.090000
v -0.350000 1.360000 -0.050000
v -0.310000 1.388284 -0.078284
v -0.333094 1.383094 -0.073094
v -0.338284 1.360000 -0.078284
v -0.338284 1.388284 -0.050000
v 0.310000 1.300000 0.150000
v 0.350000 1.340000 0.150000
v 0.310000 1.340000 0.190000
v 0.338284 1.311716 0.150000
v 0.333094 1.316906 0.173094
v 0.338284 1.340000 0.178284
v 0.310000 1.311716 0.178284
v 0.310000 1.400000 0.150000
v 0.310000 1.360000 0.190000
v 0.350000 1.360000 0.150000
v 0.310000 1.388284 0.178284
v 0.333094 1.383094 0.173094
v 0.338284 1.360000 0.178284
v 0.338284 1.388284 0.150000
v 0.310000 1.300000 -0.050000
v 0.310000 1.340000 -0.090000
v 0.350000 1.340000 -0.050000
v 0.310000 1.311716 -0.078284
v 0.333094 1.316906 -0.073094
v 0.338284 1.340000 -0.078284
v 0.338284 1.311716 -0.050000
v 0.310000 1.400000 -0.050000
v 0.350000 1.360000 -0.050000
v 0.310000 1.360000 -0.090000
v 0.338284 1.388284 -0.050000
v 0.333094 1.383094 -0.073094
v 0.338284 1.360000 -0.078284
v 0.310000 1.388284 -0.078284
v 0.380000 1.730000 0.000000
v 0.380000 1.717942 -0.045000
v 0.380000 1.685000 -0.077942
v 0.380000 1.640000 -0.090000
v 0.380000 1.595000 -0.077942
v 0.380000 1.562058 -0.045000
v 0.380000 1.550000 0.000000
v 0.411820 1.717942 -0.031820
v 0.435114 1.685000 -0.055114
v 0.443640 1.640000 -0.063640
v 0.435114 1.595000 -0.055114
v 0.411820 1.562058 -0.031820
v 0.425000 1.717942 0.000000
v 0.457942 1.685000 0.000000
v 0.470000 1.640000 0.000000
v 0.457942 1.595000 0.000000
v 0.425000 1.562058 0.000000
v 0.411820 1.717942 0.031820
v 0.435114 1.685000 0.055114
v 0.443640 1.640000 0.063640
v 0.435114 1.595000 0.055114
v 0.411820 1.562058 0.031820
v 0.380000 1.717942 0.045000
v 0.380000 1.685000 0.077942
v 0.380000 1.640000 0.090000
v 0.380000 1.595000 0.077942
v 0.380000 1.562058 0.045000
v 0.348180 1.717942 0.031820
v 0.324886 1.685000 0.055114
v 0.316360 1.640000 0.063640
v 0.324886 1.595000 0.055114
v 0.348180 1.562058 0.031820
v 0.335000 1.717942 0.000000
v 0.302058 1.685000 0.000000
v 0.290000 1.640000 0.000000
v 0.302058 1.595000 0.000000
v 0.335000 1.562058 0.000000
v 0.348180 1.717942 -0.031820
v 0.324886 1.685000 -0.055114
v 0.316360 1.640000 -0.063640
v 0.324886 1.595000 -0.055114
v 0.348180 1.562058 -0.031820
v 0.190000 1.730000 -0.329090
v 0.190000 1.717942 -0.374090
v 0.190000 1.685000 -0.407032
v 0.190000 1.640000 -0.419090
v 0.190000 1.595000 -0.407032
v 0.190000 1.562058 -0.374090
v 0.190000 1.550000 -0.329090
v 0.221820 1.717942 -0.360909
v 0.245114 1.685000 -0.384203
v 0.253640 1.640000 -0.392729
v 0.245114 1.595000 -0.384203
v 0.221820 1.562058 -0.360909
v 0.235000 1.717942 -0.329090
v 0.267942 1.685000 -0.329090
v 0.280000 1.640000 -0.329090
v 0.267942 1.595000 -0.329090
v 0.235000 1.562058 -0.329090
v 0.221820 1.717942 -0.297270
v 0.245114 1.685000 -0.273976
v 0.253640 1.640000 -0.265450
v 0.245114 1.595000 -0.273976
v 0.221820 1.562058 -0.297270
v 0.190000 1.717942 -0.284090
v 0.190000 1.685000 -0.251147
v 0.190000 1.640000 -0.239090
v 0.190000 1.595000 -0.251147
v 0.190000 1.562058 -0.284090
v 0.158180 1.717942 -0.297270
v 0.134886 1.685000 -0.273976
v 0.126360 1.640000 -0.265450
v 0.134886 1.595000 -0.273976
v 0.158180 1.562058 -0.297270
v 0.145000 1.717942 -0.329090
v 0.112058 1.685000 -0.329090
v 0.100000 1.640000 -0.329090
v 0.112058 1.595000 -0.329090
v 0.145000 1.562058 -0.329090
v 0.158180 1.717942 -0.360909
v 0.134886 1.685000 -0.384203
v 0.126360 1.640000 -0.392729
v 0.134886 1.595000 -0.384203
v 0.158180 1.562058 -0.360909
v -0.190000 1.730000 -0.329090
v -0.190000 1.717942 -0.374090
v -0.190000 1.685000 -0.407032
v -0.190000 1.640000 -0.419090
v -0.190000 1.595000 -0.407032
v -0.190000 1.562058 -0.374090
v -0.190000 1.550000 -0.329090
v -0.158180 1.717942 -0.360909
v -0.134886 1.685000 -0.384203
v -0.126360 1.640000 -0.392729
v -0.134886 1.595000 -0.384203
v -0.158180 1.562058 -0.360909
v -0.145000 1.717942 -0.329090
v -0.112058 1.685000 -0.329090
v -0.100000 1.640000 -0.329090
v -0.112058 1.595000 -0.329090
v -0.145000 1.562058 -0.329090
v -0.158180 1.717942 -0.297270
v -0.134886 1.685000 -0.273976
v -0.126360 1.640000 -0.265450
v -0.134886 1.595000 -0.273976
v -0.158180 1.562058 -0.297270
v -0.190000 1.717942 -0.284090
v -0.190000 1.685000 -0.251147
v -0.190000 1.640000 -0.239090
v -0.190000 1.595000 -0.251147
v -0.190000 1.562058 -0.284090
v -0.221820 1.717942 -0.297270
v -0.245114 1.685000 -0.273976
v -0.253640 1.640000 -0.265450
v -0.245114 1.595000 -0.273976
v -0.221820 1.562058 -0.297270
v -0.235000 1.717942 -0.329090
v -0.267942 1.685000 -0.329090
v -0.280000 1.640000 -0.329090
v -0.267942 1.595000 -0.329090
v -0.235000 1.562058 -0.329090
v -0.221820 1.717942 -0.360909
v -0.245114 1.685000 -0.384203
v -0.253640 1.640000 -0.392729
v -0.245114 1.595000 -0.384203
v -0.221820 1.562058 -0.360909
v -0.380000 1.730000 -0.000000
v -0.380000 1.717942 -0.045000
v -0.380000 1.685000 -0.077942
v -0.380000 1.640000 -0.090000
v -0.380000 1.595000 -0.077942
v -0.380000 1.562058 -0.045000
v -0.380000 1.550000 -0.000000
v -0.348180 1.717942 -0.031820
v -0.324886 1.685000 -0.055114
v -0.316360 1.640000 -0.063640
v -0.324886 1.595000 -0.055114
v -0.348180 1.562058 -0.031820
v -0.335000 1.717942 -0.000000
v -0.302058 1.685000 -0.000000
v -0.290000 1.640000 -0.000000
v -0.302058 1.595000 -0.000000
v -0.335000 1.562058 -0.000000
v -0.348180 1.717942 0.031820
v -0.324886 1.685000 0.055114
v -0.316360 1.640000 0.063640
v -0.324886 1.595000 0.055114
v -0.348180 1.562058 0.031820
v -0.380000 1.717942 0.045000
v -0.380000 1.685000 0.077942
v -0.380000 1.640000 0.090000
v -0.380000 1.595000 0.077942
v -0.380000 1.562058 0.045000
v -0.411820 1.717942 0.031820
v -0.435114 1.685000 0.055114
v -0.443640 1.640000 0.063640
v -0.435114 1.595000 0.055114
v -0.411820 1.562058 0.031820
v -0.425000 1.717942 -0.000000
v -0.457942 1.685000 -0.000000
v -0.470000 1.640000 -0.000000
v -0.457942 1.595000 -0.000000
v -0.425000 1.562058 -0.000000
v -0.411820 1.717942 -0.031820
v -0.435114 1.685000 -0.055114
v -0.443640 1.640000 -0.063640
v -0.435114 1.595000 -0.055114
v -0.411820 1.562058 -0.031820
v -0.190000 1.730000 0.329090
v -0.190000 1.717942 0.284090
v -0.190000 1.685000 0.251147
v -0.190000 1.640000 0.239090
v -0.190000 1.595000 0.251147
v -0.190000 1.562058 0.284090
v -0.190000 1.550000 0.329090
v -0.158180 1.717942 0.297270
v -0.134886 1.685000 0.273976
v -0.126360 1.640000 0.265450
v -0.134886 1.595000 0.273976
v -0.158180 1.562058 0.297270
v -0.145000 1.717942 0.329090
v -0.112058 1.685000 0.329090
v -0.100000 1.640000 0.329090
v -0.112058 1.595000 0.329090
v -0.145000 1.562058 0.329090
v -0.158180 1.717942 0.360909
v -0.134886 1.685000 0.384203
v -0.126360 1.640000 0.392729
v -0.134886 1.595000 0.384203
v -0.158180 1.562058 0.360909
v -0.190000 1.717942 0.374090
v -0.190000 1.685000 0.407032
v -0.190000 1.640000 0.419090
v -0.190000 1.595000 0.407032
v -0.190000 1.562058 0.374090
v -0.221820 1.717942 0.360909
v -0.245114 1.685000 0.384203
v -0.253640 1.640000 0.392729
v -0.245114 1.595000 0.384203
v -0.221820 1.562058 0.360909
v -0.235000 1.717942 0.329090
v -0.267942 1.685000 0.329090
v -0.280000 1.640000 0.329090
v -0.267942 1.595000 0.329090
v -0.235000 1.562058 0.329090
v -0.221820 1.717942 0.297270
v -0.245114 1.685000 0.273976
v -0.253640 1.640000 0.265450
v -0.245114 1.595000 0.273976
v -0.221820 1.562058 0.297270
v 0.190000 1.730000 0.329090
v 0.190000 1.717942 0.284090
v 0.190000 1.685000 0.251147
v 0.190000 1.640000 0.239090
v 0.190000 1.595000 0.251147
v 0.190000 1.562058 0.284090
v 0.190000 1.550000 0.329090
v 0.221820 1.717942 0.297270
v 0.245114 1.685000 0.273976
v 0.253640 1.640000 0.265450
v 0.245114 1.595000 0.273976
v 0.221820 1.562058 0.297270
v 0.235000 1.717942 0.329090
v 0.267942 1.685000 0.329090
v 0.280000 1.640000 0.329090
v 0.267942 1.595000 0.329090
v 0.235000 1.562058 0.329090
v 0.221820 1.717942 0.360909
v 0.245114 1.685000 0.384203
v 0.253640 1.640000 0.392729
v 0.245114 1.595000 0.384203
v 0.221820 1.562058 0.360909
v 0.190000 1.717942 0.374090
v 0.190000 1.685000 0.407032
v 0.190000 1.640000 0.419090
v 0.190000 1.595000 0.407032
v 0.190000 1.562058 0.374090
v 0.158180 1.717942 0.360909
v 0.134886 1.685000 0.384203
v 0.126360 1.640000 0.392729
v 0.134886 1.595000 0.384203
v 0.158180 1.562058 0.360909
v 0.145000 1.717942 0.329090
v 0.112058 1.685000 0.329090
v 0.100000 1.640000 0.329090
v 0.112058 1.595000 0.329090
v 0.145000 1.562058 0.329090
v 0.158180 1.717942 0.297270
v 0.134886 1.685000 0.273976
v 0.126360 1.640000 0.265450
v 0.134886 1.595000 0.273976
v 0.158180 1.562058 0.297270
vn 0.5454 -0.8382 0.0059
vn 0.6507 -0.7302 0.2086
vn -0.0000 -1.0000 -0.0000
vn 0.5497 -0.7567 0.3539
vn 0.4321 -0.7658 0.4762
vn 0.2977 -0.7593 0.5786
vn 0.1433 -0.7360 0.6616
vn 0.0022 -0.6372 0.7707
vn -0.0059 -0.8382 0.5454
vn -0.2086 -0.7302 0.6507
vn -0.3539 -0.7567 0.5497
vn -0.4762 -0.7658 0.4321
vn -0.5786 -0.7593 0.2977
vn -0.6616 -0.7360 0.1433
vn -0.7707 -0.6372 0.0022
vn -0.5454 -0.8382 -0.0059
vn -0.6507 -0.7302 -0.2086
vn -0.5497 -0.7567 -0.3539
vn -0.4321 -0.7658 -0.4762
vn -0.2977 -0.7593 -0.5786
vn -0.1433 -0.7360 -0.6616
vn -0.0022 -0.6372 -0.7707
vn 0.0059 -0.8382 -0.5454
vn 0.2086 -0.7302 -0.6507
vn 0.3539 -0.7567 -0.5497
vn 0.4762 -0.7658 -0.4321
vn 0.5786 -0.7593 -0.2977
vn 0.6616 -0.7360 -0.1433
vn 0.7707 -0.6372 -0.0022
vn 0.9336 0.2495 0.2571
vn 0.9807 0.1955 0.0071
vn 0.8273 0.2828 0.4853
vn 0.6713 0.2936 0.6806
vn 0.4740 0.2818 0.8342
vn 0.2443 0.2473 0.9376
vn 0.0075 0.1940 0.9810
vn -0.0071 0.1955 0.9807
vn -0.2571 0.2495 0.9336
vn -0.4853 0.2828 0.8273
vn -0.6806 0.2936 0.6713
vn -0.8342 0.2818 0.4740
vn -0.9376 0.2473 0.2443
vn -0.9810 0.1940 0.0075
vn -0.9807 0.1955 -0.0071
vn -0.9336 0.2495 -0.2571
vn -0.8273 0.2828 -0.4853
vn -0.6713 0.2936 -0.6806
vn -0.4740 0.2818 -0.8342
vn -0.2443 0.2473 -0.9376
vn -0.0075 0.1940 -0.9810
vn 0.0071 0.1955 -0.9807
vn 0.2571 0.2495 -0.9336
vn 0.4853 0.2828 -0.8273
vn 0.6806 0.2936 -0.6713
vn 0.8342 0.2818 -0.4740
vn 0.9376 0.2473 -0.2443
vn 0.9810 0.1940 -0.0075
vn 0.9174 0.3339 0.2164
vn 0.9708 0.2397 0.0057
vn 0.8183 0.3697 0.4401
vn 0.6726 0.3829 0.6332
vn 0.4878 0.3737 0.7889
vn 0.2705 0.3419 0.9000
vn 0.0155 0.3346 0.9422
vn -0.0056 0.2398 0.9708
vn -0.2164 0.3339 0.9174
vn -0.4401 0.3697 0.8183
vn -0.6332 0.3829 0.6726
vn -0.7889 0.3737 0.4878
vn -0.9000 0.3419 0.2705
vn -0.9422 0.3346 0.0155
vn -0.9708 0.2398 -0.0056
vn -0.9174 0.3339 -0.2164
vn -0.8183 0.3697 -0.4401
vn -0.6726 0.3829 -0.6332
vn -0.4878 0.3737 -0.7889
vn -0.2705 0.3419 -0.9000
vn -0.0155 0.3346 -0.9422
vn 0.0056 0.2398 -0.9708
vn 0.2164 0.3339 -0.9174
vn 0.4401 0.3697 -0.8183
vn 0.6332 0.3829 -0.6726
vn 0.7889 0.3737 -0.4878
vn 0.9000 0.3419 -0.2705
vn 0.9422 0.3346 -0.0155
vn 0.0685 0.9976 -0.0031
vn 0.2319 0.9727 -0.0012
vn 0.0622 0.9980 0.0137
vn 0.0553 0.9981 0.0287
vn 0.0473 0.9979 0.0432
vn 0.0375 0.9976 0.0587
vn 0.0027 0.9987 -0.0509
vn 0.0012 0.9727 0.2319
vn 0.0031 0.9976 0.0685
vn -0.0137 0.9980 0.0622
vn -0.0287 0.9981 0.0553
vn -0.0432 0.9979 0.0473
vn -0.0587 0.9976 0.0375
vn 0.0509 0.9987 0.0027
vn -0.2319 0.9727 0.0012
vn -0.0685 0.9976 0.0031
vn -0.0622 0.9980 -0.0137
vn -0.0553 0.9981 -0.0287
vn -0.0473 0.9979 -0.0432
vn -0.0375 0.9976 -0.0587
vn -0.0027 0.9987 0.0509
vn -0.0012 0.9727 -0.2319
vn -0.0031 0.9976 -0.0685
vn 0.0137 0.9980 -0.0622
vn 0.0287 0.9981 -0.0553
vn 0.0432 0.9979 -0.0473
vn 0.0587 0.9976 -0.0375
vn -0.0509 0.9987 -0.0027
vn -0.2401 0.9689 -0.0590
vn -0.2915 0.9566 -0.0026
vn -0.2006 0.9734 -0.1104
vn -0.1608 0.9749 -0.1543
vn -0.1178 0.9738 -0.1945
vn -0.0680 0.9698 -0.2341
vn -0.0045 0.9649 -0.2627
vn 0.0026 0.9566 -0.2915
vn 0.0590 0.9689 -0.2401
vn 0.1104 0.9734 -0.2007
vn 0.1543 0.9749 -0.1608
vn 0.1945 0.9738 -0.1178
vn 0.2341 0.9698 -0.0680
vn 0.2627 0.9649 -0.0045
vn 0.2915 0.9566 0.0026
vn 0.2401 0.9689 0.0590
vn 0.2006 0.9734 0.1104
vn 0.1608 0.9749 0.1543
vn 0.1178 0.9738 0.1945
vn 0.0680 0.9698 0.2341
vn 0.0045 0.9649 0.2627
vn -0.0026 0.9566 0.2915
vn -0.0590 0.9689 0.2401
vn -0.1104 0.9734 0.2007
vn -0.1543 0.9749 0.1608
vn -0.1945 0.9738 0.1178
vn -0.2341 0.9698 0.0680
vn -0.2627 0.9649 0.0045
vn -0.1449 0.9889 -0.0316
vn -0.1735 0.9848 -0.0011
vn -0.1228 0.9904 -0.0633
vn -0.0995 0.9909 -0.0905
vn -0.0738 0.9906 -0.1150
vn -0.0441 0.9894 -0.1380
vn -0.0036 0.9892 -0.1463
vn 0.0011 0.9848 -0.1735
vn 0.0316 0.9889 -0.1449
vn 0.0633 0.9904 -0.1228
vn 0.0905 0.9909 -0.0995
vn 0.1150 0.9906 -0.0738
vn 0.1381 0.9894 -0.0441
vn 0.1463 0.9892 -0.0036
vn 0.1735 0.9848 0.0011
vn 0.1449 0.9889 0.0316
vn 0.1228 0.9904 0.0633
vn 0.0995 0.9909 0.0905
vn 0.0738 0.9906 0.1150
vn 0.0441 0.9894 0.1380
vn 0.0036 0.9892 0.1463
vn -0.0011 0.9848 0.1735
vn -0.0316 0.9889 0.1449
vn -0.0633 0.9904 0.1228
vn -0.0905 0.9909 0.0995
vn -0.1150 0.9906 0.0738
vn -0.1381 0.9894 0.0441
vn -0.1463 0.9892 0.0036
vn -0.0000 1.0000 -0.0000
vn -0.1794 -0.9673 0.1794
vn -0.1726 -0.6965 0.6965
vn -0.5773 -0.5774 0.5773
vn -0.6965 -0.6965 0.1726
vn -0.1794 -0.1794 0.9673
vn -0.6965 -0.1726 0.6965
vn -0.9673 -0.1794 0.1794
vn -0.1794 0.1794 0.9673
vn -0.1726 0.6965 0.6965
vn -0.5774 0.5773 0.5774
vn -0.6965 0.1726 0.6965
vn -0.1794 0.9673 0.1794
vn -0.6965 0.6965 0.1726
vn -0.9673 0.1794 0.1794
vn -0.1794 -0.9673 -0.1794
vn -0.6965 -0.6965 -0.1726
vn -0.5773 -0.5774 -0.5773
vn -0.1726 -0.6965 -0.6965
vn -0.9673 -0.1794 -0.1794
vn -0.6965 -0.1726 -0.6965
vn -0.1794 -0.1794 -0.9673
vn -0.1794 0.9673 -0.1794
vn -0.1726 0.6965 -0.6965
vn -0.5774 0.5773 -0.5774
vn -0.6965 0.6965 -0.1726
vn -0.1794 0.1794 -0.9673
vn -0.6965 0.1726 -0.6965
vn -0.9673 0.1794 -0.1794
vn 0.1794 -0.9673 0.1794
vn 0.6965 -0.6965 0.1726
vn 0.5773 -0.5774 0.5773
vn 0.1726 -0.6965 0.6965
vn 0.9673 -0.1794 0.1794
vn 0.6965 -0.1726 0.6965
vn 0.1794 -0.1794 0.9673
vn 0.1794 0.9673 0.1794
vn 0.1726 0.6965 0.6965
vn 0.5774 0.5773 0.5774
vn 0.6965 0.6965 0.1726
vn 0.1794 0.1794 0.9673
vn 0.6965 0.1726 0.6965
vn 0.9673 0.1794 0.1794
vn 0.1794 -0.9673 -0.1794
vn 0.1726 -0.6965 -0.6965
vn 0.5773 -0.5774 -0.5773
vn 0.6965 -0.6965 -0.1726
vn 0.1794 -0.1794 -0.9673
vn 0.6965 -0.1726 -0.6965
vn 0.9673 -0.1794 -0.1794
vn 0.1794 0.9673 -0.1794
vn 0.6965 0.6965 -0.1726
vn 0.5774 0.5773 -0.5774
vn 0.1726 0.6965 -0.6965
vn 0.9673 0.1794 -0.1794
vn 0.6965 0.1726 -0.6965
vn 0.1794 0.1794 -0.9673
vn -0.0000 -0.8383 -0.5452
vn -0.0000 -0.4744 -0.8803
vn 0.6225 -0.4744 -0.6225
vn 0.3855 -0.8383 -0.3855
vn -0.0000 -0.0000 -1.0000
vn -0.0000 0.4744 -0.8803
vn 0.6225 0.4744 -0.6225
vn 0.7071 -0.0000 -0.7071
vn -0.0000 0.8383 -0.5452
vn 0.3855 0.8383 -0.3855
vn 0.8803 0.4744 -0.0000
vn 1.0000 -0.0000 -0.0000
vn 0.5452 0.8383 -0.0000
vn 0.5452 -0.8383 -0.0000
vn 0.8803 -0.4744 -0.0000
vn 0.3855 0.8383 0.3855
vn 0.3855 -0.8383 0.3855
vn 0.7071 -0.0000 0.7071
vn 0.6225 -0.4744 0.6225
vn 0.6225 0.4744 0.6225
vn -0.0000 -0.8383 0.5452
vn -0.0000 -0.0000 1.0000
vn -0.0000 -0.4744 0.8803
vn -0.0000 0.8383 0.5452
vn -0.0000 0.4744 0.8803
vn -0.3855 -0.8383 0.3855
vn -0.7071 -0.0000 0.7071
vn -0.6225 -0.4744 0.6225
vn -0.3855 0.8383 0.3855
vn -0.6225 0.4744 0.6225
vn -0.5452 -0.8383 -0.0000
vn -1.0000 -0.0000 -0.0000
vn -0.8803 -0.4744 -0.0000
vn -0.5452 0.8383 -0.0000
vn -0.8803 0.4744 -0.0000
vn -0.7071 -0.0000 -0.7071
vn -0.6225 -0.4744 -0.6225
vn -0.3855 0.8383 -0.3855
vn -0.6225 0.4744 -0.6225
vn -0.3855 -0.8383 -0.3855
s 1
f 2//1 3//2 1//3
f 3//2 4//4 1//3
f 4//4 5//5 1//3
f 5//5 6//6 1//3
f 6//6 7//7 1//3
f 7//7 8//8 1//3
f 8//8 9//9 1//3
f 9//9 10//10 1//3
f 10//10 11//11 1//3
f 11//11 12//12 1//3
f 12//12 13//13 1//3
f 13//13 14//14 1//3
f 14//14 15//15 1//3
f 15//15 16//16 1//3
f 16//16 17//17 1//3
f 17//17 18//18 1//3
f 18//18 19//19 1//3
f 19//19 20//20 1//3
f 20//20 21//21 1//3
f 21//21 22//22 1//3
f 22//22 23//23 1//3
f 23//23 24//24 1//3
f 24//24 25//25 1//3
f 25//25 26//26 1//3
f 26//26 27//27 1//3
f 27//27 28//28 1//3
f 28//28 29//29 1//3
f 29//29 2//1 1//3
f 31//30 3//2 2//1
f 30//31 31//30 2//1
f 32//32 4//4 3//2
f 31//30 32//32 3//2
f 33//33 5//5 4//4
f 32//32 33//33 4//4
f 34//34 6//6 5//5
f 33//33 34//34 5//5
f 35//35 7//7 6//6
f 34//34 35//35 6//6
f 36//36 8//8 7//7
f 35//35 36//36 7//7
f 37//37 9//9 8//8
f 36//36 37//37 8//8
f 38//38 10//10 9//9
f 37//37 38//38 9//9
f 39//39 11//11 10//10
f 38//38 39//39 10//10
f 40//40 12//12 11//11
f 39//39 40//40 11//11
f 41//41 13//13 12//12
f 40//40 41//41 12//12
f 42//42 14//14 13//13
f 41//41 42//42 13//13
f 43//43 15//15 14//14
f 42//42 43//43 14//14
f 44//44 16//16 15//15
f 43//43 44//44 15//15
f 45//45 17//17 16//16
f 44//44 45//45 16//16
f 46//46 18//18 17//17
f 45//45 46//46 17//17
f 47//47 19//19 18//18
f 46//46 47//47 18//18
f 48//48 20//20 19//19
f 47//47 48//48 19//19
f 49//49 21//21 20//20
f 48//48 49//49 20//20
f 50//50 22//22 21//21
f 49//49 50//50 21//21
f 51//51 23//23 22//22
f 50//50 51//51 22//22
f 52//52 24//24 23//23
f 51//51 52//52 23//23
f 53//53 25//25 24//24
f 52//52 53//53 24//24
f 54//54 26//26 25//25
f 53//53 54//54 25//25
f 55//55 27//27 26//26
f 54//54 55//55 26//26
f 56//56 28//28 27//27
f 55//55 56//56 27//27
f 57//57 29//29 28//28
f 56//56 57//57 28//28
f 30//31 2//1 29//29
f 57//57 30//31 29//29
f 59//58 31//30 30//31
f 58//59 59//58 30//31
f 60//60 32//32 31//30
f 59//58 60//60 31//30
f 61//61 33//33 32//32
f 60//60 61//61 32//32
f 62//62 34//34 33//33
f 61//61 62//62 33//33
f 63//63 35//35 34//34
f 62//62 63//63 34//34
f 64//64 36//36 35//35
f 63//63 64//64 35//35
f 65//65 37//37 36//36
f 64//64 65//65 36//36
f 66//66 38//38 37//37
f 65//65 66//66 37//37
f 67//67 39//39 38//38
f 66//66 67//67 38//38
f 68//68 40//40 39//39
f 67//67 68//68 39//39
f 69//69 41//41 40//40
f 68//68 69//69 40//40
f 70//70 42//42 41//41
f 69//69 70//70 41//41
f 71//71 43//43 42//42
f 70//70 71//71 42//42
f 72//72 44//44 43//43
f 71//71 72//72 43//43
f 73//73 45//45 44//44
f 72//72 73//73 44//44
f 74//74 46//46 45//45
f 73//73 74//74 45//45
f 75//75 47//47 46//46
f 74//74 75//75 46//46
f 76//76 48//48 47//47
f 75//75 76//76 47//47
f 77//77 49//49 48//48
f 76//76 77//77 48//48
f 78//78 50//50 49//49
f 77//77 78//78 49//49
f 79//79 51//51 50//50
f 78//78 79//79 50//50
f 80//80 52//52 51//51
f 79//79 80//80 51//51
f 81//81 53//53 52//52
f 80//80 81//81 52//52
f 82//82 54//54 53//53
f 81//81 82//82 53//53
f 83//83 55//55 54//54
f 82//82 83//83 54//54
f 84//84 56//56 55//55
f 83//83 84//84 55//55
f 85//85 57//57 56//56
f 84//84 85//85 56//56
f 58//59 30//31 57//57
f 85//85 58//59 57//57
f 87//86 59//58 58//59
f 86//87 87//86 58//59
f 88//88 60//60 59//58
f 87//86 88//88 59//58
f 89//89 61//61 60//60
f 88//88 89//89 60//60
f 90//90 62//62 61//61
f 89//89 90//90 61//61
f 91//91 63//63 62//62
f 90//90 91//91 62//62
f 92//92 64//64 63//63
f 91//91 92//92 63//63
f 93//93 65//65 64//64
f 92//92 93//93 64//64
f 94//94 66//66 65//65
f 93//93 94//94 65//65
f 95//95 67//67 66//66
f 94//94 95//95 66//66
f 96//96 68//68 67//67
f 95//95 96//96 67//67
f 97//97 69//69 68//68
f 96//96 97//97 68//68
f 98//98 70//70 69//69
f 97//97 98//98 69//69
f 99//99 71//71 70//70
f 98//98 99//99 70//70
f 100//100 72//72 71//71
f 99//99 100//100 71//71
f 101//101 73//73 72//72
f 100//100 101//101 72//72
f 102//102 74//74 73//73
f 101//101 102//102 73//73
f 103//103 75//75 74//74
f 102//102 103//103 74//74
f 104//104 76//76 75//75
f 103//103 104//104 75//75
f 105//105 77//77 76//76
f 104//104 105//105 76//76
f 106//106 78//78 77//77
f 105//105 106//106 77//77
f 107//107 79//79 78//78
f 106//106 107//107 78//78
f 108//108 80//80 79//79
f 107//107 108//108 79//79
f 109//109 81//81 80//80
f 108//108 109//109 80//80
f 110//110 82//82 81//81
f 109//109 110//110 81//81
f 111//111 83//83 82//82
f 110//110 111//111 82//82
f 112//112 84//84 83//83
f 111//111 112//112 83//83
f 113//113 85//85 84//84
f 112//112 113//113 84//84
f 86//87 58//59 85//85
f 113//113 86//87 85//85
f 115//114 87//86 86//87
f 114//115 115//114 86//87
f 116//116 88//88 87//86
f 115//114 116//116 87//86
f 117//117 89//89 88//88
f 116//116 117//117 88//88
f 118//118 90//90 89//89
f 117//117 118//118 89//89
f 119//119 91//91 90//90
f 118//118 119//119 90//90
f 120//120 92//92 91//91
f 119//119 120//120 91//91
f 121//121 93//93 92//92
f 120//120 121//121 92//92
f 122//122 94//94 93//93
f 121//121 122//122 93//93
f 123//123 95//95 94//94
f 122//122 123//123 94//94
f 124//124 96//96 95//95
f 123//123 124//124 95//95
f 125//125 97//97 96//96
f 124//124 125//125 96//96
f 126//126 98//98 97//97
f 125//125 126//126 97//97
f 127//127 99//99 98//98
f 126//126 127//127 98//98
f 128//128 100//100 99//99
f 127//127 128//128 99//99
f 129//129 101//101 100//100
f 128//128 129//129 100//100
f 130//130 102//102 101//101
f 129//129 130//130 101//101
f 131//131 103//103 102//102
f 130//130 131//131 102//102
f 132//132 104//104 103//103
f 131//131 132//132 103//103
f 133//133 105//105 104//104
f 132//132 133//133 104//104
f 134//134 106//106 105//105
f 133//133 134//134 105//105
f 135//135 107//107 106//106
f 134//134 135//135 106//106
f 136//136 108//108 107//107
f 135//135 136//136 107//107
f 137//137 109//109 108//108
f 136//136 137//137 108//108
f 138//138 110//110 109//109
f 137//137 138//138 109//109
f 139//139 111//111 110//110
f 138//138 139//139 110//110
f 140//140 112//112 111//111
f 139//139 140//140 111//111
f 141//141 113//113 112//112
f 140//140 141//141 112//112
f 114//115 86//87 113//113
f 141//141 114//115 113//113
f 143//142 115//114 114//115
f 142//143 143//142 114//115
f 144//144 116//116 115//114
f 143//142 144//144 115//114
f 145//145 117//117 116//116
f 144//144 145//145 116//116
f 146//146 118//118 117//117
f 145//145 146//146 117//117
f 147//147 119//119 118//118
f 146//146 147//147 118//118
f 148//148 120//120 119//119
f 147//147 148//148 119//119
f 149//149 121//121 120//120
f 148//148 149//149 120//120
f 150//150 122//122 121//121
f 149//149 150//150 121//121
f 151//151 123//123 122//122
f 150//150 151//151 122//122
f 152//152 124//124 123//123
f 151//151 152//152 123//123
f 153//153 125//125 124//124
f 152//152 153//153 124//124
f 154//154 126//126 125//125
f 153//153 154//154 125//125
f 155//155 127//127 126//126
f 154//154 155//155 126//126
f 156//156 128//128 127//127
f 155//155 156//156 127//127
f 157//157 129//129 128//128
f 156//156 157//157 128//128
f 158//158 130//130 129//129
f 157//157 158//158 129//129
f 159//159 131//131 130//130
f 158//158 159//159 130//130
f 160//160 132//132 131//131
f 159//159 160//160 131//131
f 161//161 133//133 132//132
f 160//160 161//161 132//132
f 162//162 134//134 133//133
f 161//161 162//162 133//133
f 163//163 135//135 134//134
f 162//162 163//163 134//134
f 164//164 136//136 135//135
f 163//163 164//164 135//135
f 165//165 137//137 136//136
f 164//164 165//165 136//136
f 166//166 138//138 137//137
f 165//165 166//166 137//137
f 167//167 139//139 138//138
f 166//166 167//167 138//138
f 168//168 140//140 139//139
f 167//167 168//168 139//139
f 169//169 141//141 140//140
f 168//168 169//169 140//140
f 142//143 114//115 141//141
f 169//169 142//143 141//141
f 170//170 143//142 142//143
f 170//170 144//144 143//142
f 170//170 145//145 144//144
f 170//170 146//146 145//145
f 170//170 147//147 146//146
f 170//170 148//148 147//147
f 170//170 149//149 148//148
f 170//170 150//150 149//149
f 170//170 151//151 150//150
f 170//170 152//152 151//151
f 170//170 153//153 152//152
f 170//170 154//154 153//153
f 170//170 155//155 154//154
f 170//170 156//156 155//155
f 170//170 157//157 156//156
f 170//170 158//158 157//157
f 170//170 159//159 158//158
f 170//170 160//160 159//159
f 170//170 161//161 160//160
f 170//170 162//162 161//161
f 170//170 163//163 162//162
f 170//170 164//164 163//163
f 170//170 165//165 164//164
f 170//170 166//166 165//165
f 170//170 167//167 166//166
f 170//170 168//168 167//167
f 170//170 169//169 168//168
f 170//170 142//143 169//169
f 171//171 174//172 175//173 177//174
f 172//175 176//176 175//173 174//172
f 173//177 177//174 175//173 176//176
f 178//178 181//179 182//180 184//181
f 179//182 183//183 182//180 181//179
f 180//184 184//181 182//180 183//183
f 185//185 188//186 189//187 191//188
f 186//189 190//190 189//187 188//186
f 187//191 191//188 189//187 190//190
f 192//192 195//193 196//194 198//195
f 193//196 197//197 196//194 195//193
f 194//198 198//195 196//194 197//197
f 199//199 202//200 203//201 205//202
f 200//203 204//204 203//201 202//200
f 201//205 205//202 203//201 204//204
f 206//206 209//207 210//208 212//209
f 207//210 211//211 210//208 209//207
f 208//212 212//209 210//208 211//211
f 213//213 216//214 217//215 219//216
f 214//217 218//218 217//215 216//214
f 215//219 219//216 217//215 218//218
f 220//220 223//221 224//222 226//223
f 221//224 225//225 224//222 223//221
f 222//226 226//223 224//222 225//225
f 185//185 171//171 177//174 188//186
f 188//186 177//174 173//177 186//189
f 172//175 178//178 184//181 176//176
f 176//176 184//181 180//184 173//177
f 179//182 192//192 198//195 183//183
f 183//183 198//195 194//198 180//184
f 193//196 187//191 190//190 197//197
f 197//197 190//190 186//189 194//198
f 213//213 185//185 191//188 216//214
f 216//214 191//188 187//191 214//217
f 192//192 220//220 226//223 195//193
f 195//193 226//223 222//226 193//196
f 221//224 215//219 218//218 225//225
f 225//225 218//218 214//217 222//226
f 199//199 213//213 219//216 202//200
f 202//200 219//216 215//219 200//203
f 220//220 206//206 212//209 223//221
f 223//221 212//209 208//212 221//224
f 207//210 201//205 204//204 211//211
f 211//211 204//204 200//203 208//212
f 171//171 199//199 205//202 174//172
f 174//172 205//202 201//205 172//175
f 206//206 179//182 181//179 209//207
f 209//207 181//179 178//178 207//210
f 185//185 213//213 199//199 171//171
f 173//177 180//184 194//198 186//189
f 201//205 207//210 178//178 172//175
f 220//220 192//192 179//182 206//206
f 187//191 193//196 222//226 214//217
f 215//219 221//224 208//212 200//203
f 232//227 231//228 237//229 238//230
f 230//231 229//232 235//233 236//234
f 228//235 227//170 234//236
f 233//3 232//227 238//230
f 231//228 230//231 236//234 237//229
f 229//232 228//235 234//236 235//233
f 236//234 235//233 240//237 241//238
f 234//236 227//170 239//239
f 233//3 238//230 243//240
f 237//229 236//234 241//238 242//241
f 235//233 234//236 239//239 240//237
f 238//230 237//229 242//241 243//240
f 239//239 227//170 244//242
f 233//3 243//240 248//243
f 242//241 241//238 246//244 247//245
f 240//237 239//239 244//242 245//246
f 243//240 242//241 247//245 248//243
f 241//238 240//237 245//246 246//244
f 233//3 248//243 253//247
f 247//245 246//244 251//248 252//249
f 245//246 244//242 249//250 250//251
f 248//243 247//245 252//249 253//247
f 246//244 245//246 250//251 251//248
f 244//242 227//170 249//250
f 233//3 253//247 258//252
f 252//249 251//248 256//253 257//254
f 250//251 249//250 254//255 255//256
f 253//247 252//249 257//254 258//252
f 251//248 250//251 255//256 256//253
f 249//250 227//170 254//255
f 233//3 258//252 263//257
f 257//254 256//253 261//258 262//259
f 255//256 254//255 259//260 260//261
f 258//252 257//254 262//259 263//257
f 256//253 255//256 260//261 261//258
f 254//255 227//170 259//260
f 262//259 261//258 266//262 267//263
f 260//261 259//260 264//264 265//265
f 263//257 262//259 267//263 268//266
f 261//258 260//261 265//265 266//262
f 259//260 227//170 264//264
f 233//3 263//257 268//266
f 265//265 264//264 228//235 229//232
f 268//266 267//263 231//228 232//227
f 266//262 265//265 229//232 230//231
f 264//264 227//170 228//235
f 233//3 268//266 232//227
f 267//263 266//262 230//231 231//228
f 275//3 274//227 280//230
f 273//228 272//231 278//234 279//229
f 271//232 270//235 276//236 277//233
f 274//227 273//228 279//229 280//230
f 272//231 271//232 277//233 278//234
f 270//235 269//170 276//236
f 279//229 278//234 283//238 284//241
f 277//233 276//236 281//239 282//237
f 280//230 279//229 284//241 285//240
f 278//234 277//233 282//237 283//238
f 276//236 269//170 281//239
f 275//3 280//230 285//240
f 282//237 281//239 286//242 287//246
f 285//240 284//241 289//245 290//243
f 283//238 282//237 287//246 288//244
f 281//239 269//170 286//242
f 275//3 285//240 290//243
f 284//241 283//238 288//244 289//245
f 290//243 289//245 294//249 295//247
f 288//244 287//246 292//251 293//248
f 286//242 269//170 291//250
f 275//3 290//243 295//247
f 289//245 288//244 293//248 294//249
f 287//246 286//242 291//250 292//251
f 295//247 294//249 299//254 300//252
f 293//248 292//251 297//256 298//253
f 291//250 269//170 296//255
f 275//3 295//247 300//252
f 294//249 293//248 298//253 299//254
f 292//251 291//250 296//255 297//256
f 300//252 299//254 304//259 305//257
f 298//253 297//256 302//261 303//258
f 296//255 269//170 301//260
f 275//3 300//252 305//257
f 299//254 298//253 303//258 304//259
f 297//256 296//255 301//260 302//261
f 305//257 304//259 309//263 310//266
f 303//258 302//261 307//265 308//262
f 301//260 269//170 306//264
f 275//3 305//257 310//266
f 304//259 303//258 308//262 309//263
f 302//261 301//260 306//264 307//265
f 308//262 307//265 271//232 272//231
f 306//264 269//170 270//235
f 275//3 310//266 274//227
f 309//263 308//262 272//231 273//228
f 307//265 306//264 270//235 271//232
f 310//266 309//263 273//228 274//227
f 316//227 315//228 321//229 322//230
f 314//231 313//232 319//233 320//234
f 312//235 311//170 318//236
f 317//3 316//227 322//230
f 315//228 314//231 320//234 321//229
f 313//232 312//235 318//236 319//233
f 322//230 321//229 326//241 327//240
f 320//234 319//233 324//237 325//238
f 318//236 311//170 323//239
f 317//3 322//230 327//240
f 321//229 320//234 325//238 326//241
f 319//233 318//236 323//239 324//237
f 325//238 324//237 329//246 330//244
f 323//239 311//170 328//242
f 317//3 327//240 332//243
f 326//241 325//238 330//244 331//245
f 324//237 323//239 328//242 329//246
f 327//240 326//241 331//245 332//243
f 328//242 311//170 333//250
f 317//3 332//243 337//247
f 331//245 330//244 335//248 336//249
f 329//246 328//242 333//250 334//251
f 332//243 331//245 336//249 337//247
f 330//244 329//246 334//251 335//248
f 317//3 337//247 342//252
f 336//249 335//248 340//253 341//254
f 334//251 333//250 338//255 339//256
f 337//247 336//249 341//254 342//252
f 335//248 334//251 339//256 340//253
f 333//250 311//170 338//255
f 317//3 342//252 347//257
f 341//254 340//253 345//258 346//259
f 339//256 338//255 343//260 344//261
f 342//252 341//254 346//259 347//257
f 340//253 339//256 344//261 345//258
f 338//255 311//170 343//260
f 317//3 347//257 352//266
f 346//259 345//258 350//262 351//263
f 344//261 343//260 348//264 349//265
f 347//257 346//259 351//263 352//266
f 345//258 344//261 349//265 350//262
f 343//260 311//170 348//264
f 351//263 350//262 314//231 315//228
f 349//265 348//264 312//235 313//232
f 352//266 351//263 315//228 316//227
f 350//262 349//265 313//232 314//231
f 348//264 311//170 312//235
f 317//3 352//266 316//227
f 354//235 353//170 360//236
f 359//3 358//227 364//230
f 357//228 356//231 362//234 363//229
f 355//232 354//235 360//236 361//233
f 358//227 357//228 363//229 364//230
f 356//231 355//232 361//233 362//234
f 359//3 364//230 369//240
f 363//229 362//234 367//238 368//241
f 361//233 360//236 365//239 366//237
f 364//230 363//229 368//241 369//240
f 362//234 361//233 366//237 367//238
f 360//236 353//170 365//239
f 368//241 367//238 372//244 373//245
f 366//237 365//239 370//242 371//246
f 369//240 368//241 373//245 374//243
f 367//238 366//237 371//246 372//244
f 365//239 353//170 370//242
f 359//3 369//240 374//243
f 371//246 370//242 375//250 376//251
f 374//243 373//245 378//249 379//247
f 372//244 371//246 376//251 377//248
f 370//242 353//170 375//250
f 359//3 374//243 379//247
f 373//245 372//244 377//248 378//249
f 379//247 378//249 383//254 384//252
f 377//248 376//251 381//256 382//253
f 375//250 353//170 380//255
f 359//3 379//247 384//252
f 378//249 377//248 382//253 383//254
f 376//251 375//250 380//255 381//256
f 384//252 383//254 388//259 389//257
f 382//253 381//256 386//261 387//258
f 380//255 353//170 385//260
f 359//3 384//252 389//257
f 383//254 382//253 387//258 388//259
f 381//256 380//255 385//260 386//261
f 389//257 388//259 393//263 394//266
f 387//258 386//261 391//265 392//262
f 385//260 353//170 390//264
f 359//3 389//257 394//266
f 388//259 387//258 392//262 393//263
f 386//261 385//260 390//264 391//265
f 394//266 393//263 357//228 358//227
f 392//262 391//265 355//232 356//231
f 390//264 353//170 354//235
f 359//3 394//266 358//227
f 393//263 392//262 356//231 357//228
f 391//265 390//264 354//235 355//232
f 401//3 400//227 406//230
f 399//228 398//231 404//234 405//229
f 397//232 396//235 402//236 403//233
f 400//227 399//228 405//229 406//230
f 398//231 397//232 403//233 404//234
f 396//235 395//170 402//236
f 405//229 404//234 409//238 410//241
f 403//233 402//236 407//239 408//237
f 406//230 405//229 410//241 411//240
f 404//234 403//233 408//237 409//238
f 402//236 395//170 407//239
f 401//3 406//230 411//240
f 408//237 407//239 412//242 413//246
f 411//240 410//241 415//245 416//243
f 409//238 408//237 413//246 414//244
f 407//239 395//170 412//242
f 401//3 411//240 416//243
f 410//241 409//238 414//244 415//245
f 416//243 415//245 420//249 421//247
f 414//244 413//246 418//251 419//248
f 412//242 395//170 417//250
f 401//3 416//243 421//247
f 415//245 414//244 419//248 420//249
f 413//246 412//242 417//250 418//251
f 421//247 420//249 425//254 426//252
f 419//248 418//251 423//256 424//253
f 417//250 395//170 422//255
f 401//3 421//247 426//252
f 420//249 419//248 424//253 425//254
f 418//251 417//250 422//255 423//256
f 426//252 425//254 430//259 431//257
f 424//253 423//256 428//261 429//258
f 422//255 395//170 427//260
f 401//3 426//252 431//257
f 425//254 424//253 429//258 430//259
f 423//256 422//255 427//260 428//261
f 431//257 430//259 435//263 436//266
f 429//258 428//261 433//265 434//262
f 427//260 395//170 432//264
f 401//3 431//257 436//266
f 430//259 429//258 434//262 435//263
f 428//261 427//260 432//264 433//265
f 434//262 433//265 397//232 398//231
f 432//264 395//170 396//235
f 401//3 436//266 400//227
f 435//263 434//262 398//231 399//228
f 433//265 432//264 396//235 397//232
f 436//266 435//263 399//228 400//227
f 442//227 441//228 447//229 448//230
f 440//231 439//232 445//233 446//234
f 438//235 437//170 444//236
f 443//3 442//227 448//230
f 441//228 440//231 446//234 447//229
f 439//232 438//235 444//236 445//233
f 448//230 447//229 452//241 453//240
f 446//234 445//233 450//237 451//238
f 444//236 437//170 449//239
f 443//3 448//230 453//240
f 447//229 446//234 451//238 452//241
f 445//233 444//236 449//239 450//237
f 451//238 450//237 455//246 456//244
f 449//239 437//170 454//242
f 443//3 453//240 458//243
f 452//241 451//238 456//244 457//245
f 450//237 449//239 454//242 455//246
f 453//240 452//241 457//245 458//243
f 454//242 437//170 459//250
f 443//3 458//243 463//247
f 457//245 456//244 461//248 462//249
f 455//246 454//242 459//250 460//251
f 458//243 457//245 462//249 463//247
f 456//244 455//246 460//251 461//248
f 443//3 463//247 468//252
f 462//249 461//248 466//253 467//254
f 460//251 459//250 464//255 465//256
f 463//247 462//249 467//254 468//252
f 461//248 460//251 465//256 466//253
f 459//250 437//170 464//255
f 443//3 468//252 473//257
f 467//254 466//253 471//258 472//259
f 465//256 464//255 469//260 470//261
f 468//252 467//254 472//259 473//257
f 466//253 465//256 470//261 471//258
f 464//255 437//170 469//260
f 443//3 473//257 478//266
f 472//259 471//258 476//262 477//263
f 470//261 469//260 474//264 475//265
f 473//257 472//259 477//263 478//266
f 471//258 470//261 475//265 476//262
f 469//260 437//170 474//264
f 477//263 476//262 440//231 441//228
f 475//265 474//264 438//235 439//232
f 478//266 477//263 441//228 442//227
f 476//262 475//265 439//232 440//231
f 474//264 437//170 438//235
f 443//3 478//266 442//227
