# Blender 5.2.2 LTS
# www.blender.org
o NebulaClicky
v 0.000000 0.000000 0.000000
v 1.100000 0.000000 0.836000
v 1.091002 0.000000 0.904332
v 1.064624 0.000000 0.968000
v 1.022670 0.000000 1.022670
v 0.968000 0.000000 1.064624
v 0.904332 0.000000 1.091002
v 0.836000 0.000000 1.100000
v -0.836000 0.000000 1.100000
v -0.904332 0.000000 1.091002
v -0.968000 0.000000 1.064624
v -1.022670 0.000000 1.022670
v -1.064624 0.000000 0.968000
v -1.091002 0.000000 0.904332
v -1.100000 0.000000 0.836000
v -1.100000 0.000000 -0.836000
v -1.091002 0.000000 -0.904332
v -1.064624 0.000000 -0.968000
v -1.022670 0.000000 -1.022670
v -0.968000 0.000000 -1.064624
v -0.904332 0.000000 -1.091002
v -0.836000 0.000000 -1.100000
v 0.836000 0.000000 -1.100000
v 0.904332 0.000000 -1.091002
v 0.968000 0.000000 -1.064624
v 1.022670 0.000000 -1.022670
v 1.064624 0.000000 -0.968000
v 1.091002 0.000000 -0.904332
v 1.100000 0.000000 -0.836000
v 0.979000 0.607200 0.671000
v 0.968506 0.607200 0.750706
v 0.937728 0.607200 0.825000
v 0.888778 0.607200 0.888778
v 0.825000 0.607200 0.937728
v 0.750706 0.607200 0.968506
v 0.671000 0.607200 0.979000
v -0.671000 0.607200 0.979000
v -0.750706 0.607200 0.968506
v -0.825000 0.607200 0.937728
v -0.888778 0.607200 0.888778
v -0.937728 0.607200 0.825000
v -0.968506 0.607200 0.750706
v -0.979000 0.607200 0.671000
v -0.979000 0.607200 -0.671000
v -0.968506 0.607200 -0.750706
v -0.937728 0.607200 -0.825000
v -0.888778 0.607200 -0.888778
v -0.825000 0.607200 -0.937728
v -0.750706 0.607200 -0.968506
v -0.671000 0.607200 -0.979000
v 0.671000 0.607200 -0.979000
v 0.750706 0.607200 -0.968506
v 0.825000 0.607200 -0.937728
v 0.888778 0.607200 -0.888778
v 0.937728 0.607200 -0.825000
v 0.968506 0.607200 -0.750706
v 0.979000 0.607200 -0.671000
v 0.858000 1.232000 0.506000
v 0.846010 1.232000 0.597102
v 0.810832 1.232000 0.682000
v 0.754908 1.232000 0.754908
v 0.682000 1.232000 0.810832
v 0.597102 1.232000 0.846010
v 0.506000 1.232000 0.858000
v -0.506000 1.232000 0.858000
v -0.597102 1.232000 0.846010
v -0.682000 1.232000 0.810832
v -0.754908 1.232000 0.754908
v -0.810832 1.232000 0.682000
v -0.846010 1.232000 0.597102
v -0.858000 1.232000 0.506000
v -0.858000 1.232000 -0.506000
v -0.846010 1.232000 -0.597102
v -0.810832 1.232000 -0.682000
v -0.754908 1.232000 -0.754908
v -0.682000 1.232000 -0.810832
v -0.597102 1.232000 -0.846010
v -0.506000 1.232000 -0.858000
v 0.506000 1.232000 -0.858000
v 0.597102 1.232000 -0.846010
v 0.682000 1.232000 -0.810832
v 0.754908 1.232000 -0.754908
v 0.810832 1.232000 -0.682000
v 0.846010 1.232000 -0.597102
v 0.858000 1.232000 -0.506000
v 0.770000 1.320000 0.462000
v 0.759506 1.320000 0.541706
v 0.728728 1.320000 0.616000
v 0.679778 1.320000 0.679778
v 0.616000 1.320000 0.728728
v 0.541706 1.320000 0.759506
v 0.462000 1.320000 0.770000
v -0.462000 1.320000 0.770000
v -0.541706 1.320000 0.759506
v -0.616000 1.320000 0.728728
v -0.679778 1.320000 0.679778
v -0.728728 1.320000 0.616000
v -0.759506 1.320000 0.541706
v -0.770000 1.320000 0.462000
v -0.770000 1.320000 -0.462000
v -0.759506 1.320000 -0.541706
v -0.728728 1.320000 -0.616000
v -0.679778 1.320000 -0.679778
v -0.616000 1.320000 -0.728728
v -0.541706 1.320000 -0.759506
v -0.462000 1.320000 -0.770000
v 0.462000 1.320000 -0.770000
v 0.541706 1.320000 -0.759506
v 0.616000 1.320000 -0.728728
v 0.679778 1.320000 -0.679778
v 0.728728 1.320000 -0.616000
v 0.759506 1.320000 -0.541706
v 0.770000 1.320000 -0.462000
v 0.554400 1.245838 0.300960
v 0.545754 1.245838 0.366564
v 0.520454 1.245838 0.427680
v 0.480172 1.245838 0.480172
v 0.427680 1.245838 0.520454
v 0.366564 1.245838 0.545754
v 0.300960 1.245838 0.554400
v -0.300960 1.245838 0.554400
v -0.366564 1.245838 0.545754
v -0.427680 1.245838 0.520454
v -0.480172 1.245838 0.480172
v -0.520454 1.245838 0.427680
v -0.545754 1.245838 0.366564
v -0.554400 1.245838 0.300960
v -0.554400 1.245838 -0.300960
v -0.545754 1.245838 -0.366564
v -0.520454 1.245838 -0.427680
v -0.480172 1.245838 -0.480172
v -0.427680 1.245838 -0.520454
v -0.366564 1.245838 -0.545754
v -0.300960 1.245838 -0.554400
v 0.300960 1.245838 -0.554400
v 0.366564 1.245838 -0.545754
v 0.427680 1.245838 -0.520454
v 0.480172 1.245838 -0.480172
v 0.520454 1.245838 -0.427680
v 0.545754 1.245838 -0.366564
v 0.554400 1.245838 -0.300960
v 0.323400 1.193170 0.175560
v 0.318362 1.193170 0.213818
v 0.303600 1.193170 0.249480
v 0.280104 1.193170 0.280104
v 0.249480 1.193170 0.303600
v 0.213818 1.193170 0.318362
v 0.175560 1.193170 0.323400
v -0.175560 1.193170 0.323400
v -0.213818 1.193170 0.318362
v -0.249480 1.193170 0.303600
v -0.280104 1.193170 0.280104
v -0.303600 1.193170 0.249480
v -0.318362 1.193170 0.213818
v -0.323400 1.193170 0.175560
v -0.323400 1.193170 -0.175560
v -0.318362 1.193170 -0.213818
v -0.303600 1.193170 -0.249480
v -0.280104 1.193170 -0.280104
v -0.249480 1.193170 -0.303600
v -0.213818 1.193170 -0.318362
v -0.175560 1.193170 -0.323400
v 0.175560 1.193170 -0.323400
v 0.213818 1.193170 -0.318362
v 0.249480 1.193170 -0.303600
v 0.280104 1.193170 -0.280104
v 0.303600 1.193170 -0.249480
v 0.318362 1.193170 -0.213818
v 0.323400 1.193170 -0.175560
v 0.000000 1.166000 -0.000000
v -0.310000 1.300000 0.150000
v -0.310000 1.340000 0.190000
v -0.350000 1.340000 0.150000
v -0.310000 1.311716 0.178284
v -0.333094 1.316906 0.173094
v -0.338284 1.340000 0.178284
v -0.338284 1.311716 0.150000
v -0.310000 1.360000 0.190000
v -0.310000 1.400000 0.150000
v -0.350000 1.360000 0.150000
v -0.310000 1.388284 0.178284
v -0.333094 1.383094 0.173094
v -0.338284 1.388284 0.150000
v -0.338284 1.360000 0.178284
v -0.310000 1.300000 -0.050000
v -0.350000 1.340000 -0.050000
v -0.310000 1.340000 -0.090000
v -0.338284 1.311716 -0.050000
v -0.333094 1.316906 -0.073094
v -0.338284 1.340000 -0.078284
v -0.310000 1.311716 -0.078284
v -0.310000 1.400000 -0.050000
v -0.310000 1.360000 -0.090000
v -0.350000 1.360000 -0.050000
v -0.310000 1.388284 -0.078284
v -0.333094 1.383094 -0.073094
v -0.338284 1.360000 -0.078284
v -0.338284 1.388284 -0.050000
v 0.310000 1.300000 0.150000
v 0.350000 1.340000 0.150000
v 0.310000 1.340000 0.190000
v 0.338284 1.311716 0.150000
v 0.333094 1.316906 0.173094
v 0.338284 1.340000 0.178284
v 0.310000 1.311716 0.178284
v 0.310000 1.400000 0.150000
v 0.310000 1.360000 0.190000
v 0.350000 1.360000 0.150000
v 0.310000 1.388284 0.178284
v 0.333094 1.383094 0.173094
v 0.338284 1.360000 0.178284
v 0.338284 1.388284 0.150000
v 0.310000 1.300000 -0.050000
v 0.310000 1.340000 -0.090000
v 0.350000 1.340000 -0.050000
v 0.310000 1.311716 -0.078284
v 0.333094 1.316906 -0.073094
v 0.338284 1.340000 -0.078284
v 0.338284 1.311716 -0.050000
v 0.310000 1.400000 -0.050000
v 0.350000 1.360000 -0.050000
v 0.310000 1.360000 -0.090000
v 0.338284 1.388284 -0.050000
v 0.333094 1.383094 -0.073094
v 0.338284 1.360000 -0.078284
v 0.310000 1.388284 -0.078284
v 0.000000 1.840000 0.000000
v 0.000000 1.716537 -0.184776
v 0.000000 1.455224 -0.076537
v 0.000000 1.440000 0.000000
v 0.038268 1.824776 -0.066283
v 0.070711 1.781421 -0.122474
v 0.092388 1.716537 -0.160021
v 0.100000 1.640000 -0.173205
v 0.092388 1.563463 -0.160021
v 0.070711 1.498579 -0.122474
v 0.038268 1.455224 -0.066283
v 0.066283 1.824776 -0.038268
v 0.122474 1.781421 -0.070711
v 0.160021 1.716537 -0.092388
v 0.173205 1.640000 -0.100000
v 0.160021 1.563463 -0.092388
v 0.122474 1.498579 -0.070711
v 0.066283 1.455224 -0.038268
v 0.076537 1.824776 0.000000
v 0.141421 1.781421 0.000000
v 0.184776 1.716537 0.000000
v 0.200000 1.640000 0.000000
v 0.184776 1.563463 0.000000
v 0.141421 1.498579 0.000000
v 0.076537 1.455224 0.000000
v 0.066283 1.824776 0.038268
v 0.122474 1.781421 0.070711
v 0.160021 1.716537 0.092388
v 0.173205 1.640000 0.100000
v 0.160021 1.563463 0.092388
v 0.122474 1.498579 0.070711
v 0.066283 1.455224 0.038268
v 0.038268 1.824776 0.066283
v 0.070711 1.781421 0.122474
v 0.092388 1.716537 0.160021
v 0.100000 1.640000 0.173205
v 0.092388 1.563463 0.160021
v 0.070711 1.498579 0.122474
v 0.038268 1.455224 0.066283
v -0.000000 1.824776 0.076537
v -0.000000 1.781421 0.141421
v -0.000000 1.716537 0.184776
v -0.000000 1.640000 0.200000
v -0.000000 1.563463 0.184776
v -0.000000 1.498579 0.141421
v -0.000000 1.455224 0.076537
v -0.038268 1.824776 0.066283
v -0.070711 1.781421 0.122474
v -0.092388 1.716537 0.160021
v -0.100000 1.640000 0.173205
v -0.092388 1.563463 0.160021
v -0.070711 1.498579 0.122474
v -0.038268 1.455224 0.066283
v -0.066283 1.824776 0.038268
v -0.122474 1.781421 0.070711
v -0.160021 1.716537 0.092388
v -0.173205 1.640000 0.100000
v -0.160021 1.563463 0.092388
v -0.122474 1.498579 0.070711
v -0.066283 1.455224 0.038268
v -0.076537 1.824776 -0.000000
v -0.141421 1.781421 -0.000000
v -0.184776 1.716537 -0.000000
v -0.200000 1.640000 -0.000000
v -0.184776 1.563463 -0.000000
v -0.141421 1.498579 -0.000000
v -0.076537 1.455224 -0.000000
v -0.066283 1.824776 -0.038268
v -0.122474 1.781421 -0.070711
v -0.160021 1.716537 -0.092388
v -0.173205 1.640000 -0.100000
v -0.160021 1.563463 -0.092388
v -0.122474 1.498579 -0.070711
v -0.066283 1.455224 -0.038268
v -0.038268 1.824776 -0.066283
v -0.070711 1.781421 -0.122474
v -0.092388 1.716537 -0.160021
v -0.100000 1.640000 -0.173205
v -0.092388 1.563463 -0.160021
v -0.070711 1.498579 -0.122474
v -0.038268 1.455224 -0.066283
v 0.000000 1.824776 -0.076537
v 0.000000 1.781421 -0.141421
v 0.000000 1.640000 -0.200000
v 0.000000 1.563463 -0.184776
v 0.000000 1.498579 -0.141421
v 0.351033 1.750000 -0.191770
v 0.351033 1.530000 -0.191770
v 0.375776 1.741627 -0.225826
v 0.396752 1.717782 -0.254697
v 0.410768 1.682095 -0.273988
v 0.415689 1.640000 -0.280762
v 0.410768 1.597905 -0.273988
v 0.396752 1.562218 -0.254697
v 0.375776 1.538373 -0.225826
v 0.391068 1.741627 -0.204778
v 0.425008 1.717782 -0.215806
v 0.447686 1.682095 -0.223175
v 0.455649 1.640000 -0.225762
v 0.447686 1.597905 -0.223175
v 0.425008 1.562218 -0.215806
v 0.391068 1.538373 -0.204778
v 0.391068 1.741627 -0.178762
v 0.425008 1.717782 -0.167734
v 0.447686 1.682095 -0.160366
v 0.455649 1.640000 -0.157778
v 0.447686 1.597905 -0.160366
v 0.425008 1.562218 -0.167734
v 0.391068 1.538373 -0.178762
v 0.375776 1.741627 -0.157714
v 0.396752 1.717782 -0.128843
v 0.410768 1.682095 -0.109552
v 0.415689 1.640000 -0.102778
v 0.410768 1.597905 -0.109552
v 0.396752 1.562218 -0.128843
v 0.375776 1.538373 -0.157714
v 0.351033 1.741627 -0.149675
v 0.351033 1.717782 -0.113988
v 0.351033 1.682095 -0.090143
v 0.351033 1.640000 -0.081770
v 0.351033 1.597905 -0.090143
v 0.351033 1.562218 -0.113988
v 0.351033 1.538373 -0.149675
v 0.326290 1.741627 -0.157714
v 0.305314 1.717782 -0.128843
v 0.291298 1.682095 -0.109552
v 0.286377 1.640000 -0.102778
v 0.291298 1.597905 -0.109552
v 0.305314 1.562218 -0.128843
v 0.326290 1.538373 -0.157714
v 0.310998 1.741627 -0.178762
v 0.277058 1.717782 -0.167734
v 0.254380 1.682095 -0.160366
v 0.246417 1.640000 -0.157778
v 0.254380 1.597905 -0.160366
v 0.277058 1.562218 -0.167734
v 0.310998 1.538373 -0.178762
v 0.310998 1.741627 -0.204778
v 0.277058 1.717782 -0.215806
v 0.254380 1.682095 -0.223175
v 0.246417 1.640000 -0.225762
v 0.254380 1.597905 -0.223175
v 0.277058 1.562218 -0.215806
v 0.310998 1.538373 -0.204778
v 0.326290 1.741627 -0.225826
v 0.305314 1.717782 -0.254697
v 0.291298 1.682095 -0.273988
v 0.286377 1.640000 -0.280762
v 0.291298 1.597905 -0.273988
v 0.305314 1.562218 -0.254697
v 0.326290 1.538373 -0.225826
v 0.351033 1.741627 -0.233865
v 0.351033 1.717782 -0.269552
v 0.351033 1.682095 -0.293397
v 0.351033 1.640000 -0.301770
v 0.351033 1.597905 -0.293397
v 0.351033 1.562218 -0.269552
v 0.351033 1.538373 -0.233865
v -0.235400 1.730000 -0.323399
v -0.235400 1.703640 -0.387038
v -0.235400 1.576360 -0.387038
v -0.235400 1.550000 -0.323399
v -0.215156 1.723149 -0.351262
v -0.197994 1.703640 -0.374884
v -0.186527 1.674442 -0.390668
v -0.182500 1.640000 -0.396210
v -0.186527 1.605559 -0.390668
v -0.197994 1.576360 -0.374884
v -0.215156 1.556851 -0.351262
v -0.202645 1.723149 -0.334042
v -0.174876 1.703640 -0.343064
v -0.156321 1.674442 -0.349093
v -0.149805 1.640000 -0.351210
v -0.156321 1.605559 -0.349093
v -0.174876 1.576360 -0.343064
v -0.202645 1.556851 -0.334042
v -0.202645 1.723149 -0.312756
v -0.174876 1.703640 -0.303733
v -0.156321 1.674442 -0.297704
v -0.149805 1.640000 -0.295587
v -0.156321 1.605559 -0.297704
v -0.174876 1.576360 -0.303733
v -0.202645 1.556851 -0.312756
v -0.215156 1.723149 -0.295535
v -0.197994 1.703640 -0.271913
v -0.186527 1.674442 -0.256129
v -0.182500 1.640000 -0.250587
v -0.186527 1.605559 -0.256129
v -0.197994 1.576360 -0.271913
v -0.215156 1.556851 -0.295535
v -0.235400 1.723149 -0.288957
v -0.235400 1.703640 -0.259759
v -0.235400 1.674442 -0.240249
v -0.235400 1.640000 -0.233399
v -0.235400 1.605559 -0.240249
v -0.235400 1.576360 -0.259759
v -0.235400 1.556851 -0.288957
v -0.255645 1.723149 -0.295535
v -0.272807 1.703640 -0.271913
v -0.284274 1.674442 -0.256129
v -0.288301 1.640000 -0.250587
v -0.284274 1.605559 -0.256129
v -0.272807 1.576360 -0.271913
v -0.255645 1.556851 -0.295535
v -0.268156 1.723149 -0.312756
v -0.295925 1.703640 -0.303733
v -0.314480 1.674442 -0.297704
v -0.320996 1.640000 -0.295587
v -0.314480 1.605559 -0.297704
v -0.295925 1.576360 -0.303733
v -0.268156 1.556851 -0.312756
v -0.268156 1.723149 -0.334042
v -0.295925 1.703640 -0.343064
v -0.314480 1.674442 -0.349093
v -0.320996 1.640000 -0.351210
v -0.314480 1.605559 -0.349093
v -0.295925 1.576360 -0.343064
v -0.268156 1.556851 -0.334042
v -0.255645 1.723149 -0.351262
v -0.272807 1.703640 -0.374884
v -0.284274 1.674442 -0.390668
v -0.288301 1.640000 -0.396210
v -0.284274 1.605559 -0.390668
v -0.272807 1.576360 -0.374884
v -0.255645 1.556851 -0.351262
v -0.235400 1.723149 -0.357840
v -0.235400 1.674442 -0.406548
v -0.235400 1.640000 -0.413399
v -0.235400 1.605559 -0.406548
v -0.235400 1.556851 -0.357840
v -0.261457 1.720000 0.302721
v -0.261457 1.670615 0.228811
v -0.261457 1.640000 0.222721
v -0.261457 1.609385 0.228811
v -0.261457 1.560000 0.302721
v -0.243463 1.713911 0.277953
v -0.228207 1.696569 0.256956
v -0.218014 1.670615 0.242926
v -0.214435 1.640000 0.238000
v -0.218014 1.609385 0.242926
v -0.228207 1.583432 0.256956
v -0.243463 1.566090 0.277953
v -0.232341 1.713911 0.293261
v -0.207658 1.696569 0.285240
v -0.191165 1.670615 0.279881
v -0.185373 1.640000 0.278000
v -0.191165 1.609385 0.279881
v -0.207658 1.583432 0.285240
v -0.232341 1.566090 0.293261
v -0.232341 1.713911 0.312181
v -0.207658 1.696569 0.320202
v -0.191165 1.670615 0.325561
v -0.185373 1.640000 0.327442
v -0.191165 1.609385 0.325561
v -0.207658 1.583432 0.320202
v -0.232341 1.566090 0.312181
v -0.243463 1.713911 0.327489
v -0.228207 1.696569 0.348486
v -0.218014 1.670615 0.362516
v -0.214435 1.640000 0.367442
v -0.218014 1.609385 0.362516
v -0.228207 1.583432 0.348486
v -0.243463 1.566090 0.327489
v -0.261457 1.713911 0.333336
v -0.261457 1.696569 0.359290
v -0.261457 1.670615 0.376631
v -0.261457 1.640000 0.382721
v -0.261457 1.609385 0.376631
v -0.261457 1.583432 0.359290
v -0.261457 1.566090 0.333336
v -0.279452 1.713911 0.327489
v -0.294708 1.696569 0.348486
v -0.304901 1.670615 0.362516
v -0.308480 1.640000 0.367442
v -0.304901 1.609385 0.362516
v -0.294708 1.583432 0.348486
v -0.279452 1.566090 0.327489
v -0.290574 1.713911 0.312181
v -0.315257 1.696569 0.320202
v -0.331750 1.670615 0.325561
v -0.337542 1.640000 0.327442
v -0.331750 1.609385 0.325561
v -0.315257 1.583432 0.320202
v -0.290574 1.566090 0.312181
v -0.290574 1.713911 0.293261
v -0.315257 1.696569 0.285240
v -0.331750 1.670615 0.279881
v -0.337542 1.640000 0.278000
v -0.331750 1.609385 0.279881
v -0.315257 1.583432 0.285240
v -0.290574 1.566090 0.293261
v -0.279452 1.713911 0.277953
v -0.294708 1.696569 0.256956
v -0.304901 1.670615 0.242926
v -0.308480 1.640000 0.238000
v -0.304901 1.609385 0.242926
v -0.294708 1.583432 0.256956
v -0.279452 1.566090 0.277953
v -0.261457 1.713911 0.272106
v -0.261457 1.696569 0.246152
v -0.261457 1.583432 0.246152
v -0.261457 1.566090 0.272106
vn 0.5454 -0.8382 0.0059
vn 0.6507 -0.7302 0.2086
vn -0.0000 -1.0000 -0.0000
vn 0.5497 -0.7567 0.3539
vn 0.4321 -0.7658 0.4762
vn 0.2977 -0.7593 0.5786
vn 0.1433 -0.7360 0.6616
vn 0.0022 -0.6372 0.7707
vn -0.0059 -0.8382 0.5454
vn -0.2086 -0.7302 0.6507
vn -0.3539 -0.7567 0.5497
vn -0.4762 -0.7658 0.4321
vn -0.5786 -0.7593 0.2977
vn -0.6616 -0.7360 0.1433
vn -0.7707 -0.6372 0.0022
vn -0.5454 -0.8382 -0.0059
vn -0.6507 -0.7302 -0.2086
vn -0.5497 -0.7567 -0.3539
vn -0.4321 -0.7658 -0.4762
vn -0.2977 -0.7593 -0.5786
vn -0.1433 -0.7360 -0.6616
vn -0.0022 -0.6372 -0.7707
vn 0.0059 -0.8382 -0.5454
vn 0.2086 -0.7302 -0.6507
vn 0.3539 -0.7567 -0.5497
vn 0.4762 -0.7658 -0.4321
vn 0.5786 -0.7593 -0.2977
vn 0.6616 -0.7360 -0.1433
vn 0.7707 -0.6372 -0.0022
vn 0.9336 0.2495 0.2571
vn 0.9807 0.1955 0.0071
vn 0.8273 0.2828 0.4853
vn 0.6713 0.2936 0.6806
vn 0.4740 0.2818 0.8342
vn 0.2443 0.2473 0.9376
vn 0.0075 0.1940 0.9810
vn -0.0071 0.1955 0.9807
vn -0.2571 0.2495 0.9336
vn -0.4853 0.2828 0.8273
vn -0.6806 0.2936 0.6713
vn -0.8342 0.2818 0.4740
vn -0.9376 0.2473 0.2443
vn -0.9810 0.1940 0.0075
vn -0.9807 0.1955 -0.0071
vn -0.9336 0.2495 -0.2571
vn -0.8273 0.2828 -0.4853
vn -0.6713 0.2936 -0.6806
vn -0.4740 0.2818 -0.8342
vn -0.2443 0.2473 -0.9376
vn -0.0075 0.1940 -0.9810
vn 0.0071 0.1955 -0.9807
vn 0.2571 0.2495 -0.9336
vn 0.4853 0.2828 -0.8273
vn 0.6806 0.2936 -0.6713
vn 0.8342 0.2818 -0.4740
vn 0.9376 0.2473 -0.2443
vn 0.9810 0.1940 -0.0075
vn 0.9174 0.3339 0.2164
vn 0.9708 0.2397 0.0057
vn 0.8183 0.3697 0.4401
vn 0.6726 0.3829 0.6332
vn 0.4878 0.3737 0.7889
vn 0.2705 0.3419 0.9000
vn 0.0155 0.3346 0.9422
vn -0.0056 0.2398 0.9708
vn -0.2164 0.3339 0.9174
vn -0.4401 0.3697 0.8183
vn -0.6332 0.3829 0.6726
vn -0.7889 0.3737 0.4878
vn -0.9000 0.3419 0.2705
vn -0.9422 0.3346 0.0155
vn -0.9708 0.2398 -0.0056
vn -0.9174 0.3339 -0.2164
vn -0.8183 0.3697 -0.4401
vn -0.6726 0.3829 -0.6332
vn -0.4878 0.3737 -0.7889
vn -0.2705 0.3419 -0.9000
vn -0.0155 0.3346 -0.9422
vn 0.0056 0.2398 -0.9708
vn 0.2164 0.3339 -0.9174
vn 0.4401 0.3697 -0.8183
vn 0.6332 0.3829 -0.6726
vn 0.7889 0.3737 -0.4878
vn 0.9000 0.3419 -0.2705
vn 0.9422 0.3346 -0.0155
vn 0.0685 0.9976 -0.0031
vn 0.2319 0.9727 -0.0012
vn 0.0622 0.9980 0.0137
vn 0.0553 0.9981 0.0287
vn 0.0473 0.9979 0.0432
vn 0.0375 0.9976 0.0587
vn 0.0027 0.9987 -0.0509
vn 0.0012 0.9727 0.2319
vn 0.0031 0.9976 0.0685
vn -0.0137 0.9980 0.0622
vn -0.0287 0.9981 0.0553
vn -0.0432 0.9979 0.0473
vn -0.0587 0.9976 0.0375
vn 0.0509 0.9987 0.0027
vn -0.2319 0.9727 0.0012
vn -0.0685 0.9976 0.0031
vn -0.0622 0.9980 -0.0137
vn -0.0553 0.9981 -0.0287
vn -0.0473 0.9979 -0.0432
vn -0.0375 0.9976 -0.0587
vn -0.0027 0.9987 0.0509
vn -0.0012 0.9727 -0.2319
vn -0.0031 0.9976 -0.0685
vn 0.0137 0.9980 -0.0622
vn 0.0287 0.9981 -0.0553
vn 0.0432 0.9979 -0.0473
vn 0.0587 0.9976 -0.0375
vn -0.0509 0.9987 -0.0027
vn -0.2401 0.9689 -0.0590
vn -0.2915 0.9566 -0.0026
vn -0.2006 0.9734 -0.1104
vn -0.1608 0.9749 -0.1543
vn -0.1178 0.9738 -0.1945
vn -0.0680 0.9698 -0.2341
vn -0.0045 0.9649 -0.2627
vn 0.0026 0.9566 -0.2915
vn 0.0590 0.9689 -0.2401
vn 0.1104 0.9734 -0.2007
vn 0.1543 0.9749 -0.1608
vn 0.1945 0.9738 -0.1178
vn 0.2341 0.9698 -0.0680
vn 0.2627 0.9649 -0.0045
vn 0.2915 0.9566 0.0026
vn 0.2401 0.9689 0.0590
vn 0.2006 0.9734 0.1104
vn 0.1608 0.9749 0.1543
vn 0.1178 0.9738 0.1945
vn 0.0680 0.9698 0.2341
vn 0.0045 0.9649 0.2627
vn -0.0026 0.9566 0.2915
vn -0.0590 0.9689 0.2401
vn -0.1104 0.9734 0.2007
vn -0.1543 0.9749 0.1608
vn -0.1945 0.9738 0.1178
vn -0.2341 0.9698 0.0680
vn -0.2627 0.9649 0.0045
vn -0.1449 0.9889 -0.0316
vn -0.1735 0.9848 -0.0011
vn -0.1228 0.9904 -0.0633
vn -0.0995 0.9909 -0.0905
vn -0.0738 0.9906 -0.1150
vn -0.0441 0.9894 -0.1380
vn -0.0036 0.9892 -0.1463
vn 0.0011 0.9848 -0.1735
vn 0.0316 0.9889 -0.1449
vn 0.0633 0.9904 -0.1228
vn 0.0905 0.9909 -0.0995
vn 0.1150 0.9906 -0.0738
vn 0.1381 0.9894 -0.0441
vn 0.1463 0.9892 -0.0036
vn 0.1735 0.9848 0.0011
vn 0.1449 0.9889 0.0316
vn 0.1228 0.9904 0.0633
vn 0.0995 0.9909 0.0905
vn 0.0738 0.9906 0.1150
vn 0.0441 0.9894 0.1380
vn 0.0036 0.9892 0.1463
vn -0.0011 0.9848 0.1735
vn -0.0316 0.9889 0.1449
vn -0.0633 0.9904 0.1228
vn -0.0905 0.9909 0.0995
vn -0.1150 0.9906 0.0738
vn -0.1381 0.9894 0.0441
vn -0.1463 0.9892 0.0036
vn -0.0000 1.0000 -0.0000
vn -0.1794 -0.9673 0.1794
vn -0.1726 -0.6965 0.6965
vn -0.5773 -0.5774 0.5773
vn -0.6965 -0.6965 0.1726
vn -0.1794 -0.1794 0.9673
vn -0.6965 -0.1726 0.6965
vn -0.9673 -0.1794 0.1794
vn -0.1794 0.1794 0.9673
vn -0.1726 0.6965 0.6965
vn -0.5774 0.5773 0.5774
vn -0.6965 0.1726 0.6965
vn -0.1794 0.9673 0.1794
vn -0.6965 0.6965 0.1726
vn -0.9673 0.1794 0.1794
vn -0.1794 -0.9673 -0.1794
vn -0.6965 -0.6965 -0.1726
vn -0.5773 -0.5774 -0.5773
vn -0.1726 -0.6965 -0.6965
vn -0.9673 -0.1794 -0.1794
vn -0.6965 -0.1726 -0.6965
vn -0.1794 -0.1794 -0.9673
vn -0.1794 0.9673 -0.1794
vn -0.1726 0.6965 -0.6965
vn -0.5774 0.5773 -0.5774
vn -0.6965 0.6965 -0.1726
vn -0.1794 0.1794 -0.9673
vn -0.6965 0.1726 -0.6965
vn -0.9673 0.1794 -0.1794
vn 0.1794 -0.9673 0.1794
vn 0.6965 -0.6965 0.1726
vn 0.5773 -0.5774 0.5773
vn 0.1726 -0.6965 0.6965
vn 0.9673 -0.1794 0.1794
vn 0.6965 -0.1726 0.6965
vn 0.1794 -0.1794 0.9673
vn 0.1794 0.9673 0.1794
vn 0.1726 0.6965 0.6965
vn 0.5774 0.5773 0.5774
vn 0.6965 0.6965 0.1726
vn 0.1794 0.1794 0.9673
vn 0.6965 0.1726 0.6965
vn 0.9673 0.1794 0.1794
vn 0.1794 -0.9673 -0.1794
vn 0.1726 -0.6965 -0.6965
vn 0.5773 -0.5774 -0.5773
vn 0.6965 -0.6965 -0.1726
vn 0.1794 -0.1794 -0.9673
vn 0.6965 -0.1726 -0.6965
vn 0.9673 -0.1794 -0.1794
vn 0.1794 0.9673 -0.1794
vn 0.6965 0.6965 -0.1726
vn 0.5774 0.5773 -0.5774
vn 0.1726 0.6965 -0.6965
vn 0.9673 0.1794 -0.1794
vn 0.6965 0.1726 -0.6965
vn 0.1794 0.1794 -0.9673
vn -0.0000 0.9122 -0.4097
vn 0.2049 0.9122 -0.3548
vn -0.0000 -0.9122 -0.4097
vn 0.2049 -0.9122 -0.3548
vn -0.0000 -0.6913 -0.7226
vn -0.0000 -0.3718 -0.9283
vn 0.4642 -0.3718 -0.8040
vn 0.3613 -0.6913 -0.6258
vn -0.0000 -0.0000 -1.0000
vn -0.0000 0.3718 -0.9283
vn 0.4642 0.3718 -0.8040
vn 0.5000 -0.0000 -0.8660
vn -0.0000 0.6913 -0.7226
vn 0.3613 0.6913 -0.6258
vn 0.8040 0.3718 -0.4642
vn 0.8660 -0.0000 -0.5000
vn 0.3548 0.9122 -0.2049
vn 0.6258 0.6913 -0.3613
vn 0.6258 -0.6913 -0.3613
vn 0.3548 -0.9122 -0.2049
vn 0.8040 -0.3718 -0.4642
vn 0.7226 -0.6913 -0.0000
vn 0.4097 -0.9122 -0.0000
vn 1.0000 -0.0000 -0.0000
vn 0.9283 -0.3718 -0.0000
vn 0.7226 0.6913 -0.0000
vn 0.9283 0.3718 -0.0000
vn 0.4097 0.9122 -0.0000
vn 0.6258 0.6913 0.3613
vn 0.8040 0.3718 0.4642
vn 0.3548 0.9122 0.2049
vn 0.3548 -0.9122 0.2049
vn 0.8040 -0.3718 0.4642
vn 0.6258 -0.6913 0.3613
vn 0.8660 -0.0000 0.5000
vn 0.2049 -0.9122 0.3548
vn 0.4642 -0.3718 0.8040
vn 0.3613 -0.6913 0.6258
vn 0.4642 0.3718 0.8040
vn 0.5000 -0.0000 0.8660
vn 0.2049 0.9122 0.3548
vn 0.3613 0.6913 0.6258
vn -0.0000 0.9122 0.4097
vn -0.0000 0.6913 0.7226
vn -0.0000 -0.6913 0.7226
vn -0.0000 -0.9122 0.4097
vn -0.0000 -0.0000 1.0000
vn -0.0000 -0.3718 0.9283
vn -0.0000 0.3718 0.9283
vn -0.3613 -0.6913 0.6258
vn -0.2049 -0.9122 0.3548
vn -0.5000 -0.0000 0.8660
vn -0.4642 -0.3718 0.8040
vn -0.3613 0.6913 0.6258
vn -0.4642 0.3718 0.8040
vn -0.2049 0.9122 0.3548
vn -0.3548 0.9122 0.2049
vn -0.3548 -0.9122 0.2049
vn -0.8040 -0.3718 0.4642
vn -0.6258 -0.6913 0.3613
vn -0.8040 0.3718 0.4642
vn -0.8660 -0.0000 0.5000
vn -0.6258 0.6913 0.3613
vn -0.9283 -0.3718 -0.0000
vn -0.7226 -0.6913 -0.0000
vn -0.9283 0.3718 -0.0000
vn -1.0000 -0.0000 -0.0000
vn -0.4097 0.9122 -0.0000
vn -0.7226 0.6913 -0.0000
vn -0.4097 -0.9122 -0.0000
vn -0.6258 -0.6913 -0.3613
vn -0.3548 -0.9122 -0.2049
vn -0.8660 -0.0000 -0.5000
vn -0.8040 -0.3718 -0.4642
vn -0.6258 0.6913 -0.3613
vn -0.8040 0.3718 -0.4642
vn -0.3548 0.9122 -0.2049
vn -0.5000 -0.0000 -0.8660
vn -0.4642 -0.3718 -0.8040
vn -0.3613 0.6913 -0.6258
vn -0.4642 0.3718 -0.8040
vn -0.2049 0.9122 -0.3548
vn -0.2049 -0.9122 -0.3548
vn -0.3613 -0.6913 -0.6258
vn -0.0000 -0.9099 -0.4149
vn -0.0000 -0.6883 -0.7254
vn 0.4264 -0.6883 -0.5869
vn 0.2439 -0.9099 -0.3357
vn -0.0000 -0.3697 -0.9291
vn 0.5878 -0.0000 -0.8090
vn 0.5461 -0.3697 -0.7517
vn -0.0000 0.3697 -0.9291
vn -0.0000 0.6883 -0.7254
vn 0.4264 0.6883 -0.5869
vn 0.5461 0.3697 -0.7517
vn -0.0000 0.9099 -0.4149
vn 0.2439 0.9099 -0.3357
vn 0.3946 0.9099 -0.1282
vn 0.3946 -0.9099 -0.1282
vn 0.8837 -0.3697 -0.2871
vn 0.6899 -0.6883 -0.2242
vn 0.8837 0.3697 -0.2871
vn 0.9511 -0.0000 -0.3090
vn 0.6899 0.6883 -0.2242
vn 0.8837 -0.3697 0.2871
vn 0.6899 -0.6883 0.2242
vn 0.8837 0.3697 0.2871
vn 0.9511 -0.0000 0.3090
vn 0.3946 0.9099 0.1282
vn 0.6899 0.6883 0.2242
vn 0.3946 -0.9099 0.1282
vn 0.4264 -0.6883 0.5869
vn 0.2439 -0.9099 0.3357
vn 0.5878 -0.0000 0.8090
vn 0.5461 -0.3697 0.7517
vn 0.4264 0.6883 0.5869
vn 0.5461 0.3697 0.7517
vn 0.2439 0.9099 0.3357
vn -0.0000 -0.3697 0.9291
vn -0.0000 0.6883 0.7254
vn -0.0000 0.3697 0.9291
vn -0.0000 0.9099 0.4149
vn -0.0000 -0.9099 0.4149
vn -0.0000 -0.6883 0.7254
vn -0.2439 -0.9099 0.3357
vn -0.5461 -0.3697 0.7517
vn -0.4264 -0.6883 0.5869
vn -0.5461 0.3697 0.7517
vn -0.5878 -0.0000 0.8090
vn -0.2439 0.9099 0.3357
vn -0.4264 0.6883 0.5869
vn -0.8837 0.3697 0.2871
vn -0.9511 -0.0000 0.3090
vn -0.3946 0.9099 0.1282
vn -0.6899 0.6883 0.2242
vn -0.6899 -0.6883 0.2242
vn -0.3946 -0.9099 0.1282
vn -0.8837 -0.3697 0.2871
vn -0.6899 -0.6883 -0.2242
vn -0.3946 -0.9099 -0.1282
vn -0.9511 -0.0000 -0.3090
vn -0.8837 -0.3697 -0.2871
vn -0.6899 0.6883 -0.2242
vn -0.8837 0.3697 -0.2871
vn -0.3946 0.9099 -0.1282
vn -0.4264 0.6883 -0.5869
vn -0.5461 0.3697 -0.7517
vn -0.2439 0.9099 -0.3357
vn -0.2439 -0.9099 -0.3357
vn -0.5461 -0.3697 -0.7517
vn -0.4264 -0.6883 -0.5869
vn -0.5878 -0.0000 -0.8090
s 1
f 2//1 3//2 1//3
f 3//2 4//4 1//3
f 4//4 5//5 1//3
f 5//5 6//6 1//3
f 6//6 7//7 1//3
f 7//7 8//8 1//3
f 8//8 9//9 1//3
f 9//9 10//10 1//3
f 10//10 11//11 1//3
f 11//11 12//12 1//3
f 12//12 13//13 1//3
f 13//13 14//14 1//3
f 14//14 15//15 1//3
f 15//15 16//16 1//3
f 16//16 17//17 1//3
f 17//17 18//18 1//3
f 18//18 19//19 1//3
f 19//19 20//20 1//3
f 20//20 21//21 1//3
f 21//21 22//22 1//3
f 22//22 23//23 1//3
f 23//23 24//24 1//3
f 24//24 25//25 1//3
f 25//25 26//26 1//3
f 26//26 27//27 1//3
f 27//27 28//28 1//3
f 28//28 29//29 1//3
f 29//29 2//1 1//3
f 31//30 3//2 2//1
f 30//31 31//30 2//1
f 32//32 4//4 3//2
f 31//30 32//32 3//2
f 33//33 5//5 4//4
f 32//32 33//33 4//4
f 34//34 6//6 5//5
f 33//33 34//34 5//5
f 35//35 7//7 6//6
f 34//34 35//35 6//6
f 36//36 8//8 7//7
f 35//35 36//36 7//7
f 37//37 9//9 8//8
f 36//36 37//37 8//8
f 38//38 10//10 9//9
f 37//37 38//38 9//9
f 39//39 11//11 10//10
f 38//38 39//39 10//10
f 40//40 12//12 11//11
f 39//39 40//40 11//11
f 41//41 13//13 12//12
f 40//40 41//41 12//12
f 42//42 14//14 13//13
f 41//41 42//42 13//13
f 43//43 15//15 14//14
f 42//42 43//43 14//14
f 44//44 16//16 15//15
f 43//43 44//44 15//15
f 45//45 17//17 16//16
f 44//44 45//45 16//16
f 46//46 18//18 17//17
f 45//45 46//46 17//17
f 47//47 19//19 18//18
f 46//46 47//47 18//18
f 48//48 20//20 19//19
f 47//47 48//48 19//19
f 49//49 21//21 20//20
f 48//48 49//49 20//20
f 50//50 22//22 21//21
f 49//49 50//50 21//21
f 51//51 23//23 22//22
f 50//50 51//51 22//22
f 52//52 24//24 23//23
f 51//51 52//52 23//23
f 53//53 25//25 24//24
f 52//52 53//53 24//24
f 54//54 26//26 25//25
f 53//53 54//54 25//25
f 55//55 27//27 26//26
f 54//54 55//55 26//26
f 56//56 28//28 27//27
f 55//55 56//56 27//27
f 57//57 29//29 28//28
f 56//56 57//57 28//28
f 30//31 2//1 29//29
f 57//57 30//31 29//29
f 59//58 31//30 30//31
f 58//59 59//58 30//31
f 60//60 32//32 31//30
f 59//58 60//60 31//30
f 61//61 33//33 32//32
f 60//60 61//61 32//32
f 62//62 34//34 33//33
f 61//61 62//62 33//33
f 63//63 35//35 34//34
f 62//62 63//63 34//34
f 64//64 36//36 35//35
f 63//63 64//64 35//35
f 65//65 37//37 36//36
f 64//64 65//65 36//36
f 66//66 38//38 37//37
f 65//65 66//66 37//37
f 67//67 39//39 38//38
f 66//66 67//67 38//38
f 68//68 40//40 39//39
f 67//67 68//68 39//39
f 69//69 41//41 40//40
f 68//68 69//69 40//40
f 70//70 42//42 41//41
f 69//69 70//70 41//41
f 71//71 43//43 42//42
f 70//70 71//71 42//42
f 72//72 44//44 43//43
f 71//71 72//72 43//43
f 73//73 45//45 44//44
f 72//72 73//73 44//44
f 74//74 46//46 45//45
f 73//73 74//74 45//45
f 75//75 47//47 46//46
f 74//74 75//75 46//46
f 76//76 48//48 47//47
f 75//75 76//76 47//47
f 77//77 49//49 48//48
f 76//76 77//77 48//48
f 78//78 50//50 49//49
f 77//77 78//78 49//49
f 79//79 51//51 50//50
f 78//78 79//79 50//50
f 80//80 52//52 51//51
f 79//79 80//80 51//51
f 81//81 53//53 52//52
f 80//80 81//81 52//52
f 82//82 54//54 53//53
f 81//81 82//82 53//53
f 83//83 55//55 54//54
f 82//82 83//83 54//54
f 84//84 56//56 55//55
f 83//83 84//84 55//55
f 85//85 57//57 56//56
f 84//84 85//85 56//56
f 58//59 30//31 57//57
f 85//85 58//59 57//57
f 87//86 59//58 58//59
f 86//87 87//86 58//59
f 88//88 60//60 59//58
f 87//86 88//88 59//58
f 89//89 61//61 60//60
f 88//88 89//89 60//60
f 90//90 62//62 61//61
f 89//89 90//90 61//61
f 91//91 63//63 62//62
f 90//90 91//91 62//62
f 92//92 64//64 63//63
f 91//91 92//92 63//63
f 93//93 65//65 64//64
f 92//92 93//93 64//64
f 94//94 66//66 65//65
f 93//93 94//94 65//65
f 95//95 67//67 66//66
f 94//94 95//95 66//66
f 96//96 68//68 67//67
f 95//95 96//96 67//67
f 97//97 69//69 68//68
f 96//96 97//97 68//68
f 98//98 70//70 69//69
f 97//97 98//98 69//69
f 99//99 71//71 70//70
f 98//98 99//99 70//70
f 100//100 72//72 71//71
f 99//99 100//100 71//71
f 101//101 73//73 72//72
f 100//100 101//101 72//72
f 102//102 74//74 73//73
f 101//101 102//102 73//73
f 103//103 75//75 74//74
f 102//102 103//103 74//74
f 104//104 76//76 75//75
f 103//103 104//104 75//75
f 105//105 77//77 76//76
f 104//104 105//105 76//76
f 106//106 78//78 77//77
f 105//105 106//106 77//77
f 107//107 79//79 78//78
f 106//106 107//107 78//78
f 108//108 80//80 79//79
f 107//107 108//108 79//79
f 109//109 81//81 80//80
f 108//108 109//109 80//80
f 110//110 82//82 81//81
f 109//109 110//110 81//81
f 111//111 83//83 82//82
f 110//110 111//111 82//82
f 112//112 84//84 83//83
f 111//111 112//112 83//83
f 113//113 85//85 84//84
f 112//112 113//113 84//84
f 86//87 58//59 85//85
f 113//113 86//87 85//85
f 115//114 87//86 86//87
f 114//115 115//114 86//87
f 116//116 88//88 87//86
f 115//114 116//116 87//86
f 117//117 89//89 88//88
f 116//116 117//117 88//88
f 118//118 90//90 89//89
f 117//117 118//118 89//89
f 119//119 91//91 90//90
f 118//118 119//119 90//90
f 120//120 92//92 91//91
f 119//119 120//120 91//91
f 121//121 93//93 92//92
f 120//120 121//121 92//92
f 122//122 94//94 93//93
f 121//121 122//122 93//93
f 123//123 95//95 94//94
f 122//122 123//123 94//94
f 124//124 96//96 95//95
f 123//123 124//124 95//95
f 125//125 97//97 96//96
f 124//124 125//125 96//96
f 126//126 98//98 97//97
f 125//125 126//126 97//97
f 127//127 99//99 98//98
f 126//126 127//127 98//98
f 128//128 100//100 99//99
f 127//127 128//128 99//99
f 129//129 101//101 100//100
f 128//128 129//129 100//100
f 130//130 102//102 101//101
f 129//129 130//130 101//101
f 131//131 103//103 102//102
f 130//130 131//131 102//102
f 132//132 104//104 103//103
f 131//131 132//132 103//103
f 133//133 105//105 104//104
f 132//132 133//133 104//104
f 134//134 106//106 105//105
f 133//133 134//134 105//105
f 135//135 107//107 106//106
f 134//134 135//135 106//106
f 136//136 108//108 107//107
f 135//135 136//136 107//107
f 137//137 109//109 108//108
f 136//136 137//137 108//108
f 138//138 110//110 109//109
f 137//137 138//138 109//109
f 139//139 111//111 110//110
f 138//138 139//139 110//110
f 140//140 112//112 111//111
f 139//139 140//140 111//111
f 141//141 113//113 112//112
f 140//140 141//141 112//112
f 114//115 86//87 113//113
f 141//141 114//115 113//113
f 143//142 115//114 114//115
f 142//143 143//142 114//115
f 144//144 116//116 115//114
f 143//142 144//144 115//114
f 145//145 117//117 116//116
f 144//144 145//145 116//116
f 146//146 118//118 117//117
f 145//145 146//146 117//117
f 147//147 119//119 118//118
f 146//146 147//147 118//118
f 148//148 120//120 119//119
f 147//147 148//148 119//119
f 149//149 121//121 120//120
f 148//148 149//149 120//120
f 150//150 122//122 121//121
f 149//149 150//150 121//121
f 151//151 123//123 122//122
f 150//150 151//151 122//122
f 152//152 124//124 123//123
f 151//151 152//152 123//123
f 153//153 125//125 124//124
f 152//152 153//153 124//124
f 154//154 126//126 125//125
f 153//153 154//154 125//125
f 155//155 127//127 126//126
f 154//154 155//155 126//126
f 156//156 128//128 127//127
f 155//155 156//156 127//127
f 157//157 129//129 128//128
f 156//156 157//157 128//128
f 158//158 130//130 129//129
f 157//157 158//158 129//129
f 159//159 131//131 130//130
f 158//158 159//159 130//130
f 160//160 132//132 131//131
f 159//159 160//160 131//131
f 161//161 133//133 132//132
f 160//160 161//161 132//132
f 162//162 134//134 133//133
f 161//161 162//162 133//133
f 163//163 135//135 134//134
f 162//162 163//163 134//134
f 164//164 136//136 135//135
f 163//163 164//164 135//135
f 165//165 137//137 136//136
f 164//164 165//165 136//136
f 166//166 138//138 137//137
f 165//165 166//166 137//137
f 167//167 139//139 138//138
f 166//166 167//167 138//138
f 168//168 140//140 139//139
f 167//167 168//168 139//139
f 169//169 141//141 140//140
f 168//168 169//169 140//140
f 142//143 114//115 141//141
f 169//169 142//143 141//141
f 170//170 143//142 142//143
f 170//170 144//144 143//142
f 170//170 145//145 144//144
f 170//170 146//146 145//145
f 170//170 147//147 146//146
f 170//170 148//148 147//147
f 170//170 149//149 148//148
f 170//170 150//150 149//149
f 170//170 151//151 150//150
f 170//170 152//152 151//151
f 170//170 153//153 152//152
f 170//170 154//154 153//153
f 170//170 155//155 154//154
f 170//170 156//156 155//155
f 170//170 157//157 156//156
f 170//170 158//158 157//157
f 170//170 159//159 158//158
f 170//170 160//160 159//159
f 170//170 161//161 160//160
f 170//170 162//162 161//161
f 170//170 163//163 162//162
f 170//170 164//164 163//163
f 170//170 165//165 164//164
f 170//170 166//166 165//165
f 170//170 167//167 166//166
f 170//170 168//168 167//167
f 170//170 169//169 168//168
f 170//170 142//143 169//169
f 171//171 174//172 175//173 177//174
f 172//175 176//176 175//173 174//172
f 173//177 177//174 175//173 176//176
f 178//178 181//179 182//180 184//181
f 179//182 183//183 182//180 181//179
f 180//184 184//181 182//180 183//183
f 185//185 188//186 189//187 191//188
f 186//189 190//190 189//187 188//186
f 187//191 191//188 189//187 190//190
f 192//192 195//193 196//194 198//195
f 193//196 197//197 196//194 195//193
f 194//198 198//195 196//194 197//197
f 199//199 202//200 203//201 205//202
f 200//203 204//204 203//201 202//200
f 201//205 205//202 203//201 204//204
f 206//206 209//207 210//208 212//209
f 207//210 211//211 210//208 209//207
f 208//212 212//209 210//208 211//211
f 213//213 216//214 217//215 219//216
f 214//217 218//218 217//215 216//214
f 215//219 219//216 217//215 218//218
f 220//220 223//221 224//222 226//223
f 221//224 225//225 224//222 223//221
f 222//226 226//223 224//222 225//225
f 185//185 171//171 177//174 188//186
f 188//186 177//174 173//177 186//189
f 172//175 178//178 184//181 176//176
f 176//176 184//181 180//184 173//177
f 179//182 192//192 198//195 183//183
f 183//183 198//195 194//198 180//184
f 193//196 187//191 190//190 197//197
f 197//197 190//190 186//189 194//198
f 213//213 185//185 191//188 216//214
f 216//214 191//188 187//191 214//217
f 192//192 220//220 226//223 195//193
f 195//193 226//223 222//226 193//196
f 221//224 215//219 218//218 225//225
f 225//225 218//218 214//217 222//226
f 199//199 213//213 219//216 202//200
f 202//200 219//216 215//219 200//203
f 220//220 206//206 212//209 223//221
f 223//221 212//209 208//212 221//224
f 207//210 201//205 204//204 211//211
f 211//211 204//204 200//203 208//212
f 171//171 199//199 205//202 174//172
f 174//172 205//202 201//205 172//175
f 206//206 179//182 181//179 209//207
f 209//207 181//179 178//178 207//210
f 185//185 213//213 199//199 171//171
f 173//177 180//184 194//198 186//189
f 201//205 207//210 178//178 172//175
f 220//220 192//192 179//182 206//206
f 187//191 193//196 222//226 214//217
f 215//219 221//224 208//212 200//203
f 308//227 227//170 231//228
f 230//3 229//229 237//230
f 312//231 311//232 235//233 236//234
f 310//235 228//236 233//237 234//238
f 309//239 308//227 231//228 232//240
f 229//229 312//231 236//234 237//230
f 311//232 310//235 234//238 235//233
f 228//236 309//239 232//240 233//237
f 234//238 233//237 240//241 241//242
f 232//240 231//228 238//243 239//244
f 237//230 236//234 243//245 244//246
f 235//233 234//238 241//242 242//247
f 233//237 232//240 239//244 240//241
f 231//228 227//170 238//243
f 230//3 237//230 244//246
f 236//234 235//233 242//247 243//245
f 244//246 243//245 250//248 251//249
f 242//247 241//242 248//250 249//251
f 240//241 239//244 246//252 247//253
f 238//243 227//170 245//254
f 230//3 244//246 251//249
f 243//245 242//247 249//251 250//248
f 241//242 240//241 247//253 248//250
f 239//244 238//243 245//254 246//252
f 247//253 246//252 253//255 254//256
f 245//254 227//170 252//257
f 230//3 251//249 258//258
f 250//248 249//251 256//259 257//260
f 248//250 247//253 254//256 255//261
f 246//252 245//254 252//257 253//255
f 251//249 250//248 257//260 258//258
f 249//251 248//250 255//261 256//259
f 230//3 258//258 265//262
f 257//260 256//259 263//263 264//264
f 255//261 254//256 261//265 262//266
f 253//255 252//257 259//267 260//268
f 258//258 257//260 264//264 265//262
f 256//259 255//261 262//266 263//263
f 254//256 253//255 260//268 261//265
f 252//257 227//170 259//267
f 260//268 259//267 266//269 267//270
f 265//262 264//264 271//271 272//272
f 263//263 262//266 269//273 270//274
f 261//265 260//268 267//270 268//275
f 259//267 227//170 266//269
f 230//3 265//262 272//272
f 264//264 263//263 270//274 271//271
f 262//266 261//265 268//275 269//273
f 272//272 271//271 278//276 279//277
f 270//274 269//273 276//278 277//279
f 268//275 267//270 274//280 275//281
f 266//269 227//170 273//282
f 230//3 272//272 279//277
f 271//271 270//274 277//279 278//276
f 269//273 268//275 275//281 276//278
f 267//270 266//269 273//282 274//280
f 273//282 227//170 280//283
f 230//3 279//277 286//284
f 278//276 277//279 284//285 285//286
f 276//278 275//281 282//287 283//288
f 274//280 273//282 280//283 281//289
f 279//277 278//276 285//286 286//284
f 277//279 276//278 283//288 284//285
f 275//281 274//280 281//289 282//287
f 285//286 284//285 291//290 292//291
f 283//288 282//287 289//292 290//293
f 281//289 280//283 287//294 288//295
f 286//284 285//286 292//291 293//296
f 284//285 283//288 290//293 291//290
f 282//287 281//289 288//295 289//292
f 280//283 227//170 287//294
f 230//3 286//284 293//296
f 293//296 292//291 299//297 300//298
f 291//290 290//293 297//299 298//300
f 289//292 288//295 295//301 296//302
f 287//294 227//170 294//303
f 230//3 293//296 300//298
f 292//291 291//290 298//300 299//297
f 290//293 289//292 296//302 297//299
f 288//295 287//294 294//303 295//301
f 298//300 297//299 304//304 305//305
f 296//302 295//301 302//306 303//307
f 294//303 227//170 301//308
f 230//3 300//298 307//309
f 299//297 298//300 305//305 306//310
f 297//299 296//302 303//307 304//304
f 295//301 294//303 301//308 302//306
f 300//298 299//297 306//310 307//309
f 230//3 307//309 229//229
f 306//310 305//305 311//232 312//231
f 304//304 303//307 228//236 310//235
f 302//306 301//308 308//227 309//239
f 307//309 306//310 312//231 229//229
f 305//305 304//304 310//235 311//232
f 303//307 302//306 309//239 228//236
f 301//308 227//170 308//227
f 384//311 383//312 320//313 321//314
f 382//315 381//235 318//316 319//317
f 380//318 379//319 316//320 317//321
f 378//322 313//170 315//323
f 314//3 384//311 321//314
f 383//312 382//315 319//317 320//313
f 381//235 380//318 317//321 318//316
f 379//319 378//322 315//323 316//320
f 315//323 313//170 322//324
f 314//3 321//314 328//325
f 320//313 319//317 326//326 327//327
f 318//316 317//321 324//328 325//329
f 316//320 315//323 322//324 323//330
f 321//314 320//313 327//327 328//325
f 319//317 318//316 325//329 326//326
f 317//321 316//320 323//330 324//328
f 327//327 326//326 333//331 334//332
f 325//329 324//328 331//333 332//334
f 323//330 322//324 329//335 330//336
f 328//325 327//327 334//332 335//337
f 326//326 325//329 332//334 333//331
f 324//328 323//330 330//336 331//333
f 322//324 313//170 329//335
f 314//3 328//325 335//337
f 335//337 334//332 341//338 342//339
f 333//331 332//334 339//340 340//341
f 331//333 330//336 337//342 338//343
f 329//335 313//170 336//344
f 314//3 335//337 342//339
f 334//332 333//331 340//341 341//338
f 332//334 331//333 338//343 339//340
f 330//336 329//335 336//344 337//342
f 340//341 339//340 346//273 347//345
f 338//343 337//342 344//346 345//347
f 336//344 313//170 343//348
f 314//3 342//339 349//349
f 341//338 340//341 347//345 348//350
f 339//340 338//343 345//347 346//273
f 337//342 336//344 343//348 344//346
f 342//339 341//338 348//350 349//349
f 314//3 349//349 356//351
f 348//350 347//345 354//352 355//353
f 346//273 345//347 352//354 353//355
f 344//346 343//348 350//356 351//357
f 349//349 348//350 355//353 356//351
f 347//345 346//273 353//355 354//352
f 345//347 344//346 351//357 352//354
f 343//348 313//170 350//356
f 353//355 352//354 359//358 360//359
f 351//357 350//356 357//360 358//361
f 356//351 355//353 362//362 363//363
f 354//352 353//355 360//359 361//364
f 352//354 351//357 358//361 359//358
f 350//356 313//170 357//360
f 314//3 356//351 363//363
f 355//353 354//352 361//364 362//362
f 363//363 362//362 369//365 370//366
f 361//364 360//359 367//367 368//368
f 359//358 358//361 365//369 366//370
f 357//360 313//170 364//371
f 314//3 363//363 370//366
f 362//362 361//364 368//368 369//365
f 360//359 359//358 366//370 367//367
f 358//361 357//360 364//371 365//369
f 366//370 365//369 372//372 373//373
f 364//371 313//170 371//374
f 314//3 370//366 377//375
f 369//365 368//368 375//376 376//377
f 367//367 366//370 373//373 374//378
f 365//369 364//371 371//374 372//372
f 370//366 369//365 376//377 377//375
f 368//368 367//367 374//378 375//376
f 314//3 377//375 384//311
f 376//377 375//376 382//315 383//312
f 374//378 373//373 380//318 381//235
f 372//372 371//374 378//322 379//319
f 377//375 376//377 383//312 384//311
f 375//376 374//378 381//235 382//315
f 373//373 372//372 379//319 380//318
f 371//374 313//170 378//322
f 456//311 387//312 394//313 395//314
f 455//315 454//235 392//316 393//317
f 453//318 386//319 390//320 391//321
f 452//322 385//170 389//323
f 388//3 456//311 395//314
f 387//312 455//315 393//317 394//313
f 454//235 453//318 391//321 392//316
f 386//319 452//322 389//323 390//320
f 389//323 385//170 396//324
f 388//3 395//314 402//325
f 394//313 393//317 400//326 401//327
f 392//316 391//321 398//328 399//329
f 390//320 389//323 396//324 397//330
f 395//314 394//313 401//327 402//325
f 393//317 392//316 399//329 400//326
f 391//321 390//320 397//330 398//328
f 401//327 400//326 407//331 408//332
f 399//329 398//328 405//333 406//334
f 397//330 396//324 403//335 404//336
f 402//325 401//327 408//332 409//337
f 400//326 399//329 406//334 407//331
f 398//328 397//330 404//336 405//333
f 396//324 385//170 403//335
f 388//3 402//325 409//337
f 409//337 408//332 415//338 416//339
f 407//331 406//334 413//340 414//341
f 405//333 404//336 411//342 412//343
f 403//335 385//170 410//344
f 388//3 409//337 416//339
f 408//332 407//331 414//341 415//338
f 406//334 405//333 412//343 413//340
f 404//336 403//335 410//344 411//342
f 414//341 413//340 420//273 421//345
f 412//343 411//342 418//346 419//347
f 410//344 385//170 417//348
f 388//3 416//339 423//349
f 415//338 414//341 421//345 422//350
f 413//340 412//343 419//347 420//273
f 411//342 410//344 417//348 418//346
f 416//339 415//338 422//350 423//349
f 388//3 423//349 430//351
f 422//350 421//345 428//352 429//353
f 420//273 419//347 426//354 427//355
f 418//346 417//348 424//356 425//357
f 423//349 422//350 429//353 430//351
f 421//345 420//273 427//355 428//352
f 419//347 418//346 425//357 426//354
f 417//348 385//170 424//356
f 427//355 426//354 433//358 434//359
f 425//357 424//356 431//360 432//361
f 430//351 429//353 436//362 437//363
f 428//352 427//355 434//359 435//364
f 426//354 425//357 432//361 433//358
f 424//356 385//170 431//360
f 388//3 430//351 437//363
f 429//353 428//352 435//364 436//362
f 437//363 436//362 443//365 444//366
f 435//364 434//359 441//367 442//368
f 433//358 432//361 439//369 440//370
f 431//360 385//170 438//371
f 388//3 437//363 444//366
f 436//362 435//364 442//368 443//365
f 434//359 433//358 440//370 441//367
f 432//361 431//360 438//371 439//369
f 440//370 439//369 446//372 447//373
f 438//371 385//170 445//374
f 388//3 444//366 451//375
f 443//365 442//368 449//376 450//377
f 441//367 440//370 447//373 448//378
f 439//369 438//371 445//374 446//372
f 444//366 443//365 450//377 451//375
f 442//368 441//367 448//378 449//376
f 388//3 451//375 456//311
f 450//377 449//376 455//315 387//312
f 448//378 447//373 453//318 454//235
f 446//372 445//374 452//322 386//319
f 451//375 450//377 387//312 456//311
f 449//376 448//378 454//235 455//315
f 447//373 446//372 386//319 453//318
f 445//374 385//170 452//322
f 460//315 459//235 465//316 466//317
f 458//318 526//319 463//320 464//321
f 525//322 457//170 462//323
f 461//3 528//311 468//314
f 527//312 460//315 466//317 467//313
f 459//235 458//318 464//321 465//316
f 526//319 525//322 462//323 463//320
f 528//311 527//312 467//313 468//314
f 461//3 468//314 475//325
f 467//313 466//317 473//326 474//327
f 465//316 464//321 471//328 472//329
f 463//320 462//323 469//324 470//330
f 468//314 467//313 474//327 475//325
f 466//317 465//316 472//329 473//326
f 464//321 463//320 470//330 471//328
f 462//323 457//170 469//324
f 470//330 469//324 476//335 477//336
f 475//325 474//327 481//332 482//337
f 473//326 472//329 479//334 480//331
f 471//328 470//330 477//336 478//333
f 469//324 457//170 476//335
f 461//3 475//325 482//337
f 474//327 473//326 480//331 481//332
f 472//329 471//328 478//333 479//334
f 482//337 481//332 488//338 489//339
f 480//331 479//334 486//340 487//341
f 478//333 477//336 484//342 485//343
f 476//335 457//170 483//344
f 461//3 482//337 489//339
f 481//332 480//331 487//341 488//338
f 479//334 478//333 485//343 486//340
f 477//336 476//335 483//344 484//342
f 483//344 457//170 490//348
f 461//3 489//339 496//349
f 488//338 487//341 494//345 495//350
f 486//340 485//343 492//347 493//273
f 484//342 483//344 490//348 491//346
f 489//339 488//338 495//350 496//349
f 487//341 486//340 493//273 494//345
f 485//343 484//342 491//346 492//347
f 495//350 494//345 501//352 502//353
f 493//273 492//347 499//354 500//355
f 491//346 490//348 497//356 498//357
f 496//349 495//350 502//353 503//351
f 494//345 493//273 500//355 501//352
f 492//347 491//346 498//357 499//354
f 490//348 457//170 497//356
f 461//3 496//349 503//351
f 503//351 502//353 509//362 510//363
f 501//352 500//355 507//359 508//364
f 499//354 498//357 505//361 506//358
f 497//356 457//170 504//360
f 461//3 503//351 510//363
f 502//353 501//352 508//364 509//362
f 500//355 499//354 506//358 507//359
f 498//357 497//356 504//360 505//361
f 508//364 507//359 514//367 515//368
f 506//358 505//361 512//369 513//370
f 504//360 457//170 511//371
f 461//3 510//363 517//366
f 509//362 508//364 515//368 516//365
f 507//359 506//358 513//370 514//367
f 505//361 504//360 511//371 512//369
f 510//363 509//362 516//365 517//366
f 461//3 517//366 524//375
f 516//365 515//368 522//376 523//377
f 514//367 513//370 520//373 521//378
f 512//369 511//371 518//374 519//372
f 517//366 516//365 523//377 524//375
f 515//368 514//367 521//378 522//376
f 513//370 512//369 519//372 520//373
f 511//371 457//170 518//374
f 521//378 520//373 458//318 459//235
f 519//372 518//374 525//322 526//319
f 524//375 523//377 527//312 528//311
f 522//376 521//378 459//235 460//315
f 520//373 519//372 526//319 458//318
f 518//374 457//170 525//322
f 461//3 524//375 528//311
f 523//377 522//376 460//315 527//312
