# Blender 5.2.2 LTS
# www.blender.org
o SakuraPop
v 0.000000 0.000000 0.000000
v 1.100000 0.000000 0.836000
v 1.091002 0.000000 0.904332
v 1.064624 0.000000 0.968000
v 1.022670 0.000000 1.022670
v 0.968000 0.000000 1.064624
v 0.904332 0.000000 1.091002
v 0.836000 0.000000 1.100000
v -0.836000 0.000000 1.100000
v -0.904332 0.000000 1.091002
v -0.968000 0.000000 1.064624
v -1.022670 0.000000 1.022670
v -1.064624 0.000000 0.968000
v -1.091002 0.000000 0.904332
v -1.100000 0.000000 0.836000
v -1.100000 0.000000 -0.836000
v -1.091002 0.000000 -0.904332
v -1.064624 0.000000 -0.968000
v -1.022670 0.000000 -1.022670
v -0.968000 0.000000 -1.064624
v -0.904332 0.000000 -1.091002
v -0.836000 0.000000 -1.100000
v 0.836000 0.000000 -1.100000
v 0.904332 0.000000 -1.091002
v 0.968000 0.000000 -1.064624
v 1.022670 0.000000 -1.022670
v 1.064624 0.000000 -0.968000
v 1.091002 0.000000 -0.904332
v 1.100000 0.000000 -0.836000
v 0.979000 0.607200 0.671000
v 0.968506 0.607200 0.750706
v 0.937728 0.607200 0.825000
v 0.888778 0.607200 0.888778
v 0.825000 0.607200 0.937728
v 0.750706 0.607200 0.968506
v 0.671000 0.607200 0.979000
v -0.671000 0.607200 0.979000
v -0.750706 0.607200 0.968506
v -0.825000 0.607200 0.937728
v -0.888778 0.607200 0.888778
v -0.937728 0.607200 0.825000
v -0.968506 0.607200 0.750706
v -0.979000 0.607200 0.671000
v -0.979000 0.607200 -0.671000
v -0.968506 0.607200 -0.750706
v -0.937728 0.607200 -0.825000
v -0.888778 0.607200 -0.888778
v -0.825000 0.607200 -0.937728
v -0.750706 0.607200 -0.968506
v -0.671000 0.607200 -0.979000
v 0.671000 0.607200 -0.979000
v 0.750706 0.607200 -0.968506
v 0.825000 0.607200 -0.937728
v 0.888778 0.607200 -0.888778
v 0.937728 0.607200 -0.825000
v 0.968506 0.607200 -0.750706
v 0.979000 0.607200 -0.671000
v 0.858000 1.232000 0.506000
v 0.846010 1.232000 0.597102
v 0.810832 1.232000 0.682000
v 0.754908 1.232000 0.754908
v 0.682000 1.232000 0.810832
v 0.597102 1.232000 0.846010
v 0.506000 1.232000 0.858000
v -0.506000 1.232000 0.858000
v -0.597102 1.232000 0.846010
v -0.682000 1.232000 0.810832
v -0.754908 1.232000 0.754908
v -0.810832 1.232000 0.682000
v -0.846010 1.232000 0.597102
v -0.858000 1.232000 0.506000
v -0.858000 1.232000 -0.506000
v -0.846010 1.232000 -0.597102
v -0.810832 1.232000 -0.682000
v -0.754908 1.232000 -0.754908
v -0.682000 1.232000 -0.810832
v -0.597102 1.232000 -0.846010
v -0.506000 1.232000 -0.858000
v 0.506000 1.232000 -0.858000
v 0.597102 1.232000 -0.846010
v 0.682000 1.232000 -0.810832
v 0.754908 1.232000 -0.754908
v 0.810832 1.232000 -0.682000
v 0.846010 1.232000 -0.597102
v 0.858000 1.232000 -0.506000
v 0.770000 1.320000 0.462000
v 0.759506 1.320000 0.541706
v 0.728728 1.320000 0.616000
v 0.679778 1.320000 0.679778
v 0.616000 1.320000 0.728728
v 0.541706 1.320000 0.759506
v 0.462000 1.320000 0.770000
v -0.462000 1.320000 0.770000
v -0.541706 1.320000 0.759506
v -0.616000 1.320000 0.728728
v -0.679778 1.320000 0.679778
v -0.728728 1.320000 0.616000
v -0.759506 1.320000 0.541706
v -0.770000 1.320000 0.462000
v -0.770000 1.320000 -0.462000
v -0.759506 1.320000 -0.541706
v -0.728728 1.320000 -0.616000
v -0.679778 1.320000 -0.679778
v -0.616000 1.320000 -0.728728
v -0.541706 1.320000 -0.759506
v -0.462000 1.320000 -0.770000
v 0.462000 1.320000 -0.770000
v 0.541706 1.320000 -0.759506
v 0.616000 1.320000 -0.728728
v 0.679778 1.320000 -0.679778
v 0.728728 1.320000 -0.616000
v 0.759506 1.320000 -0.541706
v 0.770000 1.320000 -0.462000
v 0.554400 1.245838 0.300960
v 0.545754 1.245838 0.366564
v 0.520454 1.245838 0.427680
v 0.480172 1.245838 0.480172
v 0.427680 1.245838 0.520454
v 0.366564 1.245838 0.545754
v 0.300960 1.245838 0.554400
v -0.300960 1.245838 0.554400
v -0.366564 1.245838 0.545754
v -0.427680 1.245838 0.520454
v -0.480172 1.245838 0.480172
v -0.520454 1.245838 0.427680
v -0.545754 1.245838 0.366564
v -0.554400 1.245838 0.300960
v -0.554400 1.245838 -0.300960
v -0.545754 1.245838 -0.366564
v -0.520454 1.245838 -0.427680
v -0.480172 1.245838 -0.480172
v -0.427680 1.245838 -0.520454
v -0.366564 1.245838 -0.545754
v -0.300960 1.245838 -0.554400
v 0.300960 1.245838 -0.554400
v 0.366564 1.245838 -0.545754
v 0.427680 1.245838 -0.520454
v 0.480172 1.245838 -0.480172
v 0.520454 1.245838 -0.427680
v 0.545754 1.245838 -0.366564
v 0.554400 1.245838 -0.300960
v 0.323400 1.193170 0.175560
v 0.318362 1.193170 0.213818
v 0.303600 1.193170 0.249480
v 0.280104 1.193170 0.280104
v 0.249480 1.193170 0.303600
v 0.213818 1.193170 0.318362
v 0.175560 1.193170 0.323400
v -0.175560 1.193170 0.323400
v -0.213818 1.193170 0.318362
v -0.249480 1.193170 0.303600
v -0.280104 1.193170 0.280104
v -0.303600 1.193170 0.249480
v -0.318362 1.193170 0.213818
v -0.323400 1.193170 0.175560
v -0.323400 1.193170 -0.175560
v -0.318362 1.193170 -0.213818
v -0.303600 1.193170 -0.249480
v -0.280104 1.193170 -0.280104
v -0.249480 1.193170 -0.303600
v -0.213818 1.193170 -0.318362
v -0.175560 1.193170 -0.323400
v 0.175560 1.193170 -0.323400
v 0.213818 1.193170 -0.318362
v 0.249480 1.193170 -0.303600
v 0.280104 1.193170 -0.280104
v 0.303600 1.193170 -0.249480
v 0.318362 1.193170 -0.213818
v 0.323400 1.193170 -0.175560
v 0.000000 1.166000 -0.000000
v -0.310000 1.300000 0.150000
v -0.310000 1.340000 0.190000
v -0.350000 1.340000 0.150000
v -0.310000 1.311716 0.178284
v -0.333094 1.316906 0.173094
v -0.338284 1.340000 0.178284
v -0.338284 1.311716 0.150000
v -0.310000 1.360000 0.190000
v -0.310000 1.400000 0.150000
v -0.350000 1.360000 0.150000
v -0.310000 1.388284 0.178284
v -0.333094 1.383094 0.173094
v -0.338284 1.388284 0.150000
v -0.338284 1.360000 0.178284
v -0.310000 1.300000 -0.050000
v -0.350000 1.340000 -0.050000
v -0.310000 1.340000 -0.090000
v -0.338284 1.311716 -0.050000
v -0.333094 1.316906 -0.073094
v -0.338284 1.340000 -0.078284
v -0.310000 1.311716 -0.078284
v -0.310000 1.400000 -0.050000
v -0.310000 1.360000 -0.090000
v -0.350000 1.360000 -0.050000
v -0.310000 1.388284 -0.078284
v -0.333094 1.383094 -0.073094
v -0.338284 1.360000 -0.078284
v -0.338284 1.388284 -0.050000
v 0.310000 1.300000 0.150000
v 0.350000 1.340000 0.150000
v 0.310000 1.340000 0.190000
v 0.338284 1.311716 0.150000
v 0.333094 1.316906 0.173094
v 0.338284 1.340000 0.178284
v 0.310000 1.311716 0.178284
v 0.310000 1.400000 0.150000
v 0.310000 1.360000 0.190000
v 0.350000 1.360000 0.150000
v 0.310000 1.388284 0.178284
v 0.333094 1.383094 0.173094
v 0.338284 1.360000 0.178284
v 0.338284 1.388284 0.150000
v 0.310000 1.300000 -0.050000
v 0.310000 1.340000 -0.090000
v 0.350000 1.340000 -0.050000
v 0.310000 1.311716 -0.078284
v 0.333094 1.316906 -0.073094
v 0.338284 1.340000 -0.078284
v 0.338284 1.311716 -0.050000
v 0.310000 1.400000 -0.050000
v 0.350000 1.360000 -0.050000
v 0.310000 1.360000 -0.090000
v 0.338284 1.388284 -0.050000
v 0.333094 1.383094 -0.073094
v 0.338284 1.360000 -0.078284
v 0.310000 1.388284 -0.078284
v -0.220000 1.820000 -0.120000
v -0.220000 1.767279 -0.247279
v -0.220000 1.640000 -0.300000
v -0.220000 1.571117 -0.286298
v -0.220000 1.512721 -0.247279
v -0.220000 1.460000 -0.120000
v -0.185558 1.806298 -0.179654
v -0.156360 1.767279 -0.230227
v -0.136851 1.708883 -0.264019
v -0.130000 1.640000 -0.275885
v -0.136851 1.571117 -0.264019
v -0.156360 1.512721 -0.230227
v -0.185558 1.473702 -0.179654
v -0.160346 1.806298 -0.154442
v -0.109773 1.767279 -0.183640
v -0.075981 1.708883 -0.203149
v -0.064115 1.640000 -0.210000
v -0.075981 1.571117 -0.203149
v -0.109773 1.512721 -0.183640
v -0.160346 1.473702 -0.154442
v -0.151117 1.806298 -0.120000
v -0.092721 1.767279 -0.120000
v -0.053702 1.708883 -0.120000
v -0.040000 1.640000 -0.120000
v -0.053702 1.571117 -0.120000
v -0.092721 1.512721 -0.120000
v -0.151117 1.473702 -0.120000
v -0.160346 1.806298 -0.085558
v -0.109773 1.767279 -0.056360
v -0.075981 1.708883 -0.036851
v -0.064115 1.640000 -0.030000
v -0.075981 1.571117 -0.036851
v -0.109773 1.512721 -0.056360
v -0.160346 1.473702 -0.085558
v -0.185558 1.806298 -0.060346
v -0.156360 1.767279 -0.009773
v -0.136851 1.708883 0.024019
v -0.130000 1.640000 0.035885
v -0.136851 1.571117 0.024019
v -0.156360 1.512721 -0.009773
v -0.185558 1.473702 -0.060346
v -0.220000 1.806298 -0.051117
v -0.220000 1.767279 0.007279
v -0.220000 1.708883 0.046298
v -0.220000 1.640000 0.060000
v -0.220000 1.571117 0.046298
v -0.220000 1.512721 0.007279
v -0.220000 1.473702 -0.051117
v -0.254441 1.806298 -0.060346
v -0.283640 1.767279 -0.009773
v -0.303149 1.708883 0.024019
v -0.310000 1.640000 0.035885
v -0.303149 1.571117 0.024019
v -0.283640 1.512721 -0.009773
v -0.254441 1.473702 -0.060346
v -0.279654 1.806298 -0.085558
v -0.330227 1.767279 -0.056360
v -0.364019 1.708883 -0.036851
v -0.375885 1.640000 -0.030000
v -0.364019 1.571117 -0.036851
v -0.330227 1.512721 -0.056360
v -0.279654 1.473702 -0.085558
v -0.288883 1.806298 -0.120000
v -0.347279 1.767279 -0.120000
v -0.386298 1.708883 -0.120000
v -0.400000 1.640000 -0.120000
v -0.386298 1.571117 -0.120000
v -0.347279 1.512721 -0.120000
v -0.288883 1.473702 -0.120000
v -0.279654 1.806298 -0.154442
v -0.330227 1.767279 -0.183640
v -0.364019 1.708883 -0.203149
v -0.375885 1.640000 -0.210000
v -0.364019 1.571117 -0.203149
v -0.330227 1.512721 -0.183640
v -0.279654 1.473702 -0.154442
v -0.254441 1.806298 -0.179654
v -0.283640 1.767279 -0.230227
v -0.303149 1.708883 -0.264019
v -0.310000 1.640000 -0.275885
v -0.303149 1.571117 -0.264019
v -0.283640 1.512721 -0.230227
v -0.254441 1.473702 -0.179654
v -0.220000 1.806298 -0.188883
v -0.220000 1.708883 -0.286298
v -0.220000 1.473702 -0.188883
v 0.220000 1.820000 -0.120000
v 0.220000 1.767279 -0.247279
v 0.220000 1.640000 -0.300000
v 0.220000 1.571117 -0.286298
v 0.220000 1.512721 -0.247279
v 0.220000 1.460000 -0.120000
v 0.254441 1.806298 -0.179654
v 0.283640 1.767279 -0.230227
v 0.303149 1.708883 -0.264019
v 0.310000 1.640000 -0.275885
v 0.303149 1.571117 -0.264019
v 0.283640 1.512721 -0.230227
v 0.254441 1.473702 -0.179654
v 0.279654 1.806298 -0.154442
v 0.330227 1.767279 -0.183640
v 0.364019 1.708883 -0.203149
v 0.375885 1.640000 -0.210000
v 0.364019 1.571117 -0.203149
v 0.330227 1.512721 -0.183640
v 0.279654 1.473702 -0.154442
v 0.288883 1.806298 -0.120000
v 0.347279 1.767279 -0.120000
v 0.386298 1.708883 -0.120000
v 0.400000 1.640000 -0.120000
v 0.386298 1.571117 -0.120000
v 0.347279 1.512721 -0.120000
v 0.288883 1.473702 -0.120000
v 0.279654 1.806298 -0.085558
v 0.330227 1.767279 -0.056360
v 0.364019 1.708883 -0.036851
v 0.375885 1.640000 -0.030000
v 0.364019 1.571117 -0.036851
v 0.330227 1.512721 -0.056360
v 0.279654 1.473702 -0.085558
v 0.254441 1.806298 -0.060346
v 0.283640 1.767279 -0.009773
v 0.303149 1.708883 0.024019
v 0.310000 1.640000 0.035885
v 0.303149 1.571117 0.024019
v 0.283640 1.512721 -0.009773
v 0.254441 1.473702 -0.060346
v 0.220000 1.806298 -0.051117
v 0.220000 1.767279 0.007279
v 0.220000 1.708883 0.046298
v 0.220000 1.640000 0.060000
v 0.220000 1.571117 0.046298
v 0.220000 1.512721 0.007279
v 0.220000 1.473702 -0.051117
v 0.185558 1.806298 -0.060346
v 0.156360 1.767279 -0.009773
v 0.136851 1.708883 0.024019
v 0.130000 1.640000 0.035885
v 0.136851 1.571117 0.024019
v 0.156360 1.512721 -0.009773
v 0.185558 1.473702 -0.060346
v 0.160346 1.806298 -0.085558
v 0.109773 1.767279 -0.056360
v 0.075981 1.708883 -0.036851
v 0.064115 1.640000 -0.030000
v 0.075981 1.571117 -0.036851
v 0.109773 1.512721 -0.056360
v 0.160346 1.473702 -0.085558
v 0.151117 1.806298 -0.120000
v 0.092721 1.767279 -0.120000
v 0.053702 1.708883 -0.120000
v 0.040000 1.640000 -0.120000
v 0.053702 1.571117 -0.120000
v 0.092721 1.512721 -0.120000
v 0.151117 1.473702 -0.120000
v 0.160346 1.806298 -0.154442
v 0.109773 1.767279 -0.183640
v 0.075981 1.708883 -0.203149
v 0.064115 1.640000 -0.210000
v 0.075981 1.571117 -0.203149
v 0.109773 1.512721 -0.183640
v 0.160346 1.473702 -0.154442
v 0.185558 1.806298 -0.179654
v 0.156360 1.767279 -0.230227
v 0.136851 1.708883 -0.264019
v 0.130000 1.640000 -0.275885
v 0.136851 1.571117 -0.264019
v 0.156360 1.512721 -0.230227
v 0.185558 1.473702 -0.179654
v 0.220000 1.806298 -0.188883
v 0.220000 1.708883 -0.286298
v 0.220000 1.473702 -0.188883
v 0.000000 1.820000 -0.350000
v 0.000000 1.767279 -0.477279
v 0.000000 1.640000 -0.530000
v 0.000000 1.571117 -0.516298
v 0.000000 1.512721 -0.477279
v 0.000000 1.460000 -0.350000
v 0.034442 1.806298 -0.409654
v 0.063640 1.767279 -0.460227
v 0.083149 1.708883 -0.494019
v 0.090000 1.640000 -0.505885
v 0.083149 1.571117 -0.494019
v 0.063640 1.512721 -0.460227
v 0.034442 1.473702 -0.409654
v 0.059654 1.806298 -0.384441
v 0.110227 1.767279 -0.413640
v 0.144019 1.708883 -0.433149
v 0.155885 1.640000 -0.440000
v 0.144019 1.571117 -0.433149
v 0.110227 1.512721 -0.413640
v 0.059654 1.473702 -0.384441
v 0.068883 1.806298 -0.350000
v 0.127279 1.767279 -0.350000
v 0.166298 1.708883 -0.350000
v 0.180000 1.640000 -0.350000
v 0.166298 1.571117 -0.350000
v 0.127279 1.512721 -0.350000
v 0.068883 1.473702 -0.350000
v 0.059654 1.806298 -0.315558
v 0.110227 1.767279 -0.286360
v 0.144019 1.708883 -0.266851
v 0.155885 1.640000 -0.260000
v 0.144019 1.571117 -0.266851
v 0.110227 1.512721 -0.286360
v 0.059654 1.473702 -0.315558
v 0.034442 1.806298 -0.290346
v 0.063640 1.767279 -0.239773
v 0.083149 1.708883 -0.205981
v 0.090000 1.640000 -0.194115
v 0.083149 1.571117 -0.205981
v 0.063640 1.512721 -0.239773
v 0.034442 1.473702 -0.290346
v -0.000000 1.806298 -0.281117
v 0.000000 1.767279 -0.222721
v -0.000000 1.708883 -0.183702
v 0.000000 1.640000 -0.170000
v -0.000000 1.571117 -0.183702
v 0.000000 1.512721 -0.222721
v -0.000000 1.473702 -0.281117
v -0.034442 1.806298 -0.290346
v -0.063640 1.767279 -0.239773
v -0.083149 1.708883 -0.205981
v -0.090000 1.640000 -0.194115
v -0.083149 1.571117 -0.205981
v -0.063640 1.512721 -0.239773
v -0.034442 1.473702 -0.290346
v -0.059654 1.806298 -0.315558
v -0.110227 1.767279 -0.286360
v -0.144019 1.708883 -0.266851
v -0.155885 1.640000 -0.260000
v -0.144019 1.571117 -0.266851
v -0.110227 1.512721 -0.286360
v -0.059654 1.473702 -0.315558
v -0.068883 1.806298 -0.350000
v -0.127279 1.767279 -0.350000
v -0.166298 1.708883 -0.350000
v -0.180000 1.640000 -0.350000
v -0.166298 1.571117 -0.350000
v -0.127279 1.512721 -0.350000
v -0.068883 1.473702 -0.350000
v -0.059654 1.806298 -0.384441
v -0.110227 1.767279 -0.413640
v -0.144019 1.708883 -0.433149
v -0.155885 1.640000 -0.440000
v -0.144019 1.571117 -0.433149
v -0.110227 1.512721 -0.413640
v -0.059654 1.473702 -0.384441
v -0.034442 1.806298 -0.409654
v -0.063640 1.767279 -0.460227
v -0.083149 1.708883 -0.494019
v -0.090000 1.640000 -0.505885
v -0.083149 1.571117 -0.494019
v -0.063640 1.512721 -0.460227
v -0.034442 1.473702 -0.409654
v 0.000000 1.806298 -0.418883
v 0.000000 1.708883 -0.516298
v 0.000000 1.473702 -0.418883
v 0.000000 1.820000 0.080000
v 0.000000 1.767279 -0.047279
v 0.000000 1.640000 -0.100000
v 0.000000 1.571117 -0.086298
v 0.000000 1.512721 -0.047279
v 0.000000 1.460000 0.080000
v 0.034442 1.806298 0.020346
v 0.063640 1.767279 -0.030227
v 0.083149 1.708883 -0.064019
v 0.090000 1.640000 -0.075885
v 0.083149 1.571117 -0.064019
v 0.063640 1.512721 -0.030227
v 0.034442 1.473702 0.020346
v 0.059654 1.806298 0.045558
v 0.110227 1.767279 0.016360
v 0.144019 1.708883 -0.003149
v 0.155885 1.640000 -0.010000
v 0.144019 1.571117 -0.003149
v 0.110227 1.512721 0.016360
v 0.059654 1.473702 0.045558
v 0.068883 1.806298 0.080000
v 0.127279 1.767279 0.080000
v 0.166298 1.708883 0.080000
v 0.180000 1.640000 0.080000
v 0.166298 1.571117 0.080000
v 0.127279 1.512721 0.080000
v 0.068883 1.473702 0.080000
v 0.059654 1.806298 0.114442
v 0.110227 1.767279 0.143640
v 0.144019 1.708883 0.163149
v 0.155885 1.640000 0.170000
v 0.144019 1.571117 0.163149
v 0.110227 1.512721 0.143640
v 0.059654 1.473702 0.114442
v 0.034442 1.806298 0.139654
v 0.063640 1.767279 0.190227
v 0.083149 1.708883 0.224019
v 0.090000 1.640000 0.235885
v 0.083149 1.571117 0.224019
v 0.063640 1.512721 0.190227
v 0.034442 1.473702 0.139654
v -0.000000 1.806298 0.148883
v 0.000000 1.767279 0.207279
v -0.000000 1.708883 0.246298
v 0.000000 1.640000 0.260000
v -0.000000 1.571117 0.246298
v 0.000000 1.512721 0.207279
v -0.000000 1.473702 0.148883
v -0.034442 1.806298 0.139654
v -0.063640 1.767279 0.190227
v -0.083149 1.708883 0.224019
v -0.090000 1.640000 0.235885
v -0.083149 1.571117 0.224019
v -0.063640 1.512721 0.190227
v -0.034442 1.473702 0.139654
v -0.059654 1.806298 0.114441
v -0.110227 1.767279 0.143640
v -0.144019 1.708883 0.163149
v -0.155885 1.640000 0.170000
v -0.144019 1.571117 0.163149
v -0.110227 1.512721 0.143640
v -0.059654 1.473702 0.114441
v -0.068883 1.806298 0.080000
v -0.127279 1.767279 0.080000
v -0.166298 1.708883 0.080000
v -0.180000 1.640000 0.080000
v -0.166298 1.571117 0.080000
v -0.127279 1.512721 0.080000
v -0.068883 1.473702 0.080000
v -0.059654 1.806298 0.045558
v -0.110227 1.767279 0.016360
v -0.144019 1.708883 -0.003149
v -0.155885 1.640000 -0.010000
v -0.144019 1.571117 -0.003149
v -0.110227 1.512721 0.016360
v -0.059654 1.473702 0.045558
v -0.034442 1.806298 0.020346
v -0.063640 1.767279 -0.030227
v -0.083149 1.708883 -0.064019
v -0.090000 1.640000 -0.075885
v -0.083149 1.571117 -0.064019
v -0.063640 1.512721 -0.030227
v -0.034442 1.473702 0.020346
v 0.000000 1.806298 0.011117
v 0.000000 1.708883 -0.086298
v 0.000000 1.473702 0.011117
vn 0.5454 -0.8382 0.0059
vn 0.6507 -0.7302 0.2086
vn -0.0000 -1.0000 -0.0000
vn 0.5497 -0.7567 0.3539
vn 0.4321 -0.7658 0.4762
vn 0.2977 -0.7593 0.5786
vn 0.1433 -0.7360 0.6616
vn 0.0022 -0.6372 0.7707
vn -0.0059 -0.8382 0.5454
vn -0.2086 -0.7302 0.6507
vn -0.3539 -0.7567 0.5497
vn -0.4762 -0.7658 0.4321
vn -0.5786 -0.7593 0.2977
vn -0.6616 -0.7360 0.1433
vn -0.7707 -0.6372 0.0022
vn -0.5454 -0.8382 -0.0059
vn -0.6507 -0.7302 -0.2086
vn -0.5497 -0.7567 -0.3539
vn -0.4321 -0.7658 -0.4762
vn -0.2977 -0.7593 -0.5786
vn -0.1433 -0.7360 -0.6616
vn -0.0022 -0.6372 -0.7707
vn 0.0059 -0.8382 -0.5454
vn 0.2086 -0.7302 -0.6507
vn 0.3539 -0.7567 -0.5497
vn 0.4762 -0.7658 -0.4321
vn 0.5786 -0.7593 -0.2977
vn 0.6616 -0.7360 -0.1433
vn 0.7707 -0.6372 -0.0022
vn 0.9336 0.2495 0.2571
vn 0.9807 0.1955 0.0071
vn 0.8273 0.2828 0.4853
vn 0.6713 0.2936 0.6806
vn 0.4740 0.2818 0.8342
vn 0.2443 0.2473 0.9376
vn 0.0075 0.1940 0.9810
vn -0.0071 0.1955 0.9807
vn -0.2571 0.2495 0.9336
vn -0.4853 0.2828 0.8273
vn -0.6806 0.2936 0.6713
vn -0.8342 0.2818 0.4740
vn -0.9376 0.2473 0.2443
vn -0.9810 0.1940 0.0075
vn -0.9807 0.1955 -0.0071
vn -0.9336 0.2495 -0.2571
vn -0.8273 0.2828 -0.4853
vn -0.6713 0.2936 -0.6806
vn -0.4740 0.2818 -0.8342
vn -0.2443 0.2473 -0.9376
vn -0.0075 0.1940 -0.9810
vn 0.0071 0.1955 -0.9807
vn 0.2571 0.2495 -0.9336
vn 0.4853 0.2828 -0.8273
vn 0.6806 0.2936 -0.6713
vn 0.8342 0.2818 -0.4740
vn 0.9376 0.2473 -0.2443
vn 0.9810 0.1940 -0.0075
vn 0.9174 0.3339 0.2164
vn 0.9708 0.2397 0.0057
vn 0.8183 0.3697 0.4401
vn 0.6726 0.3829 0.6332
vn 0.4878 0.3737 0.7889
vn 0.2705 0.3419 0.9000
vn 0.0155 0.3346 0.9422
vn -0.0056 0.2398 0.9708
vn -0.2164 0.3339 0.9174
vn -0.4401 0.3697 0.8183
vn -0.6332 0.3829 0.6726
vn -0.7889 0.3737 0.4878
vn -0.9000 0.3419 0.2705
vn -0.9422 0.3346 0.0155
vn -0.9708 0.2398 -0.0056
vn -0.9174 0.3339 -0.2164
vn -0.8183 0.3697 -0.4401
vn -0.6726 0.3829 -0.6332
vn -0.4878 0.3737 -0.7889
vn -0.2705 0.3419 -0.9000
vn -0.0155 0.3346 -0.9422
vn 0.0056 0.2398 -0.9708
vn 0.2164 0.3339 -0.9174
vn 0.4401 0.3697 -0.8183
vn 0.6332 0.3829 -0.6726
vn 0.7889 0.3737 -0.4878
vn 0.9000 0.3419 -0.2705
vn 0.9422 0.3346 -0.0155
vn 0.0685 0.9976 -0.0031
vn 0.2319 0.9727 -0.0012
vn 0.0622 0.9980 0.0137
vn 0.0553 0.9981 0.0287
vn 0.0473 0.9979 0.0432
vn 0.0375 0.9976 0.0587
vn 0.0027 0.9987 -0.0509
vn 0.0012 0.9727 0.2319
vn 0.0031 0.9976 0.0685
vn -0.0137 0.9980 0.0622
vn -0.0287 0.9981 0.0553
vn -0.0432 0.9979 0.0473
vn -0.0587 0.9976 0.0375
vn 0.0509 0.9987 0.0027
vn -0.2319 0.9727 0.0012
vn -0.0685 0.9976 0.0031
vn -0.0622 0.9980 -0.0137
vn -0.0553 0.9981 -0.0287
vn -0.0473 0.9979 -0.0432
vn -0.0375 0.9976 -0.0587
vn -0.0027 0.9987 0.0509
vn -0.0012 0.9727 -0.2319
vn -0.0031 0.9976 -0.0685
vn 0.0137 0.9980 -0.0622
vn 0.0287 0.9981 -0.0553
vn 0.0432 0.9979 -0.0473
vn 0.0587 0.9976 -0.0375
vn -0.0509 0.9987 -0.0027
vn -0.2401 0.9689 -0.0590
vn -0.2915 0.9566 -0.0026
vn -0.2006 0.9734 -0.1104
vn -0.1608 0.9749 -0.1543
vn -0.1178 0.9738 -0.1945
vn -0.0680 0.9698 -0.2341
vn -0.0045 0.9649 -0.2627
vn 0.0026 0.9566 -0.2915
vn 0.0590 0.9689 -0.2401
vn 0.1104 0.9734 -0.2007
vn 0.1543 0.9749 -0.1608
vn 0.1945 0.9738 -0.1178
vn 0.2341 0.9698 -0.0680
vn 0.2627 0.9649 -0.0045
vn 0.2915 0.9566 0.0026
vn 0.2401 0.9689 0.0590
vn 0.2006 0.9734 0.1104
vn 0.1608 0.9749 0.1543
vn 0.1178 0.9738 0.1945
vn 0.0680 0.9698 0.2341
vn 0.0045 0.9649 0.2627
vn -0.0026 0.9566 0.2915
vn -0.0590 0.9689 0.2401
vn -0.1104 0.9734 0.2007
vn -0.1543 0.9749 0.1608
vn -0.1945 0.9738 0.1178
vn -0.2341 0.9698 0.0680
vn -0.2627 0.9649 0.0045
vn -0.1449 0.9889 -0.0316
vn -0.1735 0.9848 -0.0011
vn -0.1228 0.9904 -0.0633
vn -0.0995 0.9909 -0.0905
vn -0.0738 0.9906 -0.1150
vn -0.0441 0.9894 -0.1380
vn -0.0036 0.9892 -0.1463
vn 0.0011 0.9848 -0.1735
vn 0.0316 0.9889 -0.1449
vn 0.0633 0.9904 -0.1228
vn 0.0905 0.9909 -0.0995
vn 0.1150 0.9906 -0.0738
vn 0.1381 0.9894 -0.0441
vn 0.1463 0.9892 -0.0036
vn 0.1735 0.9848 0.0011
vn 0.1449 0.9889 0.0316
vn 0.1228 0.9904 0.0633
vn 0.0995 0.9909 0.0905
vn 0.0738 0.9906 0.1150
vn 0.0441 0.9894 0.1380
vn 0.0036 0.9892 0.1463
vn -0.0011 0.9848 0.1735
vn -0.0316 0.9889 0.1449
vn -0.0633 0.9904 0.1228
vn -0.0905 0.9909 0.0995
vn -0.1150 0.9906 0.0738
vn -0.1381 0.9894 0.0441
vn -0.1463 0.9892 0.0036
vn -0.0000 1.0000 -0.0000
vn -0.1794 -0.9673 0.1794
vn -0.1726 -0.6965 0.6965
vn -0.5773 -0.5774 0.5773
vn -0.6965 -0.6965 0.1726
vn -0.1794 -0.1794 0.9673
vn -0.6965 -0.1726 0.6965
vn -0.9673 -0.1794 0.1794
vn -0.1794 0.1794 0.9673
vn -0.1726 0.6965 0.6965
vn -0.5774 0.5773 0.5774
vn -0.6965 0.1726 0.6965
vn -0.1794 0.9673 0.1794
vn -0.6965 0.6965 0.1726
vn -0.9673 0.1794 0.1794
vn -0.1794 -0.9673 -0.1794
vn -0.6965 -0.6965 -0.1726
vn -0.5773 -0.5774 -0.5773
vn -0.1726 -0.6965 -0.6965
vn -0.9673 -0.1794 -0.1794
vn -0.6965 -0.1726 -0.6965
vn -0.1794 -0.1794 -0.9673
vn -0.1794 0.9673 -0.1794
vn -0.1726 0.6965 -0.6965
vn -0.5774 0.5773 -0.5774
vn -0.6965 0.6965 -0.1726
vn -0.1794 0.1794 -0.9673
vn -0.6965 0.1726 -0.6965
vn -0.9673 0.1794 -0.1794
vn 0.1794 -0.9673 0.1794
vn 0.6965 -0.6965 0.1726
vn 0.5773 -0.5774 0.5773
vn 0.1726 -0.6965 0.6965
vn 0.9673 -0.1794 0.1794
vn 0.6965 -0.1726 0.6965
vn 0.1794 -0.1794 0.9673
vn 0.1794 0.9673 0.1794
vn 0.1726 0.6965 0.6965
vn 0.5774 0.5773 0.5774
vn 0.6965 0.6965 0.1726
vn 0.1794 0.1794 0.9673
vn 0.6965 0.1726 0.6965
vn 0.9673 0.1794 0.1794
vn 0.1794 -0.9673 -0.1794
vn 0.1726 -0.6965 -0.6965
vn 0.5773 -0.5774 -0.5773
vn 0.6965 -0.6965 -0.1726
vn 0.1794 -0.1794 -0.9673
vn 0.6965 -0.1726 -0.6965
vn 0.9673 -0.1794 -0.1794
vn 0.1794 0.9673 -0.1794
vn 0.6965 0.6965 -0.1726
vn 0.5774 0.5773 -0.5774
vn 0.1726 0.6965 -0.6965
vn 0.9673 0.1794 -0.1794
vn 0.6965 0.1726 -0.6965
vn 0.1794 0.1794 -0.9673
vn -0.0000 -0.9122 -0.4097
vn 0.2049 -0.9122 -0.3548
vn -0.0000 -0.6913 -0.7226
vn -0.0000 -0.3718 -0.9283
vn 0.4642 -0.3718 -0.8040
vn 0.3613 -0.6913 -0.6258
vn -0.0000 -0.0000 -1.0000
vn -0.0000 0.3718 -0.9283
vn 0.4642 0.3718 -0.8040
vn 0.5000 -0.0000 -0.8660
vn -0.0000 0.6913 -0.7226
vn -0.0000 0.9122 -0.4097
vn 0.2049 0.9122 -0.3548
vn 0.3613 0.6913 -0.6258
vn 0.3548 0.9122 -0.2049
vn 0.6258 0.6913 -0.3613
vn 0.6258 -0.6913 -0.3613
vn 0.3548 -0.9122 -0.2049
vn 0.8660 -0.0000 -0.5000
vn 0.8040 -0.3718 -0.4642
vn 0.8040 0.3718 -0.4642
vn 0.7226 -0.6913 -0.0000
vn 0.4097 -0.9122 -0.0000
vn 1.0000 -0.0000 -0.0000
vn 0.9283 -0.3718 -0.0000
vn 0.7226 0.6913 -0.0000
vn 0.9283 0.3718 -0.0000
vn 0.4097 0.9122 -0.0000
vn 0.3548 0.9122 0.2049
vn 0.3548 -0.9122 0.2049
vn 0.8040 -0.3718 0.4642
vn 0.6258 -0.6913 0.3613
vn 0.8040 0.3718 0.4642
vn 0.8660 -0.0000 0.5000
vn 0.6258 0.6913 0.3613
vn 0.4642 -0.3718 0.8040
vn 0.3613 -0.6913 0.6258
vn 0.4642 0.3718 0.8040
vn 0.5000 -0.0000 0.8660
vn 0.2049 0.9122 0.3548
vn 0.3613 0.6913 0.6258
vn 0.2049 -0.9122 0.3548
vn -0.0000 -0.6913 0.7226
vn -0.0000 -0.9122 0.4097
vn -0.0000 -0.0000 1.0000
vn -0.0000 -0.3718 0.9283
vn -0.0000 0.6913 0.7226
vn -0.0000 0.3718 0.9283
vn -0.0000 0.9122 0.4097
vn -0.5000 -0.0000 0.8660
vn -0.4642 -0.3718 0.8040
vn -0.3613 0.6913 0.6258
vn -0.4642 0.3718 0.8040
vn -0.2048 0.9122 0.3548
vn -0.2049 -0.9122 0.3548
vn -0.3613 -0.6913 0.6258
vn -0.3548 -0.9122 0.2049
vn -0.8040 -0.3718 0.4642
vn -0.6258 -0.6913 0.3613
vn -0.8040 0.3718 0.4642
vn -0.8660 -0.0000 0.5000
vn -0.3548 0.9122 0.2049
vn -0.6258 0.6913 0.3613
vn -0.9283 0.3718 -0.0000
vn -1.0000 -0.0000 -0.0000
vn -0.4097 0.9122 -0.0000
vn -0.7226 0.6913 -0.0000
vn -0.7226 -0.6913 -0.0000
vn -0.4097 -0.9122 -0.0000
vn -0.9283 -0.3718 -0.0000
vn -0.6258 -0.6913 -0.3613
vn -0.3548 -0.9122 -0.2049
vn -0.8660 -0.0000 -0.5000
vn -0.8040 -0.3718 -0.4642
vn -0.6258 0.6913 -0.3613
vn -0.8040 0.3718 -0.4642
vn -0.3548 0.9122 -0.2049
vn -0.3613 0.6913 -0.6258
vn -0.4642 0.3718 -0.8040
vn -0.2049 0.9122 -0.3548
vn -0.2049 -0.9122 -0.3548
vn -0.4642 -0.3718 -0.8040
vn -0.3613 -0.6913 -0.6258
vn -0.5000 -0.0000 -0.8660
vn -0.2049 0.9122 0.3548
s 1
f 2//1 3//2 1//3
f 3//2 4//4 1//3
f 4//4 5//5 1//3
f 5//5 6//6 1//3
f 6//6 7//7 1//3
f 7//7 8//8 1//3
f 8//8 9//9 1//3
f 9//9 10//10 1//3
f 10//10 11//11 1//3
f 11//11 12//12 1//3
f 12//12 13//13 1//3
f 13//13 14//14 1//3
f 14//14 15//15 1//3
f 15//15 16//16 1//3
f 16//16 17//17 1//3
f 17//17 18//18 1//3
f 18//18 19//19 1//3
f 19//19 20//20 1//3
f 20//20 21//21 1//3
f 21//21 22//22 1//3
f 22//22 23//23 1//3
f 23//23 24//24 1//3
f 24//24 25//25 1//3
f 25//25 26//26 1//3
f 26//26 27//27 1//3
f 27//27 28//28 1//3
f 28//28 29//29 1//3
f 29//29 2//1 1//3
f 31//30 3//2 2//1
f 30//31 31//30 2//1
f 32//32 4//4 3//2
f 31//30 32//32 3//2
f 33//33 5//5 4//4
f 32//32 33//33 4//4
f 34//34 6//6 5//5
f 33//33 34//34 5//5
f 35//35 7//7 6//6
f 34//34 35//35 6//6
f 36//36 8//8 7//7
f 35//35 36//36 7//7
f 37//37 9//9 8//8
f 36//36 37//37 8//8
f 38//38 10//10 9//9
f 37//37 38//38 9//9
f 39//39 11//11 10//10
f 38//38 39//39 10//10
f 40//40 12//12 11//11
f 39//39 40//40 11//11
f 41//41 13//13 12//12
f 40//40 41//41 12//12
f 42//42 14//14 13//13
f 41//41 42//42 13//13
f 43//43 15//15 14//14
f 42//42 43//43 14//14
f 44//44 16//16 15//15
f 43//43 44//44 15//15
f 45//45 17//17 16//16
f 44//44 45//45 16//16
f 46//46 18//18 17//17
f 45//45 46//46 17//17
f 47//47 19//19 18//18
f 46//46 47//47 18//18
f 48//48 20//20 19//19
f 47//47 48//48 19//19
f 49//49 21//21 20//20
f 48//48 49//49 20//20
f 50//50 22//22 21//21
f 49//49 50//50 21//21
f 51//51 23//23 22//22
f 50//50 51//51 22//22
f 52//52 24//24 23//23
f 51//51 52//52 23//23
f 53//53 25//25 24//24
f 52//52 53//53 24//24
f 54//54 26//26 25//25
f 53//53 54//54 25//25
f 55//55 27//27 26//26
f 54//54 55//55 26//26
f 56//56 28//28 27//27
f 55//55 56//56 27//27
f 57//57 29//29 28//28
f 56//56 57//57 28//28
f 30//31 2//1 29//29
f 57//57 30//31 29//29
f 59//58 31//30 30//31
f 58//59 59//58 30//31
f 60//60 32//32 31//30
f 59//58 60//60 31//30
f 61//61 33//33 32//32
f 60//60 61//61 32//32
f 62//62 34//34 33//33
f 61//61 62//62 33//33
f 63//63 35//35 34//34
f 62//62 63//63 34//34
f 64//64 36//36 35//35
f 63//63 64//64 35//35
f 65//65 37//37 36//36
f 64//64 65//65 36//36
f 66//66 38//38 37//37
f 65//65 66//66 37//37
f 67//67 39//39 38//38
f 66//66 67//67 38//38
f 68//68 40//40 39//39
f 67//67 68//68 39//39
f 69//69 41//41 40//40
f 68//68 69//69 40//40
f 70//70 42//42 41//41
f 69//69 70//70 41//41
f 71//71 43//43 42//42
f 70//70 71//71 42//42
f 72//72 44//44 43//43
f 71//71 72//72 43//43
f 73//73 45//45 44//44
f 72//72 73//73 44//44
f 74//74 46//46 45//45
f 73//73 74//74 45//45
f 75//75 47//47 46//46
f 74//74 75//75 46//46
f 76//76 48//48 47//47
f 75//75 76//76 47//47
f 77//77 49//49 48//48
f 76//76 77//77 48//48
f 78//78 50//50 49//49
f 77//77 78//78 49//49
f 79//79 51//51 50//50
f 78//78 79//79 50//50
f 80//80 52//52 51//51
f 79//79 80//80 51//51
f 81//81 53//53 52//52
f 80//80 81//81 52//52
f 82//82 54//54 53//53
f 81//81 82//82 53//53
f 83//83 55//55 54//54
f 82//82 83//83 54//54
f 84//84 56//56 55//55
f 83//83 84//84 55//55
f 85//85 57//57 56//56
f 84//84 85//85 56//56
f 58//59 30//31 57//57
f 85//85 58//59 57//57
f 87//86 59//58 58//59
f 86//87 87//86 58//59
f 88//88 60//60 59//58
f 87//86 88//88 59//58
f 89//89 61//61 60//60
f 88//88 89//89 60//60
f 90//90 62//62 61//61
f 89//89 90//90 61//61
f 91//91 63//63 62//62
f 90//90 91//91 62//62
f 92//92 64//64 63//63
f 91//91 92//92 63//63
f 93//93 65//65 64//64
f 92//92 93//93 64//64
f 94//94 66//66 65//65
f 93//93 94//94 65//65
f 95//95 67//67 66//66
f 94//94 95//95 66//66
f 96//96 68//68 67//67
f 95//95 96//96 67//67
f 97//97 69//69 68//68
f 96//96 97//97 68//68
f 98//98 70//70 69//69
f 97//97 98//98 69//69
f 99//99 71//71 70//70
f 98//98 99//99 70//70
f 100//100 72//72 71//71
f 99//99 100//100 71//71
f 101//101 73//73 72//72
f 100//100 101//101 72//72
f 102//102 74//74 73//73
f 101//101 102//102 73//73
f 103//103 75//75 74//74
f 102//102 103//103 74//74
f 104//104 76//76 75//75
f 103//103 104//104 75//75
f 105//105 77//77 76//76
f 104//104 105//105 76//76
f 106//106 78//78 77//77
f 105//105 106//106 77//77
f 107//107 79//79 78//78
f 106//106 107//107 78//78
f 108//108 80//80 79//79
f 107//107 108//108 79//79
f 109//109 81//81 80//80
f 108//108 109//109 80//80
f 110//110 82//82 81//81
f 109//109 110//110 81//81
f 111//111 83//83 82//82
f 110//110 111//111 82//82
f 112//112 84//84 83//83
f 111//111 112//112 83//83
f 113//113 85//85 84//84
f 112//112 113//113 84//84
f 86//87 58//59 85//85
f 113//113 86//87 85//85
f 115//114 87//86 86//87
f 114//115 115//114 86//87
f 116//116 88//88 87//86
f 115//114 116//116 87//86
f 117//117 89//89 88//88
f 116//116 117//117 88//88
f 118//118 90//90 89//89
f 117//117 118//118 89//89
f 119//119 91//91 90//90
f 118//118 119//119 90//90
f 120//120 92//92 91//91
f 119//119 120//120 91//91
f 121//121 93//93 92//92
f 120//120 121//121 92//92
f 122//122 94//94 93//93
f 121//121 122//122 93//93
f 123//123 95//95 94//94
f 122//122 123//123 94//94
f 124//124 96//96 95//95
f 123//123 124//124 95//95
f 125//125 97//97 96//96
f 124//124 125//125 96//96
f 126//126 98//98 97//97
f 125//125 126//126 97//97
f 127//127 99//99 98//98
f 126//126 127//127 98//98
f 128//128 100//100 99//99
f 127//127 128//128 99//99
f 129//129 101//101 100//100
f 128//128 129//129 100//100
f 130//130 102//102 101//101
f 129//129 130//130 101//101
f 131//131 103//103 102//102
f 130//130 131//131 102//102
f 132//132 104//104 103//103
f 131//131 132//132 103//103
f 133//133 105//105 104//104
f 132//132 133//133 104//104
f 134//134 106//106 105//105
f 133//133 134//134 105//105
f 135//135 107//107 106//106
f 134//134 135//135 106//106
f 136//136 108//108 107//107
f 135//135 136//136 107//107
f 137//137 109//109 108//108
f 136//136 137//137 108//108
f 138//138 110//110 109//109
f 137//137 138//138 109//109
f 139//139 111//111 110//110
f 138//138 139//139 110//110
f 140//140 112//112 111//111
f 139//139 140//140 111//111
f 141//141 113//113 112//112
f 140//140 141//141 112//112
f 114//115 86//87 113//113
f 141//141 114//115 113//113
f 143//142 115//114 114//115
f 142//143 143//142 114//115
f 144//144 116//116 115//114
f 143//142 144//144 115//114
f 145//145 117//117 116//116
f 144//144 145//145 116//116
f 146//146 118//118 117//117
f 145//145 146//146 117//117
f 147//147 119//119 118//118
f 146//146 147//147 118//118
f 148//148 120//120 119//119
f 147//147 148//148 119//119
f 149//149 121//121 120//120
f 148//148 149//149 120//120
f 150//150 122//122 121//121
f 149//149 150//150 121//121
f 151//151 123//123 122//122
f 150//150 151//151 122//122
f 152//152 124//124 123//123
f 151//151 152//152 123//123
f 153//153 125//125 124//124
f 152//152 153//153 124//124
f 154//154 126//126 125//125
f 153//153 154//154 125//125
f 155//155 127//127 126//126
f 154//154 155//155 126//126
f 156//156 128//128 127//127
f 155//155 156//156 127//127
f 157//157 129//129 128//128
f 156//156 157//157 128//128
f 158//158 130//130 129//129
f 157//157 158//158 129//129
f 159//159 131//131 130//130
f 158//158 159//159 130//130
f 160//160 132//132 131//131
f 159//159 160//160 131//131
f 161//161 133//133 132//132
f 160//160 161//161 132//132
f 162//162 134//134 133//133
f 161//161 162//162 133//133
f 163//163 135//135 134//134
f 162//162 163//163 134//134
f 164//164 136//136 135//135
f 163//163 164//164 135//135
f 165//165 137//137 136//136
f 164//164 165//165 136//136
f 166//166 138//138 137//137
f 165//165 166//166 137//137
f 167//167 139//139 138//138
f 166//166 167//167 138//138
f 168//168 140//140 139//139
f 167//167 168//168 139//139
f 169//169 141//141 140//140
f 168//168 169//169 140//140
f 142//143 114//115 141//141
f 169//169 142//143 141//141
f 170//170 143//142 142//143
f 170//170 144//144 143//142
f 170//170 145//145 144//144
f 170//170 146//146 145//145
f 170//170 147//147 146//146
f 170//170 148//148 147//147
f 170//170 149//149 148//148
f 170//170 150//150 149//149
f 170//170 151//151 150//150
f 170//170 152//152 151//151
f 170//170 153//153 152//152
f 170//170 154//154 153//153
f 170//170 155//155 154//154
f 170//170 156//156 155//155
f 170//170 157//157 156//156
f 170//170 158//158 157//157
f 170//170 159//159 158//158
f 170//170 160//160 159//159
f 170//170 161//161 160//160
f 170//170 162//162 161//161
f 170//170 163//163 162//162
f 170//170 164//164 163//163
f 170//170 165//165 164//164
f 170//170 166//166 165//165
f 170//170 167//167 166//166
f 170//170 168//168 167//167
f 170//170 169//169 168//168
f 170//170 142//143 169//169
f 171//171 174//172 175//173 177//174
f 172//175 176//176 175//173 174//172
f 173//177 177//174 175//173 176//176
f 178//178 181//179 182//180 184//181
f 179//182 183//183 182//180 181//179
f 180//184 184//181 182//180 183//183
f 185//185 188//186 189//187 191//188
f 186//189 190//190 189//187 188//186
f 187//191 191//188 189//187 190//190
f 192//192 195//193 196//194 198//195
f 193//196 197//197 196//194 195//193
f 194//198 198//195 196//194 197//197
f 199//199 202//200 203//201 205//202
f 200//203 204//204 203//201 202//200
f 201//205 205//202 203//201 204//204
f 206//206 209//207 210//208 212//209
f 207//210 211//211 210//208 209//207
f 208//212 212//209 210//208 211//211
f 213//213 216//214 217//215 219//216
f 214//217 218//218 217//215 216//214
f 215//219 219//216 217//215 218//218
f 220//220 223//221 224//222 226//223
f 221//224 225//225 224//222 223//221
f 222//226 226//223 224//222 225//225
f 185//185 171//171 177//174 188//186
f 188//186 177//174 173//177 186//189
f 172//175 178//178 184//181 176//176
f 176//176 184//181 180//184 173//177
f 179//182 192//192 198//195 183//183
f 183//183 198//195 194//198 180//184
f 193//196 187//191 190//190 197//197
f 197//197 190//190 186//189 194//198
f 213//213 185//185 191//188 216//214
f 216//214 191//188 187//191 214//217
f 192//192 220//220 226//223 195//193
f 195//193 226//223 222//226 193//196
f 221//224 215//219 218//218 225//225
f 225//225 218//218 214//217 222//226
f 199//199 213//213 219//216 202//200
f 202//200 219//216 215//219 200//203
f 220//220 206//206 212//209 223//221
f 223//221 212//209 208//212 221//224
f 207//210 201//205 204//204 211//211
f 211//211 204//204 200//203 208//212
f 171//171 199//199 205//202 174//172
f 174//172 205//202 201//205 172//175
f 206//206 179//182 181//179 209//207
f 209//207 181//179 178//178 207//210
f 185//185 213//213 199//199 171//171
f 173//177 180//184 194//198 186//189
f 201//205 207//210 178//178 172//175
f 220//220 192//192 179//182 206//206
f 187//191 193//196 222//226 214//217
f 215//219 221//224 208//212 200//203
f 232//3 312//227 239//228
f 231//229 230//230 237//231 238//232
f 229//233 311//234 235//235 236//236
f 228//237 310//238 233//239 234//240
f 312//227 231//229 238//232 239//228
f 230//230 229//233 236//236 237//231
f 311//234 228//237 234//240 235//235
f 310//238 227//170 233//239
f 234//240 233//239 240//241 241//242
f 239//228 238//232 245//243 246//244
f 237//231 236//236 243//245 244//246
f 235//235 234//240 241//242 242//247
f 233//239 227//170 240//241
f 232//3 239//228 246//244
f 238//232 237//231 244//246 245//243
f 236//236 235//235 242//247 243//245
f 246//244 245//243 252//248 253//249
f 244//246 243//245 250//250 251//251
f 242//247 241//242 248//252 249//253
f 240//241 227//170 247//254
f 232//3 246//244 253//249
f 245//243 244//246 251//251 252//248
f 243//245 242//247 249//253 250//250
f 241//242 240//241 247//254 248//252
f 247//254 227//170 254//255
f 232//3 253//249 260//256
f 252//248 251//251 258//257 259//258
f 250//250 249//253 256//259 257//260
f 248//252 247//254 254//255 255//261
f 253//249 252//248 259//258 260//256
f 251//251 250//250 257//260 258//257
f 249//253 248//252 255//261 256//259
f 259//258 258//257 265//262 266//263
f 257//260 256//259 263//264 264//265
f 255//261 254//255 261//266 262//267
f 260//256 259//258 266//263 267//268
f 258//257 257//260 264//265 265//262
f 256//259 255//261 262//267 263//264
f 254//255 227//170 261//266
f 232//3 260//256 267//268
f 267//268 266//263 273//269 274//270
f 265//262 264//265 271//271 272//272
f 263//264 262//267 269//273 270//274
f 261//266 227//170 268//275
f 232//3 267//268 274//270
f 266//263 265//262 272//272 273//269
f 264//265 263//264 270//274 271//271
f 262//267 261//266 268//275 269//273
f 272//272 271//271 278//276 279//277
f 270//274 269//273 276//278 277//279
f 268//275 227//170 275//280
f 232//3 274//270 281//281
f 273//269 272//272 279//277 280//282
f 271//271 270//274 277//279 278//276
f 269//273 268//275 275//280 276//278
f 274//270 273//269 280//282 281//281
f 232//3 281//281 288//283
f 280//282 279//277 286//284 287//285
f 278//276 277//279 284//286 285//287
f 276//278 275//280 282//288 283//289
f 281//281 280//282 287//285 288//283
f 279//277 278//276 285//287 286//284
f 277//279 276//278 283//289 284//286
f 275//280 227//170 282//288
f 285//287 284//286 291//290 292//291
f 283//289 282//288 289//292 290//293
f 288//283 287//285 294//294 295//295
f 286//284 285//287 292//291 293//296
f 284//286 283//289 290//293 291//290
f 282//288 227//170 289//292
f 232//3 288//283 295//295
f 287//285 286//284 293//296 294//294
f 295//295 294//294 301//297 302//298
f 293//296 292//291 299//299 300//300
f 291//290 290//293 297//301 298//302
f 289//292 227//170 296//303
f 232//3 295//295 302//298
f 294//294 293//296 300//300 301//297
f 292//291 291//290 298//302 299//299
f 290//293 289//292 296//303 297//301
f 298//302 297//301 304//304 305//305
f 296//303 227//170 303//306
f 232//3 302//298 309//307
f 301//297 300//300 307//308 308//309
f 299//299 298//302 305//305 306//310
f 297//301 296//303 303//306 304//304
f 302//298 301//297 308//309 309//307
f 300//300 299//299 306//310 307//308
f 232//3 309//307 312//227
f 308//309 307//308 230//230 231//229
f 306//310 305//305 311//234 229//233
f 304//304 303//306 310//238 228//237
f 309//307 308//309 231//229 312//227
f 307//308 306//310 229//233 230//230
f 305//305 304//304 228//237 311//234
f 303//306 227//170 310//238
f 398//227 317//229 324//232 325//228
f 316//230 315//233 322//236 323//231
f 397//234 314//237 320//240 321//235
f 396//238 313//170 319//239
f 318//3 398//227 325//228
f 317//229 316//230 323//231 324//232
f 315//233 397//234 321//235 322//236
f 314//237 396//238 319//239 320//240
f 318//3 325//228 332//244
f 324//232 323//231 330//246 331//243
f 322//236 321//235 328//247 329//245
f 320//240 319//239 326//241 327//242
f 325//228 324//232 331//243 332//244
f 323//231 322//236 329//245 330//246
f 321//235 320//240 327//242 328//247
f 319//239 313//170 326//241
f 329//245 328//247 335//253 336//250
f 327//242 326//241 333//254 334//252
f 332//244 331//243 338//248 339//249
f 330//246 329//245 336//250 337//251
f 328//247 327//242 334//252 335//253
f 326//241 313//170 333//254
f 318//3 332//244 339//249
f 331//243 330//246 337//251 338//248
f 339//249 338//248 345//258 346//256
f 337//251 336//250 343//260 344//257
f 335//253 334//252 341//261 342//259
f 333//254 313//170 340//255
f 318//3 339//249 346//256
f 338//248 337//251 344//257 345//258
f 336//250 335//253 342//259 343//260
f 334//252 333//254 340//255 341//261
f 342//259 341//261 348//267 349//264
f 340//255 313//170 347//266
f 318//3 346//256 353//268
f 345//258 344//257 351//262 352//263
f 343//260 342//259 349//264 350//265
f 341//261 340//255 347//266 348//267
f 346//256 345//258 352//263 353//268
f 344//257 343//260 350//265 351//262
f 318//3 353//268 360//270
f 352//263 351//262 358//272 359//269
f 350//265 349//264 356//274 357//271
f 348//267 347//266 354//275 355//273
f 353//268 352//263 359//269 360//270
f 351//262 350//265 357//271 358//272
f 349//264 348//267 355//273 356//274
f 347//266 313//170 354//275
f 355//273 354//275 361//280 362//278
f 360//270 359//269 366//282 367//281
f 358//272 357//271 364//276 365//277
f 356//274 355//273 362//278 363//279
f 354//275 313//170 361//280
f 318//3 360//270 367//281
f 359//269 358//272 365//277 366//282
f 357//271 356//274 363//279 364//276
f 367//281 366//282 373//285 374//283
f 365//277 364//276 371//287 372//284
f 363//279 362//278 369//289 370//286
f 361//280 313//170 368//288
f 318//3 367//281 374//283
f 366//282 365//277 372//284 373//285
f 364//276 363//279 370//286 371//287
f 362//278 361//280 368//288 369//289
f 368//288 313//170 375//292
f 318//3 374//283 381//295
f 373//285 372//284 379//296 380//294
f 371//287 370//286 377//290 378//291
f 369//289 368//288 375//292 376//293
f 374//283 373//285 380//294 381//295
f 372//284 371//287 378//291 379//296
f 370//286 369//289 376//293 377//290
f 380//294 379//296 386//300 387//297
f 378//291 377//290 384//302 385//299
f 376//293 375//292 382//303 383//301
f 381//295 380//294 387//297 388//298
f 379//296 378//291 385//299 386//300
f 377//290 376//293 383//301 384//302
f 375//292 313//170 382//303
f 318//3 381//295 388//298
f 388//298 387//297 394//309 395//307
f 386//300 385//299 392//310 393//308
f 384//302 383//301 390//304 391//305
f 382//303 313//170 389//306
f 318//3 388//298 395//307
f 387//297 386//300 393//308 394//309
f 385//299 384//302 391//305 392//310
f 383//301 382//303 389//306 390//304
f 393//308 392//310 315//233 316//230
f 391//305 390//304 314//237 397//234
f 389//306 313//170 396//238
f 318//3 395//307 398//227
f 394//309 393//308 316//230 317//229
f 392//310 391//305 397//234 315//233
f 390//304 389//306 396//238 314//237
f 395//307 394//309 317//229 398//227
f 401//233 483//234 407//235 408//236
f 400//237 482//238 405//239 406//240
f 484//227 403//229 410//232 411//228
f 402//230 401//233 408//236 409//231
f 483//234 400//237 406//240 407//235
f 482//238 399//170 405//239
f 404//3 484//227 411//228
f 403//229 402//230 409//231 410//232
f 411//228 410//232 417//243 418//244
f 409//231 408//236 415//245 416//246
f 407//235 406//240 413//242 414//247
f 405//239 399//170 412//241
f 404//3 411//228 418//244
f 410//232 409//231 416//246 417//243
f 408//236 407//235 414//247 415//245
f 406//240 405//239 412//241 413//242
f 412//241 399//170 419//254
f 404//3 418//244 425//249
f 417//243 416//246 423//251 424//248
f 415//245 414//247 421//253 422//250
f 413//242 412//241 419//254 420//252
f 418//244 417//243 424//248 425//249
f 416//246 415//245 422//250 423//251
f 414//247 413//242 420//252 421//253
f 424//248 423//251 430//257 431//258
f 422//250 421//253 428//259 429//260
f 420//252 419//254 426//255 427//261
f 425//249 424//248 431//258 432//256
f 423//251 422//250 429//260 430//257
f 421//253 420//252 427//261 428//259
f 419//254 399//170 426//255
f 404//3 425//249 432//256
f 432//256 431//258 438//263 439//268
f 430//257 429//260 436//265 437//262
f 428//259 427//261 434//267 435//264
f 426//255 399//170 433//266
f 404//3 432//256 439//268
f 431//258 430//257 437//262 438//263
f 429//260 428//259 435//264 436//265
f 427//261 426//255 433//266 434//267
f 437//262 436//265 443//271 444//272
f 435//264 434//267 441//273 442//274
f 433//266 399//170 440//275
f 404//3 439//268 446//270
f 438//263 437//262 444//272 445//269
f 436//265 435//264 442//274 443//271
f 434//267 433//266 440//275 441//273
f 439//268 438//263 445//269 446//270
f 404//3 446//270 453//281
f 445//269 444//272 451//277 452//282
f 443//271 442//274 449//279 450//276
f 441//273 440//275 447//311 448//278
f 446//270 445//269 452//282 453//281
f 444//272 443//271 450//276 451//277
f 442//274 441//273 448//278 449//279
f 440//275 399//170 447//311
f 450//276 449//279 456//286 457//287
f 448//278 447//311 454//288 455//289
f 453//281 452//282 459//285 460//283
f 451//277 450//276 457//287 458//284
f 449//279 448//278 455//289 456//286
f 447//311 399//170 454//288
f 404//3 453//281 460//283
f 452//282 451//277 458//284 459//285
f 460//283 459//285 466//294 467//295
f 458//284 457//287 464//291 465//296
f 456//286 455//289 462//293 463//290
f 454//288 399//170 461//292
f 404//3 460//283 467//295
f 459//285 458//284 465//296 466//294
f 457//287 456//286 463//290 464//291
f 455//289 454//288 461//292 462//293
f 463//290 462//293 469//301 470//302
f 461//292 399//170 468//303
f 404//3 467//295 474//298
f 466//294 465//296 472//300 473//297
f 464//291 463//290 470//302 471//299
f 462//293 461//292 468//303 469//301
f 467//295 466//294 473//297 474//298
f 465//296 464//291 471//299 472//300
f 404//3 474//298 481//307
f 473//297 472//300 479//308 480//309
f 471//299 470//302 477//305 478//310
f 469//301 468//303 475//306 476//304
f 474//298 473//297 480//309 481//307
f 472//300 471//299 478//310 479//308
f 470//302 469//301 476//304 477//305
f 468//303 399//170 475//306
f 476//304 475//306 482//238 400//237
f 481//307 480//309 403//229 484//227
f 479//308 478//310 401//233 402//230
f 477//305 476//304 400//237 483//234
f 475//306 399//170 482//238
f 404//3 481//307 484//227
f 480//309 479//308 402//230 403//229
f 478//310 477//305 483//234 401//233
f 568//238 485//170 491//239
f 490//3 570//227 497//228
f 489//229 488//230 495//231 496//232
f 487//233 569//234 493//235 494//236
f 486//237 568//238 491//239 492//240
f 570//227 489//229 496//232 497//228
f 488//230 487//233 494//236 495//231
f 569//234 486//237 492//240 493//235
f 494//236 493//235 500//247 501//245
f 492//240 491//239 498//241 499//242
f 497//228 496//232 503//243 504//244
f 495//231 494//236 501//245 502//246
f 493//235 492//240 499//242 500//247
f 491//239 485//170 498//241
f 490//3 497//228 504//244
f 496//232 495//231 502//246 503//243
f 504//244 503//243 510//248 511//249
f 502//246 501//245 508//250 509//251
f 500//247 499//242 506//252 507//253
f 498//241 485//170 505//254
f 490//3 504//244 511//249
f 503//243 502//246 509//251 510//248
f 501//245 500//247 507//253 508//250
f 499//242 498//241 505//254 506//252
f 507//253 506//252 513//261 514//259
f 505//254 485//170 512//255
f 490//3 511//249 518//256
f 510//248 509//251 516//257 517//258
f 508//250 507//253 514//259 515//260
f 506//252 505//254 512//255 513//261
f 511//249 510//248 517//258 518//256
f 509//251 508//250 515//260 516//257
f 490//3 518//256 525//268
f 517//258 516//257 523//262 524//263
f 515//260 514//259 521//264 522//265
f 513//261 512//255 519//266 520//267
f 518//256 517//258 524//263 525//268
f 516//257 515//260 522//265 523//262
f 514//259 513//261 520//267 521//264
f 512//255 485//170 519//266
f 520//267 519//266 526//275 527//273
f 525//268 524//263 531//269 532//270
f 523//262 522//265 529//271 530//272
f 521//264 520//267 527//273 528//274
f 519//266 485//170 526//275
f 490//3 525//268 532//270
f 524//263 523//262 530//272 531//269
f 522//265 521//264 528//274 529//271
f 532//270 531//269 538//282 539//281
f 530//272 529//271 536//276 537//277
f 528//274 527//273 534//278 535//279
f 526//275 485//170 533//311
f 490//3 532//270 539//281
f 531//269 530//272 537//277 538//282
f 529//271 528//274 535//279 536//276
f 527//273 526//275 533//311 534//278
f 533//311 485//170 540//288
f 490//3 539//281 546//283
f 538//282 537//277 544//284 545//285
f 536//276 535//279 542//286 543//287
f 534//278 533//311 540//288 541//289
f 539//281 538//282 545//285 546//283
f 537//277 536//276 543//287 544//284
f 535//279 534//278 541//289 542//286
f 545//285 544//284 551//296 552//294
f 543//287 542//286 549//290 550//291
f 541//289 540//288 547//292 548//293
f 546//283 545//285 552//294 553//295
f 544//284 543//287 550//291 551//296
f 542//286 541//289 548//293 549//290
f 540//288 485//170 547//292
f 490//3 546//283 553//295
f 553//295 552//294 559//297 560//298
f 551//296 550//291 557//299 558//300
f 549//290 548//293 555//301 556//302
f 547//292 485//170 554//303
f 490//3 553//295 560//298
f 552//294 551//296 558//300 559//297
f 550//291 549//290 556//302 557//299
f 548//293 547//292 554//303 555//301
f 558//300 557//299 564//310 565//308
f 556//302 555//301 562//304 563//305
f 554//303 485//170 561//306
f 490//3 560//298 567//307
f 559//297 558//300 565//308 566//309
f 557//299 556//302 563//305 564//310
f 555//301 554//303 561//306 562//304
f 560//298 559//297 566//309 567//307
f 490//3 567//307 570//227
f 566//309 565//308 488//230 489//229
f 564//310 563//305 569//234 487//233
f 562//304 561//306 568//238 486//237
f 567//307 566//309 489//229 570//227
f 565//308 564//310 487//233 488//230
f 563//305 562//304 486//237 569//234
f 561//306 485//170 568//238
