# Blender 5.2.2 LTS
# www.blender.org
o StickyShift
v 0.000000 0.000000 0.000000
v 1.100000 0.000000 0.836000
v 1.091002 0.000000 0.904332
v 1.064624 0.000000 0.968000
v 1.022670 0.000000 1.022670
v 0.968000 0.000000 1.064624
v 0.904332 0.000000 1.091002
v 0.836000 0.000000 1.100000
v -0.836000 0.000000 1.100000
v -0.904332 0.000000 1.091002
v -0.968000 0.000000 1.064624
v -1.022670 0.000000 1.022670
v -1.064624 0.000000 0.968000
v -1.091002 0.000000 0.904332
v -1.100000 0.000000 0.836000
v -1.100000 0.000000 -0.836000
v -1.091002 0.000000 -0.904332
v -1.064624 0.000000 -0.968000
v -1.022670 0.000000 -1.022670
v -0.968000 0.000000 -1.064624
v -0.904332 0.000000 -1.091002
v -0.836000 0.000000 -1.100000
v 0.836000 0.000000 -1.100000
v 0.904332 0.000000 -1.091002
v 0.968000 0.000000 -1.064624
v 1.022670 0.000000 -1.022670
v 1.064624 0.000000 -0.968000
v 1.091002 0.000000 -0.904332
v 1.100000 0.000000 -0.836000
v 0.979000 0.607200 0.671000
v 0.968506 0.607200 0.750706
v 0.937728 0.607200 0.825000
v 0.888778 0.607200 0.888778
v 0.825000 0.607200 0.937728
v 0.750706 0.607200 0.968506
v 0.671000 0.607200 0.979000
v -0.671000 0.607200 0.979000
v -0.750706 0.607200 0.968506
v -0.825000 0.607200 0.937728
v -0.888778 0.607200 0.888778
v -0.937728 0.607200 0.825000
v -0.968506 0.607200 0.750706
v -0.979000 0.607200 0.671000
v -0.979000 0.607200 -0.671000
v -0.968506 0.607200 -0.750706
v -0.937728 0.607200 -0.825000
v -0.888778 0.607200 -0.888778
v -0.825000 0.607200 -0.937728
v -0.750706 0.607200 -0.968506
v -0.671000 0.607200 -0.979000
v 0.671000 0.607200 -0.979000
v 0.750706 0.607200 -0.968506
v 0.825000 0.607200 -0.937728
v 0.888778 0.607200 -0.888778
v 0.937728 0.607200 -0.825000
v 0.968506 0.607200 -0.750706
v 0.979000 0.607200 -0.671000
v 0.858000 1.232000 0.506000
v 0.846010 1.232000 0.597102
v 0.810832 1.232000 0.682000
v 0.754908 1.232000 0.754908
v 0.682000 1.232000 0.810832
v 0.597102 1.232000 0.846010
v 0.506000 1.232000 0.858000
v -0.506000 1.232000 0.858000
v -0.597102 1.232000 0.846010
v -0.682000 1.232000 0.810832
v -0.754908 1.232000 0.754908
v -0.810832 1.232000 0.682000
v -0.846010 1.232000 0.597102
v -0.858000 1.232000 0.506000
v -0.858000 1.232000 -0.506000
v -0.846010 1.232000 -0.597102
v -0.810832 1.232000 -0.682000
v -0.754908 1.232000 -0.754908
v -0.682000 1.232000 -0.810832
v -0.597102 1.232000 -0.846010
v -0.506000 1.232000 -0.858000
v 0.506000 1.232000 -0.858000
v 0.597102 1.232000 -0.846010
v 0.682000 1.232000 -0.810832
v 0.754908 1.232000 -0.754908
v 0.810832 1.232000 -0.682000
v 0.846010 1.232000 -0.597102
v 0.858000 1.232000 -0.506000
v 0.770000 1.320000 0.462000
v 0.759506 1.320000 0.541706
v 0.728728 1.320000 0.616000
v 0.679778 1.320000 0.679778
v 0.616000 1.320000 0.728728
v 0.541706 1.320000 0.759506
v 0.462000 1.320000 0.770000
v -0.462000 1.320000 0.770000
v -0.541706 1.320000 0.759506
v -0.616000 1.320000 0.728728
v -0.679778 1.320000 0.679778
v -0.728728 1.320000 0.616000
v -0.759506 1.320000 0.541706
v -0.770000 1.320000 0.462000
v -0.770000 1.320000 -0.462000
v -0.759506 1.320000 -0.541706
v -0.728728 1.320000 -0.616000
v -0.679778 1.320000 -0.679778
v -0.616000 1.320000 -0.728728
v -0.541706 1.320000 -0.759506
v -0.462000 1.320000 -0.770000
v 0.462000 1.320000 -0.770000
v 0.541706 1.320000 -0.759506
v 0.616000 1.320000 -0.728728
v 0.679778 1.320000 -0.679778
v 0.728728 1.320000 -0.616000
v 0.759506 1.320000 -0.541706
v 0.770000 1.320000 -0.462000
v 0.554400 1.245838 0.300960
v 0.545754 1.245838 0.366564
v 0.520454 1.245838 0.427680
v 0.480172 1.245838 0.480172
v 0.427680 1.245838 0.520454
v 0.366564 1.245838 0.545754
v 0.300960 1.245838 0.554400
v -0.300960 1.245838 0.554400
v -0.366564 1.245838 0.545754
v -0.427680 1.245838 0.520454
v -0.480172 1.245838 0.480172
v -0.520454 1.245838 0.427680
v -0.545754 1.245838 0.366564
v -0.554400 1.245838 0.300960
v -0.554400 1.245838 -0.300960
v -0.545754 1.245838 -0.366564
v -0.520454 1.245838 -0.427680
v -0.480172 1.245838 -0.480172
v -0.427680 1.245838 -0.520454
v -0.366564 1.245838 -0.545754
v -0.300960 1.245838 -0.554400
v 0.300960 1.245838 -0.554400
v 0.366564 1.245838 -0.545754
v 0.427680 1.245838 -0.520454
v 0.480172 1.245838 -0.480172
v 0.520454 1.245838 -0.427680
v 0.545754 1.245838 -0.366564
v 0.554400 1.245838 -0.300960
v 0.323400 1.193170 0.175560
v 0.318362 1.193170 0.213818
v 0.303600 1.193170 0.249480
v 0.280104 1.193170 0.280104
v 0.249480 1.193170 0.303600
v 0.213818 1.193170 0.318362
v 0.175560 1.193170 0.323400
v -0.175560 1.193170 0.323400
v -0.213818 1.193170 0.318362
v -0.249480 1.193170 0.303600
v -0.280104 1.193170 0.280104
v -0.303600 1.193170 0.249480
v -0.318362 1.193170 0.213818
v -0.323400 1.193170 0.175560
v -0.323400 1.193170 -0.175560
v -0.318362 1.193170 -0.213818
v -0.303600 1.193170 -0.249480
v -0.280104 1.193170 -0.280104
v -0.249480 1.193170 -0.303600
v -0.213818 1.193170 -0.318362
v -0.175560 1.193170 -0.323400
v 0.175560 1.193170 -0.323400
v 0.213818 1.193170 -0.318362
v 0.249480 1.193170 -0.303600
v 0.280104 1.193170 -0.280104
v 0.303600 1.193170 -0.249480
v 0.318362 1.193170 -0.213818
v 0.323400 1.193170 -0.175560
v 0.000000 1.166000 -0.000000
v -0.310000 1.300000 0.150000
v -0.310000 1.340000 0.190000
v -0.350000 1.340000 0.150000
v -0.310000 1.311716 0.178284
v -0.333094 1.316906 0.173094
v -0.338284 1.340000 0.178284
v -0.338284 1.311716 0.150000
v -0.310000 1.360000 0.190000
v -0.310000 1.400000 0.150000
v -0.350000 1.360000 0.150000
v -0.310000 1.388284 0.178284
v -0.333094 1.383094 0.173094
v -0.338284 1.388284 0.150000
v -0.338284 1.360000 0.178284
v -0.310000 1.300000 -0.050000
v -0.350000 1.340000 -0.050000
v -0.310000 1.340000 -0.090000
v -0.338284 1.311716 -0.050000
v -0.333094 1.316906 -0.073094
v -0.338284 1.340000 -0.078284
v -0.310000 1.311716 -0.078284
v -0.310000 1.400000 -0.050000
v -0.310000 1.360000 -0.090000
v -0.350000 1.360000 -0.050000
v -0.310000 1.388284 -0.078284
v -0.333094 1.383094 -0.073094
v -0.338284 1.360000 -0.078284
v -0.338284 1.388284 -0.050000
v 0.310000 1.300000 0.150000
v 0.350000 1.340000 0.150000
v 0.310000 1.340000 0.190000
v 0.338284 1.311716 0.150000
v 0.333094 1.316906 0.173094
v 0.338284 1.340000 0.178284
v 0.310000 1.311716 0.178284
v 0.310000 1.400000 0.150000
v 0.310000 1.360000 0.190000
v 0.350000 1.360000 0.150000
v 0.310000 1.388284 0.178284
v 0.333094 1.383094 0.173094
v 0.338284 1.360000 0.178284
v 0.338284 1.388284 0.150000
v 0.310000 1.300000 -0.050000
v 0.310000 1.340000 -0.090000
v 0.350000 1.340000 -0.050000
v 0.310000 1.311716 -0.078284
v 0.333094 1.316906 -0.073094
v 0.338284 1.340000 -0.078284
v 0.338284 1.311716 -0.050000
v 0.310000 1.400000 -0.050000
v 0.350000 1.360000 -0.050000
v 0.310000 1.360000 -0.090000
v 0.338284 1.388284 -0.050000
v 0.333094 1.383094 -0.073094
v 0.338284 1.360000 -0.078284
v 0.310000 1.388284 -0.078284
v 0.000000 1.515000 -0.280000
v 0.000000 1.865000 -0.020000
v 0.140000 1.515000 -0.242487
v 0.010000 1.865000 -0.017321
v 0.242487 1.515000 -0.140000
v 0.017321 1.865000 -0.010000
v 0.280000 1.515000 0.000000
v 0.020000 1.865000 0.000000
v 0.242487 1.515000 0.140000
v 0.017321 1.865000 0.010000
v 0.140000 1.515000 0.242487
v 0.010000 1.865000 0.017321
v 0.000000 1.515000 0.280000
v 0.000000 1.865000 0.020000
v -0.140000 1.515000 0.242487
v -0.010000 1.865000 0.017321
v -0.242487 1.515000 0.140000
v -0.017321 1.865000 0.010000
v -0.280000 1.515000 0.000000
v -0.020000 1.865000 0.000000
v -0.242487 1.515000 -0.140000
v -0.017321 1.865000 -0.010000
v -0.140000 1.515000 -0.242487
v -0.010000 1.865000 -0.017321
v -0.030000 1.350000 0.030000
v -0.030000 1.390000 0.070000
v -0.070000 1.390000 0.030000
v -0.030000 1.361716 0.058284
v -0.053094 1.366906 0.053094
v -0.058284 1.390000 0.058284
v -0.058284 1.361716 0.030000
v -0.030000 1.530000 0.070000
v -0.030000 1.570000 0.030000
v -0.070000 1.530000 0.030000
v -0.030000 1.558284 0.058284
v -0.053094 1.553094 0.053094
v -0.058284 1.558284 0.030000
v -0.058284 1.530000 0.058284
v -0.030000 1.350000 -0.030000
v -0.070000 1.390000 -0.030000
v -0.030000 1.390000 -0.070000
v -0.058284 1.361716 -0.030000
v -0.053094 1.366906 -0.053094
v -0.058284 1.390000 -0.058284
v -0.030000 1.361716 -0.058284
v -0.030000 1.570000 -0.030000
v -0.030000 1.530000 -0.070000
v -0.070000 1.530000 -0.030000
v -0.030000 1.558284 -0.058284
v -0.053094 1.553094 -0.053094
v -0.058284 1.530000 -0.058284
v -0.058284 1.558284 -0.030000
v 0.030000 1.350000 0.030000
v 0.070000 1.390000 0.030000
v 0.030000 1.390000 0.070000
v 0.058284 1.361716 0.030000
v 0.053094 1.366906 0.053094
v 0.058284 1.390000 0.058284
v 0.030000 1.361716 0.058284
v 0.030000 1.570000 0.030000
v 0.030000 1.530000 0.070000
v 0.070000 1.530000 0.030000
v 0.030000 1.558284 0.058284
v 0.053094 1.553094 0.053094
v 0.058284 1.530000 0.058284
v 0.058284 1.558284 0.030000
v 0.030000 1.350000 -0.030000
v 0.030000 1.390000 -0.070000
v 0.070000 1.390000 -0.030000
v 0.030000 1.361716 -0.058284
v 0.053094 1.366906 -0.053094
v 0.058284 1.390000 -0.058284
v 0.058284 1.361716 -0.030000
v 0.030000 1.570000 -0.030000
v 0.070000 1.530000 -0.030000
v 0.030000 1.530000 -0.070000
v 0.058284 1.558284 -0.030000
v 0.053094 1.553094 -0.053094
v 0.058284 1.530000 -0.058284
v 0.030000 1.558284 -0.058284
v 0.000000 1.445000 -0.369537
v 0.000000 1.475000 -0.400000
v 0.000000 1.453787 -0.391078
v -0.000000 1.535000 -0.369537
v 0.000000 1.505000 -0.400000
v -0.000000 1.526213 -0.391078
v 0.126389 1.445000 -0.347251
v 0.136808 1.475000 -0.375877
v 0.133756 1.453787 -0.367493
v 0.126389 1.535000 -0.347251
v 0.136808 1.505000 -0.375877
v 0.133756 1.526213 -0.367493
v 0.237534 1.445000 -0.283082
v 0.257115 1.475000 -0.306418
v 0.251380 1.453787 -0.299583
v 0.237534 1.535000 -0.283082
v 0.257115 1.505000 -0.306418
v 0.251380 1.526213 -0.299583
v 0.320029 1.445000 -0.184769
v 0.346410 1.475000 -0.200000
v 0.338683 1.453787 -0.195539
v 0.320029 1.535000 -0.184769
v 0.346410 1.505000 -0.200000
v 0.338683 1.526213 -0.195539
v 0.363923 1.445000 -0.064169
v 0.393923 1.475000 -0.069459
v 0.385136 1.453787 -0.067910
v 0.363923 1.535000 -0.064169
v 0.393923 1.505000 -0.069459
v 0.385136 1.526213 -0.067910
v 0.363923 1.445000 0.064169
v 0.393923 1.475000 0.069459
v 0.385136 1.453787 0.067910
v 0.363923 1.535000 0.064169
v 0.393923 1.505000 0.069459
v 0.385136 1.526213 0.067910
v 0.320029 1.445000 0.184769
v 0.346410 1.475000 0.200000
v 0.338683 1.453787 0.195539
v 0.320029 1.535000 0.184769
v 0.346410 1.505000 0.200000
v 0.338683 1.526213 0.195539
v 0.237534 1.445000 0.283082
v 0.257115 1.475000 0.306418
v 0.251380 1.453787 0.299583
v 0.237534 1.535000 0.283082
v 0.257115 1.505000 0.306418
v 0.251380 1.526213 0.299583
v 0.126389 1.445000 0.347251
v 0.136808 1.475000 0.375877
v 0.133756 1.453787 0.367493
v 0.126389 1.535000 0.347251
v 0.136808 1.505000 0.375877
v 0.133756 1.526213 0.367493
v -0.000000 1.445000 0.369537
v 0.000000 1.475000 0.400000
v -0.000000 1.453787 0.391078
v 0.000000 1.535000 0.369537
v 0.000000 1.505000 0.400000
v 0.000000 1.526213 0.391078
v -0.126389 1.445000 0.347251
v -0.136808 1.475000 0.375877
v -0.133756 1.453787 0.367493
v -0.126389 1.535000 0.347251
v -0.136808 1.505000 0.375877
v -0.133756 1.526213 0.367493
v -0.237534 1.445000 0.283082
v -0.257115 1.475000 0.306418
v -0.251380 1.453787 0.299583
v -0.237534 1.535000 0.283082
v -0.257115 1.505000 0.306418
v -0.251380 1.526213 0.299583
v -0.320029 1.445000 0.184769
v -0.346410 1.475000 0.200000
v -0.338683 1.453787 0.195539
v -0.320029 1.535000 0.184769
v -0.346410 1.505000 0.200000
v -0.338683 1.526213 0.195539
v -0.363923 1.445000 0.064169
v -0.393923 1.475000 0.069459
v -0.385136 1.453787 0.067910
v -0.363923 1.535000 0.064169
v -0.393923 1.505000 0.069459
v -0.385136 1.526213 0.067910
v -0.363923 1.445000 -0.064169
v -0.393923 1.475000 -0.069459
v -0.385136 1.453787 -0.067910
v -0.363923 1.535000 -0.064169
v -0.393923 1.505000 -0.069459
v -0.385136 1.526213 -0.067910
v -0.320029 1.445000 -0.184769
v -0.346410 1.475000 -0.200000
v -0.338683 1.453787 -0.195539
v -0.320029 1.535000 -0.184769
v -0.346410 1.505000 -0.200000
v -0.338683 1.526213 -0.195539
v -0.237534 1.445000 -0.283082
v -0.257115 1.475000 -0.306418
v -0.251380 1.453787 -0.299583
v -0.237534 1.535000 -0.283082
v -0.257115 1.505000 -0.306418
v -0.251380 1.526213 -0.299583
v -0.126389 1.445000 -0.347251
v -0.136808 1.475000 -0.375877
v -0.133756 1.453787 -0.367493
v -0.126389 1.535000 -0.347251
v -0.136808 1.505000 -0.375877
v -0.133756 1.526213 -0.367493
vn 0.5454 -0.8382 0.0059
vn 0.6507 -0.7302 0.2086
vn -0.0000 -1.0000 -0.0000
vn 0.5497 -0.7567 0.3539
vn 0.4321 -0.7658 0.4762
vn 0.2977 -0.7593 0.5786
vn 0.1433 -0.7360 0.6616
vn 0.0022 -0.6372 0.7707
vn -0.0059 -0.8382 0.5454
vn -0.2086 -0.7302 0.6507
vn -0.3539 -0.7567 0.5497
vn -0.4762 -0.7658 0.4321
vn -0.5786 -0.7593 0.2977
vn -0.6616 -0.7360 0.1433
vn -0.7707 -0.6372 0.0022
vn -0.5454 -0.8382 -0.0059
vn -0.6507 -0.7302 -0.2086
vn -0.5497 -0.7567 -0.3539
vn -0.4321 -0.7658 -0.4762
vn -0.2977 -0.7593 -0.5786
vn -0.1433 -0.7360 -0.6616
vn -0.0022 -0.6372 -0.7707
vn 0.0059 -0.8382 -0.5454
vn 0.2086 -0.7302 -0.6507
vn 0.3539 -0.7567 -0.5497
vn 0.4762 -0.7658 -0.4321
vn 0.5786 -0.7593 -0.2977
vn 0.6616 -0.7360 -0.1433
vn 0.7707 -0.6372 -0.0022
vn 0.9336 0.2495 0.2571
vn 0.9807 0.1955 0.0071
vn 0.8273 0.2828 0.4853
vn 0.6713 0.2936 0.6806
vn 0.4740 0.2818 0.8342
vn 0.2443 0.2473 0.9376
vn 0.0075 0.1940 0.9810
vn -0.0071 0.1955 0.9807
vn -0.2571 0.2495 0.9336
vn -0.4853 0.2828 0.8273
vn -0.6806 0.2936 0.6713
vn -0.8342 0.2818 0.4740
vn -0.9376 0.2473 0.2443
vn -0.9810 0.1940 0.0075
vn -0.9807 0.1955 -0.0071
vn -0.9336 0.2495 -0.2571
vn -0.8273 0.2828 -0.4853
vn -0.6713 0.2936 -0.6806
vn -0.4740 0.2818 -0.8342
vn -0.2443 0.2473 -0.9376
vn -0.0075 0.1940 -0.9810
vn 0.0071 0.1955 -0.9807
vn 0.2571 0.2495 -0.9336
vn 0.4853 0.2828 -0.8273
vn 0.6806 0.2936 -0.6713
vn 0.8342 0.2818 -0.4740
vn 0.9376 0.2473 -0.2443
vn 0.9810 0.1940 -0.0075
vn 0.9174 0.3339 0.2164
vn 0.9708 0.2397 0.0057
vn 0.8183 0.3697 0.4401
vn 0.6726 0.3829 0.6332
vn 0.4878 0.3737 0.7889
vn 0.2705 0.3419 0.9000
vn 0.0155 0.3346 0.9422
vn -0.0056 0.2398 0.9708
vn -0.2164 0.3339 0.9174
vn -0.4401 0.3697 0.8183
vn -0.6332 0.3829 0.6726
vn -0.7889 0.3737 0.4878
vn -0.9000 0.3419 0.2705
vn -0.9422 0.3346 0.0155
vn -0.9708 0.2398 -0.0056
vn -0.9174 0.3339 -0.2164
vn -0.8183 0.3697 -0.4401
vn -0.6726 0.3829 -0.6332
vn -0.4878 0.3737 -0.7889
vn -0.2705 0.3419 -0.9000
vn -0.0155 0.3346 -0.9422
vn 0.0056 0.2398 -0.9708
vn 0.2164 0.3339 -0.9174
vn 0.4401 0.3697 -0.8183
vn 0.6332 0.3829 -0.6726
vn 0.7889 0.3737 -0.4878
vn 0.9000 0.3419 -0.2705
vn 0.9422 0.3346 -0.0155
vn 0.0685 0.9976 -0.0031
vn 0.2319 0.9727 -0.0012
vn 0.0622 0.9980 0.0137
vn 0.0553 0.9981 0.0287
vn 0.0473 0.9979 0.0432
vn 0.0375 0.9976 0.0587
vn 0.0027 0.9987 -0.0509
vn 0.0012 0.9727 0.2319
vn 0.0031 0.9976 0.0685
vn -0.0137 0.9980 0.0622
vn -0.0287 0.9981 0.0553
vn -0.0432 0.9979 0.0473
vn -0.0587 0.9976 0.0375
vn 0.0509 0.9987 0.0027
vn -0.2319 0.9727 0.0012
vn -0.0685 0.9976 0.0031
vn -0.0622 0.9980 -0.0137
vn -0.0553 0.9981 -0.0287
vn -0.0473 0.9979 -0.0432
vn -0.0375 0.9976 -0.0587
vn -0.0027 0.9987 0.0509
vn -0.0012 0.9727 -0.2319
vn -0.0031 0.9976 -0.0685
vn 0.0137 0.9980 -0.0622
vn 0.0287 0.9981 -0.0553
vn 0.0432 0.9979 -0.0473
vn 0.0587 0.9976 -0.0375
vn -0.0509 0.9987 -0.0027
vn -0.2401 0.9689 -0.0590
vn -0.2915 0.9566 -0.0026
vn -0.2006 0.9734 -0.1104
vn -0.1608 0.9749 -0.1543
vn -0.1178 0.9738 -0.1945
vn -0.0680 0.9698 -0.2341
vn -0.0045 0.9649 -0.2627
vn 0.0026 0.9566 -0.2915
vn 0.0590 0.9689 -0.2401
vn 0.1104 0.9734 -0.2007
vn 0.1543 0.9749 -0.1608
vn 0.1945 0.9738 -0.1178
vn 0.2341 0.9698 -0.0680
vn 0.2627 0.9649 -0.0045
vn 0.2915 0.9566 0.0026
vn 0.2401 0.9689 0.0590
vn 0.2006 0.9734 0.1104
vn 0.1608 0.9749 0.1543
vn 0.1178 0.9738 0.1945
vn 0.0680 0.9698 0.2341
vn 0.0045 0.9649 0.2627
vn -0.0026 0.9566 0.2915
vn -0.0590 0.9689 0.2401
vn -0.1104 0.9734 0.2007
vn -0.1543 0.9749 0.1608
vn -0.1945 0.9738 0.1178
vn -0.2341 0.9698 0.0680
vn -0.2627 0.9649 0.0045
vn -0.1449 0.9889 -0.0316
vn -0.1735 0.9848 -0.0011
vn -0.1228 0.9904 -0.0633
vn -0.0995 0.9909 -0.0905
vn -0.0738 0.9906 -0.1150
vn -0.0441 0.9894 -0.1380
vn -0.0036 0.9892 -0.1463
vn 0.0011 0.9848 -0.1735
vn 0.0316 0.9889 -0.1449
vn 0.0633 0.9904 -0.1228
vn 0.0905 0.9909 -0.0995
vn 0.1150 0.9906 -0.0738
vn 0.1381 0.9894 -0.0441
vn 0.1463 0.9892 -0.0036
vn 0.1735 0.9848 0.0011
vn 0.1449 0.9889 0.0316
vn 0.1228 0.9904 0.0633
vn 0.0995 0.9909 0.0905
vn 0.0738 0.9906 0.1150
vn 0.0441 0.9894 0.1380
vn 0.0036 0.9892 0.1463
vn -0.0011 0.9848 0.1735
vn -0.0316 0.9889 0.1449
vn -0.0633 0.9904 0.1228
vn -0.0905 0.9909 0.0995
vn -0.1150 0.9906 0.0738
vn -0.1381 0.9894 0.0441
vn -0.1463 0.9892 0.0036
vn -0.0000 1.0000 -0.0000
vn -0.1794 -0.9673 0.1794
vn -0.1726 -0.6965 0.6965
vn -0.5773 -0.5774 0.5773
vn -0.6965 -0.6965 0.1726
vn -0.1794 -0.1794 0.9673
vn -0.6965 -0.1726 0.6965
vn -0.9673 -0.1794 0.1794
vn -0.1794 0.1794 0.9673
vn -0.1726 0.6965 0.6965
vn -0.5774 0.5773 0.5774
vn -0.6965 0.1726 0.6965
vn -0.1794 0.9673 0.1794
vn -0.6965 0.6965 0.1726
vn -0.9673 0.1794 0.1794
vn -0.1794 -0.9673 -0.1794
vn -0.6965 -0.6965 -0.1726
vn -0.5773 -0.5774 -0.5773
vn -0.1726 -0.6965 -0.6965
vn -0.9673 -0.1794 -0.1794
vn -0.6965 -0.1726 -0.6965
vn -0.1794 -0.1794 -0.9673
vn -0.1794 0.9673 -0.1794
vn -0.1726 0.6965 -0.6965
vn -0.5774 0.5773 -0.5774
vn -0.6965 0.6965 -0.1726
vn -0.1794 0.1794 -0.9673
vn -0.6965 0.1726 -0.6965
vn -0.9673 0.1794 -0.1794
vn 0.1794 -0.9673 0.1794
vn 0.6965 -0.6965 0.1726
vn 0.5773 -0.5774 0.5773
vn 0.1726 -0.6965 0.6965
vn 0.9673 -0.1794 0.1794
vn 0.6965 -0.1726 0.6965
vn 0.1794 -0.1794 0.9673
vn 0.1794 0.9673 0.1794
vn 0.1726 0.6965 0.6965
vn 0.5774 0.5773 0.5774
vn 0.6965 0.6965 0.1726
vn 0.1794 0.1794 0.9673
vn 0.6965 0.1726 0.6965
vn 0.9673 0.1794 0.1794
vn 0.1794 -0.9673 -0.1794
vn 0.1726 -0.6965 -0.6965
vn 0.5773 -0.5774 -0.5773
vn 0.6965 -0.6965 -0.1726
vn 0.1794 -0.1794 -0.9673
vn 0.6965 -0.1726 -0.6965
vn 0.9673 -0.1794 -0.1794
vn 0.1794 0.9673 -0.1794
vn 0.6965 0.6965 -0.1726
vn 0.5774 0.5773 -0.5774
vn 0.1726 0.6965 -0.6965
vn 0.9673 0.1794 -0.1794
vn 0.6965 0.1726 -0.6965
vn 0.1794 0.1794 -0.9673
vn -0.0000 -0.3990 -0.9169
vn -0.0000 0.8631 -0.5050
vn 0.2525 0.8631 -0.4373
vn 0.4585 -0.3990 -0.7941
vn 0.4373 0.8631 -0.2525
vn 0.7941 -0.3990 -0.4585
vn 0.5049 0.8631 -0.0000
vn 0.9169 -0.3990 -0.0000
vn 0.4373 0.8631 0.2525
vn 0.7941 -0.3990 0.4585
vn 0.2525 0.8631 0.4373
vn 0.4585 -0.3990 0.7941
vn -0.0000 0.8631 0.5050
vn -0.0000 -0.3990 0.9169
vn -0.2525 0.8631 0.4373
vn -0.4585 -0.3990 0.7941
vn -0.4373 0.8631 0.2525
vn -0.7941 -0.3990 0.4585
vn -0.5049 0.8631 -0.0000
vn -0.9169 -0.3990 -0.0000
vn -0.4373 0.8631 -0.2525
vn -0.7941 -0.3990 -0.4585
vn -0.2525 0.8631 -0.4373
vn -0.4585 -0.3990 -0.7941
vn -0.0000 -0.1936 -0.9811
vn 0.3355 -0.1936 -0.9219
vn 0.2474 -0.6903 -0.6799
vn -0.0000 -0.6903 -0.7235
vn 0.0728 -0.9771 -0.2000
vn -0.0000 -0.9771 -0.2129
vn 0.3355 0.1937 -0.9219
vn -0.0000 0.1937 -0.9811
vn -0.0000 0.6903 -0.7235
vn 0.2474 0.6903 -0.6799
vn -0.0000 0.9771 -0.2129
vn 0.0728 0.9771 -0.2000
vn 0.6306 -0.1936 -0.7515
vn 0.4651 -0.6903 -0.5542
vn 0.1368 -0.9771 -0.1631
vn 0.6306 0.1937 -0.7515
vn 0.4651 0.6903 -0.5542
vn 0.1368 0.9771 -0.1631
vn 0.8496 -0.1936 -0.4905
vn 0.6266 -0.6903 -0.3617
vn 0.1843 -0.9771 -0.1064
vn 0.8496 0.1937 -0.4905
vn 0.6266 0.6903 -0.3617
vn 0.1843 0.9771 -0.1064
vn 0.9662 -0.1936 -0.1704
vn 0.7125 -0.6903 -0.1256
vn 0.2096 -0.9771 -0.0370
vn 0.9662 0.1937 -0.1704
vn 0.7125 0.6903 -0.1256
vn 0.2096 0.9771 -0.0370
vn 0.9662 -0.1936 0.1704
vn 0.7125 -0.6903 0.1256
vn 0.2096 -0.9771 0.0370
vn 0.9662 0.1937 0.1704
vn 0.7125 0.6903 0.1256
vn 0.2096 0.9771 0.0370
vn 0.8496 -0.1936 0.4905
vn 0.6266 -0.6903 0.3617
vn 0.1843 -0.9771 0.1064
vn 0.8496 0.1937 0.4905
vn 0.6266 0.6903 0.3617
vn 0.1843 0.9771 0.1064
vn 0.6306 -0.1936 0.7515
vn 0.4650 -0.6903 0.5542
vn 0.1368 -0.9771 0.1631
vn 0.6306 0.1937 0.7515
vn 0.4651 0.6903 0.5542
vn 0.1368 0.9771 0.1631
vn 0.3355 -0.1936 0.9219
vn 0.2474 -0.6903 0.6799
vn 0.0728 -0.9771 0.2000
vn 0.3355 0.1937 0.9219
vn 0.2474 0.6903 0.6799
vn 0.0728 0.9771 0.2000
vn -0.0000 -0.1936 0.9811
vn -0.0000 -0.6903 0.7235
vn -0.0000 -0.9771 0.2129
vn -0.0000 0.1937 0.9811
vn -0.0000 0.6903 0.7235
vn -0.0000 0.9771 0.2129
vn -0.3355 -0.1936 0.9219
vn -0.2474 -0.6903 0.6799
vn -0.0728 -0.9771 0.2000
vn -0.3355 0.1937 0.9219
vn -0.2474 0.6903 0.6799
vn -0.0728 0.9771 0.2000
vn -0.6306 -0.1936 0.7515
vn -0.4651 -0.6903 0.5542
vn -0.1368 -0.9771 0.1631
vn -0.6306 0.1937 0.7515
vn -0.4651 0.6903 0.5542
vn -0.1368 0.9771 0.1631
vn -0.8496 -0.1936 0.4905
vn -0.6266 -0.6903 0.3617
vn -0.1843 -0.9771 0.1064
vn -0.8496 0.1937 0.4905
vn -0.6266 0.6903 0.3617
vn -0.1843 0.9771 0.1064
vn -0.9662 -0.1936 0.1704
vn -0.7125 -0.6903 0.1256
vn -0.2096 -0.9771 0.0370
vn -0.9662 0.1937 0.1704
vn -0.7125 0.6903 0.1256
vn -0.2096 0.9771 0.0370
vn -0.9662 -0.1936 -0.1704
vn -0.7125 -0.6903 -0.1256
vn -0.2096 -0.9771 -0.0370
vn -0.9662 0.1937 -0.1704
vn -0.7125 0.6903 -0.1256
vn -0.2096 0.9771 -0.0370
vn -0.8496 -0.1936 -0.4905
vn -0.6266 -0.6903 -0.3617
vn -0.1843 -0.9771 -0.1064
vn -0.8496 0.1937 -0.4905
vn -0.6266 0.6903 -0.3617
vn -0.1843 0.9771 -0.1064
vn -0.6306 -0.1936 -0.7515
vn -0.4650 -0.6903 -0.5542
vn -0.1368 -0.9771 -0.1631
vn -0.6306 0.1937 -0.7515
vn -0.4651 0.6903 -0.5542
vn -0.1368 0.9771 -0.1631
vn -0.3355 -0.1936 -0.9219
vn -0.2474 -0.6903 -0.6799
vn -0.0728 -0.9771 -0.2000
vn -0.3355 0.1937 -0.9219
vn -0.2474 0.6903 -0.6799
vn -0.0728 0.9771 -0.2000
s 1
f 2//1 3//2 1//3
f 3//2 4//4 1//3
f 4//4 5//5 1//3
f 5//5 6//6 1//3
f 6//6 7//7 1//3
f 7//7 8//8 1//3
f 8//8 9//9 1//3
f 9//9 10//10 1//3
f 10//10 11//11 1//3
f 11//11 12//12 1//3
f 12//12 13//13 1//3
f 13//13 14//14 1//3
f 14//14 15//15 1//3
f 15//15 16//16 1//3
f 16//16 17//17 1//3
f 17//17 18//18 1//3
f 18//18 19//19 1//3
f 19//19 20//20 1//3
f 20//20 21//21 1//3
f 21//21 22//22 1//3
f 22//22 23//23 1//3
f 23//23 24//24 1//3
f 24//24 25//25 1//3
f 25//25 26//26 1//3
f 26//26 27//27 1//3
f 27//27 28//28 1//3
f 28//28 29//29 1//3
f 29//29 2//1 1//3
f 31//30 3//2 2//1
f 30//31 31//30 2//1
f 32//32 4//4 3//2
f 31//30 32//32 3//2
f 33//33 5//5 4//4
f 32//32 33//33 4//4
f 34//34 6//6 5//5
f 33//33 34//34 5//5
f 35//35 7//7 6//6
f 34//34 35//35 6//6
f 36//36 8//8 7//7
f 35//35 36//36 7//7
f 37//37 9//9 8//8
f 36//36 37//37 8//8
f 38//38 10//10 9//9
f 37//37 38//38 9//9
f 39//39 11//11 10//10
f 38//38 39//39 10//10
f 40//40 12//12 11//11
f 39//39 40//40 11//11
f 41//41 13//13 12//12
f 40//40 41//41 12//12
f 42//42 14//14 13//13
f 41//41 42//42 13//13
f 43//43 15//15 14//14
f 42//42 43//43 14//14
f 44//44 16//16 15//15
f 43//43 44//44 15//15
f 45//45 17//17 16//16
f 44//44 45//45 16//16
f 46//46 18//18 17//17
f 45//45 46//46 17//17
f 47//47 19//19 18//18
f 46//46 47//47 18//18
f 48//48 20//20 19//19
f 47//47 48//48 19//19
f 49//49 21//21 20//20
f 48//48 49//49 20//20
f 50//50 22//22 21//21
f 49//49 50//50 21//21
f 51//51 23//23 22//22
f 50//50 51//51 22//22
f 52//52 24//24 23//23
f 51//51 52//52 23//23
f 53//53 25//25 24//24
f 52//52 53//53 24//24
f 54//54 26//26 25//25
f 53//53 54//54 25//25
f 55//55 27//27 26//26
f 54//54 55//55 26//26
f 56//56 28//28 27//27
f 55//55 56//56 27//27
f 57//57 29//29 28//28
f 56//56 57//57 28//28
f 30//31 2//1 29//29
f 57//57 30//31 29//29
f 59//58 31//30 30//31
f 58//59 59//58 30//31
f 60//60 32//32 31//30
f 59//58 60//60 31//30
f 61//61 33//33 32//32
f 60//60 61//61 32//32
f 62//62 34//34 33//33
f 61//61 62//62 33//33
f 63//63 35//35 34//34
f 62//62 63//63 34//34
f 64//64 36//36 35//35
f 63//63 64//64 35//35
f 65//65 37//37 36//36
f 64//64 65//65 36//36
f 66//66 38//38 37//37
f 65//65 66//66 37//37
f 67//67 39//39 38//38
f 66//66 67//67 38//38
f 68//68 40//40 39//39
f 67//67 68//68 39//39
f 69//69 41//41 40//40
f 68//68 69//69 40//40
f 70//70 42//42 41//41
f 69//69 70//70 41//41
f 71//71 43//43 42//42
f 70//70 71//71 42//42
f 72//72 44//44 43//43
f 71//71 72//72 43//43
f 73//73 45//45 44//44
f 72//72 73//73 44//44
f 74//74 46//46 45//45
f 73//73 74//74 45//45
f 75//75 47//47 46//46
f 74//74 75//75 46//46
f 76//76 48//48 47//47
f 75//75 76//76 47//47
f 77//77 49//49 48//48
f 76//76 77//77 48//48
f 78//78 50//50 49//49
f 77//77 78//78 49//49
f 79//79 51//51 50//50
f 78//78 79//79 50//50
f 80//80 52//52 51//51
f 79//79 80//80 51//51
f 81//81 53//53 52//52
f 80//80 81//81 52//52
f 82//82 54//54 53//53
f 81//81 82//82 53//53
f 83//83 55//55 54//54
f 82//82 83//83 54//54
f 84//84 56//56 55//55
f 83//83 84//84 55//55
f 85//85 57//57 56//56
f 84//84 85//85 56//56
f 58//59 30//31 57//57
f 85//85 58//59 57//57
f 87//86 59//58 58//59
f 86//87 87//86 58//59
f 88//88 60//60 59//58
f 87//86 88//88 59//58
f 89//89 61//61 60//60
f 88//88 89//89 60//60
f 90//90 62//62 61//61
f 89//89 90//90 61//61
f 91//91 63//63 62//62
f 90//90 91//91 62//62
f 92//92 64//64 63//63
f 91//91 92//92 63//63
f 93//93 65//65 64//64
f 92//92 93//93 64//64
f 94//94 66//66 65//65
f 93//93 94//94 65//65
f 95//95 67//67 66//66
f 94//94 95//95 66//66
f 96//96 68//68 67//67
f 95//95 96//96 67//67
f 97//97 69//69 68//68
f 96//96 97//97 68//68
f 98//98 70//70 69//69
f 97//97 98//98 69//69
f 99//99 71//71 70//70
f 98//98 99//99 70//70
f 100//100 72//72 71//71
f 99//99 100//100 71//71
f 101//101 73//73 72//72
f 100//100 101//101 72//72
f 102//102 74//74 73//73
f 101//101 102//102 73//73
f 103//103 75//75 74//74
f 102//102 103//103 74//74
f 104//104 76//76 75//75
f 103//103 104//104 75//75
f 105//105 77//77 76//76
f 104//104 105//105 76//76
f 106//106 78//78 77//77
f 105//105 106//106 77//77
f 107//107 79//79 78//78
f 106//106 107//107 78//78
f 108//108 80//80 79//79
f 107//107 108//108 79//79
f 109//109 81//81 80//80
f 108//108 109//109 80//80
f 110//110 82//82 81//81
f 109//109 110//110 81//81
f 111//111 83//83 82//82
f 110//110 111//111 82//82
f 112//112 84//84 83//83
f 111//111 112//112 83//83
f 113//113 85//85 84//84
f 112//112 113//113 84//84
f 86//87 58//59 85//85
f 113//113 86//87 85//85
f 115//114 87//86 86//87
f 114//115 115//114 86//87
f 116//116 88//88 87//86
f 115//114 116//116 87//86
f 117//117 89//89 88//88
f 116//116 117//117 88//88
f 118//118 90//90 89//89
f 117//117 118//118 89//89
f 119//119 91//91 90//90
f 118//118 119//119 90//90
f 120//120 92//92 91//91
f 119//119 120//120 91//91
f 121//121 93//93 92//92
f 120//120 121//121 92//92
f 122//122 94//94 93//93
f 121//121 122//122 93//93
f 123//123 95//95 94//94
f 122//122 123//123 94//94
f 124//124 96//96 95//95
f 123//123 124//124 95//95
f 125//125 97//97 96//96
f 124//124 125//125 96//96
f 126//126 98//98 97//97
f 125//125 126//126 97//97
f 127//127 99//99 98//98
f 126//126 127//127 98//98
f 128//128 100//100 99//99
f 127//127 128//128 99//99
f 129//129 101//101 100//100
f 128//128 129//129 100//100
f 130//130 102//102 101//101
f 129//129 130//130 101//101
f 131//131 103//103 102//102
f 130//130 131//131 102//102
f 132//132 104//104 103//103
f 131//131 132//132 103//103
f 133//133 105//105 104//104
f 132//132 133//133 104//104
f 134//134 106//106 105//105
f 133//133 134//134 105//105
f 135//135 107//107 106//106
f 134//134 135//135 106//106
f 136//136 108//108 107//107
f 135//135 136//136 107//107
f 137//137 109//109 108//108
f 136//136 137//137 108//108
f 138//138 110//110 109//109
f 137//137 138//138 109//109
f 139//139 111//111 110//110
f 138//138 139//139 110//110
f 140//140 112//112 111//111
f 139//139 140//140 111//111
f 141//141 113//113 112//112
f 140//140 141//141 112//112
f 114//115 86//87 113//113
f 141//141 114//115 113//113
f 143//142 115//114 114//115
f 142//143 143//142 114//115
f 144//144 116//116 115//114
f 143//142 144//144 115//114
f 145//145 117//117 116//116
f 144//144 145//145 116//116
f 146//146 118//118 117//117
f 145//145 146//146 117//117
f 147//147 119//119 118//118
f 146//146 147//147 118//118
f 148//148 120//120 119//119
f 147//147 148//148 119//119
f 149//149 121//121 120//120
f 148//148 149//149 120//120
f 150//150 122//122 121//121
f 149//149 150//150 121//121
f 151//151 123//123 122//122
f 150//150 151//151 122//122
f 152//152 124//124 123//123
f 151//151 152//152 123//123
f 153//153 125//125 124//124
f 152//152 153//153 124//124
f 154//154 126//126 125//125
f 153//153 154//154 125//125
f 155//155 127//127 126//126
f 154//154 155//155 126//126
f 156//156 128//128 127//127
f 155//155 156//156 127//127
f 157//157 129//129 128//128
f 156//156 157//157 128//128
f 158//158 130//130 129//129
f 157//157 158//158 129//129
f 159//159 131//131 130//130
f 158//158 159//159 130//130
f 160//160 132//132 131//131
f 159//159 160//160 131//131
f 161//161 133//133 132//132
f 160//160 161//161 132//132
f 162//162 134//134 133//133
f 161//161 162//162 133//133
f 163//163 135//135 134//134
f 162//162 163//163 134//134
f 164//164 136//136 135//135
f 163//163 164//164 135//135
f 165//165 137//137 136//136
f 164//164 165//165 136//136
f 166//166 138//138 137//137
f 165//165 166//166 137//137
f 167//167 139//139 138//138
f 166//166 167//167 138//138
f 168//168 140//140 139//139
f 167//167 168//168 139//139
f 169//169 141//141 140//140
f 168//168 169//169 140//140
f 142//143 114//115 141//141
f 169//169 142//143 141//141
f 170//170 143//142 142//143
f 170//170 144//144 143//142
f 170//170 145//145 144//144
f 170//170 146//146 145//145
f 170//170 147//147 146//146
f 170//170 148//148 147//147
f 170//170 149//149 148//148
f 170//170 150//150 149//149
f 170//170 151//151 150//150
f 170//170 152//152 151//151
f 170//170 153//153 152//152
f 170//170 154//154 153//153
f 170//170 155//155 154//154
f 170//170 156//156 155//155
f 170//170 157//157 156//156
f 170//170 158//158 157//157
f 170//170 159//159 158//158
f 170//170 160//160 159//159
f 170//170 161//161 160//160
f 170//170 162//162 161//161
f 170//170 163//163 162//162
f 170//170 164//164 163//163
f 170//170 165//165 164//164
f 170//170 166//166 165//165
f 170//170 167//167 166//166
f 170//170 168//168 167//167
f 170//170 169//169 168//168
f 170//170 142//143 169//169
f 171//171 174//172 175//173 177//174
f 172//175 176//176 175//173 174//172
f 173//177 177//174 175//173 176//176
f 178//178 181//179 182//180 184//181
f 179//182 183//183 182//180 181//179
f 180//184 184//181 182//180 183//183
f 185//185 188//186 189//187 191//188
f 186//189 190//190 189//187 188//186
f 187//191 191//188 189//187 190//190
f 192//192 195//193 196//194 198//195
f 193//196 197//197 196//194 195//193
f 194//198 198//195 196//194 197//197
f 199//199 202//200 203//201 205//202
f 200//203 204//204 203//201 202//200
f 201//205 205//202 203//201 204//204
f 206//206 209//207 210//208 212//209
f 207//210 211//211 210//208 209//207
f 208//212 212//209 210//208 211//211
f 213//213 216//214 217//215 219//216
f 214//217 218//218 217//215 216//214
f 215//219 219//216 217//215 218//218
f 220//220 223//221 224//222 226//223
f 221//224 225//225 224//222 223//221
f 222//226 226//223 224//222 225//225
f 185//185 171//171 177//174 188//186
f 188//186 177//174 173//177 186//189
f 172//175 178//178 184//181 176//176
f 176//176 184//181 180//184 173//177
f 179//182 192//192 198//195 183//183
f 183//183 198//195 194//198 180//184
f 193//196 187//191 190//190 197//197
f 197//197 190//190 186//189 194//198
f 213//213 185//185 191//188 216//214
f 216//214 191//188 187//191 214//217
f 192//192 220//220 226//223 195//193
f 195//193 226//223 222//226 193//196
f 221//224 215//219 218//218 225//225
f 225//225 218//218 214//217 222//226
f 199//199 213//213 219//216 202//200
f 202//200 219//216 215//219 200//203
f 220//220 206//206 212//209 223//221
f 223//221 212//209 208//212 221//224
f 207//210 201//205 204//204 211//211
f 211//211 204//204 200//203 208//212
f 171//171 199//199 205//202 174//172
f 174//172 205//202 201//205 172//175
f 206//206 179//182 181//179 209//207
f 209//207 181//179 178//178 207//210
f 185//185 213//213 199//199 171//171
f 173//177 180//184 194//198 186//189
f 201//205 207//210 178//178 172//175
f 220//220 192//192 179//182 206//206
f 187//191 193//196 222//226 214//217
f 215//219 221//224 208//212 200//203
f 227//227 228//228 230//229 229//230
f 229//230 230//229 232//231 231//232
f 231//232 232//231 234//233 233//234
f 233//234 234//233 236//235 235//236
f 235//236 236//235 238//237 237//238
f 237//238 238//237 240//239 239//240
f 239//240 240//239 242//241 241//242
f 241//242 242//241 244//243 243//244
f 243//244 244//243 246//245 245//246
f 245//246 246//245 248//247 247//248
f 230//229 228//228 250//249 248//247 246//245 244//243 242//241 240//239 238//237 236//235 234//233 232//231
f 247//248 248//247 250//249 249//250
f 249//250 250//249 228//228 227//227
f 227//227 229//230 231//232 233//234 235//236 237//238 239//240 241//242 243//244 245//246 247//248 249//250
f 251//171 254//172 255//173 257//174
f 252//175 256//176 255//173 254//172
f 253//177 257//174 255//173 256//176
f 258//178 261//179 262//180 264//181
f 259//182 263//183 262//180 261//179
f 260//184 264//181 262//180 263//183
f 265//185 268//186 269//187 271//188
f 266//189 270//190 269//187 268//186
f 267//191 271//188 269//187 270//190
f 272//192 275//193 276//194 278//195
f 273//196 277//197 276//194 275//193
f 274//198 278//195 276//194 277//197
f 279//199 282//200 283//201 285//202
f 280//203 284//204 283//201 282//200
f 281//205 285//202 283//201 284//204
f 286//206 289//207 290//208 292//209
f 287//210 291//211 290//208 289//207
f 288//212 292//209 290//208 291//211
f 293//213 296//214 297//215 299//216
f 294//217 298//218 297//215 296//214
f 295//219 299//216 297//215 298//218
f 300//220 303//221 304//222 306//223
f 301//224 305//225 304//222 303//221
f 302//226 306//223 304//222 305//225
f 265//185 251//171 257//174 268//186
f 268//186 257//174 253//177 266//189
f 252//175 258//178 264//181 256//176
f 256//176 264//181 260//184 253//177
f 259//182 272//192 278//195 263//183
f 263//183 278//195 274//198 260//184
f 273//196 267//191 270//190 277//197
f 277//197 270//190 266//189 274//198
f 293//213 265//185 271//188 296//214
f 296//214 271//188 267//191 294//217
f 272//192 300//220 306//223 275//193
f 275//193 306//223 302//226 273//196
f 301//224 295//219 298//218 305//225
f 305//225 298//218 294//217 302//226
f 279//199 293//213 299//216 282//200
f 282//200 299//216 295//219 280//203
f 300//220 286//206 292//209 303//221
f 303//221 292//209 288//212 301//224
f 287//210 281//205 284//204 291//211
f 291//211 284//204 280//203 288//212
f 251//171 279//199 285//202 254//172
f 254//172 285//202 281//205 252//175
f 286//206 259//182 261//179 289//207
f 289//207 261//179 258//178 287//210
f 265//185 293//213 279//199 251//171
f 253//177 260//184 274//198 266//189
f 281//205 287//210 258//178 252//175
f 300//220 272//192 259//182 286//206
f 267//191 273//196 302//226 294//217
f 295//219 301//224 288//212 280//203
f 308//251 314//252 315//253 309//254
f 309//254 315//253 313//255 307//256
f 317//257 311//258 312//259 318//260
f 318//260 312//259 310//261 316//262
f 314//252 320//263 321//264 315//253
f 315//253 321//264 319//265 313//255
f 323//266 317//257 318//260 324//267
f 324//267 318//260 316//262 322//268
f 320//263 326//269 327//270 321//264
f 321//264 327//270 325//271 319//265
f 329//272 323//266 324//267 330//273
f 330//273 324//267 322//268 328//274
f 326//269 332//275 333//276 327//270
f 327//270 333//276 331//277 325//271
f 335//278 329//272 330//273 336//279
f 336//279 330//273 328//274 334//280
f 332//275 338//281 339//282 333//276
f 333//276 339//282 337//283 331//277
f 341//284 335//278 336//279 342//285
f 342//285 336//279 334//280 340//286
f 338//281 344//287 345//288 339//282
f 339//282 345//288 343//289 337//283
f 347//290 341//284 342//285 348//291
f 348//291 342//285 340//286 346//292
f 344//287 350//293 351//294 345//288
f 345//288 351//294 349//295 343//289
f 353//296 347//290 348//291 354//297
f 354//297 348//291 346//292 352//298
f 350//293 356//299 357//300 351//294
f 351//294 357//300 355//301 349//295
f 359//302 353//296 354//297 360//303
f 360//303 354//297 352//298 358//304
f 356//299 362//305 363//306 357//300
f 357//300 363//306 361//307 355//301
f 365//308 359//302 360//303 366//309
f 366//309 360//303 358//304 364//310
f 362//305 368//311 369//312 363//306
f 363//306 369//312 367//313 361//307
f 371//314 365//308 366//309 372//315
f 372//315 366//309 364//310 370//316
f 368//311 374//317 375//318 369//312
f 369//312 375//318 373//319 367//313
f 377//320 371//314 372//315 378//321
f 378//321 372//315 370//316 376//322
f 374//317 380//323 381//324 375//318
f 375//318 381//324 379//325 373//319
f 383//326 377//320 378//321 384//327
f 384//327 378//321 376//322 382//328
f 380//323 386//329 387//330 381//324
f 381//324 387//330 385//331 379//325
f 389//332 383//326 384//327 390//333
f 390//333 384//327 382//328 388//334
f 386//329 392//335 393//336 387//330
f 387//330 393//336 391//337 385//331
f 395//338 389//332 390//333 396//339
f 396//339 390//333 388//334 394//340
f 392//335 398//341 399//342 393//336
f 393//336 399//342 397//343 391//337
f 401//344 395//338 396//339 402//345
f 402//345 396//339 394//340 400//346
f 398//341 404//347 405//348 399//342
f 399//342 405//348 403//349 397//343
f 407//350 401//344 402//345 408//351
f 408//351 402//345 400//346 406//352
f 404//347 410//353 411//354 405//348
f 405//348 411//354 409//355 403//349
f 413//356 407//350 408//351 414//357
f 414//357 408//351 406//352 412//358
f 410//353 308//251 309//254 411//354
f 411//354 309//254 307//256 409//355
f 311//258 413//356 414//357 312//259
f 312//259 414//357 412//358 310//261
f 307//256 313//255 319//265 325//271 331//277 337//283 343//289 349//295 355//301 361//307 367//313 373//319 379//325 385//331 391//337 397//343 403//349 409//355
f 308//251 311//258 317//257 314//252
f 410//353 413//356 311//258 308//251
f 316//262 310//261 412//358 406//352 400//346 394//340 388//334 382//328 376//322 370//316 364//310 358//304 352//298 346//292 340//286 334//280 328//274 322//268
f 314//252 317//257 323//266 320//263
f 320//263 323//266 329//272 326//269
f 326//269 329//272 335//278 332//275
f 332//275 335//278 341//284 338//281
f 338//281 341//284 347//290 344//287
f 344//287 347//290 353//296 350//293
f 350//293 353//296 359//302 356//299
f 356//299 359//302 365//308 362//305
f 362//305 365//308 371//314 368//311
f 368//311 371//314 377//320 374//317
f 374//317 377//320 383//326 380//323
f 380//323 383//326 389//332 386//329
f 386//329 389//332 395//338 392//335
f 392//335 395//338 401//344 398//341
f 398//341 401//344 407//350 404//347
f 404//347 407//350 413//356 410//353
