# Blender 5.2.2 LTS
# www.blender.org
o SunburstKey
v 0.000000 0.000000 0.000000
v 1.100000 0.000000 0.836000
v 1.091002 0.000000 0.904332
v 1.064624 0.000000 0.968000
v 1.022670 0.000000 1.022670
v 0.968000 0.000000 1.064624
v 0.904332 0.000000 1.091002
v 0.836000 0.000000 1.100000
v -0.836000 0.000000 1.100000
v -0.904332 0.000000 1.091002
v -0.968000 0.000000 1.064624
v -1.022670 0.000000 1.022670
v -1.064624 0.000000 0.968000
v -1.091002 0.000000 0.904332
v -1.100000 0.000000 0.836000
v -1.100000 0.000000 -0.836000
v -1.091002 0.000000 -0.904332
v -1.064624 0.000000 -0.968000
v -1.022670 0.000000 -1.022670
v -0.968000 0.000000 -1.064624
v -0.904332 0.000000 -1.091002
v -0.836000 0.000000 -1.100000
v 0.836000 0.000000 -1.100000
v 0.904332 0.000000 -1.091002
v 0.968000 0.000000 -1.064624
v 1.022670 0.000000 -1.022670
v 1.064624 0.000000 -0.968000
v 1.091002 0.000000 -0.904332
v 1.100000 0.000000 -0.836000
v 0.979000 0.607200 0.671000
v 0.968506 0.607200 0.750706
v 0.937728 0.607200 0.825000
v 0.888778 0.607200 0.888778
v 0.825000 0.607200 0.937728
v 0.750706 0.607200 0.968506
v 0.671000 0.607200 0.979000
v -0.671000 0.607200 0.979000
v -0.750706 0.607200 0.968506
v -0.825000 0.607200 0.937728
v -0.888778 0.607200 0.888778
v -0.937728 0.607200 0.825000
v -0.968506 0.607200 0.750706
v -0.979000 0.607200 0.671000
v -0.979000 0.607200 -0.671000
v -0.968506 0.607200 -0.750706
v -0.937728 0.607200 -0.825000
v -0.888778 0.607200 -0.888778
v -0.825000 0.607200 -0.937728
v -0.750706 0.607200 -0.968506
v -0.671000 0.607200 -0.979000
v 0.671000 0.607200 -0.979000
v 0.750706 0.607200 -0.968506
v 0.825000 0.607200 -0.937728
v 0.888778 0.607200 -0.888778
v 0.937728 0.607200 -0.825000
v 0.968506 0.607200 -0.750706
v 0.979000 0.607200 -0.671000
v 0.858000 1.232000 0.506000
v 0.846010 1.232000 0.597102
v 0.810832 1.232000 0.682000
v 0.754908 1.232000 0.754908
v 0.682000 1.232000 0.810832
v 0.597102 1.232000 0.846010
v 0.506000 1.232000 0.858000
v -0.506000 1.232000 0.858000
v -0.597102 1.232000 0.846010
v -0.682000 1.232000 0.810832
v -0.754908 1.232000 0.754908
v -0.810832 1.232000 0.682000
v -0.846010 1.232000 0.597102
v -0.858000 1.232000 0.506000
v -0.858000 1.232000 -0.506000
v -0.846010 1.232000 -0.597102
v -0.810832 1.232000 -0.682000
v -0.754908 1.232000 -0.754908
v -0.682000 1.232000 -0.810832
v -0.597102 1.232000 -0.846010
v -0.506000 1.232000 -0.858000
v 0.506000 1.232000 -0.858000
v 0.597102 1.232000 -0.846010
v 0.682000 1.232000 -0.810832
v 0.754908 1.232000 -0.754908
v 0.810832 1.232000 -0.682000
v 0.846010 1.232000 -0.597102
v 0.858000 1.232000 -0.506000
v 0.770000 1.320000 0.462000
v 0.759506 1.320000 0.541706
v 0.728728 1.320000 0.616000
v 0.679778 1.320000 0.679778
v 0.616000 1.320000 0.728728
v 0.541706 1.320000 0.759506
v 0.462000 1.320000 0.770000
v -0.462000 1.320000 0.770000
v -0.541706 1.320000 0.759506
v -0.616000 1.320000 0.728728
v -0.679778 1.320000 0.679778
v -0.728728 1.320000 0.616000
v -0.759506 1.320000 0.541706
v -0.770000 1.320000 0.462000
v -0.770000 1.320000 -0.462000
v -0.759506 1.320000 -0.541706
v -0.728728 1.320000 -0.616000
v -0.679778 1.320000 -0.679778
v -0.616000 1.320000 -0.728728
v -0.541706 1.320000 -0.759506
v -0.462000 1.320000 -0.770000
v 0.462000 1.320000 -0.770000
v 0.541706 1.320000 -0.759506
v 0.616000 1.320000 -0.728728
v 0.679778 1.320000 -0.679778
v 0.728728 1.320000 -0.616000
v 0.759506 1.320000 -0.541706
v 0.770000 1.320000 -0.462000
v 0.554400 1.245838 0.300960
v 0.545754 1.245838 0.366564
v 0.520454 1.245838 0.427680
v 0.480172 1.245838 0.480172
v 0.427680 1.245838 0.520454
v 0.366564 1.245838 0.545754
v 0.300960 1.245838 0.554400
v -0.300960 1.245838 0.554400
v -0.366564 1.245838 0.545754
v -0.427680 1.245838 0.520454
v -0.480172 1.245838 0.480172
v -0.520454 1.245838 0.427680
v -0.545754 1.245838 0.366564
v -0.554400 1.245838 0.300960
v -0.554400 1.245838 -0.300960
v -0.545754 1.245838 -0.366564
v -0.520454 1.245838 -0.427680
v -0.480172 1.245838 -0.480172
v -0.427680 1.245838 -0.520454
v -0.366564 1.245838 -0.545754
v -0.300960 1.245838 -0.554400
v 0.300960 1.245838 -0.554400
v 0.366564 1.245838 -0.545754
v 0.427680 1.245838 -0.520454
v 0.480172 1.245838 -0.480172
v 0.520454 1.245838 -0.427680
v 0.545754 1.245838 -0.366564
v 0.554400 1.245838 -0.300960
v 0.323400 1.193170 0.175560
v 0.318362 1.193170 0.213818
v 0.303600 1.193170 0.249480
v 0.280104 1.193170 0.280104
v 0.249480 1.193170 0.303600
v 0.213818 1.193170 0.318362
v 0.175560 1.193170 0.323400
v -0.175560 1.193170 0.323400
v -0.213818 1.193170 0.318362
v -0.249480 1.193170 0.303600
v -0.280104 1.193170 0.280104
v -0.303600 1.193170 0.249480
v -0.318362 1.193170 0.213818
v -0.323400 1.193170 0.175560
v -0.323400 1.193170 -0.175560
v -0.318362 1.193170 -0.213818
v -0.303600 1.193170 -0.249480
v -0.280104 1.193170 -0.280104
v -0.249480 1.193170 -0.303600
v -0.213818 1.193170 -0.318362
v -0.175560 1.193170 -0.323400
v 0.175560 1.193170 -0.323400
v 0.213818 1.193170 -0.318362
v 0.249480 1.193170 -0.303600
v 0.280104 1.193170 -0.280104
v 0.303600 1.193170 -0.249480
v 0.318362 1.193170 -0.213818
v 0.323400 1.193170 -0.175560
v 0.000000 1.166000 -0.000000
v -0.310000 1.300000 0.150000
v -0.310000 1.340000 0.190000
v -0.350000 1.340000 0.150000
v -0.310000 1.311716 0.178284
v -0.333094 1.316906 0.173094
v -0.338284 1.340000 0.178284
v -0.338284 1.311716 0.150000
v -0.310000 1.360000 0.190000
v -0.310000 1.400000 0.150000
v -0.350000 1.360000 0.150000
v -0.310000 1.388284 0.178284
v -0.333094 1.383094 0.173094
v -0.338284 1.388284 0.150000
v -0.338284 1.360000 0.178284
v -0.310000 1.300000 -0.050000
v -0.350000 1.340000 -0.050000
v -0.310000 1.340000 -0.090000
v -0.338284 1.311716 -0.050000
v -0.333094 1.316906 -0.073094
v -0.338284 1.340000 -0.078284
v -0.310000 1.311716 -0.078284
v -0.310000 1.400000 -0.050000
v -0.310000 1.360000 -0.090000
v -0.350000 1.360000 -0.050000
v -0.310000 1.388284 -0.078284
v -0.333094 1.383094 -0.073094
v -0.338284 1.360000 -0.078284
v -0.338284 1.388284 -0.050000
v 0.310000 1.300000 0.150000
v 0.350000 1.340000 0.150000
v 0.310000 1.340000 0.190000
v 0.338284 1.311716 0.150000
v 0.333094 1.316906 0.173094
v 0.338284 1.340000 0.178284
v 0.310000 1.311716 0.178284
v 0.310000 1.400000 0.150000
v 0.310000 1.360000 0.190000
v 0.350000 1.360000 0.150000
v 0.310000 1.388284 0.178284
v 0.333094 1.383094 0.173094
v 0.338284 1.360000 0.178284
v 0.338284 1.388284 0.150000
v 0.310000 1.300000 -0.050000
v 0.310000 1.340000 -0.090000
v 0.350000 1.340000 -0.050000
v 0.310000 1.311716 -0.078284
v 0.333094 1.316906 -0.073094
v 0.338284 1.340000 -0.078284
v 0.338284 1.311716 -0.050000
v 0.310000 1.400000 -0.050000
v 0.350000 1.360000 -0.050000
v 0.310000 1.360000 -0.090000
v 0.338284 1.388284 -0.050000
v 0.333094 1.383094 -0.073094
v 0.338284 1.360000 -0.078284
v 0.310000 1.388284 -0.078284
v 0.000000 1.900000 0.000000
v 0.000000 1.887275 -0.080344
v 0.000000 1.792824 -0.210344
v 0.000000 1.720345 -0.247275
v 0.000000 1.640000 -0.260000
v 0.000000 1.559656 -0.247275
v 0.000000 1.429656 -0.152824
v 0.000000 1.392725 -0.080344
v 0.000000 1.380000 0.000000
v 0.034860 1.887275 -0.072388
v 0.066308 1.850345 -0.137690
v 0.091265 1.792824 -0.189514
v 0.107288 1.720345 -0.222787
v 0.112810 1.640000 -0.234252
v 0.107288 1.559656 -0.222787
v 0.091265 1.487176 -0.189514
v 0.066308 1.429656 -0.137690
v 0.034860 1.392725 -0.072388
v 0.062816 1.887275 -0.050094
v 0.119483 1.850345 -0.095284
v 0.164454 1.792824 -0.131148
v 0.193327 1.720345 -0.154173
v 0.203276 1.640000 -0.162107
v 0.193327 1.559656 -0.154173
v 0.164454 1.487176 -0.131148
v 0.119483 1.429656 -0.095284
v 0.062816 1.392725 -0.050094
v 0.078330 1.887275 -0.017878
v 0.148993 1.850345 -0.034007
v 0.205071 1.792824 -0.046806
v 0.241075 1.720345 -0.055024
v 0.253481 1.640000 -0.057855
v 0.241075 1.559656 -0.055024
v 0.205071 1.487176 -0.046806
v 0.148993 1.429656 -0.034007
v 0.078330 1.392725 -0.017878
v 0.078330 1.887275 0.017878
v 0.148993 1.850345 0.034007
v 0.205071 1.792824 0.046806
v 0.241075 1.720345 0.055024
v 0.253481 1.640000 0.057855
v 0.241075 1.559656 0.055024
v 0.205071 1.487176 0.046806
v 0.148993 1.429656 0.034007
v 0.078330 1.392725 0.017878
v 0.062816 1.887275 0.050094
v 0.119483 1.850345 0.095284
v 0.164454 1.792824 0.131148
v 0.193327 1.720345 0.154173
v 0.203276 1.640000 0.162107
v 0.193327 1.559656 0.154173
v 0.164454 1.487176 0.131148
v 0.119483 1.429656 0.095284
v 0.062816 1.392725 0.050094
v 0.034860 1.887275 0.072388
v 0.066308 1.850345 0.137690
v 0.091265 1.792824 0.189514
v 0.107288 1.720345 0.222787
v 0.112810 1.640000 0.234252
v 0.107288 1.559656 0.222787
v 0.091265 1.487176 0.189514
v 0.066308 1.429656 0.137690
v 0.034860 1.392725 0.072388
v -0.000000 1.887275 0.080344
v -0.000000 1.850345 0.152824
v -0.000000 1.792824 0.210344
v -0.000000 1.720345 0.247275
v -0.000000 1.640000 0.260000
v -0.000000 1.559656 0.247275
v -0.000000 1.487176 0.210344
v -0.000000 1.429656 0.152824
v -0.000000 1.392725 0.080344
v -0.034860 1.887275 0.072388
v -0.066308 1.850345 0.137690
v -0.091265 1.792824 0.189514
v -0.107288 1.720345 0.222787
v -0.112810 1.640000 0.234252
v -0.107288 1.559656 0.222787
v -0.091265 1.487176 0.189514
v -0.066308 1.429656 0.137690
v -0.034860 1.392725 0.072388
v -0.062816 1.887275 0.050094
v -0.119483 1.850345 0.095284
v -0.164454 1.792824 0.131148
v -0.193327 1.720345 0.154173
v -0.203276 1.640000 0.162107
v -0.193327 1.559656 0.154173
v -0.164454 1.487176 0.131148
v -0.119483 1.429656 0.095284
v -0.062816 1.392725 0.050094
v -0.078330 1.887275 0.017878
v -0.148993 1.850345 0.034007
v -0.205071 1.792824 0.046806
v -0.241075 1.720345 0.055024
v -0.253481 1.640000 0.057855
v -0.241075 1.559656 0.055024
v -0.205071 1.487176 0.046806
v -0.148993 1.429656 0.034007
v -0.078330 1.392725 0.017878
v -0.078330 1.887275 -0.017878
v -0.148992 1.850345 -0.034007
v -0.205071 1.792824 -0.046806
v -0.241075 1.720345 -0.055024
v -0.253481 1.640000 -0.057855
v -0.241075 1.559656 -0.055024
v -0.205071 1.487176 -0.046806
v -0.148992 1.429656 -0.034007
v -0.078330 1.392725 -0.017878
v -0.062816 1.887275 -0.050094
v -0.119483 1.850345 -0.095284
v -0.164454 1.792824 -0.131148
v -0.193327 1.720345 -0.154173
v -0.203276 1.640000 -0.162107
v -0.193327 1.559656 -0.154173
v -0.164454 1.487176 -0.131148
v -0.119483 1.429656 -0.095284
v -0.062816 1.392725 -0.050094
v -0.034860 1.887275 -0.072388
v -0.066308 1.850345 -0.137690
v -0.091265 1.792824 -0.189514
v -0.107288 1.720345 -0.222787
v -0.112810 1.640000 -0.234252
v -0.107288 1.559656 -0.222787
v -0.091265 1.487176 -0.189514
v -0.066308 1.429656 -0.137690
v -0.034860 1.392725 -0.072388
v 0.000000 1.850345 -0.152824
v 0.000000 1.487176 -0.210344
v 0.410000 1.510000 0.000000
v 0.410000 1.545000 0.035000
v 0.375000 1.545000 0.000000
v 0.410000 1.520252 0.024749
v 0.389793 1.524793 0.020207
v 0.385251 1.545000 0.024749
v 0.385251 1.520252 0.000000
v 0.410000 1.735000 0.035000
v 0.410000 1.770000 0.000000
v 0.375000 1.735000 0.000000
v 0.410000 1.759749 0.024749
v 0.389793 1.755208 0.020207
v 0.385251 1.759749 0.000000
v 0.385251 1.735000 0.024749
v 0.410000 1.510000 -0.000000
v 0.375000 1.545000 -0.000000
v 0.410000 1.545000 -0.035000
v 0.385251 1.520252 -0.000000
v 0.389793 1.524793 -0.020207
v 0.385251 1.545000 -0.024749
v 0.410000 1.520252 -0.024749
v 0.410000 1.770000 -0.000000
v 0.410000 1.735000 -0.035000
v 0.375000 1.735000 -0.000000
v 0.410000 1.759749 -0.024749
v 0.389793 1.755208 -0.020207
v 0.385251 1.735000 -0.024749
v 0.385251 1.759749 -0.000000
v 0.430000 1.510000 0.000000
v 0.465000 1.545000 0.000000
v 0.430000 1.545000 0.035000
v 0.454749 1.520252 0.000000
v 0.450207 1.524793 0.020207
v 0.454749 1.545000 0.024749
v 0.430000 1.520252 0.024749
v 0.430000 1.770000 0.000000
v 0.430000 1.735000 0.035000
v 0.465000 1.735000 0.000000
v 0.430000 1.759749 0.024749
v 0.450207 1.755208 0.020207
v 0.454749 1.735000 0.024749
v 0.454749 1.759749 0.000000
v 0.430000 1.510000 -0.000000
v 0.430000 1.545000 -0.035000
v 0.465000 1.545000 -0.000000
v 0.430000 1.520252 -0.024749
v 0.450207 1.524793 -0.020207
v 0.454749 1.545000 -0.024749
v 0.454749 1.520252 -0.000000
v 0.430000 1.770000 -0.000000
v 0.465000 1.735000 -0.000000
v 0.430000 1.735000 -0.035000
v 0.454749 1.759749 -0.000000
v 0.450207 1.755208 -0.020207
v 0.454749 1.735000 -0.024749
v 0.430000 1.759749 -0.024749
v 0.286985 1.510000 -0.296985
v 0.286985 1.545000 -0.261985
v 0.251985 1.545000 -0.296985
v 0.286985 1.520252 -0.272236
v 0.266778 1.524793 -0.276778
v 0.262236 1.545000 -0.272236
v 0.262236 1.520252 -0.296985
v 0.286985 1.735000 -0.261985
v 0.286985 1.770000 -0.296985
v 0.251985 1.735000 -0.296985
v 0.286985 1.759749 -0.272236
v 0.266778 1.755208 -0.276778
v 0.262236 1.759749 -0.296985
v 0.262236 1.735000 -0.272236
v 0.286985 1.510000 -0.296985
v 0.251985 1.545000 -0.296985
v 0.286985 1.545000 -0.331985
v 0.262236 1.520252 -0.296985
v 0.266778 1.524793 -0.317192
v 0.262236 1.545000 -0.321734
v 0.286985 1.520252 -0.321734
v 0.286985 1.770000 -0.296985
v 0.286985 1.735000 -0.331985
v 0.251985 1.735000 -0.296985
v 0.286985 1.759749 -0.321734
v 0.266778 1.755208 -0.317192
v 0.262236 1.735000 -0.321734
v 0.262236 1.759749 -0.296985
v 0.306985 1.510000 -0.296985
v 0.341985 1.545000 -0.296985
v 0.306985 1.545000 -0.261985
v 0.331734 1.520252 -0.296985
v 0.327192 1.524793 -0.276778
v 0.331734 1.545000 -0.272236
v 0.306985 1.520252 -0.272236
v 0.306985 1.770000 -0.296985
v 0.306985 1.735000 -0.261985
v 0.341985 1.735000 -0.296985
v 0.306985 1.759749 -0.272236
v 0.327192 1.755208 -0.276778
v 0.331734 1.735000 -0.272236
v 0.331734 1.759749 -0.296985
v 0.306985 1.510000 -0.296985
v 0.306985 1.545000 -0.331985
v 0.341985 1.545000 -0.296985
v 0.306985 1.520252 -0.321734
v 0.327192 1.524793 -0.317192
v 0.331734 1.545000 -0.321734
v 0.331734 1.520252 -0.296985
v 0.306985 1.770000 -0.296985
v 0.341985 1.735000 -0.296985
v 0.306985 1.735000 -0.331985
v 0.331734 1.759749 -0.296985
v 0.327192 1.755208 -0.317192
v 0.331734 1.735000 -0.321734
v 0.306985 1.759749 -0.321734
v -0.010000 1.510000 -0.420000
v -0.010000 1.545000 -0.385000
v -0.045000 1.545000 -0.420000
v -0.010000 1.520252 -0.395251
v -0.030207 1.524793 -0.399793
v -0.034749 1.545000 -0.395251
v -0.034749 1.520252 -0.420000
v -0.010000 1.735000 -0.385000
v -0.010000 1.770000 -0.420000
v -0.045000 1.735000 -0.420000
v -0.010000 1.759749 -0.395251
v -0.030207 1.755208 -0.399793
v -0.034749 1.759749 -0.420000
v -0.034749 1.735000 -0.395251
v -0.010000 1.510000 -0.420000
v -0.045000 1.545000 -0.420000
v -0.010000 1.545000 -0.455000
v -0.034749 1.520252 -0.420000
v -0.030207 1.524793 -0.440207
v -0.034749 1.545000 -0.444749
v -0.010000 1.520252 -0.444749
v -0.010000 1.770000 -0.420000
v -0.010000 1.735000 -0.455000
v -0.045000 1.735000 -0.420000
v -0.010000 1.759749 -0.444749
v -0.030207 1.755208 -0.440207
v -0.034749 1.735000 -0.444749
v -0.034749 1.759749 -0.420000
v 0.010000 1.510000 -0.420000
v 0.045000 1.545000 -0.420000
v 0.010000 1.545000 -0.385000
v 0.034749 1.520252 -0.420000
v 0.030207 1.524793 -0.399793
v 0.034749 1.545000 -0.395251
v 0.010000 1.520252 -0.395251
v 0.010000 1.770000 -0.420000
v 0.010000 1.735000 -0.385000
v 0.045000 1.735000 -0.420000
v 0.010000 1.759749 -0.395251
v 0.030207 1.755208 -0.399793
v 0.034749 1.735000 -0.395251
v 0.034749 1.759749 -0.420000
v 0.010000 1.510000 -0.420000
v 0.010000 1.545000 -0.455000
v 0.045000 1.545000 -0.420000
v 0.010000 1.520252 -0.444749
v 0.030207 1.524793 -0.440207
v 0.034749 1.545000 -0.444749
v 0.034749 1.520252 -0.420000
v 0.010000 1.770000 -0.420000
v 0.045000 1.735000 -0.420000
v 0.010000 1.735000 -0.455000
v 0.034749 1.759749 -0.420000
v 0.030207 1.755208 -0.440207
v 0.034749 1.735000 -0.444749
v 0.010000 1.759749 -0.444749
v -0.306985 1.510000 -0.296985
v -0.306985 1.545000 -0.261985
v -0.341985 1.545000 -0.296985
v -0.306985 1.520252 -0.272236
v -0.327192 1.524793 -0.276778
v -0.331734 1.545000 -0.272236
v -0.331734 1.520252 -0.296985
v -0.306985 1.735000 -0.261985
v -0.306985 1.770000 -0.296985
v -0.341985 1.735000 -0.296985
v -0.306985 1.759749 -0.272236
v -0.327192 1.755208 -0.276778
v -0.331734 1.759749 -0.296985
v -0.331734 1.735000 -0.272236
v -0.306985 1.510000 -0.296985
v -0.341985 1.545000 -0.296985
v -0.306985 1.545000 -0.331985
v -0.331734 1.520252 -0.296985
v -0.327192 1.524793 -0.317192
v -0.331734 1.545000 -0.321734
v -0.306985 1.520252 -0.321734
v -0.306985 1.770000 -0.296985
v -0.306985 1.735000 -0.331985
v -0.341985 1.735000 -0.296985
v -0.306985 1.759749 -0.321734
v -0.327192 1.755208 -0.317192
v -0.331734 1.735000 -0.321734
v -0.331734 1.759749 -0.296985
v -0.286985 1.510000 -0.296985
v -0.251985 1.545000 -0.296985
v -0.286985 1.545000 -0.261985
v -0.262236 1.520252 -0.296985
v -0.266778 1.524793 -0.276778
v -0.262236 1.545000 -0.272236
v -0.286985 1.520252 -0.272236
v -0.286985 1.770000 -0.296985
v -0.286985 1.735000 -0.261985
v -0.251985 1.735000 -0.296985
v -0.286985 1.759749 -0.272236
v -0.266778 1.755208 -0.276778
v -0.262236 1.735000 -0.272236
v -0.262236 1.759749 -0.296985
v -0.286985 1.510000 -0.296985
v -0.286985 1.545000 -0.331985
v -0.251985 1.545000 -0.296985
v -0.286985 1.520252 -0.321734
v -0.266778 1.524793 -0.317192
v -0.262236 1.545000 -0.321734
v -0.262236 1.520252 -0.296985
v -0.286985 1.770000 -0.296985
v -0.251985 1.735000 -0.296985
v -0.286985 1.735000 -0.331985
v -0.262236 1.759749 -0.296985
v -0.266778 1.755208 -0.317192
v -0.262236 1.735000 -0.321734
v -0.286985 1.759749 -0.321734
v -0.430000 1.510000 0.000000
v -0.430000 1.545000 0.035000
v -0.465000 1.545000 0.000000
v -0.430000 1.520252 0.024749
v -0.450207 1.524793 0.020207
v -0.454749 1.545000 0.024749
v -0.454749 1.520252 0.000000
v -0.430000 1.735000 0.035000
v -0.430000 1.770000 0.000000
v -0.465000 1.735000 0.000000
v -0.430000 1.759749 0.024749
v -0.450207 1.755208 0.020207
v -0.454749 1.759749 0.000000
v -0.454749 1.735000 0.024749
v -0.430000 1.510000 -0.000000
v -0.465000 1.545000 -0.000000
v -0.430000 1.545000 -0.035000
v -0.454749 1.520252 -0.000000
v -0.450207 1.524793 -0.020207
v -0.454749 1.545000 -0.024749
v -0.430000 1.520252 -0.024749
v -0.430000 1.770000 -0.000000
v -0.430000 1.735000 -0.035000
v -0.465000 1.735000 -0.000000
v -0.430000 1.759749 -0.024749
v -0.450207 1.755208 -0.020207
v -0.454749 1.735000 -0.024749
v -0.454749 1.759749 -0.000000
v -0.410000 1.510000 0.000000
v -0.375000 1.545000 0.000000
v -0.410000 1.545000 0.035000
v -0.385251 1.520252 0.000000
v -0.389793 1.524793 0.020207
v -0.385251 1.545000 0.024749
v -0.410000 1.520252 0.024749
v -0.410000 1.770000 0.000000
v -0.410000 1.735000 0.035000
v -0.375000 1.735000 0.000000
v -0.410000 1.759749 0.024749
v -0.389793 1.755208 0.020207
v -0.385251 1.735000 0.024749
v -0.385251 1.759749 0.000000
v -0.410000 1.510000 -0.000000
v -0.410000 1.545000 -0.035000
v -0.375000 1.545000 -0.000000
v -0.410000 1.520252 -0.024749
v -0.389793 1.524793 -0.020207
v -0.385251 1.545000 -0.024749
v -0.385251 1.520252 -0.000000
v -0.410000 1.770000 -0.000000
v -0.375000 1.735000 -0.000000
v -0.410000 1.735000 -0.035000
v -0.385251 1.759749 -0.000000
v -0.389793 1.755208 -0.020207
v -0.385251 1.735000 -0.024749
v -0.410000 1.759749 -0.024749
v -0.306985 1.510000 0.296985
v -0.306985 1.545000 0.331985
v -0.341985 1.545000 0.296985
v -0.306985 1.520252 0.321734
v -0.327192 1.524793 0.317192
v -0.331734 1.545000 0.321734
v -0.331734 1.520252 0.296985
v -0.306985 1.735000 0.331985
v -0.306985 1.770000 0.296985
v -0.341985 1.735000 0.296985
v -0.306985 1.759749 0.321734
v -0.327192 1.755208 0.317192
v -0.331734 1.759749 0.296985
v -0.331734 1.735000 0.321734
v -0.306985 1.510000 0.296985
v -0.341985 1.545000 0.296985
v -0.306985 1.545000 0.261985
v -0.331734 1.520252 0.296985
v -0.327192 1.524793 0.276778
v -0.331734 1.545000 0.272236
v -0.306985 1.520252 0.272236
v -0.306985 1.770000 0.296985
v -0.306985 1.735000 0.261985
v -0.341985 1.735000 0.296985
v -0.306985 1.759749 0.272236
v -0.327192 1.755208 0.276778
v -0.331734 1.735000 0.272236
v -0.331734 1.759749 0.296985
v -0.286985 1.510000 0.296985
v -0.251985 1.545000 0.296985
v -0.286985 1.545000 0.331985
v -0.262236 1.520252 0.296985
v -0.266778 1.524793 0.317192
v -0.262236 1.545000 0.321734
v -0.286985 1.520252 0.321734
v -0.286985 1.770000 0.296985
v -0.286985 1.735000 0.331985
v -0.251985 1.735000 0.296985
v -0.286985 1.759749 0.321734
v -0.266778 1.755208 0.317192
v -0.262236 1.735000 0.321734
v -0.262236 1.759749 0.296985
v -0.286985 1.510000 0.296985
v -0.286985 1.545000 0.261985
v -0.251985 1.545000 0.296985
v -0.286985 1.520252 0.272236
v -0.266778 1.524793 0.276778
v -0.262236 1.545000 0.272236
v -0.262236 1.520252 0.296985
v -0.286985 1.770000 0.296985
v -0.251985 1.735000 0.296985
v -0.286985 1.735000 0.261985
v -0.262236 1.759749 0.296985
v -0.266778 1.755208 0.276778
v -0.262236 1.735000 0.272236
v -0.286985 1.759749 0.272236
v -0.010000 1.510000 0.420000
v -0.010000 1.545000 0.455000
v -0.045000 1.545000 0.420000
v -0.010000 1.520252 0.444749
v -0.030207 1.524793 0.440207
v -0.034749 1.545000 0.444749
v -0.034749 1.520252 0.420000
v -0.010000 1.735000 0.455000
v -0.010000 1.770000 0.420000
v -0.045000 1.735000 0.420000
v -0.010000 1.759749 0.444749
v -0.030207 1.755208 0.440207
v -0.034749 1.759749 0.420000
v -0.034749 1.735000 0.444749
v -0.010000 1.510000 0.420000
v -0.045000 1.545000 0.420000
v -0.010000 1.545000 0.385000
v -0.034749 1.520252 0.420000
v -0.030207 1.524793 0.399793
v -0.034749 1.545000 0.395251
v -0.010000 1.520252 0.395251
v -0.010000 1.770000 0.420000
v -0.010000 1.735000 0.385000
v -0.045000 1.735000 0.420000
v -0.010000 1.759749 0.395251
v -0.030207 1.755208 0.399793
v -0.034749 1.735000 0.395251
v -0.034749 1.759749 0.420000
v 0.010000 1.510000 0.420000
v 0.045000 1.545000 0.420000
v 0.010000 1.545000 0.455000
v 0.034749 1.520252 0.420000
v 0.030207 1.524793 0.440207
v 0.034749 1.545000 0.444749
v 0.010000 1.520252 0.444749
v 0.010000 1.770000 0.420000
v 0.010000 1.735000 0.455000
v 0.045000 1.735000 0.420000
v 0.010000 1.759749 0.444749
v 0.030207 1.755208 0.440207
v 0.034749 1.735000 0.444749
v 0.034749 1.759749 0.420000
v 0.010000 1.510000 0.420000
v 0.010000 1.545000 0.385000
v 0.045000 1.545000 0.420000
v 0.010000 1.520252 0.395251
v 0.030207 1.524793 0.399793
v 0.034749 1.545000 0.395251
v 0.034749 1.520252 0.420000
v 0.010000 1.770000 0.420000
v 0.045000 1.735000 0.420000
v 0.010000 1.735000 0.385000
v 0.034749 1.759749 0.420000
v 0.030207 1.755208 0.399793
v 0.034749 1.735000 0.395251
v 0.010000 1.759749 0.395251
v 0.286985 1.510000 0.296985
v 0.286985 1.545000 0.331985
v 0.251985 1.545000 0.296985
v 0.286985 1.520252 0.321734
v 0.266778 1.524793 0.317192
v 0.262236 1.545000 0.321734
v 0.262236 1.520252 0.296985
v 0.286985 1.735000 0.331985
v 0.286985 1.770000 0.296985
v 0.251985 1.735000 0.296985
v 0.286985 1.759749 0.321734
v 0.266778 1.755208 0.317192
v 0.262236 1.759749 0.296985
v 0.262236 1.735000 0.321734
v 0.286985 1.510000 0.296985
v 0.251985 1.545000 0.296985
v 0.286985 1.545000 0.261985
v 0.262236 1.520252 0.296985
v 0.266778 1.524793 0.276778
v 0.262236 1.545000 0.272236
v 0.286985 1.520252 0.272236
v 0.286985 1.770000 0.296985
v 0.286985 1.735000 0.261985
v 0.251985 1.735000 0.296985
v 0.286985 1.759749 0.272236
v 0.266778 1.755208 0.276778
v 0.262236 1.735000 0.272236
v 0.262236 1.759749 0.296985
v 0.306985 1.510000 0.296985
v 0.341985 1.545000 0.296985
v 0.306985 1.545000 0.331985
v 0.331734 1.520252 0.296985
v 0.327192 1.524793 0.317192
v 0.331734 1.545000 0.321734
v 0.306985 1.520252 0.321734
v 0.306985 1.770000 0.296985
v 0.306985 1.735000 0.331985
v 0.341985 1.735000 0.296985
v 0.306985 1.759749 0.321734
v 0.327192 1.755208 0.317192
v 0.331734 1.735000 0.321734
v 0.331734 1.759749 0.296985
v 0.306985 1.510000 0.296985
v 0.306985 1.545000 0.261985
v 0.341985 1.545000 0.296985
v 0.306985 1.520252 0.272236
v 0.327192 1.524793 0.276778
v 0.331734 1.545000 0.272236
v 0.331734 1.520252 0.296985
v 0.306985 1.770000 0.296985
v 0.341985 1.735000 0.296985
v 0.306985 1.735000 0.261985
v 0.331734 1.759749 0.296985
v 0.327192 1.755208 0.276778
v 0.331734 1.735000 0.272236
v 0.306985 1.759749 0.272236
vn 0.5454 -0.8382 0.0059
vn 0.6507 -0.7302 0.2086
vn -0.0000 -1.0000 -0.0000
vn 0.5497 -0.7567 0.3539
vn 0.4321 -0.7658 0.4762
vn 0.2977 -0.7593 0.5786
vn 0.1433 -0.7360 0.6616
vn 0.0022 -0.6372 0.7707
vn -0.0059 -0.8382 0.5454
vn -0.2086 -0.7302 0.6507
vn -0.3539 -0.7567 0.5497
vn -0.4762 -0.7658 0.4321
vn -0.5786 -0.7593 0.2977
vn -0.6616 -0.7360 0.1433
vn -0.7707 -0.6372 0.0022
vn -0.5454 -0.8382 -0.0059
vn -0.6507 -0.7302 -0.2086
vn -0.5497 -0.7567 -0.3539
vn -0.4321 -0.7658 -0.4762
vn -0.2977 -0.7593 -0.5786
vn -0.1433 -0.7360 -0.6616
vn -0.0022 -0.6372 -0.7707
vn 0.0059 -0.8382 -0.5454
vn 0.2086 -0.7302 -0.6507
vn 0.3539 -0.7567 -0.5497
vn 0.4762 -0.7658 -0.4321
vn 0.5786 -0.7593 -0.2977
vn 0.6616 -0.7360 -0.1433
vn 0.7707 -0.6372 -0.0022
vn 0.9336 0.2495 0.2571
vn 0.9807 0.1955 0.0071
vn 0.8273 0.2828 0.4853
vn 0.6713 0.2936 0.6806
vn 0.4740 0.2818 0.8342
vn 0.2443 0.2473 0.9376
vn 0.0075 0.1940 0.9810
vn -0.0071 0.1955 0.9807
vn -0.2571 0.2495 0.9336
vn -0.4853 0.2828 0.8273
vn -0.6806 0.2936 0.6713
vn -0.8342 0.2818 0.4740
vn -0.9376 0.2473 0.2443
vn -0.9810 0.1940 0.0075
vn -0.9807 0.1955 -0.0071
vn -0.9336 0.2495 -0.2571
vn -0.8273 0.2828 -0.4853
vn -0.6713 0.2936 -0.6806
vn -0.4740 0.2818 -0.8342
vn -0.2443 0.2473 -0.9376
vn -0.0075 0.1940 -0.9810
vn 0.0071 0.1955 -0.9807
vn 0.2571 0.2495 -0.9336
vn 0.4853 0.2828 -0.8273
vn 0.6806 0.2936 -0.6713
vn 0.8342 0.2818 -0.4740
vn 0.9376 0.2473 -0.2443
vn 0.9810 0.1940 -0.0075
vn 0.9174 0.3339 0.2164
vn 0.9708 0.2397 0.0057
vn 0.8183 0.3697 0.4401
vn 0.6726 0.3829 0.6332
vn 0.4878 0.3737 0.7889
vn 0.2705 0.3419 0.9000
vn 0.0155 0.3346 0.9422
vn -0.0056 0.2398 0.9708
vn -0.2164 0.3339 0.9174
vn -0.4401 0.3697 0.8183
vn -0.6332 0.3829 0.6726
vn -0.7889 0.3737 0.4878
vn -0.9000 0.3419 0.2705
vn -0.9422 0.3346 0.0155
vn -0.9708 0.2398 -0.0056
vn -0.9174 0.3339 -0.2164
vn -0.8183 0.3697 -0.4401
vn -0.6726 0.3829 -0.6332
vn -0.4878 0.3737 -0.7889
vn -0.2705 0.3419 -0.9000
vn -0.0155 0.3346 -0.9422
vn 0.0056 0.2398 -0.9708
vn 0.2164 0.3339 -0.9174
vn 0.4401 0.3697 -0.8183
vn 0.6332 0.3829 -0.6726
vn 0.7889 0.3737 -0.4878
vn 0.9000 0.3419 -0.2705
vn 0.9422 0.3346 -0.0155
vn 0.0685 0.9976 -0.0031
vn 0.2319 0.9727 -0.0012
vn 0.0622 0.9980 0.0137
vn 0.0553 0.9981 0.0287
vn 0.0473 0.9979 0.0432
vn 0.0375 0.9976 0.0587
vn 0.0027 0.9987 -0.0509
vn 0.0012 0.9727 0.2319
vn 0.0031 0.9976 0.0685
vn -0.0137 0.9980 0.0622
vn -0.0287 0.9981 0.0553
vn -0.0432 0.9979 0.0473
vn -0.0587 0.9976 0.0375
vn 0.0509 0.9987 0.0027
vn -0.2319 0.9727 0.0012
vn -0.0685 0.9976 0.0031
vn -0.0622 0.9980 -0.0137
vn -0.0553 0.9981 -0.0287
vn -0.0473 0.9979 -0.0432
vn -0.0375 0.9976 -0.0587
vn -0.0027 0.9987 0.0509
vn -0.0012 0.9727 -0.2319
vn -0.0031 0.9976 -0.0685
vn 0.0137 0.9980 -0.0622
vn 0.0287 0.9981 -0.0553
vn 0.0432 0.9979 -0.0473
vn 0.0587 0.9976 -0.0375
vn -0.0509 0.9987 -0.0027
vn -0.2401 0.9689 -0.0590
vn -0.2915 0.9566 -0.0026
vn -0.2006 0.9734 -0.1104
vn -0.1608 0.9749 -0.1543
vn -0.1178 0.9738 -0.1945
vn -0.0680 0.9698 -0.2341
vn -0.0045 0.9649 -0.2627
vn 0.0026 0.9566 -0.2915
vn 0.0590 0.9689 -0.2401
vn 0.1104 0.9734 -0.2007
vn 0.1543 0.9749 -0.1608
vn 0.1945 0.9738 -0.1178
vn 0.2341 0.9698 -0.0680
vn 0.2627 0.9649 -0.0045
vn 0.2915 0.9566 0.0026
vn 0.2401 0.9689 0.0590
vn 0.2006 0.9734 0.1104
vn 0.1608 0.9749 0.1543
vn 0.1178 0.9738 0.1945
vn 0.0680 0.9698 0.2341
vn 0.0045 0.9649 0.2627
vn -0.0026 0.9566 0.2915
vn -0.0590 0.9689 0.2401
vn -0.1104 0.9734 0.2007
vn -0.1543 0.9749 0.1608
vn -0.1945 0.9738 0.1178
vn -0.2341 0.9698 0.0680
vn -0.2627 0.9649 0.0045
vn -0.1449 0.9889 -0.0316
vn -0.1735 0.9848 -0.0011
vn -0.1228 0.9904 -0.0633
vn -0.0995 0.9909 -0.0905
vn -0.0738 0.9906 -0.1150
vn -0.0441 0.9894 -0.1380
vn -0.0036 0.9892 -0.1463
vn 0.0011 0.9848 -0.1735
vn 0.0316 0.9889 -0.1449
vn 0.0633 0.9904 -0.1228
vn 0.0905 0.9909 -0.0995
vn 0.1150 0.9906 -0.0738
vn 0.1381 0.9894 -0.0441
vn 0.1463 0.9892 -0.0036
vn 0.1735 0.9848 0.0011
vn 0.1449 0.9889 0.0316
vn 0.1228 0.9904 0.0633
vn 0.0995 0.9909 0.0905
vn 0.0738 0.9906 0.1150
vn 0.0441 0.9894 0.1380
vn 0.0036 0.9892 0.1463
vn -0.0011 0.9848 0.1735
vn -0.0316 0.9889 0.1449
vn -0.0633 0.9904 0.1228
vn -0.0905 0.9909 0.0995
vn -0.1150 0.9906 0.0738
vn -0.1381 0.9894 0.0441
vn -0.1463 0.9892 0.0036
vn -0.0000 1.0000 -0.0000
vn -0.1794 -0.9673 0.1794
vn -0.1726 -0.6965 0.6965
vn -0.5773 -0.5774 0.5773
vn -0.6965 -0.6965 0.1726
vn -0.1794 -0.1794 0.9673
vn -0.6965 -0.1726 0.6965
vn -0.9673 -0.1794 0.1794
vn -0.1794 0.1794 0.9673
vn -0.1726 0.6965 0.6965
vn -0.5774 0.5773 0.5774
vn -0.6965 0.1726 0.6965
vn -0.1794 0.9673 0.1794
vn -0.6965 0.6965 0.1726
vn -0.9673 0.1794 0.1794
vn -0.1794 -0.9673 -0.1794
vn -0.6965 -0.6965 -0.1726
vn -0.5773 -0.5774 -0.5773
vn -0.1726 -0.6965 -0.6965
vn -0.9673 -0.1794 -0.1794
vn -0.6965 -0.1726 -0.6965
vn -0.1794 -0.1794 -0.9673
vn -0.1794 0.9673 -0.1794
vn -0.1726 0.6965 -0.6965
vn -0.5774 0.5773 -0.5774
vn -0.6965 0.6965 -0.1726
vn -0.1794 0.1794 -0.9673
vn -0.6965 0.1726 -0.6965
vn -0.9673 0.1794 -0.1794
vn 0.1794 -0.9673 0.1794
vn 0.6965 -0.6965 0.1726
vn 0.5773 -0.5774 0.5773
vn 0.1726 -0.6965 0.6965
vn 0.9673 -0.1794 0.1794
vn 0.6965 -0.1726 0.6965
vn 0.1794 -0.1794 0.9673
vn 0.1794 0.9673 0.1794
vn 0.1726 0.6965 0.6965
vn 0.5774 0.5773 0.5774
vn 0.6965 0.6965 0.1726
vn 0.1794 0.1794 0.9673
vn 0.6965 0.1726 0.6965
vn 0.9673 0.1794 0.1794
vn 0.1794 -0.9673 -0.1794
vn 0.1726 -0.6965 -0.6965
vn 0.5773 -0.5774 -0.5773
vn 0.6965 -0.6965 -0.1726
vn 0.1794 -0.1794 -0.9673
vn 0.6965 -0.1726 -0.6965
vn 0.9673 -0.1794 -0.1794
vn 0.1794 0.9673 -0.1794
vn 0.6965 0.6965 -0.1726
vn 0.5774 0.5773 -0.5774
vn 0.1726 0.6965 -0.6965
vn 0.9673 0.1794 -0.1794
vn 0.6965 0.1726 -0.6965
vn 0.1794 0.1794 -0.9673
vn -0.0000 -0.5774 -0.8164
vn -0.0000 -0.3027 -0.9531
vn 0.4135 -0.3027 -0.8587
vn 0.3542 -0.5774 -0.7356
vn -0.0000 0.3027 -0.9531
vn -0.0000 0.5774 -0.8164
vn 0.3542 0.5774 -0.7356
vn 0.4135 0.3027 -0.8587
vn -0.0000 0.9444 -0.3289
vn 0.1427 0.9444 -0.2964
vn -0.0000 -0.7985 -0.6020
vn 0.2612 -0.7985 -0.5424
vn -0.0000 -0.0000 -1.0000
vn 0.4339 -0.0000 -0.9010
vn -0.0000 0.7985 -0.6020
vn 0.2612 0.7985 -0.5424
vn -0.0000 -0.9444 -0.3289
vn 0.1427 -0.9444 -0.2964
vn 0.7452 -0.3027 -0.5942
vn 0.6383 -0.5774 -0.5090
vn 0.6383 0.5774 -0.5090
vn 0.7452 0.3027 -0.5942
vn 0.2572 0.9444 -0.2051
vn 0.4707 -0.7985 -0.3753
vn 0.7818 -0.0000 -0.6235
vn 0.4707 0.7985 -0.3753
vn 0.2572 -0.9444 -0.2051
vn 0.5869 0.7985 -0.1340
vn 0.7960 0.5774 -0.1817
vn 0.3207 -0.9444 -0.0732
vn 0.9292 -0.3027 -0.2121
vn 0.7960 -0.5774 -0.1817
vn 0.9292 0.3027 -0.2121
vn 0.3207 0.9444 -0.0732
vn 0.5869 -0.7985 -0.1340
vn 0.9749 -0.0000 -0.2225
vn 0.9749 -0.0000 0.2225
vn 0.9292 -0.3027 0.2121
vn 0.5869 0.7985 0.1340
vn 0.7960 0.5774 0.1817
vn 0.3207 -0.9444 0.0732
vn 0.7960 -0.5774 0.1817
vn 0.9292 0.3027 0.2121
vn 0.3207 0.9444 0.0732
vn 0.5869 -0.7985 0.1340
vn 0.2572 0.9444 0.2051
vn 0.4707 0.7985 0.3753
vn 0.4707 -0.7985 0.3753
vn 0.2572 -0.9444 0.2051
vn 0.7818 -0.0000 0.6235
vn 0.7452 -0.3027 0.5942
vn 0.6383 0.5774 0.5090
vn 0.6383 -0.5774 0.5090
vn 0.7452 0.3027 0.5942
vn 0.3542 -0.5774 0.7356
vn 0.2612 -0.7985 0.5424
vn 0.4135 0.3027 0.8587
vn 0.4339 -0.0000 0.9010
vn 0.1427 0.9444 0.2964
vn 0.2612 0.7985 0.5424
vn 0.1427 -0.9444 0.2964
vn 0.4135 -0.3027 0.8587
vn 0.3542 0.5774 0.7356
vn -0.0000 0.5774 0.8164
vn -0.0000 0.3027 0.9531
vn -0.0000 0.9444 0.3289
vn -0.0000 -0.5774 0.8164
vn -0.0000 -0.7985 0.6020
vn -0.0000 -0.0000 1.0000
vn -0.0000 0.7985 0.6020
vn -0.0000 -0.9444 0.3289
vn -0.0000 -0.3027 0.9531
vn -0.4135 -0.3027 0.8587
vn -0.3542 -0.5774 0.7356
vn -0.3542 0.5774 0.7356
vn -0.4135 0.3027 0.8587
vn -0.1427 0.9444 0.2964
vn -0.2612 -0.7985 0.5424
vn -0.4339 -0.0000 0.9010
vn -0.2612 0.7985 0.5424
vn -0.1427 -0.9444 0.2964
vn -0.4707 0.7985 0.3753
vn -0.6383 0.5774 0.5090
vn -0.2572 -0.9444 0.2051
vn -0.7452 -0.3027 0.5942
vn -0.6383 -0.5774 0.5090
vn -0.7452 0.3027 0.5942
vn -0.2572 0.9444 0.2051
vn -0.4707 -0.7985 0.3753
vn -0.7818 -0.0000 0.6235
vn -0.5869 -0.7985 0.1340
vn -0.3207 -0.9444 0.0732
vn -0.9749 -0.0000 0.2225
vn -0.9292 -0.3027 0.2121
vn -0.5869 0.7985 0.1340
vn -0.7960 0.5774 0.1817
vn -0.7960 -0.5774 0.1817
vn -0.9292 0.3027 0.2121
vn -0.3207 0.9444 0.0732
vn -0.9292 0.3027 -0.2121
vn -0.9749 -0.0000 -0.2225
vn -0.3207 0.9444 -0.0732
vn -0.5869 0.7985 -0.1340
vn -0.5869 -0.7985 -0.1340
vn -0.3207 -0.9444 -0.0732
vn -0.9292 -0.3027 -0.2121
vn -0.7960 0.5774 -0.1817
vn -0.7960 -0.5774 -0.1817
vn -0.2572 0.9444 -0.2051
vn -0.6383 -0.5774 -0.5090
vn -0.4707 -0.7985 -0.3753
vn -0.7452 0.3027 -0.5942
vn -0.7818 -0.0000 -0.6235
vn -0.4707 0.7985 -0.3753
vn -0.2572 -0.9444 -0.2051
vn -0.7452 -0.3027 -0.5942
vn -0.6383 0.5774 -0.5090
vn -0.3542 0.5774 -0.7356
vn -0.4135 0.3027 -0.8587
vn -0.1427 0.9444 -0.2964
vn -0.3542 -0.5774 -0.7356
vn -0.2612 -0.7985 -0.5424
vn -0.4339 -0.0000 -0.9010
vn -0.2612 0.7985 -0.5424
vn -0.1427 -0.9444 -0.2964
vn -0.4135 -0.3027 -0.8587
vn -0.5774 0.5773 0.5773
vn -0.5774 0.5773 -0.5773
vn 0.5774 0.5773 0.5773
vn 0.5774 0.5773 -0.5773
vn -0.3745 0.3446 0.8608
vn -0.6020 0.3358 0.7245
vn -0.6888 0.2810 0.6683
vn -0.5773 0.5774 0.5774
vn -0.0775 0.9809 0.1782
vn -0.3330 0.9259 0.1785
vn -0.5857 0.7774 0.2295
vn -0.3745 0.3446 -0.8608
vn -0.7185 -0.5586 0.4144
vn -0.9124 0.3722 0.1703
vn -0.0775 0.9809 -0.1782
vn -0.5773 0.5774 -0.5774
vn -0.3330 0.9259 -0.1785
vn -0.5857 0.7774 -0.2295
vn 0.1567 -0.9196 0.3603
vn 0.8773 -0.0964 0.4701
vn 0.6858 0.6764 0.2687
vn 0.1567 0.9196 0.3603
vn 0.5773 0.5774 0.5774
vn 0.6020 -0.3358 0.7245
vn 0.6322 0.4734 0.6134
vn 0.1567 -0.9196 -0.3603
vn 0.4536 -0.8574 -0.2431
vn 0.6858 0.6764 -0.2687
vn 0.1567 0.9196 -0.3603
vn 0.7185 0.5586 0.4144
vn 0.5773 0.5774 -0.5774
vn 0.7917 0.5928 0.1478
vn -0.2402 -0.9029 0.3565
vn -0.7213 -0.6660 0.1900
vn -0.9414 0.2433 0.2337
vn -0.5773 0.5774 0.5773
vn -0.1200 0.9767 0.1780
vn -0.7213 0.6660 0.1900
vn -0.8816 0.4182 0.2188
vn -0.2402 -0.9029 -0.3565
vn -0.7213 -0.6661 -0.1900
vn -0.9414 0.2433 -0.2337
vn -0.1200 0.9767 -0.1780
vn -0.7213 0.6661 -0.1900
vn -0.8816 0.4182 -0.2188
vn 0.2402 -0.9029 0.3565
vn 0.7213 -0.6660 0.1900
vn 0.9414 0.2433 0.2337
vn 0.1200 0.9767 0.1780
vn 0.7213 0.6660 0.1900
vn 0.8816 0.4182 0.2188
vn 0.2402 -0.9029 -0.3565
vn 0.7213 -0.6660 -0.1900
vn 0.9414 0.2433 -0.2337
vn 0.1200 0.9767 -0.1780
vn 0.7213 0.6660 -0.1900
vn 0.8816 0.4182 -0.2188
vn -0.5988 0.7338 0.3209
vn -0.6858 0.6764 0.2687
vn -0.8453 0.2833 -0.4530
vn -0.6858 0.6764 -0.2687
vn 0.5947 -0.7271 -0.3430
vn 0.9124 0.3722 -0.1703
vn 0.3335 -0.8530 -0.4014
vn 0.6888 0.2810 -0.6683
vn -0.1567 -0.9196 0.3603
vn -0.4536 -0.8574 0.2431
vn -0.1567 -0.9196 -0.3603
vn -0.8773 -0.0964 -0.4701
vn 0.3745 0.3446 0.8608
vn 0.7185 -0.5586 -0.4144
vn 0.0775 0.9809 0.1782
vn 0.3335 0.8530 0.4014
vn 0.3745 0.3446 -0.8608
vn 0.6020 0.3358 -0.7245
vn 0.0775 0.9809 -0.1782
vn 0.5947 0.7271 0.3430
vn -0.7213 -0.6660 -0.1900
vn -0.7213 0.6660 -0.1900
vn 0.7213 -0.6661 0.1900
vn 0.7213 0.6661 0.1900
vn 0.5773 0.5774 -0.5773
vn -0.3335 -0.8530 0.4014
vn -0.5947 -0.7271 0.3430
vn 0.8453 0.2833 0.4530
vn 0.5988 0.7338 -0.3209
s 1
f 2//1 3//2 1//3
f 3//2 4//4 1//3
f 4//4 5//5 1//3
f 5//5 6//6 1//3
f 6//6 7//7 1//3
f 7//7 8//8 1//3
f 8//8 9//9 1//3
f 9//9 10//10 1//3
f 10//10 11//11 1//3
f 11//11 12//12 1//3
f 12//12 13//13 1//3
f 13//13 14//14 1//3
f 14//14 15//15 1//3
f 15//15 16//16 1//3
f 16//16 17//17 1//3
f 17//17 18//18 1//3
f 18//18 19//19 1//3
f 19//19 20//20 1//3
f 20//20 21//21 1//3
f 21//21 22//22 1//3
f 22//22 23//23 1//3
f 23//23 24//24 1//3
f 24//24 25//25 1//3
f 25//25 26//26 1//3
f 26//26 27//27 1//3
f 27//27 28//28 1//3
f 28//28 29//29 1//3
f 29//29 2//1 1//3
f 31//30 3//2 2//1
f 30//31 31//30 2//1
f 32//32 4//4 3//2
f 31//30 32//32 3//2
f 33//33 5//5 4//4
f 32//32 33//33 4//4
f 34//34 6//6 5//5
f 33//33 34//34 5//5
f 35//35 7//7 6//6
f 34//34 35//35 6//6
f 36//36 8//8 7//7
f 35//35 36//36 7//7
f 37//37 9//9 8//8
f 36//36 37//37 8//8
f 38//38 10//10 9//9
f 37//37 38//38 9//9
f 39//39 11//11 10//10
f 38//38 39//39 10//10
f 40//40 12//12 11//11
f 39//39 40//40 11//11
f 41//41 13//13 12//12
f 40//40 41//41 12//12
f 42//42 14//14 13//13
f 41//41 42//42 13//13
f 43//43 15//15 14//14
f 42//42 43//43 14//14
f 44//44 16//16 15//15
f 43//43 44//44 15//15
f 45//45 17//17 16//16
f 44//44 45//45 16//16
f 46//46 18//18 17//17
f 45//45 46//46 17//17
f 47//47 19//19 18//18
f 46//46 47//47 18//18
f 48//48 20//20 19//19
f 47//47 48//48 19//19
f 49//49 21//21 20//20
f 48//48 49//49 20//20
f 50//50 22//22 21//21
f 49//49 50//50 21//21
f 51//51 23//23 22//22
f 50//50 51//51 22//22
f 52//52 24//24 23//23
f 51//51 52//52 23//23
f 53//53 25//25 24//24
f 52//52 53//53 24//24
f 54//54 26//26 25//25
f 53//53 54//54 25//25
f 55//55 27//27 26//26
f 54//54 55//55 26//26
f 56//56 28//28 27//27
f 55//55 56//56 27//27
f 57//57 29//29 28//28
f 56//56 57//57 28//28
f 30//31 2//1 29//29
f 57//57 30//31 29//29
f 59//58 31//30 30//31
f 58//59 59//58 30//31
f 60//60 32//32 31//30
f 59//58 60//60 31//30
f 61//61 33//33 32//32
f 60//60 61//61 32//32
f 62//62 34//34 33//33
f 61//61 62//62 33//33
f 63//63 35//35 34//34
f 62//62 63//63 34//34
f 64//64 36//36 35//35
f 63//63 64//64 35//35
f 65//65 37//37 36//36
f 64//64 65//65 36//36
f 66//66 38//38 37//37
f 65//65 66//66 37//37
f 67//67 39//39 38//38
f 66//66 67//67 38//38
f 68//68 40//40 39//39
f 67//67 68//68 39//39
f 69//69 41//41 40//40
f 68//68 69//69 40//40
f 70//70 42//42 41//41
f 69//69 70//70 41//41
f 71//71 43//43 42//42
f 70//70 71//71 42//42
f 72//72 44//44 43//43
f 71//71 72//72 43//43
f 73//73 45//45 44//44
f 72//72 73//73 44//44
f 74//74 46//46 45//45
f 73//73 74//74 45//45
f 75//75 47//47 46//46
f 74//74 75//75 46//46
f 76//76 48//48 47//47
f 75//75 76//76 47//47
f 77//77 49//49 48//48
f 76//76 77//77 48//48
f 78//78 50//50 49//49
f 77//77 78//78 49//49
f 79//79 51//51 50//50
f 78//78 79//79 50//50
f 80//80 52//52 51//51
f 79//79 80//80 51//51
f 81//81 53//53 52//52
f 80//80 81//81 52//52
f 82//82 54//54 53//53
f 81//81 82//82 53//53
f 83//83 55//55 54//54
f 82//82 83//83 54//54
f 84//84 56//56 55//55
f 83//83 84//84 55//55
f 85//85 57//57 56//56
f 84//84 85//85 56//56
f 58//59 30//31 57//57
f 85//85 58//59 57//57
f 87//86 59//58 58//59
f 86//87 87//86 58//59
f 88//88 60//60 59//58
f 87//86 88//88 59//58
f 89//89 61//61 60//60
f 88//88 89//89 60//60
f 90//90 62//62 61//61
f 89//89 90//90 61//61
f 91//91 63//63 62//62
f 90//90 91//91 62//62
f 92//92 64//64 63//63
f 91//91 92//92 63//63
f 93//93 65//65 64//64
f 92//92 93//93 64//64
f 94//94 66//66 65//65
f 93//93 94//94 65//65
f 95//95 67//67 66//66
f 94//94 95//95 66//66
f 96//96 68//68 67//67
f 95//95 96//96 67//67
f 97//97 69//69 68//68
f 96//96 97//97 68//68
f 98//98 70//70 69//69
f 97//97 98//98 69//69
f 99//99 71//71 70//70
f 98//98 99//99 70//70
f 100//100 72//72 71//71
f 99//99 100//100 71//71
f 101//101 73//73 72//72
f 100//100 101//101 72//72
f 102//102 74//74 73//73
f 101//101 102//102 73//73
f 103//103 75//75 74//74
f 102//102 103//103 74//74
f 104//104 76//76 75//75
f 103//103 104//104 75//75
f 105//105 77//77 76//76
f 104//104 105//105 76//76
f 106//106 78//78 77//77
f 105//105 106//106 77//77
f 107//107 79//79 78//78
f 106//106 107//107 78//78
f 108//108 80//80 79//79
f 107//107 108//108 79//79
f 109//109 81//81 80//80
f 108//108 109//109 80//80
f 110//110 82//82 81//81
f 109//109 110//110 81//81
f 111//111 83//83 82//82
f 110//110 111//111 82//82
f 112//112 84//84 83//83
f 111//111 112//112 83//83
f 113//113 85//85 84//84
f 112//112 113//113 84//84
f 86//87 58//59 85//85
f 113//113 86//87 85//85
f 115//114 87//86 86//87
f 114//115 115//114 86//87
f 116//116 88//88 87//86
f 115//114 116//116 87//86
f 117//117 89//89 88//88
f 116//116 117//117 88//88
f 118//118 90//90 89//89
f 117//117 118//118 89//89
f 119//119 91//91 90//90
f 118//118 119//119 90//90
f 120//120 92//92 91//91
f 119//119 120//120 91//91
f 121//121 93//93 92//92
f 120//120 121//121 92//92
f 122//122 94//94 93//93
f 121//121 122//122 93//93
f 123//123 95//95 94//94
f 122//122 123//123 94//94
f 124//124 96//96 95//95
f 123//123 124//124 95//95
f 125//125 97//97 96//96
f 124//124 125//125 96//96
f 126//126 98//98 97//97
f 125//125 126//126 97//97
f 127//127 99//99 98//98
f 126//126 127//127 98//98
f 128//128 100//100 99//99
f 127//127 128//128 99//99
f 129//129 101//101 100//100
f 128//128 129//129 100//100
f 130//130 102//102 101//101
f 129//129 130//130 101//101
f 131//131 103//103 102//102
f 130//130 131//131 102//102
f 132//132 104//104 103//103
f 131//131 132//132 103//103
f 133//133 105//105 104//104
f 132//132 133//133 104//104
f 134//134 106//106 105//105
f 133//133 134//134 105//105
f 135//135 107//107 106//106
f 134//134 135//135 106//106
f 136//136 108//108 107//107
f 135//135 136//136 107//107
f 137//137 109//109 108//108
f 136//136 137//137 108//108
f 138//138 110//110 109//109
f 137//137 138//138 109//109
f 139//139 111//111 110//110
f 138//138 139//139 110//110
f 140//140 112//112 111//111
f 139//139 140//140 111//111
f 141//141 113//113 112//112
f 140//140 141//141 112//112
f 114//115 86//87 113//113
f 141//141 114//115 113//113
f 143//142 115//114 114//115
f 142//143 143//142 114//115
f 144//144 116//116 115//114
f 143//142 144//144 115//114
f 145//145 117//117 116//116
f 144//144 145//145 116//116
f 146//146 118//118 117//117
f 145//145 146//146 117//117
f 147//147 119//119 118//118
f 146//146 147//147 118//118
f 148//148 120//120 119//119
f 147//147 148//148 119//119
f 149//149 121//121 120//120
f 148//148 149//149 120//120
f 150//150 122//122 121//121
f 149//149 150//150 121//121
f 151//151 123//123 122//122
f 150//150 151//151 122//122
f 152//152 124//124 123//123
f 151//151 152//152 123//123
f 153//153 125//125 124//124
f 152//152 153//153 124//124
f 154//154 126//126 125//125
f 153//153 154//154 125//125
f 155//155 127//127 126//126
f 154//154 155//155 126//126
f 156//156 128//128 127//127
f 155//155 156//156 127//127
f 157//157 129//129 128//128
f 156//156 157//157 128//128
f 158//158 130//130 129//129
f 157//157 158//158 129//129
f 159//159 131//131 130//130
f 158//158 159//159 130//130
f 160//160 132//132 131//131
f 159//159 160//160 131//131
f 161//161 133//133 132//132
f 160//160 161//161 132//132
f 162//162 134//134 133//133
f 161//161 162//162 133//133
f 163//163 135//135 134//134
f 162//162 163//163 134//134
f 164//164 136//136 135//135
f 163//163 164//164 135//135
f 165//165 137//137 136//136
f 164//164 165//165 136//136
f 166//166 138//138 137//137
f 165//165 166//166 137//137
f 167//167 139//139 138//138
f 166//166 167//167 138//138
f 168//168 140//140 139//139
f 167//167 168//168 139//139
f 169//169 141//141 140//140
f 168//168 169//169 140//140
f 142//143 114//115 141//141
f 169//169 142//143 141//141
f 170//170 143//142 142//143
f 170//170 144//144 143//142
f 170//170 145//145 144//144
f 170//170 146//146 145//145
f 170//170 147//147 146//146
f 170//170 148//148 147//147
f 170//170 149//149 148//148
f 170//170 150//150 149//149
f 170//170 151//151 150//150
f 170//170 152//152 151//151
f 170//170 153//153 152//152
f 170//170 154//154 153//153
f 170//170 155//155 154//154
f 170//170 156//156 155//155
f 170//170 157//157 156//156
f 170//170 158//158 157//157
f 170//170 159//159 158//158
f 170//170 160//160 159//159
f 170//170 161//161 160//160
f 170//170 162//162 161//161
f 170//170 163//163 162//162
f 170//170 164//164 163//163
f 170//170 165//165 164//164
f 170//170 166//166 165//165
f 170//170 167//167 166//166
f 170//170 168//168 167//167
f 170//170 169//169 168//168
f 170//170 142//143 169//169
f 171//171 174//172 175//173 177//174
f 172//175 176//176 175//173 174//172
f 173//177 177//174 175//173 176//176
f 178//178 181//179 182//180 184//181
f 179//182 183//183 182//180 181//179
f 180//184 184//181 182//180 183//183
f 185//185 188//186 189//187 191//188
f 186//189 190//190 189//187 188//186
f 187//191 191//188 189//187 190//190
f 192//192 195//193 196//194 198//195
f 193//196 197//197 196//194 195//193
f 194//198 198//195 196//194 197//197
f 199//199 202//200 203//201 205//202
f 200//203 204//204 203//201 202//200
f 201//205 205//202 203//201 204//204
f 206//206 209//207 210//208 212//209
f 207//210 211//211 210//208 209//207
f 208//212 212//209 210//208 211//211
f 213//213 216//214 217//215 219//216
f 214//217 218//218 217//215 216//214
f 215//219 219//216 217//215 218//218
f 220//220 223//221 224//222 226//223
f 221//224 225//225 224//222 223//221
f 222//226 226//223 224//222 225//225
f 185//185 171//171 177//174 188//186
f 188//186 177//174 173//177 186//189
f 172//175 178//178 184//181 176//176
f 176//176 184//181 180//184 173//177
f 179//182 192//192 198//195 183//183
f 183//183 198//195 194//198 180//184
f 193//196 187//191 190//190 197//197
f 197//197 190//190 186//189 194//198
f 213//213 185//185 191//188 216//214
f 216//214 191//188 187//191 214//217
f 192//192 220//220 226//223 195//193
f 195//193 226//223 222//226 193//196
f 221//224 215//219 218//218 225//225
f 225//225 218//218 214//217 222//226
f 199//199 213//213 219//216 202//200
f 202//200 219//216 215//219 200//203
f 220//220 206//206 212//209 223//221
f 223//221 212//209 208//212 221//224
f 207//210 201//205 204//204 211//211
f 211//211 204//204 200//203 208//212
f 171//171 199//199 205//202 174//172
f 174//172 205//202 201//205 172//175
f 206//206 179//182 181//179 209//207
f 209//207 181//179 178//178 207//210
f 185//185 213//213 199//199 171//171
f 173//177 180//184 194//198 186//189
f 201//205 207//210 178//178 172//175
f 220//220 192//192 179//182 206//206
f 187//191 193//196 222//226 214//217
f 215//219 221//224 208//212 200//203
f 354//227 232//228 241//229 242//230
f 230//231 229//232 238//233 239//234
f 228//235 227//170 236//236
f 233//237 354//227 242//230 243//238
f 231//239 230//231 239//234 240//240
f 353//241 228//235 236//236 237//242
f 234//243 233//237 243//238 244//244
f 232//228 231//239 240//240 241//229
f 229//232 353//241 237//242 238//233
f 235//3 234//243 244//244
f 242//230 241//229 250//245 251//246
f 239//234 238//233 247//247 248//248
f 236//236 227//170 245//249
f 243//238 242//230 251//246 252//250
f 240//240 239//234 248//248 249//251
f 237//242 236//236 245//249 246//252
f 244//244 243//238 252//250 253//253
f 241//229 240//240 249//251 250//245
f 238//233 237//242 246//252 247//247
f 235//3 244//244 253//253
f 247//247 246//252 255//254 256//255
f 235//3 253//253 262//256
f 251//246 250//245 259//257 260//258
f 248//248 247//247 256//255 257//259
f 245//249 227//170 254//260
f 252//250 251//246 260//258 261//261
f 249//251 248//248 257//259 258//262
f 246//252 245//249 254//260 255//254
f 253//253 252//250 261//261 262//256
f 250//245 249//251 258//262 259//257
f 259//257 258//262 267//263 268//264
f 256//255 255//254 264//265 265//266
f 235//3 262//256 271//267
f 260//258 259//257 268//264 269//268
f 257//259 256//255 265//266 266//269
f 254//260 227//170 263//270
f 261//261 260//258 269//268 270//271
f 258//262 257//259 266//269 267//263
f 255//254 254//260 263//270 264//265
f 262//256 261//261 270//271 271//267
f 264//265 263//270 272//272 273//273
f 271//267 270//271 279//274 280//275
f 268//264 267//263 276//276 277//277
f 265//266 264//265 273//273 274//278
f 235//3 271//267 280//275
f 269//268 268//264 277//277 278//279
f 266//269 265//266 274//278 275//280
f 263//270 227//170 272//272
f 270//271 269//268 278//279 279//274
f 267//263 266//269 275//280 276//276
f 279//274 278//279 287//281 288//282
f 276//276 275//280 284//283 285//284
f 273//273 272//272 281//285 282//286
f 280//275 279//274 288//282 289//287
f 277//277 276//276 285//284 286//288
f 274//278 273//273 282//286 283//289
f 235//3 280//275 289//287
f 278//279 277//277 286//288 287//281
f 275//280 274//278 283//289 284//283
f 272//272 227//170 281//285
f 284//283 283//289 292//290 293//291
f 281//285 227//170 290//292
f 288//282 287//281 296//293 297//294
f 285//284 284//283 293//291 294//295
f 282//286 281//285 290//292 291//296
f 289//287 288//282 297//294 298//297
f 286//288 285//284 294//295 295//298
f 283//289 282//286 291//296 292//290
f 235//3 289//287 298//297
f 287//281 286//288 295//298 296//293
f 296//293 295//298 304//299 305//300
f 293//291 292//290 301//301 302//302
f 290//292 227//170 299//303
f 297//294 296//293 305//300 306//304
f 294//295 293//291 302//302 303//305
f 291//296 290//292 299//303 300//306
f 298//297 297//294 306//304 307//307
f 295//298 294//295 303//305 304//299
f 292//290 291//296 300//306 301//301
f 235//3 298//297 307//307
f 301//301 300//306 309//308 310//309
f 235//3 307//307 316//310
f 305//300 304//299 313//311 314//312
f 302//302 301//301 310//309 311//313
f 299//303 227//170 308//314
f 306//304 305//300 314//312 315//315
f 303//305 302//302 311//313 312//316
f 300//306 299//303 308//314 309//308
f 307//307 306//304 315//315 316//310
f 304//299 303//305 312//316 313//311
f 316//310 315//315 324//317 325//318
f 313//311 312//316 321//319 322//320
f 310//309 309//308 318//321 319//322
f 235//3 316//310 325//318
f 314//312 313//311 322//320 323//323
f 311//313 310//309 319//322 320//324
f 308//314 227//170 317//325
f 315//315 314//312 323//323 324//317
f 312//316 311//313 320//324 321//319
f 309//308 308//314 317//325 318//321
f 321//319 320//324 329//326 330//327
f 318//321 317//325 326//328 327//329
f 325//318 324//317 333//330 334//331
f 322//320 321//319 330//327 331//332
f 319//322 318//321 327//329 328//333
f 235//3 325//318 334//331
f 323//323 322//320 331//332 332//334
f 320//324 319//322 328//333 329//326
f 317//325 227//170 326//328
f 324//317 323//323 332//334 333//330
f 326//328 227//170 335//335
f 333//330 332//334 341//336 342//337
f 330//327 329//326 338//338 339//339
f 327//329 326//328 335//335 336//340
f 334//331 333//330 342//337 343//341
f 331//332 330//327 339//339 340//342
f 328//333 327//329 336//340 337//343
f 235//3 334//331 343//341
f 332//334 331//332 340//342 341//336
f 329//326 328//333 337//343 338//338
f 338//338 337//343 346//344 347//345
f 335//335 227//170 344//346
f 342//337 341//336 350//347 351//348
f 339//339 338//338 347//345 348//349
f 336//340 335//335 344//346 345//350
f 343//341 342//337 351//348 352//351
f 340//342 339//339 348//349 349//352
f 337//343 336//340 345//350 346//344
f 235//3 343//341 352//351
f 341//336 340//342 349//352 350//347
f 235//3 352//351 234//243
f 350//347 349//352 232//228 354//227
f 347//345 346//344 229//232 230//231
f 344//346 227//170 228//235
f 351//348 350//347 354//227 233//237
f 348//349 347//345 230//231 231//239
f 345//350 344//346 228//235 353//241
f 352//351 351//348 233//237 234//243
f 349//352 348//349 231//239 232//228
f 346//344 345//350 353//241 229//232
f 355//171 358//172 359//173 361//174
f 356//175 360//176 359//173 358//172
f 357//177 361//174 359//173 360//176
f 362//178 365//179 366//353 368//181
f 363//182 367//183 366//353 365//179
f 364//184 368//181 366//353 367//183
f 369//185 372//186 373//187 375//188
f 370//189 374//190 373//187 372//186
f 371//191 375//188 373//187 374//190
f 376//192 379//193 380//354 382//195
f 377//196 381//197 380//354 379//193
f 378//198 382//195 380//354 381//197
f 383//199 386//200 387//201 389//202
f 384//203 388//204 387//201 386//200
f 385//205 389//202 387//201 388//204
f 390//206 393//207 394//355 396//209
f 391//210 395//211 394//355 393//207
f 392//212 396//209 394//355 395//211
f 397//213 400//214 401//215 403//216
f 398//217 402//218 401//215 400//214
f 399//219 403//216 401//215 402//218
f 404//220 407//221 408//356 410//223
f 405//224 409//225 408//356 407//221
f 406//226 410//223 408//356 409//225
f 369//185 355//171 361//174 372//186
f 372//186 361//174 357//177 370//189
f 356//175 362//178 368//181 360//176
f 360//176 368//181 364//184 357//177
f 363//182 376//192 382//195 367//183
f 367//183 382//195 378//198 364//184
f 377//196 371//191 374//190 381//197
f 381//197 374//190 370//189 378//198
f 397//213 369//185 375//188 400//214
f 400//214 375//188 371//191 398//217
f 376//192 404//220 410//223 379//193
f 379//193 410//223 406//226 377//196
f 405//224 399//219 402//218 409//225
f 409//225 402//218 398//217 406//226
f 383//199 397//213 403//216 386//200
f 386//200 403//216 399//219 384//203
f 404//220 390//206 396//209 407//221
f 407//221 396//209 392//212 405//224
f 391//210 385//205 388//204 395//211
f 395//211 388//204 384//203 392//212
f 355//171 383//199 389//202 358//172
f 358//172 389//202 385//205 356//175
f 390//206 363//182 365//179 393//207
f 393//207 365//179 362//178 391//210
f 369//185 397//213 383//199 355//171
f 357//177 364//184 378//198 370//189
f 385//205 391//210 362//178 356//175
f 404//220 376//192 363//182 390//206
f 371//191 377//196 406//226 398//217
f 399//219 405//224 392//212 384//203
f 411//357 414//172 415//173 417//358
f 412//175 416//176 415//173 414//172
f 413//359 417//358 415//173 416//176
f 418//178 421//179 422//360 424//181
f 419//361 423//362 422//360 421//179
f 420//363 424//181 422//360 423//362
f 425//364 428//365 429//187 431//188
f 426//366 430//190 429//187 428//365
f 427//191 431//188 429//187 430//190
f 432//367 435//193 436//368 438//369
f 433//196 437//197 436//368 435//193
f 434//370 438//369 436//368 437//197
f 439//371 442//372 443//201 445//202
f 440//373 444//204 443//201 442//372
f 441//205 445//202 443//201 444//204
f 446//374 449//207 450//375 452//376
f 447//210 451//211 450//375 449//207
f 448//377 452//376 450//375 451//211
f 453//378 456//214 457//215 459//379
f 454//217 458//218 457//215 456//214
f 455//380 459//379 457//215 458//218
f 460//381 463//382 464//383 466//223
f 461//384 465//225 464//383 463//382
f 462//226 466//223 464//383 465//225
f 425//364 411//357 417//358 428//365
f 428//365 417//358 413//359 426//366
f 412//175 418//178 424//181 416//176
f 416//176 424//181 420//363 413//359
f 419//361 432//367 438//369 423//362
f 423//362 438//369 434//370 420//363
f 433//196 427//191 430//190 437//197
f 437//197 430//190 426//366 434//370
f 453//378 425//364 431//188 456//214
f 456//214 431//188 427//191 454//217
f 432//367 460//381 466//223 435//193
f 435//193 466//223 462//226 433//196
f 461//384 455//380 458//218 465//225
f 465//225 458//218 454//217 462//226
f 439//371 453//378 459//379 442//372
f 442//372 459//379 455//380 440//373
f 460//381 446//374 452//376 463//382
f 463//382 452//376 448//377 461//384
f 447//210 441//205 444//204 451//211
f 451//211 444//204 440//373 448//377
f 411//357 439//371 445//202 414//172
f 414//172 445//202 441//205 412//175
f 446//374 419//361 421//179 449//207
f 449//207 421//179 418//178 447//210
f 425//364 453//378 439//371 411//357
f 413//359 420//363 434//370 426//366
f 441//205 447//210 418//178 412//175
f 460//381 432//367 419//361 446//374
f 427//191 433//196 462//226 454//217
f 455//380 461//384 448//377 440//373
f 467//385 470//172 471//173 473//386
f 468//175 472//176 471//173 470//172
f 469//387 473//386 471//173 472//176
f 474//178 477//179 478//388 480//181
f 475//389 479//390 478//388 477//179
f 476//391 480//181 478//388 479//390
f 481//392 484//393 485//187 487//188
f 482//394 486//190 485//187 484//393
f 483//191 487//188 485//187 486//190
f 488//395 491//193 492//368 494//396
f 489//196 493//197 492//368 491//193
f 490//397 494//396 492//368 493//197
f 495//398 498//399 499//201 501//202
f 496//400 500//204 499//201 498//399
f 497//205 501//202 499//201 500//204
f 502//401 505//207 506//375 508//402
f 503//210 507//211 506//375 505//207
f 504//403 508//402 506//375 507//211
f 509//404 512//214 513//215 515//405
f 510//217 514//218 513//215 512//214
f 511//406 515//405 513//215 514//218
f 516//407 519//408 520//383 522//223
f 517//409 521//225 520//383 519//408
f 518//226 522//223 520//383 521//225
f 481//392 467//385 473//386 484//393
f 484//393 473//386 469//387 482//394
f 468//175 474//178 480//181 472//176
f 472//176 480//181 476//391 469//387
f 475//389 488//395 494//396 479//390
f 479//390 494//396 490//397 476//391
f 489//196 483//191 486//190 493//197
f 493//197 486//190 482//394 490//397
f 509//404 481//392 487//188 512//214
f 512//214 487//188 483//191 510//217
f 488//395 516//407 522//223 491//193
f 491//193 522//223 518//226 489//196
f 517//409 511//406 514//218 521//225
f 521//225 514//218 510//217 518//226
f 495//398 509//404 515//405 498//399
f 498//399 515//405 511//406 496//400
f 516//407 502//401 508//402 519//408
f 519//408 508//402 504//403 517//409
f 503//210 497//205 500//204 507//211
f 507//211 500//204 496//400 504//403
f 467//385 495//398 501//202 470//172
f 470//172 501//202 497//205 468//175
f 502//401 475//389 477//179 505//207
f 505//207 477//179 474//178 503//210
f 481//392 509//404 495//398 467//385
f 469//387 476//391 490//397 482//394
f 497//205 503//210 474//178 468//175
f 516//407 488//395 475//389 502//401
f 483//191 489//196 518//226 510//217
f 511//406 517//409 504//403 496//400
f 523//357 526//172 527//173 529//410
f 524//175 528//176 527//173 526//172
f 525//411 529//410 527//173 528//176
f 530//178 533//179 534//360 536//181
f 531//361 535//362 534//360 533//179
f 532//363 536//181 534//360 535//362
f 537//364 540//412 541//187 543//188
f 538//413 542//190 541//187 540//412
f 539//191 543//188 541//187 542//190
f 544//367 547//193 548//368 550//369
f 545//196 549//197 548//368 547//193
f 546//370 550//369 548//368 549//197
f 551//371 554//414 555//201 557//202
f 552//415 556//204 555//201 554//414
f 553//205 557//202 555//201 556//204
f 558//374 561//207 562//375 564//376
f 559//210 563//211 562//375 561//207
f 560//377 564//376 562//375 563//211
f 565//378 568//214 569//215 571//416
f 566//217 570//218 569//215 568//214
f 567//417 571//416 569//215 570//218
f 572//381 575//382 576//383 578//223
f 573//384 577//225 576//383 575//382
f 574//226 578//223 576//383 577//225
f 537//364 523//357 529//410 540//412
f 540//412 529//410 525//411 538//413
f 524//175 530//178 536//181 528//176
f 528//176 536//181 532//363 525//411
f 531//361 544//367 550//369 535//362
f 535//362 550//369 546//370 532//363
f 545//196 539//191 542//190 549//197
f 549//197 542//190 538//413 546//370
f 565//378 537//364 543//188 568//214
f 568//214 543//188 539//191 566//217
f 544//367 572//381 578//223 547//193
f 547//193 578//223 574//226 545//196
f 573//384 567//417 570//218 577//225
f 577//225 570//218 566//217 574//226
f 551//371 565//378 571//416 554//414
f 554//414 571//416 567//417 552//415
f 572//381 558//374 564//376 575//382
f 575//382 564//376 560//377 573//384
f 559//210 553//205 556//204 563//211
f 563//211 556//204 552//415 560//377
f 523//357 551//371 557//202 526//172
f 526//172 557//202 553//205 524//175
f 558//374 531//361 533//179 561//207
f 561//207 533//179 530//178 559//210
f 537//364 565//378 551//371 523//357
f 525//411 532//363 546//370 538//413
f 553//205 559//210 530//178 524//175
f 572//381 544//367 531//361 558//374
f 539//191 545//196 574//226 566//217
f 567//417 573//384 560//377 552//415
f 579//171 582//172 583//173 585//174
f 580//175 584//176 583//173 582//172
f 581//177 585//174 583//173 584//176
f 586//178 589//179 590//353 592//181
f 587//182 591//183 590//353 589//179
f 588//184 592//181 590//353 591//183
f 593//185 596//186 597//187 599//188
f 594//189 598//190 597//187 596//186
f 595//191 599//188 597//187 598//190
f 600//192 603//193 604//354 606//195
f 601//196 605//197 604//354 603//193
f 602//198 606//195 604//354 605//197
f 607//199 610//200 611//201 613//202
f 608//203 612//204 611//201 610//200
f 609//205 613//202 611//201 612//204
f 614//206 617//207 618//355 620//209
f 615//210 619//211 618//355 617//207
f 616//212 620//209 618//355 619//211
f 621//213 624//214 625//215 627//216
f 622//217 626//218 625//215 624//214
f 623//219 627//216 625//215 626//218
f 628//220 631//221 632//356 634//223
f 629//224 633//225 632//356 631//221
f 630//226 634//223 632//356 633//225
f 593//185 579//171 585//174 596//186
f 596//186 585//174 581//177 594//189
f 580//175 586//178 592//181 584//176
f 584//176 592//181 588//184 581//177
f 587//182 600//192 606//195 591//183
f 591//183 606//195 602//198 588//184
f 601//196 595//191 598//190 605//197
f 605//197 598//190 594//189 602//198
f 621//213 593//185 599//188 624//214
f 624//214 599//188 595//191 622//217
f 600//192 628//220 634//223 603//193
f 603//193 634//223 630//226 601//196
f 629//224 623//219 626//218 633//225
f 633//225 626//218 622//217 630//226
f 607//199 621//213 627//216 610//200
f 610//200 627//216 623//219 608//203
f 628//220 614//206 620//209 631//221
f 631//221 620//209 616//212 629//224
f 615//210 609//205 612//204 619//211
f 619//211 612//204 608//203 616//212
f 579//171 607//199 613//202 582//172
f 582//172 613//202 609//205 580//175
f 614//206 587//182 589//179 617//207
f 617//207 589//179 586//178 615//210
f 593//185 621//213 607//199 579//171
f 581//177 588//184 602//198 594//189
f 609//205 615//210 586//178 580//175
f 628//220 600//192 587//182 614//206
f 595//191 601//196 630//226 622//217
f 623//219 629//224 616//212 608//203
f 635//418 638//172 639//173 641//419
f 636//175 640//176 639//173 638//172
f 637//411 641//419 639//173 640//176
f 642//178 645//179 646//360 648//181
f 643//361 647//362 646//360 645//179
f 644//363 648//181 646//360 647//362
f 649//420 652//421 653//187 655//188
f 650//413 654//190 653//187 652//421
f 651//191 655//188 653//187 654//190
f 656//367 659//193 660//368 662//369
f 657//196 661//197 660//368 659//193
f 658//370 662//369 660//368 661//197
f 663//422 666//423 667//201 669//202
f 664//415 668//204 667//201 666//423
f 665//205 669//202 667//201 668//204
f 670//424 673//207 674//375 676//425
f 671//210 675//211 674//375 673//207
f 672//377 676//425 674//375 675//211
f 677//426 680//214 681//215 683//427
f 678//217 682//218 681//215 680//214
f 679//417 683//427 681//215 682//218
f 684//428 687//429 688//383 690//223
f 685//384 689//225 688//383 687//429
f 686//226 690//223 688//383 689//225
f 649//420 635//418 641//419 652//421
f 652//421 641//419 637//411 650//413
f 636//175 642//178 648//181 640//176
f 640//176 648//181 644//363 637//411
f 643//361 656//367 662//369 647//362
f 647//362 662//369 658//370 644//363
f 657//196 651//191 654//190 661//197
f 661//197 654//190 650//413 658//370
f 677//426 649//420 655//188 680//214
f 680//214 655//188 651//191 678//217
f 656//367 684//428 690//223 659//193
f 659//193 690//223 686//226 657//196
f 685//384 679//417 682//218 689//225
f 689//225 682//218 678//217 686//226
f 663//422 677//426 683//427 666//423
f 666//423 683//427 679//417 664//415
f 684//428 670//424 676//425 687//429
f 687//429 676//425 672//377 685//384
f 671//210 665//205 668//204 675//211
f 675//211 668//204 664//415 672//377
f 635//418 663//422 669//202 638//172
f 638//172 669//202 665//205 636//175
f 670//424 643//361 645//179 673//207
f 673//207 645//179 642//178 671//210
f 649//420 677//426 663//422 635//418
f 637//411 644//363 658//370 650//413
f 665//205 671//210 642//178 636//175
f 684//428 656//367 643//361 670//424
f 651//191 657//196 686//226 678//217
f 679//417 685//384 672//377 664//415
f 691//385 694//172 695//173 697//386
f 692//175 696//176 695//173 694//172
f 693//387 697//386 695//173 696//176
f 698//178 701//179 702//360 704//181
f 699//389 703//390 702//360 701//179
f 700//391 704//181 702//360 703//390
f 705//392 708//430 709//187 711//188
f 706//394 710//190 709//187 708//430
f 707//191 711//188 709//187 710//190
f 712//395 715//193 716//368 718//431
f 713//196 717//197 716//368 715//193
f 714//397 718//431 716//368 717//197
f 719//398 722//432 723//201 725//202
f 720//400 724//204 723//201 722//432
f 721//205 725//202 723//201 724//204
f 726//401 729//207 730//375 732//433
f 727//210 731//211 730//375 729//207
f 728//403 732//433 730//375 731//211
f 733//404 736//214 737//215 739//405
f 734//217 738//218 737//215 736//214
f 735//406 739//405 737//215 738//218
f 740//407 743//408 744//434 746//223
f 741//409 745//225 744//434 743//408
f 742//226 746//223 744//434 745//225
f 705//392 691//385 697//386 708//430
f 708//430 697//386 693//387 706//394
f 692//175 698//178 704//181 696//176
f 696//176 704//181 700//391 693//387
f 699//389 712//395 718//431 703//390
f 703//390 718//431 714//397 700//391
f 713//196 707//191 710//190 717//197
f 717//197 710//190 706//394 714//397
f 733//404 705//392 711//188 736//214
f 736//214 711//188 707//191 734//217
f 712//395 740//407 746//223 715//193
f 715//193 746//223 742//226 713//196
f 741//409 735//406 738//218 745//225
f 745//225 738//218 734//217 742//226
f 719//398 733//404 739//405 722//432
f 722//432 739//405 735//406 720//400
f 740//407 726//401 732//433 743//408
f 743//408 732//433 728//403 741//409
f 727//210 721//205 724//204 731//211
f 731//211 724//204 720//400 728//403
f 691//385 719//398 725//202 694//172
f 694//172 725//202 721//205 692//175
f 726//401 699//389 701//179 729//207
f 729//207 701//179 698//178 727//210
f 705//392 733//404 719//398 691//385
f 693//387 700//391 714//397 706//394
f 721//205 727//210 698//178 692//175
f 740//407 712//395 699//389 726//401
f 707//191 713//196 742//226 734//217
f 735//406 741//409 728//403 720//400
f 747//418 750//172 751//173 753//435
f 748//175 752//176 751//173 750//172
f 749//359 753//435 751//173 752//176
f 754//178 757//179 758//360 760//181
f 755//361 759//362 758//360 757//179
f 756//363 760//181 758//360 759//362
f 761//420 764//436 765//187 767//188
f 762//366 766//190 765//187 764//436
f 763//191 767//188 765//187 766//190
f 768//367 771//193 772//368 774//369
f 769//196 773//197 772//368 771//193
f 770//370 774//369 772//368 773//197
f 775//422 778//437 779//201 781//202
f 776//373 780//204 779//201 778//437
f 777//205 781//202 779//201 780//204
f 782//424 785//207 786//375 788//425
f 783//210 787//211 786//375 785//207
f 784//377 788//425 786//375 787//211
f 789//426 792//214 793//215 795//438
f 790//217 794//218 793//215 792//214
f 791//380 795//438 793//215 794//218
f 796//428 799//429 800//383 802//223
f 797//384 801//225 800//383 799//429
f 798//226 802//223 800//383 801//225
f 761//420 747//418 753//435 764//436
f 764//436 753//435 749//359 762//366
f 748//175 754//178 760//181 752//176
f 752//176 760//181 756//363 749//359
f 755//361 768//367 774//369 759//362
f 759//362 774//369 770//370 756//363
f 769//196 763//191 766//190 773//197
f 773//197 766//190 762//366 770//370
f 789//426 761//420 767//188 792//214
f 792//214 767//188 763//191 790//217
f 768//367 796//428 802//223 771//193
f 771//193 802//223 798//226 769//196
f 797//384 791//380 794//218 801//225
f 801//225 794//218 790//217 798//226
f 775//422 789//426 795//438 778//437
f 778//437 795//438 791//380 776//373
f 796//428 782//424 788//425 799//429
f 799//429 788//425 784//377 797//384
f 783//210 777//205 780//204 787//211
f 787//211 780//204 776//373 784//377
f 747//418 775//422 781//202 750//172
f 750//172 781//202 777//205 748//175
f 782//424 755//361 757//179 785//207
f 785//207 757//179 754//178 783//210
f 761//420 789//426 775//422 747//418
f 749//359 756//363 770//370 762//366
f 777//205 783//210 754//178 748//175
f 796//428 768//367 755//361 782//424
f 763//191 769//196 798//226 790//217
f 791//380 797//384 784//377 776//373
