# Blender 5.2.2 LTS
# www.blender.org
o TreasureTab
v 0.000000 0.000000 0.000000
v 1.100000 0.000000 0.836000
v 1.091002 0.000000 0.904332
v 1.064624 0.000000 0.968000
v 1.022670 0.000000 1.022670
v 0.968000 0.000000 1.064624
v 0.904332 0.000000 1.091002
v 0.836000 0.000000 1.100000
v -0.836000 0.000000 1.100000
v -0.904332 0.000000 1.091002
v -0.968000 0.000000 1.064624
v -1.022670 0.000000 1.022670
v -1.064624 0.000000 0.968000
v -1.091002 0.000000 0.904332
v -1.100000 0.000000 0.836000
v -1.100000 0.000000 -0.836000
v -1.091002 0.000000 -0.904332
v -1.064624 0.000000 -0.968000
v -1.022670 0.000000 -1.022670
v -0.968000 0.000000 -1.064624
v -0.904332 0.000000 -1.091002
v -0.836000 0.000000 -1.100000
v 0.836000 0.000000 -1.100000
v 0.904332 0.000000 -1.091002
v 0.968000 0.000000 -1.064624
v 1.022670 0.000000 -1.022670
v 1.064624 0.000000 -0.968000
v 1.091002 0.000000 -0.904332
v 1.100000 0.000000 -0.836000
v 0.979000 0.607200 0.671000
v 0.968506 0.607200 0.750706
v 0.937728 0.607200 0.825000
v 0.888778 0.607200 0.888778
v 0.825000 0.607200 0.937728
v 0.750706 0.607200 0.968506
v 0.671000 0.607200 0.979000
v -0.671000 0.607200 0.979000
v -0.750706 0.607200 0.968506
v -0.825000 0.607200 0.937728
v -0.888778 0.607200 0.888778
v -0.937728 0.607200 0.825000
v -0.968506 0.607200 0.750706
v -0.979000 0.607200 0.671000
v -0.979000 0.607200 -0.671000
v -0.968506 0.607200 -0.750706
v -0.937728 0.607200 -0.825000
v -0.888778 0.607200 -0.888778
v -0.825000 0.607200 -0.937728
v -0.750706 0.607200 -0.968506
v -0.671000 0.607200 -0.979000
v 0.671000 0.607200 -0.979000
v 0.750706 0.607200 -0.968506
v 0.825000 0.607200 -0.937728
v 0.888778 0.607200 -0.888778
v 0.937728 0.607200 -0.825000
v 0.968506 0.607200 -0.750706
v 0.979000 0.607200 -0.671000
v 0.858000 1.232000 0.506000
v 0.846010 1.232000 0.597102
v 0.810832 1.232000 0.682000
v 0.754908 1.232000 0.754908
v 0.682000 1.232000 0.810832
v 0.597102 1.232000 0.846010
v 0.506000 1.232000 0.858000
v -0.506000 1.232000 0.858000
v -0.597102 1.232000 0.846010
v -0.682000 1.232000 0.810832
v -0.754908 1.232000 0.754908
v -0.810832 1.232000 0.682000
v -0.846010 1.232000 0.597102
v -0.858000 1.232000 0.506000
v -0.858000 1.232000 -0.506000
v -0.846010 1.232000 -0.597102
v -0.810832 1.232000 -0.682000
v -0.754908 1.232000 -0.754908
v -0.682000 1.232000 -0.810832
v -0.597102 1.232000 -0.846010
v -0.506000 1.232000 -0.858000
v 0.506000 1.232000 -0.858000
v 0.597102 1.232000 -0.846010
v 0.682000 1.232000 -0.810832
v 0.754908 1.232000 -0.754908
v 0.810832 1.232000 -0.682000
v 0.846010 1.232000 -0.597102
v 0.858000 1.232000 -0.506000
v 0.770000 1.320000 0.462000
v 0.759506 1.320000 0.541706
v 0.728728 1.320000 0.616000
v 0.679778 1.320000 0.679778
v 0.616000 1.320000 0.728728
v 0.541706 1.320000 0.759506
v 0.462000 1.320000 0.770000
v -0.462000 1.320000 0.770000
v -0.541706 1.320000 0.759506
v -0.616000 1.320000 0.728728
v -0.679778 1.320000 0.679778
v -0.728728 1.320000 0.616000
v -0.759506 1.320000 0.541706
v -0.770000 1.320000 0.462000
v -0.770000 1.320000 -0.462000
v -0.759506 1.320000 -0.541706
v -0.728728 1.320000 -0.616000
v -0.679778 1.320000 -0.679778
v -0.616000 1.320000 -0.728728
v -0.541706 1.320000 -0.759506
v -0.462000 1.320000 -0.770000
v 0.462000 1.320000 -0.770000
v 0.541706 1.320000 -0.759506
v 0.616000 1.320000 -0.728728
v 0.679778 1.320000 -0.679778
v 0.728728 1.320000 -0.616000
v 0.759506 1.320000 -0.541706
v 0.770000 1.320000 -0.462000
v 0.554400 1.245838 0.300960
v 0.545754 1.245838 0.366564
v 0.520454 1.245838 0.427680
v 0.480172 1.245838 0.480172
v 0.427680 1.245838 0.520454
v 0.366564 1.245838 0.545754
v 0.300960 1.245838 0.554400
v -0.300960 1.245838 0.554400
v -0.366564 1.245838 0.545754
v -0.427680 1.245838 0.520454
v -0.480172 1.245838 0.480172
v -0.520454 1.245838 0.427680
v -0.545754 1.245838 0.366564
v -0.554400 1.245838 0.300960
v -0.554400 1.245838 -0.300960
v -0.545754 1.245838 -0.366564
v -0.520454 1.245838 -0.427680
v -0.480172 1.245838 -0.480172
v -0.427680 1.245838 -0.520454
v -0.366564 1.245838 -0.545754
v -0.300960 1.245838 -0.554400
v 0.300960 1.245838 -0.554400
v 0.366564 1.245838 -0.545754
v 0.427680 1.245838 -0.520454
v 0.480172 1.245838 -0.480172
v 0.520454 1.245838 -0.427680
v 0.545754 1.245838 -0.366564
v 0.554400 1.245838 -0.300960
v 0.323400 1.193170 0.175560
v 0.318362 1.193170 0.213818
v 0.303600 1.193170 0.249480
v 0.280104 1.193170 0.280104
v 0.249480 1.193170 0.303600
v 0.213818 1.193170 0.318362
v 0.175560 1.193170 0.323400
v -0.175560 1.193170 0.323400
v -0.213818 1.193170 0.318362
v -0.249480 1.193170 0.303600
v -0.280104 1.193170 0.280104
v -0.303600 1.193170 0.249480
v -0.318362 1.193170 0.213818
v -0.323400 1.193170 0.175560
v -0.323400 1.193170 -0.175560
v -0.318362 1.193170 -0.213818
v -0.303600 1.193170 -0.249480
v -0.280104 1.193170 -0.280104
v -0.249480 1.193170 -0.303600
v -0.213818 1.193170 -0.318362
v -0.175560 1.193170 -0.323400
v 0.175560 1.193170 -0.323400
v 0.213818 1.193170 -0.318362
v 0.249480 1.193170 -0.303600
v 0.280104 1.193170 -0.280104
v 0.303600 1.193170 -0.249480
v 0.318362 1.193170 -0.213818
v 0.323400 1.193170 -0.175560
v 0.000000 1.166000 -0.000000
v -0.310000 1.300000 0.150000
v -0.310000 1.340000 0.190000
v -0.350000 1.340000 0.150000
v -0.310000 1.311716 0.178284
v -0.333094 1.316906 0.173094
v -0.338284 1.340000 0.178284
v -0.338284 1.311716 0.150000
v -0.310000 1.360000 0.190000
v -0.310000 1.400000 0.150000
v -0.350000 1.360000 0.150000
v -0.310000 1.388284 0.178284
v -0.333094 1.383094 0.173094
v -0.338284 1.388284 0.150000
v -0.338284 1.360000 0.178284
v -0.310000 1.300000 -0.050000
v -0.350000 1.340000 -0.050000
v -0.310000 1.340000 -0.090000
v -0.338284 1.311716 -0.050000
v -0.333094 1.316906 -0.073094
v -0.338284 1.340000 -0.078284
v -0.310000 1.311716 -0.078284
v -0.310000 1.400000 -0.050000
v -0.310000 1.360000 -0.090000
v -0.350000 1.360000 -0.050000
v -0.310000 1.388284 -0.078284
v -0.333094 1.383094 -0.073094
v -0.338284 1.360000 -0.078284
v -0.338284 1.388284 -0.050000
v 0.310000 1.300000 0.150000
v 0.350000 1.340000 0.150000
v 0.310000 1.340000 0.190000
v 0.338284 1.311716 0.150000
v 0.333094 1.316906 0.173094
v 0.338284 1.340000 0.178284
v 0.310000 1.311716 0.178284
v 0.310000 1.400000 0.150000
v 0.310000 1.360000 0.190000
v 0.350000 1.360000 0.150000
v 0.310000 1.388284 0.178284
v 0.333094 1.383094 0.173094
v 0.338284 1.360000 0.178284
v 0.338284 1.388284 0.150000
v 0.310000 1.300000 -0.050000
v 0.310000 1.340000 -0.090000
v 0.350000 1.340000 -0.050000
v 0.310000 1.311716 -0.078284
v 0.333094 1.316906 -0.073094
v 0.338284 1.340000 -0.078284
v 0.338284 1.311716 -0.050000
v 0.310000 1.400000 -0.050000
v 0.350000 1.360000 -0.050000
v 0.310000 1.360000 -0.090000
v 0.338284 1.388284 -0.050000
v 0.333094 1.383094 -0.073094
v 0.338284 1.360000 -0.078284
v 0.310000 1.388284 -0.078284
v -0.285000 1.480000 0.160000
v -0.285000 1.520000 0.200000
v -0.325000 1.520000 0.160000
v -0.285000 1.491716 0.188284
v -0.308094 1.496906 0.183094
v -0.313284 1.520000 0.188284
v -0.313284 1.491716 0.160000
v -0.285000 1.760000 0.200000
v -0.285000 1.800000 0.160000
v -0.325000 1.760000 0.160000
v -0.285000 1.788284 0.188284
v -0.308094 1.783094 0.183094
v -0.313284 1.788284 0.160000
v -0.313284 1.760000 0.188284
v -0.285000 1.480000 -0.160000
v -0.325000 1.520000 -0.160000
v -0.285000 1.520000 -0.200000
v -0.313284 1.491716 -0.160000
v -0.308094 1.496906 -0.183094
v -0.313284 1.520000 -0.188284
v -0.285000 1.491716 -0.188284
v -0.285000 1.800000 -0.160000
v -0.285000 1.760000 -0.200000
v -0.325000 1.760000 -0.160000
v -0.285000 1.788284 -0.188284
v -0.308094 1.783094 -0.183094
v -0.313284 1.760000 -0.188284
v -0.313284 1.788284 -0.160000
v 0.285000 1.480000 0.160000
v 0.325000 1.520000 0.160000
v 0.285000 1.520000 0.200000
v 0.313284 1.491716 0.160000
v 0.308094 1.496906 0.183094
v 0.313284 1.520000 0.188284
v 0.285000 1.491716 0.188284
v 0.285000 1.800000 0.160000
v 0.285000 1.760000 0.200000
v 0.325000 1.760000 0.160000
v 0.285000 1.788284 0.188284
v 0.308094 1.783094 0.183094
v 0.313284 1.760000 0.188284
v 0.313284 1.788284 0.160000
v 0.285000 1.480000 -0.160000
v 0.285000 1.520000 -0.200000
v 0.325000 1.520000 -0.160000
v 0.285000 1.491716 -0.188284
v 0.308094 1.496906 -0.183094
v 0.313284 1.520000 -0.188284
v 0.313284 1.491716 -0.160000
v 0.285000 1.800000 -0.160000
v 0.325000 1.760000 -0.160000
v 0.285000 1.760000 -0.200000
v 0.313284 1.788284 -0.160000
v 0.308094 1.783094 -0.183094
v 0.313284 1.760000 -0.188284
v 0.285000 1.788284 -0.188284
v -0.285000 1.760000 0.160000
v -0.285000 1.800000 0.200000
v -0.325000 1.800000 0.160000
v -0.285000 1.771716 0.188284
v -0.308094 1.776906 0.183094
v -0.313284 1.800000 0.188284
v -0.313284 1.771716 0.160000
v -0.285000 1.880000 0.200000
v -0.285000 1.920000 0.160000
v -0.325000 1.880000 0.160000
v -0.285000 1.908284 0.188284
v -0.308094 1.903094 0.183094
v -0.313284 1.908284 0.160000
v -0.313284 1.880000 0.188284
v -0.285000 1.760000 -0.160000
v -0.325000 1.800000 -0.160000
v -0.285000 1.800000 -0.200000
v -0.313284 1.771716 -0.160000
v -0.308094 1.776906 -0.183094
v -0.313284 1.800000 -0.188284
v -0.285000 1.771716 -0.188284
v -0.285000 1.920000 -0.160000
v -0.285000 1.880000 -0.200000
v -0.325000 1.880000 -0.160000
v -0.285000 1.908284 -0.188284
v -0.308094 1.903094 -0.183094
v -0.313284 1.880000 -0.188284
v -0.313284 1.908284 -0.160000
v 0.285000 1.760000 0.160000
v 0.325000 1.800000 0.160000
v 0.285000 1.800000 0.200000
v 0.313284 1.771716 0.160000
v 0.308094 1.776906 0.183094
v 0.313284 1.800000 0.188284
v 0.285000 1.771716 0.188284
v 0.285000 1.920000 0.160000
v 0.285000 1.880000 0.200000
v 0.325000 1.880000 0.160000
v 0.285000 1.908284 0.188284
v 0.308094 1.903094 0.183094
v 0.313284 1.880000 0.188284
v 0.313284 1.908284 0.160000
v 0.285000 1.760000 -0.160000
v 0.285000 1.800000 -0.200000
v 0.325000 1.800000 -0.160000
v 0.285000 1.771716 -0.188284
v 0.308094 1.776906 -0.183094
v 0.313284 1.800000 -0.188284
v 0.313284 1.771716 -0.160000
v 0.285000 1.920000 -0.160000
v 0.325000 1.880000 -0.160000
v 0.285000 1.880000 -0.200000
v 0.313284 1.908284 -0.160000
v 0.308094 1.903094 -0.183094
v 0.313284 1.880000 -0.188284
v 0.285000 1.908284 -0.188284
v -0.020000 1.630000 -0.255000
v -0.020000 1.670000 -0.215000
v -0.060000 1.670000 -0.255000
v -0.020000 1.641716 -0.226716
v -0.043094 1.646906 -0.231906
v -0.048284 1.670000 -0.226716
v -0.048284 1.641716 -0.255000
v -0.020000 1.690000 -0.215000
v -0.020000 1.730000 -0.255000
v -0.060000 1.690000 -0.255000
v -0.020000 1.718284 -0.226716
v -0.043094 1.713094 -0.231906
v -0.048284 1.718284 -0.255000
v -0.048284 1.690000 -0.226716
v -0.020000 1.630000 -0.265000
v -0.060000 1.670000 -0.265000
v -0.020000 1.670000 -0.305000
v -0.048284 1.641716 -0.265000
v -0.043094 1.646906 -0.288094
v -0.048284 1.670000 -0.293284
v -0.020000 1.641716 -0.293284
v -0.020000 1.730000 -0.265000
v -0.020000 1.690000 -0.305000
v -0.060000 1.690000 -0.265000
v -0.020000 1.718284 -0.293284
v -0.043094 1.713094 -0.288094
v -0.048284 1.690000 -0.293284
v -0.048284 1.718284 -0.265000
v 0.020000 1.630000 -0.255000
v 0.060000 1.670000 -0.255000
v 0.020000 1.670000 -0.215000
v 0.048284 1.641716 -0.255000
v 0.043094 1.646906 -0.231906
v 0.048284 1.670000 -0.226716
v 0.020000 1.641716 -0.226716
v 0.020000 1.730000 -0.255000
v 0.020000 1.690000 -0.215000
v 0.060000 1.690000 -0.255000
v 0.020000 1.718284 -0.226716
v 0.043094 1.713094 -0.231906
v 0.048284 1.690000 -0.226716
v 0.048284 1.718284 -0.255000
v 0.020000 1.630000 -0.265000
v 0.020000 1.670000 -0.305000
v 0.060000 1.670000 -0.265000
v 0.020000 1.641716 -0.293284
v 0.043094 1.646906 -0.288094
v 0.048284 1.670000 -0.293284
v 0.048284 1.641716 -0.265000
v 0.020000 1.730000 -0.265000
v 0.060000 1.690000 -0.265000
v 0.020000 1.690000 -0.305000
v 0.048284 1.718284 -0.265000
v 0.043094 1.713094 -0.288094
v 0.048284 1.690000 -0.293284
v 0.020000 1.718284 -0.293284
v -0.200000 2.070000 -0.040000
v -0.200000 2.043640 -0.103640
v -0.200000 1.916360 -0.103640
v -0.200000 1.890000 -0.040000
v -0.179756 2.063149 -0.067864
v -0.162594 2.043640 -0.091486
v -0.151126 2.014441 -0.107269
v -0.147099 1.980000 -0.112812
v -0.151126 1.945559 -0.107269
v -0.162594 1.916360 -0.091486
v -0.179756 1.896851 -0.067864
v -0.167244 2.063149 -0.050643
v -0.139475 2.043640 -0.059666
v -0.120920 2.014441 -0.065694
v -0.114405 1.980000 -0.067812
v -0.120920 1.945559 -0.065694
v -0.139475 1.916360 -0.059666
v -0.167244 1.896851 -0.050643
v -0.167244 2.063149 -0.029357
v -0.139475 2.043640 -0.020334
v -0.120920 2.014441 -0.014305
v -0.114405 1.980000 -0.012188
v -0.120920 1.945559 -0.014305
v -0.139475 1.916360 -0.020334
v -0.167244 1.896851 -0.029357
v -0.179756 2.063149 -0.012136
v -0.162594 2.043640 0.011486
v -0.151126 2.014441 0.027269
v -0.147099 1.980000 0.032812
v -0.151126 1.945559 0.027269
v -0.162594 1.916360 0.011486
v -0.179756 1.896851 -0.012136
v -0.200000 2.063149 -0.005558
v -0.200000 2.043640 0.023640
v -0.200000 2.014441 0.043149
v -0.200000 1.980000 0.050000
v -0.200000 1.945559 0.043149
v -0.200000 1.916360 0.023640
v -0.200000 1.896851 -0.005558
v -0.220244 2.063149 -0.012136
v -0.237406 2.043640 0.011486
v -0.248874 2.014441 0.027269
v -0.252901 1.980000 0.032812
v -0.248874 1.945559 0.027269
v -0.237406 1.916360 0.011486
v -0.220244 1.896851 -0.012136
v -0.232756 2.063149 -0.029357
v -0.260525 2.043640 -0.020334
v -0.279080 2.014441 -0.014305
v -0.285595 1.980000 -0.012188
v -0.279080 1.945559 -0.014305
v -0.260525 1.916360 -0.020334
v -0.232756 1.896851 -0.029357
v -0.232756 2.063149 -0.050643
v -0.260525 2.043640 -0.059666
v -0.279080 2.014441 -0.065695
v -0.285595 1.980000 -0.067812
v -0.279080 1.945559 -0.065695
v -0.260525 1.916360 -0.059666
v -0.232756 1.896851 -0.050643
v -0.220244 2.063149 -0.067864
v -0.237406 2.043640 -0.091486
v -0.248874 2.014441 -0.107269
v -0.252901 1.980000 -0.112812
v -0.248874 1.945559 -0.107269
v -0.237406 1.916360 -0.091486
v -0.220244 1.896851 -0.067864
v -0.200000 2.063149 -0.074442
v -0.200000 2.014441 -0.123149
v -0.200000 1.980000 -0.130000
v -0.200000 1.945559 -0.123149
v -0.200000 1.896851 -0.074442
v 0.200000 2.070000 -0.040000
v 0.200000 2.043640 -0.103640
v 0.200000 1.916360 -0.103640
v 0.200000 1.890000 -0.040000
v 0.220244 2.063149 -0.067864
v 0.237406 2.043640 -0.091486
v 0.248874 2.014441 -0.107269
v 0.252901 1.980000 -0.112812
v 0.248874 1.945559 -0.107269
v 0.237406 1.916360 -0.091486
v 0.220244 1.896851 -0.067864
v 0.232756 2.063149 -0.050643
v 0.260525 2.043640 -0.059666
v 0.279080 2.014441 -0.065694
v 0.285595 1.980000 -0.067812
v 0.279080 1.945559 -0.065694
v 0.260525 1.916360 -0.059666
v 0.232756 1.896851 -0.050643
v 0.232756 2.063149 -0.029357
v 0.260525 2.043640 -0.020334
v 0.279080 2.014441 -0.014305
v 0.285595 1.980000 -0.012188
v 0.279080 1.945559 -0.014305
v 0.260525 1.916360 -0.020334
v 0.232756 1.896851 -0.029357
v 0.220244 2.063149 -0.012136
v 0.237406 2.043640 0.011486
v 0.248874 2.014441 0.027269
v 0.252901 1.980000 0.032812
v 0.248874 1.945559 0.027269
v 0.237406 1.916360 0.011486
v 0.220244 1.896851 -0.012136
v 0.200000 2.063149 -0.005558
v 0.200000 2.043640 0.023640
v 0.200000 2.014441 0.043149
v 0.200000 1.980000 0.050000
v 0.200000 1.945559 0.043149
v 0.200000 1.916360 0.023640
v 0.200000 1.896851 -0.005558
v 0.179756 2.063149 -0.012136
v 0.162594 2.043640 0.011486
v 0.151126 2.014441 0.027269
v 0.147099 1.980000 0.032812
v 0.151126 1.945559 0.027269
v 0.162594 1.916360 0.011486
v 0.179756 1.896851 -0.012136
v 0.167244 2.063149 -0.029357
v 0.139475 2.043640 -0.020334
v 0.120920 2.014441 -0.014305
v 0.114405 1.980000 -0.012188
v 0.120920 1.945559 -0.014305
v 0.139475 1.916360 -0.020334
v 0.167244 1.896851 -0.029357
v 0.167244 2.063149 -0.050643
v 0.139475 2.043640 -0.059666
v 0.120920 2.014441 -0.065695
v 0.114405 1.980000 -0.067812
v 0.120920 1.945559 -0.065695
v 0.139475 1.916360 -0.059666
v 0.167244 1.896851 -0.050643
v 0.179756 2.063149 -0.067864
v 0.162594 2.043640 -0.091486
v 0.151126 2.014441 -0.107269
v 0.147099 1.980000 -0.112812
v 0.151126 1.945559 -0.107269
v 0.162594 1.916360 -0.091486
v 0.179756 1.896851 -0.067864
v 0.200000 2.063149 -0.074442
v 0.200000 2.014441 -0.123149
v 0.200000 1.980000 -0.130000
v 0.200000 1.945559 -0.123149
v 0.200000 1.896851 -0.074442
v 0.000000 2.070000 -0.040000
v 0.000000 2.043640 -0.103640
v 0.000000 1.916360 -0.103640
v 0.000000 1.890000 -0.040000
v 0.020244 2.063149 -0.067864
v 0.037406 2.043640 -0.091486
v 0.048874 2.014441 -0.107269
v 0.052901 1.980000 -0.112812
v 0.048874 1.945559 -0.107269
v 0.037406 1.916360 -0.091486
v 0.020244 1.896851 -0.067864
v 0.032756 2.063149 -0.050643
v 0.060525 2.043640 -0.059666
v 0.079080 2.014441 -0.065694
v 0.085595 1.980000 -0.067812
v 0.079080 1.945559 -0.065694
v 0.060525 1.916360 -0.059666
v 0.032756 1.896851 -0.050643
v 0.032756 2.063149 -0.029357
v 0.060525 2.043640 -0.020334
v 0.079080 2.014441 -0.014305
v 0.085595 1.980000 -0.012188
v 0.079080 1.945559 -0.014305
v 0.060525 1.916360 -0.020334
v 0.032756 1.896851 -0.029357
v 0.020244 2.063149 -0.012136
v 0.037406 2.043640 0.011486
v 0.048874 2.014441 0.027269
v 0.052901 1.980000 0.032812
v 0.048874 1.945559 0.027269
v 0.037406 1.916360 0.011486
v 0.020244 1.896851 -0.012136
v 0.000000 2.063149 -0.005558
v 0.000000 2.043640 0.023640
v 0.000000 2.014441 0.043149
v 0.000000 1.980000 0.050000
v 0.000000 1.945559 0.043149
v 0.000000 1.916360 0.023640
v 0.000000 1.896851 -0.005558
v -0.020244 2.063149 -0.012136
v -0.037406 2.043640 0.011486
v -0.048874 2.014441 0.027269
v -0.052901 1.980000 0.032812
v -0.048874 1.945559 0.027269
v -0.037406 1.916360 0.011486
v -0.020244 1.896851 -0.012136
v -0.032756 2.063149 -0.029357
v -0.060525 2.043640 -0.020334
v -0.079080 2.014441 -0.014305
v -0.085595 1.980000 -0.012188
v -0.079080 1.945559 -0.014305
v -0.060525 1.916360 -0.020334
v -0.032756 1.896851 -0.029357
v -0.032756 2.063149 -0.050643
v -0.060525 2.043640 -0.059666
v -0.079080 2.014441 -0.065695
v -0.085595 1.980000 -0.067812
v -0.079080 1.945559 -0.065695
v -0.060525 1.916360 -0.059666
v -0.032756 1.896851 -0.050643
v -0.020244 2.063149 -0.067864
v -0.037406 2.043640 -0.091486
v -0.048874 2.014441 -0.107269
v -0.052901 1.980000 -0.112812
v -0.048874 1.945559 -0.107269
v -0.037406 1.916360 -0.091486
v -0.020244 1.896851 -0.067864
v -0.000000 2.063149 -0.074442
v -0.000000 2.014441 -0.123149
v -0.000000 1.980000 -0.130000
v -0.000000 1.945559 -0.123149
v -0.000000 1.896851 -0.074442
v -0.235000 1.180000 0.020000
v -0.235000 1.220000 0.060000
v -0.275000 1.220000 0.020000
v -0.235000 1.191716 0.048284
v -0.258094 1.196906 0.043094
v -0.263284 1.220000 0.048284
v -0.263284 1.191716 0.020000
v -0.235000 1.260000 0.060000
v -0.235000 1.300000 0.020000
v -0.275000 1.260000 0.020000
v -0.235000 1.288284 0.048284
v -0.258094 1.283094 0.043094
v -0.263284 1.288284 0.020000
v -0.263284 1.260000 0.048284
v -0.235000 1.180000 -0.020000
v -0.275000 1.220000 -0.020000
v -0.235000 1.220000 -0.060000
v -0.263284 1.191716 -0.020000
v -0.258094 1.196906 -0.043094
v -0.263284 1.220000 -0.048284
v -0.235000 1.191716 -0.048284
v -0.235000 1.300000 -0.020000
v -0.235000 1.260000 -0.060000
v -0.275000 1.260000 -0.020000
v -0.235000 1.288284 -0.048284
v -0.258094 1.283094 -0.043094
v -0.263284 1.260000 -0.048284
v -0.263284 1.288284 -0.020000
v 0.035000 1.180000 0.020000
v 0.075000 1.220000 0.020000
v 0.035000 1.220000 0.060000
v 0.063284 1.191716 0.020000
v 0.058094 1.196906 0.043094
v 0.063284 1.220000 0.048284
v 0.035000 1.191716 0.048284
v 0.035000 1.300000 0.020000
v 0.035000 1.260000 0.060000
v 0.075000 1.260000 0.020000
v 0.035000 1.288284 0.048284
v 0.058094 1.283094 0.043094
v 0.063284 1.260000 0.048284
v 0.063284 1.288284 0.020000
v 0.035000 1.180000 -0.020000
v 0.035000 1.220000 -0.060000
v 0.075000 1.220000 -0.020000
v 0.035000 1.191716 -0.048284
v 0.058094 1.196906 -0.043094
v 0.063284 1.220000 -0.048284
v 0.063284 1.191716 -0.020000
v 0.035000 1.300000 -0.020000
v 0.075000 1.260000 -0.020000
v 0.035000 1.260000 -0.060000
v 0.063284 1.288284 -0.020000
v 0.058094 1.283094 -0.043094
v 0.063284 1.260000 -0.048284
v 0.035000 1.288284 -0.048284
v 0.130000 1.050000 0.020000
v 0.130000 1.090000 0.060000
v 0.090000 1.090000 0.020000
v 0.130000 1.061716 0.048284
v 0.106906 1.066906 0.043094
v 0.101716 1.090000 0.048284
v 0.101716 1.061716 0.020000
v 0.130000 1.290000 0.060000
v 0.130000 1.330000 0.020000
v 0.090000 1.290000 0.020000
v 0.130000 1.318285 0.048284
v 0.106906 1.313094 0.043094
v 0.101716 1.318285 0.020000
v 0.101716 1.290000 0.048284
v 0.130000 1.050000 -0.020000
v 0.090000 1.090000 -0.020000
v 0.130000 1.090000 -0.060000
v 0.101716 1.061716 -0.020000
v 0.106906 1.066906 -0.043094
v 0.101716 1.090000 -0.048284
v 0.130000 1.061716 -0.048284
v 0.130000 1.330000 -0.020000
v 0.130000 1.290000 -0.060000
v 0.090000 1.290000 -0.020000
v 0.130000 1.318285 -0.048284
v 0.106906 1.313094 -0.043094
v 0.101716 1.290000 -0.048284
v 0.101716 1.318285 -0.020000
v 0.170000 1.050000 0.020000
v 0.210000 1.090000 0.020000
v 0.170000 1.090000 0.060000
v 0.198284 1.061716 0.020000
v 0.193094 1.066906 0.043094
v 0.198284 1.090000 0.048284
v 0.170000 1.061716 0.048284
v 0.170000 1.330000 0.020000
v 0.170000 1.290000 0.060000
v 0.210000 1.290000 0.020000
v 0.170000 1.318285 0.048284
v 0.193094 1.313094 0.043094
v 0.198284 1.290000 0.048284
v 0.198284 1.318285 0.020000
v 0.170000 1.050000 -0.020000
v 0.170000 1.090000 -0.060000
v 0.210000 1.090000 -0.020000
v 0.170000 1.061716 -0.048284
v 0.193094 1.066906 -0.043094
v 0.198284 1.090000 -0.048284
v 0.198284 1.061716 -0.020000
v 0.170000 1.330000 -0.020000
v 0.210000 1.290000 -0.020000
v 0.170000 1.290000 -0.060000
v 0.198284 1.318285 -0.020000
v 0.193094 1.313094 -0.043094
v 0.198284 1.290000 -0.048284
v 0.170000 1.318285 -0.048284
v 0.140000 1.000000 0.020000
v 0.140000 1.040000 0.060000
v 0.100000 1.040000 0.020000
v 0.140000 1.011716 0.048284
v 0.116906 1.016906 0.043094
v 0.111716 1.040000 0.048284
v 0.111716 1.011716 0.020000
v 0.140000 1.080000 0.060000
v 0.140000 1.120000 0.020000
v 0.100000 1.080000 0.020000
v 0.140000 1.108284 0.048284
v 0.116906 1.103094 0.043094
v 0.111716 1.108284 0.020000
v 0.111716 1.080000 0.048284
v 0.140000 1.000000 -0.020000
v 0.100000 1.040000 -0.020000
v 0.140000 1.040000 -0.060000
v 0.111716 1.011716 -0.020000
v 0.116906 1.016906 -0.043094
v 0.111716 1.040000 -0.048284
v 0.140000 1.011716 -0.048284
v 0.140000 1.120000 -0.020000
v 0.140000 1.080000 -0.060000
v 0.100000 1.080000 -0.020000
v 0.140000 1.108284 -0.048284
v 0.116906 1.103094 -0.043094
v 0.111716 1.080000 -0.048284
v 0.111716 1.108284 -0.020000
v 0.260000 1.000000 0.020000
v 0.300000 1.040000 0.020000
v 0.260000 1.040000 0.060000
v 0.288284 1.011716 0.020000
v 0.283094 1.016906 0.043094
v 0.288284 1.040000 0.048284
v 0.260000 1.011716 0.048284
v 0.260000 1.120000 0.020000
v 0.260000 1.080000 0.060000
v 0.300000 1.080000 0.020000
v 0.260000 1.108284 0.048284
v 0.283094 1.103094 0.043094
v 0.288284 1.080000 0.048284
v 0.288284 1.108284 0.020000
v 0.260000 1.000000 -0.020000
v 0.260000 1.040000 -0.060000
v 0.300000 1.040000 -0.020000
v 0.260000 1.011716 -0.048284
v 0.283094 1.016906 -0.043094
v 0.288284 1.040000 -0.048284
v 0.288284 1.011716 -0.020000
v 0.260000 1.120000 -0.020000
v 0.300000 1.080000 -0.020000
v 0.260000 1.080000 -0.060000
v 0.288284 1.108284 -0.020000
v 0.283094 1.103094 -0.043094
v 0.288284 1.080000 -0.048284
v 0.260000 1.108284 -0.048284
vn 0.5454 -0.8382 0.0059
vn 0.6507 -0.7302 0.2086
vn -0.0000 -1.0000 -0.0000
vn 0.5497 -0.7567 0.3539
vn 0.4321 -0.7658 0.4762
vn 0.2977 -0.7593 0.5786
vn 0.1433 -0.7360 0.6616
vn 0.0022 -0.6372 0.7707
vn -0.0059 -0.8382 0.5454
vn -0.2086 -0.7302 0.6507
vn -0.3539 -0.7567 0.5497
vn -0.4762 -0.7658 0.4321
vn -0.5786 -0.7593 0.2977
vn -0.6616 -0.7360 0.1433
vn -0.7707 -0.6372 0.0022
vn -0.5454 -0.8382 -0.0059
vn -0.6507 -0.7302 -0.2086
vn -0.5497 -0.7567 -0.3539
vn -0.4321 -0.7658 -0.4762
vn -0.2977 -0.7593 -0.5786
vn -0.1433 -0.7360 -0.6616
vn -0.0022 -0.6372 -0.7707
vn 0.0059 -0.8382 -0.5454
vn 0.2086 -0.7302 -0.6507
vn 0.3539 -0.7567 -0.5497
vn 0.4762 -0.7658 -0.4321
vn 0.5786 -0.7593 -0.2977
vn 0.6616 -0.7360 -0.1433
vn 0.7707 -0.6372 -0.0022
vn 0.9336 0.2495 0.2571
vn 0.9807 0.1955 0.0071
vn 0.8273 0.2828 0.4853
vn 0.6713 0.2936 0.6806
vn 0.4740 0.2818 0.8342
vn 0.2443 0.2473 0.9376
vn 0.0075 0.1940 0.9810
vn -0.0071 0.1955 0.9807
vn -0.2571 0.2495 0.9336
vn -0.4853 0.2828 0.8273
vn -0.6806 0.2936 0.6713
vn -0.8342 0.2818 0.4740
vn -0.9376 0.2473 0.2443
vn -0.9810 0.1940 0.0075
vn -0.9807 0.1955 -0.0071
vn -0.9336 0.2495 -0.2571
vn -0.8273 0.2828 -0.4853
vn -0.6713 0.2936 -0.6806
vn -0.4740 0.2818 -0.8342
vn -0.2443 0.2473 -0.9376
vn -0.0075 0.1940 -0.9810
vn 0.0071 0.1955 -0.9807
vn 0.2571 0.2495 -0.9336
vn 0.4853 0.2828 -0.8273
vn 0.6806 0.2936 -0.6713
vn 0.8342 0.2818 -0.4740
vn 0.9376 0.2473 -0.2443
vn 0.9810 0.1940 -0.0075
vn 0.9174 0.3339 0.2164
vn 0.9708 0.2397 0.0057
vn 0.8183 0.3697 0.4401
vn 0.6726 0.3829 0.6332
vn 0.4878 0.3737 0.7889
vn 0.2705 0.3419 0.9000
vn 0.0155 0.3346 0.9422
vn -0.0056 0.2398 0.9708
vn -0.2164 0.3339 0.9174
vn -0.4401 0.3697 0.8183
vn -0.6332 0.3829 0.6726
vn -0.7889 0.3737 0.4878
vn -0.9000 0.3419 0.2705
vn -0.9422 0.3346 0.0155
vn -0.9708 0.2398 -0.0056
vn -0.9174 0.3339 -0.2164
vn -0.8183 0.3697 -0.4401
vn -0.6726 0.3829 -0.6332
vn -0.4878 0.3737 -0.7889
vn -0.2705 0.3419 -0.9000
vn -0.0155 0.3346 -0.9422
vn 0.0056 0.2398 -0.9708
vn 0.2164 0.3339 -0.9174
vn 0.4401 0.3697 -0.8183
vn 0.6332 0.3829 -0.6726
vn 0.7889 0.3737 -0.4878
vn 0.9000 0.3419 -0.2705
vn 0.9422 0.3346 -0.0155
vn 0.0685 0.9976 -0.0031
vn 0.2319 0.9727 -0.0012
vn 0.0622 0.9980 0.0137
vn 0.0553 0.9981 0.0287
vn 0.0473 0.9979 0.0432
vn 0.0375 0.9976 0.0587
vn 0.0027 0.9987 -0.0510
vn 0.0012 0.9727 0.2319
vn 0.0031 0.9976 0.0685
vn -0.0137 0.9980 0.0622
vn -0.0287 0.9981 0.0553
vn -0.0432 0.9979 0.0473
vn -0.0587 0.9976 0.0375
vn 0.0509 0.9987 0.0027
vn -0.2319 0.9727 0.0012
vn -0.0685 0.9976 0.0031
vn -0.0622 0.9980 -0.0137
vn -0.0553 0.9981 -0.0287
vn -0.0473 0.9979 -0.0432
vn -0.0375 0.9976 -0.0587
vn -0.0027 0.9987 0.0509
vn -0.0012 0.9727 -0.2319
vn -0.0031 0.9976 -0.0685
vn 0.0137 0.9980 -0.0622
vn 0.0287 0.9981 -0.0553
vn 0.0432 0.9979 -0.0473
vn 0.0587 0.9976 -0.0375
vn -0.0509 0.9987 -0.0027
vn -0.2401 0.9689 -0.0590
vn -0.2915 0.9566 -0.0026
vn -0.2006 0.9734 -0.1104
vn -0.1608 0.9749 -0.1543
vn -0.1178 0.9738 -0.1945
vn -0.0680 0.9698 -0.2341
vn -0.0045 0.9649 -0.2627
vn 0.0026 0.9566 -0.2915
vn 0.0590 0.9689 -0.2401
vn 0.1104 0.9734 -0.2007
vn 0.1543 0.9749 -0.1608
vn 0.1945 0.9738 -0.1178
vn 0.2341 0.9698 -0.0680
vn 0.2627 0.9649 -0.0045
vn 0.2915 0.9566 0.0026
vn 0.2401 0.9689 0.0590
vn 0.2006 0.9734 0.1104
vn 0.1608 0.9749 0.1543
vn 0.1178 0.9738 0.1945
vn 0.0680 0.9698 0.2341
vn 0.0045 0.9649 0.2627
vn -0.0026 0.9566 0.2915
vn -0.0590 0.9689 0.2401
vn -0.1104 0.9734 0.2007
vn -0.1543 0.9749 0.1608
vn -0.1945 0.9738 0.1178
vn -0.2341 0.9698 0.0680
vn -0.2627 0.9649 0.0045
vn -0.1449 0.9889 -0.0316
vn -0.1735 0.9848 -0.0011
vn -0.1228 0.9904 -0.0633
vn -0.0995 0.9909 -0.0905
vn -0.0738 0.9906 -0.1150
vn -0.0441 0.9894 -0.1380
vn -0.0036 0.9892 -0.1463
vn 0.0011 0.9848 -0.1735
vn 0.0316 0.9889 -0.1449
vn 0.0633 0.9904 -0.1228
vn 0.0905 0.9909 -0.0995
vn 0.1150 0.9906 -0.0738
vn 0.1381 0.9894 -0.0441
vn 0.1463 0.9892 -0.0036
vn 0.1735 0.9848 0.0011
vn 0.1449 0.9889 0.0316
vn 0.1228 0.9904 0.0633
vn 0.0995 0.9909 0.0905
vn 0.0738 0.9906 0.1150
vn 0.0441 0.9894 0.1380
vn 0.0036 0.9892 0.1463
vn -0.0011 0.9848 0.1735
vn -0.0315 0.9889 0.1449
vn -0.0633 0.9904 0.1228
vn -0.0905 0.9909 0.0995
vn -0.1150 0.9906 0.0738
vn -0.1381 0.9894 0.0441
vn -0.1463 0.9892 0.0036
vn -0.0000 1.0000 -0.0000
vn -0.1794 -0.9673 0.1794
vn -0.1726 -0.6965 0.6965
vn -0.5774 -0.5774 0.5773
vn -0.6965 -0.6965 0.1726
vn -0.1794 -0.1794 0.9673
vn -0.6965 -0.1726 0.6965
vn -0.9673 -0.1794 0.1794
vn -0.1794 0.1794 0.9673
vn -0.1726 0.6965 0.6965
vn -0.5773 0.5774 0.5774
vn -0.6965 0.1726 0.6965
vn -0.1794 0.9673 0.1794
vn -0.6965 0.6965 0.1726
vn -0.9673 0.1794 0.1794
vn -0.1794 -0.9673 -0.1794
vn -0.6965 -0.6965 -0.1726
vn -0.5774 -0.5774 -0.5773
vn -0.1726 -0.6965 -0.6965
vn -0.9673 -0.1794 -0.1794
vn -0.6965 -0.1726 -0.6965
vn -0.1794 -0.1794 -0.9673
vn -0.1794 0.9673 -0.1794
vn -0.1726 0.6965 -0.6965
vn -0.5774 0.5773 -0.5774
vn -0.6965 0.6965 -0.1726
vn -0.1794 0.1794 -0.9673
vn -0.6965 0.1726 -0.6965
vn -0.9673 0.1794 -0.1794
vn 0.1794 -0.9673 0.1794
vn 0.6965 -0.6965 0.1726
vn 0.5774 -0.5774 0.5773
vn 0.1726 -0.6965 0.6965
vn 0.9673 -0.1794 0.1794
vn 0.6965 -0.1726 0.6965
vn 0.1794 -0.1794 0.9673
vn 0.1794 0.9673 0.1794
vn 0.1726 0.6965 0.6965
vn 0.5774 0.5773 0.5774
vn 0.6965 0.6965 0.1726
vn 0.1794 0.1794 0.9673
vn 0.6965 0.1726 0.6965
vn 0.9673 0.1794 0.1794
vn 0.1794 -0.9673 -0.1794
vn 0.1726 -0.6965 -0.6965
vn 0.5774 -0.5773 -0.5773
vn 0.6965 -0.6965 -0.1726
vn 0.1794 -0.1794 -0.9673
vn 0.6965 -0.1726 -0.6965
vn 0.9673 -0.1794 -0.1794
vn 0.1794 0.9673 -0.1794
vn 0.6965 0.6965 -0.1726
vn 0.5774 0.5773 -0.5774
vn 0.1726 0.6965 -0.6965
vn 0.9673 0.1794 -0.1794
vn 0.6965 0.1726 -0.6965
vn 0.1794 0.1794 -0.9673
vn -0.5774 -0.5773 0.5774
vn -0.5774 -0.5773 -0.5774
vn -0.5773 0.5774 -0.5774
vn 0.5774 -0.5773 0.5774
vn 0.5773 0.5774 0.5774
vn 0.5774 -0.5773 -0.5774
vn 0.5773 0.5774 -0.5774
vn -0.5773 -0.5774 0.5773
vn -0.5774 0.5773 0.5773
vn -0.5773 -0.5774 -0.5773
vn -0.5774 0.5773 -0.5773
vn 0.5773 -0.5774 0.5773
vn 0.5774 0.5773 0.5773
vn 0.5773 -0.5774 -0.5773
vn 0.5774 0.5773 -0.5773
vn -0.5774 0.5774 -0.5773
vn 0.5774 0.5774 0.5773
vn 0.5774 0.5774 -0.5774
vn -0.0000 0.6883 -0.7254
vn -0.0000 0.9099 -0.4149
vn 0.2439 0.9099 -0.3357
vn 0.4264 0.6883 -0.5869
vn -0.0000 -0.9099 -0.4149
vn -0.0000 -0.6883 -0.7254
vn 0.4264 -0.6883 -0.5869
vn 0.2439 -0.9099 -0.3357
vn -0.0000 -0.3697 -0.9291
vn -0.0000 -0.0000 -1.0000
vn 0.5878 -0.0000 -0.8090
vn 0.5461 -0.3697 -0.7517
vn -0.0000 0.3697 -0.9291
vn 0.5461 0.3697 -0.7517
vn 0.9511 -0.0000 -0.3090
vn 0.8837 -0.3697 -0.2871
vn 0.6899 0.6883 -0.2242
vn 0.8837 0.3697 -0.2871
vn 0.3946 0.9099 -0.1282
vn 0.3946 -0.9099 -0.1282
vn 0.6899 -0.6883 -0.2242
vn 0.3946 -0.9099 0.1282
vn 0.8837 -0.3697 0.2871
vn 0.6899 -0.6883 0.2242
vn 0.8837 0.3697 0.2871
vn 0.9511 -0.0000 0.3090
vn 0.3946 0.9099 0.1282
vn 0.6899 0.6883 0.2242
vn 0.5461 0.3697 0.7517
vn 0.5878 -0.0000 0.8090
vn 0.2439 0.9099 0.3357
vn 0.4264 0.6883 0.5869
vn 0.4264 -0.6883 0.5869
vn 0.2439 -0.9099 0.3357
vn 0.5461 -0.3697 0.7517
vn -0.0000 -0.6883 0.7254
vn -0.0000 -0.9099 0.4149
vn -0.0000 -0.0000 1.0000
vn -0.0000 -0.3697 0.9291
vn -0.0000 0.6883 0.7254
vn -0.0000 0.3697 0.9291
vn -0.0000 0.9099 0.4149
vn -0.4264 0.6883 0.5869
vn -0.5461 0.3697 0.7517
vn -0.2439 0.9099 0.3357
vn -0.2439 -0.9099 0.3357
vn -0.5461 -0.3697 0.7517
vn -0.4264 -0.6883 0.5869
vn -0.5878 -0.0000 0.8090
vn -0.3946 -0.9099 0.1282
vn -0.8837 -0.3697 0.2871
vn -0.6899 -0.6883 0.2242
vn -0.8837 0.3697 0.2871
vn -0.9511 -0.0000 0.3090
vn -0.3946 0.9099 0.1282
vn -0.6899 0.6883 0.2242
vn -0.3946 0.9099 -0.1282
vn -0.6899 0.6883 -0.2242
vn -0.6899 -0.6883 -0.2242
vn -0.3946 -0.9099 -0.1282
vn -0.9511 -0.0000 -0.3090
vn -0.8837 -0.3697 -0.2871
vn -0.8837 0.3697 -0.2871
vn -0.4264 -0.6883 -0.5869
vn -0.2439 -0.9099 -0.3357
vn -0.5878 -0.0000 -0.8090
vn -0.5461 -0.3697 -0.7517
vn -0.4264 0.6883 -0.5869
vn -0.5461 0.3697 -0.7517
vn -0.2439 0.9099 -0.3357
vn 0.5774 -0.5774 -0.5773
vn -0.5774 0.5774 0.5773
vn -0.5773 0.5774 -0.5773
vn 0.5773 0.5774 0.5773
vn 0.5774 0.5774 -0.5773
vn -0.5773 -0.5774 0.5774
vn -0.5773 -0.5774 -0.5774
vn 0.5773 -0.5774 0.5774
vn 0.5773 -0.5774 -0.5774
s 1
f 2//1 3//2 1//3
f 3//2 4//4 1//3
f 4//4 5//5 1//3
f 5//5 6//6 1//3
f 6//6 7//7 1//3
f 7//7 8//8 1//3
f 8//8 9//9 1//3
f 9//9 10//10 1//3
f 10//10 11//11 1//3
f 11//11 12//12 1//3
f 12//12 13//13 1//3
f 13//13 14//14 1//3
f 14//14 15//15 1//3
f 15//15 16//16 1//3
f 16//16 17//17 1//3
f 17//17 18//18 1//3
f 18//18 19//19 1//3
f 19//19 20//20 1//3
f 20//20 21//21 1//3
f 21//21 22//22 1//3
f 22//22 23//23 1//3
f 23//23 24//24 1//3
f 24//24 25//25 1//3
f 25//25 26//26 1//3
f 26//26 27//27 1//3
f 27//27 28//28 1//3
f 28//28 29//29 1//3
f 29//29 2//1 1//3
f 31//30 3//2 2//1
f 30//31 31//30 2//1
f 32//32 4//4 3//2
f 31//30 32//32 3//2
f 33//33 5//5 4//4
f 32//32 33//33 4//4
f 34//34 6//6 5//5
f 33//33 34//34 5//5
f 35//35 7//7 6//6
f 34//34 35//35 6//6
f 36//36 8//8 7//7
f 35//35 36//36 7//7
f 37//37 9//9 8//8
f 36//36 37//37 8//8
f 38//38 10//10 9//9
f 37//37 38//38 9//9
f 39//39 11//11 10//10
f 38//38 39//39 10//10
f 40//40 12//12 11//11
f 39//39 40//40 11//11
f 41//41 13//13 12//12
f 40//40 41//41 12//12
f 42//42 14//14 13//13
f 41//41 42//42 13//13
f 43//43 15//15 14//14
f 42//42 43//43 14//14
f 44//44 16//16 15//15
f 43//43 44//44 15//15
f 45//45 17//17 16//16
f 44//44 45//45 16//16
f 46//46 18//18 17//17
f 45//45 46//46 17//17
f 47//47 19//19 18//18
f 46//46 47//47 18//18
f 48//48 20//20 19//19
f 47//47 48//48 19//19
f 49//49 21//21 20//20
f 48//48 49//49 20//20
f 50//50 22//22 21//21
f 49//49 50//50 21//21
f 51//51 23//23 22//22
f 50//50 51//51 22//22
f 52//52 24//24 23//23
f 51//51 52//52 23//23
f 53//53 25//25 24//24
f 52//52 53//53 24//24
f 54//54 26//26 25//25
f 53//53 54//54 25//25
f 55//55 27//27 26//26
f 54//54 55//55 26//26
f 56//56 28//28 27//27
f 55//55 56//56 27//27
f 57//57 29//29 28//28
f 56//56 57//57 28//28
f 30//31 2//1 29//29
f 57//57 30//31 29//29
f 59//58 31//30 30//31
f 58//59 59//58 30//31
f 60//60 32//32 31//30
f 59//58 60//60 31//30
f 61//61 33//33 32//32
f 60//60 61//61 32//32
f 62//62 34//34 33//33
f 61//61 62//62 33//33
f 63//63 35//35 34//34
f 62//62 63//63 34//34
f 64//64 36//36 35//35
f 63//63 64//64 35//35
f 65//65 37//37 36//36
f 64//64 65//65 36//36
f 66//66 38//38 37//37
f 65//65 66//66 37//37
f 67//67 39//39 38//38
f 66//66 67//67 38//38
f 68//68 40//40 39//39
f 67//67 68//68 39//39
f 69//69 41//41 40//40
f 68//68 69//69 40//40
f 70//70 42//42 41//41
f 69//69 70//70 41//41
f 71//71 43//43 42//42
f 70//70 71//71 42//42
f 72//72 44//44 43//43
f 71//71 72//72 43//43
f 73//73 45//45 44//44
f 72//72 73//73 44//44
f 74//74 46//46 45//45
f 73//73 74//74 45//45
f 75//75 47//47 46//46
f 74//74 75//75 46//46
f 76//76 48//48 47//47
f 75//75 76//76 47//47
f 77//77 49//49 48//48
f 76//76 77//77 48//48
f 78//78 50//50 49//49
f 77//77 78//78 49//49
f 79//79 51//51 50//50
f 78//78 79//79 50//50
f 80//80 52//52 51//51
f 79//79 80//80 51//51
f 81//81 53//53 52//52
f 80//80 81//81 52//52
f 82//82 54//54 53//53
f 81//81 82//82 53//53
f 83//83 55//55 54//54
f 82//82 83//83 54//54
f 84//84 56//56 55//55
f 83//83 84//84 55//55
f 85//85 57//57 56//56
f 84//84 85//85 56//56
f 58//59 30//31 57//57
f 85//85 58//59 57//57
f 87//86 59//58 58//59
f 86//87 87//86 58//59
f 88//88 60//60 59//58
f 87//86 88//88 59//58
f 89//89 61//61 60//60
f 88//88 89//89 60//60
f 90//90 62//62 61//61
f 89//89 90//90 61//61
f 91//91 63//63 62//62
f 90//90 91//91 62//62
f 92//92 64//64 63//63
f 91//91 92//92 63//63
f 93//93 65//65 64//64
f 92//92 93//93 64//64
f 94//94 66//66 65//65
f 93//93 94//94 65//65
f 95//95 67//67 66//66
f 94//94 95//95 66//66
f 96//96 68//68 67//67
f 95//95 96//96 67//67
f 97//97 69//69 68//68
f 96//96 97//97 68//68
f 98//98 70//70 69//69
f 97//97 98//98 69//69
f 99//99 71//71 70//70
f 98//98 99//99 70//70
f 100//100 72//72 71//71
f 99//99 100//100 71//71
f 101//101 73//73 72//72
f 100//100 101//101 72//72
f 102//102 74//74 73//73
f 101//101 102//102 73//73
f 103//103 75//75 74//74
f 102//102 103//103 74//74
f 104//104 76//76 75//75
f 103//103 104//104 75//75
f 105//105 77//77 76//76
f 104//104 105//105 76//76
f 106//106 78//78 77//77
f 105//105 106//106 77//77
f 107//107 79//79 78//78
f 106//106 107//107 78//78
f 108//108 80//80 79//79
f 107//107 108//108 79//79
f 109//109 81//81 80//80
f 108//108 109//109 80//80
f 110//110 82//82 81//81
f 109//109 110//110 81//81
f 111//111 83//83 82//82
f 110//110 111//111 82//82
f 112//112 84//84 83//83
f 111//111 112//112 83//83
f 113//113 85//85 84//84
f 112//112 113//113 84//84
f 86//87 58//59 85//85
f 113//113 86//87 85//85
f 115//114 87//86 86//87
f 114//115 115//114 86//87
f 116//116 88//88 87//86
f 115//114 116//116 87//86
f 117//117 89//89 88//88
f 116//116 117//117 88//88
f 118//118 90//90 89//89
f 117//117 118//118 89//89
f 119//119 91//91 90//90
f 118//118 119//119 90//90
f 120//120 92//92 91//91
f 119//119 120//120 91//91
f 121//121 93//93 92//92
f 120//120 121//121 92//92
f 122//122 94//94 93//93
f 121//121 122//122 93//93
f 123//123 95//95 94//94
f 122//122 123//123 94//94
f 124//124 96//96 95//95
f 123//123 124//124 95//95
f 125//125 97//97 96//96
f 124//124 125//125 96//96
f 126//126 98//98 97//97
f 125//125 126//126 97//97
f 127//127 99//99 98//98
f 126//126 127//127 98//98
f 128//128 100//100 99//99
f 127//127 128//128 99//99
f 129//129 101//101 100//100
f 128//128 129//129 100//100
f 130//130 102//102 101//101
f 129//129 130//130 101//101
f 131//131 103//103 102//102
f 130//130 131//131 102//102
f 132//132 104//104 103//103
f 131//131 132//132 103//103
f 133//133 105//105 104//104
f 132//132 133//133 104//104
f 134//134 106//106 105//105
f 133//133 134//134 105//105
f 135//135 107//107 106//106
f 134//134 135//135 106//106
f 136//136 108//108 107//107
f 135//135 136//136 107//107
f 137//137 109//109 108//108
f 136//136 137//137 108//108
f 138//138 110//110 109//109
f 137//137 138//138 109//109
f 139//139 111//111 110//110
f 138//138 139//139 110//110
f 140//140 112//112 111//111
f 139//139 140//140 111//111
f 141//141 113//113 112//112
f 140//140 141//141 112//112
f 114//115 86//87 113//113
f 141//141 114//115 113//113
f 143//142 115//114 114//115
f 142//143 143//142 114//115
f 144//144 116//116 115//114
f 143//142 144//144 115//114
f 145//145 117//117 116//116
f 144//144 145//145 116//116
f 146//146 118//118 117//117
f 145//145 146//146 117//117
f 147//147 119//119 118//118
f 146//146 147//147 118//118
f 148//148 120//120 119//119
f 147//147 148//148 119//119
f 149//149 121//121 120//120
f 148//148 149//149 120//120
f 150//150 122//122 121//121
f 149//149 150//150 121//121
f 151//151 123//123 122//122
f 150//150 151//151 122//122
f 152//152 124//124 123//123
f 151//151 152//152 123//123
f 153//153 125//125 124//124
f 152//152 153//153 124//124
f 154//154 126//126 125//125
f 153//153 154//154 125//125
f 155//155 127//127 126//126
f 154//154 155//155 126//126
f 156//156 128//128 127//127
f 155//155 156//156 127//127
f 157//157 129//129 128//128
f 156//156 157//157 128//128
f 158//158 130//130 129//129
f 157//157 158//158 129//129
f 159//159 131//131 130//130
f 158//158 159//159 130//130
f 160//160 132//132 131//131
f 159//159 160//160 131//131
f 161//161 133//133 132//132
f 160//160 161//161 132//132
f 162//162 134//134 133//133
f 161//161 162//162 133//133
f 163//163 135//135 134//134
f 162//162 163//163 134//134
f 164//164 136//136 135//135
f 163//163 164//164 135//135
f 165//165 137//137 136//136
f 164//164 165//165 136//136
f 166//166 138//138 137//137
f 165//165 166//166 137//137
f 167//167 139//139 138//138
f 166//166 167//167 138//138
f 168//168 140//140 139//139
f 167//167 168//168 139//139
f 169//169 141//141 140//140
f 168//168 169//169 140//140
f 142//143 114//115 141//141
f 169//169 142//143 141//141
f 170//170 143//142 142//143
f 170//170 144//144 143//142
f 170//170 145//145 144//144
f 170//170 146//146 145//145
f 170//170 147//147 146//146
f 170//170 148//148 147//147
f 170//170 149//149 148//148
f 170//170 150//150 149//149
f 170//170 151//151 150//150
f 170//170 152//152 151//151
f 170//170 153//153 152//152
f 170//170 154//154 153//153
f 170//170 155//155 154//154
f 170//170 156//156 155//155
f 170//170 157//157 156//156
f 170//170 158//158 157//157
f 170//170 159//159 158//158
f 170//170 160//160 159//159
f 170//170 161//161 160//160
f 170//170 162//162 161//161
f 170//170 163//163 162//162
f 170//170 164//164 163//163
f 170//170 165//165 164//164
f 170//170 166//166 165//165
f 170//170 167//167 166//166
f 170//170 168//168 167//167
f 170//170 169//169 168//168
f 170//170 142//143 169//169
f 171//171 174//172 175//173 177//174
f 172//175 176//176 175//173 174//172
f 173//177 177//174 175//173 176//176
f 178//178 181//179 182//180 184//181
f 179//182 183//183 182//180 181//179
f 180//184 184//181 182//180 183//183
f 185//185 188//186 189//187 191//188
f 186//189 190//190 189//187 188//186
f 187//191 191//188 189//187 190//190
f 192//192 195//193 196//194 198//195
f 193//196 197//197 196//194 195//193
f 194//198 198//195 196//194 197//197
f 199//199 202//200 203//201 205//202
f 200//203 204//204 203//201 202//200
f 201//205 205//202 203//201 204//204
f 206//206 209//207 210//208 212//209
f 207//210 211//211 210//208 209//207
f 208//212 212//209 210//208 211//211
f 213//213 216//214 217//215 219//216
f 214//217 218//218 217//215 216//214
f 215//219 219//216 217//215 218//218
f 220//220 223//221 224//222 226//223
f 221//224 225//225 224//222 223//221
f 222//226 226//223 224//222 225//225
f 185//185 171//171 177//174 188//186
f 188//186 177//174 173//177 186//189
f 172//175 178//178 184//181 176//176
f 176//176 184//181 180//184 173//177
f 179//182 192//192 198//195 183//183
f 183//183 198//195 194//198 180//184
f 193//196 187//191 190//190 197//197
f 197//197 190//190 186//189 194//198
f 213//213 185//185 191//188 216//214
f 216//214 191//188 187//191 214//217
f 192//192 220//220 226//223 195//193
f 195//193 226//223 222//226 193//196
f 221//224 215//219 218//218 225//225
f 225//225 218//218 214//217 222//226
f 199//199 213//213 219//216 202//200
f 202//200 219//216 215//219 200//203
f 220//220 206//206 212//209 223//221
f 223//221 212//209 208//212 221//224
f 207//210 201//205 204//204 211//211
f 211//211 204//204 200//203 208//212
f 171//171 199//199 205//202 174//172
f 174//172 205//202 201//205 172//175
f 206//206 179//182 181//179 209//207
f 209//207 181//179 178//178 207//210
f 185//185 213//213 199//199 171//171
f 173//177 180//184 194//198 186//189
f 201//205 207//210 178//178 172//175
f 220//220 192//192 179//182 206//206
f 187//191 193//196 222//226 214//217
f 215//219 221//224 208//212 200//203
f 227//171 230//172 231//227 233//174
f 228//175 232//176 231//227 230//172
f 229//177 233//174 231//227 232//176
f 234//178 237//179 238//180 240//181
f 235//182 239//183 238//180 237//179
f 236//184 240//181 238//180 239//183
f 241//185 244//186 245//228 247//188
f 242//189 246//190 245//228 244//186
f 243//191 247//188 245//228 246//190
f 248//192 251//193 252//229 254//195
f 249//196 253//197 252//229 251//193
f 250//198 254//195 252//229 253//197
f 255//199 258//200 259//230 261//202
f 256//203 260//204 259//230 258//200
f 257//205 261//202 259//230 260//204
f 262//206 265//207 266//231 268//209
f 263//210 267//211 266//231 265//207
f 264//212 268//209 266//231 267//211
f 269//213 272//214 273//232 275//216
f 270//217 274//218 273//232 272//214
f 271//219 275//216 273//232 274//218
f 276//220 279//221 280//233 282//223
f 277//224 281//225 280//233 279//221
f 278//226 282//223 280//233 281//225
f 241//185 227//171 233//174 244//186
f 244//186 233//174 229//177 242//189
f 228//175 234//178 240//181 232//176
f 232//176 240//181 236//184 229//177
f 235//182 248//192 254//195 239//183
f 239//183 254//195 250//198 236//184
f 249//196 243//191 246//190 253//197
f 253//197 246//190 242//189 250//198
f 269//213 241//185 247//188 272//214
f 272//214 247//188 243//191 270//217
f 248//192 276//220 282//223 251//193
f 251//193 282//223 278//226 249//196
f 277//224 271//219 274//218 281//225
f 281//225 274//218 270//217 278//226
f 255//199 269//213 275//216 258//200
f 258//200 275//216 271//219 256//203
f 276//220 262//206 268//209 279//221
f 279//221 268//209 264//212 277//224
f 263//210 257//205 260//204 267//211
f 267//211 260//204 256//203 264//212
f 227//171 255//199 261//202 230//172
f 230//172 261//202 257//205 228//175
f 262//206 235//182 237//179 265//207
f 265//207 237//179 234//178 263//210
f 241//185 269//213 255//199 227//171
f 229//177 236//184 250//198 242//189
f 257//205 263//210 234//178 228//175
f 276//220 248//192 235//182 262//206
f 243//191 249//196 278//226 270//217
f 271//219 277//224 264//212 256//203
f 283//171 286//172 287//234 289//174
f 284//175 288//176 287//234 286//172
f 285//177 289//174 287//234 288//176
f 290//178 293//179 294//235 296//181
f 291//182 295//183 294//235 293//179
f 292//184 296//181 294//235 295//183
f 297//185 300//186 301//236 303//188
f 298//189 302//190 301//236 300//186
f 299//191 303//188 301//236 302//190
f 304//192 307//193 308//237 310//195
f 305//196 309//197 308//237 307//193
f 306//198 310//195 308//237 309//197
f 311//199 314//200 315//238 317//202
f 312//203 316//204 315//238 314//200
f 313//205 317//202 315//238 316//204
f 318//206 321//207 322//239 324//209
f 319//210 323//211 322//239 321//207
f 320//212 324//209 322//239 323//211
f 325//213 328//214 329//240 331//216
f 326//217 330//218 329//240 328//214
f 327//219 331//216 329//240 330//218
f 332//220 335//221 336//241 338//223
f 333//224 337//225 336//241 335//221
f 334//226 338//223 336//241 337//225
f 297//185 283//171 289//174 300//186
f 300//186 289//174 285//177 298//189
f 284//175 290//178 296//181 288//176
f 288//176 296//181 292//184 285//177
f 291//182 304//192 310//195 295//183
f 295//183 310//195 306//198 292//184
f 305//196 299//191 302//190 309//197
f 309//197 302//190 298//189 306//198
f 325//213 297//185 303//188 328//214
f 328//214 303//188 299//191 326//217
f 304//192 332//220 338//223 307//193
f 307//193 338//223 334//226 305//196
f 333//224 327//219 330//218 337//225
f 337//225 330//218 326//217 334//226
f 311//199 325//213 331//216 314//200
f 314//200 331//216 327//219 312//203
f 332//220 318//206 324//209 335//221
f 335//221 324//209 320//212 333//224
f 319//210 313//205 316//204 323//211
f 323//211 316//204 312//203 320//212
f 283//171 311//199 317//202 286//172
f 286//172 317//202 313//205 284//175
f 318//206 291//182 293//179 321//207
f 321//207 293//179 290//178 319//210
f 297//185 325//213 311//199 283//171
f 285//177 292//184 306//198 298//189
f 313//205 319//210 290//178 284//175
f 332//220 304//192 291//182 318//206
f 299//191 305//196 334//226 326//217
f 327//219 333//224 320//212 312//203
f 339//171 342//172 343//173 345//174
f 340//175 344//176 343//173 342//172
f 341//177 345//174 343//173 344//176
f 346//178 349//179 350//235 352//181
f 347//182 351//183 350//235 349//179
f 348//184 352//181 350//235 351//183
f 353//185 356//186 357//187 359//188
f 354//189 358//190 357//187 356//186
f 355//191 359//188 357//187 358//190
f 360//192 363//193 364//242 366//195
f 361//196 365//197 364//242 363//193
f 362//198 366//195 364//242 365//197
f 367//199 370//200 371//201 373//202
f 368//203 372//204 371//201 370//200
f 369//205 373//202 371//201 372//204
f 374//206 377//207 378//243 380//209
f 375//210 379//211 378//243 377//207
f 376//212 380//209 378//243 379//211
f 381//213 384//214 385//215 387//216
f 382//217 386//218 385//215 384//214
f 383//219 387//216 385//215 386//218
f 388//220 391//221 392//244 394//223
f 389//224 393//225 392//244 391//221
f 390//226 394//223 392//244 393//225
f 353//185 339//171 345//174 356//186
f 356//186 345//174 341//177 354//189
f 340//175 346//178 352//181 344//176
f 344//176 352//181 348//184 341//177
f 347//182 360//192 366//195 351//183
f 351//183 366//195 362//198 348//184
f 361//196 355//191 358//190 365//197
f 365//197 358//190 354//189 362//198
f 381//213 353//185 359//188 384//214
f 384//214 359//188 355//191 382//217
f 360//192 388//220 394//223 363//193
f 363//193 394//223 390//226 361//196
f 389//224 383//219 386//218 393//225
f 393//225 386//218 382//217 390//226
f 367//199 381//213 387//216 370//200
f 370//200 387//216 383//219 368//203
f 388//220 374//206 380//209 391//221
f 391//221 380//209 376//212 389//224
f 375//210 369//205 372//204 379//211
f 379//211 372//204 368//203 376//212
f 339//171 367//199 373//202 342//172
f 342//172 373//202 369//205 340//175
f 374//206 347//182 349//179 377//207
f 377//207 349//179 346//178 375//210
f 353//185 381//213 367//199 339//171
f 341//177 348//184 362//198 354//189
f 369//205 375//210 346//178 340//175
f 388//220 360//192 347//182 374//206
f 355//191 361//196 390//226 382//217
f 383//219 389//224 376//212 368//203
f 396//245 462//246 399//247 400//248
f 466//249 397//250 404//251 405//252
f 465//253 464//254 402//255 403//256
f 463//257 396//245 400//248 401//258
f 462//246 395//170 399//247
f 398//3 466//249 405//252
f 397//250 465//253 403//256 404//251
f 464//254 463//257 401//258 402//255
f 403//256 402//255 409//259 410//260
f 401//258 400//248 407//261 408//262
f 399//247 395//170 406//263
f 398//3 405//252 412//264
f 404//251 403//256 410//260 411//265
f 402//255 401//258 408//262 409//259
f 400//248 399//247 406//263 407//261
f 405//252 404//251 411//265 412//264
f 398//3 412//264 419//266
f 411//265 410//260 417//267 418//268
f 409//259 408//262 415//269 416//270
f 407//261 406//263 413//271 414//272
f 412//264 411//265 418//268 419//266
f 410//260 409//259 416//270 417//267
f 408//262 407//261 414//272 415//269
f 406//263 395//170 413//271
f 416//270 415//269 422//273 423//274
f 414//272 413//271 420//275 421//276
f 419//266 418//268 425//277 426//278
f 417//267 416//270 423//274 424//279
f 415//269 414//272 421//276 422//273
f 413//271 395//170 420//275
f 398//3 419//266 426//278
f 418//268 417//267 424//279 425//277
f 426//278 425//277 432//280 433//281
f 424//279 423//274 430//282 431//283
f 422//273 421//276 428//284 429//285
f 420//275 395//170 427//286
f 398//3 426//278 433//281
f 425//277 424//279 431//283 432//280
f 423//274 422//273 429//285 430//282
f 421//276 420//275 427//286 428//284
f 429//285 428//284 435//287 436//288
f 427//286 395//170 434//289
f 398//3 433//281 440//290
f 432//280 431//283 438//291 439//292
f 430//282 429//285 436//288 437//293
f 428//284 427//286 434//289 435//287
f 433//281 432//280 439//292 440//290
f 431//283 430//282 437//293 438//291
f 398//3 440//290 447//294
f 439//292 438//291 445//295 446//296
f 437//293 436//288 443//297 444//298
f 435//287 434//289 441//299 442//300
f 440//290 439//292 446//296 447//294
f 438//291 437//293 444//298 445//295
f 436//288 435//287 442//300 443//297
f 434//289 395//170 441//299
f 442//300 441//299 448//301 449//302
f 447//294 446//296 453//303 454//304
f 445//295 444//298 451//305 452//306
f 443//297 442//300 449//302 450//307
f 441//299 395//170 448//301
f 398//3 447//294 454//304
f 446//296 445//295 452//306 453//303
f 444//298 443//297 450//307 451//305
f 454//304 453//303 460//308 461//309
f 452//306 451//305 458//310 459//311
f 450//307 449//302 456//312 457//313
f 448//301 395//170 455//314
f 398//3 454//304 461//309
f 453//303 452//306 459//311 460//308
f 451//305 450//307 457//313 458//310
f 449//302 448//301 455//314 456//312
f 455//314 395//170 462//246
f 398//3 461//309 466//249
f 460//308 459//311 465//253 397//250
f 458//310 457//313 463//257 464//254
f 456//312 455//314 462//246 396//245
f 461//309 460//308 397//250 466//249
f 459//311 458//310 464//254 465//253
f 457//313 456//312 396//245 463//257
f 538//249 469//250 476//251 477//252
f 537//253 536//254 474//255 475//256
f 535//257 468//245 472//248 473//258
f 534//246 467//170 471//247
f 470//3 538//249 477//252
f 469//250 537//253 475//256 476//251
f 536//254 535//257 473//258 474//255
f 468//245 534//246 471//247 472//248
f 471//247 467//170 478//263
f 470//3 477//252 484//264
f 476//251 475//256 482//260 483//265
f 474//255 473//258 480//262 481//259
f 472//248 471//247 478//263 479//261
f 477//252 476//251 483//265 484//264
f 475//256 474//255 481//259 482//260
f 473//258 472//248 479//261 480//262
f 483//265 482//260 489//267 490//268
f 481//259 480//262 487//269 488//270
f 479//261 478//263 485//271 486//272
f 484//264 483//265 490//268 491//266
f 482//260 481//259 488//270 489//267
f 480//262 479//261 486//272 487//269
f 478//263 467//170 485//271
f 470//3 484//264 491//266
f 491//266 490//268 497//277 498//278
f 489//267 488//270 495//274 496//279
f 487//269 486//272 493//276 494//273
f 485//271 467//170 492//275
f 470//3 491//266 498//278
f 490//268 489//267 496//279 497//277
f 488//270 487//269 494//273 495//274
f 486//272 485//271 492//275 493//276
f 496//279 495//274 502//282 503//283
f 494//273 493//276 500//284 501//285
f 492//275 467//170 499//286
f 470//3 498//278 505//281
f 497//277 496//279 503//283 504//280
f 495//274 494//273 501//285 502//282
f 493//276 492//275 499//286 500//284
f 498//278 497//277 504//280 505//281
f 470//3 505//281 512//290
f 504//280 503//283 510//291 511//292
f 502//282 501//285 508//288 509//293
f 500//284 499//286 506//289 507//287
f 505//281 504//280 511//292 512//290
f 503//283 502//282 509//293 510//291
f 501//285 500//284 507//287 508//288
f 499//286 467//170 506//289
f 509//293 508//288 515//297 516//298
f 507//287 506//289 513//299 514//300
f 512//290 511//292 518//296 519//294
f 510//291 509//293 516//298 517//295
f 508//288 507//287 514//300 515//297
f 506//289 467//170 513//299
f 470//3 512//290 519//294
f 511//292 510//291 517//295 518//296
f 519//294 518//296 525//303 526//304
f 517//295 516//298 523//305 524//306
f 515//297 514//300 521//302 522//307
f 513//299 467//170 520//301
f 470//3 519//294 526//304
f 518//296 517//295 524//306 525//303
f 516//298 515//297 522//307 523//305
f 514//300 513//299 520//301 521//302
f 522//307 521//302 528//312 529//313
f 520//301 467//170 527//314
f 470//3 526//304 533//309
f 525//303 524//306 531//311 532//308
f 523//305 522//307 529//313 530//310
f 521//302 520//301 527//314 528//312
f 526//304 525//303 532//308 533//309
f 524//306 523//305 530//310 531//311
f 470//3 533//309 538//249
f 532//308 531//311 537//253 469//250
f 530//310 529//313 535//257 536//254
f 528//312 527//314 534//246 468//245
f 533//309 532//308 469//250 538//249
f 531//311 530//310 536//254 537//253
f 529//313 528//312 468//245 535//257
f 527//314 467//170 534//246
f 610//249 541//250 548//251 549//252
f 609//253 608//254 546//255 547//256
f 607//257 540//245 544//248 545//258
f 606//246 539//170 543//247
f 542//3 610//249 549//252
f 541//250 609//253 547//256 548//251
f 608//254 607//257 545//258 546//255
f 540//245 606//246 543//247 544//248
f 543//247 539//170 550//263
f 542//3 549//252 556//264
f 548//251 547//256 554//260 555//265
f 546//255 545//258 552//262 553//259
f 544//248 543//247 550//263 551//261
f 549//252 548//251 555//265 556//264
f 547//256 546//255 553//259 554//260
f 545//258 544//248 551//261 552//262
f 555//265 554//260 561//267 562//268
f 553//259 552//262 559//269 560//270
f 551//261 550//263 557//271 558//272
f 556//264 555//265 562//268 563//266
f 554//260 553//259 560//270 561//267
f 552//262 551//261 558//272 559//269
f 550//263 539//170 557//271
f 542//3 556//264 563//266
f 563//266 562//268 569//277 570//278
f 561//267 560//270 567//274 568//279
f 559//269 558//272 565//276 566//273
f 557//271 539//170 564//275
f 542//3 563//266 570//278
f 562//268 561//267 568//279 569//277
f 560//270 559//269 566//273 567//274
f 558//272 557//271 564//275 565//276
f 568//279 567//274 574//282 575//283
f 566//273 565//276 572//284 573//285
f 564//275 539//170 571//286
f 542//3 570//278 577//281
f 569//277 568//279 575//283 576//280
f 567//274 566//273 573//285 574//282
f 565//276 564//275 571//286 572//284
f 570//278 569//277 576//280 577//281
f 542//3 577//281 584//290
f 576//280 575//283 582//291 583//292
f 574//282 573//285 580//288 581//293
f 572//284 571//286 578//289 579//287
f 577//281 576//280 583//292 584//290
f 575//283 574//282 581//293 582//291
f 573//285 572//284 579//287 580//288
f 571//286 539//170 578//289
f 581//293 580//288 587//297 588//298
f 579//287 578//289 585//299 586//300
f 584//290 583//292 590//296 591//294
f 582//291 581//293 588//298 589//295
f 580//288 579//287 586//300 587//297
f 578//289 539//170 585//299
f 542//3 584//290 591//294
f 583//292 582//291 589//295 590//296
f 591//294 590//296 597//303 598//304
f 589//295 588//298 595//305 596//306
f 587//297 586//300 593//302 594//307
f 585//299 539//170 592//301
f 542//3 591//294 598//304
f 590//296 589//295 596//306 597//303
f 588//298 587//297 594//307 595//305
f 586//300 585//299 592//301 593//302
f 594//307 593//302 600//312 601//313
f 592//301 539//170 599//314
f 542//3 598//304 605//309
f 597//303 596//306 603//311 604//308
f 595//305 594//307 601//313 602//310
f 593//302 592//301 599//314 600//312
f 598//304 597//303 604//308 605//309
f 596//306 595//305 602//310 603//311
f 542//3 605//309 610//249
f 604//308 603//311 609//253 541//250
f 602//310 601//313 607//257 608//254
f 600//312 599//314 606//246 540//245
f 605//309 604//308 541//250 610//249
f 603//311 602//310 608//254 609//253
f 601//313 600//312 540//245 607//257
f 599//314 539//170 606//246
f 611//171 614//172 615//173 617//174
f 612//175 616//176 615//173 614//172
f 613//177 617//174 615//173 616//176
f 618//178 621//179 622//235 624//181
f 619//182 623//183 622//235 621//179
f 620//184 624//181 622//235 623//183
f 625//185 628//186 629//187 631//188
f 626//189 630//190 629//187 628//186
f 627//191 631//188 629//187 630//190
f 632//192 635//193 636//237 638//195
f 633//196 637//197 636//237 635//193
f 634//198 638//195 636//237 637//197
f 639//199 642//200 643//201 645//202
f 640//203 644//204 643//201 642//200
f 641//205 645//202 643//201 644//204
f 646//206 649//207 650//239 652//209
f 647//210 651//211 650//239 649//207
f 648//212 652//209 650//239 651//211
f 653//213 656//214 657//315 659//216
f 654//217 658//218 657//315 656//214
f 655//219 659//216 657//315 658//218
f 660//220 663//221 664//241 666//223
f 661//224 665//225 664//241 663//221
f 662//226 666//223 664//241 665//225
f 625//185 611//171 617//174 628//186
f 628//186 617//174 613//177 626//189
f 612//175 618//178 624//181 616//176
f 616//176 624//181 620//184 613//177
f 619//182 632//192 638//195 623//183
f 623//183 638//195 634//198 620//184
f 633//196 627//191 630//190 637//197
f 637//197 630//190 626//189 634//198
f 653//213 625//185 631//188 656//214
f 656//214 631//188 627//191 654//217
f 632//192 660//220 666//223 635//193
f 635//193 666//223 662//226 633//196
f 661//224 655//219 658//218 665//225
f 665//225 658//218 654//217 662//226
f 639//199 653//213 659//216 642//200
f 642//200 659//216 655//219 640//203
f 660//220 646//206 652//209 663//221
f 663//221 652//209 648//212 661//224
f 647//210 641//205 644//204 651//211
f 651//211 644//204 640//203 648//212
f 611//171 639//199 645//202 614//172
f 614//172 645//202 641//205 612//175
f 646//206 619//182 621//179 649//207
f 649//207 621//179 618//178 647//210
f 625//185 653//213 639//199 611//171
f 613//177 620//184 634//198 626//189
f 641//205 647//210 618//178 612//175
f 660//220 632//192 619//182 646//206
f 627//191 633//196 662//226 654//217
f 655//219 661//224 648//212 640//203
f 667//171 670//172 671//173 673//174
f 668//175 672//176 671//173 670//172
f 669//177 673//174 671//173 672//176
f 674//178 677//179 678//316 680//181
f 675//182 679//183 678//316 677//179
f 676//184 680//181 678//316 679//183
f 681//185 684//186 685//187 687//188
f 682//189 686//190 685//187 684//186
f 683//191 687//188 685//187 686//190
f 688//192 691//193 692//317 694//195
f 689//196 693//197 692//317 691//193
f 690//198 694//195 692//317 693//197
f 695//199 698//200 699//201 701//202
f 696//203 700//204 699//201 698//200
f 697//205 701//202 699//201 700//204
f 702//206 705//207 706//318 708//209
f 703//210 707//211 706//318 705//207
f 704//212 708//209 706//318 707//211
f 709//213 712//214 713//315 715//216
f 710//217 714//218 713//315 712//214
f 711//219 715//216 713//315 714//218
f 716//220 719//221 720//319 722//223
f 717//224 721//225 720//319 719//221
f 718//226 722//223 720//319 721//225
f 681//185 667//171 673//174 684//186
f 684//186 673//174 669//177 682//189
f 668//175 674//178 680//181 672//176
f 672//176 680//181 676//184 669//177
f 675//182 688//192 694//195 679//183
f 679//183 694//195 690//198 676//184
f 689//196 683//191 686//190 693//197
f 693//197 686//190 682//189 690//198
f 709//213 681//185 687//188 712//214
f 712//214 687//188 683//191 710//217
f 688//192 716//220 722//223 691//193
f 691//193 722//223 718//226 689//196
f 717//224 711//219 714//218 721//225
f 721//225 714//218 710//217 718//226
f 695//199 709//213 715//216 698//200
f 698//200 715//216 711//219 696//203
f 716//220 702//206 708//209 719//221
f 719//221 708//209 704//212 717//224
f 703//210 697//205 700//204 707//211
f 707//211 700//204 696//203 704//212
f 667//171 695//199 701//202 670//172
f 670//172 701//202 697//205 668//175
f 702//206 675//182 677//179 705//207
f 705//207 677//179 674//178 703//210
f 681//185 709//213 695//199 667//171
f 669//177 676//184 690//198 682//189
f 697//205 703//210 674//178 668//175
f 716//220 688//192 675//182 702//206
f 683//191 689//196 718//226 710//217
f 711//219 717//224 704//212 696//203
f 723//171 726//172 727//320 729//174
f 724//175 728//176 727//320 726//172
f 725//177 729//174 727//320 728//176
f 730//178 733//179 734//235 736//181
f 731//182 735//183 734//235 733//179
f 732//184 736//181 734//235 735//183
f 737//185 740//186 741//321 743//188
f 738//189 742//190 741//321 740//186
f 739//191 743//188 741//321 742//190
f 744//192 747//193 748//237 750//195
f 745//196 749//197 748//237 747//193
f 746//198 750//195 748//237 749//197
f 751//199 754//200 755//322 757//202
f 752//203 756//204 755//322 754//200
f 753//205 757//202 755//322 756//204
f 758//206 761//207 762//239 764//209
f 759//210 763//211 762//239 761//207
f 760//212 764//209 762//239 763//211
f 765//213 768//214 769//323 771//216
f 766//217 770//218 769//323 768//214
f 767//219 771//216 769//323 770//218
f 772//220 775//221 776//241 778//223
f 773//224 777//225 776//241 775//221
f 774//226 778//223 776//241 777//225
f 737//185 723//171 729//174 740//186
f 740//186 729//174 725//177 738//189
f 724//175 730//178 736//181 728//176
f 728//176 736//181 732//184 725//177
f 731//182 744//192 750//195 735//183
f 735//183 750//195 746//198 732//184
f 745//196 739//191 742//190 749//197
f 749//197 742//190 738//189 746//198
f 765//213 737//185 743//188 768//214
f 768//214 743//188 739//191 766//217
f 744//192 772//220 778//223 747//193
f 747//193 778//223 774//226 745//196
f 773//224 767//219 770//218 777//225
f 777//225 770//218 766//217 774//226
f 751//199 765//213 771//216 754//200
f 754//200 771//216 767//219 752//203
f 772//220 758//206 764//209 775//221
f 775//221 764//209 760//212 773//224
f 759//210 753//205 756//204 763//211
f 763//211 756//204 752//203 760//212
f 723//171 751//199 757//202 726//172
f 726//172 757//202 753//205 724//175
f 758//206 731//182 733//179 761//207
f 761//207 733//179 730//178 759//210
f 737//185 765//213 751//199 723//171
f 725//177 732//184 746//198 738//189
f 753//205 759//210 730//178 724//175
f 772//220 744//192 731//182 758//206
f 739//191 745//196 774//226 766//217
f 767//219 773//224 760//212 752//203
