# Blender 5.2.2 LTS
# www.blender.org
o CreamyThock
v 0.000000 1.200000 -2.680000
v 1.200000 2.112000 -2.680000
v 1.190184 2.186544 -2.680000
v 1.161408 2.256000 -2.680000
v 1.115640 2.315640 -2.680000
v 1.056000 2.361408 -2.680000
v 0.986544 2.390184 -2.680000
v 0.912000 2.400000 -2.680000
v -0.912000 2.400000 -2.680000
v -0.986544 2.390184 -2.680000
v -1.056000 2.361408 -2.680000
v -1.115640 2.315640 -2.680000
v -1.161408 2.256000 -2.680000
v -1.190184 2.186544 -2.680000
v -1.200000 2.112000 -2.680000
v -1.200000 0.288000 -2.680000
v -1.190184 0.213456 -2.680000
v -1.161408 0.144000 -2.680000
v -1.115640 0.084360 -2.680000
v -1.056000 0.038592 -2.680000
v -0.986544 0.009816 -2.680000
v -0.912000 0.000000 -2.680000
v 0.912000 0.000000 -2.680000
v 0.986544 0.009816 -2.680000
v 1.056000 0.038592 -2.680000
v 1.115640 0.084360 -2.680000
v 1.161408 0.144000 -2.680000
v 1.190184 0.213456 -2.680000
v 1.200000 0.288000 -2.680000
v 1.068000 1.932000 -3.342400
v 1.056552 2.018952 -3.342400
v 1.022976 2.100000 -3.342400
v 0.969576 2.169576 -3.342400
v 0.900000 2.222976 -3.342400
v 0.818952 2.256552 -3.342400
v 0.732000 2.268000 -3.342400
v -0.732000 2.268000 -3.342400
v -0.818952 2.256552 -3.342400
v -0.900000 2.222976 -3.342400
v -0.969576 2.169576 -3.342400
v -1.022976 2.100000 -3.342400
v -1.056552 2.018952 -3.342400
v -1.068000 1.932000 -3.342400
v -1.068000 0.468000 -3.342400
v -1.056552 0.381048 -3.342400
v -1.022976 0.300000 -3.342400
v -0.969576 0.230424 -3.342400
v -0.900000 0.177024 -3.342400
v -0.818952 0.143448 -3.342400
v -0.732000 0.132000 -3.342400
v 0.732000 0.132000 -3.342400
v 0.818952 0.143448 -3.342400
v 0.900000 0.177024 -3.342400
v 0.969576 0.230424 -3.342400
v 1.022976 0.300000 -3.342400
v 1.056552 0.381048 -3.342400
v 1.068000 0.468000 -3.342400
v 0.936000 1.752000 -4.024000
v 0.922920 1.851384 -4.024000
v 0.884544 1.944000 -4.024000
v 0.823536 2.023536 -4.024000
v 0.744000 2.084544 -4.024000
v 0.651384 2.122920 -4.024000
v 0.552000 2.136000 -4.024000
v -0.552000 2.136000 -4.024000
v -0.651384 2.122920 -4.024000
v -0.744000 2.084544 -4.024000
v -0.823536 2.023536 -4.024000
v -0.884544 1.944000 -4.024000
v -0.922920 1.851384 -4.024000
v -0.936000 1.752000 -4.024000
v -0.936000 0.648000 -4.024000
v -0.922920 0.548616 -4.024000
v -0.884544 0.456000 -4.024000
v -0.823536 0.376464 -4.024000
v -0.744000 0.315456 -4.024000
v -0.651384 0.277080 -4.024000
v -0.552000 0.264000 -4.024000
v 0.552000 0.264000 -4.024000
v 0.651384 0.277080 -4.024000
v 0.744000 0.315456 -4.024000
v 0.823536 0.376464 -4.024000
v 0.884544 0.456000 -4.024000
v 0.922920 0.548616 -4.024000
v 0.936000 0.648000 -4.024000
v 0.840000 1.704000 -4.120000
v 0.828552 1.790952 -4.120000
v 0.794976 1.872000 -4.120000
v 0.741576 1.941576 -4.120000
v 0.672000 1.994976 -4.120000
v 0.590952 2.028552 -4.120000
v 0.504000 2.040000 -4.120000
v -0.504000 2.040000 -4.120000
v -0.590952 2.028552 -4.120000
v -0.672000 1.994976 -4.120000
v -0.741576 1.941576 -4.120000
v -0.794976 1.872000 -4.120000
v -0.828552 1.790952 -4.120000
v -0.840000 1.704000 -4.120000
v -0.840000 0.696000 -4.120000
v -0.828552 0.609048 -4.120000
v -0.794976 0.528000 -4.120000
v -0.741576 0.458424 -4.120000
v -0.672000 0.405024 -4.120000
v -0.590952 0.371448 -4.120000
v -0.504000 0.360000 -4.120000
v 0.504000 0.360000 -4.120000
v 0.590952 0.371448 -4.120000
v 0.672000 0.405024 -4.120000
v 0.741576 0.458424 -4.120000
v 0.794976 0.528000 -4.120000
v 0.828552 0.609048 -4.120000
v 0.840000 0.696000 -4.120000
v 0.604800 1.528320 -4.039096
v 0.595368 1.599888 -4.039096
v 0.567768 1.666560 -4.039096
v 0.523824 1.723824 -4.039096
v 0.466560 1.767768 -4.039096
v 0.399888 1.795368 -4.039096
v 0.328320 1.804800 -4.039096
v -0.328320 1.804800 -4.039096
v -0.399888 1.795368 -4.039096
v -0.466560 1.767768 -4.039096
v -0.523824 1.723824 -4.039096
v -0.567768 1.666560 -4.039096
v -0.595368 1.599888 -4.039096
v -0.604800 1.528320 -4.039096
v -0.604800 0.871680 -4.039096
v -0.595368 0.800112 -4.039096
v -0.567768 0.733440 -4.039096
v -0.523824 0.676176 -4.039096
v -0.466560 0.632232 -4.039096
v -0.399888 0.604632 -4.039096
v -0.328320 0.595200 -4.039096
v 0.328320 0.595200 -4.039096
v 0.399888 0.604632 -4.039096
v 0.466560 0.632232 -4.039096
v 0.523824 0.676176 -4.039096
v 0.567768 0.733440 -4.039096
v 0.595368 0.800112 -4.039096
v 0.604800 0.871680 -4.039096
v 0.352800 1.391520 -3.981640
v 0.347304 1.433256 -3.981640
v 0.331200 1.472160 -3.981640
v 0.305568 1.505568 -3.981640
v 0.272160 1.531200 -3.981640
v 0.233256 1.547304 -3.981640
v 0.191520 1.552800 -3.981640
v -0.191520 1.552800 -3.981640
v -0.233256 1.547304 -3.981640
v -0.272160 1.531200 -3.981640
v -0.305568 1.505568 -3.981640
v -0.331200 1.472160 -3.981640
v -0.347304 1.433256 -3.981640
v -0.352800 1.391520 -3.981640
v -0.352800 1.008480 -3.981640
v -0.347304 0.966744 -3.981640
v -0.331200 0.927840 -3.981640
v -0.305568 0.894432 -3.981640
v -0.272160 0.868800 -3.981640
v -0.233256 0.852696 -3.981640
v -0.191520 0.847200 -3.981640
v 0.191520 0.847200 -3.981640
v 0.233256 0.852696 -3.981640
v 0.272160 0.868800 -3.981640
v 0.305568 0.894432 -3.981640
v 0.331200 0.927840 -3.981640
v 0.347304 0.966744 -3.981640
v 0.352800 1.008480 -3.981640
v 0.000000 1.200000 -3.952000
v -0.310000 1.350000 -3.860000
v -0.310000 1.390000 -3.900000
v -0.350000 1.350000 -3.900000
v -0.310000 1.378284 -3.871716
v -0.333094 1.373094 -3.876906
v -0.338284 1.378284 -3.900000
v -0.338284 1.350000 -3.871716
v -0.310000 1.390000 -3.920000
v -0.310000 1.350000 -3.960000
v -0.350000 1.350000 -3.920000
v -0.310000 1.378284 -3.948284
v -0.333094 1.373094 -3.943094
v -0.338284 1.350000 -3.948284
v -0.338284 1.378284 -3.920000
v -0.310000 1.150000 -3.860000
v -0.350000 1.150000 -3.900000
v -0.310000 1.110000 -3.900000
v -0.338284 1.150000 -3.871716
v -0.333094 1.126906 -3.876906
v -0.338284 1.121716 -3.900000
v -0.310000 1.121716 -3.871716
v -0.310000 1.150000 -3.960000
v -0.310000 1.110000 -3.920000
v -0.350000 1.150000 -3.920000
v -0.310000 1.121716 -3.948284
v -0.333094 1.126906 -3.943094
v -0.338284 1.121716 -3.920000
v -0.338284 1.150000 -3.948284
v 0.310000 1.350000 -3.860000
v 0.350000 1.350000 -3.900000
v 0.310000 1.390000 -3.900000
v 0.338284 1.350000 -3.871716
v 0.333094 1.373094 -3.876906
v 0.338284 1.378284 -3.900000
v 0.310000 1.378284 -3.871716
v 0.310000 1.350000 -3.960000
v 0.310000 1.390000 -3.920000
v 0.350000 1.350000 -3.920000
v 0.310000 1.378284 -3.948284
v 0.333094 1.373094 -3.943094
v 0.338284 1.378284 -3.920000
v 0.338284 1.350000 -3.948284
v 0.310000 1.150000 -3.860000
v 0.310000 1.110000 -3.900000
v 0.350000 1.150000 -3.900000
v 0.310000 1.121716 -3.871716
v 0.333094 1.126906 -3.876906
v 0.338284 1.121716 -3.900000
v 0.338284 1.150000 -3.871716
v 0.310000 1.150000 -3.960000
v 0.350000 1.150000 -3.920000
v 0.310000 1.110000 -3.920000
v 0.338284 1.150000 -3.948284
v 0.333094 1.126906 -3.943094
v 0.338284 1.121716 -3.920000
v 0.310000 1.121716 -3.948284
vn 0.5454 0.0059 0.8382
vn 0.6507 0.2086 0.7302
vn -0.0000 -0.0000 1.0000
vn 0.5497 0.3539 0.7567
vn 0.4321 0.4762 0.7658
vn 0.2977 0.5786 0.7593
vn 0.1433 0.6616 0.7360
vn 0.0022 0.7707 0.6372
vn -0.0059 0.5454 0.8382
vn -0.2086 0.6507 0.7302
vn -0.3539 0.5497 0.7567
vn -0.4762 0.4321 0.7658
vn -0.5786 0.2977 0.7593
vn -0.6616 0.1433 0.7360
vn -0.7707 0.0022 0.6372
vn -0.5454 -0.0059 0.8382
vn -0.6507 -0.2086 0.7302
vn -0.5497 -0.3539 0.7567
vn -0.4321 -0.4762 0.7658
vn -0.2977 -0.5786 0.7593
vn -0.1433 -0.6616 0.7360
vn -0.0022 -0.7707 0.6372
vn 0.0059 -0.5454 0.8382
vn 0.2086 -0.6507 0.7302
vn 0.3539 -0.5497 0.7567
vn 0.4762 -0.4321 0.7658
vn 0.5786 -0.2977 0.7593
vn 0.6616 -0.1433 0.7360
vn 0.7707 -0.0022 0.6372
vn 0.9336 0.2571 -0.2495
vn 0.9807 0.0071 -0.1955
vn 0.8273 0.4853 -0.2828
vn 0.6713 0.6806 -0.2936
vn 0.4740 0.8342 -0.2818
vn 0.2443 0.9376 -0.2473
vn 0.0075 0.9810 -0.1940
vn -0.0071 0.9807 -0.1955
vn -0.2571 0.9336 -0.2495
vn -0.4853 0.8273 -0.2828
vn -0.6806 0.6713 -0.2936
vn -0.8342 0.4740 -0.2818
vn -0.9376 0.2443 -0.2473
vn -0.9810 0.0075 -0.1940
vn -0.9807 -0.0071 -0.1955
vn -0.9336 -0.2571 -0.2495
vn -0.8273 -0.4853 -0.2828
vn -0.6713 -0.6806 -0.2936
vn -0.4740 -0.8342 -0.2818
vn -0.2443 -0.9376 -0.2473
vn -0.0075 -0.9810 -0.1940
vn 0.0071 -0.9807 -0.1955
vn 0.2571 -0.9336 -0.2495
vn 0.4853 -0.8273 -0.2828
vn 0.6806 -0.6713 -0.2936
vn 0.8342 -0.4740 -0.2818
vn 0.9376 -0.2443 -0.2473
vn 0.9810 -0.0075 -0.1940
vn 0.9174 0.2164 -0.3339
vn 0.9708 0.0057 -0.2397
vn 0.8183 0.4401 -0.3697
vn 0.6726 0.6332 -0.3829
vn 0.4878 0.7889 -0.3737
vn 0.2705 0.9000 -0.3419
vn 0.0155 0.9422 -0.3346
vn -0.0056 0.9708 -0.2398
vn -0.2164 0.9174 -0.3339
vn -0.4401 0.8183 -0.3697
vn -0.6332 0.6726 -0.3829
vn -0.7889 0.4878 -0.3737
vn -0.9000 0.2705 -0.3419
vn -0.9422 0.0155 -0.3346
vn -0.9708 -0.0056 -0.2398
vn -0.9174 -0.2164 -0.3339
vn -0.8183 -0.4401 -0.3697
vn -0.6726 -0.6332 -0.3829
vn -0.4878 -0.7889 -0.3737
vn -0.2705 -0.9000 -0.3419
vn -0.0155 -0.9422 -0.3346
vn 0.0056 -0.9708 -0.2398
vn 0.2164 -0.9174 -0.3339
vn 0.4401 -0.8183 -0.3697
vn 0.6332 -0.6726 -0.3829
vn 0.7889 -0.4878 -0.3737
vn 0.9000 -0.2705 -0.3419
vn 0.9422 -0.0155 -0.3346
vn 0.0685 -0.0031 -0.9976
vn 0.2319 -0.0012 -0.9727
vn 0.0622 0.0137 -0.9980
vn 0.0553 0.0287 -0.9981
vn 0.0473 0.0432 -0.9979
vn 0.0375 0.0587 -0.9976
vn 0.0027 -0.0510 -0.9987
vn 0.0012 0.2319 -0.9727
vn 0.0031 0.0685 -0.9976
vn -0.0137 0.0622 -0.9980
vn -0.0287 0.0553 -0.9981
vn -0.0432 0.0473 -0.9979
vn -0.0587 0.0375 -0.9976
vn 0.0509 0.0027 -0.9987
vn -0.2319 0.0012 -0.9727
vn -0.0685 0.0031 -0.9976
vn -0.0622 -0.0137 -0.9980
vn -0.0553 -0.0287 -0.9981
vn -0.0473 -0.0432 -0.9979
vn -0.0375 -0.0587 -0.9976
vn -0.0027 0.0509 -0.9987
vn -0.0012 -0.2319 -0.9727
vn -0.0031 -0.0685 -0.9976
vn 0.0137 -0.0622 -0.9980
vn 0.0287 -0.0553 -0.9981
vn 0.0432 -0.0473 -0.9979
vn 0.0587 -0.0375 -0.9976
vn -0.0509 -0.0027 -0.9987
vn -0.2401 -0.0590 -0.9689
vn -0.2915 -0.0026 -0.9566
vn -0.2006 -0.1104 -0.9734
vn -0.1608 -0.1543 -0.9749
vn -0.1178 -0.1945 -0.9738
vn -0.0680 -0.2341 -0.9698
vn -0.0045 -0.2627 -0.9649
vn 0.0026 -0.2915 -0.9566
vn 0.0590 -0.2401 -0.9689
vn 0.1104 -0.2007 -0.9734
vn 0.1543 -0.1608 -0.9749
vn 0.1945 -0.1178 -0.9738
vn 0.2341 -0.0680 -0.9698
vn 0.2627 -0.0045 -0.9649
vn 0.2915 0.0026 -0.9566
vn 0.2401 0.0590 -0.9689
vn 0.2006 0.1104 -0.9734
vn 0.1608 0.1543 -0.9749
vn 0.1178 0.1945 -0.9738
vn 0.0680 0.2341 -0.9698
vn 0.0045 0.2627 -0.9649
vn -0.0026 0.2915 -0.9566
vn -0.0590 0.2401 -0.9689
vn -0.1104 0.2007 -0.9734
vn -0.1543 0.1608 -0.9749
vn -0.1945 0.1178 -0.9738
vn -0.2341 0.0680 -0.9698
vn -0.2627 0.0045 -0.9649
vn -0.1449 -0.0316 -0.9889
vn -0.1735 -0.0011 -0.9848
vn -0.1228 -0.0633 -0.9904
vn -0.0995 -0.0905 -0.9909
vn -0.0738 -0.1150 -0.9906
vn -0.0441 -0.1380 -0.9894
vn -0.0036 -0.1463 -0.9892
vn 0.0011 -0.1735 -0.9848
vn 0.0316 -0.1449 -0.9889
vn 0.0633 -0.1228 -0.9904
vn 0.0905 -0.0995 -0.9909
vn 0.1150 -0.0738 -0.9906
vn 0.1381 -0.0441 -0.9894
vn 0.1463 -0.0036 -0.9892
vn 0.1735 0.0011 -0.9848
vn 0.1449 0.0316 -0.9889
vn 0.1228 0.0633 -0.9904
vn 0.0995 0.0905 -0.9909
vn 0.0738 0.1150 -0.9906
vn 0.0441 0.1380 -0.9894
vn 0.0036 0.1463 -0.9892
vn -0.0011 0.1735 -0.9848
vn -0.0316 0.1449 -0.9889
vn -0.0633 0.1228 -0.9904
vn -0.0905 0.0995 -0.9909
vn -0.1150 0.0738 -0.9906
vn -0.1381 0.0441 -0.9894
vn -0.1463 0.0036 -0.9892
vn -0.0000 -0.0000 -1.0000
vn -0.1794 0.1794 0.9673
vn -0.1726 0.6965 0.6965
vn -0.5774 0.5773 0.5774
vn -0.6965 0.1726 0.6965
vn -0.1794 0.9673 0.1794
vn -0.6965 0.6965 0.1726
vn -0.9673 0.1794 0.1794
vn -0.1794 0.9673 -0.1794
vn -0.1726 0.6965 -0.6965
vn -0.5774 0.5773 -0.5774
vn -0.6965 0.6965 -0.1726
vn -0.1794 0.1794 -0.9673
vn -0.6965 0.1726 -0.6965
vn -0.9673 0.1794 -0.1794
vn -0.1794 -0.1794 0.9673
vn -0.6965 -0.1726 0.6965
vn -0.5773 -0.5774 0.5774
vn -0.1726 -0.6965 0.6965
vn -0.9673 -0.1794 0.1794
vn -0.6965 -0.6965 0.1726
vn -0.1794 -0.9673 0.1794
vn -0.1794 -0.1794 -0.9673
vn -0.1726 -0.6965 -0.6965
vn -0.5773 -0.5774 -0.5774
vn -0.6965 -0.1726 -0.6965
vn -0.1794 -0.9673 -0.1794
vn -0.6965 -0.6965 -0.1726
vn -0.9673 -0.1794 -0.1794
vn 0.1794 0.1794 0.9673
vn 0.6965 0.1726 0.6965
vn 0.5774 0.5773 0.5774
vn 0.1726 0.6965 0.6965
vn 0.9673 0.1794 0.1794
vn 0.6965 0.6965 0.1726
vn 0.1794 0.9673 0.1794
vn 0.1794 0.1794 -0.9673
vn 0.1726 0.6965 -0.6965
vn 0.5774 0.5774 -0.5774
vn 0.6965 0.1726 -0.6965
vn 0.1794 0.9673 -0.1794
vn 0.6965 0.6965 -0.1726
vn 0.9673 0.1794 -0.1794
vn 0.1794 -0.1794 0.9673
vn 0.1726 -0.6965 0.6965
vn 0.5773 -0.5774 0.5774
vn 0.6965 -0.1726 0.6965
vn 0.1794 -0.9673 0.1794
vn 0.6965 -0.6965 0.1726
vn 0.9673 -0.1794 0.1794
vn 0.1794 -0.1794 -0.9673
vn 0.6965 -0.1726 -0.6965
vn 0.5773 -0.5774 -0.5774
vn 0.1726 -0.6965 -0.6965
vn 0.9673 -0.1794 -0.1794
vn 0.6965 -0.6965 -0.1726
vn 0.1794 -0.9673 -0.1794
s 1
f 2//1 3//2 1//3
f 3//2 4//4 1//3
f 4//4 5//5 1//3
f 5//5 6//6 1//3
f 6//6 7//7 1//3
f 7//7 8//8 1//3
f 8//8 9//9 1//3
f 9//9 10//10 1//3
f 10//10 11//11 1//3
f 11//11 12//12 1//3
f 12//12 13//13 1//3
f 13//13 14//14 1//3
f 14//14 15//15 1//3
f 15//15 16//16 1//3
f 16//16 17//17 1//3
f 17//17 18//18 1//3
f 18//18 19//19 1//3
f 19//19 20//20 1//3
f 20//20 21//21 1//3
f 21//21 22//22 1//3
f 22//22 23//23 1//3
f 23//23 24//24 1//3
f 24//24 25//25 1//3
f 25//25 26//26 1//3
f 26//26 27//27 1//3
f 27//27 28//28 1//3
f 28//28 29//29 1//3
f 29//29 2//1 1//3
f 31//30 3//2 2//1
f 30//31 31//30 2//1
f 32//32 4//4 3//2
f 31//30 32//32 3//2
f 33//33 5//5 4//4
f 32//32 33//33 4//4
f 34//34 6//6 5//5
f 33//33 34//34 5//5
f 35//35 7//7 6//6
f 34//34 35//35 6//6
f 36//36 8//8 7//7
f 35//35 36//36 7//7
f 37//37 9//9 8//8
f 36//36 37//37 8//8
f 38//38 10//10 9//9
f 37//37 38//38 9//9
f 39//39 11//11 10//10
f 38//38 39//39 10//10
f 40//40 12//12 11//11
f 39//39 40//40 11//11
f 41//41 13//13 12//12
f 40//40 41//41 12//12
f 42//42 14//14 13//13
f 41//41 42//42 13//13
f 43//43 15//15 14//14
f 42//42 43//43 14//14
f 44//44 16//16 15//15
f 43//43 44//44 15//15
f 45//45 17//17 16//16
f 44//44 45//45 16//16
f 46//46 18//18 17//17
f 45//45 46//46 17//17
f 47//47 19//19 18//18
f 46//46 47//47 18//18
f 48//48 20//20 19//19
f 47//47 48//48 19//19
f 49//49 21//21 20//20
f 48//48 49//49 20//20
f 50//50 22//22 21//21
f 49//49 50//50 21//21
f 51//51 23//23 22//22
f 50//50 51//51 22//22
f 52//52 24//24 23//23
f 51//51 52//52 23//23
f 53//53 25//25 24//24
f 52//52 53//53 24//24
f 54//54 26//26 25//25
f 53//53 54//54 25//25
f 55//55 27//27 26//26
f 54//54 55//55 26//26
f 56//56 28//28 27//27
f 55//55 56//56 27//27
f 57//57 29//29 28//28
f 56//56 57//57 28//28
f 30//31 2//1 29//29
f 57//57 30//31 29//29
f 59//58 31//30 30//31
f 58//59 59//58 30//31
f 60//60 32//32 31//30
f 59//58 60//60 31//30
f 61//61 33//33 32//32
f 60//60 61//61 32//32
f 62//62 34//34 33//33
f 61//61 62//62 33//33
f 63//63 35//35 34//34
f 62//62 63//63 34//34
f 64//64 36//36 35//35
f 63//63 64//64 35//35
f 65//65 37//37 36//36
f 64//64 65//65 36//36
f 66//66 38//38 37//37
f 65//65 66//66 37//37
f 67//67 39//39 38//38
f 66//66 67//67 38//38
f 68//68 40//40 39//39
f 67//67 68//68 39//39
f 69//69 41//41 40//40
f 68//68 69//69 40//40
f 70//70 42//42 41//41
f 69//69 70//70 41//41
f 71//71 43//43 42//42
f 70//70 71//71 42//42
f 72//72 44//44 43//43
f 71//71 72//72 43//43
f 73//73 45//45 44//44
f 72//72 73//73 44//44
f 74//74 46//46 45//45
f 73//73 74//74 45//45
f 75//75 47//47 46//46
f 74//74 75//75 46//46
f 76//76 48//48 47//47
f 75//75 76//76 47//47
f 77//77 49//49 48//48
f 76//76 77//77 48//48
f 78//78 50//50 49//49
f 77//77 78//78 49//49
f 79//79 51//51 50//50
f 78//78 79//79 50//50
f 80//80 52//52 51//51
f 79//79 80//80 51//51
f 81//81 53//53 52//52
f 80//80 81//81 52//52
f 82//82 54//54 53//53
f 81//81 82//82 53//53
f 83//83 55//55 54//54
f 82//82 83//83 54//54
f 84//84 56//56 55//55
f 83//83 84//84 55//55
f 85//85 57//57 56//56
f 84//84 85//85 56//56
f 58//59 30//31 57//57
f 85//85 58//59 57//57
f 87//86 59//58 58//59
f 86//87 87//86 58//59
f 88//88 60//60 59//58
f 87//86 88//88 59//58
f 89//89 61//61 60//60
f 88//88 89//89 60//60
f 90//90 62//62 61//61
f 89//89 90//90 61//61
f 91//91 63//63 62//62
f 90//90 91//91 62//62
f 92//92 64//64 63//63
f 91//91 92//92 63//63
f 93//93 65//65 64//64
f 92//92 93//93 64//64
f 94//94 66//66 65//65
f 93//93 94//94 65//65
f 95//95 67//67 66//66
f 94//94 95//95 66//66
f 96//96 68//68 67//67
f 95//95 96//96 67//67
f 97//97 69//69 68//68
f 96//96 97//97 68//68
f 98//98 70//70 69//69
f 97//97 98//98 69//69
f 99//99 71//71 70//70
f 98//98 99//99 70//70
f 100//100 72//72 71//71
f 99//99 100//100 71//71
f 101//101 73//73 72//72
f 100//100 101//101 72//72
f 102//102 74//74 73//73
f 101//101 102//102 73//73
f 103//103 75//75 74//74
f 102//102 103//103 74//74
f 104//104 76//76 75//75
f 103//103 104//104 75//75
f 105//105 77//77 76//76
f 104//104 105//105 76//76
f 106//106 78//78 77//77
f 105//105 106//106 77//77
f 107//107 79//79 78//78
f 106//106 107//107 78//78
f 108//108 80//80 79//79
f 107//107 108//108 79//79
f 109//109 81//81 80//80
f 108//108 109//109 80//80
f 110//110 82//82 81//81
f 109//109 110//110 81//81
f 111//111 83//83 82//82
f 110//110 111//111 82//82
f 112//112 84//84 83//83
f 111//111 112//112 83//83
f 113//113 85//85 84//84
f 112//112 113//113 84//84
f 86//87 58//59 85//85
f 113//113 86//87 85//85
f 115//114 87//86 86//87
f 114//115 115//114 86//87
f 116//116 88//88 87//86
f 115//114 116//116 87//86
f 117//117 89//89 88//88
f 116//116 117//117 88//88
f 118//118 90//90 89//89
f 117//117 118//118 89//89
f 119//119 91//91 90//90
f 118//118 119//119 90//90
f 120//120 92//92 91//91
f 119//119 120//120 91//91
f 121//121 93//93 92//92
f 120//120 121//121 92//92
f 122//122 94//94 93//93
f 121//121 122//122 93//93
f 123//123 95//95 94//94
f 122//122 123//123 94//94
f 124//124 96//96 95//95
f 123//123 124//124 95//95
f 125//125 97//97 96//96
f 124//124 125//125 96//96
f 126//126 98//98 97//97
f 125//125 126//126 97//97
f 127//127 99//99 98//98
f 126//126 127//127 98//98
f 128//128 100//100 99//99
f 127//127 128//128 99//99
f 129//129 101//101 100//100
f 128//128 129//129 100//100
f 130//130 102//102 101//101
f 129//129 130//130 101//101
f 131//131 103//103 102//102
f 130//130 131//131 102//102
f 132//132 104//104 103//103
f 131//131 132//132 103//103
f 133//133 105//105 104//104
f 132//132 133//133 104//104
f 134//134 106//106 105//105
f 133//133 134//134 105//105
f 135//135 107//107 106//106
f 134//134 135//135 106//106
f 136//136 108//108 107//107
f 135//135 136//136 107//107
f 137//137 109//109 108//108
f 136//136 137//137 108//108
f 138//138 110//110 109//109
f 137//137 138//138 109//109
f 139//139 111//111 110//110
f 138//138 139//139 110//110
f 140//140 112//112 111//111
f 139//139 140//140 111//111
f 141//141 113//113 112//112
f 140//140 141//141 112//112
f 114//115 86//87 113//113
f 141//141 114//115 113//113
f 143//142 115//114 114//115
f 142//143 143//142 114//115
f 144//144 116//116 115//114
f 143//142 144//144 115//114
f 145//145 117//117 116//116
f 144//144 145//145 116//116
f 146//146 118//118 117//117
f 145//145 146//146 117//117
f 147//147 119//119 118//118
f 146//146 147//147 118//118
f 148//148 120//120 119//119
f 147//147 148//148 119//119
f 149//149 121//121 120//120
f 148//148 149//149 120//120
f 150//150 122//122 121//121
f 149//149 150//150 121//121
f 151//151 123//123 122//122
f 150//150 151//151 122//122
f 152//152 124//124 123//123
f 151//151 152//152 123//123
f 153//153 125//125 124//124
f 152//152 153//153 124//124
f 154//154 126//126 125//125
f 153//153 154//154 125//125
f 155//155 127//127 126//126
f 154//154 155//155 126//126
f 156//156 128//128 127//127
f 155//155 156//156 127//127
f 157//157 129//129 128//128
f 156//156 157//157 128//128
f 158//158 130//130 129//129
f 157//157 158//158 129//129
f 159//159 131//131 130//130
f 158//158 159//159 130//130
f 160//160 132//132 131//131
f 159//159 160//160 131//131
f 161//161 133//133 132//132
f 160//160 161//161 132//132
f 162//162 134//134 133//133
f 161//161 162//162 133//133
f 163//163 135//135 134//134
f 162//162 163//163 134//134
f 164//164 136//136 135//135
f 163//163 164//164 135//135
f 165//165 137//137 136//136
f 164//164 165//165 136//136
f 166//166 138//138 137//137
f 165//165 166//166 137//137
f 167//167 139//139 138//138
f 166//166 167//167 138//138
f 168//168 140//140 139//139
f 167//167 168//168 139//139
f 169//169 141//141 140//140
f 168//168 169//169 140//140
f 142//143 114//115 141//141
f 169//169 142//143 141//141
f 170//170 143//142 142//143
f 170//170 144//144 143//142
f 170//170 145//145 144//144
f 170//170 146//146 145//145
f 170//170 147//147 146//146
f 170//170 148//148 147//147
f 170//170 149//149 148//148
f 170//170 150//150 149//149
f 170//170 151//151 150//150
f 170//170 152//152 151//151
f 170//170 153//153 152//152
f 170//170 154//154 153//153
f 170//170 155//155 154//154
f 170//170 156//156 155//155
f 170//170 157//157 156//156
f 170//170 158//158 157//157
f 170//170 159//159 158//158
f 170//170 160//160 159//159
f 170//170 161//161 160//160
f 170//170 162//162 161//161
f 170//170 163//163 162//162
f 170//170 164//164 163//163
f 170//170 165//165 164//164
f 170//170 166//166 165//165
f 170//170 167//167 166//166
f 170//170 168//168 167//167
f 170//170 169//169 168//168
f 170//170 142//143 169//169
f 171//171 174//172 175//173 177//174
f 172//175 176//176 175//173 174//172
f 173//177 177//174 175//173 176//176
f 178//178 181//179 182//180 184//181
f 179//182 183//183 182//180 181//179
f 180//184 184//181 182//180 183//183
f 185//185 188//186 189//187 191//188
f 186//189 190//190 189//187 188//186
f 187//191 191//188 189//187 190//190
f 192//192 195//193 196//194 198//195
f 193//196 197//197 196//194 195//193
f 194//198 198//195 196//194 197//197
f 199//199 202//200 203//201 205//202
f 200//203 204//204 203//201 202//200
f 201//205 205//202 203//201 204//204
f 206//206 209//207 210//208 212//209
f 207//210 211//211 210//208 209//207
f 208//212 212//209 210//208 211//211
f 213//213 216//214 217//215 219//216
f 214//217 218//218 217//215 216//214
f 215//219 219//216 217//215 218//218
f 220//220 223//221 224//222 226//223
f 221//224 225//225 224//222 223//221
f 222//226 226//223 224//222 225//225
f 185//185 171//171 177//174 188//186
f 188//186 177//174 173//177 186//189
f 172//175 178//178 184//181 176//176
f 176//176 184//181 180//184 173//177
f 179//182 192//192 198//195 183//183
f 183//183 198//195 194//198 180//184
f 193//196 187//191 190//190 197//197
f 197//197 190//190 186//189 194//198
f 213//213 185//185 191//188 216//214
f 216//214 191//188 187//191 214//217
f 192//192 220//220 226//223 195//193
f 195//193 226//223 222//226 193//196
f 221//224 215//219 218//218 225//225
f 225//225 218//218 214//217 222//226
f 199//199 213//213 219//216 202//200
f 202//200 219//216 215//219 200//203
f 220//220 206//206 212//209 223//221
f 223//221 212//209 208//212 221//224
f 207//210 201//205 204//204 211//211
f 211//211 204//204 200//203 208//212
f 171//171 199//199 205//202 174//172
f 174//172 205//202 201//205 172//175
f 206//206 179//182 181//179 209//207
f 209//207 181//179 178//178 207//210
f 185//185 213//213 199//199 171//171
f 173//177 180//184 194//198 186//189
f 201//205 207//210 178//178 172//175
f 220//220 192//192 179//182 206//206
f 187//191 193//196 222//226 214//217
f 215//219 221//224 208//212 200//203
