# Blender 5.2.2 LTS
# www.blender.org
o GoldenEgg
v 3.400000 2.562000 0.200000
v 3.400000 1.921500 -0.709327
v 3.400000 1.719128 -0.786677
v 3.400000 1.503443 -0.834048
v 3.400000 1.281000 -0.850000
v 3.400000 1.058557 -0.834048
v 3.400000 0.640500 -0.709327
v 3.400000 0.457589 -0.604347
v 3.400000 0.077254 -0.159121
v 3.400000 0.000000 0.200000
v 3.440573 2.542539 0.022241
v 3.479912 2.484746 -0.150117
v 3.516824 2.390378 -0.311837
v 3.550185 2.262303 -0.458005
v 3.578984 2.104411 -0.584180
v 3.602344 1.921500 -0.686528
v 3.619556 1.719128 -0.761939
v 3.630097 1.503443 -0.808122
v 3.633647 1.281000 -0.823674
v 3.630097 1.058557 -0.808122
v 3.619556 0.842872 -0.761939
v 3.602344 0.640500 -0.686528
v 3.578984 0.457589 -0.584180
v 3.550185 0.299697 -0.458005
v 3.516824 0.171621 -0.311837
v 3.479912 0.077254 -0.150117
v 3.440573 0.019461 0.022241
v 3.479110 2.542539 0.035726
v 3.555817 2.484746 -0.123557
v 3.627789 2.390378 -0.273009
v 3.692840 2.262303 -0.408088
v 3.748993 2.104411 -0.524691
v 3.794542 1.921500 -0.619275
v 3.828103 1.719128 -0.688965
v 3.848657 1.503443 -0.731645
v 3.855578 1.281000 -0.746017
v 3.848657 1.058557 -0.731645
v 3.828103 0.842872 -0.688965
v 3.794542 0.640500 -0.619275
v 3.748993 0.457589 -0.524691
v 3.692840 0.299697 -0.408088
v 3.627789 0.171621 -0.273009
v 3.555817 0.077254 -0.123557
v 3.479110 0.019461 0.035726
v 3.513681 2.542539 0.057448
v 3.623909 2.484746 -0.080772
v 3.727332 2.390378 -0.210461
v 3.820810 2.262303 -0.327679
v 3.901502 2.104411 -0.428864
v 3.966956 1.921500 -0.510940
v 4.015183 1.719128 -0.571415
v 4.044719 1.503443 -0.608451
v 4.054665 1.281000 -0.620923
v 4.044719 1.058557 -0.608451
v 4.015183 0.842872 -0.571415
v 3.966956 0.640500 -0.510940
v 3.901502 0.457589 -0.428864
v 3.820810 0.299697 -0.327679
v 3.727332 0.171621 -0.210461
v 3.623909 0.077254 -0.080772
v 3.513681 0.019461 0.057448
v 3.542552 2.542539 0.086319
v 3.680772 2.484746 -0.023908
v 3.810462 2.390378 -0.127332
v 3.927679 2.262303 -0.220810
v 4.028863 2.104411 -0.301502
v 4.110940 1.921500 -0.366956
v 4.171415 1.719128 -0.415183
v 4.208451 1.503443 -0.444718
v 4.220923 1.281000 -0.454664
v 4.208451 1.058557 -0.444718
v 4.171415 0.842872 -0.415183
v 4.110940 0.640500 -0.366956
v 4.028863 0.457589 -0.301502
v 3.927679 0.299697 -0.220810
v 3.810462 0.171621 -0.127332
v 3.680772 0.077254 -0.023908
v 3.542552 0.019461 0.086319
v 3.564274 2.542539 0.120890
v 3.723557 2.484746 0.044183
v 3.873009 2.390378 -0.027789
v 4.008088 2.262303 -0.092840
v 4.124691 2.104411 -0.148993
v 4.219275 1.921500 -0.194542
v 4.288966 1.719128 -0.228103
v 4.331645 1.503443 -0.248657
v 4.346017 1.281000 -0.255578
v 4.331645 1.058557 -0.248657
v 4.288966 0.842872 -0.228103
v 4.219275 0.640500 -0.194542
v 4.124691 0.457589 -0.148993
v 4.008088 0.299697 -0.092840
v 3.873009 0.171621 -0.027789
v 3.723557 0.077254 0.044183
v 3.564274 0.019461 0.120890
v 3.577759 2.542539 0.159428
v 3.750117 2.484746 0.120088
v 3.911837 2.390378 0.083177
v 4.058005 2.262303 0.049815
v 4.184180 2.104411 0.021016
v 4.286528 1.921500 -0.002344
v 4.361939 1.719128 -0.019556
v 4.408122 1.503443 -0.030097
v 4.423675 1.281000 -0.033647
v 4.408122 1.058557 -0.030097
v 4.361939 0.842872 -0.019556
v 4.286528 0.640500 -0.002344
v 4.184180 0.457589 0.021016
v 4.058005 0.299697 0.049815
v 3.911837 0.171621 0.083177
v 3.750117 0.077254 0.120088
v 3.577759 0.019461 0.159428
v 3.582331 2.542539 0.200000
v 3.759121 2.484746 0.200000
v 3.925000 2.390378 0.200000
v 4.074927 2.262303 0.200000
v 4.204347 2.104411 0.200000
v 4.309327 1.921500 0.200000
v 4.386677 1.719128 0.200000
v 4.434048 1.503443 0.200000
v 4.450000 1.281000 0.200000
v 4.434048 1.058557 0.200000
v 4.386677 0.842872 0.200000
v 4.309327 0.640500 0.200000
v 4.204347 0.457589 0.200000
v 4.074927 0.299697 0.200000
v 3.925000 0.171621 0.200000
v 3.759121 0.077254 0.200000
v 3.582331 0.019461 0.200000
v 3.577759 2.542539 0.240572
v 3.750117 2.484746 0.279912
v 3.911837 2.390378 0.316824
v 4.058005 2.262303 0.350185
v 4.184180 2.104411 0.378984
v 4.286528 1.921500 0.402344
v 4.361939 1.719128 0.419556
v 4.408122 1.503443 0.430097
v 4.423675 1.281000 0.433647
v 4.408122 1.058557 0.430097
v 4.361939 0.842872 0.419556
v 4.286528 0.640500 0.402344
v 4.184180 0.457589 0.378984
v 4.058005 0.299697 0.350185
v 3.911837 0.171621 0.316824
v 3.750117 0.077254 0.279912
v 3.577759 0.019461 0.240572
v 3.564274 2.542539 0.279110
v 3.723557 2.484746 0.355817
v 3.873009 2.390378 0.427789
v 4.008089 2.262303 0.492840
v 4.124691 2.104411 0.548993
v 4.219275 1.921500 0.594542
v 4.288965 1.719128 0.628103
v 4.331645 1.503443 0.648657
v 4.346017 1.281000 0.655578
v 4.331645 1.058557 0.648657
v 4.288965 0.842872 0.628103
v 4.219275 0.640500 0.594542
v 4.124691 0.457589 0.548993
v 4.008089 0.299697 0.492840
v 3.873009 0.171621 0.427789
v 3.723557 0.077254 0.355817
v 3.564274 0.019461 0.279110
v 3.542552 2.542539 0.313681
v 3.680772 2.484746 0.423908
v 3.810462 2.390378 0.527332
v 3.927680 2.262303 0.620810
v 4.028863 2.104411 0.701502
v 4.110940 1.921500 0.766956
v 4.171415 1.719128 0.815183
v 4.208451 1.503443 0.844718
v 4.220923 1.281000 0.854664
v 4.208451 1.058557 0.844718
v 4.171415 0.842872 0.815183
v 4.110940 0.640500 0.766956
v 4.028863 0.457589 0.701502
v 3.927680 0.299697 0.620810
v 3.810462 0.171621 0.527332
v 3.680772 0.077254 0.423908
v 3.542552 0.019461 0.313681
v 3.513681 2.542539 0.342552
v 3.623909 2.484746 0.480772
v 3.727332 2.390378 0.610462
v 3.820810 2.262303 0.727679
v 3.901502 2.104411 0.828864
v 3.966956 1.921500 0.910940
v 4.015183 1.719128 0.971415
v 4.044718 1.503443 1.008451
v 4.054664 1.281000 1.020923
v 4.044718 1.058557 1.008451
v 4.015183 0.842872 0.971415
v 3.966956 0.640500 0.910940
v 3.901502 0.457589 0.828864
v 3.820810 0.299697 0.727679
v 3.727332 0.171621 0.610462
v 3.623909 0.077254 0.480772
v 3.513681 0.019461 0.342552
v 3.479110 2.542539 0.364274
v 3.555817 2.484746 0.523557
v 3.627789 2.390378 0.673009
v 3.692840 2.262303 0.808088
v 3.748993 2.104411 0.924691
v 3.794542 1.921500 1.019275
v 3.828103 1.719128 1.088965
v 3.848657 1.503443 1.131645
v 3.855578 1.281000 1.146017
v 3.848657 1.058557 1.131645
v 3.828103 0.842872 1.088965
v 3.794542 0.640500 1.019275
v 3.748993 0.457589 0.924691
v 3.692840 0.299697 0.808088
v 3.627789 0.171621 0.673009
v 3.555817 0.077254 0.523557
v 3.479110 0.019461 0.364274
v 3.440573 2.542539 0.377759
v 3.479912 2.484746 0.550117
v 3.516824 2.390378 0.711837
v 3.550186 2.262303 0.858005
v 3.578984 2.104411 0.984180
v 3.602344 1.921500 1.086528
v 3.619556 1.719128 1.161939
v 3.630097 1.503443 1.208122
v 3.633647 1.281000 1.223674
v 3.630097 1.058557 1.208122
v 3.619556 0.842872 1.161939
v 3.602344 0.640500 1.086528
v 3.578984 0.457589 0.984180
v 3.550186 0.299697 0.858005
v 3.516824 0.171621 0.711837
v 3.479912 0.077254 0.550117
v 3.440573 0.019461 0.377759
v 3.400000 2.542539 0.382331
v 3.400000 2.484746 0.559121
v 3.400000 2.390378 0.725000
v 3.400000 2.262303 0.874927
v 3.400000 2.104411 1.004347
v 3.400000 1.921500 1.109326
v 3.400000 1.719128 1.186677
v 3.400000 1.503443 1.234048
v 3.400000 1.281000 1.250000
v 3.400000 1.058557 1.234048
v 3.400000 0.842872 1.186677
v 3.400000 0.640500 1.109326
v 3.400000 0.457589 1.004347
v 3.400000 0.299697 0.874927
v 3.400000 0.171621 0.725000
v 3.400000 0.077254 0.559121
v 3.400000 0.019461 0.382331
v 3.359428 2.542539 0.377759
v 3.320088 2.484746 0.550117
v 3.283177 2.390378 0.711837
v 3.249815 2.262303 0.858005
v 3.221016 2.104411 0.984180
v 3.197656 1.921500 1.086528
v 3.180444 1.719128 1.161939
v 3.169903 1.503443 1.208122
v 3.166353 1.281000 1.223674
v 3.169903 1.058557 1.208122
v 3.180444 0.842872 1.161939
v 3.197656 0.640500 1.086528
v 3.221016 0.457589 0.984180
v 3.249815 0.299697 0.858005
v 3.283177 0.171621 0.711837
v 3.320088 0.077254 0.550117
v 3.359428 0.019461 0.377759
v 3.320890 2.542539 0.364274
v 3.244183 2.484746 0.523557
v 3.172211 2.390378 0.673009
v 3.107160 2.262303 0.808088
v 3.051007 2.104411 0.924691
v 3.005458 1.921500 1.019275
v 2.971897 1.719128 1.088965
v 2.951344 1.503443 1.131645
v 2.944422 1.281000 1.146017
v 2.951344 1.058557 1.131645
v 2.971897 0.842872 1.088965
v 3.005458 0.640500 1.019275
v 3.051007 0.457589 0.924691
v 3.107160 0.299697 0.808088
v 3.172211 0.171621 0.673009
v 3.244183 0.077254 0.523557
v 3.320890 0.019461 0.364274
v 3.286319 2.542539 0.342552
v 3.176092 2.484746 0.480772
v 3.072668 2.390378 0.610461
v 2.979190 2.262303 0.727679
v 2.898498 2.104411 0.828864
v 2.833044 1.921500 0.910940
v 2.784817 1.719128 0.971415
v 2.755282 1.503443 1.008451
v 2.745336 1.281000 1.020923
v 2.755282 1.058557 1.008451
v 2.784817 0.842872 0.971415
v 2.833044 0.640500 0.910940
v 2.898498 0.457589 0.828864
v 2.979190 0.299697 0.727679
v 3.072668 0.171621 0.610461
v 3.176092 0.077254 0.480772
v 3.286319 0.019461 0.342552
v 3.257448 2.542539 0.313681
v 3.119228 2.484746 0.423908
v 2.989539 2.390378 0.527332
v 2.872321 2.262303 0.620810
v 2.771137 2.104411 0.701502
v 2.689060 1.921500 0.766956
v 2.628585 1.719128 0.815183
v 2.591549 1.503443 0.844718
v 2.579077 1.281000 0.854664
v 2.591549 1.058557 0.844718
v 2.628585 0.842872 0.815183
v 2.689060 0.640500 0.766956
v 2.771137 0.457589 0.701502
v 2.872321 0.299697 0.620810
v 2.989539 0.171621 0.527332
v 3.119228 0.077254 0.423908
v 3.257448 0.019461 0.313681
v 3.235726 2.542539 0.279110
v 3.076443 2.484746 0.355817
v 2.926991 2.390378 0.427789
v 2.791912 2.262303 0.492840
v 2.675309 2.104411 0.548993
v 2.580725 1.921500 0.594542
v 2.511035 1.719128 0.628103
v 2.468355 1.503443 0.648657
v 2.453983 1.281000 0.655578
v 2.468355 1.058557 0.648657
v 2.511035 0.842872 0.628103
v 2.580725 0.640500 0.594542
v 2.675309 0.457589 0.548993
v 2.791912 0.299697 0.492840
v 2.926991 0.171621 0.427789
v 3.076443 0.077254 0.355817
v 3.235726 0.019461 0.279110
v 3.222241 2.542539 0.240572
v 3.049883 2.484746 0.279912
v 2.888163 2.390378 0.316823
v 2.741995 2.262303 0.350186
v 2.615820 2.104411 0.378984
v 2.513472 1.921500 0.402344
v 2.438061 1.719128 0.419556
v 2.391878 1.503443 0.430097
v 2.376326 1.281000 0.433647
v 2.391878 1.058557 0.430097
v 2.438061 0.842872 0.419556
v 2.513472 0.640500 0.402344
v 2.615820 0.457589 0.378984
v 2.741995 0.299697 0.350186
v 2.888163 0.171621 0.316823
v 3.049883 0.077254 0.279912
v 3.222241 0.019461 0.240572
v 3.217669 2.542539 0.200000
v 3.040879 2.484746 0.200000
v 2.875000 2.390378 0.200000
v 2.725073 2.262303 0.200000
v 2.595654 2.104411 0.200000
v 2.490674 1.921500 0.200000
v 2.413323 1.719128 0.200000
v 2.365952 1.503443 0.200000
v 2.350000 1.281000 0.200000
v 2.365952 1.058557 0.200000
v 2.413323 0.842872 0.200000
v 2.490674 0.640500 0.200000
v 2.595654 0.457589 0.200000
v 2.725073 0.299697 0.200000
v 2.875000 0.171621 0.200000
v 3.040879 0.077254 0.200000
v 3.217669 0.019461 0.200000
v 3.222241 2.542539 0.159428
v 3.049883 2.484746 0.120088
v 2.888163 2.390378 0.083176
v 2.741995 2.262303 0.049815
v 2.615820 2.104411 0.021016
v 2.513473 1.921500 -0.002344
v 2.438061 1.719128 -0.019556
v 2.391878 1.503443 -0.030097
v 2.376326 1.281000 -0.033647
v 2.391878 1.058557 -0.030097
v 2.438061 0.842872 -0.019556
v 2.513473 0.640500 -0.002344
v 2.615820 0.457589 0.021016
v 2.741995 0.299697 0.049815
v 2.888163 0.171621 0.083176
v 3.049883 0.077254 0.120088
v 3.222241 0.019461 0.159428
v 3.235726 2.542539 0.120890
v 3.076443 2.484746 0.044183
v 2.926991 2.390378 -0.027789
v 2.791912 2.262303 -0.092840
v 2.675309 2.104411 -0.148993
v 2.580725 1.921500 -0.194542
v 2.511035 1.719128 -0.228103
v 2.468355 1.503443 -0.248657
v 2.453983 1.281000 -0.255578
v 2.468355 1.058557 -0.248657
v 2.511035 0.842872 -0.228103
v 2.580725 0.640500 -0.194542
v 2.675309 0.457589 -0.148993
v 2.791912 0.299697 -0.092840
v 2.926991 0.171621 -0.027789
v 3.076443 0.077254 0.044183
v 3.235726 0.019461 0.120890
v 3.257448 2.542539 0.086319
v 3.119228 2.484746 -0.023908
v 2.989539 2.390378 -0.127332
v 2.872321 2.262303 -0.220810
v 2.771137 2.104411 -0.301502
v 2.689060 1.921500 -0.366956
v 2.628585 1.719128 -0.415183
v 2.591549 1.503443 -0.444718
v 2.579077 1.281000 -0.454664
v 2.591549 1.058557 -0.444718
v 2.628585 0.842872 -0.415183
v 2.689060 0.640500 -0.366956
v 2.771137 0.457589 -0.301502
v 2.872321 0.299697 -0.220810
v 2.989539 0.171621 -0.127332
v 3.119228 0.077254 -0.023908
v 3.257448 0.019461 0.086319
v 3.286319 2.542539 0.057448
v 3.176092 2.484746 -0.080772
v 3.072668 2.390378 -0.210462
v 2.979190 2.262303 -0.327679
v 2.898498 2.104411 -0.428864
v 2.833045 1.921500 -0.510940
v 2.784817 1.719128 -0.571415
v 2.755282 1.503443 -0.608451
v 2.745336 1.281000 -0.620923
v 2.755282 1.058557 -0.608451
v 2.784817 0.842872 -0.571415
v 2.833045 0.640500 -0.510940
v 2.898498 0.457589 -0.428864
v 2.979190 0.299697 -0.327679
v 3.072668 0.171621 -0.210462
v 3.176092 0.077254 -0.080772
v 3.286319 0.019461 0.057448
v 3.320890 2.542539 0.035726
v 3.244183 2.484746 -0.123557
v 3.172211 2.390378 -0.273009
v 3.107160 2.262303 -0.408088
v 3.051007 2.104411 -0.524691
v 3.005458 1.921500 -0.619275
v 2.971897 1.719128 -0.688965
v 2.951344 1.503443 -0.731645
v 2.944422 1.281000 -0.746017
v 2.951344 1.058557 -0.731645
v 2.971897 0.842872 -0.688965
v 3.005458 0.640500 -0.619275
v 3.051007 0.457589 -0.524691
v 3.107160 0.299697 -0.408088
v 3.172211 0.171621 -0.273009
v 3.244183 0.077254 -0.123557
v 3.320890 0.019461 0.035726
v 3.359428 2.542539 0.022241
v 3.320088 2.484746 -0.150117
v 3.283177 2.390378 -0.311837
v 3.249815 2.262303 -0.458005
v 3.221016 2.104411 -0.584180
v 3.197656 1.921500 -0.686528
v 3.180444 1.719128 -0.761939
v 3.169903 1.503443 -0.808122
v 3.166353 1.281000 -0.823674
v 3.169903 1.058557 -0.808122
v 3.180444 0.842872 -0.761939
v 3.197656 0.640500 -0.686528
v 3.221016 0.457589 -0.584180
v 3.249815 0.299697 -0.458005
v 3.283177 0.171621 -0.311837
v 3.320088 0.077254 -0.150117
v 3.359428 0.019461 0.022241
v 3.400000 2.542539 0.017669
v 3.400000 2.484746 -0.159121
v 3.400000 2.390378 -0.325000
v 3.400000 2.262303 -0.474927
v 3.400000 2.104411 -0.604347
v 3.400000 0.842872 -0.786677
v 3.400000 0.299697 -0.474927
v 3.400000 0.171621 -0.325000
v 3.400000 0.019461 0.017669
v 3.400000 2.711000 0.200000
v 3.400000 2.657525 0.035420
v 3.400000 2.595580 -0.026525
v 3.400000 2.431000 -0.080000
v 3.400000 2.344475 -0.066296
v 3.400000 2.266420 -0.026525
v 3.400000 2.204475 0.035420
v 3.400000 2.164704 0.113475
v 3.400000 2.151000 0.200000
v 3.433112 2.697296 0.120062
v 3.462982 2.657525 0.047948
v 3.486687 2.595580 -0.009282
v 3.501907 2.517524 -0.046025
v 3.507151 2.431000 -0.058686
v 3.501907 2.344475 -0.046025
v 3.486687 2.266420 -0.009282
v 3.462982 2.204475 0.047948
v 3.433112 2.164704 0.120062
v 3.461182 2.697296 0.138818
v 3.516376 2.657525 0.083624
v 3.560177 2.595580 0.039823
v 3.588300 2.517524 0.011700
v 3.597990 2.431000 0.002010
v 3.588300 2.344475 0.011700
v 3.560177 2.266420 0.039823
v 3.516376 2.204475 0.083624
v 3.461182 2.164704 0.138818
v 3.479939 2.697296 0.166888
v 3.552052 2.657525 0.137018
v 3.609282 2.595580 0.113313
v 3.646025 2.517524 0.098093
v 3.658686 2.431000 0.092849
v 3.646025 2.344475 0.098093
v 3.609282 2.266420 0.113313
v 3.552052 2.204475 0.137018
v 3.479939 2.164704 0.166888
v 3.486525 2.697296 0.200000
v 3.564580 2.657525 0.200000
v 3.626525 2.595580 0.200000
v 3.666296 2.517524 0.200000
v 3.680000 2.431000 0.200000
v 3.666296 2.344475 0.200000
v 3.626525 2.266420 0.200000
v 3.564580 2.204475 0.200000
v 3.486525 2.164704 0.200000
v 3.479939 2.697296 0.233112
v 3.552052 2.657525 0.262982
v 3.609282 2.595580 0.286687
v 3.646025 2.517524 0.301907
v 3.658686 2.431000 0.307151
v 3.646025 2.344475 0.301907
v 3.609282 2.266420 0.286687
v 3.552052 2.204475 0.262982
v 3.479939 2.164704 0.233112
v 3.461182 2.697296 0.261182
v 3.516376 2.657525 0.316376
v 3.560177 2.595580 0.360177
v 3.588300 2.517524 0.388300
v 3.597990 2.431000 0.397990
v 3.588300 2.344475 0.388300
v 3.560177 2.266420 0.360177
v 3.516376 2.204475 0.316376
v 3.461182 2.164704 0.261182
v 3.433112 2.697296 0.279938
v 3.462982 2.657525 0.352052
v 3.486687 2.595580 0.409282
v 3.501907 2.517524 0.446025
v 3.507151 2.431000 0.458686
v 3.501907 2.344475 0.446025
v 3.486687 2.266420 0.409282
v 3.462982 2.204475 0.352052
v 3.433112 2.164704 0.279938
v 3.400000 2.697296 0.286525
v 3.400000 2.657525 0.364580
v 3.400000 2.595580 0.426525
v 3.400000 2.517524 0.466296
v 3.400000 2.431000 0.480000
v 3.400000 2.344475 0.466296
v 3.400000 2.266420 0.426525
v 3.400000 2.204475 0.364580
v 3.400000 2.164704 0.286525
v 3.366889 2.697296 0.279938
v 3.337018 2.657525 0.352052
v 3.313313 2.595580 0.409281
v 3.298093 2.517524 0.446025
v 3.292849 2.431000 0.458686
v 3.298093 2.344475 0.446025
v 3.313313 2.266420 0.409281
v 3.337018 2.204475 0.352052
v 3.366889 2.164704 0.279938
v 3.338818 2.697296 0.261182
v 3.283624 2.657525 0.316376
v 3.239823 2.595580 0.360177
v 3.211700 2.517524 0.388299
v 3.202010 2.431000 0.397990
v 3.211700 2.344475 0.388299
v 3.239823 2.266420 0.360177
v 3.283624 2.204475 0.316376
v 3.338818 2.164704 0.261182
v 3.320062 2.697296 0.233112
v 3.247948 2.657525 0.262982
v 3.190719 2.595580 0.286687
v 3.153975 2.517524 0.301907
v 3.141314 2.431000 0.307151
v 3.153975 2.344475 0.301907
v 3.190719 2.266420 0.286687
v 3.247948 2.204475 0.262982
v 3.320062 2.164704 0.233112
v 3.313475 2.697296 0.200000
v 3.235420 2.657525 0.200000
v 3.173476 2.595580 0.200000
v 3.133704 2.517524 0.200000
v 3.120000 2.431000 0.200000
v 3.133704 2.344475 0.200000
v 3.173476 2.266420 0.200000
v 3.235420 2.204475 0.200000
v 3.313475 2.164704 0.200000
v 3.320062 2.697296 0.166888
v 3.247948 2.657525 0.137018
v 3.190719 2.595580 0.113313
v 3.153975 2.517524 0.098093
v 3.141314 2.431000 0.092849
v 3.153975 2.344475 0.098093
v 3.190719 2.266420 0.113313
v 3.247948 2.204475 0.137018
v 3.320062 2.164704 0.166888
v 3.338818 2.697296 0.138818
v 3.283625 2.657525 0.083624
v 3.239823 2.595580 0.039823
v 3.211701 2.517524 0.011700
v 3.202010 2.431000 0.002010
v 3.211701 2.344475 0.011700
v 3.239823 2.266420 0.039823
v 3.283625 2.204475 0.083624
v 3.338818 2.164704 0.138818
v 3.366889 2.697296 0.120062
v 3.337018 2.657525 0.047948
v 3.313313 2.595580 -0.009282
v 3.298093 2.517524 -0.046025
v 3.292849 2.431000 -0.058686
v 3.298093 2.344475 -0.046025
v 3.313313 2.266420 -0.009282
v 3.337018 2.204475 0.047948
v 3.366889 2.164704 0.120062
v 3.400000 2.697296 0.113475
v 3.400000 2.517524 -0.066296
v 3.400000 1.111000 -0.629741
v 3.400000 1.141000 -0.660000
v 3.400000 1.119787 -0.651137
v 3.400000 1.251000 -0.629741
v 3.400000 1.221000 -0.660000
v 3.400000 1.242213 -0.651137
v 3.614753 1.111000 -0.601468
v 3.622585 1.141000 -0.630696
v 3.620291 1.119787 -0.622136
v 3.614753 1.251000 -0.601468
v 3.622585 1.221000 -0.630696
v 3.620291 1.242213 -0.622136
v 3.814871 1.111000 -0.518577
v 3.830000 1.141000 -0.544782
v 3.825569 1.119787 -0.537107
v 3.814871 1.251000 -0.518577
v 3.830000 1.221000 -0.544782
v 3.825569 1.242213 -0.537107
v 3.986716 1.111000 -0.386716
v 4.008112 1.141000 -0.408112
v 4.001845 1.119787 -0.401845
v 3.986716 1.251000 -0.386716
v 4.008112 1.221000 -0.408112
v 4.001845 1.242213 -0.401845
v 4.118577 1.111000 -0.214871
v 4.144782 1.141000 -0.230000
v 4.137107 1.119787 -0.225569
v 4.118577 1.251000 -0.214871
v 4.144782 1.221000 -0.230000
v 4.137107 1.242213 -0.225569
v 4.201468 1.111000 -0.014753
v 4.230696 1.141000 -0.022584
v 4.222136 1.119787 -0.020291
v 4.201468 1.251000 -0.014753
v 4.230696 1.221000 -0.022584
v 4.222136 1.242213 -0.020291
v 4.229741 1.111000 0.200000
v 4.260000 1.141000 0.200000
v 4.251137 1.119787 0.200000
v 4.229741 1.251000 0.200000
v 4.260000 1.221000 0.200000
v 4.251137 1.242213 0.200000
v 4.201468 1.111000 0.414753
v 4.230696 1.141000 0.422584
v 4.222136 1.119787 0.420291
v 4.201468 1.251000 0.414753
v 4.230696 1.221000 0.422584
v 4.222136 1.242213 0.420291
v 4.118577 1.111000 0.614871
v 4.144782 1.141000 0.630000
v 4.137107 1.119787 0.625569
v 4.118577 1.251000 0.614871
v 4.144782 1.221000 0.630000
v 4.137107 1.242213 0.625569
v 3.986716 1.111000 0.786716
v 4.008112 1.141000 0.808112
v 4.001845 1.119787 0.801845
v 3.986716 1.251000 0.786716
v 4.008112 1.221000 0.808112
v 4.001845 1.242213 0.801845
v 3.814871 1.111000 0.918577
v 3.830000 1.141000 0.944782
v 3.825569 1.119787 0.937107
v 3.814871 1.251000 0.918577
v 3.830000 1.221000 0.944782
v 3.825569 1.242213 0.937107
v 3.614753 1.111000 1.001468
v 3.622585 1.141000 1.030696
v 3.620291 1.119787 1.022136
v 3.614753 1.251000 1.001468
v 3.622585 1.221000 1.030696
v 3.620291 1.242213 1.022136
v 3.400000 1.111000 1.029741
v 3.400000 1.141000 1.060000
v 3.400000 1.119787 1.051137
v 3.400000 1.251000 1.029741
v 3.400000 1.221000 1.060000
v 3.400000 1.242213 1.051137
v 3.185247 1.111000 1.001468
v 3.177416 1.141000 1.030696
v 3.179709 1.119787 1.022136
v 3.185247 1.251000 1.001468
v 3.177416 1.221000 1.030696
v 3.179709 1.242213 1.022136
v 2.985129 1.111000 0.918577
v 2.970000 1.141000 0.944782
v 2.974432 1.119787 0.937107
v 2.985129 1.251000 0.918577
v 2.970000 1.221000 0.944782
v 2.974432 1.242213 0.937107
v 2.813284 1.111000 0.786716
v 2.791888 1.141000 0.808112
v 2.798155 1.119787 0.801845
v 2.813284 1.251000 0.786716
v 2.791888 1.221000 0.808112
v 2.798155 1.242213 0.801845
v 2.681423 1.111000 0.614871
v 2.655218 1.141000 0.630000
v 2.662894 1.119787 0.625569
v 2.681423 1.251000 0.614871
v 2.655218 1.221000 0.630000
v 2.662894 1.242213 0.625569
v 2.598532 1.111000 0.414753
v 2.569304 1.141000 0.422584
v 2.577865 1.119787 0.420291
v 2.598532 1.251000 0.414753
v 2.569304 1.221000 0.422584
v 2.577865 1.242213 0.420291
v 2.570259 1.111000 0.200000
v 2.540000 1.141000 0.200000
v 2.548863 1.119787 0.200000
v 2.570259 1.251000 0.200000
v 2.540000 1.221000 0.200000
v 2.548863 1.242213 0.200000
v 2.598532 1.111000 -0.014753
v 2.569304 1.141000 -0.022584
v 2.577865 1.119787 -0.020291
v 2.598532 1.251000 -0.014753
v 2.569304 1.221000 -0.022584
v 2.577865 1.242213 -0.020291
v 2.681423 1.111000 -0.214871
v 2.655218 1.141000 -0.230000
v 2.662894 1.119787 -0.225569
v 2.681423 1.251000 -0.214871
v 2.655218 1.221000 -0.230000
v 2.662894 1.242213 -0.225569
v 2.813284 1.111000 -0.386716
v 2.791888 1.141000 -0.408112
v 2.798155 1.119787 -0.401845
v 2.813284 1.251000 -0.386716
v 2.791888 1.221000 -0.408112
v 2.798155 1.242213 -0.401845
v 2.985129 1.111000 -0.518577
v 2.970000 1.141000 -0.544782
v 2.974432 1.119787 -0.537107
v 2.985129 1.251000 -0.518577
v 2.970000 1.221000 -0.544782
v 2.974432 1.242213 -0.537107
v 3.185247 1.111000 -0.601468
v 3.177416 1.141000 -0.630696
v 3.179709 1.119787 -0.622136
v 3.185247 1.251000 -0.601468
v 3.177416 1.221000 -0.630696
v 3.179709 1.242213 -0.622136
vn -0.0000 1.0000 -0.0000
vn -0.0000 0.4266 -0.9045
vn -0.0000 0.2851 -0.9585
vn -0.0000 0.1427 -0.9898
vn -0.0000 -0.0000 -1.0000
vn -0.0000 -0.1427 -0.9898
vn -0.0000 -0.4266 -0.9045
vn -0.0000 -0.5651 -0.8250
vn -0.0000 -0.9118 -0.4106
vn -0.0000 -1.0000 -0.0000
vn 0.0482 0.9762 -0.2113
vn 0.0914 0.9118 -0.4003
vn 0.1289 0.8153 -0.5646
vn 0.1596 0.6967 -0.6993
vn 0.1836 0.5651 -0.8044
vn 0.2013 0.4266 -0.8818
vn 0.2133 0.2851 -0.9345
vn 0.2202 0.1427 -0.9650
vn 0.2225 -0.0000 -0.9749
vn 0.2202 -0.1427 -0.9650
vn 0.2133 -0.2851 -0.9345
vn 0.2013 -0.4266 -0.8818
vn 0.1836 -0.5651 -0.8044
vn 0.1596 -0.6967 -0.6993
vn 0.1289 -0.8153 -0.5646
vn 0.0914 -0.9118 -0.4003
vn 0.0482 -0.9762 -0.2113
vn 0.0940 0.9762 -0.1952
vn 0.1782 0.9118 -0.3699
vn 0.2513 0.8153 -0.5217
vn 0.3112 0.6967 -0.6463
vn 0.3580 0.5651 -0.7433
vn 0.3924 0.4266 -0.8149
vn 0.4159 0.2851 -0.8636
vn 0.4294 0.1427 -0.8918
vn 0.4339 -0.0000 -0.9010
vn 0.4294 -0.1427 -0.8918
vn 0.4159 -0.2851 -0.8636
vn 0.3924 -0.4266 -0.8149
vn 0.3580 -0.5651 -0.7433
vn 0.3112 -0.6967 -0.6463
vn 0.2513 -0.8153 -0.5217
vn 0.1782 -0.9118 -0.3699
vn 0.0940 -0.9762 -0.1952
vn 0.1351 0.9762 -0.1694
vn 0.2560 0.9118 -0.3210
vn 0.3610 0.8153 -0.4527
vn 0.4472 0.6967 -0.5608
vn 0.5144 0.5651 -0.6450
vn 0.5639 0.4266 -0.7071
vn 0.5976 0.2851 -0.7494
vn 0.6171 0.1427 -0.7738
vn 0.6235 -0.0000 -0.7818
vn 0.6171 -0.1427 -0.7738
vn 0.5976 -0.2851 -0.7494
vn 0.5639 -0.4266 -0.7071
vn 0.5144 -0.5651 -0.6450
vn 0.4472 -0.6967 -0.5608
vn 0.3610 -0.8153 -0.4527
vn 0.2560 -0.9118 -0.3210
vn 0.1351 -0.9762 -0.1694
vn 0.1694 0.9762 -0.1351
vn 0.3210 0.9118 -0.2560
vn 0.4527 0.8153 -0.3610
vn 0.5608 0.6967 -0.4472
vn 0.6450 0.5651 -0.5144
vn 0.7071 0.4266 -0.5639
vn 0.7494 0.2851 -0.5976
vn 0.7738 0.1427 -0.6171
vn 0.7818 -0.0000 -0.6235
vn 0.7738 -0.1427 -0.6171
vn 0.7494 -0.2851 -0.5976
vn 0.7071 -0.4266 -0.5639
vn 0.6450 -0.5651 -0.5144
vn 0.5608 -0.6967 -0.4472
vn 0.4527 -0.8153 -0.3610
vn 0.3210 -0.9118 -0.2560
vn 0.1694 -0.9762 -0.1351
vn 0.1952 0.9762 -0.0940
vn 0.3699 0.9118 -0.1782
vn 0.5217 0.8153 -0.2513
vn 0.6463 0.6967 -0.3112
vn 0.7433 0.5651 -0.3580
vn 0.8149 0.4266 -0.3924
vn 0.8636 0.2851 -0.4159
vn 0.8918 0.1427 -0.4294
vn 0.9010 -0.0000 -0.4339
vn 0.8918 -0.1427 -0.4294
vn 0.8636 -0.2851 -0.4159
vn 0.8149 -0.4266 -0.3924
vn 0.7433 -0.5651 -0.3580
vn 0.6463 -0.6967 -0.3112
vn 0.5217 -0.8153 -0.2513
vn 0.3699 -0.9118 -0.1782
vn 0.1952 -0.9762 -0.0940
vn 0.2113 0.9762 -0.0482
vn 0.4003 0.9118 -0.0914
vn 0.5646 0.8153 -0.1289
vn 0.6993 0.6967 -0.1596
vn 0.8044 0.5651 -0.1836
vn 0.8818 0.4266 -0.2013
vn 0.9345 0.2851 -0.2133
vn 0.9650 0.1427 -0.2202
vn 0.9749 -0.0000 -0.2225
vn 0.9650 -0.1427 -0.2202
vn 0.9345 -0.2851 -0.2133
vn 0.8818 -0.4266 -0.2013
vn 0.8044 -0.5651 -0.1836
vn 0.6993 -0.6967 -0.1596
vn 0.5646 -0.8153 -0.1289
vn 0.4003 -0.9118 -0.0914
vn 0.2113 -0.9762 -0.0482
vn 0.2167 0.9762 -0.0000
vn 0.4106 0.9118 -0.0000
vn 0.5791 0.8153 -0.0000
vn 0.7173 0.6967 -0.0000
vn 0.8250 0.5651 -0.0000
vn 0.9045 0.4266 -0.0000
vn 0.9585 0.2851 -0.0000
vn 0.9898 0.1427 -0.0000
vn 1.0000 -0.0000 -0.0000
vn 0.9898 -0.1427 -0.0000
vn 0.9585 -0.2851 -0.0000
vn 0.9045 -0.4266 -0.0000
vn 0.8250 -0.5651 -0.0000
vn 0.7173 -0.6967 -0.0000
vn 0.5791 -0.8153 -0.0000
vn 0.4106 -0.9118 -0.0000
vn 0.2167 -0.9762 -0.0000
vn 0.2113 0.9762 0.0482
vn 0.4003 0.9118 0.0914
vn 0.5646 0.8153 0.1289
vn 0.6993 0.6967 0.1596
vn 0.8044 0.5651 0.1836
vn 0.8818 0.4266 0.2013
vn 0.9345 0.2851 0.2133
vn 0.9650 0.1427 0.2202
vn 0.9749 -0.0000 0.2225
vn 0.9650 -0.1427 0.2202
vn 0.9345 -0.2851 0.2133
vn 0.8818 -0.4266 0.2013
vn 0.8044 -0.5651 0.1836
vn 0.6993 -0.6967 0.1596
vn 0.5646 -0.8153 0.1289
vn 0.4003 -0.9118 0.0914
vn 0.2113 -0.9762 0.0482
vn 0.1952 0.9762 0.0940
vn 0.3699 0.9118 0.1782
vn 0.5217 0.8153 0.2513
vn 0.6463 0.6967 0.3112
vn 0.7433 0.5651 0.3580
vn 0.8149 0.4266 0.3924
vn 0.8636 0.2851 0.4159
vn 0.8918 0.1427 0.4294
vn 0.9010 -0.0000 0.4339
vn 0.8918 -0.1427 0.4294
vn 0.8636 -0.2851 0.4159
vn 0.8149 -0.4266 0.3924
vn 0.7433 -0.5651 0.3580
vn 0.6463 -0.6967 0.3112
vn 0.5217 -0.8153 0.2513
vn 0.3699 -0.9118 0.1782
vn 0.1952 -0.9762 0.0940
vn 0.1694 0.9762 0.1351
vn 0.3210 0.9118 0.2560
vn 0.4527 0.8153 0.3610
vn 0.5608 0.6967 0.4472
vn 0.6450 0.5651 0.5144
vn 0.7071 0.4266 0.5639
vn 0.7494 0.2851 0.5976
vn 0.7738 0.1427 0.6171
vn 0.7818 -0.0000 0.6235
vn 0.7738 -0.1427 0.6171
vn 0.7494 -0.2851 0.5976
vn 0.7071 -0.4266 0.5639
vn 0.6450 -0.5651 0.5144
vn 0.5608 -0.6967 0.4472
vn 0.4527 -0.8153 0.3610
vn 0.3210 -0.9118 0.2560
vn 0.1694 -0.9762 0.1351
vn 0.1351 0.9762 0.1694
vn 0.2560 0.9118 0.3210
vn 0.3610 0.8153 0.4527
vn 0.4472 0.6967 0.5608
vn 0.5144 0.5651 0.6450
vn 0.5639 0.4266 0.7071
vn 0.5976 0.2851 0.7494
vn 0.6171 0.1427 0.7738
vn 0.6235 -0.0000 0.7818
vn 0.6171 -0.1427 0.7738
vn 0.5976 -0.2851 0.7494
vn 0.5639 -0.4266 0.7071
vn 0.5144 -0.5651 0.6450
vn 0.4472 -0.6967 0.5608
vn 0.3610 -0.8153 0.4527
vn 0.2560 -0.9118 0.3210
vn 0.1351 -0.9762 0.1694
vn 0.0940 0.9762 0.1952
vn 0.1782 0.9118 0.3699
vn 0.2513 0.8153 0.5217
vn 0.3112 0.6967 0.6463
vn 0.3580 0.5651 0.7433
vn 0.3924 0.4266 0.8149
vn 0.4159 0.2851 0.8636
vn 0.4294 0.1427 0.8918
vn 0.4339 -0.0000 0.9010
vn 0.4294 -0.1427 0.8918
vn 0.4159 -0.2851 0.8636
vn 0.3924 -0.4266 0.8149
vn 0.3580 -0.5651 0.7433
vn 0.3112 -0.6967 0.6463
vn 0.2513 -0.8153 0.5217
vn 0.1782 -0.9118 0.3699
vn 0.0940 -0.9762 0.1952
vn 0.0482 0.9762 0.2113
vn 0.0914 0.9118 0.4003
vn 0.1289 0.8153 0.5646
vn 0.1596 0.6967 0.6993
vn 0.1836 0.5651 0.8044
vn 0.2013 0.4266 0.8818
vn 0.2133 0.2851 0.9345
vn 0.2202 0.1427 0.9650
vn 0.2225 -0.0000 0.9749
vn 0.2202 -0.1427 0.9650
vn 0.2133 -0.2851 0.9345
vn 0.2013 -0.4266 0.8818
vn 0.1836 -0.5651 0.8044
vn 0.1596 -0.6967 0.6993
vn 0.1289 -0.8153 0.5646
vn 0.0914 -0.9118 0.4003
vn 0.0482 -0.9762 0.2113
vn -0.0000 0.9762 0.2167
vn -0.0000 0.9118 0.4106
vn -0.0000 0.8153 0.5791
vn -0.0000 0.6967 0.7173
vn -0.0000 0.5651 0.8250
vn -0.0000 0.4266 0.9045
vn -0.0000 0.2851 0.9585
vn -0.0000 0.1427 0.9898
vn -0.0000 -0.0000 1.0000
vn -0.0000 -0.1427 0.9898
vn -0.0000 -0.2851 0.9585
vn -0.0000 -0.4266 0.9045
vn -0.0000 -0.5651 0.8250
vn -0.0000 -0.6967 0.7173
vn -0.0000 -0.8153 0.5791
vn -0.0000 -0.9118 0.4106
vn -0.0000 -0.9762 0.2167
vn -0.0482 0.9762 0.2113
vn -0.0914 0.9118 0.4003
vn -0.1289 0.8153 0.5646
vn -0.1596 0.6967 0.6993
vn -0.1836 0.5651 0.8044
vn -0.2013 0.4266 0.8818
vn -0.2133 0.2851 0.9345
vn -0.2202 0.1427 0.9650
vn -0.2225 -0.0000 0.9749
vn -0.2202 -0.1427 0.9650
vn -0.2133 -0.2851 0.9345
vn -0.2013 -0.4266 0.8818
vn -0.1836 -0.5651 0.8044
vn -0.1596 -0.6967 0.6993
vn -0.1289 -0.8153 0.5646
vn -0.0914 -0.9118 0.4003
vn -0.0482 -0.9762 0.2113
vn -0.0940 0.9762 0.1952
vn -0.1782 0.9118 0.3699
vn -0.2513 0.8153 0.5217
vn -0.3112 0.6967 0.6463
vn -0.3580 0.5651 0.7433
vn -0.3924 0.4266 0.8149
vn -0.4159 0.2851 0.8636
vn -0.4294 0.1427 0.8918
vn -0.4339 -0.0000 0.9010
vn -0.4294 -0.1427 0.8918
vn -0.4159 -0.2851 0.8636
vn -0.3924 -0.4266 0.8149
vn -0.3580 -0.5651 0.7433
vn -0.3112 -0.6967 0.6463
vn -0.2513 -0.8153 0.5217
vn -0.1782 -0.9118 0.3699
vn -0.0940 -0.9762 0.1952
vn -0.1351 0.9762 0.1694
vn -0.2560 0.9118 0.3210
vn -0.3610 0.8153 0.4527
vn -0.4472 0.6967 0.5608
vn -0.5144 0.5651 0.6451
vn -0.5639 0.4266 0.7071
vn -0.5976 0.2851 0.7494
vn -0.6171 0.1427 0.7738
vn -0.6235 -0.0000 0.7818
vn -0.6171 -0.1427 0.7738
vn -0.5976 -0.2851 0.7494
vn -0.5639 -0.4266 0.7071
vn -0.5144 -0.5651 0.6451
vn -0.4472 -0.6967 0.5608
vn -0.3610 -0.8153 0.4527
vn -0.2560 -0.9118 0.3210
vn -0.1351 -0.9762 0.1694
vn -0.1694 0.9762 0.1351
vn -0.3210 0.9118 0.2560
vn -0.4527 0.8153 0.3610
vn -0.5608 0.6967 0.4472
vn -0.6451 0.5651 0.5144
vn -0.7071 0.4266 0.5639
vn -0.7494 0.2851 0.5976
vn -0.7738 0.1427 0.6171
vn -0.7818 -0.0000 0.6235
vn -0.7738 -0.1427 0.6171
vn -0.7494 -0.2851 0.5976
vn -0.7071 -0.4266 0.5639
vn -0.6451 -0.5651 0.5144
vn -0.5608 -0.6967 0.4472
vn -0.4527 -0.8153 0.3610
vn -0.3210 -0.9118 0.2560
vn -0.1694 -0.9762 0.1351
vn -0.1952 0.9762 0.0940
vn -0.3699 0.9118 0.1782
vn -0.5217 0.8153 0.2513
vn -0.6463 0.6967 0.3112
vn -0.7433 0.5651 0.3580
vn -0.8149 0.4266 0.3924
vn -0.8636 0.2851 0.4159
vn -0.8918 0.1427 0.4294
vn -0.9010 -0.0000 0.4339
vn -0.8918 -0.1427 0.4294
vn -0.8636 -0.2851 0.4159
vn -0.8149 -0.4266 0.3924
vn -0.7433 -0.5651 0.3580
vn -0.6463 -0.6967 0.3112
vn -0.5217 -0.8153 0.2513
vn -0.3699 -0.9118 0.1782
vn -0.1952 -0.9762 0.0940
vn -0.2113 0.9762 0.0482
vn -0.4003 0.9118 0.0914
vn -0.5646 0.8153 0.1289
vn -0.6993 0.6967 0.1596
vn -0.8044 0.5651 0.1836
vn -0.8818 0.4266 0.2013
vn -0.9345 0.2851 0.2133
vn -0.9650 0.1427 0.2202
vn -0.9749 -0.0000 0.2225
vn -0.9650 -0.1427 0.2202
vn -0.9345 -0.2851 0.2133
vn -0.8818 -0.4266 0.2013
vn -0.8044 -0.5651 0.1836
vn -0.6993 -0.6967 0.1596
vn -0.5646 -0.8153 0.1289
vn -0.4003 -0.9118 0.0914
vn -0.2113 -0.9762 0.0482
vn -0.2167 0.9762 -0.0000
vn -0.4106 0.9118 -0.0000
vn -0.5791 0.8153 -0.0000
vn -0.7173 0.6967 -0.0000
vn -0.8251 0.5651 -0.0000
vn -0.9045 0.4266 -0.0000
vn -0.9585 0.2851 -0.0000
vn -0.9898 0.1427 -0.0000
vn -1.0000 -0.0000 -0.0000
vn -0.9898 -0.1427 -0.0000
vn -0.9585 -0.2851 -0.0000
vn -0.9045 -0.4266 -0.0000
vn -0.8251 -0.5651 -0.0000
vn -0.7173 -0.6967 -0.0000
vn -0.5791 -0.8153 -0.0000
vn -0.4106 -0.9118 -0.0000
vn -0.2167 -0.9762 -0.0000
vn -0.2113 0.9762 -0.0482
vn -0.4003 0.9118 -0.0914
vn -0.5646 0.8153 -0.1289
vn -0.6993 0.6967 -0.1596
vn -0.8044 0.5651 -0.1836
vn -0.8818 0.4266 -0.2013
vn -0.9345 0.2851 -0.2133
vn -0.9650 0.1427 -0.2202
vn -0.9749 -0.0000 -0.2225
vn -0.9650 -0.1427 -0.2202
vn -0.9345 -0.2851 -0.2133
vn -0.8818 -0.4266 -0.2013
vn -0.8044 -0.5651 -0.1836
vn -0.6993 -0.6967 -0.1596
vn -0.5646 -0.8153 -0.1289
vn -0.4003 -0.9118 -0.0914
vn -0.2113 -0.9762 -0.0482
vn -0.1952 0.9762 -0.0940
vn -0.3699 0.9118 -0.1782
vn -0.5217 0.8153 -0.2513
vn -0.6463 0.6967 -0.3112
vn -0.7433 0.5651 -0.3580
vn -0.8149 0.4266 -0.3924
vn -0.8636 0.2851 -0.4159
vn -0.8918 0.1427 -0.4294
vn -0.9010 -0.0000 -0.4339
vn -0.8918 -0.1427 -0.4294
vn -0.8636 -0.2851 -0.4159
vn -0.8149 -0.4266 -0.3924
vn -0.7433 -0.5651 -0.3580
vn -0.6463 -0.6967 -0.3112
vn -0.5217 -0.8153 -0.2513
vn -0.3699 -0.9118 -0.1782
vn -0.1952 -0.9762 -0.0940
vn -0.1694 0.9762 -0.1351
vn -0.3210 0.9118 -0.2560
vn -0.4527 0.8153 -0.3610
vn -0.5608 0.6967 -0.4472
vn -0.6451 0.5651 -0.5144
vn -0.7071 0.4266 -0.5639
vn -0.7494 0.2851 -0.5976
vn -0.7738 0.1427 -0.6171
vn -0.7818 -0.0000 -0.6235
vn -0.7738 -0.1427 -0.6171
vn -0.7494 -0.2851 -0.5976
vn -0.7071 -0.4266 -0.5639
vn -0.6451 -0.5651 -0.5144
vn -0.5608 -0.6967 -0.4472
vn -0.4527 -0.8153 -0.3610
vn -0.3210 -0.9118 -0.2560
vn -0.1694 -0.9762 -0.1351
vn -0.1351 0.9762 -0.1694
vn -0.2560 0.9118 -0.3210
vn -0.3610 0.8153 -0.4527
vn -0.4472 0.6967 -0.5608
vn -0.5144 0.5651 -0.6451
vn -0.5639 0.4266 -0.7071
vn -0.5976 0.2851 -0.7494
vn -0.6171 0.1427 -0.7738
vn -0.6235 -0.0000 -0.7818
vn -0.6171 -0.1427 -0.7738
vn -0.5976 -0.2851 -0.7494
vn -0.5639 -0.4266 -0.7071
vn -0.5144 -0.5651 -0.6451
vn -0.4472 -0.6967 -0.5608
vn -0.3610 -0.8153 -0.4527
vn -0.2560 -0.9118 -0.3210
vn -0.1351 -0.9762 -0.1694
vn -0.0940 0.9762 -0.1952
vn -0.1782 0.9118 -0.3699
vn -0.2513 0.8153 -0.5217
vn -0.3112 0.6967 -0.6463
vn -0.3580 0.5651 -0.7433
vn -0.3924 0.4266 -0.8149
vn -0.4159 0.2851 -0.8636
vn -0.4294 0.1427 -0.8918
vn -0.4339 -0.0000 -0.9010
vn -0.4294 -0.1427 -0.8918
vn -0.4159 -0.2851 -0.8636
vn -0.3924 -0.4266 -0.8149
vn -0.3580 -0.5651 -0.7433
vn -0.3112 -0.6967 -0.6463
vn -0.2513 -0.8153 -0.5217
vn -0.1782 -0.9118 -0.3699
vn -0.0940 -0.9762 -0.1952
vn -0.0482 0.9762 -0.2113
vn -0.0914 0.9118 -0.4003
vn -0.1289 0.8153 -0.5646
vn -0.1596 0.6967 -0.6993
vn -0.1836 0.5651 -0.8044
vn -0.2013 0.4266 -0.8818
vn -0.2133 0.2851 -0.9345
vn -0.2202 0.1427 -0.9650
vn -0.2225 -0.0000 -0.9749
vn -0.2202 -0.1427 -0.9650
vn -0.2133 -0.2851 -0.9345
vn -0.2013 -0.4266 -0.8818
vn -0.1836 -0.5651 -0.8044
vn -0.1596 -0.6967 -0.6993
vn -0.1289 -0.8153 -0.5646
vn -0.0914 -0.9118 -0.4003
vn -0.0482 -0.9762 -0.2113
vn -0.0000 0.9762 -0.2167
vn -0.0000 0.9118 -0.4106
vn -0.0000 0.8153 -0.5791
vn -0.0000 0.6967 -0.7173
vn -0.0000 0.5651 -0.8251
vn -0.0000 -0.2851 -0.9585
vn -0.0000 -0.6967 -0.7173
vn -0.0000 -0.8153 -0.5791
vn -0.0000 -0.9762 -0.2167
vn -0.0000 0.7998 -0.6003
vn -0.0000 0.5787 -0.8155
vn -0.0000 -0.3035 -0.9528
vn -0.0000 -0.5787 -0.8155
vn -0.0000 -0.7998 -0.6003
vn -0.0000 -0.9452 -0.3265
vn 0.1249 0.9452 -0.3016
vn 0.2297 0.7998 -0.5546
vn 0.3121 0.5787 -0.7535
vn 0.3646 0.3035 -0.8803
vn 0.3827 -0.0000 -0.9239
vn 0.3646 -0.3035 -0.8803
vn 0.3121 -0.5787 -0.7535
vn 0.2297 -0.7998 -0.5546
vn 0.1249 -0.9452 -0.3016
vn 0.2309 0.9452 -0.2309
vn 0.4245 0.7998 -0.4245
vn 0.5767 0.5787 -0.5767
vn 0.6738 0.3035 -0.6738
vn 0.7071 -0.0000 -0.7071
vn 0.6738 -0.3035 -0.6738
vn 0.5767 -0.5787 -0.5767
vn 0.4245 -0.7998 -0.4245
vn 0.2309 -0.9452 -0.2309
vn 0.3016 0.9452 -0.1249
vn 0.5546 0.7998 -0.2297
vn 0.7535 0.5787 -0.3121
vn 0.8803 0.3035 -0.3646
vn 0.9239 -0.0000 -0.3827
vn 0.8803 -0.3035 -0.3646
vn 0.7535 -0.5787 -0.3121
vn 0.5546 -0.7998 -0.2297
vn 0.3016 -0.9452 -0.1249
vn 0.3265 0.9452 -0.0000
vn 0.6003 0.7998 -0.0000
vn 0.8155 0.5787 -0.0000
vn 0.9528 0.3035 -0.0000
vn 0.9528 -0.3035 -0.0000
vn 0.8155 -0.5787 -0.0000
vn 0.6003 -0.7998 -0.0000
vn 0.3265 -0.9452 -0.0000
vn 0.3016 0.9452 0.1249
vn 0.5546 0.7998 0.2297
vn 0.7535 0.5787 0.3121
vn 0.8803 0.3035 0.3646
vn 0.9239 -0.0000 0.3827
vn 0.8803 -0.3035 0.3646
vn 0.7535 -0.5787 0.3121
vn 0.5546 -0.7998 0.2297
vn 0.3016 -0.9452 0.1249
vn 0.2309 0.9452 0.2309
vn 0.4245 0.7998 0.4245
vn 0.5767 0.5787 0.5767
vn 0.6738 0.3035 0.6738
vn 0.7071 -0.0000 0.7071
vn 0.6738 -0.3035 0.6738
vn 0.5767 -0.5787 0.5767
vn 0.4245 -0.7998 0.4245
vn 0.2309 -0.9452 0.2309
vn 0.1249 0.9452 0.3016
vn 0.2297 0.7998 0.5546
vn 0.3121 0.5787 0.7535
vn 0.3646 0.3035 0.8803
vn 0.3827 -0.0000 0.9239
vn 0.3646 -0.3035 0.8803
vn 0.3121 -0.5787 0.7535
vn 0.2297 -0.7998 0.5546
vn 0.1249 -0.9452 0.3016
vn -0.0000 0.9452 0.3265
vn -0.0000 0.7998 0.6003
vn -0.0000 0.5787 0.8155
vn -0.0000 0.3035 0.9528
vn -0.0000 -0.3035 0.9528
vn -0.0000 -0.5787 0.8155
vn -0.0000 -0.7998 0.6003
vn -0.0000 -0.9452 0.3265
vn -0.1249 0.9452 0.3016
vn -0.2297 0.7998 0.5546
vn -0.3121 0.5787 0.7535
vn -0.3646 0.3035 0.8803
vn -0.3827 -0.0000 0.9239
vn -0.3646 -0.3035 0.8803
vn -0.3121 -0.5787 0.7535
vn -0.2297 -0.7998 0.5546
vn -0.1249 -0.9452 0.3016
vn -0.2309 0.9452 0.2309
vn -0.4245 0.7998 0.4245
vn -0.5767 0.5787 0.5767
vn -0.6738 0.3035 0.6738
vn -0.7071 -0.0000 0.7071
vn -0.6738 -0.3035 0.6738
vn -0.5767 -0.5787 0.5767
vn -0.4245 -0.7998 0.4245
vn -0.2309 -0.9452 0.2309
vn -0.3016 0.9452 0.1249
vn -0.5546 0.7998 0.2297
vn -0.7535 0.5787 0.3121
vn -0.8803 0.3035 0.3646
vn -0.9239 -0.0000 0.3827
vn -0.8803 -0.3035 0.3646
vn -0.7535 -0.5787 0.3121
vn -0.5546 -0.7998 0.2297
vn -0.3016 -0.9452 0.1249
vn -0.3265 0.9452 -0.0000
vn -0.6003 0.7998 -0.0000
vn -0.8155 0.5787 -0.0000
vn -0.9528 0.3035 -0.0000
vn -0.9528 -0.3035 -0.0000
vn -0.8155 -0.5787 -0.0000
vn -0.6003 -0.7998 -0.0000
vn -0.3265 -0.9452 -0.0000
vn -0.3016 0.9452 -0.1249
vn -0.5546 0.7998 -0.2297
vn -0.7535 0.5787 -0.3121
vn -0.8803 0.3035 -0.3646
vn -0.9239 -0.0000 -0.3827
vn -0.8803 -0.3035 -0.3646
vn -0.7535 -0.5787 -0.3121
vn -0.5546 -0.7998 -0.2297
vn -0.3016 -0.9452 -0.1249
vn -0.2309 0.9452 -0.2309
vn -0.4245 0.7998 -0.4245
vn -0.5767 0.5787 -0.5767
vn -0.6738 0.3035 -0.6738
vn -0.7071 -0.0000 -0.7071
vn -0.6738 -0.3035 -0.6738
vn -0.5767 -0.5787 -0.5767
vn -0.4245 -0.7998 -0.4245
vn -0.2309 -0.9452 -0.2309
vn -0.1249 0.9452 -0.3016
vn -0.2297 0.7998 -0.5546
vn -0.3121 0.5787 -0.7535
vn -0.3646 0.3035 -0.8803
vn -0.3827 -0.0000 -0.9239
vn -0.3646 -0.3035 -0.8803
vn -0.3121 -0.5787 -0.7535
vn -0.2297 -0.7998 -0.5546
vn -0.1249 -0.9452 -0.3016
vn -0.0000 0.9452 -0.3265
vn -0.0000 0.3035 -0.9528
vn -0.0000 -0.9779 -0.2090
vn -0.0000 -0.1935 -0.9811
vn -0.0000 -0.6937 -0.7203
vn -0.0000 0.9779 -0.2090
vn -0.0000 0.1935 -0.9811
vn -0.0000 0.6937 -0.7203
vn 0.0541 -0.9779 -0.2019
vn 0.2539 -0.1935 -0.9477
vn 0.1864 -0.6937 -0.6957
vn 0.0541 0.9779 -0.2019
vn 0.2539 0.1935 -0.9477
vn 0.1864 0.6937 -0.6957
vn 0.1045 -0.9779 -0.1810
vn 0.4905 -0.1935 -0.8497
vn 0.3601 -0.6937 -0.6238
vn 0.1045 0.9779 -0.1810
vn 0.4905 0.1935 -0.8497
vn 0.3601 0.6937 -0.6238
vn 0.1478 -0.9779 -0.1478
vn 0.6937 -0.1935 -0.6937
vn 0.5093 -0.6937 -0.5093
vn 0.1478 0.9779 -0.1478
vn 0.6937 0.1935 -0.6937
vn 0.5093 0.6937 -0.5093
vn 0.1810 -0.9779 -0.1045
vn 0.8497 -0.1935 -0.4905
vn 0.6238 -0.6937 -0.3601
vn 0.1810 0.9779 -0.1045
vn 0.8497 0.1935 -0.4905
vn 0.6238 0.6937 -0.3601
vn 0.2019 -0.9779 -0.0541
vn 0.9477 -0.1935 -0.2539
vn 0.6957 -0.6937 -0.1864
vn 0.2019 0.9779 -0.0541
vn 0.9477 0.1935 -0.2539
vn 0.6957 0.6937 -0.1864
vn 0.2090 -0.9779 -0.0000
vn 0.9811 -0.1935 -0.0000
vn 0.7203 -0.6937 -0.0000
vn 0.2090 0.9779 -0.0000
vn 0.9811 0.1935 -0.0000
vn 0.7203 0.6937 -0.0000
vn 0.2019 -0.9779 0.0541
vn 0.9477 -0.1935 0.2539
vn 0.6957 -0.6937 0.1864
vn 0.2019 0.9779 0.0541
vn 0.9477 0.1935 0.2539
vn 0.6957 0.6937 0.1864
vn 0.1810 -0.9779 0.1045
vn 0.8497 -0.1935 0.4905
vn 0.6238 -0.6937 0.3601
vn 0.1810 0.9779 0.1045
vn 0.8497 0.1935 0.4905
vn 0.6238 0.6937 0.3601
vn 0.1478 -0.9779 0.1478
vn 0.6937 -0.1935 0.6937
vn 0.5093 -0.6937 0.5093
vn 0.1478 0.9779 0.1478
vn 0.6937 0.1935 0.6937
vn 0.5093 0.6937 0.5093
vn 0.1045 -0.9779 0.1810
vn 0.4905 -0.1935 0.8497
vn 0.3601 -0.6937 0.6238
vn 0.1045 0.9779 0.1810
vn 0.4905 0.1935 0.8497
vn 0.3601 0.6937 0.6238
vn 0.0541 -0.9779 0.2019
vn 0.2539 -0.1935 0.9477
vn 0.1864 -0.6937 0.6957
vn 0.0541 0.9779 0.2019
vn 0.2539 0.1935 0.9477
vn 0.1864 0.6937 0.6957
vn -0.0000 -0.9779 0.2090
vn -0.0000 -0.1935 0.9811
vn -0.0000 -0.6937 0.7203
vn -0.0000 0.9779 0.2090
vn -0.0000 0.1935 0.9811
vn -0.0000 0.6937 0.7203
vn -0.0541 -0.9779 0.2019
vn -0.2539 -0.1935 0.9477
vn -0.1864 -0.6937 0.6957
vn -0.0541 0.9779 0.2019
vn -0.2539 0.1935 0.9477
vn -0.1864 0.6937 0.6957
vn -0.1045 -0.9779 0.1810
vn -0.4905 -0.1935 0.8497
vn -0.3601 -0.6937 0.6238
vn -0.1045 0.9779 0.1810
vn -0.4905 0.1935 0.8497
vn -0.3601 0.6937 0.6238
vn -0.1478 -0.9779 0.1478
vn -0.6937 -0.1935 0.6937
vn -0.5093 -0.6937 0.5093
vn -0.1478 0.9779 0.1478
vn -0.6937 0.1935 0.6937
vn -0.5093 0.6937 0.5093
vn -0.1810 -0.9779 0.1045
vn -0.8497 -0.1935 0.4905
vn -0.6238 -0.6937 0.3601
vn -0.1810 0.9779 0.1045
vn -0.8497 0.1935 0.4905
vn -0.6238 0.6937 0.3601
vn -0.2019 -0.9779 0.0541
vn -0.9477 -0.1935 0.2539
vn -0.6957 -0.6937 0.1864
vn -0.2019 0.9779 0.0541
vn -0.9477 0.1935 0.2539
vn -0.6957 0.6937 0.1864
vn -0.2090 -0.9779 -0.0000
vn -0.9811 -0.1935 -0.0000
vn -0.7203 -0.6937 -0.0000
vn -0.2090 0.9779 -0.0000
vn -0.9811 0.1935 -0.0000
vn -0.7203 0.6937 -0.0000
vn -0.2019 -0.9779 -0.0541
vn -0.9477 -0.1935 -0.2539
vn -0.6957 -0.6937 -0.1864
vn -0.2019 0.9779 -0.0541
vn -0.9477 0.1935 -0.2539
vn -0.6957 0.6937 -0.1864
vn -0.1810 -0.9779 -0.1045
vn -0.8497 -0.1935 -0.4905
vn -0.6238 -0.6937 -0.3601
vn -0.1810 0.9779 -0.1045
vn -0.8497 0.1935 -0.4905
vn -0.6238 0.6937 -0.3601
vn -0.1478 -0.9779 -0.1478
vn -0.6937 -0.1935 -0.6937
vn -0.5093 -0.6937 -0.5093
vn -0.1478 0.9779 -0.1478
vn -0.6937 0.1935 -0.6937
vn -0.5093 0.6937 -0.5093
vn -0.1045 -0.9779 -0.1810
vn -0.4905 -0.1935 -0.8497
vn -0.3601 -0.6937 -0.6238
vn -0.1045 0.9779 -0.1810
vn -0.4905 0.1935 -0.8497
vn -0.3601 0.6937 -0.6238
vn -0.0541 -0.9779 -0.2019
vn -0.2539 -0.1935 -0.9477
vn -0.1864 -0.6937 -0.6957
vn -0.0541 0.9779 -0.2019
vn -0.2539 0.1935 -0.9477
vn -0.1864 0.6937 -0.6957
vt 0.732143 0.000000
vt 0.750000 0.055556
vt 0.714286 0.055556
vt 0.750000 0.388889
vt 0.750000 0.444444
vt 0.714286 0.444444
vt 0.714286 0.388889
vt 0.750000 0.777778
vt 0.750000 0.833333
vt 0.714286 0.833333
vt 0.714286 0.777778
vt 0.750000 0.333333
vt 0.714286 0.333333
vt 0.750000 0.722222
vt 0.714286 0.722222
vt 0.750000 0.277778
vt 0.714286 0.277778
vt 0.750000 0.666667
vt 0.714286 0.666667
vt 0.750000 0.222222
vt 0.714286 0.222222
vt 0.750000 0.611111
vt 0.714286 0.611111
vt 0.750000 0.166667
vt 0.714286 0.166667
vt 0.750000 0.555556
vt 0.714286 0.555556
vt 0.750000 0.944444
vt 0.732143 1.000000
vt 0.714286 0.944444
vt 0.750000 0.111111
vt 0.714286 0.111111
vt 0.750000 0.500000
vt 0.714286 0.500000
vt 0.750000 0.888889
vt 0.714286 0.888889
vt 0.678571 0.222222
vt 0.678571 0.166667
vt 0.678571 0.611111
vt 0.678571 0.555556
vt 0.696429 1.000000
vt 0.678571 0.944444
vt 0.678571 0.111111
vt 0.678571 0.500000
vt 0.678571 0.888889
vt 0.678571 0.055556
vt 0.678571 0.444444
vt 0.678571 0.833333
vt 0.696429 0.000000
vt 0.678571 0.388889
vt 0.678571 0.777778
vt 0.678571 0.333333
vt 0.678571 0.722222
vt 0.678571 0.277778
vt 0.678571 0.666667
vt 0.642857 0.222222
vt 0.642857 0.166667
vt 0.642857 0.611111
vt 0.642857 0.555556
vt 0.660714 1.000000
vt 0.642857 0.944444
vt 0.642857 0.111111
vt 0.642857 0.500000
vt 0.642857 0.888889
vt 0.642857 0.055556
vt 0.642857 0.444444
vt 0.642857 0.833333
vt 0.660714 0.000000
vt 0.642857 0.388889
vt 0.642857 0.777778
vt 0.642857 0.333333
vt 0.642857 0.722222
vt 0.642857 0.277778
vt 0.642857 0.666667
vt 0.607143 0.222222
vt 0.607143 0.166667
vt 0.607143 0.611111
vt 0.607143 0.555556
vt 0.625000 1.000000
vt 0.607143 0.944444
vt 0.607143 0.111111
vt 0.607143 0.500000
vt 0.607143 0.888889
vt 0.607143 0.055556
vt 0.607143 0.444444
vt 0.607143 0.833333
vt 0.625000 0.000000
vt 0.607143 0.388889
vt 0.607143 0.777778
vt 0.607143 0.333333
vt 0.607143 0.722222
vt 0.607143 0.277778
vt 0.607143 0.666667
vt 0.571429 0.222222
vt 0.571429 0.166667
vt 0.571429 0.611111
vt 0.571429 0.555556
vt 0.589286 1.000000
vt 0.571429 0.944444
vt 0.571429 0.111111
vt 0.571429 0.500000
vt 0.571429 0.888889
vt 0.571429 0.055556
vt 0.571429 0.444444
vt 0.571429 0.833333
vt 0.589286 0.000000
vt 0.571429 0.388889
vt 0.571429 0.777778
vt 0.571429 0.333333
vt 0.571429 0.722222
vt 0.571429 0.277778
vt 0.571429 0.666667
vt 0.535714 0.222222
vt 0.535714 0.166667
vt 0.535714 0.611111
vt 0.535714 0.555556
vt 0.553571 1.000000
vt 0.535714 0.944444
vt 0.535714 0.111111
vt 0.535714 0.500000
vt 0.535714 0.888889
vt 0.535714 0.055556
vt 0.535714 0.444444
vt 0.535714 0.833333
vt 0.553571 0.000000
vt 0.535714 0.388889
vt 0.535714 0.777778
vt 0.535714 0.333333
vt 0.535714 0.722222
vt 0.535714 0.277778
vt 0.535714 0.666667
vt 0.500000 0.222222
vt 0.500000 0.166667
vt 0.500000 0.611111
vt 0.500000 0.555556
vt 0.517857 1.000000
vt 0.500000 0.944444
vt 0.500000 0.111111
vt 0.500000 0.500000
vt 0.500000 0.888889
vt 0.500000 0.055556
vt 0.500000 0.444444
vt 0.500000 0.833333
vt 0.517857 0.000000
vt 0.500000 0.388889
vt 0.500000 0.777778
vt 0.500000 0.333333
vt 0.500000 0.722222
vt 0.500000 0.277778
vt 0.500000 0.666667
vt 0.464286 0.222222
vt 0.464286 0.166667
vt 0.464286 0.611111
vt 0.464286 0.555556
vt 0.482143 1.000000
vt 0.464286 0.944444
vt 0.464286 0.111111
vt 0.464286 0.500000
vt 0.464286 0.888889
vt 0.464286 0.055556
vt 0.464286 0.444444
vt 0.464286 0.833333
vt 0.482143 0.000000
vt 0.464286 0.388889
vt 0.464286 0.777778
vt 0.464286 0.333333
vt 0.464286 0.722222
vt 0.464286 0.277778
vt 0.464286 0.666667
vt 0.428571 0.222222
vt 0.428571 0.166667
vt 0.428571 0.611111
vt 0.428571 0.555556
vt 0.446429 1.000000
vt 0.428571 0.944444
vt 0.428571 0.111111
vt 0.428571 0.500000
vt 0.428571 0.888889
vt 0.428571 0.055556
vt 0.428571 0.444444
vt 0.428571 0.833333
vt 0.446429 0.000000
vt 0.428571 0.388889
vt 0.428571 0.777778
vt 0.428571 0.333333
vt 0.428571 0.722222
vt 0.428571 0.277778
vt 0.428571 0.666667
vt 0.392857 0.222222
vt 0.392857 0.166667
vt 0.392857 0.611111
vt 0.392857 0.555556
vt 0.410714 1.000000
vt 0.392857 0.944444
vt 0.392857 0.111111
vt 0.392857 0.500000
vt 0.392857 0.888889
vt 0.392857 0.055556
vt 0.392857 0.444444
vt 0.392857 0.833333
vt 0.410714 0.000000
vt 0.392857 0.388889
vt 0.392857 0.777778
vt 0.392857 0.333333
vt 0.392857 0.722222
vt 0.392857 0.277778
vt 0.392857 0.666667
vt 0.357143 0.222222
vt 0.357143 0.166667
vt 0.357143 0.611111
vt 0.357143 0.555556
vt 0.375000 1.000000
vt 0.357143 0.944444
vt 0.357143 0.111111
vt 0.357143 0.500000
vt 0.357143 0.888889
vt 0.357143 0.055556
vt 0.357143 0.444444
vt 0.357143 0.833333
vt 0.375000 0.000000
vt 0.357143 0.388889
vt 0.357143 0.777778
vt 0.357143 0.333333
vt 0.357143 0.722222
vt 0.357143 0.277778
vt 0.357143 0.666667
vt 0.321429 0.222222
vt 0.321429 0.166667
vt 0.321429 0.611111
vt 0.321429 0.555556
vt 0.339286 1.000000
vt 0.321429 0.944444
vt 0.321429 0.111111
vt 0.321429 0.500000
vt 0.321429 0.888889
vt 0.321429 0.055556
vt 0.321429 0.444444
vt 0.321429 0.833333
vt 0.339286 0.000000
vt 0.321429 0.388889
vt 0.321429 0.777778
vt 0.321429 0.333333
vt 0.321429 0.722222
vt 0.321429 0.277778
vt 0.321429 0.666667
vt 0.285714 0.222222
vt 0.285714 0.166667
vt 0.285714 0.611111
vt 0.285714 0.555556
vt 0.303571 1.000000
vt 0.285714 0.944444
vt 0.285714 0.111111
vt 0.285714 0.500000
vt 0.285714 0.888889
vt 0.285714 0.055556
vt 0.285714 0.444444
vt 0.285714 0.833333
vt 0.303571 0.000000
vt 0.285714 0.388889
vt 0.285714 0.777778
vt 0.285714 0.333333
vt 0.285714 0.722222
vt 0.285714 0.277778
vt 0.285714 0.666667
vt 0.250000 0.222222
vt 0.250000 0.166667
vt 0.250000 0.611111
vt 0.250000 0.555556
vt 0.267857 1.000000
vt 0.250000 0.944444
vt 0.250000 0.111111
vt 0.250000 0.500000
vt 0.250000 0.888889
vt 0.250000 0.055556
vt 0.250000 0.444444
vt 0.250000 0.833333
vt 0.267857 0.000000
vt 0.250000 0.388889
vt 0.250000 0.777778
vt 0.250000 0.333333
vt 0.250000 0.722222
vt 0.250000 0.277778
vt 0.250000 0.666667
vt 0.214286 0.222222
vt 0.214286 0.166667
vt 0.214286 0.611111
vt 0.214286 0.555556
vt 0.232143 1.000000
vt 0.214286 0.944444
vt 0.214286 0.111111
vt 0.214286 0.500000
vt 0.214286 0.888889
vt 0.214286 0.055556
vt 0.214286 0.444444
vt 0.214286 0.833333
vt 0.232143 0.000000
vt 0.214286 0.388889
vt 0.214286 0.777778
vt 0.214286 0.333333
vt 0.214286 0.722222
vt 0.214286 0.277778
vt 0.214286 0.666667
vt 0.178571 0.222222
vt 0.178571 0.166667
vt 0.178571 0.611111
vt 0.178571 0.555556
vt 0.196429 1.000000
vt 0.178571 0.944444
vt 0.178571 0.111111
vt 0.178571 0.500000
vt 0.178571 0.888889
vt 0.178571 0.055556
vt 0.178571 0.444444
vt 0.178571 0.833333
vt 0.196429 0.000000
vt 0.178571 0.388889
vt 0.178571 0.777778
vt 0.178571 0.333333
vt 0.178571 0.722222
vt 0.178571 0.277778
vt 0.178571 0.666667
vt 0.142857 0.222222
vt 0.142857 0.166667
vt 0.142857 0.611111
vt 0.142857 0.555556
vt 0.160714 1.000000
vt 0.142857 0.944444
vt 0.142857 0.111111
vt 0.142857 0.500000
vt 0.142857 0.888889
vt 0.142857 0.055556
vt 0.142857 0.444444
vt 0.142857 0.833333
vt 0.160714 0.000000
vt 0.142857 0.388889
vt 0.142857 0.777778
vt 0.142857 0.333333
vt 0.142857 0.722222
vt 0.142857 0.277778
vt 0.142857 0.666667
vt 0.107143 0.222222
vt 0.107143 0.166667
vt 0.107143 0.611111
vt 0.107143 0.555556
vt 0.125000 1.000000
vt 0.107143 0.944444
vt 0.107143 0.111111
vt 0.107143 0.500000
vt 0.107143 0.888889
vt 0.107143 0.055556
vt 0.107143 0.444444
vt 0.107143 0.833333
vt 0.125000 0.000000
vt 0.107143 0.388889
vt 0.107143 0.777778
vt 0.107143 0.333333
vt 0.107143 0.722222
vt 0.107143 0.277778
vt 0.107143 0.666667
vt 0.071429 0.222222
vt 0.071429 0.166667
vt 0.071429 0.611111
vt 0.071429 0.555556
vt 0.089286 1.000000
vt 0.071429 0.944444
vt 0.071429 0.111111
vt 0.071429 0.500000
vt 0.071429 0.888889
vt 0.071429 0.055556
vt 0.071429 0.444444
vt 0.071429 0.833333
vt 0.089286 0.000000
vt 0.071429 0.388889
vt 0.071429 0.777778
vt 0.071429 0.333333
vt 0.071429 0.722222
vt 0.071429 0.277778
vt 0.071429 0.666667
vt 0.035714 0.222222
vt 0.035714 0.166667
vt 0.035714 0.611111
vt 0.035714 0.555556
vt 0.053571 1.000000
vt 0.035714 0.944444
vt 0.035714 0.111111
vt 0.035714 0.500000
vt 0.035714 0.888889
vt 0.035714 0.055556
vt 0.035714 0.444444
vt 0.035714 0.833333
vt 0.053571 0.000000
vt 0.035714 0.388889
vt 0.035714 0.777778
vt 0.035714 0.333333
vt 0.035714 0.722222
vt 0.035714 0.277778
vt 0.035714 0.666667
vt 0.000000 0.222222
vt 0.000000 0.166667
vt 0.000000 0.611111
vt 0.000000 0.555556
vt 0.017857 1.000000
vt 0.000000 0.944444
vt 0.000000 0.111111
vt 0.000000 0.500000
vt 0.000000 0.888889
vt 0.000000 0.055556
vt 0.000000 0.444444
vt 0.000000 0.833333
vt 0.017857 0.000000
vt 0.000000 0.388889
vt 0.000000 0.777778
vt 0.000000 0.333333
vt 0.000000 0.722222
vt 0.000000 0.277778
vt 0.000000 0.666667
vt 1.000000 0.166667
vt 1.000000 0.222222
vt 0.964286 0.222222
vt 0.964286 0.166667
vt 1.000000 0.555556
vt 1.000000 0.611111
vt 0.964286 0.611111
vt 0.964286 0.555556
vt 1.000000 0.944444
vt 0.982143 1.000000
vt 0.964286 0.944444
vt 1.000000 0.111111
vt 0.964286 0.111111
vt 1.000000 0.500000
vt 0.964286 0.500000
vt 1.000000 0.888889
vt 0.964286 0.888889
vt 1.000000 0.055556
vt 0.964286 0.055556
vt 1.000000 0.444444
vt 0.964286 0.444444
vt 1.000000 0.833333
vt 0.964286 0.833333
vt 0.982143 0.000000
vt 1.000000 0.388889
vt 0.964286 0.388889
vt 1.000000 0.777778
vt 0.964286 0.777778
vt 1.000000 0.333333
vt 0.964286 0.333333
vt 1.000000 0.722222
vt 0.964286 0.722222
vt 1.000000 0.277778
vt 0.964286 0.277778
vt 1.000000 0.666667
vt 0.964286 0.666667
vt 0.928571 0.222222
vt 0.928571 0.166667
vt 0.928571 0.611111
vt 0.928571 0.555556
vt 0.946429 1.000000
vt 0.928571 0.944444
vt 0.928571 0.111111
vt 0.928571 0.500000
vt 0.928571 0.888889
vt 0.928571 0.055556
vt 0.928571 0.444444
vt 0.928571 0.833333
vt 0.946429 0.000000
vt 0.928571 0.388889
vt 0.928571 0.777778
vt 0.928571 0.333333
vt 0.928571 0.722222
vt 0.928571 0.277778
vt 0.928571 0.666667
vt 0.892857 0.222222
vt 0.892857 0.166667
vt 0.892857 0.611111
vt 0.892857 0.555556
vt 0.910714 1.000000
vt 0.892857 0.944444
vt 0.892857 0.111111
vt 0.892857 0.500000
vt 0.892857 0.888889
vt 0.892857 0.055556
vt 0.892857 0.444444
vt 0.892857 0.833333
vt 0.910714 0.000000
vt 0.892857 0.388889
vt 0.892857 0.777778
vt 0.892857 0.333333
vt 0.892857 0.722222
vt 0.892857 0.277778
vt 0.892857 0.666667
vt 0.857143 0.222222
vt 0.857143 0.166667
vt 0.857143 0.611111
vt 0.857143 0.555556
vt 0.875000 1.000000
vt 0.857143 0.944444
vt 0.857143 0.111111
vt 0.857143 0.500000
vt 0.857143 0.888889
vt 0.857143 0.055556
vt 0.857143 0.444444
vt 0.857143 0.833333
vt 0.875000 0.000000
vt 0.857143 0.388889
vt 0.857143 0.777778
vt 0.857143 0.333333
vt 0.857143 0.722222
vt 0.857143 0.277778
vt 0.857143 0.666667
vt 0.821429 0.222222
vt 0.821429 0.166667
vt 0.821429 0.611111
vt 0.821429 0.555556
vt 0.839286 1.000000
vt 0.821429 0.944444
vt 0.821429 0.111111
vt 0.821429 0.500000
vt 0.821429 0.888889
vt 0.821429 0.055556
vt 0.821429 0.444444
vt 0.821429 0.833333
vt 0.839286 0.000000
vt 0.821429 0.388889
vt 0.821429 0.777778
vt 0.821429 0.333333
vt 0.821429 0.722222
vt 0.821429 0.277778
vt 0.821429 0.666667
vt 0.785714 0.222222
vt 0.785714 0.166667
vt 0.785714 0.611111
vt 0.785714 0.555556
vt 0.803571 1.000000
vt 0.785714 0.944444
vt 0.785714 0.111111
vt 0.785714 0.500000
vt 0.785714 0.888889
vt 0.785714 0.055556
vt 0.785714 0.444444
vt 0.785714 0.833333
vt 0.803571 0.000000
vt 0.785714 0.388889
vt 0.785714 0.777778
vt 0.785714 0.333333
vt 0.785714 0.722222
vt 0.785714 0.277778
vt 0.785714 0.666667
vt 0.767857 1.000000
vt 0.767857 0.000000
vt 0.750000 0.600000
vt 0.687500 0.600000
vt 0.687500 0.500000
vt 0.750000 0.800000
vt 0.750000 0.900000
vt 0.687500 0.900000
vt 0.687500 0.800000
vt 0.750000 0.100000
vt 0.750000 0.200000
vt 0.687500 0.200000
vt 0.687500 0.100000
vt 0.750000 0.400000
vt 0.687500 0.400000
vt 0.750000 0.700000
vt 0.687500 0.700000
vt 0.718750 0.000000
vt 0.750000 0.300000
vt 0.687500 0.300000
vt 0.718750 1.000000
vt 0.625000 0.600000
vt 0.625000 0.500000
vt 0.625000 0.900000
vt 0.625000 0.800000
vt 0.625000 0.200000
vt 0.625000 0.100000
vt 0.625000 0.400000
vt 0.625000 0.700000
vt 0.656250 0.000000
vt 0.625000 0.300000
vt 0.656250 1.000000
vt 0.593750 1.000000
vt 0.562500 0.900000
vt 0.562500 0.300000
vt 0.562500 0.200000
vt 0.562500 0.600000
vt 0.562500 0.500000
vt 0.562500 0.800000
vt 0.562500 0.100000
vt 0.562500 0.400000
vt 0.562500 0.700000
vt 0.593750 0.000000
vt 0.500000 0.700000
vt 0.500000 0.600000
vt 0.531250 1.000000
vt 0.500000 0.900000
vt 0.500000 0.300000
vt 0.500000 0.200000
vt 0.500000 0.500000
vt 0.500000 0.800000
vt 0.500000 0.100000
vt 0.500000 0.400000
vt 0.531250 0.000000
vt 0.468750 0.000000
vt 0.437500 0.100000
vt 0.437500 0.400000
vt 0.437500 0.300000
vt 0.437500 0.700000
vt 0.437500 0.600000
vt 0.468750 1.000000
vt 0.437500 0.900000
vt 0.437500 0.200000
vt 0.437500 0.500000
vt 0.437500 0.800000
vt 0.375000 0.500000
vt 0.375000 0.400000
vt 0.375000 0.800000
vt 0.375000 0.700000
vt 0.406250 0.000000
vt 0.375000 0.100000
vt 0.375000 0.300000
vt 0.375000 0.600000
vt 0.406250 1.000000
vt 0.375000 0.900000
vt 0.375000 0.200000
vt 0.312500 0.900000
vt 0.312500 0.800000
vt 0.312500 0.200000
vt 0.312500 0.100000
vt 0.312500 0.500000
vt 0.312500 0.400000
vt 0.312500 0.700000
vt 0.343750 0.000000
vt 0.312500 0.300000
vt 0.312500 0.600000
vt 0.343750 1.000000
vt 0.250000 0.600000
vt 0.250000 0.500000
vt 0.250000 0.900000
vt 0.250000 0.800000
vt 0.250000 0.200000
vt 0.250000 0.100000
vt 0.250000 0.400000
vt 0.250000 0.700000
vt 0.281250 0.000000
vt 0.250000 0.300000
vt 0.281250 1.000000
vt 0.218750 1.000000
vt 0.187500 0.900000
vt 0.187500 0.300000
vt 0.187500 0.200000
vt 0.187500 0.600000
vt 0.187500 0.500000
vt 0.187500 0.800000
vt 0.187500 0.100000
vt 0.187500 0.400000
vt 0.187500 0.700000
vt 0.218750 0.000000
vt 0.125000 0.400000
vt 0.125000 0.300000
vt 0.125000 0.700000
vt 0.125000 0.600000
vt 0.156250 1.000000
vt 0.125000 0.900000
vt 0.125000 0.200000
vt 0.125000 0.500000
vt 0.125000 0.800000
vt 0.125000 0.100000
vt 0.156250 0.000000
vt 0.062500 0.800000
vt 0.062500 0.700000
vt 0.093750 0.000000
vt 0.062500 0.100000
vt 0.062500 0.400000
vt 0.062500 0.300000
vt 0.062500 0.600000
vt 0.093750 1.000000
vt 0.062500 0.900000
vt 0.062500 0.200000
vt 0.062500 0.500000
vt 0.000000 0.400000
vt 0.000000 0.800000
vt 0.000000 0.700000
vt 0.031250 0.000000
vt 0.000000 0.100000
vt 0.000000 0.300000
vt 0.000000 0.600000
vt 0.031250 1.000000
vt 0.000000 0.900000
vt 0.000000 0.200000
vt 1.000000 0.800000
vt 1.000000 0.900000
vt 0.937500 0.900000
vt 0.937500 0.800000
vt 1.000000 0.100000
vt 1.000000 0.200000
vt 0.937500 0.200000
vt 0.937500 0.100000
vt 1.000000 0.400000
vt 0.937500 0.500000
vt 0.937500 0.400000
vt 1.000000 0.700000
vt 0.937500 0.700000
vt 0.968750 0.000000
vt 1.000000 0.300000
vt 0.937500 0.300000
vt 1.000000 0.600000
vt 0.937500 0.600000
vt 0.968750 1.000000
vt 0.875000 0.300000
vt 0.875000 0.200000
vt 0.875000 0.600000
vt 0.875000 0.500000
vt 0.875000 0.900000
vt 0.875000 0.800000
vt 0.875000 0.100000
vt 0.875000 0.400000
vt 0.875000 0.700000
vt 0.906250 0.000000
vt 0.906250 1.000000
vt 0.812500 0.700000
vt 0.812500 0.600000
vt 0.843750 1.000000
vt 0.812500 0.900000
vt 0.812500 0.300000
vt 0.812500 0.200000
vt 0.812500 0.500000
vt 0.812500 0.800000
vt 0.812500 0.100000
vt 0.812500 0.400000
vt 0.843750 0.000000
vt 0.781250 1.000000
vt 0.781250 0.000000
vt 1.000000 0.607143
vt 0.958333 0.607143
vt 0.958333 0.500000
vt 0.999785 0.500000
vt 0.750000 0.489958
vt 0.812106 0.481781
vt 0.809931 0.473666
vt 0.750000 0.481556
vt 0.958333 0.892857
vt 1.000000 0.892857
vt 0.999785 1.000000
vt 0.958333 1.000000
vt 0.312106 0.481781
vt 0.250000 0.489958
vt 0.250000 0.481556
vt 0.309931 0.473666
vt 0.916667 0.607143
vt 0.916667 0.500000
vt 0.869979 0.457810
vt 0.865778 0.450533
vt 0.916667 0.892857
vt 0.916667 1.000000
vt 0.369979 0.457810
vt 0.365778 0.450533
vt 0.875000 0.607143
vt 0.875000 0.500000
vt 0.919676 0.419676
vt 0.913735 0.413735
vt 0.875000 0.892857
vt 0.875000 1.000000
vt 0.419676 0.419676
vt 0.413735 0.413735
vt 0.833333 0.607143
vt 0.833333 0.500000
vt 0.957810 0.369979
vt 0.950533 0.365778
vt 0.833333 0.892857
vt 0.833333 1.000000
vt 0.457810 0.369979
vt 0.450533 0.365778
vt 0.791667 0.607143
vt 0.791667 0.500000
vt 0.981781 0.312106
vt 0.973666 0.309931
vt 0.791667 0.892857
vt 0.791667 1.000000
vt 0.481781 0.312106
vt 0.473666 0.309931
vt 0.750000 0.607143
vt 0.750000 0.500000
vt 0.989958 0.250000
vt 0.981556 0.250000
vt 0.750000 0.892857
vt 0.750000 1.000000
vt 0.489958 0.250000
vt 0.481556 0.250000
vt 0.708333 0.607143
vt 0.708333 0.500000
vt 0.981781 0.187894
vt 0.973666 0.190069
vt 0.708333 0.892857
vt 0.708333 1.000000
vt 0.481781 0.187894
vt 0.473666 0.190069
vt 0.666667 0.607143
vt 0.666667 0.500000
vt 0.957810 0.130021
vt 0.950533 0.134222
vt 0.666667 0.892857
vt 0.666667 1.000000
vt 0.457810 0.130021
vt 0.450533 0.134222
vt 0.625000 0.607143
vt 0.625000 0.500000
vt 0.919676 0.080324
vt 0.913734 0.086265
vt 0.625000 0.892857
vt 0.625000 1.000000
vt 0.419676 0.080324
vt 0.413735 0.086265
vt 0.583333 0.607143
vt 0.583333 0.500000
vt 0.869979 0.042190
vt 0.865778 0.049467
vt 0.583333 0.892857
vt 0.583333 1.000000
vt 0.369979 0.042190
vt 0.365778 0.049467
vt 0.541666 0.607143
vt 0.541666 0.500000
vt 0.812106 0.018219
vt 0.809931 0.026334
vt 0.541666 0.892857
vt 0.541667 1.000000
vt 0.312106 0.018219
vt 0.309931 0.026334
vt 0.500000 0.607143
vt 0.500000 0.500000
vt 0.750000 0.010042
vt 0.750000 0.018444
vt 0.500000 0.892857
vt 0.500000 1.000000
vt 0.250000 0.010042
vt 0.250000 0.018444
vt 0.458333 0.607143
vt 0.458333 0.500000
vt 0.687894 0.018219
vt 0.690069 0.026334
vt 0.458333 0.892857
vt 0.458333 1.000000
vt 0.187894 0.018219
vt 0.190069 0.026334
vt 0.416667 0.607143
vt 0.416666 0.500000
vt 0.630021 0.042190
vt 0.634222 0.049467
vt 0.416667 0.892857
vt 0.416666 1.000000
vt 0.130021 0.042190
vt 0.134222 0.049467
vt 0.375000 0.607143
vt 0.375000 0.500000
vt 0.580324 0.080324
vt 0.586265 0.086265
vt 0.375000 0.892857
vt 0.375000 1.000000
vt 0.080324 0.080324
vt 0.086265 0.086265
vt 0.333333 0.607143
vt 0.333333 0.500000
vt 0.542190 0.130021
vt 0.549467 0.134222
vt 0.333333 0.892857
vt 0.333333 1.000000
vt 0.042190 0.130021
vt 0.049467 0.134222
vt 0.291667 0.607143
vt 0.291667 0.500000
vt 0.518219 0.187894
vt 0.526334 0.190069
vt 0.291667 0.892857
vt 0.291667 1.000000
vt 0.018219 0.187894
vt 0.026334 0.190069
vt 0.250000 0.607143
vt 0.250000 0.500000
vt 0.510042 0.250000
vt 0.518444 0.250000
vt 0.250000 0.892857
vt 0.250000 1.000000
vt 0.010042 0.250000
vt 0.018444 0.250000
vt 0.208333 0.607143
vt 0.208333 0.500000
vt 0.518219 0.312106
vt 0.526334 0.309931
vt 0.208333 0.892857
vt 0.208333 1.000000
vt 0.018219 0.312106
vt 0.026334 0.309931
vt 0.166666 0.607143
vt 0.166666 0.500000
vt 0.542190 0.369979
vt 0.549467 0.365778
vt 0.166666 0.892857
vt 0.166666 1.000000
vt 0.042190 0.369979
vt 0.049467 0.365778
vt 0.125000 0.607143
vt 0.125000 0.500000
vt 0.580324 0.419676
vt 0.586265 0.413735
vt 0.125000 0.892857
vt 0.125000 1.000000
vt 0.080324 0.419676
vt 0.086265 0.413735
vt 0.083333 0.607143
vt 0.083333 0.500000
vt 0.630021 0.457810
vt 0.634222 0.450533
vt 0.083333 0.892857
vt 0.083333 1.000000
vt 0.130021 0.457810
vt 0.134222 0.450533
vt 0.041666 0.607143
vt 0.041666 0.500000
vt 0.687894 0.481781
vt 0.690069 0.473666
vt 0.041666 0.892857
vt 0.041666 1.000000
vt 0.187894 0.481781
vt 0.190069 0.473666
vt -0.000000 0.607143
vt 0.000215 0.500000
vt -0.000000 0.892857
vt 0.000215 1.000000
s 1
f 10/1/10 478/2/478 27/3/27
f 475/4/475 6/5/6 20/6/20 21/7/21
f 473/8/473 472/9/472 13/10/13 14/11/14
f 7/12/7 475/4/475 21/7/21 22/13/22
f 474/14/474 473/8/473 14/11/14 15/15/15
f 8/16/8 7/12/7 22/13/22 23/17/23
f 2/18/2 474/14/474 15/15/15 16/19/16
f 476/20/476 8/16/8 23/17/23 24/21/24
f 3/22/3 2/18/2 16/19/16 17/23/17
f 477/24/477 476/20/476 24/21/24 25/25/25
f 4/26/4 3/22/3 17/23/17 18/27/18
f 470/28/470 1/29/1 11/30/11
f 9/31/9 477/24/477 25/25/25 26/32/26
f 5/33/5 4/26/4 18/27/18 19/34/19
f 471/35/471 470/28/470 11/30/11 12/36/12
f 478/2/478 9/31/9 26/32/26 27/3/27
f 6/5/6 5/33/5 19/34/19 20/6/20
f 472/9/472 471/35/471 12/36/12 13/10/13
f 25/25/25 24/21/24 41/37/41 42/38/42
f 18/27/18 17/23/17 34/39/34 35/40/35
f 11/30/11 1/41/1 28/42/28
f 26/32/26 25/25/25 42/38/42 43/43/43
f 19/34/19 18/27/18 35/40/35 36/44/36
f 12/36/12 11/30/11 28/42/28 29/45/29
f 27/3/27 26/32/26 43/43/43 44/46/44
f 20/6/20 19/34/19 36/44/36 37/47/37
f 13/10/13 12/36/12 29/45/29 30/48/30
f 10/49/10 27/3/27 44/46/44
f 21/7/21 20/6/20 37/47/37 38/50/38
f 14/11/14 13/10/13 30/48/30 31/51/31
f 22/13/22 21/7/21 38/50/38 39/52/39
f 15/15/15 14/11/14 31/51/31 32/53/32
f 23/17/23 22/13/22 39/52/39 40/54/40
f 16/19/16 15/15/15 32/53/32 33/55/33
f 24/21/24 23/17/23 40/54/40 41/37/41
f 17/23/17 16/19/16 33/55/33 34/39/34
f 42/38/42 41/37/41 58/56/58 59/57/59
f 35/40/35 34/39/34 51/58/51 52/59/52
f 28/42/28 1/60/1 45/61/45
f 43/43/43 42/38/42 59/57/59 60/62/60
f 36/44/36 35/40/35 52/59/52 53/63/53
f 29/45/29 28/42/28 45/61/45 46/64/46
f 44/46/44 43/43/43 60/62/60 61/65/61
f 37/47/37 36/44/36 53/63/53 54/66/54
f 30/48/30 29/45/29 46/64/46 47/67/47
f 10/68/10 44/46/44 61/65/61
f 38/50/38 37/47/37 54/66/54 55/69/55
f 31/51/31 30/48/30 47/67/47 48/70/48
f 39/52/39 38/50/38 55/69/55 56/71/56
f 32/53/32 31/51/31 48/70/48 49/72/49
f 40/54/40 39/52/39 56/71/56 57/73/57
f 33/55/33 32/53/32 49/72/49 50/74/50
f 41/37/41 40/54/40 57/73/57 58/56/58
f 34/39/34 33/55/33 50/74/50 51/58/51
f 59/57/59 58/56/58 75/75/75 76/76/76
f 52/59/52 51/58/51 68/77/68 69/78/69
f 45/61/45 1/79/1 62/80/62
f 60/62/60 59/57/59 76/76/76 77/81/77
f 53/63/53 52/59/52 69/78/69 70/82/70
f 46/64/46 45/61/45 62/80/62 63/83/63
f 61/65/61 60/62/60 77/81/77 78/84/78
f 54/66/54 53/63/53 70/82/70 71/85/71
f 47/67/47 46/64/46 63/83/63 64/86/64
f 10/87/10 61/65/61 78/84/78
f 55/69/55 54/66/54 71/85/71 72/88/72
f 48/70/48 47/67/47 64/86/64 65/89/65
f 56/71/56 55/69/55 72/88/72 73/90/73
f 49/72/49 48/70/48 65/89/65 66/91/66
f 57/73/57 56/71/56 73/90/73 74/92/74
f 50/74/50 49/72/49 66/91/66 67/93/67
f 58/56/58 57/73/57 74/92/74 75/75/75
f 51/58/51 50/74/50 67/93/67 68/77/68
f 76/76/76 75/75/75 92/94/92 93/95/93
f 69/78/69 68/77/68 85/96/85 86/97/86
f 62/80/62 1/98/1 79/99/79
f 77/81/77 76/76/76 93/95/93 94/100/94
f 70/82/70 69/78/69 86/97/86 87/101/87
f 63/83/63 62/80/62 79/99/79 80/102/80
f 78/84/78 77/81/77 94/100/94 95/103/95
f 71/85/71 70/82/70 87/101/87 88/104/88
f 64/86/64 63/83/63 80/102/80 81/105/81
f 10/106/10 78/84/78 95/103/95
f 72/88/72 71/85/71 88/104/88 89/107/89
f 65/89/65 64/86/64 81/105/81 82/108/82
f 73/90/73 72/88/72 89/107/89 90/109/90
f 66/91/66 65/89/65 82/108/82 83/110/83
f 74/92/74 73/90/73 90/109/90 91/111/91
f 67/93/67 66/91/66 83/110/83 84/112/84
f 75/75/75 74/92/74 91/111/91 92/94/92
f 68/77/68 67/93/67 84/112/84 85/96/85
f 93/95/93 92/94/92 109/113/109 110/114/110
f 86/97/86 85/96/85 102/115/102 103/116/103
f 79/99/79 1/117/1 96/118/96
f 94/100/94 93/95/93 110/114/110 111/119/111
f 87/101/87 86/97/86 103/116/103 104/120/104
f 80/102/80 79/99/79 96/118/96 97/121/97
f 95/103/95 94/100/94 111/119/111 112/122/112
f 88/104/88 87/101/87 104/120/104 105/123/105
f 81/105/81 80/102/80 97/121/97 98/124/98
f 10/125/10 95/103/95 112/122/112
f 89/107/89 88/104/88 105/123/105 106/126/106
f 82/108/82 81/105/81 98/124/98 99/127/99
f 90/109/90 89/107/89 106/126/106 107/128/107
f 83/110/83 82/108/82 99/127/99 100/129/100
f 91/111/91 90/109/90 107/128/107 108/130/108
f 84/112/84 83/110/83 100/129/100 101/131/101
f 92/94/92 91/111/91 108/130/108 109/113/109
f 85/96/85 84/112/84 101/131/101 102/115/102
f 110/114/110 109/113/109 126/132/126 127/133/127
f 103/116/103 102/115/102 119/134/119 120/135/120
f 96/118/96 1/136/1 113/137/113
f 111/119/111 110/114/110 127/133/127 128/138/128
f 104/120/104 103/116/103 120/135/120 121/139/121
f 97/121/97 96/118/96 113/137/113 114/140/114
f 112/122/112 111/119/111 128/138/128 129/141/129
f 105/123/105 104/120/104 121/139/121 122/142/122
f 98/124/98 97/121/97 114/140/114 115/143/115
f 10/144/10 112/122/112 129/141/129
f 106/126/106 105/123/105 122/142/122 123/145/123
f 99/127/99 98/124/98 115/143/115 116/146/116
f 107/128/107 106/126/106 123/145/123 124/147/124
f 100/129/100 99/127/99 116/146/116 117/148/117
f 108/130/108 107/128/107 124/147/124 125/149/125
f 101/131/101 100/129/100 117/148/117 118/150/118
f 109/113/109 108/130/108 125/149/125 126/132/126
f 102/115/102 101/131/101 118/150/118 119/134/119
f 127/133/127 126/132/126 143/151/143 144/152/144
f 120/135/120 119/134/119 136/153/136 137/154/137
f 113/137/113 1/155/1 130/156/130
f 128/138/128 127/133/127 144/152/144 145/157/145
f 121/139/121 120/135/120 137/154/137 138/158/138
f 114/140/114 113/137/113 130/156/130 131/159/131
f 129/141/129 128/138/128 145/157/145 146/160/146
f 122/142/122 121/139/121 138/158/138 139/161/139
f 115/143/115 114/140/114 131/159/131 132/162/132
f 10/163/10 129/141/129 146/160/146
f 123/145/123 122/142/122 139/161/139 140/164/140
f 116/146/116 115/143/115 132/162/132 133/165/133
f 124/147/124 123/145/123 140/164/140 141/166/141
f 117/148/117 116/146/116 133/165/133 134/167/134
f 125/149/125 124/147/124 141/166/141 142/168/142
f 118/150/118 117/148/117 134/167/134 135/169/135
f 126/132/126 125/149/125 142/168/142 143/151/143
f 119/134/119 118/150/118 135/169/135 136/153/136
f 144/152/144 143/151/143 160/170/160 161/171/161
f 137/154/137 136/153/136 153/172/153 154/173/154
f 130/156/130 1/174/1 147/175/147
f 145/157/145 144/152/144 161/171/161 162/176/162
f 138/158/138 137/154/137 154/173/154 155/177/155
f 131/159/131 130/156/130 147/175/147 148/178/148
f 146/160/146 145/157/145 162/176/162 163/179/163
f 139/161/139 138/158/138 155/177/155 156/180/156
f 132/162/132 131/159/131 148/178/148 149/181/149
f 10/182/10 146/160/146 163/179/163
f 140/164/140 139/161/139 156/180/156 157/183/157
f 133/165/133 132/162/132 149/181/149 150/184/150
f 141/166/141 140/164/140 157/183/157 158/185/158
f 134/167/134 133/165/133 150/184/150 151/186/151
f 142/168/142 141/166/141 158/185/158 159/187/159
f 135/169/135 134/167/134 151/186/151 152/188/152
f 143/151/143 142/168/142 159/187/159 160/170/160
f 136/153/136 135/169/135 152/188/152 153/172/153
f 161/171/161 160/170/160 177/189/177 178/190/178
f 154/173/154 153/172/153 170/191/170 171/192/171
f 147/175/147 1/193/1 164/194/164
f 162/176/162 161/171/161 178/190/178 179/195/179
f 155/177/155 154/173/154 171/192/171 172/196/172
f 148/178/148 147/175/147 164/194/164 165/197/165
f 163/179/163 162/176/162 179/195/179 180/198/180
f 156/180/156 155/177/155 172/196/172 173/199/173
f 149/181/149 148/178/148 165/197/165 166/200/166
f 10/201/10 163/179/163 180/198/180
f 157/183/157 156/180/156 173/199/173 174/202/174
f 150/184/150 149/181/149 166/200/166 167/203/167
f 158/185/158 157/183/157 174/202/174 175/204/175
f 151/186/151 150/184/150 167/203/167 168/205/168
f 159/187/159 158/185/158 175/204/175 176/206/176
f 152/188/152 151/186/151 168/205/168 169/207/169
f 160/170/160 159/187/159 176/206/176 177/189/177
f 153/172/153 152/188/152 169/207/169 170/191/170
f 178/190/178 177/189/177 194/208/194 195/209/195
f 171/192/171 170/191/170 187/210/187 188/211/188
f 164/194/164 1/212/1 181/213/181
f 179/195/179 178/190/178 195/209/195 196/214/196
f 172/196/172 171/192/171 188/211/188 189/215/189
f 165/197/165 164/194/164 181/213/181 182/216/182
f 180/198/180 179/195/179 196/214/196 197/217/197
f 173/199/173 172/196/172 189/215/189 190/218/190
f 166/200/166 165/197/165 182/216/182 183/219/183
f 10/220/10 180/198/180 197/217/197
f 174/202/174 173/199/173 190/218/190 191/221/191
f 167/203/167 166/200/166 183/219/183 184/222/184
f 175/204/175 174/202/174 191/221/191 192/223/192
f 168/205/168 167/203/167 184/222/184 185/224/185
f 176/206/176 175/204/175 192/223/192 193/225/193
f 169/207/169 168/205/168 185/224/185 186/226/186
f 177/189/177 176/206/176 193/225/193 194/208/194
f 170/191/170 169/207/169 186/226/186 187/210/187
f 195/209/195 194/208/194 211/227/211 212/228/212
f 188/211/188 187/210/187 204/229/204 205/230/205
f 181/213/181 1/231/1 198/232/198
f 196/214/196 195/209/195 212/228/212 213/233/213
f 189/215/189 188/211/188 205/230/205 206/234/206
f 182/216/182 181/213/181 198/232/198 199/235/199
f 197/217/197 196/214/196 213/233/213 214/236/214
f 190/218/190 189/215/189 206/234/206 207/237/207
f 183/219/183 182/216/182 199/235/199 200/238/200
f 10/239/10 197/217/197 214/236/214
f 191/221/191 190/218/190 207/237/207 208/240/208
f 184/222/184 183/219/183 200/238/200 201/241/201
f 192/223/192 191/221/191 208/240/208 209/242/209
f 185/224/185 184/222/184 201/241/201 202/243/202
f 193/225/193 192/223/192 209/242/209 210/244/210
f 186/226/186 185/224/185 202/243/202 203/245/203
f 194/208/194 193/225/193 210/244/210 211/227/211
f 187/210/187 186/226/186 203/245/203 204/229/204
f 212/228/212 211/227/211 228/246/228 229/247/229
f 205/230/205 204/229/204 221/248/221 222/249/222
f 198/232/198 1/250/1 215/251/215
f 213/233/213 212/228/212 229/247/229 230/252/230
f 206/234/206 205/230/205 222/249/222 223/253/223
f 199/235/199 198/232/198 215/251/215 216/254/216
f 214/236/214 213/233/213 230/252/230 231/255/231
f 207/237/207 206/234/206 223/253/223 224/256/224
f 200/238/200 199/235/199 216/254/216 217/257/217
f 10/258/10 214/236/214 231/255/231
f 208/240/208 207/237/207 224/256/224 225/259/225
f 201/241/201 200/238/200 217/257/217 218/260/218
f 209/242/209 208/240/208 225/259/225 226/261/226
f 202/243/202 201/241/201 218/260/218 219/262/219
f 210/244/210 209/242/209 226/261/226 227/263/227
f 203/245/203 202/243/202 219/262/219 220/264/220
f 211/227/211 210/244/210 227/263/227 228/246/228
f 204/229/204 203/245/203 220/264/220 221/248/221
f 229/247/229 228/246/228 245/265/245 246/266/246
f 222/249/222 221/248/221 238/267/238 239/268/239
f 215/251/215 1/269/1 232/270/232
f 230/252/230 229/247/229 246/266/246 247/271/247
f 223/253/223 222/249/222 239/268/239 240/272/240
f 216/254/216 215/251/215 232/270/232 233/273/233
f 231/255/231 230/252/230 247/271/247 248/274/248
f 224/256/224 223/253/223 240/272/240 241/275/241
f 217/257/217 216/254/216 233/273/233 234/276/234
f 10/277/10 231/255/231 248/274/248
f 225/259/225 224/256/224 241/275/241 242/278/242
f 218/260/218 217/257/217 234/276/234 235/279/235
f 226/261/226 225/259/225 242/278/242 243/280/243
f 219/262/219 218/260/218 235/279/235 236/281/236
f 227/263/227 226/261/226 243/280/243 244/282/244
f 220/264/220 219/262/219 236/281/236 237/283/237
f 228/246/228 227/263/227 244/282/244 245/265/245
f 221/248/221 220/264/220 237/283/237 238/267/238
f 246/266/246 245/265/245 262/284/262 263/285/263
f 239/268/239 238/267/238 255/286/255 256/287/256
f 232/270/232 1/288/1 249/289/249
f 247/271/247 246/266/246 263/285/263 264/290/264
f 240/272/240 239/268/239 256/287/256 257/291/257
f 233/273/233 232/270/232 249/289/249 250/292/250
f 248/274/248 247/271/247 264/290/264 265/293/265
f 241/275/241 240/272/240 257/291/257 258/294/258
f 234/276/234 233/273/233 250/292/250 251/295/251
f 10/296/10 248/274/248 265/293/265
f 242/278/242 241/275/241 258/294/258 259/297/259
f 235/279/235 234/276/234 251/295/251 252/298/252
f 243/280/243 242/278/242 259/297/259 260/299/260
f 236/281/236 235/279/235 252/298/252 253/300/253
f 244/282/244 243/280/243 260/299/260 261/301/261
f 237/283/237 236/281/236 253/300/253 254/302/254
f 245/265/245 244/282/244 261/301/261 262/284/262
f 238/267/238 237/283/237 254/302/254 255/286/255
f 263/285/263 262/284/262 279/303/279 280/304/280
f 256/287/256 255/286/255 272/305/272 273/306/273
f 249/289/249 1/307/1 266/308/266
f 264/290/264 263/285/263 280/304/280 281/309/281
f 257/291/257 256/287/256 273/306/273 274/310/274
f 250/292/250 249/289/249 266/308/266 267/311/267
f 265/293/265 264/290/264 281/309/281 282/312/282
f 258/294/258 257/291/257 274/310/274 275/313/275
f 251/295/251 250/292/250 267/311/267 268/314/268
f 10/315/10 265/293/265 282/312/282
f 259/297/259 258/294/258 275/313/275 276/316/276
f 252/298/252 251/295/251 268/314/268 269/317/269
f 260/299/260 259/297/259 276/316/276 277/318/277
f 253/300/253 252/298/252 269/317/269 270/319/270
f 261/301/261 260/299/260 277/318/277 278/320/278
f 254/302/254 253/300/253 270/319/270 271/321/271
f 262/284/262 261/301/261 278/320/278 279/303/279
f 255/286/255 254/302/254 271/321/271 272/305/272
f 280/304/280 279/303/279 296/322/296 297/323/297
f 273/306/273 272/305/272 289/324/289 290/325/290
f 266/308/266 1/326/1 283/327/283
f 281/309/281 280/304/280 297/323/297 298/328/298
f 274/310/274 273/306/273 290/325/290 291/329/291
f 267/311/267 266/308/266 283/327/283 284/330/284
f 282/312/282 281/309/281 298/328/298 299/331/299
f 275/313/275 274/310/274 291/329/291 292/332/292
f 268/314/268 267/311/267 284/330/284 285/333/285
f 10/334/10 282/312/282 299/331/299
f 276/316/276 275/313/275 292/332/292 293/335/293
f 269/317/269 268/314/268 285/333/285 286/336/286
f 277/318/277 276/316/276 293/335/293 294/337/294
f 270/319/270 269/317/269 286/336/286 287/338/287
f 278/320/278 277/318/277 294/337/294 295/339/295
f 271/321/271 270/319/270 287/338/287 288/340/288
f 279/303/279 278/320/278 295/339/295 296/322/296
f 272/305/272 271/321/271 288/340/288 289/324/289
f 297/323/297 296/322/296 313/341/313 314/342/314
f 290/325/290 289/324/289 306/343/306 307/344/307
f 283/327/283 1/345/1 300/346/300
f 298/328/298 297/323/297 314/342/314 315/347/315
f 291/329/291 290/325/290 307/344/307 308/348/308
f 284/330/284 283/327/283 300/346/300 301/349/301
f 299/331/299 298/328/298 315/347/315 316/350/316
f 292/332/292 291/329/291 308/348/308 309/351/309
f 285/333/285 284/330/284 301/349/301 302/352/302
f 10/353/10 299/331/299 316/350/316
f 293/335/293 292/332/292 309/351/309 310/354/310
f 286/336/286 285/333/285 302/352/302 303/355/303
f 294/337/294 293/335/293 310/354/310 311/356/311
f 287/338/287 286/336/286 303/355/303 304/357/304
f 295/339/295 294/337/294 311/356/311 312/358/312
f 288/340/288 287/338/287 304/357/304 305/359/305
f 296/322/296 295/339/295 312/358/312 313/341/313
f 289/324/289 288/340/288 305/359/305 306/343/306
f 314/342/314 313/341/313 330/360/330 331/361/331
f 307/344/307 306/343/306 323/362/323 324/363/324
f 300/346/300 1/364/1 317/365/317
f 315/347/315 314/342/314 331/361/331 332/366/332
f 308/348/308 307/344/307 324/363/324 325/367/325
f 301/349/301 300/346/300 317/365/317 318/368/318
f 316/350/316 315/347/315 332/366/332 333/369/333
f 309/351/309 308/348/308 325/367/325 326/370/326
f 302/352/302 301/349/301 318/368/318 319/371/319
f 10/372/10 316/350/316 333/369/333
f 310/354/310 309/351/309 326/370/326 327/373/327
f 303/355/303 302/352/302 319/371/319 320/374/320
f 311/356/311 310/354/310 327/373/327 328/375/328
f 304/357/304 303/355/303 320/374/320 321/376/321
f 312/358/312 311/356/311 328/375/328 329/377/329
f 305/359/305 304/357/304 321/376/321 322/378/322
f 313/341/313 312/358/312 329/377/329 330/360/330
f 306/343/306 305/359/305 322/378/322 323/362/323
f 331/361/331 330/360/330 347/379/347 348/380/348
f 324/363/324 323/362/323 340/381/340 341/382/341
f 317/365/317 1/383/1 334/384/334
f 332/366/332 331/361/331 348/380/348 349/385/349
f 325/367/325 324/363/324 341/382/341 342/386/342
f 318/368/318 317/365/317 334/384/334 335/387/335
f 333/369/333 332/366/332 349/385/349 350/388/350
f 326/370/326 325/367/325 342/386/342 343/389/343
f 319/371/319 318/368/318 335/387/335 336/390/336
f 10/391/10 333/369/333 350/388/350
f 327/373/327 326/370/326 343/389/343 344/392/344
f 320/374/320 319/371/319 336/390/336 337/393/337
f 328/375/328 327/373/327 344/392/344 345/394/345
f 321/376/321 320/374/320 337/393/337 338/395/338
f 329/377/329 328/375/328 345/394/345 346/396/346
f 322/378/322 321/376/321 338/395/338 339/397/339
f 330/360/330 329/377/329 346/396/346 347/379/347
f 323/362/323 322/378/322 339/397/339 340/381/340
f 348/380/348 347/379/347 364/398/364 365/399/365
f 341/382/341 340/381/340 357/400/357 358/401/358
f 334/384/334 1/402/1 351/403/351
f 349/385/349 348/380/348 365/399/365 366/404/366
f 342/386/342 341/382/341 358/401/358 359/405/359
f 335/387/335 334/384/334 351/403/351 352/406/352
f 350/388/350 349/385/349 366/404/366 367/407/367
f 343/389/343 342/386/342 359/405/359 360/408/360
f 336/390/336 335/387/335 352/406/352 353/409/353
f 10/410/10 350/388/350 367/407/367
f 344/392/344 343/389/343 360/408/360 361/411/361
f 337/393/337 336/390/336 353/409/353 354/412/354
f 345/394/345 344/392/344 361/411/361 362/413/362
f 338/395/338 337/393/337 354/412/354 355/414/355
f 346/396/346 345/394/345 362/413/362 363/415/363
f 339/397/339 338/395/338 355/414/355 356/416/356
f 347/379/347 346/396/346 363/415/363 364/398/364
f 340/381/340 339/397/339 356/416/356 357/400/357
f 365/417/365 364/418/364 381/419/381 382/420/382
f 358/421/358 357/422/357 374/423/374 375/424/375
f 351/425/351 1/426/1 368/427/368
f 366/428/366 365/417/365 382/420/382 383/429/383
f 359/430/359 358/421/358 375/424/375 376/431/376
f 352/432/352 351/425/351 368/427/368 369/433/369
f 367/434/367 366/428/366 383/429/383 384/435/384
f 360/436/360 359/430/359 376/431/376 377/437/377
f 353/438/353 352/432/352 369/433/369 370/439/370
f 10/440/10 367/434/367 384/435/384
f 361/441/361 360/436/360 377/437/377 378/442/378
f 354/443/354 353/438/353 370/439/370 371/444/371
f 362/445/362 361/441/361 378/442/378 379/446/379
f 355/447/355 354/443/354 371/444/371 372/448/372
f 363/449/363 362/445/362 379/446/379 380/450/380
f 356/451/356 355/447/355 372/448/372 373/452/373
f 364/418/364 363/449/363 380/450/380 381/419/381
f 357/422/357 356/451/356 373/452/373 374/423/374
f 382/420/382 381/419/381 398/453/398 399/454/399
f 375/424/375 374/423/374 391/455/391 392/456/392
f 368/427/368 1/457/1 385/458/385
f 383/429/383 382/420/382 399/454/399 400/459/400
f 376/431/376 375/424/375 392/456/392 393/460/393
f 369/433/369 368/427/368 385/458/385 386/461/386
f 384/435/384 383/429/383 400/459/400 401/462/401
f 377/437/377 376/431/376 393/460/393 394/463/394
f 370/439/370 369/433/369 386/461/386 387/464/387
f 10/465/10 384/435/384 401/462/401
f 378/442/378 377/437/377 394/463/394 395/466/395
f 371/444/371 370/439/370 387/464/387 388/467/388
f 379/446/379 378/442/378 395/466/395 396/468/396
f 372/448/372 371/444/371 388/467/388 389/469/389
f 380/450/380 379/446/379 396/468/396 397/470/397
f 373/452/373 372/448/372 389/469/389 390/471/390
f 381/419/381 380/450/380 397/470/397 398/453/398
f 374/423/374 373/452/373 390/471/390 391/455/391
f 399/454/399 398/453/398 415/472/415 416/473/416
f 392/456/392 391/455/391 408/474/408 409/475/409
f 385/458/385 1/476/1 402/477/402
f 400/459/400 399/454/399 416/473/416 417/478/417
f 393/460/393 392/456/392 409/475/409 410/479/410
f 386/461/386 385/458/385 402/477/402 403/480/403
f 401/462/401 400/459/400 417/478/417 418/481/418
f 394/463/394 393/460/393 410/479/410 411/482/411
f 387/464/387 386/461/386 403/480/403 404/483/404
f 10/484/10 401/462/401 418/481/418
f 395/466/395 394/463/394 411/482/411 412/485/412
f 388/467/388 387/464/387 404/483/404 405/486/405
f 396/468/396 395/466/395 412/485/412 413/487/413
f 389/469/389 388/467/388 405/486/405 406/488/406
f 397/470/397 396/468/396 413/487/413 414/489/414
f 390/471/390 389/469/389 406/488/406 407/490/407
f 398/453/398 397/470/397 414/489/414 415/472/415
f 391/455/391 390/471/390 407/490/407 408/474/408
f 416/473/416 415/472/415 432/491/432 433/492/433
f 409/475/409 408/474/408 425/493/425 426/494/426
f 402/477/402 1/495/1 419/496/419
f 417/478/417 416/473/416 433/492/433 434/497/434
f 410/479/410 409/475/409 426/494/426 427/498/427
f 403/480/403 402/477/402 419/496/419 420/499/420
f 418/481/418 417/478/417 434/497/434 435/500/435
f 411/482/411 410/479/410 427/498/427 428/501/428
f 404/483/404 403/480/403 420/499/420 421/502/421
f 10/503/10 418/481/418 435/500/435
f 412/485/412 411/482/411 428/501/428 429/504/429
f 405/486/405 404/483/404 421/502/421 422/505/422
f 413/487/413 412/485/412 429/504/429 430/506/430
f 406/488/406 405/486/405 422/505/422 423/507/423
f 414/489/414 413/487/413 430/506/430 431/508/431
f 407/490/407 406/488/406 423/507/423 424/509/424
f 415/472/415 414/489/414 431/508/431 432/491/432
f 408/474/408 407/490/407 424/509/424 425/493/425
f 433/492/433 432/491/432 449/510/449 450/511/450
f 426/494/426 425/493/425 442/512/442 443/513/443
f 419/496/419 1/514/1 436/515/436
f 434/497/434 433/492/433 450/511/450 451/516/451
f 427/498/427 426/494/426 443/513/443 444/517/444
f 420/499/420 419/496/419 436/515/436 437/518/437
f 435/500/435 434/497/434 451/516/451 452/519/452
f 428/501/428 427/498/427 444/517/444 445/520/445
f 421/502/421 420/499/420 437/518/437 438/521/438
f 10/522/10 435/500/435 452/519/452
f 429/504/429 428/501/428 445/520/445 446/523/446
f 422/505/422 421/502/421 438/521/438 439/524/439
f 430/506/430 429/504/429 446/523/446 447/525/447
f 423/507/423 422/505/422 439/524/439 440/526/440
f 431/508/431 430/506/430 447/525/447 448/527/448
f 424/509/424 423/507/423 440/526/440 441/528/441
f 432/491/432 431/508/431 448/527/448 449/510/449
f 425/493/425 424/509/424 441/528/441 442/512/442
f 450/511/450 449/510/449 466/529/466 467/530/467
f 443/513/443 442/512/442 459/531/459 460/532/460
f 436/515/436 1/533/1 453/534/453
f 451/516/451 450/511/450 467/530/467 468/535/468
f 444/517/444 443/513/443 460/532/460 461/536/461
f 437/518/437 436/515/436 453/534/453 454/537/454
f 452/519/452 451/516/451 468/535/468 469/538/469
f 445/520/445 444/517/444 461/536/461 462/539/462
f 438/521/438 437/518/437 454/537/454 455/540/455
f 10/541/10 452/519/452 469/538/469
f 446/523/446 445/520/445 462/539/462 463/542/463
f 439/524/439 438/521/438 455/540/455 456/543/456
f 447/525/447 446/523/446 463/542/463 464/544/464
f 440/526/440 439/524/439 456/543/456 457/545/457
f 448/527/448 447/525/447 464/544/464 465/546/465
f 441/528/441 440/526/440 457/545/457 458/547/458
f 449/510/449 448/527/448 465/546/465 466/529/466
f 442/512/442 441/528/441 458/547/458 459/531/459
f 467/530/467 466/529/466 476/20/476 477/24/477
f 460/532/460 459/531/459 3/22/3 4/26/4
f 453/534/453 1/548/1 470/28/470
f 468/535/468 467/530/467 477/24/477 9/31/9
f 461/536/461 460/532/460 4/26/4 5/33/5
f 454/537/454 453/534/453 470/28/470 471/35/471
f 469/538/469 468/535/468 9/31/9 478/2/478
f 462/539/462 461/536/461 5/33/5 6/5/6
f 455/540/455 454/537/454 471/35/471 472/9/472
f 10/549/10 469/538/469 478/2/478
f 463/542/463 462/539/462 6/5/6 475/4/475
f 456/543/456 455/540/455 472/9/472 473/8/473
f 464/544/464 463/542/463 475/4/475 7/12/7
f 457/545/457 456/543/456 473/8/473 474/14/474
f 465/546/465 464/544/464 7/12/7 8/16/8
f 458/547/458 457/545/457 474/14/474 2/18/2
f 466/529/466 465/546/465 8/16/8 476/20/476
f 459/531/459 458/547/458 2/18/2 3/22/3
f 482/33/5 624/550/618 491/551/488 492/552/489
f 480/553/479 623/554/617 488/555/485 489/556/486
f 486/557/484 485/558/483 495/559/492 496/560/493
f 483/561/481 482/33/5 492/552/489 493/562/490
f 481/563/480 480/553/479 489/556/486 490/564/487
f 487/565/10 486/557/484 496/560/493
f 484/566/482 483/561/481 493/562/490 494/567/491
f 624/550/618 481/563/480 490/564/487 491/551/488
f 623/554/617 479/568/1 488/555/485
f 485/558/483 484/566/482 494/567/491 495/559/492
f 492/552/489 491/551/488 500/569/497 501/570/498
f 489/556/486 488/555/485 497/571/494 498/572/495
f 496/560/493 495/559/492 504/573/501 505/574/502
f 493/562/490 492/552/489 501/570/498 502/575/499
f 490/564/487 489/556/486 498/572/495 499/576/496
f 487/577/10 496/560/493 505/574/502
f 494/567/491 493/562/490 502/575/499 503/578/500
f 491/551/488 490/564/487 499/576/496 500/569/497
f 488/555/485 479/579/1 497/571/494
f 495/559/492 494/567/491 503/578/500 504/573/501
f 497/571/494 479/580/1 506/581/503
f 504/573/501 503/578/500 512/582/509 513/583/510
f 501/570/498 500/569/497 509/584/506 510/585/507
f 498/572/495 497/571/494 506/581/503 507/586/504
f 505/574/502 504/573/501 513/583/510 514/587/511
f 502/575/499 501/570/498 510/585/507 511/588/508
f 499/576/496 498/572/495 507/586/504 508/589/505
f 487/590/10 505/574/502 514/587/511
f 503/578/500 502/575/499 511/588/508 512/582/509
f 500/569/497 499/576/496 508/589/505 509/584/506
f 509/584/506 508/589/505 517/591/514 518/592/515
f 506/581/503 479/593/1 515/594/512
f 513/583/510 512/582/509 521/595/517 522/596/518
f 510/585/507 509/584/506 518/592/515 519/597/121
f 507/586/504 506/581/503 515/594/512 516/598/513
f 514/587/511 513/583/510 522/596/518 523/599/519
f 511/588/508 510/585/507 519/597/121 520/600/516
f 508/589/505 507/586/504 516/598/513 517/591/514
f 487/601/10 514/587/511 523/599/519
f 512/582/509 511/588/508 520/600/516 521/595/517
f 487/602/10 523/599/519 532/603/528
f 521/595/517 520/600/516 529/604/525 530/605/526
f 518/592/515 517/591/514 526/606/522 527/607/523
f 515/594/512 479/608/1 524/609/520
f 522/596/518 521/595/517 530/605/526 531/610/527
f 519/597/121 518/592/515 527/607/523 528/611/524
f 516/598/513 515/594/512 524/609/520 525/612/521
f 523/599/519 522/596/518 531/610/527 532/603/528
f 520/600/516 519/597/121 528/611/524 529/604/525
f 517/591/514 516/598/513 525/612/521 526/606/522
f 529/604/525 528/611/524 537/613/533 538/614/534
f 526/606/522 525/612/521 534/615/530 535/616/531
f 487/617/10 532/603/528 541/618/537
f 530/605/526 529/604/525 538/614/534 539/619/535
f 527/607/523 526/606/522 535/616/531 536/620/532
f 524/609/520 479/621/1 533/622/529
f 531/610/527 530/605/526 539/619/535 540/623/536
f 528/611/524 527/607/523 536/620/532 537/613/533
f 525/612/521 524/609/520 533/622/529 534/615/530
f 532/603/528 531/610/527 540/623/536 541/618/537
f 534/615/530 533/622/529 542/624/538 543/625/539
f 541/618/537 540/623/536 549/626/545 550/627/546
f 538/614/534 537/613/533 546/628/542 547/629/543
f 535/616/531 534/615/530 543/625/539 544/630/540
f 487/631/10 541/618/537 550/627/546
f 539/619/535 538/614/534 547/629/543 548/632/544
f 536/620/532 535/616/531 544/630/540 545/633/541
f 533/622/529 479/634/1 542/624/538
f 540/623/536 539/619/535 548/632/544 549/626/545
f 537/613/533 536/620/532 545/633/541 546/628/542
f 546/628/542 545/633/541 554/635/550 555/636/240
f 543/625/539 542/624/538 551/637/547 552/638/548
f 550/627/546 549/626/545 558/639/553 559/640/554
f 547/629/543 546/628/542 555/636/240 556/641/551
f 544/630/540 543/625/539 552/638/548 553/642/549
f 487/643/10 550/627/546 559/640/554
f 548/632/544 547/629/543 556/641/551 557/644/552
f 545/633/541 544/630/540 553/642/549 554/635/550
f 542/624/538 479/645/1 551/637/547
f 549/626/545 548/632/544 557/644/552 558/639/553
f 551/637/547 479/646/1 560/647/555
f 558/639/553 557/644/552 566/648/561 567/649/562
f 555/636/240 554/635/550 563/650/558 564/651/559
f 552/638/548 551/637/547 560/647/555 561/652/556
f 559/640/554 558/639/553 567/649/562 568/653/563
f 556/641/551 555/636/240 564/651/559 565/654/560
f 553/642/549 552/638/548 561/652/556 562/655/557
f 487/656/10 559/640/554 568/653/563
f 557/644/552 556/641/551 565/654/560 566/648/561
f 554/635/550 553/642/549 562/655/557 563/650/558
f 566/648/561 565/654/560 574/657/569 575/658/570
f 563/650/558 562/655/557 571/659/566 572/660/567
f 560/647/555 479/661/1 569/662/564
f 567/649/562 566/648/561 575/658/570 576/663/571
f 564/651/559 563/650/558 572/660/567 573/664/568
f 561/652/556 560/647/555 569/662/564 570/665/565
f 568/653/563 567/649/562 576/663/571 577/666/572
f 565/654/560 564/651/559 573/664/568 574/657/569
f 562/655/557 561/652/556 570/665/565 571/659/566
f 487/667/10 568/653/563 577/666/572
f 571/659/566 570/665/565 579/668/574 580/669/575
f 487/670/10 577/666/572 586/671/581
f 575/658/570 574/657/569 583/672/578 584/673/579
f 572/660/567 571/659/566 580/669/575 581/674/576
f 569/662/564 479/675/1 578/676/573
f 576/663/571 575/658/570 584/673/579 585/677/580
f 573/664/568 572/660/567 581/674/576 582/678/577
f 570/665/565 569/662/564 578/676/573 579/668/574
f 577/666/572 576/663/571 585/677/580 586/671/581
f 574/657/569 573/664/568 582/678/577 583/672/578
f 583/672/578 582/678/577 591/405/359 592/679/586
f 580/669/575 579/668/574 588/680/583 589/681/584
f 487/682/10 586/671/581 595/683/589
f 584/673/579 583/672/578 592/679/586 593/684/587
f 581/674/576 580/669/575 589/681/584 590/685/585
f 578/676/573 479/686/1 587/687/582
f 585/677/580 584/673/579 593/684/587 594/688/588
f 582/678/577 581/674/576 590/685/585 591/405/359
f 579/668/574 578/676/573 587/687/582 588/680/583
f 586/671/581 585/677/580 594/688/588 595/683/589
f 588/689/583 587/690/582 596/691/590 597/692/591
f 595/693/589 594/694/588 603/695/597 604/696/598
f 592/697/586 591/430/359 600/698/594 601/699/595
f 589/700/584 588/689/583 597/692/591 598/701/592
f 487/702/10 595/693/589 604/696/598
f 593/703/587 592/697/586 601/699/595 602/704/596
f 590/705/585 589/700/584 598/701/592 599/706/593
f 587/690/582 479/707/1 596/691/590
f 594/694/588 593/703/587 602/704/596 603/695/597
f 591/430/359 590/705/585 599/706/593 600/698/594
f 603/695/597 602/704/596 611/708/605 612/709/606
f 600/698/594 599/706/593 608/710/602 609/711/603
f 597/692/591 596/691/590 605/712/599 606/713/600
f 604/696/598 603/695/597 612/709/606 613/714/607
f 601/699/595 600/698/594 609/711/603 610/715/604
f 598/701/592 597/692/591 606/713/600 607/716/601
f 487/717/10 604/696/598 613/714/607
f 602/704/596 601/699/595 610/715/604 611/708/605
f 599/706/593 598/701/592 607/716/601 608/710/602
f 596/691/590 479/718/1 605/712/599
f 608/710/602 607/716/601 616/719/610 617/720/611
f 605/712/599 479/721/1 614/722/608
f 612/709/606 611/708/605 620/723/614 621/724/615
f 609/711/603 608/710/602 617/720/611 618/725/612
f 606/713/600 605/712/599 614/722/608 615/726/609
f 613/714/607 612/709/606 621/724/615 622/727/616
f 610/715/604 609/711/603 618/725/612 619/728/613
f 607/716/601 606/713/600 615/726/609 616/719/610
f 487/729/10 613/714/607 622/727/616
f 611/708/605 610/715/604 619/728/613 620/723/614
f 620/723/614 619/728/613 483/561/481 484/566/482
f 617/720/611 616/719/610 481/563/480 624/550/618
f 614/722/608 479/730/1 623/554/617
f 621/724/615 620/723/614 484/566/482 485/558/483
f 618/725/612 617/720/611 624/550/618 482/33/5
f 615/726/609 614/722/608 623/554/617 480/553/479
f 622/727/616 621/724/615 485/558/483 486/557/484
f 619/728/613 618/725/612 482/33/5 483/561/481
f 616/719/610 615/726/609 480/553/479 481/563/480
f 487/731/10 622/727/616 486/557/484
f 626/732/620 632/733/626 633/734/627 627/735/621
f 627/736/621 633/737/627 631/738/625 625/739/619
f 635/740/629 629/741/623 630/742/624 636/743/630
f 636/744/630 630/745/624 628/746/622 634/747/628
f 632/733/626 638/748/632 639/749/633 633/734/627
f 633/737/627 639/750/633 637/751/631 631/738/625
f 641/752/635 635/740/629 636/743/630 642/753/636
f 642/754/636 636/744/630 634/747/628 640/755/634
f 638/748/632 644/756/638 645/757/639 639/749/633
f 639/750/633 645/758/639 643/759/637 637/751/631
f 647/760/641 641/752/635 642/753/636 648/761/642
f 648/762/642 642/754/636 640/755/634 646/763/640
f 644/756/638 650/764/644 651/765/645 645/757/639
f 645/758/639 651/766/645 649/767/643 643/759/637
f 653/768/647 647/760/641 648/761/642 654/769/648
f 654/770/648 648/762/642 646/763/640 652/771/646
f 650/764/644 656/772/650 657/773/651 651/765/645
f 651/766/645 657/774/651 655/775/649 649/767/643
f 659/776/653 653/768/647 654/769/648 660/777/654
f 660/778/654 654/770/648 652/771/646 658/779/652
f 656/772/650 662/780/656 663/781/657 657/773/651
f 657/774/651 663/782/657 661/783/655 655/775/649
f 665/784/659 659/776/653 660/777/654 666/785/660
f 666/786/660 660/778/654 658/779/652 664/787/658
f 662/780/656 668/788/662 669/789/663 663/781/657
f 663/782/657 669/790/663 667/791/661 661/783/655
f 671/792/665 665/784/659 666/785/660 672/793/666
f 672/794/666 666/786/660 664/787/658 670/795/664
f 668/788/662 674/796/668 675/797/669 669/789/663
f 669/790/663 675/798/669 673/799/667 667/791/661
f 677/800/671 671/792/665 672/793/666 678/801/672
f 678/802/672 672/794/666 670/795/664 676/803/670
f 674/796/668 680/804/674 681/805/675 675/797/669
f 675/798/669 681/806/675 679/807/673 673/799/667
f 683/808/677 677/800/671 678/801/672 684/809/678
f 684/810/678 678/802/672 676/803/670 682/811/676
f 680/804/674 686/812/680 687/813/681 681/805/675
f 681/806/675 687/814/681 685/815/679 679/807/673
f 689/816/683 683/808/677 684/809/678 690/817/684
f 690/818/684 684/810/678 682/811/676 688/819/682
f 686/812/680 692/820/686 693/821/687 687/813/681
f 687/814/681 693/822/687 691/823/685 685/815/679
f 695/824/689 689/816/683 690/817/684 696/825/690
f 696/826/690 690/818/684 688/819/682 694/827/688
f 692/820/686 698/828/692 699/829/693 693/821/687
f 693/822/687 699/830/693 697/831/691 691/823/685
f 701/832/695 695/824/689 696/825/690 702/833/696
f 702/834/696 696/826/690 694/827/688 700/835/694
f 698/828/692 704/836/698 705/837/699 699/829/693
f 699/830/693 705/838/699 703/839/697 697/831/691
f 707/840/701 701/832/695 702/833/696 708/841/702
f 708/842/702 702/834/696 700/835/694 706/843/700
f 704/836/698 710/844/704 711/845/705 705/837/699
f 705/838/699 711/846/705 709/847/703 703/839/697
f 713/848/707 707/840/701 708/841/702 714/849/708
f 714/850/708 708/842/702 706/843/700 712/851/706
f 710/844/704 716/852/710 717/853/711 711/845/705
f 711/846/705 717/854/711 715/855/709 709/847/703
f 719/856/713 713/848/707 714/849/708 720/857/714
f 720/858/714 714/850/708 712/851/706 718/859/712
f 716/852/710 722/860/716 723/861/717 717/853/711
f 717/854/711 723/862/717 721/863/715 715/855/709
f 725/864/719 719/856/713 720/857/714 726/865/720
f 726/866/720 720/858/714 718/859/712 724/867/718
f 722/860/716 728/868/722 729/869/723 723/861/717
f 723/862/717 729/870/723 727/871/721 721/863/715
f 731/872/725 725/864/719 726/865/720 732/873/726
f 732/874/726 726/866/720 724/867/718 730/875/724
f 728/868/722 734/876/728 735/877/729 729/869/723
f 729/870/723 735/878/729 733/879/727 727/871/721
f 737/880/731 731/872/725 732/873/726 738/881/732
f 738/882/732 732/874/726 730/875/724 736/883/730
f 734/876/728 740/884/734 741/885/735 735/877/729
f 735/878/729 741/886/735 739/887/733 733/879/727
f 743/888/737 737/880/731 738/881/732 744/889/738
f 744/890/738 738/882/732 736/883/730 742/891/736
f 740/884/734 746/892/740 747/893/741 741/885/735
f 741/886/735 747/894/741 745/895/739 739/887/733
f 749/896/743 743/888/737 744/889/738 750/897/744
f 750/898/744 744/890/738 742/891/736 748/899/742
f 746/892/740 752/900/746 753/901/747 747/893/741
f 747/894/741 753/902/747 751/903/745 745/895/739
f 755/904/749 749/896/743 750/897/744 756/905/750
f 756/906/750 750/898/744 748/899/742 754/907/748
f 752/900/746 758/908/752 759/909/753 753/901/747
f 753/902/747 759/910/753 757/911/751 751/903/745
f 761/912/755 755/904/749 756/905/750 762/913/756
f 762/914/756 756/906/750 754/907/748 760/915/754
f 758/908/752 764/916/758 765/917/759 759/909/753
f 759/910/753 765/918/759 763/919/757 757/911/751
f 767/920/761 761/912/755 762/913/756 768/921/762
f 768/922/762 762/914/756 760/915/754 766/923/760
f 764/916/758 626/924/620 627/925/621 765/917/759
f 765/918/759 627/736/621 625/739/619 763/919/757
f 629/926/623 767/920/761 768/921/762 630/927/624
f 630/745/624 768/922/762 766/923/760 628/746/622
f 625/739/619 631/738/625 637/751/631 643/759/637 649/767/643 655/775/649 661/783/655 667/791/661 673/799/667 679/807/673 685/815/679 691/823/685 697/831/691 703/839/697 709/847/703 715/855/709 721/863/715 727/871/721 733/879/727 739/887/733 745/895/739 751/903/745 757/911/751 763/919/757
f 626/732/620 629/741/623 635/740/629 632/733/626
f 764/916/758 767/920/761 629/926/623 626/924/620
f 634/747/628 628/746/622 766/923/760 760/915/754 754/907/748 748/899/742 742/891/736 736/883/730 730/875/724 724/867/718 718/859/712 712/851/706 706/843/700 700/835/694 694/827/688 688/819/682 682/811/676 676/803/670 670/795/664 664/787/658 658/779/652 652/771/646 646/763/640 640/755/634
f 632/733/626 635/740/629 641/752/635 638/748/632
f 638/748/632 641/752/635 647/760/641 644/756/638
f 644/756/638 647/760/641 653/768/647 650/764/644
f 650/764/644 653/768/647 659/776/653 656/772/650
f 656/772/650 659/776/653 665/784/659 662/780/656
f 662/780/656 665/784/659 671/792/665 668/788/662
f 668/788/662 671/792/665 677/800/671 674/796/668
f 674/796/668 677/800/671 683/808/677 680/804/674
f 680/804/674 683/808/677 689/816/683 686/812/680
f 686/812/680 689/816/683 695/824/689 692/820/686
f 692/820/686 695/824/689 701/832/695 698/828/692
f 698/828/692 701/832/695 707/840/701 704/836/698
f 704/836/698 707/840/701 713/848/707 710/844/704
f 710/844/704 713/848/707 719/856/713 716/852/710
f 716/852/710 719/856/713 725/864/719 722/860/716
f 722/860/716 725/864/719 731/872/725 728/868/722
f 728/868/722 731/872/725 737/880/731 734/876/728
f 734/876/728 737/880/731 743/888/737 740/884/734
f 740/884/734 743/888/737 749/896/743 746/892/740
f 746/892/740 749/896/743 755/904/749 752/900/746
f 752/900/746 755/904/749 761/912/755 758/908/752
f 758/908/752 761/912/755 767/920/761 764/916/758
