# Blender 5.2.2 LTS
# www.blender.org
o LinearEgg
v -3.400000 2.500000 0.200000
v -3.400000 2.481010 0.040244
v -3.400000 2.207556 -0.391365
v -3.400000 1.467060 -0.706023
v -3.400000 0.446515 -0.504761
v -3.400000 0.292444 -0.391365
v -3.400000 0.018990 0.040244
v -3.400000 0.000000 0.200000
v -3.364451 2.481010 0.044249
v -3.329982 2.424616 -0.106769
v -3.297641 2.332532 -0.248467
v -3.268409 2.207556 -0.376538
v -3.243176 2.053484 -0.487091
v -3.222708 1.875000 -0.576767
v -3.207627 1.677525 -0.642842
v -3.198391 1.467060 -0.683307
v -3.195281 1.250000 -0.696934
v -3.198391 1.032940 -0.683307
v -3.207627 0.822475 -0.642842
v -3.222708 0.625000 -0.576767
v -3.243176 0.446515 -0.487091
v -3.268409 0.292444 -0.376538
v -3.297641 0.167468 -0.248467
v -3.329982 0.075384 -0.106769
v -3.364451 0.018990 0.044249
v -3.330685 2.481010 0.056064
v -3.263475 2.424616 -0.083498
v -3.200414 2.332532 -0.214446
v -3.143417 2.207556 -0.332801
v -3.094216 2.053484 -0.434968
v -3.054306 1.875000 -0.517841
v -3.024900 1.677525 -0.578903
v -3.006891 1.467060 -0.616299
v -3.000827 1.250000 -0.628891
v -3.006891 1.032940 -0.616299
v -3.024900 0.822475 -0.578903
v -3.054306 0.625000 -0.517841
v -3.094216 0.446515 -0.434968
v -3.143417 0.292444 -0.332801
v -3.200414 0.167468 -0.214446
v -3.263475 0.075384 -0.083498
v -3.330685 0.018990 0.056064
v -3.300394 2.481010 0.075097
v -3.203814 2.424616 -0.046010
v -3.113195 2.332532 -0.159643
v -3.031291 2.207556 -0.262348
v -2.960589 2.053484 -0.351004
v -2.903239 1.875000 -0.422919
v -2.860983 1.677525 -0.475907
v -2.835104 1.467060 -0.508357
v -2.826390 1.250000 -0.519285
v -2.835104 1.032940 -0.508357
v -2.860983 0.822475 -0.475907
v -2.903239 0.625000 -0.422919
v -2.960589 0.446515 -0.351004
v -3.031291 0.292444 -0.262348
v -3.113195 0.167468 -0.159643
v -3.203814 0.075384 -0.046010
v -3.300394 0.018990 0.075097
v -3.275098 2.481010 0.100394
v -3.153990 2.424616 0.003814
v -3.040358 2.332532 -0.086805
v -2.937653 2.207556 -0.168710
v -2.848996 2.053484 -0.239411
v -2.777081 1.875000 -0.296761
v -2.724093 1.677525 -0.339018
v -2.691643 1.467060 -0.364896
v -2.680715 1.250000 -0.373611
v -2.691643 1.032940 -0.364896
v -2.724093 0.822475 -0.339018
v -2.777081 0.625000 -0.296761
v -2.848996 0.446515 -0.239411
v -2.937653 0.292444 -0.168710
v -3.040358 0.167468 -0.086805
v -3.153990 0.075384 0.003814
v -3.275098 0.018990 0.100394
v -3.256065 2.481010 0.130684
v -3.116503 2.424616 0.063475
v -2.985555 2.332532 0.000413
v -2.867199 2.207556 -0.056584
v -2.765033 2.053484 -0.105784
v -2.682159 1.875000 -0.145694
v -2.621097 1.677525 -0.175100
v -2.583702 1.467060 -0.193109
v -2.571109 1.250000 -0.199173
v -2.583702 1.032940 -0.193109
v -2.621097 0.822475 -0.175100
v -2.682159 0.625000 -0.145694
v -2.765033 0.446515 -0.105784
v -2.867199 0.292444 -0.056584
v -2.985555 0.167468 0.000413
v -3.116503 0.075384 0.063475
v -3.256065 0.018990 0.130684
v -3.244249 2.481010 0.164451
v -3.093231 2.424616 0.129982
v -2.951533 2.332532 0.097640
v -2.823462 2.207556 0.068409
v -2.712909 2.053484 0.043176
v -2.623233 1.875000 0.022708
v -2.557158 1.677525 0.007627
v -2.516693 1.467060 -0.001609
v -2.503067 1.250000 -0.004719
v -2.516693 1.032940 -0.001609
v -2.557158 0.822475 0.007627
v -2.623233 0.625000 0.022708
v -2.712909 0.446515 0.043176
v -2.823462 0.292444 0.068409
v -2.951533 0.167468 0.097640
v -3.093231 0.075384 0.129982
v -3.244249 0.018990 0.164451
v -3.240244 2.481010 0.200000
v -3.085342 2.424616 0.200000
v -2.940000 2.332532 0.200000
v -2.808636 2.207556 0.200000
v -2.695240 2.053484 0.200000
v -2.603257 1.875000 0.200000
v -2.535483 1.677525 0.200000
v -2.493977 1.467060 0.200000
v -2.480000 1.250000 0.200000
v -2.493977 1.032940 0.200000
v -2.535483 0.822475 0.200000
v -2.603257 0.625000 0.200000
v -2.695240 0.446515 0.200000
v -2.808636 0.292444 0.200000
v -2.940000 0.167468 0.200000
v -3.085342 0.075384 0.200000
v -3.240244 0.018990 0.200000
v -3.244249 2.481010 0.235549
v -3.093231 2.424616 0.270018
v -2.951534 2.332532 0.302360
v -2.823462 2.207556 0.331591
v -2.712909 2.053484 0.356824
v -2.623233 1.875000 0.377292
v -2.557158 1.677525 0.392373
v -2.516693 1.467060 0.401609
v -2.503067 1.250000 0.404719
v -2.516693 1.032940 0.401609
v -2.557158 0.822475 0.392373
v -2.623233 0.625000 0.377292
v -2.712909 0.446515 0.356824
v -2.823462 0.292444 0.331591
v -2.951534 0.167468 0.302360
v -3.093231 0.075384 0.270018
v -3.244249 0.018990 0.235549
v -3.256065 2.481010 0.269316
v -3.116503 2.424616 0.336525
v -2.985555 2.332532 0.399586
v -2.867199 2.207556 0.456583
v -2.765033 2.053484 0.505784
v -2.682159 1.875000 0.545694
v -2.621097 1.677525 0.575100
v -2.583702 1.467060 0.593109
v -2.571109 1.250000 0.599173
v -2.583702 1.032940 0.593109
v -2.621097 0.822475 0.575100
v -2.682159 0.625000 0.545694
v -2.765033 0.446515 0.505784
v -2.867199 0.292444 0.456583
v -2.985555 0.167468 0.399586
v -3.116503 0.075384 0.336525
v -3.256065 0.018990 0.269316
v -3.275098 2.481010 0.299606
v -3.153990 2.424616 0.396186
v -3.040358 2.332532 0.486805
v -2.937653 2.207556 0.568710
v -2.848996 2.053484 0.639411
v -2.777081 1.875000 0.696761
v -2.724093 1.677525 0.739018
v -2.691643 1.467060 0.764896
v -2.680715 1.250000 0.773610
v -2.691643 1.032940 0.764896
v -2.724093 0.822475 0.739018
v -2.777081 0.625000 0.696761
v -2.848996 0.446515 0.639411
v -2.937653 0.292444 0.568710
v -3.040358 0.167468 0.486805
v -3.153990 0.075384 0.396186
v -3.275098 0.018990 0.299606
v -3.300394 2.481010 0.324903
v -3.203814 2.424616 0.446010
v -3.113195 2.332532 0.559642
v -3.031291 2.207556 0.662347
v -2.960589 2.053484 0.751004
v -2.903239 1.875000 0.822919
v -2.860983 1.677525 0.875907
v -2.835104 1.467060 0.908357
v -2.826390 1.250000 0.919285
v -2.835104 1.032940 0.908357
v -2.860983 0.822475 0.875907
v -2.903239 0.625000 0.822919
v -2.960589 0.446515 0.751004
v -3.031291 0.292444 0.662347
v -3.113195 0.167468 0.559642
v -3.203814 0.075384 0.446010
v -3.300394 0.018990 0.324903
v -3.330684 2.481010 0.343935
v -3.263475 2.424616 0.483498
v -3.200414 2.332532 0.614446
v -3.143417 2.207556 0.732801
v -3.094216 2.053484 0.834967
v -3.054306 1.875000 0.917841
v -3.024900 1.677525 0.978903
v -3.006891 1.467060 1.016299
v -3.000827 1.250000 1.028891
v -3.006891 1.032940 1.016299
v -3.024900 0.822475 0.978903
v -3.054306 0.625000 0.917841
v -3.094216 0.446515 0.834967
v -3.143417 0.292444 0.732801
v -3.200414 0.167468 0.614446
v -3.263475 0.075384 0.483498
v -3.330684 0.018990 0.343935
v -3.364451 2.481010 0.355751
v -3.329982 2.424616 0.506769
v -3.297641 2.332532 0.648467
v -3.268409 2.207556 0.776538
v -3.243176 2.053484 0.887091
v -3.222708 1.875000 0.976767
v -3.207627 1.677525 1.042842
v -3.198391 1.467060 1.083307
v -3.195281 1.250000 1.096933
v -3.198391 1.032940 1.083307
v -3.207627 0.822475 1.042842
v -3.222708 0.625000 0.976767
v -3.243176 0.446515 0.887091
v -3.268409 0.292444 0.776538
v -3.297641 0.167468 0.648467
v -3.329982 0.075384 0.506769
v -3.364451 0.018990 0.355751
v -3.400000 2.481010 0.359756
v -3.400000 2.424616 0.514658
v -3.400000 2.332532 0.660000
v -3.400000 2.207556 0.791364
v -3.400000 2.053484 0.904761
v -3.400000 1.875000 0.996743
v -3.400000 1.677525 1.064517
v -3.400000 1.467060 1.106023
v -3.400000 1.250000 1.120000
v -3.400000 1.032940 1.106023
v -3.400000 0.822475 1.064517
v -3.400000 0.625000 0.996743
v -3.400000 0.446515 0.904761
v -3.400000 0.292444 0.791364
v -3.400000 0.167468 0.660000
v -3.400000 0.075384 0.514658
v -3.400000 0.018990 0.359756
v -3.435549 2.481010 0.355751
v -3.470018 2.424616 0.506769
v -3.502360 2.332532 0.648467
v -3.531591 2.207556 0.776538
v -3.556824 2.053484 0.887091
v -3.577292 1.875000 0.976767
v -3.592373 1.677525 1.042842
v -3.601609 1.467060 1.083307
v -3.604719 1.250000 1.096933
v -3.601609 1.032940 1.083307
v -3.592373 0.822475 1.042842
v -3.577292 0.625000 0.976767
v -3.556824 0.446515 0.887091
v -3.531591 0.292444 0.776538
v -3.502360 0.167468 0.648467
v -3.470018 0.075384 0.506769
v -3.435549 0.018990 0.355751
v -3.469316 2.481010 0.343935
v -3.536525 2.424616 0.483497
v -3.599587 2.332532 0.614446
v -3.656584 2.207556 0.732801
v -3.705784 2.053484 0.834967
v -3.745694 1.875000 0.917841
v -3.775100 1.677525 0.978903
v -3.793109 1.467060 1.016299
v -3.799173 1.250000 1.028891
v -3.793109 1.032940 1.016299
v -3.775100 0.822475 0.978903
v -3.745694 0.625000 0.917841
v -3.705784 0.446515 0.834967
v -3.656584 0.292444 0.732801
v -3.599587 0.167468 0.614446
v -3.536525 0.075384 0.483497
v -3.469316 0.018990 0.343935
v -3.499607 2.481010 0.324903
v -3.596187 2.424616 0.446010
v -3.686805 2.332532 0.559642
v -3.768710 2.207556 0.662347
v -3.839411 2.053484 0.751004
v -3.896761 1.875000 0.822919
v -3.939018 1.677525 0.875907
v -3.964896 1.467060 0.908357
v -3.973611 1.250000 0.919285
v -3.964896 1.032940 0.908357
v -3.939018 0.822475 0.875907
v -3.896761 0.625000 0.822919
v -3.839411 0.446515 0.751004
v -3.768710 0.292444 0.662347
v -3.686805 0.167468 0.559642
v -3.596187 0.075384 0.446010
v -3.499607 0.018990 0.324903
v -3.524903 2.481010 0.299606
v -3.646010 2.424616 0.396186
v -3.759643 2.332532 0.486805
v -3.862348 2.207556 0.568710
v -3.951004 2.053484 0.639411
v -4.022919 1.875000 0.696761
v -4.075907 1.677525 0.739018
v -4.108357 1.467060 0.764896
v -4.119285 1.250000 0.773610
v -4.108357 1.032940 0.764896
v -4.075907 0.822475 0.739018
v -4.022919 0.625000 0.696761
v -3.951004 0.446515 0.639411
v -3.862348 0.292444 0.568710
v -3.759643 0.167468 0.486805
v -3.646010 0.075384 0.396186
v -3.524903 0.018990 0.299606
v -3.543936 2.481010 0.269316
v -3.683498 2.424616 0.336525
v -3.814446 2.332532 0.399586
v -3.932801 2.207556 0.456583
v -4.034967 2.053484 0.505784
v -4.117841 1.875000 0.545694
v -4.178903 1.677525 0.575100
v -4.216299 1.467060 0.593109
v -4.228891 1.250000 0.599173
v -4.216299 1.032940 0.593109
v -4.178903 0.822475 0.575100
v -4.117841 0.625000 0.545694
v -4.034967 0.446515 0.505784
v -3.932801 0.292444 0.456583
v -3.814446 0.167468 0.399586
v -3.683498 0.075384 0.336525
v -3.543936 0.018990 0.269316
v -3.555751 2.481010 0.235549
v -3.706769 2.424616 0.270018
v -3.848467 2.332532 0.302360
v -3.976538 2.207556 0.331591
v -4.087091 2.053484 0.356824
v -4.176767 1.875000 0.377292
v -4.242842 1.677525 0.392373
v -4.283307 1.467060 0.401609
v -4.296934 1.250000 0.404719
v -4.283307 1.032940 0.401609
v -4.242842 0.822475 0.392373
v -4.176767 0.625000 0.377292
v -4.087091 0.446515 0.356824
v -3.976538 0.292444 0.331591
v -3.848467 0.167468 0.302360
v -3.706769 0.075384 0.270018
v -3.555751 0.018990 0.235549
v -3.559757 2.481010 0.200000
v -3.714659 2.424616 0.200000
v -3.860000 2.332532 0.200000
v -3.991365 2.207556 0.200000
v -4.104761 2.053484 0.200000
v -4.196743 1.875000 0.200000
v -4.264517 1.677525 0.200000
v -4.306023 1.467060 0.200000
v -4.320000 1.250000 0.200000
v -4.306023 1.032940 0.200000
v -4.264517 0.822475 0.200000
v -4.196743 0.625000 0.200000
v -4.104761 0.446515 0.200000
v -3.991365 0.292444 0.200000
v -3.860000 0.167468 0.200000
v -3.714659 0.075384 0.200000
v -3.559757 0.018990 0.200000
v -3.555751 2.481010 0.164451
v -3.706769 2.424616 0.129982
v -3.848467 2.332532 0.097640
v -3.976538 2.207556 0.068409
v -4.087091 2.053484 0.043176
v -4.176767 1.875000 0.022708
v -4.242842 1.677525 0.007627
v -4.283307 1.467060 -0.001609
v -4.296934 1.250000 -0.004719
v -4.283307 1.032940 -0.001609
v -4.242842 0.822475 0.007627
v -4.176767 0.625000 0.022708
v -4.087091 0.446515 0.043176
v -3.976538 0.292444 0.068409
v -3.848467 0.167468 0.097640
v -3.706769 0.075384 0.129982
v -3.555751 0.018990 0.164451
v -3.543936 2.481010 0.130684
v -3.683498 2.424616 0.063475
v -3.814446 2.332532 0.000414
v -3.932801 2.207556 -0.056584
v -4.034967 2.053484 -0.105784
v -4.117841 1.875000 -0.145694
v -4.178903 1.677525 -0.175100
v -4.216299 1.467060 -0.193109
v -4.228891 1.250000 -0.199173
v -4.216299 1.032940 -0.193109
v -4.178903 0.822475 -0.175100
v -4.117841 0.625000 -0.145694
v -4.034967 0.446515 -0.105784
v -3.932801 0.292444 -0.056584
v -3.814446 0.167468 0.000414
v -3.683498 0.075384 0.063475
v -3.543936 0.018990 0.130684
v -3.524903 2.481010 0.100394
v -3.646010 2.424616 0.003814
v -3.759643 2.332532 -0.086805
v -3.862348 2.207556 -0.168710
v -3.951004 2.053484 -0.239411
v -4.022919 1.875000 -0.296761
v -4.075907 1.677525 -0.339018
v -4.108357 1.467060 -0.364896
v -4.119285 1.250000 -0.373610
v -4.108357 1.032940 -0.364896
v -4.075907 0.822475 -0.339018
v -4.022919 0.625000 -0.296761
v -3.951004 0.446515 -0.239411
v -3.862348 0.292444 -0.168710
v -3.759643 0.167468 -0.086805
v -3.646010 0.075384 0.003814
v -3.524903 0.018990 0.100394
v -3.499607 2.481010 0.075097
v -3.596187 2.424616 -0.046010
v -3.686805 2.332532 -0.159642
v -3.768710 2.207556 -0.262348
v -3.839411 2.053484 -0.351004
v -3.896761 1.875000 -0.422919
v -3.939018 1.677525 -0.475907
v -3.964896 1.467060 -0.508357
v -3.973611 1.250000 -0.519285
v -3.964896 1.032940 -0.508357
v -3.939018 0.822475 -0.475907
v -3.896761 0.625000 -0.422919
v -3.839411 0.446515 -0.351004
v -3.768710 0.292444 -0.262348
v -3.686805 0.167468 -0.159642
v -3.596187 0.075384 -0.046010
v -3.499607 0.018990 0.075097
v -3.469316 2.481010 0.056064
v -3.536525 2.424616 -0.083498
v -3.599587 2.332532 -0.214446
v -3.656584 2.207556 -0.332801
v -3.705784 2.053484 -0.434967
v -3.745694 1.875000 -0.517841
v -3.775100 1.677525 -0.578903
v -3.793109 1.467060 -0.616299
v -3.799173 1.250000 -0.628891
v -3.793109 1.032940 -0.616299
v -3.775100 0.822475 -0.578903
v -3.745694 0.625000 -0.517841
v -3.705784 0.446515 -0.434967
v -3.656584 0.292444 -0.332801
v -3.599587 0.167468 -0.214446
v -3.536525 0.075384 -0.083498
v -3.469316 0.018990 0.056064
v -3.435549 2.481010 0.044249
v -3.470018 2.424616 -0.106769
v -3.502360 2.332532 -0.248467
v -3.531591 2.207556 -0.376538
v -3.556824 2.053484 -0.487091
v -3.577292 1.875000 -0.576767
v -3.592373 1.677525 -0.642842
v -3.601609 1.467060 -0.683307
v -3.604719 1.250000 -0.696933
v -3.601609 1.032940 -0.683307
v -3.592373 0.822475 -0.642842
v -3.577292 0.625000 -0.576767
v -3.556824 0.446515 -0.487091
v -3.531591 0.292444 -0.376538
v -3.502360 0.167468 -0.248467
v -3.470018 0.075384 -0.106769
v -3.435549 0.018990 0.044249
v -3.400000 2.424616 -0.114658
v -3.400000 2.332532 -0.260000
v -3.400000 2.053484 -0.504760
v -3.400000 1.875000 -0.596743
v -3.400000 1.677525 -0.664517
v -3.400000 1.250000 -0.720000
v -3.400000 1.032940 -0.706023
v -3.400000 0.822475 -0.664517
v -3.400000 0.625000 -0.596743
v -3.400000 0.167468 -0.260000
v -3.400000 0.075384 -0.114658
v -3.400000 1.070000 -0.549741
v -3.400000 1.100000 -0.580000
v -3.400000 1.078787 -0.571137
v -3.400000 1.230000 -0.549741
v -3.400000 1.200000 -0.580000
v -3.400000 1.221213 -0.571137
v -3.205953 1.070000 -0.524194
v -3.198121 1.100000 -0.553422
v -3.200415 1.078787 -0.544861
v -3.205953 1.230000 -0.524194
v -3.198121 1.200000 -0.553422
v -3.200415 1.221213 -0.544861
v -3.025130 1.070000 -0.449295
v -3.010000 1.100000 -0.475500
v -3.014431 1.078787 -0.467825
v -3.025130 1.230000 -0.449295
v -3.010000 1.200000 -0.475500
v -3.014431 1.221213 -0.467825
v -2.869853 1.070000 -0.330147
v -2.848457 1.100000 -0.351543
v -2.854724 1.078787 -0.345276
v -2.869853 1.230000 -0.330147
v -2.848457 1.200000 -0.351543
v -2.854724 1.221213 -0.345276
v -2.750705 1.070000 -0.174871
v -2.724500 1.100000 -0.190000
v -2.732176 1.078787 -0.185569
v -2.750705 1.230000 -0.174871
v -2.724500 1.200000 -0.190000
v -2.732176 1.221213 -0.185569
v -2.675806 1.070000 0.005953
v -2.646578 1.100000 -0.001879
v -2.655139 1.078787 0.000415
v -2.675806 1.230000 0.005953
v -2.646578 1.200000 -0.001879
v -2.655139 1.221213 0.000415
v -2.650259 1.070000 0.200000
v -2.620000 1.100000 0.200000
v -2.628863 1.078787 0.200000
v -2.650259 1.230000 0.200000
v -2.620000 1.200000 0.200000
v -2.628863 1.221213 0.200000
v -2.675806 1.070000 0.394047
v -2.646578 1.100000 0.401879
v -2.655139 1.078787 0.399585
v -2.675806 1.230000 0.394047
v -2.646578 1.200000 0.401879
v -2.655139 1.221213 0.399585
v -2.750705 1.070000 0.574870
v -2.724500 1.100000 0.590000
v -2.732176 1.078787 0.585569
v -2.750705 1.230000 0.574870
v -2.724500 1.200000 0.590000
v -2.732176 1.221213 0.585569
v -2.869853 1.070000 0.730147
v -2.848457 1.100000 0.751543
v -2.854724 1.078787 0.745276
v -2.869853 1.230000 0.730147
v -2.848457 1.200000 0.751543
v -2.854724 1.221213 0.745276
v -3.025130 1.070000 0.849295
v -3.010000 1.100000 0.875500
v -3.014431 1.078787 0.867824
v -3.025130 1.230000 0.849295
v -3.010000 1.200000 0.875500
v -3.014431 1.221213 0.867824
v -3.205953 1.070000 0.924194
v -3.198121 1.100000 0.953422
v -3.200415 1.078787 0.944861
v -3.205953 1.230000 0.924194
v -3.198121 1.200000 0.953422
v -3.200415 1.221213 0.944861
v -3.400000 1.070000 0.949741
v -3.400000 1.100000 0.980000
v -3.400000 1.078787 0.971137
v -3.400000 1.230000 0.949741
v -3.400000 1.200000 0.980000
v -3.400000 1.221213 0.971137
v -3.594048 1.070000 0.924194
v -3.601879 1.100000 0.953422
v -3.599585 1.078787 0.944861
v -3.594048 1.230000 0.924194
v -3.601879 1.200000 0.953422
v -3.599585 1.221213 0.944861
v -3.774871 1.070000 0.849295
v -3.790000 1.100000 0.875500
v -3.785569 1.078787 0.867824
v -3.774871 1.230000 0.849295
v -3.790000 1.200000 0.875500
v -3.785569 1.221213 0.867824
v -3.930147 1.070000 0.730147
v -3.951543 1.100000 0.751543
v -3.945277 1.078787 0.745276
v -3.930147 1.230000 0.730147
v -3.951543 1.200000 0.751543
v -3.945277 1.221213 0.745276
v -4.049295 1.070000 0.574870
v -4.075500 1.100000 0.590000
v -4.067825 1.078787 0.585569
v -4.049295 1.230000 0.574870
v -4.075500 1.200000 0.590000
v -4.067825 1.221213 0.585569
v -4.124195 1.070000 0.394047
v -4.153422 1.100000 0.401879
v -4.144862 1.078787 0.399585
v -4.124195 1.230000 0.394047
v -4.153422 1.200000 0.401879
v -4.144862 1.221213 0.399585
v -4.149741 1.070000 0.200000
v -4.180000 1.100000 0.200000
v -4.171137 1.078787 0.200000
v -4.149741 1.230000 0.200000
v -4.180000 1.200000 0.200000
v -4.171137 1.221213 0.200000
v -4.124195 1.070000 0.005953
v -4.153422 1.100000 -0.001879
v -4.144862 1.078787 0.000415
v -4.124195 1.230000 0.005953
v -4.153422 1.200000 -0.001879
v -4.144862 1.221213 0.000415
v -4.049295 1.070000 -0.174871
v -4.075500 1.100000 -0.190000
v -4.067825 1.078787 -0.185569
v -4.049295 1.230000 -0.174871
v -4.075500 1.200000 -0.190000
v -4.067825 1.221213 -0.185569
v -3.930147 1.070000 -0.330147
v -3.951543 1.100000 -0.351543
v -3.945277 1.078787 -0.345276
v -3.930147 1.230000 -0.330147
v -3.951543 1.200000 -0.351543
v -3.945277 1.221213 -0.345276
v -3.774871 1.070000 -0.449295
v -3.790000 1.100000 -0.475500
v -3.785569 1.078787 -0.467825
v -3.774871 1.230000 -0.449295
v -3.790000 1.200000 -0.475500
v -3.785569 1.221213 -0.467825
v -3.594048 1.070000 -0.524194
v -3.601879 1.100000 -0.553422
v -3.599585 1.078787 -0.544861
v -3.594048 1.230000 -0.524194
v -3.601879 1.200000 -0.553422
v -3.599585 1.221213 -0.544861
vn -0.0000 1.0000 -0.0000
vn -0.0000 0.9709 -0.2394
vn -0.0000 0.6581 -0.7529
vn -0.0000 0.1286 -0.9917
vn -0.0000 -0.5246 -0.8514
vn -0.0000 -0.6581 -0.7529
vn -0.0000 -0.9709 -0.2394
vn -0.0000 -1.0000 -0.0000
vn 0.0533 0.9709 -0.2334
vn 0.0995 0.8944 -0.4361
vn 0.1378 0.7850 -0.6039
vn 0.1675 0.6581 -0.7341
vn 0.1894 0.5246 -0.8300
vn 0.2048 0.3905 -0.8975
vn 0.2150 0.2584 -0.9418
vn 0.2207 0.1286 -0.9668
vn 0.2225 -0.0000 -0.9749
vn 0.2207 -0.1286 -0.9668
vn 0.2150 -0.2584 -0.9418
vn 0.2048 -0.3905 -0.8975
vn 0.1894 -0.5246 -0.8300
vn 0.1675 -0.6581 -0.7341
vn 0.1378 -0.7850 -0.6039
vn 0.0995 -0.8944 -0.4361
vn 0.0533 -0.9709 -0.2334
vn 0.1039 0.9709 -0.2157
vn 0.1941 0.8944 -0.4030
vn 0.2688 0.7850 -0.5581
vn 0.3267 0.6581 -0.6784
vn 0.3694 0.5246 -0.7671
vn 0.3994 0.3905 -0.8294
vn 0.4191 0.2584 -0.8704
vn 0.4303 0.1286 -0.8935
vn 0.4339 -0.0000 -0.9010
vn 0.4303 -0.1286 -0.8935
vn 0.4191 -0.2584 -0.8704
vn 0.3994 -0.3905 -0.8294
vn 0.3694 -0.5246 -0.7671
vn 0.3267 -0.6581 -0.6784
vn 0.2688 -0.7850 -0.5581
vn 0.1941 -0.8944 -0.4030
vn 0.1039 -0.9709 -0.2157
vn 0.1492 0.9709 -0.1871
vn 0.2789 0.8944 -0.3498
vn 0.3862 0.7850 -0.4843
vn 0.4694 0.6581 -0.5887
vn 0.5308 0.5246 -0.6656
vn 0.5740 0.3905 -0.7197
vn 0.6023 0.2584 -0.7553
vn 0.6183 0.1286 -0.7753
vn 0.6235 -0.0000 -0.7818
vn 0.6183 -0.1286 -0.7753
vn 0.6023 -0.2584 -0.7553
vn 0.5740 -0.3905 -0.7197
vn 0.5308 -0.5246 -0.6656
vn 0.4694 -0.6581 -0.5887
vn 0.3862 -0.7850 -0.4843
vn 0.2789 -0.8944 -0.3498
vn 0.1492 -0.9709 -0.1871
vn 0.1871 0.9709 -0.1492
vn 0.3498 0.8944 -0.2789
vn 0.4843 0.7850 -0.3862
vn 0.5887 0.6581 -0.4694
vn 0.6656 0.5246 -0.5308
vn 0.7197 0.3905 -0.5740
vn 0.7553 0.2584 -0.6023
vn 0.7753 0.1286 -0.6183
vn 0.7818 -0.0000 -0.6235
vn 0.7753 -0.1286 -0.6183
vn 0.7553 -0.2584 -0.6023
vn 0.7197 -0.3905 -0.5740
vn 0.6656 -0.5246 -0.5308
vn 0.5887 -0.6581 -0.4694
vn 0.4843 -0.7850 -0.3862
vn 0.3498 -0.8944 -0.2789
vn 0.1871 -0.9709 -0.1492
vn 0.2157 0.9709 -0.1039
vn 0.4030 0.8944 -0.1941
vn 0.5581 0.7850 -0.2688
vn 0.6784 0.6581 -0.3267
vn 0.7671 0.5246 -0.3694
vn 0.8294 0.3905 -0.3994
vn 0.8704 0.2584 -0.4191
vn 0.8935 0.1286 -0.4303
vn 0.9010 -0.0000 -0.4339
vn 0.8935 -0.1286 -0.4303
vn 0.8704 -0.2584 -0.4191
vn 0.8294 -0.3905 -0.3994
vn 0.7671 -0.5246 -0.3694
vn 0.6784 -0.6581 -0.3267
vn 0.5581 -0.7850 -0.2688
vn 0.4030 -0.8944 -0.1941
vn 0.2157 -0.9709 -0.1039
vn 0.2334 0.9709 -0.0533
vn 0.4361 0.8944 -0.0995
vn 0.6039 0.7850 -0.1378
vn 0.7341 0.6581 -0.1675
vn 0.8300 0.5246 -0.1894
vn 0.8975 0.3905 -0.2048
vn 0.9418 0.2584 -0.2150
vn 0.9668 0.1286 -0.2207
vn 0.9749 -0.0000 -0.2225
vn 0.9668 -0.1286 -0.2207
vn 0.9418 -0.2584 -0.2150
vn 0.8975 -0.3905 -0.2048
vn 0.8300 -0.5246 -0.1894
vn 0.7341 -0.6581 -0.1675
vn 0.6039 -0.7850 -0.1378
vn 0.4361 -0.8944 -0.0995
vn 0.2334 -0.9709 -0.0533
vn 0.2394 0.9709 -0.0000
vn 0.4473 0.8944 -0.0000
vn 0.6195 0.7850 -0.0000
vn 0.7529 0.6581 -0.0000
vn 0.8514 0.5246 -0.0000
vn 0.9206 0.3905 -0.0000
vn 0.9660 0.2584 -0.0000
vn 0.9917 0.1286 -0.0000
vn 1.0000 -0.0000 -0.0000
vn 0.9917 -0.1286 -0.0000
vn 0.9660 -0.2584 -0.0000
vn 0.9206 -0.3905 -0.0000
vn 0.8514 -0.5246 -0.0000
vn 0.7529 -0.6581 -0.0000
vn 0.6195 -0.7850 -0.0000
vn 0.4473 -0.8944 -0.0000
vn 0.2394 -0.9709 -0.0000
vn 0.2334 0.9709 0.0533
vn 0.4361 0.8944 0.0995
vn 0.6039 0.7850 0.1378
vn 0.7341 0.6581 0.1675
vn 0.8300 0.5246 0.1894
vn 0.8975 0.3905 0.2048
vn 0.9418 0.2584 0.2150
vn 0.9668 0.1286 0.2207
vn 0.9749 -0.0000 0.2225
vn 0.9668 -0.1286 0.2207
vn 0.9418 -0.2584 0.2150
vn 0.8975 -0.3905 0.2048
vn 0.8300 -0.5246 0.1894
vn 0.7341 -0.6581 0.1675
vn 0.6039 -0.7850 0.1378
vn 0.4361 -0.8944 0.0995
vn 0.2334 -0.9709 0.0533
vn 0.2157 0.9709 0.1039
vn 0.4030 0.8944 0.1941
vn 0.5581 0.7850 0.2688
vn 0.6784 0.6581 0.3267
vn 0.7671 0.5246 0.3694
vn 0.8294 0.3905 0.3994
vn 0.8704 0.2584 0.4191
vn 0.8935 0.1286 0.4303
vn 0.9010 -0.0000 0.4339
vn 0.8935 -0.1286 0.4303
vn 0.8704 -0.2584 0.4191
vn 0.8294 -0.3905 0.3994
vn 0.7671 -0.5246 0.3694
vn 0.6784 -0.6581 0.3267
vn 0.5581 -0.7850 0.2688
vn 0.4030 -0.8944 0.1941
vn 0.2157 -0.9709 0.1039
vn 0.1871 0.9709 0.1492
vn 0.3498 0.8944 0.2789
vn 0.4843 0.7850 0.3862
vn 0.5887 0.6581 0.4694
vn 0.6656 0.5246 0.5308
vn 0.7197 0.3905 0.5740
vn 0.7553 0.2584 0.6023
vn 0.7753 0.1286 0.6183
vn 0.7818 -0.0000 0.6235
vn 0.7753 -0.1286 0.6183
vn 0.7553 -0.2584 0.6023
vn 0.7197 -0.3905 0.5740
vn 0.6656 -0.5246 0.5308
vn 0.5887 -0.6581 0.4694
vn 0.4843 -0.7850 0.3862
vn 0.3498 -0.8944 0.2789
vn 0.1871 -0.9709 0.1492
vn 0.1492 0.9709 0.1871
vn 0.2789 0.8944 0.3498
vn 0.3862 0.7850 0.4843
vn 0.4694 0.6581 0.5887
vn 0.5308 0.5246 0.6656
vn 0.5740 0.3905 0.7197
vn 0.6023 0.2584 0.7553
vn 0.6183 0.1286 0.7753
vn 0.6235 -0.0000 0.7818
vn 0.6183 -0.1286 0.7753
vn 0.6023 -0.2584 0.7553
vn 0.5740 -0.3905 0.7197
vn 0.5308 -0.5246 0.6656
vn 0.4694 -0.6581 0.5887
vn 0.3862 -0.7850 0.4843
vn 0.2789 -0.8944 0.3498
vn 0.1492 -0.9709 0.1871
vn 0.1039 0.9709 0.2157
vn 0.1941 0.8944 0.4030
vn 0.2688 0.7850 0.5581
vn 0.3267 0.6581 0.6784
vn 0.3694 0.5246 0.7671
vn 0.3994 0.3905 0.8294
vn 0.4191 0.2584 0.8704
vn 0.4303 0.1286 0.8935
vn 0.4339 -0.0000 0.9010
vn 0.4303 -0.1286 0.8935
vn 0.4191 -0.2584 0.8704
vn 0.3994 -0.3905 0.8294
vn 0.3694 -0.5246 0.7671
vn 0.3267 -0.6581 0.6784
vn 0.2688 -0.7850 0.5581
vn 0.1941 -0.8944 0.4030
vn 0.1039 -0.9709 0.2157
vn 0.0533 0.9709 0.2334
vn 0.0995 0.8944 0.4361
vn 0.1378 0.7850 0.6039
vn 0.1675 0.6581 0.7341
vn 0.1894 0.5246 0.8300
vn 0.2048 0.3905 0.8975
vn 0.2150 0.2584 0.9418
vn 0.2207 0.1286 0.9668
vn 0.2225 -0.0000 0.9749
vn 0.2207 -0.1286 0.9668
vn 0.2150 -0.2584 0.9418
vn 0.2048 -0.3905 0.8975
vn 0.1894 -0.5246 0.8300
vn 0.1675 -0.6581 0.7341
vn 0.1378 -0.7850 0.6039
vn 0.0995 -0.8944 0.4361
vn 0.0533 -0.9709 0.2334
vn -0.0000 0.9709 0.2394
vn -0.0000 0.8944 0.4473
vn -0.0000 0.7850 0.6195
vn -0.0000 0.6581 0.7529
vn -0.0000 0.5246 0.8514
vn -0.0000 0.3905 0.9206
vn -0.0000 0.2584 0.9660
vn -0.0000 0.1286 0.9917
vn -0.0000 -0.0000 1.0000
vn -0.0000 -0.1286 0.9917
vn -0.0000 -0.2584 0.9660
vn -0.0000 -0.3905 0.9206
vn -0.0000 -0.5246 0.8514
vn -0.0000 -0.6581 0.7529
vn -0.0000 -0.7850 0.6195
vn -0.0000 -0.8944 0.4473
vn -0.0000 -0.9709 0.2394
vn -0.0533 0.9709 0.2334
vn -0.0995 0.8944 0.4361
vn -0.1378 0.7850 0.6039
vn -0.1675 0.6581 0.7341
vn -0.1894 0.5246 0.8300
vn -0.2048 0.3905 0.8975
vn -0.2150 0.2584 0.9418
vn -0.2207 0.1286 0.9668
vn -0.2225 -0.0000 0.9749
vn -0.2207 -0.1286 0.9668
vn -0.2150 -0.2584 0.9418
vn -0.2048 -0.3905 0.8975
vn -0.1894 -0.5246 0.8300
vn -0.1675 -0.6581 0.7341
vn -0.1378 -0.7850 0.6039
vn -0.0995 -0.8944 0.4361
vn -0.0533 -0.9709 0.2334
vn -0.1039 0.9709 0.2157
vn -0.1941 0.8944 0.4030
vn -0.2688 0.7850 0.5581
vn -0.3267 0.6581 0.6784
vn -0.3694 0.5246 0.7671
vn -0.3994 0.3905 0.8294
vn -0.4191 0.2584 0.8704
vn -0.4303 0.1286 0.8935
vn -0.4339 -0.0000 0.9010
vn -0.4303 -0.1286 0.8935
vn -0.4191 -0.2584 0.8704
vn -0.3994 -0.3905 0.8294
vn -0.3694 -0.5246 0.7671
vn -0.3267 -0.6581 0.6784
vn -0.2688 -0.7850 0.5581
vn -0.1941 -0.8944 0.4030
vn -0.1039 -0.9709 0.2157
vn -0.1492 0.9709 0.1871
vn -0.2789 0.8944 0.3498
vn -0.3862 0.7850 0.4843
vn -0.4694 0.6581 0.5887
vn -0.5308 0.5246 0.6656
vn -0.5740 0.3905 0.7197
vn -0.6023 0.2584 0.7553
vn -0.6183 0.1286 0.7753
vn -0.6235 -0.0000 0.7818
vn -0.6183 -0.1286 0.7753
vn -0.6023 -0.2584 0.7553
vn -0.5740 -0.3905 0.7197
vn -0.5308 -0.5246 0.6656
vn -0.4694 -0.6581 0.5887
vn -0.3862 -0.7850 0.4843
vn -0.2789 -0.8944 0.3498
vn -0.1492 -0.9709 0.1871
vn -0.1871 0.9709 0.1492
vn -0.3498 0.8944 0.2789
vn -0.4843 0.7850 0.3862
vn -0.5887 0.6581 0.4694
vn -0.6656 0.5246 0.5308
vn -0.7197 0.3905 0.5740
vn -0.7553 0.2584 0.6023
vn -0.7753 0.1286 0.6183
vn -0.7818 -0.0000 0.6235
vn -0.7753 -0.1286 0.6183
vn -0.7553 -0.2584 0.6023
vn -0.7197 -0.3905 0.5740
vn -0.6656 -0.5246 0.5308
vn -0.5887 -0.6581 0.4694
vn -0.4843 -0.7850 0.3862
vn -0.3498 -0.8944 0.2789
vn -0.1871 -0.9709 0.1492
vn -0.2157 0.9709 0.1039
vn -0.4030 0.8944 0.1941
vn -0.5581 0.7850 0.2688
vn -0.6784 0.6581 0.3267
vn -0.7671 0.5246 0.3694
vn -0.8294 0.3905 0.3994
vn -0.8704 0.2584 0.4191
vn -0.8935 0.1286 0.4303
vn -0.9010 -0.0000 0.4339
vn -0.8935 -0.1286 0.4303
vn -0.8704 -0.2584 0.4191
vn -0.8294 -0.3905 0.3994
vn -0.7671 -0.5246 0.3694
vn -0.6784 -0.6581 0.3267
vn -0.5581 -0.7850 0.2688
vn -0.4030 -0.8944 0.1941
vn -0.2157 -0.9709 0.1039
vn -0.2334 0.9709 0.0533
vn -0.4361 0.8944 0.0995
vn -0.6039 0.7850 0.1378
vn -0.7341 0.6581 0.1675
vn -0.8300 0.5246 0.1894
vn -0.8975 0.3905 0.2048
vn -0.9418 0.2584 0.2150
vn -0.9668 0.1286 0.2207
vn -0.9749 -0.0000 0.2225
vn -0.9668 -0.1286 0.2207
vn -0.9418 -0.2584 0.2150
vn -0.8975 -0.3905 0.2048
vn -0.8300 -0.5246 0.1894
vn -0.7341 -0.6581 0.1675
vn -0.6039 -0.7850 0.1378
vn -0.4361 -0.8944 0.0995
vn -0.2334 -0.9709 0.0533
vn -0.2394 0.9709 -0.0000
vn -0.4473 0.8944 -0.0000
vn -0.6195 0.7850 -0.0000
vn -0.7529 0.6581 -0.0000
vn -0.8514 0.5246 -0.0000
vn -0.9206 0.3905 -0.0000
vn -0.9660 0.2584 -0.0000
vn -0.9917 0.1286 -0.0000
vn -1.0000 -0.0000 -0.0000
vn -0.9917 -0.1286 -0.0000
vn -0.9660 -0.2584 -0.0000
vn -0.9206 -0.3905 -0.0000
vn -0.8514 -0.5246 -0.0000
vn -0.7529 -0.6581 -0.0000
vn -0.6195 -0.7850 -0.0000
vn -0.4473 -0.8944 -0.0000
vn -0.2394 -0.9709 -0.0000
vn -0.2334 0.9709 -0.0533
vn -0.4361 0.8944 -0.0995
vn -0.6039 0.7850 -0.1378
vn -0.7341 0.6581 -0.1675
vn -0.8300 0.5246 -0.1894
vn -0.8975 0.3905 -0.2048
vn -0.9418 0.2584 -0.2150
vn -0.9668 0.1286 -0.2207
vn -0.9749 -0.0000 -0.2225
vn -0.9668 -0.1286 -0.2207
vn -0.9418 -0.2584 -0.2150
vn -0.8975 -0.3905 -0.2048
vn -0.8300 -0.5246 -0.1894
vn -0.7341 -0.6581 -0.1675
vn -0.6039 -0.7850 -0.1378
vn -0.4361 -0.8944 -0.0995
vn -0.2334 -0.9709 -0.0533
vn -0.2157 0.9709 -0.1039
vn -0.4030 0.8944 -0.1941
vn -0.5581 0.7850 -0.2688
vn -0.6784 0.6581 -0.3267
vn -0.7671 0.5246 -0.3694
vn -0.8294 0.3905 -0.3994
vn -0.8704 0.2584 -0.4191
vn -0.8935 0.1286 -0.4303
vn -0.9010 -0.0000 -0.4339
vn -0.8935 -0.1286 -0.4303
vn -0.8704 -0.2584 -0.4191
vn -0.8294 -0.3905 -0.3994
vn -0.7671 -0.5246 -0.3694
vn -0.6784 -0.6581 -0.3267
vn -0.5581 -0.7850 -0.2688
vn -0.4030 -0.8944 -0.1941
vn -0.2157 -0.9709 -0.1039
vn -0.1871 0.9709 -0.1492
vn -0.3498 0.8944 -0.2789
vn -0.4843 0.7850 -0.3862
vn -0.5887 0.6581 -0.4694
vn -0.6656 0.5246 -0.5308
vn -0.7197 0.3905 -0.5740
vn -0.7553 0.2584 -0.6023
vn -0.7753 0.1286 -0.6183
vn -0.7818 -0.0000 -0.6235
vn -0.7753 -0.1286 -0.6183
vn -0.7553 -0.2584 -0.6023
vn -0.7197 -0.3905 -0.5740
vn -0.6656 -0.5246 -0.5308
vn -0.5887 -0.6581 -0.4694
vn -0.4843 -0.7850 -0.3862
vn -0.3498 -0.8944 -0.2789
vn -0.1871 -0.9709 -0.1492
vn -0.1492 0.9709 -0.1871
vn -0.2789 0.8944 -0.3498
vn -0.3862 0.7850 -0.4843
vn -0.4694 0.6581 -0.5887
vn -0.5308 0.5246 -0.6656
vn -0.5740 0.3905 -0.7197
vn -0.6023 0.2584 -0.7553
vn -0.6183 0.1286 -0.7753
vn -0.6235 -0.0000 -0.7818
vn -0.6183 -0.1286 -0.7753
vn -0.6023 -0.2584 -0.7553
vn -0.5740 -0.3905 -0.7197
vn -0.5308 -0.5246 -0.6656
vn -0.4694 -0.6581 -0.5887
vn -0.3862 -0.7850 -0.4843
vn -0.2789 -0.8944 -0.3498
vn -0.1492 -0.9709 -0.1871
vn -0.1039 0.9709 -0.2157
vn -0.1941 0.8944 -0.4030
vn -0.2688 0.7850 -0.5581
vn -0.3267 0.6581 -0.6784
vn -0.3694 0.5246 -0.7671
vn -0.3994 0.3905 -0.8294
vn -0.4191 0.2584 -0.8704
vn -0.4303 0.1286 -0.8935
vn -0.4339 -0.0000 -0.9010
vn -0.4303 -0.1286 -0.8935
vn -0.4191 -0.2584 -0.8704
vn -0.3994 -0.3905 -0.8294
vn -0.3694 -0.5246 -0.7671
vn -0.3267 -0.6581 -0.6784
vn -0.2688 -0.7850 -0.5581
vn -0.1941 -0.8944 -0.4030
vn -0.1039 -0.9709 -0.2157
vn -0.0533 0.9709 -0.2334
vn -0.0995 0.8944 -0.4361
vn -0.1378 0.7850 -0.6039
vn -0.1675 0.6581 -0.7341
vn -0.1894 0.5246 -0.8300
vn -0.2048 0.3905 -0.8975
vn -0.2150 0.2584 -0.9418
vn -0.2207 0.1286 -0.9668
vn -0.2225 -0.0000 -0.9749
vn -0.2207 -0.1286 -0.9668
vn -0.2150 -0.2584 -0.9418
vn -0.2049 -0.3905 -0.8975
vn -0.1894 -0.5246 -0.8300
vn -0.1675 -0.6581 -0.7341
vn -0.1378 -0.7850 -0.6039
vn -0.0995 -0.8944 -0.4361
vn -0.0533 -0.9709 -0.2334
vn -0.0000 0.8944 -0.4473
vn -0.0000 0.7850 -0.6195
vn -0.0000 0.5246 -0.8514
vn -0.0000 0.3905 -0.9206
vn -0.0000 0.2584 -0.9660
vn -0.0000 -0.0000 -1.0000
vn -0.0000 -0.1286 -0.9917
vn -0.0000 -0.2584 -0.9660
vn -0.0000 -0.3905 -0.9206
vn -0.0000 -0.7850 -0.6195
vn -0.0000 -0.8944 -0.4473
vn -0.0000 -0.9779 -0.2090
vn -0.0000 -0.1935 -0.9811
vn -0.0000 -0.6937 -0.7203
vn -0.0000 0.9779 -0.2090
vn -0.0000 0.1935 -0.9811
vn -0.0000 0.6937 -0.7203
vn 0.0541 -0.9779 -0.2019
vn 0.2539 -0.1935 -0.9477
vn 0.1864 -0.6937 -0.6957
vn 0.0541 0.9779 -0.2019
vn 0.2539 0.1935 -0.9477
vn 0.1864 0.6937 -0.6957
vn 0.1045 -0.9779 -0.1810
vn 0.4905 -0.1935 -0.8497
vn 0.3601 -0.6937 -0.6238
vn 0.1045 0.9779 -0.1810
vn 0.4905 0.1935 -0.8497
vn 0.3601 0.6937 -0.6238
vn 0.1478 -0.9779 -0.1478
vn 0.6937 -0.1935 -0.6937
vn 0.5093 -0.6937 -0.5093
vn 0.1478 0.9779 -0.1478
vn 0.6937 0.1935 -0.6937
vn 0.5093 0.6937 -0.5093
vn 0.1810 -0.9779 -0.1045
vn 0.8497 -0.1935 -0.4905
vn 0.6238 -0.6937 -0.3601
vn 0.1810 0.9779 -0.1045
vn 0.8497 0.1935 -0.4905
vn 0.6238 0.6937 -0.3601
vn 0.2019 -0.9779 -0.0541
vn 0.9477 -0.1935 -0.2539
vn 0.6957 -0.6937 -0.1864
vn 0.2019 0.9779 -0.0541
vn 0.9477 0.1935 -0.2539
vn 0.6957 0.6937 -0.1864
vn 0.2090 -0.9779 -0.0000
vn 0.9811 -0.1935 -0.0000
vn 0.7203 -0.6937 -0.0000
vn 0.2090 0.9779 -0.0000
vn 0.9811 0.1935 -0.0000
vn 0.7203 0.6937 -0.0000
vn 0.2019 -0.9779 0.0541
vn 0.9477 -0.1935 0.2539
vn 0.6957 -0.6937 0.1864
vn 0.2019 0.9779 0.0541
vn 0.9477 0.1935 0.2539
vn 0.6957 0.6937 0.1864
vn 0.1810 -0.9779 0.1045
vn 0.8497 -0.1935 0.4905
vn 0.6238 -0.6937 0.3601
vn 0.1810 0.9779 0.1045
vn 0.8497 0.1935 0.4905
vn 0.6238 0.6937 0.3601
vn 0.1478 -0.9779 0.1478
vn 0.6937 -0.1935 0.6937
vn 0.5093 -0.6937 0.5093
vn 0.1478 0.9779 0.1478
vn 0.6937 0.1935 0.6937
vn 0.5093 0.6937 0.5093
vn 0.1045 -0.9779 0.1810
vn 0.4905 -0.1935 0.8497
vn 0.3601 -0.6937 0.6238
vn 0.1045 0.9779 0.1810
vn 0.4905 0.1935 0.8497
vn 0.3601 0.6937 0.6238
vn 0.0541 -0.9779 0.2019
vn 0.2539 -0.1935 0.9477
vn 0.1864 -0.6937 0.6957
vn 0.0541 0.9779 0.2019
vn 0.2539 0.1935 0.9477
vn 0.1864 0.6937 0.6957
vn -0.0000 -0.9779 0.2090
vn -0.0000 -0.1935 0.9811
vn -0.0000 -0.6937 0.7203
vn -0.0000 0.9779 0.2090
vn -0.0000 0.1935 0.9811
vn -0.0000 0.6937 0.7203
vn -0.0541 -0.9779 0.2019
vn -0.2539 -0.1935 0.9477
vn -0.1864 -0.6937 0.6957
vn -0.0541 0.9779 0.2019
vn -0.2539 0.1935 0.9477
vn -0.1864 0.6937 0.6957
vn -0.1045 -0.9779 0.1810
vn -0.4905 -0.1935 0.8497
vn -0.3601 -0.6937 0.6238
vn -0.1045 0.9779 0.1810
vn -0.4905 0.1935 0.8497
vn -0.3601 0.6937 0.6238
vn -0.1478 -0.9779 0.1478
vn -0.6937 -0.1935 0.6937
vn -0.5093 -0.6937 0.5093
vn -0.1478 0.9779 0.1478
vn -0.6937 0.1935 0.6937
vn -0.5093 0.6937 0.5093
vn -0.1810 -0.9779 0.1045
vn -0.8497 -0.1935 0.4905
vn -0.6238 -0.6937 0.3601
vn -0.1810 0.9779 0.1045
vn -0.8497 0.1935 0.4905
vn -0.6238 0.6937 0.3601
vn -0.2019 -0.9779 0.0541
vn -0.9477 -0.1935 0.2539
vn -0.6957 -0.6937 0.1864
vn -0.2019 0.9779 0.0541
vn -0.9477 0.1935 0.2539
vn -0.6957 0.6937 0.1864
vn -0.2090 -0.9779 -0.0000
vn -0.9811 -0.1935 -0.0000
vn -0.7203 -0.6937 -0.0000
vn -0.2090 0.9779 -0.0000
vn -0.9811 0.1935 -0.0000
vn -0.7203 0.6937 -0.0000
vn -0.2019 -0.9779 -0.0541
vn -0.9477 -0.1935 -0.2539
vn -0.6957 -0.6937 -0.1864
vn -0.2019 0.9779 -0.0541
vn -0.9477 0.1935 -0.2539
vn -0.6957 0.6937 -0.1864
vn -0.1810 -0.9779 -0.1045
vn -0.8497 -0.1935 -0.4905
vn -0.6238 -0.6937 -0.3601
vn -0.1810 0.9779 -0.1045
vn -0.8497 0.1935 -0.4905
vn -0.6238 0.6937 -0.3601
vn -0.1478 -0.9779 -0.1478
vn -0.6937 -0.1935 -0.6937
vn -0.5093 -0.6937 -0.5093
vn -0.1478 0.9779 -0.1478
vn -0.6937 0.1935 -0.6937
vn -0.5093 0.6937 -0.5093
vn -0.1045 -0.9779 -0.1810
vn -0.4905 -0.1935 -0.8497
vn -0.3601 -0.6937 -0.6238
vn -0.1045 0.9779 -0.1810
vn -0.4905 0.1935 -0.8497
vn -0.3601 0.6937 -0.6238
vn -0.0541 -0.9779 -0.2019
vn -0.2539 -0.1935 -0.9477
vn -0.1864 -0.6937 -0.6957
vn -0.0541 0.9779 -0.2019
vn -0.2539 0.1935 -0.9477
vn -0.1864 0.6937 -0.6957
vt 0.750000 0.166667
vt 0.750000 0.222222
vt 0.714286 0.222222
vt 0.714286 0.166667
vt 0.750000 0.555556
vt 0.750000 0.611111
vt 0.714286 0.611111
vt 0.714286 0.555556
vt 0.750000 0.944445
vt 0.732143 1.000000
vt 0.714286 0.944445
vt 0.750000 0.111111
vt 0.714286 0.111111
vt 0.750000 0.500000
vt 0.714286 0.500000
vt 0.750000 0.888889
vt 0.714286 0.888889
vt 0.750000 0.055556
vt 0.714286 0.055556
vt 0.750000 0.444444
vt 0.714286 0.444444
vt 0.750000 0.833333
vt 0.714286 0.833333
vt 0.732143 0.000000
vt 0.750000 0.388889
vt 0.714286 0.388889
vt 0.750000 0.777778
vt 0.714286 0.777778
vt 0.750000 0.333333
vt 0.714286 0.333333
vt 0.750000 0.722222
vt 0.714286 0.722222
vt 0.750000 0.277778
vt 0.714286 0.277778
vt 0.750000 0.666667
vt 0.714286 0.666667
vt 0.678571 0.388889
vt 0.678571 0.333333
vt 0.678571 0.777778
vt 0.678571 0.722222
vt 0.678571 0.277778
vt 0.678571 0.666667
vt 0.678571 0.222222
vt 0.678571 0.611111
vt 0.678571 0.166667
vt 0.678571 0.555556
vt 0.696429 1.000000
vt 0.678571 0.944445
vt 0.678571 0.111111
vt 0.678571 0.500000
vt 0.678571 0.888889
vt 0.678571 0.055556
vt 0.678571 0.444444
vt 0.678571 0.833333
vt 0.696429 0.000000
vt 0.642857 0.388889
vt 0.642857 0.333333
vt 0.642857 0.777778
vt 0.642857 0.722222
vt 0.642857 0.277778
vt 0.642857 0.666667
vt 0.642857 0.222222
vt 0.642857 0.611111
vt 0.642857 0.166667
vt 0.642857 0.555556
vt 0.660714 1.000000
vt 0.642857 0.944445
vt 0.642857 0.111111
vt 0.642857 0.500000
vt 0.642857 0.888889
vt 0.642857 0.055556
vt 0.642857 0.444444
vt 0.642857 0.833333
vt 0.660714 0.000000
vt 0.607143 0.388889
vt 0.607143 0.333333
vt 0.607143 0.777778
vt 0.607143 0.722222
vt 0.607143 0.277778
vt 0.607143 0.666667
vt 0.607143 0.222222
vt 0.607143 0.611111
vt 0.607143 0.166667
vt 0.607143 0.555556
vt 0.625000 1.000000
vt 0.607143 0.944445
vt 0.607143 0.111111
vt 0.607143 0.500000
vt 0.607143 0.888889
vt 0.607143 0.055556
vt 0.607143 0.444444
vt 0.607143 0.833333
vt 0.625000 0.000000
vt 0.571429 0.388889
vt 0.571429 0.333333
vt 0.571429 0.777778
vt 0.571429 0.722222
vt 0.571429 0.277778
vt 0.571429 0.666667
vt 0.571429 0.222222
vt 0.571429 0.611111
vt 0.571429 0.166667
vt 0.571429 0.555556
vt 0.589286 1.000000
vt 0.571429 0.944445
vt 0.571429 0.111111
vt 0.571429 0.500000
vt 0.571429 0.888889
vt 0.571429 0.055556
vt 0.571429 0.444444
vt 0.571429 0.833333
vt 0.589286 0.000000
vt 0.535714 0.388889
vt 0.535714 0.333333
vt 0.535714 0.777778
vt 0.535714 0.722222
vt 0.535714 0.277778
vt 0.535714 0.666667
vt 0.535714 0.222222
vt 0.535714 0.611111
vt 0.535714 0.166667
vt 0.535714 0.555556
vt 0.553571 1.000000
vt 0.535714 0.944445
vt 0.535714 0.111111
vt 0.535714 0.500000
vt 0.535714 0.888889
vt 0.535714 0.055556
vt 0.535714 0.444444
vt 0.535714 0.833333
vt 0.553571 0.000000
vt 0.500000 0.388889
vt 0.500000 0.333333
vt 0.500000 0.777778
vt 0.500000 0.722222
vt 0.500000 0.277778
vt 0.500000 0.666667
vt 0.500000 0.222222
vt 0.500000 0.611111
vt 0.500000 0.166667
vt 0.500000 0.555556
vt 0.517857 1.000000
vt 0.500000 0.944445
vt 0.500000 0.111111
vt 0.500000 0.500000
vt 0.500000 0.888889
vt 0.500000 0.055556
vt 0.500000 0.444444
vt 0.500000 0.833333
vt 0.517857 0.000000
vt 0.464286 0.388889
vt 0.464286 0.333333
vt 0.464286 0.777778
vt 0.464286 0.722222
vt 0.464286 0.277778
vt 0.464286 0.666667
vt 0.464286 0.222222
vt 0.464286 0.611111
vt 0.464286 0.166667
vt 0.464286 0.555556
vt 0.482143 1.000000
vt 0.464286 0.944445
vt 0.464286 0.111111
vt 0.464286 0.500000
vt 0.464286 0.888889
vt 0.464286 0.055556
vt 0.464286 0.444444
vt 0.464286 0.833333
vt 0.482143 0.000000
vt 0.428571 0.388889
vt 0.428571 0.333333
vt 0.428571 0.777778
vt 0.428571 0.722222
vt 0.428571 0.277778
vt 0.428571 0.666667
vt 0.428571 0.222222
vt 0.428571 0.611111
vt 0.428571 0.166667
vt 0.428571 0.555556
vt 0.446429 1.000000
vt 0.428571 0.944445
vt 0.428571 0.111111
vt 0.428571 0.500000
vt 0.428571 0.888889
vt 0.428571 0.055556
vt 0.428571 0.444444
vt 0.428571 0.833333
vt 0.446429 0.000000
vt 0.392857 0.388889
vt 0.392857 0.333333
vt 0.392857 0.777778
vt 0.392857 0.722222
vt 0.392857 0.277778
vt 0.392857 0.666667
vt 0.392857 0.222222
vt 0.392857 0.611111
vt 0.392857 0.166667
vt 0.392857 0.555556
vt 0.410714 1.000000
vt 0.392857 0.944445
vt 0.392857 0.111111
vt 0.392857 0.500000
vt 0.392857 0.888889
vt 0.392857 0.055556
vt 0.392857 0.444444
vt 0.392857 0.833333
vt 0.410714 0.000000
vt 0.357143 0.388889
vt 0.357143 0.333333
vt 0.357143 0.777778
vt 0.357143 0.722222
vt 0.357143 0.277778
vt 0.357143 0.666667
vt 0.357143 0.222222
vt 0.357143 0.611111
vt 0.357143 0.166667
vt 0.357143 0.555556
vt 0.375000 1.000000
vt 0.357143 0.944445
vt 0.357143 0.111111
vt 0.357143 0.500000
vt 0.357143 0.888889
vt 0.357143 0.055556
vt 0.357143 0.444444
vt 0.357143 0.833333
vt 0.375000 0.000000
vt 0.321429 0.388889
vt 0.321429 0.333333
vt 0.321429 0.777778
vt 0.321429 0.722222
vt 0.321429 0.277778
vt 0.321429 0.666667
vt 0.321429 0.222222
vt 0.321429 0.611111
vt 0.321429 0.166667
vt 0.321429 0.555556
vt 0.339286 1.000000
vt 0.321429 0.944445
vt 0.321429 0.111111
vt 0.321429 0.500000
vt 0.321429 0.888889
vt 0.321429 0.055556
vt 0.321429 0.444444
vt 0.321429 0.833333
vt 0.339286 0.000000
vt 0.285714 0.388889
vt 0.285714 0.333333
vt 0.285714 0.777778
vt 0.285714 0.722222
vt 0.285714 0.277778
vt 0.285714 0.666667
vt 0.285714 0.222222
vt 0.285714 0.611111
vt 0.285714 0.166667
vt 0.285714 0.555556
vt 0.303571 1.000000
vt 0.285714 0.944445
vt 0.285714 0.111111
vt 0.285714 0.500000
vt 0.285714 0.888889
vt 0.285714 0.055556
vt 0.285714 0.444444
vt 0.285714 0.833333
vt 0.303571 0.000000
vt 0.250000 0.388889
vt 0.250000 0.333333
vt 0.250000 0.777778
vt 0.250000 0.722222
vt 0.250000 0.277778
vt 0.250000 0.666667
vt 0.250000 0.222222
vt 0.250000 0.611111
vt 0.250000 0.166667
vt 0.250000 0.555556
vt 0.267857 1.000000
vt 0.250000 0.944445
vt 0.250000 0.111111
vt 0.250000 0.500000
vt 0.250000 0.888889
vt 0.250000 0.055556
vt 0.250000 0.444444
vt 0.250000 0.833333
vt 0.267857 0.000000
vt 0.214286 0.388889
vt 0.214286 0.333333
vt 0.214286 0.777778
vt 0.214286 0.722222
vt 0.214286 0.277778
vt 0.214286 0.666667
vt 0.214286 0.222222
vt 0.214286 0.611111
vt 0.214286 0.166667
vt 0.214286 0.555556
vt 0.232143 1.000000
vt 0.214286 0.944445
vt 0.214286 0.111111
vt 0.214286 0.500000
vt 0.214286 0.888889
vt 0.214286 0.055556
vt 0.214286 0.444444
vt 0.214286 0.833333
vt 0.232143 0.000000
vt 0.178571 0.388889
vt 0.178571 0.333333
vt 0.178571 0.777778
vt 0.178571 0.722222
vt 0.178571 0.277778
vt 0.178571 0.666667
vt 0.178571 0.222222
vt 0.178571 0.611111
vt 0.178571 0.166667
vt 0.178571 0.555556
vt 0.196429 1.000000
vt 0.178571 0.944445
vt 0.178571 0.111111
vt 0.178571 0.500000
vt 0.178571 0.888889
vt 0.178571 0.055556
vt 0.178571 0.444444
vt 0.178571 0.833333
vt 0.196429 0.000000
vt 0.142857 0.388889
vt 0.142857 0.333333
vt 0.142857 0.777778
vt 0.142857 0.722222
vt 0.142857 0.277778
vt 0.142857 0.666667
vt 0.142857 0.222222
vt 0.142857 0.611111
vt 0.142857 0.166667
vt 0.142857 0.555556
vt 0.160714 1.000000
vt 0.142857 0.944445
vt 0.142857 0.111111
vt 0.142857 0.500000
vt 0.142857 0.888889
vt 0.142857 0.055556
vt 0.142857 0.444444
vt 0.142857 0.833333
vt 0.160714 0.000000
vt 0.107143 0.388889
vt 0.107143 0.333333
vt 0.107143 0.777778
vt 0.107143 0.722222
vt 0.107143 0.277778
vt 0.107143 0.666667
vt 0.107143 0.222222
vt 0.107143 0.611111
vt 0.107143 0.166667
vt 0.107143 0.555556
vt 0.125000 1.000000
vt 0.107143 0.944445
vt 0.107143 0.111111
vt 0.107143 0.500000
vt 0.107143 0.888889
vt 0.107143 0.055556
vt 0.107143 0.444444
vt 0.107143 0.833333
vt 0.125000 0.000000
vt 0.071429 0.388889
vt 0.071429 0.333333
vt 0.071429 0.777778
vt 0.071429 0.722222
vt 0.071429 0.277778
vt 0.071429 0.666667
vt 0.071429 0.222222
vt 0.071429 0.611111
vt 0.071429 0.166667
vt 0.071429 0.555556
vt 0.089286 1.000000
vt 0.071429 0.944445
vt 0.071429 0.111111
vt 0.071429 0.500000
vt 0.071429 0.888889
vt 0.071429 0.055556
vt 0.071429 0.444444
vt 0.071429 0.833333
vt 0.089286 0.000000
vt 0.035714 0.388889
vt 0.035714 0.333333
vt 0.035714 0.777778
vt 0.035714 0.722222
vt 0.035714 0.277778
vt 0.035714 0.666667
vt 0.035714 0.222222
vt 0.035714 0.611111
vt 0.035714 0.166667
vt 0.035714 0.555556
vt 0.053571 1.000000
vt 0.035714 0.944445
vt 0.035714 0.111111
vt 0.035714 0.500000
vt 0.035714 0.888889
vt 0.035714 0.055556
vt 0.035714 0.444444
vt 0.035714 0.833333
vt 0.053571 0.000000
vt 0.000000 0.388889
vt 0.000000 0.333333
vt 0.000000 0.777778
vt 0.000000 0.722222
vt 0.000000 0.277778
vt 0.000000 0.666667
vt 0.000000 0.222222
vt 0.000000 0.611111
vt 0.000000 0.166667
vt 0.000000 0.555556
vt 0.017857 1.000000
vt 0.000000 0.944445
vt 0.000000 0.111111
vt 0.000000 0.500000
vt 0.000000 0.888889
vt 0.000000 0.055556
vt 0.000000 0.444444
vt 0.000000 0.833333
vt 0.017857 0.000000
vt 1.000000 0.333333
vt 1.000000 0.388889
vt 0.964286 0.388889
vt 0.964286 0.333333
vt 1.000000 0.722222
vt 1.000000 0.777778
vt 0.964286 0.777778
vt 0.964286 0.722222
vt 1.000000 0.277778
vt 0.964286 0.277778
vt 1.000000 0.666667
vt 0.964286 0.666667
vt 1.000000 0.222222
vt 0.964286 0.222222
vt 1.000000 0.611111
vt 0.964286 0.611111
vt 1.000000 0.166667
vt 0.964286 0.166667
vt 1.000000 0.555556
vt 0.964286 0.555556
vt 1.000000 0.944445
vt 0.982143 1.000000
vt 0.964286 0.944445
vt 1.000000 0.111111
vt 0.964286 0.111111
vt 1.000000 0.500000
vt 0.964286 0.500000
vt 1.000000 0.888889
vt 0.964286 0.888889
vt 1.000000 0.055556
vt 0.964286 0.055556
vt 1.000000 0.444444
vt 0.964286 0.444444
vt 1.000000 0.833333
vt 0.964286 0.833333
vt 0.982143 0.000000
vt 0.928571 0.388889
vt 0.928571 0.333333
vt 0.928571 0.777778
vt 0.928571 0.722222
vt 0.928571 0.277778
vt 0.928571 0.666667
vt 0.928571 0.222222
vt 0.928571 0.611111
vt 0.928571 0.166667
vt 0.928571 0.555556
vt 0.946429 1.000000
vt 0.928571 0.944445
vt 0.928571 0.111111
vt 0.928571 0.500000
vt 0.928571 0.888889
vt 0.928571 0.055556
vt 0.928571 0.444444
vt 0.928571 0.833333
vt 0.946429 0.000000
vt 0.892857 0.388889
vt 0.892857 0.333333
vt 0.892857 0.777778
vt 0.892857 0.722222
vt 0.892857 0.277778
vt 0.892857 0.666667
vt 0.892857 0.222222
vt 0.892857 0.611111
vt 0.892857 0.166667
vt 0.892857 0.555556
vt 0.910714 1.000000
vt 0.892857 0.944445
vt 0.892857 0.111111
vt 0.892857 0.500000
vt 0.892857 0.888889
vt 0.892857 0.055556
vt 0.892857 0.444444
vt 0.892857 0.833333
vt 0.910714 0.000000
vt 0.857143 0.388889
vt 0.857143 0.333333
vt 0.857143 0.777778
vt 0.857143 0.722222
vt 0.857143 0.277778
vt 0.857143 0.666667
vt 0.857143 0.222222
vt 0.857143 0.611111
vt 0.857143 0.166667
vt 0.857143 0.555556
vt 0.875000 1.000000
vt 0.857143 0.944445
vt 0.857143 0.111111
vt 0.857143 0.500000
vt 0.857143 0.888889
vt 0.857143 0.055556
vt 0.857143 0.444444
vt 0.857143 0.833333
vt 0.875000 0.000000
vt 0.821429 0.388889
vt 0.821429 0.333333
vt 0.821429 0.777778
vt 0.821429 0.722222
vt 0.821429 0.277778
vt 0.821429 0.666667
vt 0.821429 0.222222
vt 0.821429 0.611111
vt 0.821429 0.166667
vt 0.821429 0.555556
vt 0.839286 1.000000
vt 0.821429 0.944445
vt 0.821429 0.111111
vt 0.821429 0.500000
vt 0.821429 0.888889
vt 0.821429 0.055556
vt 0.821429 0.444444
vt 0.821429 0.833333
vt 0.839286 0.000000
vt 0.785714 0.388889
vt 0.785714 0.333333
vt 0.785714 0.777778
vt 0.785714 0.722222
vt 0.785714 0.277778
vt 0.785714 0.666667
vt 0.785714 0.222222
vt 0.785714 0.611111
vt 0.785714 0.166667
vt 0.785714 0.555556
vt 0.803571 1.000000
vt 0.785714 0.944445
vt 0.785714 0.111111
vt 0.785714 0.500000
vt 0.785714 0.888889
vt 0.785714 0.055556
vt 0.785714 0.444444
vt 0.785714 0.833333
vt 0.803571 0.000000
vt 0.767857 1.000000
vt 0.767857 0.000000
vt 1.000000 0.593750
vt 0.958333 0.593750
vt 0.958333 0.500000
vt 0.999763 0.500000
vt 0.750000 0.489954
vt 0.812105 0.481777
vt 0.809707 0.472829
vt 0.750000 0.480689
vt 0.958333 0.906250
vt 1.000000 0.906250
vt 0.999763 1.000000
vt 0.958333 1.000000
vt 0.312105 0.481777
vt 0.250000 0.489954
vt 0.250000 0.480689
vt 0.309707 0.472829
vt 0.916667 0.593750
vt 0.916667 0.500000
vt 0.869977 0.457806
vt 0.865345 0.449783
vt 0.916667 0.906250
vt 0.916667 1.000000
vt 0.369977 0.457806
vt 0.365345 0.449783
vt 0.875000 0.593750
vt 0.875000 0.500000
vt 0.919673 0.419673
vt 0.913122 0.413122
vt 0.875000 0.906250
vt 0.875000 1.000000
vt 0.419673 0.419673
vt 0.413122 0.413122
vt 0.833333 0.593750
vt 0.833333 0.500000
vt 0.957806 0.369977
vt 0.949783 0.365345
vt 0.833333 0.906250
vt 0.833333 1.000000
vt 0.457806 0.369977
vt 0.449783 0.365345
vt 0.791667 0.593750
vt 0.791667 0.500000
vt 0.981777 0.312105
vt 0.972829 0.309707
vt 0.791667 0.906250
vt 0.791667 1.000000
vt 0.481777 0.312105
vt 0.472829 0.309707
vt 0.750000 0.593750
vt 0.750000 0.500000
vt 0.989954 0.250000
vt 0.980689 0.250000
vt 0.750000 0.906250
vt 0.750000 1.000000
vt 0.489954 0.250000
vt 0.480690 0.250000
vt 0.708333 0.593750
vt 0.708333 0.500000
vt 0.981777 0.187895
vt 0.972829 0.190293
vt 0.708333 0.906250
vt 0.708333 1.000000
vt 0.481777 0.187895
vt 0.472829 0.190293
vt 0.666667 0.593750
vt 0.666667 0.500000
vt 0.957806 0.130023
vt 0.949783 0.134655
vt 0.666667 0.906250
vt 0.666667 1.000000
vt 0.457806 0.130023
vt 0.449783 0.134655
vt 0.625000 0.593750
vt 0.625000 0.500000
vt 0.919673 0.080327
vt 0.913122 0.086878
vt 0.625000 0.906250
vt 0.625000 1.000000
vt 0.419673 0.080327
vt 0.413122 0.086878
vt 0.583333 0.593750
vt 0.583333 0.500000
vt 0.869977 0.042194
vt 0.865345 0.050217
vt 0.583333 0.906250
vt 0.583333 1.000000
vt 0.369977 0.042194
vt 0.365345 0.050217
vt 0.541666 0.593750
vt 0.541666 0.500000
vt 0.812105 0.018223
vt 0.809707 0.027171
vt 0.541666 0.906250
vt 0.541667 1.000000
vt 0.312105 0.018223
vt 0.309707 0.027171
vt 0.500000 0.593750
vt 0.500000 0.500000
vt 0.750000 0.010046
vt 0.750000 0.019310
vt 0.500000 0.906250
vt 0.500000 1.000000
vt 0.250000 0.010046
vt 0.250000 0.019310
vt 0.458333 0.593750
vt 0.458333 0.500000
vt 0.687895 0.018223
vt 0.690293 0.027171
vt 0.458333 0.906250
vt 0.458333 1.000000
vt 0.187895 0.018223
vt 0.190293 0.027171
vt 0.416666 0.593750
vt 0.416667 0.500000
vt 0.630023 0.042194
vt 0.634655 0.050217
vt 0.416666 0.906250
vt 0.416666 1.000000
vt 0.130023 0.042194
vt 0.134655 0.050217
vt 0.375000 0.593750
vt 0.375000 0.500000
vt 0.580327 0.080327
vt 0.586878 0.086878
vt 0.375000 0.906250
vt 0.375000 1.000000
vt 0.080327 0.080327
vt 0.086878 0.086878
vt 0.333333 0.593750
vt 0.333333 0.500000
vt 0.542194 0.130023
vt 0.550217 0.134655
vt 0.333333 0.906250
vt 0.333333 1.000000
vt 0.042194 0.130023
vt 0.050217 0.134655
vt 0.291667 0.593750
vt 0.291667 0.500000
vt 0.518223 0.187895
vt 0.527171 0.190293
vt 0.291667 0.906250
vt 0.291667 1.000000
vt 0.018223 0.187895
vt 0.027171 0.190293
vt 0.250000 0.593750
vt 0.250000 0.500000
vt 0.510046 0.250000
vt 0.519310 0.250000
vt 0.250000 0.906250
vt 0.250000 1.000000
vt 0.010046 0.250000
vt 0.019310 0.250000
vt 0.208333 0.593750
vt 0.208333 0.500000
vt 0.518223 0.312105
vt 0.527171 0.309707
vt 0.208333 0.906250
vt 0.208333 1.000000
vt 0.018223 0.312105
vt 0.027171 0.309707
vt 0.166667 0.593750
vt 0.166667 0.500000
vt 0.542194 0.369977
vt 0.550217 0.365345
vt 0.166667 0.906250
vt 0.166666 1.000000
vt 0.042194 0.369977
vt 0.050217 0.365345
vt 0.125000 0.593750
vt 0.125000 0.500000
vt 0.580327 0.419673
vt 0.586878 0.413122
vt 0.125000 0.906250
vt 0.125000 1.000000
vt 0.080327 0.419673
vt 0.086878 0.413122
vt 0.083333 0.593750
vt 0.083333 0.500000
vt 0.630023 0.457806
vt 0.634655 0.449783
vt 0.083333 0.906250
vt 0.083333 1.000000
vt 0.130023 0.457806
vt 0.134655 0.449783
vt 0.041666 0.593750
vt 0.041666 0.500000
vt 0.687895 0.481777
vt 0.690293 0.472829
vt 0.041666 0.906250
vt 0.041666 1.000000
vt 0.187895 0.481777
vt 0.190293 0.472829
vt -0.000000 0.593750
vt 0.000237 0.500000
vt -0.000000 0.906250
vt 0.000237 1.000000
s 1
f 477/1/477 6/2/6 22/3/22 23/4/23
f 4/5/4 472/6/472 15/7/15 16/8/16
f 2/9/2 1/10/1 9/11/9
f 478/12/478 477/1/477 23/4/23 24/13/24
f 473/14/473 4/5/4 16/8/16 17/15/17
f 468/16/468 2/9/2 9/11/9 10/17/10
f 7/18/7 478/12/478 24/13/24 25/19/25
f 474/20/474 473/14/473 17/15/17 18/21/18
f 469/22/469 468/16/468 10/17/10 11/23/11
f 8/24/8 7/18/7 25/19/25
f 475/25/475 474/20/474 18/21/18 19/26/19
f 3/27/3 469/22/469 11/23/11 12/28/12
f 476/29/476 475/25/475 19/26/19 20/30/20
f 470/31/470 3/27/3 12/28/12 13/32/13
f 5/33/5 476/29/476 20/30/20 21/34/21
f 471/35/471 470/31/470 13/32/13 14/36/14
f 6/2/6 5/33/5 21/34/21 22/3/22
f 472/6/472 471/35/471 14/36/14 15/7/15
f 20/30/20 19/26/19 36/37/36 37/38/37
f 13/32/13 12/28/12 29/39/29 30/40/30
f 21/34/21 20/30/20 37/38/37 38/41/38
f 14/36/14 13/32/13 30/40/30 31/42/31
f 22/3/22 21/34/21 38/41/38 39/43/39
f 15/7/15 14/36/14 31/42/31 32/44/32
f 23/4/23 22/3/22 39/43/39 40/45/40
f 16/8/16 15/7/15 32/44/32 33/46/33
f 9/11/9 1/47/1 26/48/26
f 24/13/24 23/4/23 40/45/40 41/49/41
f 17/15/17 16/8/16 33/46/33 34/50/34
f 10/17/10 9/11/9 26/48/26 27/51/27
f 25/19/25 24/13/24 41/49/41 42/52/42
f 18/21/18 17/15/17 34/50/34 35/53/35
f 11/23/11 10/17/10 27/51/27 28/54/28
f 8/55/8 25/19/25 42/52/42
f 19/26/19 18/21/18 35/53/35 36/37/36
f 12/28/12 11/23/11 28/54/28 29/39/29
f 37/38/37 36/37/36 53/56/53 54/57/54
f 30/40/30 29/39/29 46/58/46 47/59/47
f 38/41/38 37/38/37 54/57/54 55/60/55
f 31/42/31 30/40/30 47/59/47 48/61/48
f 39/43/39 38/41/38 55/60/55 56/62/56
f 32/44/32 31/42/31 48/61/48 49/63/49
f 40/45/40 39/43/39 56/62/56 57/64/57
f 33/46/33 32/44/32 49/63/49 50/65/50
f 26/48/26 1/66/1 43/67/43
f 41/49/41 40/45/40 57/64/57 58/68/58
f 34/50/34 33/46/33 50/65/50 51/69/51
f 27/51/27 26/48/26 43/67/43 44/70/44
f 42/52/42 41/49/41 58/68/58 59/71/59
f 35/53/35 34/50/34 51/69/51 52/72/52
f 28/54/28 27/51/27 44/70/44 45/73/45
f 8/74/8 42/52/42 59/71/59
f 36/37/36 35/53/35 52/72/52 53/56/53
f 29/39/29 28/54/28 45/73/45 46/58/46
f 54/57/54 53/56/53 70/75/70 71/76/71
f 47/59/47 46/58/46 63/77/63 64/78/64
f 55/60/55 54/57/54 71/76/71 72/79/72
f 48/61/48 47/59/47 64/78/64 65/80/65
f 56/62/56 55/60/55 72/79/72 73/81/73
f 49/63/49 48/61/48 65/80/65 66/82/66
f 57/64/57 56/62/56 73/81/73 74/83/74
f 50/65/50 49/63/49 66/82/66 67/84/67
f 43/67/43 1/85/1 60/86/60
f 58/68/58 57/64/57 74/83/74 75/87/75
f 51/69/51 50/65/50 67/84/67 68/88/68
f 44/70/44 43/67/43 60/86/60 61/89/61
f 59/71/59 58/68/58 75/87/75 76/90/76
f 52/72/52 51/69/51 68/88/68 69/91/69
f 45/73/45 44/70/44 61/89/61 62/92/62
f 8/93/8 59/71/59 76/90/76
f 53/56/53 52/72/52 69/91/69 70/75/70
f 46/58/46 45/73/45 62/92/62 63/77/63
f 71/76/71 70/75/70 87/94/87 88/95/88
f 64/78/64 63/77/63 80/96/80 81/97/81
f 72/79/72 71/76/71 88/95/88 89/98/89
f 65/80/65 64/78/64 81/97/81 82/99/82
f 73/81/73 72/79/72 89/98/89 90/100/90
f 66/82/66 65/80/65 82/99/82 83/101/83
f 74/83/74 73/81/73 90/100/90 91/102/91
f 67/84/67 66/82/66 83/101/83 84/103/84
f 60/86/60 1/104/1 77/105/77
f 75/87/75 74/83/74 91/102/91 92/106/92
f 68/88/68 67/84/67 84/103/84 85/107/85
f 61/89/61 60/86/60 77/105/77 78/108/78
f 76/90/76 75/87/75 92/106/92 93/109/93
f 69/91/69 68/88/68 85/107/85 86/110/86
f 62/92/62 61/89/61 78/108/78 79/111/79
f 8/112/8 76/90/76 93/109/93
f 70/75/70 69/91/69 86/110/86 87/94/87
f 63/77/63 62/92/62 79/111/79 80/96/80
f 88/95/88 87/94/87 104/113/104 105/114/105
f 81/97/81 80/96/80 97/115/97 98/116/98
f 89/98/89 88/95/88 105/114/105 106/117/106
f 82/99/82 81/97/81 98/116/98 99/118/99
f 90/100/90 89/98/89 106/117/106 107/119/107
f 83/101/83 82/99/82 99/118/99 100/120/100
f 91/102/91 90/100/90 107/119/107 108/121/108
f 84/103/84 83/101/83 100/120/100 101/122/101
f 77/105/77 1/123/1 94/124/94
f 92/106/92 91/102/91 108/121/108 109/125/109
f 85/107/85 84/103/84 101/122/101 102/126/102
f 78/108/78 77/105/77 94/124/94 95/127/95
f 93/109/93 92/106/92 109/125/109 110/128/110
f 86/110/86 85/107/85 102/126/102 103/129/103
f 79/111/79 78/108/78 95/127/95 96/130/96
f 8/131/8 93/109/93 110/128/110
f 87/94/87 86/110/86 103/129/103 104/113/104
f 80/96/80 79/111/79 96/130/96 97/115/97
f 105/114/105 104/113/104 121/132/121 122/133/122
f 98/116/98 97/115/97 114/134/114 115/135/115
f 106/117/106 105/114/105 122/133/122 123/136/123
f 99/118/99 98/116/98 115/135/115 116/137/116
f 107/119/107 106/117/106 123/136/123 124/138/124
f 100/120/100 99/118/99 116/137/116 117/139/117
f 108/121/108 107/119/107 124/138/124 125/140/125
f 101/122/101 100/120/100 117/139/117 118/141/118
f 94/124/94 1/142/1 111/143/111
f 109/125/109 108/121/108 125/140/125 126/144/126
f 102/126/102 101/122/101 118/141/118 119/145/119
f 95/127/95 94/124/94 111/143/111 112/146/112
f 110/128/110 109/125/109 126/144/126 127/147/127
f 103/129/103 102/126/102 119/145/119 120/148/120
f 96/130/96 95/127/95 112/146/112 113/149/113
f 8/150/8 110/128/110 127/147/127
f 104/113/104 103/129/103 120/148/120 121/132/121
f 97/115/97 96/130/96 113/149/113 114/134/114
f 122/133/122 121/132/121 138/151/138 139/152/139
f 115/135/115 114/134/114 131/153/131 132/154/132
f 123/136/123 122/133/122 139/152/139 140/155/140
f 116/137/116 115/135/115 132/154/132 133/156/133
f 124/138/124 123/136/123 140/155/140 141/157/141
f 117/139/117 116/137/116 133/156/133 134/158/134
f 125/140/125 124/138/124 141/157/141 142/159/142
f 118/141/118 117/139/117 134/158/134 135/160/135
f 111/143/111 1/161/1 128/162/128
f 126/144/126 125/140/125 142/159/142 143/163/143
f 119/145/119 118/141/118 135/160/135 136/164/136
f 112/146/112 111/143/111 128/162/128 129/165/129
f 127/147/127 126/144/126 143/163/143 144/166/144
f 120/148/120 119/145/119 136/164/136 137/167/137
f 113/149/113 112/146/112 129/165/129 130/168/130
f 8/169/8 127/147/127 144/166/144
f 121/132/121 120/148/120 137/167/137 138/151/138
f 114/134/114 113/149/113 130/168/130 131/153/131
f 139/152/139 138/151/138 155/170/155 156/171/156
f 132/154/132 131/153/131 148/172/148 149/173/149
f 140/155/140 139/152/139 156/171/156 157/174/157
f 133/156/133 132/154/132 149/173/149 150/175/150
f 141/157/141 140/155/140 157/174/157 158/176/158
f 134/158/134 133/156/133 150/175/150 151/177/151
f 142/159/142 141/157/141 158/176/158 159/178/159
f 135/160/135 134/158/134 151/177/151 152/179/152
f 128/162/128 1/180/1 145/181/145
f 143/163/143 142/159/142 159/178/159 160/182/160
f 136/164/136 135/160/135 152/179/152 153/183/153
f 129/165/129 128/162/128 145/181/145 146/184/146
f 144/166/144 143/163/143 160/182/160 161/185/161
f 137/167/137 136/164/136 153/183/153 154/186/154
f 130/168/130 129/165/129 146/184/146 147/187/147
f 8/188/8 144/166/144 161/185/161
f 138/151/138 137/167/137 154/186/154 155/170/155
f 131/153/131 130/168/130 147/187/147 148/172/148
f 156/171/156 155/170/155 172/189/172 173/190/173
f 149/173/149 148/172/148 165/191/165 166/192/166
f 157/174/157 156/171/156 173/190/173 174/193/174
f 150/175/150 149/173/149 166/192/166 167/194/167
f 158/176/158 157/174/157 174/193/174 175/195/175
f 151/177/151 150/175/150 167/194/167 168/196/168
f 159/178/159 158/176/158 175/195/175 176/197/176
f 152/179/152 151/177/151 168/196/168 169/198/169
f 145/181/145 1/199/1 162/200/162
f 160/182/160 159/178/159 176/197/176 177/201/177
f 153/183/153 152/179/152 169/198/169 170/202/170
f 146/184/146 145/181/145 162/200/162 163/203/163
f 161/185/161 160/182/160 177/201/177 178/204/178
f 154/186/154 153/183/153 170/202/170 171/205/171
f 147/187/147 146/184/146 163/203/163 164/206/164
f 8/207/8 161/185/161 178/204/178
f 155/170/155 154/186/154 171/205/171 172/189/172
f 148/172/148 147/187/147 164/206/164 165/191/165
f 173/190/173 172/189/172 189/208/189 190/209/190
f 166/192/166 165/191/165 182/210/182 183/211/183
f 174/193/174 173/190/173 190/209/190 191/212/191
f 167/194/167 166/192/166 183/211/183 184/213/184
f 175/195/175 174/193/174 191/212/191 192/214/192
f 168/196/168 167/194/167 184/213/184 185/215/185
f 176/197/176 175/195/175 192/214/192 193/216/193
f 169/198/169 168/196/168 185/215/185 186/217/186
f 162/200/162 1/218/1 179/219/179
f 177/201/177 176/197/176 193/216/193 194/220/194
f 170/202/170 169/198/169 186/217/186 187/221/187
f 163/203/163 162/200/162 179/219/179 180/222/180
f 178/204/178 177/201/177 194/220/194 195/223/195
f 171/205/171 170/202/170 187/221/187 188/224/188
f 164/206/164 163/203/163 180/222/180 181/225/181
f 8/226/8 178/204/178 195/223/195
f 172/189/172 171/205/171 188/224/188 189/208/189
f 165/191/165 164/206/164 181/225/181 182/210/182
f 190/209/190 189/208/189 206/227/206 207/228/207
f 183/211/183 182/210/182 199/229/199 200/230/200
f 191/212/191 190/209/190 207/228/207 208/231/208
f 184/213/184 183/211/183 200/230/200 201/232/201
f 192/214/192 191/212/191 208/231/208 209/233/209
f 185/215/185 184/213/184 201/232/201 202/234/202
f 193/216/193 192/214/192 209/233/209 210/235/210
f 186/217/186 185/215/185 202/234/202 203/236/203
f 179/219/179 1/237/1 196/238/196
f 194/220/194 193/216/193 210/235/210 211/239/211
f 187/221/187 186/217/186 203/236/203 204/240/204
f 180/222/180 179/219/179 196/238/196 197/241/197
f 195/223/195 194/220/194 211/239/211 212/242/212
f 188/224/188 187/221/187 204/240/204 205/243/205
f 181/225/181 180/222/180 197/241/197 198/244/198
f 8/245/8 195/223/195 212/242/212
f 189/208/189 188/224/188 205/243/205 206/227/206
f 182/210/182 181/225/181 198/244/198 199/229/199
f 207/228/207 206/227/206 223/246/223 224/247/224
f 200/230/200 199/229/199 216/248/216 217/249/217
f 208/231/208 207/228/207 224/247/224 225/250/225
f 201/232/201 200/230/200 217/249/217 218/251/218
f 209/233/209 208/231/208 225/250/225 226/252/226
f 202/234/202 201/232/201 218/251/218 219/253/219
f 210/235/210 209/233/209 226/252/226 227/254/227
f 203/236/203 202/234/202 219/253/219 220/255/220
f 196/238/196 1/256/1 213/257/213
f 211/239/211 210/235/210 227/254/227 228/258/228
f 204/240/204 203/236/203 220/255/220 221/259/221
f 197/241/197 196/238/196 213/257/213 214/260/214
f 212/242/212 211/239/211 228/258/228 229/261/229
f 205/243/205 204/240/204 221/259/221 222/262/222
f 198/244/198 197/241/197 214/260/214 215/263/215
f 8/264/8 212/242/212 229/261/229
f 206/227/206 205/243/205 222/262/222 223/246/223
f 199/229/199 198/244/198 215/263/215 216/248/216
f 224/247/224 223/246/223 240/265/240 241/266/241
f 217/249/217 216/248/216 233/267/233 234/268/234
f 225/250/225 224/247/224 241/266/241 242/269/242
f 218/251/218 217/249/217 234/268/234 235/270/235
f 226/252/226 225/250/225 242/269/242 243/271/243
f 219/253/219 218/251/218 235/270/235 236/272/236
f 227/254/227 226/252/226 243/271/243 244/273/244
f 220/255/220 219/253/219 236/272/236 237/274/237
f 213/257/213 1/275/1 230/276/230
f 228/258/228 227/254/227 244/273/244 245/277/245
f 221/259/221 220/255/220 237/274/237 238/278/238
f 214/260/214 213/257/213 230/276/230 231/279/231
f 229/261/229 228/258/228 245/277/245 246/280/246
f 222/262/222 221/259/221 238/278/238 239/281/239
f 215/263/215 214/260/214 231/279/231 232/282/232
f 8/283/8 229/261/229 246/280/246
f 223/246/223 222/262/222 239/281/239 240/265/240
f 216/248/216 215/263/215 232/282/232 233/267/233
f 241/266/241 240/265/240 257/284/257 258/285/258
f 234/268/234 233/267/233 250/286/250 251/287/251
f 242/269/242 241/266/241 258/285/258 259/288/259
f 235/270/235 234/268/234 251/287/251 252/289/252
f 243/271/243 242/269/242 259/288/259 260/290/260
f 236/272/236 235/270/235 252/289/252 253/291/253
f 244/273/244 243/271/243 260/290/260 261/292/261
f 237/274/237 236/272/236 253/291/253 254/293/254
f 230/276/230 1/294/1 247/295/247
f 245/277/245 244/273/244 261/292/261 262/296/262
f 238/278/238 237/274/237 254/293/254 255/297/255
f 231/279/231 230/276/230 247/295/247 248/298/248
f 246/280/246 245/277/245 262/296/262 263/299/263
f 239/281/239 238/278/238 255/297/255 256/300/256
f 232/282/232 231/279/231 248/298/248 249/301/249
f 8/302/8 246/280/246 263/299/263
f 240/265/240 239/281/239 256/300/256 257/284/257
f 233/267/233 232/282/232 249/301/249 250/286/250
f 258/285/258 257/284/257 274/303/274 275/304/275
f 251/287/251 250/286/250 267/305/267 268/306/268
f 259/288/259 258/285/258 275/304/275 276/307/276
f 252/289/252 251/287/251 268/306/268 269/308/269
f 260/290/260 259/288/259 276/307/276 277/309/277
f 253/291/253 252/289/252 269/308/269 270/310/270
f 261/292/261 260/290/260 277/309/277 278/311/278
f 254/293/254 253/291/253 270/310/270 271/312/271
f 247/295/247 1/313/1 264/314/264
f 262/296/262 261/292/261 278/311/278 279/315/279
f 255/297/255 254/293/254 271/312/271 272/316/272
f 248/298/248 247/295/247 264/314/264 265/317/265
f 263/299/263 262/296/262 279/315/279 280/318/280
f 256/300/256 255/297/255 272/316/272 273/319/273
f 249/301/249 248/298/248 265/317/265 266/320/266
f 8/321/8 263/299/263 280/318/280
f 257/284/257 256/300/256 273/319/273 274/303/274
f 250/286/250 249/301/249 266/320/266 267/305/267
f 275/304/275 274/303/274 291/322/291 292/323/292
f 268/306/268 267/305/267 284/324/284 285/325/285
f 276/307/276 275/304/275 292/323/292 293/326/293
f 269/308/269 268/306/268 285/325/285 286/327/286
f 277/309/277 276/307/276 293/326/293 294/328/294
f 270/310/270 269/308/269 286/327/286 287/329/287
f 278/311/278 277/309/277 294/328/294 295/330/295
f 271/312/271 270/310/270 287/329/287 288/331/288
f 264/314/264 1/332/1 281/333/281
f 279/315/279 278/311/278 295/330/295 296/334/296
f 272/316/272 271/312/271 288/331/288 289/335/289
f 265/317/265 264/314/264 281/333/281 282/336/282
f 280/318/280 279/315/279 296/334/296 297/337/297
f 273/319/273 272/316/272 289/335/289 290/338/290
f 266/320/266 265/317/265 282/336/282 283/339/283
f 8/340/8 280/318/280 297/337/297
f 274/303/274 273/319/273 290/338/290 291/322/291
f 267/305/267 266/320/266 283/339/283 284/324/284
f 292/323/292 291/322/291 308/341/308 309/342/309
f 285/325/285 284/324/284 301/343/301 302/344/302
f 293/326/293 292/323/292 309/342/309 310/345/310
f 286/327/286 285/325/285 302/344/302 303/346/303
f 294/328/294 293/326/293 310/345/310 311/347/311
f 287/329/287 286/327/286 303/346/303 304/348/304
f 295/330/295 294/328/294 311/347/311 312/349/312
f 288/331/288 287/329/287 304/348/304 305/350/305
f 281/333/281 1/351/1 298/352/298
f 296/334/296 295/330/295 312/349/312 313/353/313
f 289/335/289 288/331/288 305/350/305 306/354/306
f 282/336/282 281/333/281 298/352/298 299/355/299
f 297/337/297 296/334/296 313/353/313 314/356/314
f 290/338/290 289/335/289 306/354/306 307/357/307
f 283/339/283 282/336/282 299/355/299 300/358/300
f 8/359/8 297/337/297 314/356/314
f 291/322/291 290/338/290 307/357/307 308/341/308
f 284/324/284 283/339/283 300/358/300 301/343/301
f 309/342/309 308/341/308 325/360/325 326/361/326
f 302/344/302 301/343/301 318/362/318 319/363/319
f 310/345/310 309/342/309 326/361/326 327/364/327
f 303/346/303 302/344/302 319/363/319 320/365/320
f 311/347/311 310/345/310 327/364/327 328/366/328
f 304/348/304 303/346/303 320/365/320 321/367/321
f 312/349/312 311/347/311 328/366/328 329/368/329
f 305/350/305 304/348/304 321/367/321 322/369/322
f 298/352/298 1/370/1 315/371/315
f 313/353/313 312/349/312 329/368/329 330/372/330
f 306/354/306 305/350/305 322/369/322 323/373/323
f 299/355/299 298/352/298 315/371/315 316/374/316
f 314/356/314 313/353/313 330/372/330 331/375/331
f 307/357/307 306/354/306 323/373/323 324/376/324
f 300/358/300 299/355/299 316/374/316 317/377/317
f 8/378/8 314/356/314 331/375/331
f 308/341/308 307/357/307 324/376/324 325/360/325
f 301/343/301 300/358/300 317/377/317 318/362/318
f 326/361/326 325/360/325 342/379/342 343/380/343
f 319/363/319 318/362/318 335/381/335 336/382/336
f 327/364/327 326/361/326 343/380/343 344/383/344
f 320/365/320 319/363/319 336/382/336 337/384/337
f 328/366/328 327/364/327 344/383/344 345/385/345
f 321/367/321 320/365/320 337/384/337 338/386/338
f 329/368/329 328/366/328 345/385/345 346/387/346
f 322/369/322 321/367/321 338/386/338 339/388/339
f 315/371/315 1/389/1 332/390/332
f 330/372/330 329/368/329 346/387/346 347/391/347
f 323/373/323 322/369/322 339/388/339 340/392/340
f 316/374/316 315/371/315 332/390/332 333/393/333
f 331/375/331 330/372/330 347/391/347 348/394/348
f 324/376/324 323/373/323 340/392/340 341/395/341
f 317/377/317 316/374/316 333/393/333 334/396/334
f 8/397/8 331/375/331 348/394/348
f 325/360/325 324/376/324 341/395/341 342/379/342
f 318/362/318 317/377/317 334/396/334 335/381/335
f 343/380/343 342/379/342 359/398/359 360/399/360
f 336/382/336 335/381/335 352/400/352 353/401/353
f 344/383/344 343/380/343 360/399/360 361/402/361
f 337/384/337 336/382/336 353/401/353 354/403/354
f 345/385/345 344/383/344 361/402/361 362/404/362
f 338/386/338 337/384/337 354/403/354 355/405/355
f 346/387/346 345/385/345 362/404/362 363/406/363
f 339/388/339 338/386/338 355/405/355 356/407/356
f 332/390/332 1/408/1 349/409/349
f 347/391/347 346/387/346 363/406/363 364/410/364
f 340/392/340 339/388/339 356/407/356 357/411/357
f 333/393/333 332/390/332 349/409/349 350/412/350
f 348/394/348 347/391/347 364/410/364 365/413/365
f 341/395/341 340/392/340 357/411/357 358/414/358
f 334/396/334 333/393/333 350/412/350 351/415/351
f 8/416/8 348/394/348 365/413/365
f 342/379/342 341/395/341 358/414/358 359/398/359
f 335/381/335 334/396/334 351/415/351 352/400/352
f 360/417/360 359/418/359 376/419/376 377/420/377
f 353/421/353 352/422/352 369/423/369 370/424/370
f 361/425/361 360/417/360 377/420/377 378/426/378
f 354/427/354 353/421/353 370/424/370 371/428/371
f 362/429/362 361/425/361 378/426/378 379/430/379
f 355/431/355 354/427/354 371/428/371 372/432/372
f 363/433/363 362/429/362 379/430/379 380/434/380
f 356/435/356 355/431/355 372/432/372 373/436/373
f 349/437/349 1/438/1 366/439/366
f 364/440/364 363/433/363 380/434/380 381/441/381
f 357/442/357 356/435/356 373/436/373 374/443/374
f 350/444/350 349/437/349 366/439/366 367/445/367
f 365/446/365 364/440/364 381/441/381 382/447/382
f 358/448/358 357/442/357 374/443/374 375/449/375
f 351/450/351 350/444/350 367/445/367 368/451/368
f 8/452/8 365/446/365 382/447/382
f 359/418/359 358/448/358 375/449/375 376/419/376
f 352/422/352 351/450/351 368/451/368 369/423/369
f 377/420/377 376/419/376 393/453/393 394/454/394
f 370/424/370 369/423/369 386/455/386 387/456/387
f 378/426/378 377/420/377 394/454/394 395/457/395
f 371/428/371 370/424/370 387/456/387 388/458/388
f 379/430/379 378/426/378 395/457/395 396/459/396
f 372/432/372 371/428/371 388/458/388 389/460/389
f 380/434/380 379/430/379 396/459/396 397/461/397
f 373/436/373 372/432/372 389/460/389 390/462/390
f 366/439/366 1/463/1 383/464/383
f 381/441/381 380/434/380 397/461/397 398/465/398
f 374/443/374 373/436/373 390/462/390 391/466/391
f 367/445/367 366/439/366 383/464/383 384/467/384
f 382/447/382 381/441/381 398/465/398 399/468/399
f 375/449/375 374/443/374 391/466/391 392/469/392
f 368/451/368 367/445/367 384/467/384 385/470/385
f 8/471/8 382/447/382 399/468/399
f 376/419/376 375/449/375 392/469/392 393/453/393
f 369/423/369 368/451/368 385/470/385 386/455/386
f 394/454/394 393/453/393 410/472/410 411/473/411
f 387/456/387 386/455/386 403/474/403 404/475/404
f 395/457/395 394/454/394 411/473/411 412/476/412
f 388/458/388 387/456/387 404/475/404 405/477/405
f 396/459/396 395/457/395 412/476/412 413/478/413
f 389/460/389 388/458/388 405/477/405 406/479/406
f 397/461/397 396/459/396 413/478/413 414/480/414
f 390/462/390 389/460/389 406/479/406 407/481/407
f 383/464/383 1/482/1 400/483/400
f 398/465/398 397/461/397 414/480/414 415/484/415
f 391/466/391 390/462/390 407/481/407 408/485/408
f 384/467/384 383/464/383 400/483/400 401/486/401
f 399/468/399 398/465/398 415/484/415 416/487/416
f 392/469/392 391/466/391 408/485/408 409/488/409
f 385/470/385 384/467/384 401/486/401 402/489/402
f 8/490/8 399/468/399 416/487/416
f 393/453/393 392/469/392 409/488/409 410/472/410
f 386/455/386 385/470/385 402/489/402 403/474/403
f 411/473/411 410/472/410 427/491/427 428/492/428
f 404/475/404 403/474/403 420/493/420 421/494/421
f 412/476/412 411/473/411 428/492/428 429/495/429
f 405/477/405 404/475/404 421/494/421 422/496/422
f 413/478/413 412/476/412 429/495/429 430/497/430
f 406/479/406 405/477/405 422/496/422 423/498/423
f 414/480/414 413/478/413 430/497/430 431/499/431
f 407/481/407 406/479/406 423/498/423 424/500/424
f 400/483/400 1/501/1 417/502/417
f 415/484/415 414/480/414 431/499/431 432/503/432
f 408/485/408 407/481/407 424/500/424 425/504/425
f 401/486/401 400/483/400 417/502/417 418/505/418
f 416/487/416 415/484/415 432/503/432 433/506/433
f 409/488/409 408/485/408 425/504/425 426/507/426
f 402/489/402 401/486/401 418/505/418 419/508/419
f 8/509/8 416/487/416 433/506/433
f 410/472/410 409/488/409 426/507/426 427/491/427
f 403/474/403 402/489/402 419/508/419 420/493/420
f 428/492/428 427/491/427 444/510/444 445/511/445
f 421/494/421 420/493/420 437/512/437 438/513/438
f 429/495/429 428/492/428 445/511/445 446/514/446
f 422/496/422 421/494/421 438/513/438 439/515/439
f 430/497/430 429/495/429 446/514/446 447/516/447
f 423/498/423 422/496/422 439/515/439 440/517/440
f 431/499/431 430/497/430 447/516/447 448/518/448
f 424/500/424 423/498/423 440/517/440 441/519/441
f 417/502/417 1/520/1 434/521/434
f 432/503/432 431/499/431 448/518/448 449/522/449
f 425/504/425 424/500/424 441/519/441 442/523/442
f 418/505/418 417/502/417 434/521/434 435/524/435
f 433/506/433 432/503/432 449/522/449 450/525/450
f 426/507/426 425/504/425 442/523/442 443/526/443
f 419/508/419 418/505/418 435/524/435 436/527/436
f 8/528/8 433/506/433 450/525/450
f 427/491/427 426/507/426 443/526/443 444/510/444
f 420/493/420 419/508/419 436/527/436 437/512/437
f 445/511/445 444/510/444 461/529/461 462/530/462
f 438/513/438 437/512/437 454/531/454 455/532/455
f 446/514/446 445/511/445 462/530/462 463/533/463
f 439/515/439 438/513/438 455/532/455 456/534/456
f 447/516/447 446/514/446 463/533/463 464/535/464
f 440/517/440 439/515/439 456/534/456 457/536/457
f 448/518/448 447/516/447 464/535/464 465/537/465
f 441/519/441 440/517/440 457/536/457 458/538/458
f 434/521/434 1/539/1 451/540/451
f 449/522/449 448/518/448 465/537/465 466/541/466
f 442/523/442 441/519/441 458/538/458 459/542/459
f 435/524/435 434/521/434 451/540/451 452/543/452
f 450/525/450 449/522/449 466/541/466 467/544/467
f 443/526/443 442/523/442 459/542/459 460/545/460
f 436/527/436 435/524/435 452/543/452 453/546/453
f 8/547/8 450/525/450 467/544/467
f 444/510/444 443/526/443 460/545/460 461/529/461
f 437/512/437 436/527/436 453/546/453 454/531/454
f 462/530/462 461/529/461 475/25/475 476/29/476
f 455/532/455 454/531/454 3/27/3 470/31/470
f 463/533/463 462/530/462 476/29/476 5/33/5
f 456/534/456 455/532/455 470/31/470 471/35/471
f 464/535/464 463/533/463 5/33/5 6/2/6
f 457/536/457 456/534/456 471/35/471 472/6/472
f 465/537/465 464/535/464 6/2/6 477/1/477
f 458/538/458 457/536/457 472/6/472 4/5/4
f 451/540/451 1/548/1 2/9/2
f 466/541/466 465/537/465 477/1/477 478/12/478
f 459/542/459 458/538/458 4/5/4 473/14/473
f 452/543/452 451/540/451 2/9/2 468/16/468
f 467/544/467 466/541/466 478/12/478 7/18/7
f 460/545/460 459/542/459 473/14/473 474/20/474
f 453/546/453 452/543/452 468/16/468 469/22/469
f 8/549/8 467/544/467 7/18/7
f 461/529/461 460/545/460 474/20/474 475/25/475
f 454/531/454 453/546/453 469/22/469 3/27/3
f 480/550/480 486/551/486 487/552/487 481/553/481
f 481/554/481 487/555/487 485/556/485 479/557/479
f 489/558/489 483/559/483 484/560/484 490/561/490
f 490/562/490 484/563/484 482/564/482 488/565/488
f 486/551/486 492/566/492 493/567/493 487/552/487
f 487/555/487 493/568/493 491/569/491 485/556/485
f 495/570/495 489/558/489 490/561/490 496/571/496
f 496/572/496 490/562/490 488/565/488 494/573/494
f 492/566/492 498/574/498 499/575/499 493/567/493
f 493/568/493 499/576/499 497/577/497 491/569/491
f 501/578/501 495/570/495 496/571/496 502/579/502
f 502/580/502 496/572/496 494/573/494 500/581/500
f 498/574/498 504/582/504 505/583/505 499/575/499
f 499/576/499 505/584/505 503/585/503 497/577/497
f 507/586/507 501/578/501 502/579/502 508/587/508
f 508/588/508 502/580/502 500/581/500 506/589/506
f 504/582/504 510/590/510 511/591/511 505/583/505
f 505/584/505 511/592/511 509/593/509 503/585/503
f 513/594/513 507/586/507 508/587/508 514/595/514
f 514/596/514 508/588/508 506/589/506 512/597/512
f 510/590/510 516/598/516 517/599/517 511/591/511
f 511/592/511 517/600/517 515/601/515 509/593/509
f 519/602/519 513/594/513 514/595/514 520/603/520
f 520/604/520 514/596/514 512/597/512 518/605/518
f 516/598/516 522/606/522 523/607/523 517/599/517
f 517/600/517 523/608/523 521/609/521 515/601/515
f 525/610/525 519/602/519 520/603/520 526/611/526
f 526/612/526 520/604/520 518/605/518 524/613/524
f 522/606/522 528/614/528 529/615/529 523/607/523
f 523/608/523 529/616/529 527/617/527 521/609/521
f 531/618/531 525/610/525 526/611/526 532/619/532
f 532/620/532 526/612/526 524/613/524 530/621/530
f 528/614/528 534/622/534 535/623/535 529/615/529
f 529/616/529 535/624/535 533/625/533 527/617/527
f 537/626/537 531/618/531 532/619/532 538/627/538
f 538/628/538 532/620/532 530/621/530 536/629/536
f 534/622/534 540/630/540 541/631/541 535/623/535
f 535/624/535 541/632/541 539/633/539 533/625/533
f 543/634/543 537/626/537 538/627/538 544/635/544
f 544/636/544 538/628/538 536/629/536 542/637/542
f 540/630/540 546/638/546 547/639/547 541/631/541
f 541/632/541 547/640/547 545/641/545 539/633/539
f 549/642/549 543/634/543 544/635/544 550/643/550
f 550/644/550 544/636/544 542/637/542 548/645/548
f 546/638/546 552/646/552 553/647/553 547/639/547
f 547/640/547 553/648/553 551/649/551 545/641/545
f 555/650/555 549/642/549 550/643/550 556/651/556
f 556/652/556 550/644/550 548/645/548 554/653/554
f 552/646/552 558/654/558 559/655/559 553/647/553
f 553/648/553 559/656/559 557/657/557 551/649/551
f 561/658/561 555/650/555 556/651/556 562/659/562
f 562/660/562 556/652/556 554/653/554 560/661/560
f 558/654/558 564/662/564 565/663/565 559/655/559
f 559/656/559 565/664/565 563/665/563 557/657/557
f 567/666/567 561/658/561 562/659/562 568/667/568
f 568/668/568 562/660/562 560/661/560 566/669/566
f 564/662/564 570/670/570 571/671/571 565/663/565
f 565/664/565 571/672/571 569/673/569 563/665/563
f 573/674/573 567/666/567 568/667/568 574/675/574
f 574/676/574 568/668/568 566/669/566 572/677/572
f 570/670/570 576/678/576 577/679/577 571/671/571
f 571/672/571 577/680/577 575/681/575 569/673/569
f 579/682/579 573/674/573 574/675/574 580/683/580
f 580/684/580 574/676/574 572/677/572 578/685/578
f 576/678/576 582/686/582 583/687/583 577/679/577
f 577/680/577 583/688/583 581/689/581 575/681/575
f 585/690/585 579/682/579 580/683/580 586/691/586
f 586/692/586 580/684/580 578/685/578 584/693/584
f 582/686/582 588/694/588 589/695/589 583/687/583
f 583/688/583 589/696/589 587/697/587 581/689/581
f 591/698/591 585/690/585 586/691/586 592/699/592
f 592/700/592 586/692/586 584/693/584 590/701/590
f 588/694/588 594/702/594 595/703/595 589/695/589
f 589/696/589 595/704/595 593/705/593 587/697/587
f 597/706/597 591/698/591 592/699/592 598/707/598
f 598/708/598 592/700/592 590/701/590 596/709/596
f 594/702/594 600/710/600 601/711/601 595/703/595
f 595/704/595 601/712/601 599/713/599 593/705/593
f 603/714/603 597/706/597 598/707/598 604/715/604
f 604/716/604 598/708/598 596/709/596 602/717/602
f 600/710/600 606/718/606 607/719/607 601/711/601
f 601/712/601 607/720/607 605/721/605 599/713/599
f 609/722/609 603/714/603 604/715/604 610/723/610
f 610/724/610 604/716/604 602/717/602 608/725/608
f 606/718/606 612/726/612 613/727/613 607/719/607
f 607/720/607 613/728/613 611/729/611 605/721/605
f 615/730/615 609/722/609 610/723/610 616/731/616
f 616/732/616 610/724/610 608/725/608 614/733/614
f 612/726/612 618/734/618 619/735/619 613/727/613
f 613/728/613 619/736/619 617/737/617 611/729/611
f 621/738/621 615/730/615 616/731/616 622/739/622
f 622/740/622 616/732/616 614/733/614 620/741/620
f 618/734/618 480/742/480 481/743/481 619/735/619
f 619/736/619 481/554/481 479/557/479 617/737/617
f 483/744/483 621/738/621 622/739/622 484/745/484
f 484/563/484 622/740/622 620/741/620 482/564/482
f 479/557/479 485/556/485 491/569/491 497/577/497 503/585/503 509/593/509 515/601/515 521/609/521 527/617/527 533/625/533 539/633/539 545/641/545 551/649/551 557/657/557 563/665/563 569/673/569 575/681/575 581/689/581 587/697/587 593/705/593 599/713/599 605/721/605 611/729/611 617/737/617
f 480/550/480 483/559/483 489/558/489 486/551/486
f 618/734/618 621/738/621 483/744/483 480/742/480
f 488/565/488 482/564/482 620/741/620 614/733/614 608/725/608 602/717/602 596/709/596 590/701/590 584/693/584 578/685/578 572/677/572 566/669/566 560/661/560 554/653/554 548/645/548 542/637/542 536/629/536 530/621/530 524/613/524 518/605/518 512/597/512 506/589/506 500/581/500 494/573/494
f 486/551/486 489/558/489 495/570/495 492/566/492
f 492/566/492 495/570/495 501/578/501 498/574/498
f 498/574/498 501/578/501 507/586/507 504/582/504
f 504/582/504 507/586/507 513/594/513 510/590/510
f 510/590/510 513/594/513 519/602/519 516/598/516
f 516/598/516 519/602/519 525/610/525 522/606/522
f 522/606/522 525/610/525 531/618/531 528/614/528
f 528/614/528 531/618/531 537/626/537 534/622/534
f 534/622/534 537/626/537 543/634/543 540/630/540
f 540/630/540 543/634/543 549/642/549 546/638/546
f 546/638/546 549/642/549 555/650/555 552/646/552
f 552/646/552 555/650/555 561/658/561 558/654/558
f 558/654/558 561/658/561 567/666/567 564/662/564
f 564/662/564 567/666/567 573/674/573 570/670/570
f 570/670/570 573/674/573 579/682/579 576/678/576
f 576/678/576 579/682/579 585/690/585 582/686/582
f 582/686/582 585/690/585 591/698/591 588/694/588
f 588/694/588 591/698/591 597/706/597 594/702/594
f 594/702/594 597/706/597 603/714/603 600/710/600
f 600/710/600 603/714/603 609/722/609 606/718/606
f 606/718/606 609/722/609 615/730/615 612/726/612
f 612/726/612 615/730/615 621/738/621 618/734/618
